<svg id="Layer_1" viewBox="0 0 1697.6 1405.17" xmlns="http://www.w3.org/2000/svg"><g id="back"><g id="back-2"><path id="sphere" d="M2728.32-488.89c0-1528.34-1241.46-2769.81-2769.81-2769.81S-2811.31-2017.23-2811.31-488.89-1569.85,2280.92-41.49,2280.92h0c1528.34,0,2769.81-1241.46,2769.81-2769.81Z" style="fill:#f2f2f2; stroke:#ddd; stroke-miterlimit:10; stroke-width:3px;" /></g><g id="sectors"><path id="_203" d="M-57.07,1436.78c-145.43-89.12-400.61-245.51-546.04-334.63,84.13-134.43,157.34-275.13,219.04-420.74h0c158.5,65.66,433.17,179.39,591.67,245.05,0,0-165.46,353.52-264.67,510.32h0Z" style="fill:#fff; stroke:#ddd; stroke-miterlimit:10; stroke-width:9px;" /><path id="_204" d="M207.61,926.46c-38.71-16.04-433.14-179.42-591.65-245.07,61.78-145.78,112.02-296.48,150.13-450.7,207.57,49.83,415.13,99.66,622.7,149.5-30.57,124.33-67.81,247.45-111.69,368.81h0c-21.66,59.88-44.83,119.05-69.49,177.46h0Z" style="fill:#fff; stroke:#ddd; stroke-miterlimit:10; stroke-width:9px;" /><path id="_205" d="M-233.91,230.69c207.57,49.83,415.15,99.67,622.72,149.5,50.62-205.84,82.98-415.04,97.07-625.17-54.3-4.27-479.96-37.77-638.47-50.25-8.94,138.44-27.51,276.4-55.69,412.89h0c-7.82,37.87-16.36,75.56-25.62,113.03h0Z" style="fill:#fff; stroke:#ddd; stroke-miterlimit:10; stroke-width:9px;" /><path id="_403" d="M838.86,1784.45c58.27,35.71,116.55,71.43,174.84,107.15,267.98-119.46,512.21-282.18,723.64-479.17-3.46-1.43-553.26-229.18-587.75-243.46-72.42,176.85-156.05,348.07-250.14,512.72h0c-19.74,34.55-39.95,68.8-60.6,102.76h.01Z" style="fill:#fff; stroke:#ddd; stroke-miterlimit:10; stroke-width:9px;" /><path id="_302" d="M293.59,2096.51c-150.97-109.68-301.93-219.36-452.89-329.05,107.7-130.76,206.03-269.24,294.17-414.41,234.61,143.77,644.21,394.78,878.83,538.55-105.47,57.12-177.69,72.59-323.11,120.12h0c-128.51,38.04-261.12,66.58-397,84.79Z" style="fill:#fff; stroke:#ddd; stroke-miterlimit:10; stroke-width:9px;" /><path id="_303" d="M838.71,1784.37c-234.62-143.77-469.24-287.55-703.85-431.32,96.59-159.1,180.92-326.23,251.9-500.05,254.22,105.3,508.45,210.61,762.68,315.91-72.41,176.85-156.04,348.06-250.14,512.71h0c-19.74,34.55-39.94,68.8-60.59,102.75h0Z" style="fill:#fff; stroke:#ddd; stroke-miterlimit:10; stroke-width:9px;" /><path id="_304" d="M752.01,366.18c-12.93,55.22-27.11,110.15-42.54,164.75-75.95,20.35-151.89,40.7-227.85,61.05-13.04,40.79-26.83,81.4-41.39,121.81-16.88,46.86-34.71,93.27-53.48,139.21,254.22,105.3,508.45,210.61,762.68,315.91,23.71-57.9,46.22-116.4,67.49-175.48,56.99-158.26,104.57-318.99,142.74-481.38h0c-202.56-48.63-405.12-97.26-607.66-145.88h0Z" style="fill:#fff; stroke:#ddd; stroke-miterlimit:10; stroke-width:9px;" /><path id="_305" d="M1359.67,512.05c-202.56-48.63-405.12-97.26-607.66-145.88,32.38-138.24,56.9-278.33,73.41-419.58,6.5-55.69,11.76-111.48,15.76-167.35,207.66,16.34,415.33,32.69,623.01,49.03-10.51,144.74-28.24,289.08-53.18,432.48h0c-14.63,84.13-31.74,167.93-51.34,251.3h0Z" style="fill:#fff; stroke:#ddd; stroke-miterlimit:10; stroke-width:9px;" /><path id="_405" d="M2263.42,729.02c133.85-250.71,227.69-525.62,273.08-816.35-30.41-2.39-60.81-4.78-91.21-7.18-327-25.74-654-51.47-980.98-77.21-10.51,144.77-28.24,289.12-53.18,432.54-14.63,84.11-31.74,167.9-51.33,251.25h0c301.2,72.31,602.4,144.62,903.62,216.94h0Z" style="fill:#fff; stroke:#ddd; stroke-miterlimit:10; stroke-width:9px;" /><path id="_404" d="M1149.57,1168.95c23.71-57.89,46.21-116.38,67.48-175.44,3.56-9.8,7.11-19.6,10.59-29.43,35.18-99.44,66.58-200.11,94.18-301.9,2.86-10.54,5.62-21.11,8.4-31.66,10.42-39.37,20.28-78.85,29.58-118.43,301.19,72.32,602.4,144.63,903.61,216.94-83.29,156.03-182.08,302.68-294.32,437.95-105.11,114.41-204.72,222.02-231.76,245.45l-10.34-4.3s-384.96-159.46-577.42-239.18h0Z" style="fill:#fff; stroke:#ddd; stroke-miterlimit:10; stroke-width:9px;" /></g></g><g id="Seats"><circle id="SPH04475" cx="969.37" cy="462.29" r="9.2" style="fill:#ccc; stroke-width:0px;" /><circle id="SPH04476" cx="963.84" cy="485.19" r="9.2" style="fill:#ccc; stroke-width:0px;" /><circle id="SPH04477" cx="958.3" cy="508.09" r="9.2" style="fill:#ccc; stroke-width:0px;" /><circle id="SPH04478" cx="952.73" cy="530.97" r="9.2" style="fill:#ccc; stroke-width:0px;" /><circle id="SPH04479" cx="946.21" cy="553.62" r="9.2" style="fill:#ccc; stroke-width:0px;" /><circle id="SPH04480" cx="939.69" cy="576.27" r="9.2" style="fill:#ccc; stroke-width:0px;" /><circle id="SPH04481" cx="933.17" cy="598.89" r="9.2" style="fill:#ccc; stroke-width:0px;" /><circle id="SPH04482" cx="926.64" cy="621.53" r="9.2" style="fill:#ccc; stroke-width:0px;" /><circle id="SPH04483" cx="920.13" cy="644.18" r="9.2" style="fill:#ccc; stroke-width:0px;" /><circle id="SPH04484" cx="913.61" cy="666.82" r="9.2" style="fill:#ccc; stroke-width:0px;" /><circle id="SPH04485" cx="907.08" cy="689.46" r="9.2" style="fill:#ccc; stroke-width:0px;" /><circle id="SPH04486" cx="899.86" cy="711.9" r="9.2" style="fill:#ccc; stroke-width:0px;" /><circle id="SPH04487" cx="892.37" cy="734.21" r="9.2" style="fill:#ccc; stroke-width:0px;" /><circle id="SPH04488" cx="884.88" cy="756.51" r="9.2" style="fill:#ccc; stroke-width:0px;" /><circle id="SPH04489" cx="877.4" cy="778.81" r="9.2" style="fill:#ccc; stroke-width:0px;" /><circle id="SPH04490" cx="869.91" cy="801.11" r="9.2" style="fill:#ccc; stroke-width:0px;" /><circle id="SPH04491" cx="862.41" cy="823.42" r="9.2" style="fill:#ccc; stroke-width:0px;" /><circle id="SPH04492" cx="854.93" cy="845.74" r="9.2" style="fill:#ccc; stroke-width:0px;" /><circle id="SPH04493" cx="847.09" cy="867.95" r="9.2" style="fill:#ccc; stroke-width:0px;" /><circle id="SPH04494" cx="838.62" cy="889.95" r="9.2" style="fill:#ccc; stroke-width:0px;" /><circle id="SPH04495" cx="830.16" cy="911.95" r="9.2" style="fill:#ccc; stroke-width:0px;" /><circle id="SPH04496" cx="821.69" cy="933.96" r="9.2" style="fill:#ccc; stroke-width:0px;" /><circle id="SPH04497" cx="813.21" cy="955.97" r="9.2" style="fill:#ccc; stroke-width:0px;" /><circle id="SPH04498" cx="804.73" cy="977.99" r="9.2" style="fill:#ccc; stroke-width:0px;" /><circle id="SPH04499" cx="1007.88" cy="471.53" r="9.2" style="fill:#ccc; stroke-width:0px;" /><circle id="SPH04500" cx="1002.51" cy="493.73" r="9.2" style="fill:#ccc; stroke-width:0px;" /><circle id="SPH04501" cx="997.15" cy="515.93" r="9.2" style="fill:#ccc; stroke-width:0px;" /><circle id="SPH04502" cx="991.78" cy="538.13" r="9.2" style="fill:#ccc; stroke-width:0px;" /><circle id="SPH04503" cx="985.55" cy="560.1" r="9.2" style="fill:#ccc; stroke-width:0px;" /><circle id="SPH04504" cx="979.23" cy="582.05" r="9.2" style="fill:#ccc; stroke-width:0px;" /><circle id="SPH04505" cx="972.9" cy="604" r="9.2" style="fill:#ccc; stroke-width:0px;" /><circle id="SPH04506" cx="966.58" cy="625.95" r="9.2" style="fill:#ccc; stroke-width:0px;" /><circle id="SPH04507" cx="960.26" cy="647.9" r="9.2" style="fill:#ccc; stroke-width:0px;" /><circle id="SPH04508" cx="953.94" cy="669.85" r="9.2" style="fill:#ccc; stroke-width:0px;" /><circle id="SPH04509" cx="947.61" cy="691.8" r="9.2" style="fill:#ccc; stroke-width:0px;" /><circle id="SPH04510" cx="941.04" cy="713.67" r="9.2" style="fill:#ccc; stroke-width:0px;" /><circle id="SPH04511" cx="933.77" cy="735.33" r="9.2" style="fill:#ccc; stroke-width:0px;" /><circle id="SPH04512" cx="926.5" cy="756.97" r="9.2" style="fill:#ccc; stroke-width:0px;" /><circle id="SPH04513" cx="919.23" cy="778.63" r="9.2" style="fill:#ccc; stroke-width:0px;" /><circle id="SPH04514" cx="911.96" cy="800.29" r="9.2" style="fill:#ccc; stroke-width:0px;" /><circle id="SPH04515" cx="904.69" cy="821.95" r="9.2" style="fill:#ccc; stroke-width:0px;" /><circle id="SPH04516" cx="897.41" cy="843.61" r="9.2" style="fill:#ccc; stroke-width:0px;" /><circle id="SPH04517" cx="890.13" cy="865.29" r="9.2" style="fill:#ccc; stroke-width:0px;" /><circle id="SPH04518" cx="882.29" cy="886.76" r="9.2" style="fill:#ccc; stroke-width:0px;" /><circle id="SPH04519" cx="874.07" cy="908.09" r="9.2" style="fill:#ccc; stroke-width:0px;" /><circle id="SPH04520" cx="865.86" cy="929.44" r="9.2" style="fill:#ccc; stroke-width:0px;" /><circle id="SPH04521" cx="857.64" cy="950.77" r="9.2" style="fill:#ccc; stroke-width:0px;" /><circle id="SPH04522" cx="849.43" cy="972.11" r="9.2" style="fill:#ccc; stroke-width:0px;" /><circle id="SPH04523" cx="841.22" cy="993.44" r="9.2" style="fill:#ccc; stroke-width:0px;" /><circle id="SPH04524" cx="1046.38" cy="480.77" r="9.2" style="fill:#ccc; stroke-width:0px;" /><circle id="SPH04525" cx="1040.96" cy="503.24" r="9.2" style="fill:#ccc; stroke-width:0px;" /><circle id="SPH04526" cx="1035.53" cy="525.69" r="9.2" style="fill:#ccc; stroke-width:0px;" /><circle id="SPH04527" cx="1030.11" cy="548.14" r="9.2" transform="translate(324.04 1477.15) rotate(-80.78)" style="fill:#ccc; stroke-width:0px;" /><circle id="SPH04528" cx="1023.8" cy="570.37" r="9.2" style="fill:#ccc; stroke-width:0px;" /><circle id="SPH04529" cx="1017.41" cy="592.57" r="9.2" style="fill:#ccc; stroke-width:0px;" /><circle id="SPH04530" cx="1011.01" cy="614.77" r="9.2" style="fill:#ccc; stroke-width:0px;" /><circle id="SPH04531" cx="1004.62" cy="636.96" r="9.2" style="fill:#ccc; stroke-width:0px;" /><circle id="SPH04532" cx="998.23" cy="659.16" r="9.2" style="fill:#ccc; stroke-width:0px;" /><circle id="SPH04533" cx="991.84" cy="681.35" r="9.2" style="fill:#ccc; stroke-width:0px;" /><circle id="SPH04534" cx="985.44" cy="703.54" r="9.2" style="fill:#ccc; stroke-width:0px;" /><circle id="SPH04535" cx="978.79" cy="725.65" r="9.2" style="fill:#ccc; stroke-width:0px;" /><circle id="SPH04536" cx="971.43" cy="747.56" r="9.2" style="fill:#ccc; stroke-width:0px;" /><circle id="SPH04537" cx="964.06" cy="769.5" r="9.2" style="fill:#ccc; stroke-width:0px;" /><circle id="SPH04538" cx="956.7" cy="791.44" r="9.2" style="fill:#ccc; stroke-width:0px;" /><circle id="SPH04539" cx="949.33" cy="813.37" r="9.2" style="fill:#ccc; stroke-width:0px;" /><circle id="SPH04540" cx="941.97" cy="835.3" r="9.2" style="fill:#ccc; stroke-width:0px;" /><circle id="SPH04541" cx="934.61" cy="857.21" r="9.2" style="fill:#ccc; stroke-width:0px;" /><circle id="SPH04542" cx="927.26" cy="879.12" r="9.2" style="fill:#ccc; stroke-width:0px;" /><circle id="SPH04543" cx="919.31" cy="900.81" r="9.2" style="fill:#ccc; stroke-width:0px;" /><circle id="SPH04544" cx="911.01" cy="922.37" r="9.2" style="fill:#ccc; stroke-width:0px;" /><circle id="SPH04545" cx="902.72" cy="943.92" r="9.2" style="fill:#ccc; stroke-width:0px;" /><circle id="SPH04546" cx="894.42" cy="965.47" r="9.2" style="fill:#ccc; stroke-width:0px;" /><circle id="SPH04547" cx="886.13" cy="987.01" r="9.2" style="fill:#ccc; stroke-width:0px;" /><circle id="SPH04548" cx="877.84" cy="1008.55" r="9.2" style="fill:#ccc; stroke-width:0px;" /><circle id="SPH04549" cx="1084.89" cy="490.02" r="9.2" style="fill:#ccc; stroke-width:0px;" /><circle id="SPH04550" cx="1079.4" cy="512.73" r="9.2" style="fill:#ccc; stroke-width:0px;" /><circle id="SPH04551" cx="1073.92" cy="535.44" r="9.2" style="fill:#ccc; stroke-width:0px;" /><circle id="SPH04552" cx="1068.43" cy="558.15" r="9.2" style="fill:#ccc; stroke-width:0px;" /><circle id="SPH04553" cx="1062.05" cy="580.62" r="9.2" style="fill:#ccc; stroke-width:0px;" /><circle id="SPH04554" cx="1055.59" cy="603.07" r="9.2" style="fill:#ccc; stroke-width:0px;" /><circle id="SPH04555" cx="1049.13" cy="625.52" r="9.2" style="fill:#ccc; stroke-width:0px;" /><circle id="SPH04556" cx="1042.66" cy="647.97" r="9.2" style="fill:#ccc; stroke-width:0px;" /><circle id="SPH04557" cx="1036.2" cy="670.41" r="9.2" style="fill:#ccc; stroke-width:0px;" /><circle id="SPH04558" cx="1029.73" cy="692.87" r="9.2" transform="translate(180.86 1598.32) rotate(-80.78)" style="fill:#ccc; stroke-width:0px;" /><circle id="SPH04559" cx="1023.26" cy="715.32" r="9.2" transform="translate(153.27 1610.79) rotate(-80.78)" style="fill:#ccc; stroke-width:0px;" /><circle id="SPH04560" cx="1016.53" cy="737.68" r="9.2" transform="translate(125.55 1622.92) rotate(-80.78)" style="fill:#ccc; stroke-width:0px;" /><circle id="SPH04561" cx="1009.08" cy="759.84" r="9.2" style="fill:#ccc; stroke-width:0px;" /><circle id="SPH04562" cx="1001.64" cy="782.01" r="9.2" style="fill:#ccc; stroke-width:0px;" /><circle id="SPH04563" cx="994.19" cy="804.19" r="9.2" style="fill:#ccc; stroke-width:0px;" /><circle id="SPH04564" cx="986.75" cy="826.37" r="9.2" style="fill:#ccc; stroke-width:0px;" /><circle id="SPH04565" cx="979.3" cy="848.54" r="9.2" style="fill:#ccc; stroke-width:0px;" /><circle id="SPH04566" cx="971.86" cy="870.71" r="9.2" style="fill:#ccc; stroke-width:0px;" /><circle id="SPH04567" cx="964.41" cy="892.87" r="9.2" style="fill:#ccc; stroke-width:0px;" /><circle id="SPH04568" cx="956.36" cy="914.8" r="9.2" style="fill:#ccc; stroke-width:0px;" /><circle id="SPH04569" cx="947.97" cy="936.61" r="9.2" style="fill:#ccc; stroke-width:0px;" /><circle id="SPH04570" cx="939.57" cy="958.41" r="9.2" style="fill:#ccc; stroke-width:0px;" /><circle id="SPH04571" cx="931.17" cy="980.21" r="9.2" style="fill:#ccc; stroke-width:0px;" /><circle id="SPH04572" cx="922.78" cy="1002.02" r="9.2" style="fill:#ccc; stroke-width:0px;" /><circle id="SPH04573" cx="914.39" cy="1023.82" r="9.2" style="fill:#ccc; stroke-width:0px;" /><circle id="SPH04574" cx="1123.39" cy="499.27" r="9.2" style="fill:#ccc; stroke-width:0px;" /><circle id="SPH04575" cx="1117.84" cy="522.21" r="9.2" style="fill:#ccc; stroke-width:0px;" /><circle id="SPH04576" cx="1112.3" cy="545.18" r="9.2" style="fill:#ccc; stroke-width:0px;" /><circle id="SPH04577" cx="1106.75" cy="568.14" r="9.2" style="fill:#ccc; stroke-width:0px;" /><circle id="SPH04578" cx="1100.32" cy="590.87" r="9.2" style="fill:#ccc; stroke-width:0px;" /><circle id="SPH04579" cx="1093.77" cy="613.57" r="9.2" style="fill:#ccc; stroke-width:0px;" /><circle id="SPH04580" cx="1087.24" cy="636.27" r="9.2" style="fill:#ccc; stroke-width:0px;" /><circle id="SPH04581" cx="1080.7" cy="658.97" r="9.2" style="fill:#ccc; stroke-width:0px;" /><circle id="SPH04582" cx="1074.17" cy="681.67" r="9.2" style="fill:#ccc; stroke-width:0px;" /><circle id="SPH04583" cx="1067.62" cy="704.37" r="9.2" style="fill:#ccc; stroke-width:0px;" /><circle id="SPH04584" cx="1061.09" cy="727.07" r="9.2" style="fill:#ccc; stroke-width:0px;" /><circle id="SPH04585" cx="1054.26" cy="749.68" r="9.2" style="fill:#ccc; stroke-width:0px;" /><circle id="SPH04586" cx="1046.74" cy="772.09" r="9.2" style="fill:#ccc; stroke-width:0px;" /><circle id="SPH04587" cx="1039.22" cy="794.49" r="9.2" style="fill:#ccc; stroke-width:0px;" /><circle id="SPH04588" cx="1031.69" cy="816.9" r="9.2" transform="translate(60.08 1704.42) rotate(-80.78)" style="fill:#ccc; stroke-width:0px;" /><circle id="SPH04589" cx="1024.17" cy="839.31" r="9.2" transform="translate(31.64 1715.81) rotate(-80.78)" style="fill:#ccc; stroke-width:0px;" /><circle id="SPH04590" cx="1016.64" cy="861.73" r="9.2" transform="translate(3.19 1727.21) rotate(-80.78)" style="fill:#ccc; stroke-width:0px;" /><circle id="SPH04591" cx="1009.13" cy="884.13" r="9.2" style="fill:#ccc; stroke-width:0px;" /><circle id="SPH04592" cx="1001.6" cy="906.53" r="9.2" style="fill:#ccc; stroke-width:0px;" /><circle id="SPH04593" cx="993.44" cy="928.71" r="9.2" style="fill:#ccc; stroke-width:0px;" /><circle id="SPH04594" cx="984.95" cy="950.75" r="9.2" style="fill:#ccc; stroke-width:0px;" /><circle id="SPH04595" cx="976.46" cy="972.8" r="9.2" style="fill:#ccc; stroke-width:0px;" /><circle id="SPH04596" cx="967.97" cy="994.85" r="9.2" style="fill:#ccc; stroke-width:0px;" /><circle id="SPH04597" cx="959.49" cy="1016.89" r="9.2" style="fill:#ccc; stroke-width:0px;" /><circle id="SPH04598" cx="951.01" cy="1038.94" r="9.2" style="fill:#ccc; stroke-width:0px;" /><circle id="SPH04599" cx="1161.9" cy="508.51" r="9.2" style="fill:#ccc; stroke-width:0px;" /><circle id="SPH04600" cx="1156.52" cy="530.79" r="9.2" style="fill:#ccc; stroke-width:0px;" /><circle id="SPH04601" cx="1151.13" cy="553.08" r="9.2" style="fill:#ccc; stroke-width:0px;" /><circle id="SPH04602" cx="1145.75" cy="575.37" r="9.2" style="fill:#ccc; stroke-width:0px;" /><circle id="SPH04603" cx="1139.63" cy="597.45" r="9.2" style="fill:#ccc; stroke-width:0px;" /><circle id="SPH04604" cx="1133.29" cy="619.48" r="9.2" style="fill:#ccc; stroke-width:0px;" /><circle id="SPH04605" cx="1126.94" cy="641.5" r="9.2" style="fill:#ccc; stroke-width:0px;" /><circle id="SPH04606" cx="1120.6" cy="663.53" r="9.2" style="fill:#ccc; stroke-width:0px;" /><circle id="SPH04607" cx="1114.25" cy="685.55" r="9.2" style="fill:#ccc; stroke-width:0px;" /><circle id="SPH04608" cx="1107.91" cy="707.57" r="9.2" style="fill:#ccc; stroke-width:0px;" /><circle id="SPH04609" cx="1101.57" cy="729.6" r="9.2" style="fill:#ccc; stroke-width:0px;" /><circle id="SPH04610" cx="1095.22" cy="751.62" r="9.2" style="fill:#ccc; stroke-width:0px;" /><circle id="SPH04611" cx="1088.07" cy="773.41" r="9.2" style="fill:#ccc; stroke-width:0px;" /><circle id="SPH04612" cx="1080.77" cy="795.14" r="9.2" style="fill:#ccc; stroke-width:0px;" /><circle id="SPH04613" cx="1073.48" cy="816.88" r="9.2" style="fill:#ccc; stroke-width:0px;" /><circle id="SPH04614" cx="1066.17" cy="838.61" r="9.2" style="fill:#ccc; stroke-width:0px;" /><circle id="SPH04615" cx="1058.88" cy="860.35" r="9.2" style="fill:#ccc; stroke-width:0px;" /><circle id="SPH04616" cx="1051.58" cy="882.09" r="9.2" style="fill:#ccc; stroke-width:0px;" /><circle id="SPH04617" cx="1044.29" cy="903.82" r="9.2" style="fill:#ccc; stroke-width:0px;" /><circle id="SPH04618" cx="1036.99" cy="925.56" r="9.2" style="fill:#ccc; stroke-width:0px;" /><circle id="SPH04619" cx="1028.83" cy="946.99" r="9.2" transform="translate(-70.73 1810.84) rotate(-80.78)" style="fill:#ccc; stroke-width:0px;" /><circle id="SPH04620" cx="1020.6" cy="968.38" r="9.2" transform="translate(-98.76 1820.68) rotate(-80.78)" style="fill:#ccc; stroke-width:0px;" /><circle id="SPH04621" cx="1012.37" cy="989.77" r="9.2" style="fill:#ccc; stroke-width:0px;" /><circle id="SPH04622" cx="1004.13" cy="1011.16" r="9.2" style="fill:#ccc; stroke-width:0px;" /><circle id="SPH04623" cx="995.89" cy="1032.55" r="9.2" style="fill:#ccc; stroke-width:0px;" /><circle id="SPH04624" cx="987.66" cy="1053.94" r="9.2" style="fill:#ccc; stroke-width:0px;" /><circle id="SPH04625" cx="1200.41" cy="517.75" r="9.2" style="fill:#ccc; stroke-width:0px;" /><circle id="SPH04626" cx="1194.97" cy="540.29" r="9.2" style="fill:#ccc; stroke-width:0px;" /><circle id="SPH04627" cx="1189.52" cy="562.81" r="9.2" style="fill:#ccc; stroke-width:0px;" /><circle id="SPH04628" cx="1184.08" cy="585.34" r="9.2" style="fill:#ccc; stroke-width:0px;" /><circle id="SPH04629" cx="1177.89" cy="607.67" r="9.2" style="fill:#ccc; stroke-width:0px;" /><circle id="SPH04630" cx="1171.48" cy="629.94" r="9.2" style="fill:#ccc; stroke-width:0px;" /><circle id="SPH04631" cx="1165.07" cy="652.21" r="9.2" style="fill:#ccc; stroke-width:0px;" /><circle id="SPH04632" cx="1158.65" cy="674.49" r="9.2" style="fill:#ccc; stroke-width:0px;" /><circle id="SPH04633" cx="1152.24" cy="696.75" r="9.2" style="fill:#ccc; stroke-width:0px;" /><circle id="SPH04634" cx="1145.82" cy="719.03" r="9.2" style="fill:#ccc; stroke-width:0px;" /><circle id="SPH04635" cx="1139.41" cy="741.29" r="9.2" style="fill:#ccc; stroke-width:0px;" /><circle id="SPH04636" cx="1133" cy="763.56" r="9.2" style="fill:#ccc; stroke-width:0px;" /><circle id="SPH04637" cx="1125.76" cy="785.56" r="9.2" style="fill:#ccc; stroke-width:0px;" /><circle id="SPH04638" cx="1118.39" cy="807.52" r="9.2" style="fill:#ccc; stroke-width:0px;" /><circle id="SPH04639" cx="1111.01" cy="829.49" r="9.2" style="fill:#ccc; stroke-width:0px;" /><circle id="SPH04640" cx="1103.64" cy="851.45" r="9.2" style="fill:#ccc; stroke-width:0px;" /><circle id="SPH04641" cx="1096.27" cy="873.41" r="9.2" style="fill:#ccc; stroke-width:0px;" /><circle id="SPH04642" cx="1088.89" cy="895.37" r="9.2" style="fill:#ccc; stroke-width:0px;" /><circle id="SPH04643" cx="1081.52" cy="917.33" r="9.2" style="fill:#ccc; stroke-width:0px;" /><circle id="SPH04644" cx="1074.14" cy="939.3" r="9.2" style="fill:#ccc; stroke-width:0px;" /><circle id="SPH04645" cx="1065.89" cy="960.96" r="9.2" style="fill:#ccc; stroke-width:0px;" /><circle id="SPH04646" cx="1057.57" cy="982.57" r="9.2" style="fill:#ccc; stroke-width:0px;" /><circle id="SPH04647" cx="1049.24" cy="1004.19" r="9.2" style="fill:#ccc; stroke-width:0px;" /><circle id="SPH04648" cx="1040.92" cy="1025.81" r="9.2" style="fill:#ccc; stroke-width:0px;" /><circle id="SPH04649" cx="1032.6" cy="1047.44" r="9.2" transform="translate(-322.24 474.89) rotate(-22.5)" style="fill:#ccc; stroke-width:0px;" /><circle id="SPH04650" cx="1024.28" cy="1069.05" r="9.2" transform="translate(-331.14 473.35) rotate(-22.5)" style="fill:#ccc; stroke-width:0px;" /><circle id="SPH04651" cx="1238.91" cy="527" r="9.2" style="fill:#ccc; stroke-width:0px;" /><circle id="SPH04652" cx="1233.41" cy="549.77" r="9.2" style="fill:#ccc; stroke-width:0px;" /><circle id="SPH04653" cx="1227.91" cy="572.53" r="9.2" style="fill:#ccc; stroke-width:0px;" /><circle id="SPH04654" cx="1222.41" cy="595.29" r="9.2" style="fill:#ccc; stroke-width:0px;" /><circle id="SPH04655" cx="1216.17" cy="617.86" r="9.2" style="fill:#ccc; stroke-width:0px;" /><circle id="SPH04656" cx="1209.69" cy="640.37" r="9.2" style="fill:#ccc; stroke-width:0px;" /><circle id="SPH04657" cx="1203.21" cy="662.87" r="9.2" style="fill:#ccc; stroke-width:0px;" /><circle id="SPH04658" cx="1196.73" cy="685.38" r="9.2" style="fill:#ccc; stroke-width:0px;" /><circle id="SPH04659" cx="1190.24" cy="707.89" r="9.2" style="fill:#ccc; stroke-width:0px;" /><circle id="SPH04660" cx="1183.76" cy="730.4" r="9.2" style="fill:#ccc; stroke-width:0px;" /><circle id="SPH04661" cx="1177.28" cy="752.91" r="9.2" style="fill:#ccc; stroke-width:0px;" /><circle id="SPH04662" cx="1170.79" cy="775.42" r="9.2" style="fill:#ccc; stroke-width:0px;" /><circle id="SPH04663" cx="1163.47" cy="797.66" r="9.2" style="fill:#ccc; stroke-width:0px;" /><circle id="SPH04664" cx="1156.02" cy="819.85" r="9.2" style="fill:#ccc; stroke-width:0px;" /><circle id="SPH04665" cx="1148.57" cy="842.04" r="9.2" style="fill:#ccc; stroke-width:0px;" /><circle id="SPH04666" cx="1141.13" cy="864.22" r="9.2" style="fill:#ccc; stroke-width:0px;" /><circle id="SPH04667" cx="1133.67" cy="886.42" r="9.2" style="fill:#ccc; stroke-width:0px;" /><circle id="SPH04668" cx="1126.22" cy="908.61" r="9.2" style="fill:#ccc; stroke-width:0px;" /><circle id="SPH04669" cx="1118.77" cy="930.81" r="9.2" style="fill:#ccc; stroke-width:0px;" /><circle id="SPH04670" cx="1111.32" cy="952.99" r="9.2" style="fill:#ccc; stroke-width:0px;" /><circle id="SPH04671" cx="1102.96" cy="974.88" r="9.2" style="fill:#ccc; stroke-width:0px;" /><circle id="SPH04672" cx="1094.55" cy="996.73" r="9.2" style="fill:#ccc; stroke-width:0px;" /><circle id="SPH04673" cx="1086.13" cy="1018.59" r="9.2" style="fill:#ccc; stroke-width:0px;" /><circle id="SPH04674" cx="1077.72" cy="1040.46" r="9.2" style="fill:#ccc; stroke-width:0px;" /><circle id="SPH04675" cx="1069.3" cy="1062.33" r="9.2" style="fill:#ccc; stroke-width:0px;" /><circle id="SPH04676" cx="1060.89" cy="1084.17" r="9.2" style="fill:#ccc; stroke-width:0px;" /><g id="GMYDIOSXIM5DEMA"><circle cx="1292.42" cy="565.78" r="9.2" style="fill:#ccc; stroke-width:0px;" /><path d="M1291.24,560.35c0-.3.25-.55.55-.55s.54.25.54.55-.24.55-.55.55-.55-.25-.55-.55h.01ZM1291.79,558.97c-.76,0-1.37.61-1.37,1.37h0c0,.77.61,1.39,1.36,1.39s1.37-.62,1.36-1.37h0c0-.76-.61-1.38-1.36-1.38h.01ZM1294.73,562.27v.83l-3.05.03v2.98l3.86.04.79,3.54.93-.14.12.82-1.68.25-.81-3.65-4.03-.04v-4.61l3.86-.04h.01ZM1290.27,565.22c-1.17.26-2,1.31-2,2.51,0,1.41,1.13,2.56,2.54,2.56h0c1.4,0,2.54-1.15,2.54-2.56h.82c0,1.86-1.49,3.38-3.36,3.39h0c-1.86-.01-3.36-1.53-3.36-3.39,0-1.59,1.1-2.97,2.65-3.32l.17.81h0Z" style="fill:#ccc; stroke-width:0px;" /></g><g id="GMYDIOSXIM5DCOI"><circle cx="1285.73" cy="593.47" r="9.2" style="fill:#ccc; stroke-width:0px;" /><path d="M1284.54,588.04c0-.3.25-.55.55-.55s.54.25.54.55-.24.55-.55.55-.55-.25-.55-.55h.01ZM1285.1,586.66c-.76,0-1.37.61-1.37,1.37h0c0,.77.61,1.39,1.36,1.39s1.37-.62,1.36-1.37h0c0-.76-.61-1.38-1.36-1.38h.01ZM1288.04,589.96v.83l-3.05.03v2.98l3.86.04.79,3.54.93-.14.12.82-1.68.25-.81-3.65-4.03-.04v-4.61l3.86-.04h.01ZM1283.57,592.91c-1.17.26-2,1.31-2,2.51,0,1.41,1.13,2.56,2.54,2.56h0c1.4,0,2.54-1.15,2.54-2.56h.82c0,1.86-1.49,3.38-3.36,3.39h0c-1.86-.01-3.36-1.53-3.36-3.39,0-1.59,1.1-2.97,2.65-3.32l.17.81h0Z" style="fill:#ccc; stroke-width:0px;" /></g><g id="GMYDIOSXIM5DCOA"><circle cx="1278.58" cy="622.01" r="9.2" style="fill:#ccc; stroke-width:0px;" /><path d="M1277.4,616.59c0-.3.25-.55.55-.55s.54.25.54.55-.24.55-.55.55-.55-.25-.55-.55h.01ZM1277.95,615.21c-.76,0-1.37.61-1.37,1.37h0c0,.77.61,1.39,1.36,1.39s1.37-.62,1.36-1.37h0c0-.76-.61-1.38-1.36-1.38h.01ZM1280.89,618.51v.83l-3.05.03v2.98l3.86.04.79,3.54.93-.14.12.82-1.68.25-.81-3.65-4.03-.04v-4.61l3.86-.04h.01ZM1276.43,621.45c-1.17.26-2,1.31-2,2.51,0,1.41,1.13,2.56,2.54,2.56h0c1.4,0,2.54-1.15,2.54-2.56h.82c0,1.86-1.49,3.38-3.36,3.39h0c-1.86-.01-3.36-1.53-3.36-3.39,0-1.59,1.1-2.97,2.65-3.32l.17.81h0Z" style="fill:#ccc; stroke-width:0px;" /></g><g id="GMYDIOSXIM5DCNY"><circle cx="1270.69" cy="649.4" r="9.2" style="fill:#ccc; stroke-width:0px;" /><path d="M1269.51,643.97c0-.3.25-.55.55-.55s.54.25.54.55-.24.55-.55.55-.55-.25-.55-.55h.01ZM1270.06,642.59c-.76,0-1.37.61-1.37,1.37h0c0,.77.61,1.39,1.36,1.39s1.37-.62,1.36-1.37h0c0-.76-.61-1.38-1.36-1.38h.01ZM1273.01,645.89v.83l-3.05.03v2.98l3.86.04.79,3.54.93-.14.12.82-1.68.25-.81-3.65-4.03-.04v-4.61l3.86-.04h.01ZM1268.54,648.84c-1.17.26-2,1.31-2,2.51,0,1.41,1.13,2.56,2.54,2.56h0c1.4,0,2.54-1.15,2.54-2.56h.82c0,1.86-1.49,3.38-3.36,3.39h0c-1.86-.01-3.36-1.53-3.36-3.39,0-1.59,1.1-2.97,2.65-3.32l.17.81h0Z" style="fill:#ccc; stroke-width:0px;" /></g><g id="GMYDIOSXIM5DCNQ"><circle cx="1262.81" cy="676.77" r="9.2" style="fill:#ccc; stroke-width:0px;" /><path d="M1261.62,671.35c0-.3.25-.55.55-.55s.54.25.54.55-.24.55-.55.55-.55-.25-.55-.55h.01ZM1262.18,669.97c-.76,0-1.37.61-1.37,1.37h0c0,.77.61,1.39,1.36,1.39s1.37-.62,1.36-1.37h0c0-.76-.61-1.38-1.36-1.38h.01ZM1265.12,673.27v.83l-3.05.03v2.98l3.86.04.79,3.54.93-.14.12.82-1.68.25-.81-3.65-4.03-.04v-4.61l3.86-.04h.01ZM1260.65,676.21c-1.17.26-2,1.31-2,2.51,0,1.41,1.13,2.56,2.54,2.56h0c1.4,0,2.54-1.15,2.54-2.56h.82c0,1.86-1.49,3.38-3.36,3.39h0c-1.86-.01-3.36-1.53-3.36-3.39,0-1.59,1.1-2.97,2.65-3.32l.17.81h0Z" style="fill:#ccc; stroke-width:0px;" /></g><g id="GMYDIOSXIM5DCNI"><circle cx="1254.92" cy="704.16" r="9.2" style="fill:#ccc; stroke-width:0px;" /><path d="M1253.74,698.73c0-.3.25-.55.55-.55s.54.25.54.55-.24.55-.55.55-.55-.25-.55-.55h.01ZM1254.29,697.35c-.76,0-1.37.61-1.37,1.37h0c0,.77.61,1.39,1.36,1.39s1.37-.62,1.36-1.37h0c0-.76-.61-1.38-1.36-1.38h.01ZM1257.23,700.65v.83l-3.05.03v2.98l3.86.04.79,3.54.93-.14.12.82-1.68.25-.81-3.65-4.03-.04v-4.61l3.86-.04h.01ZM1252.76,703.6c-1.17.26-2,1.31-2,2.51,0,1.41,1.13,2.56,2.54,2.56h0c1.4,0,2.54-1.15,2.54-2.56h.82c0,1.86-1.49,3.38-3.36,3.39h0c-1.86-.01-3.36-1.53-3.36-3.39,0-1.59,1.1-2.97,2.65-3.32l.17.81h0Z" style="fill:#ccc; stroke-width:0px;" /></g><g id="GMYDIOSXIM5DCNA"><circle cx="1247.04" cy="731.54" r="9.2" style="fill:#ccc; stroke-width:0px;" /><path d="M1245.86,726.11c0-.3.25-.55.55-.55s.54.25.54.55-.24.55-.55.55-.55-.25-.55-.55h.01ZM1246.41,724.73c-.76,0-1.37.61-1.37,1.37h0c0,.77.61,1.39,1.36,1.39s1.37-.62,1.36-1.37h0c0-.76-.61-1.38-1.36-1.38h.01ZM1249.35,728.03v.83l-3.05.03v2.98l3.86.04.79,3.54.93-.14.12.82-1.68.25-.81-3.65-4.03-.04v-4.61l3.86-.04h.01ZM1244.88,730.98c-1.17.26-2,1.31-2,2.51,0,1.41,1.13,2.56,2.54,2.56h0c1.4,0,2.54-1.15,2.54-2.56h.82c0,1.86-1.49,3.38-3.36,3.39h0c-1.86-.01-3.36-1.53-3.36-3.39,0-1.59,1.1-2.97,2.65-3.32l.17.81h0Z" style="fill:#ccc; stroke-width:0px;" /></g><g id="GMYDIOSXIM5DCMY"><circle cx="1239.15" cy="758.93" r="9.2" style="fill:#ccc; stroke-width:0px;" /><path d="M1237.97,753.5c0-.3.25-.55.55-.55s.54.25.54.55-.24.55-.55.55-.55-.25-.55-.55h.01ZM1238.52,752.12c-.76,0-1.37.61-1.37,1.37h0c0,.77.61,1.39,1.36,1.39s1.37-.62,1.36-1.37h0c0-.76-.61-1.38-1.36-1.38h.01ZM1241.46,755.42v.83l-3.05.03v2.98l3.86.04.79,3.54.93-.14.12.82-1.68.25-.81-3.65-4.03-.04v-4.61l3.86-.04h.01ZM1237,758.37c-1.17.26-2,1.31-2,2.51,0,1.41,1.13,2.56,2.54,2.56h0c1.4,0,2.54-1.15,2.54-2.56h.82c0,1.86-1.49,3.38-3.36,3.39h0c-1.86-.01-3.36-1.53-3.36-3.39,0-1.59,1.1-2.97,2.65-3.32l.17.81h0Z" style="fill:#ccc; stroke-width:0px;" /></g><g id="GMYDIOSXIM5DCMQ"><circle cx="1231.26" cy="786.31" r="9.2" style="fill:#ccc; stroke-width:0px;" /><path d="M1230.08,780.88c0-.3.25-.55.55-.55s.54.25.54.55-.24.55-.55.55-.55-.25-.55-.55h.01ZM1230.63,779.5c-.76,0-1.37.61-1.37,1.37h0c0,.77.61,1.39,1.36,1.39s1.37-.62,1.36-1.37h0c0-.76-.61-1.38-1.36-1.38h.01ZM1233.57,782.8v.83l-3.05.03v2.98l3.86.04.79,3.54.93-.14.12.82-1.68.25-.81-3.65-4.03-.04v-4.61l3.86-.04h.01ZM1229.11,785.75c-1.17.26-2,1.31-2,2.51,0,1.41,1.13,2.56,2.54,2.56h0c1.4,0,2.54-1.15,2.54-2.56h.82c0,1.86-1.49,3.38-3.36,3.39h0c-1.86-.01-3.36-1.53-3.36-3.39,0-1.59,1.1-2.97,2.65-3.32l.17.81h0Z" style="fill:#ccc; stroke-width:0px;" /></g><g id="GMYDIOSXIM5DCMI"><circle cx="1222.34" cy="814.34" r="9.2" style="fill:#ccc; stroke-width:0px;" /><path d="M1221.16,808.91c0-.3.25-.55.55-.55s.54.25.54.55-.24.55-.55.55-.55-.25-.55-.55h.01ZM1221.71,807.53c-.76,0-1.37.61-1.37,1.37h0c0,.77.61,1.39,1.36,1.39s1.37-.62,1.36-1.37h0c0-.76-.61-1.38-1.36-1.38h.01ZM1224.65,810.83v.83l-3.05.03v2.98l3.86.04.79,3.54.93-.14.12.82-1.68.25-.81-3.65-4.03-.04v-4.61l3.86-.04h.01ZM1220.19,813.78c-1.17.26-2,1.31-2,2.51,0,1.41,1.13,2.56,2.54,2.56h0c1.4,0,2.54-1.15,2.54-2.56h.82c0,1.86-1.49,3.38-3.36,3.39h0c-1.86-.01-3.36-1.53-3.36-3.39,0-1.59,1.1-2.97,2.65-3.32l.17.81h0Z" style="fill:#ccc; stroke-width:0px;" /></g><g id="GMYDIOSXIM5DCMA"><circle cx="1213.28" cy="841.35" r="9.2" style="fill:#ccc; stroke-width:0px;" /><path d="M1212.1,835.92c0-.3.25-.55.55-.55s.54.25.54.55-.24.55-.55.55-.55-.25-.55-.55h.01ZM1212.65,834.54c-.76,0-1.37.61-1.37,1.37h0c0,.77.61,1.39,1.36,1.39s1.37-.62,1.36-1.37h0c0-.76-.61-1.38-1.36-1.38h.01ZM1215.59,837.84v.83l-3.05.03v2.98l3.86.04.79,3.54.93-.14.12.82-1.68.25-.81-3.65-4.03-.04v-4.61l3.86-.04h.01ZM1211.12,840.79c-1.17.26-2,1.31-2,2.51,0,1.41,1.13,2.56,2.54,2.56h0c1.4,0,2.54-1.15,2.54-2.56h.82c0,1.86-1.49,3.38-3.36,3.39h0c-1.86-.01-3.36-1.53-3.36-3.39,0-1.59,1.1-2.97,2.65-3.32l.17.81h0Z" style="fill:#ccc; stroke-width:0px;" /></g><g id="GMYDIOSXIM5DS"><circle cx="1204.21" cy="868.34" r="9.2" style="fill:#ccc; stroke-width:0px;" /><path d="M1203.03,862.91c0-.3.25-.55.55-.55s.54.25.54.55-.24.55-.55.55-.55-.25-.55-.55h.01ZM1203.58,861.53c-.76,0-1.37.61-1.37,1.37h0c0,.77.61,1.39,1.36,1.39s1.37-.62,1.36-1.37h0c0-.76-.61-1.38-1.36-1.38h.01ZM1206.53,864.83v.83l-3.05.03v2.98l3.86.04.79,3.54.93-.14.12.82-1.68.25-.81-3.65-4.03-.04v-4.61l3.86-.04h.01ZM1202.06,867.78c-1.17.26-2,1.31-2,2.51,0,1.41,1.13,2.56,2.54,2.56h0c1.4,0,2.54-1.15,2.54-2.56h.82c0,1.86-1.49,3.38-3.36,3.39h0c-1.86-.01-3.36-1.53-3.36-3.39,0-1.59,1.1-2.97,2.65-3.32l.17.81h0Z" style="fill:#ccc; stroke-width:0px;" /></g><circle id="SPH04689" cx="1195.15" cy="895.34" r="9.2" style="fill:#ccc; stroke-width:0px;" /><circle id="SPH04690" cx="1186.09" cy="922.34" r="9.2" style="fill:#ccc; stroke-width:0px;" /><circle id="SPH04691" cx="1177.02" cy="949.33" r="9.2" style="fill:#ccc; stroke-width:0px;" /><circle id="SPH04692" cx="1167.57" cy="977.19" r="9.2" style="fill:#ccc; stroke-width:0px;" /><circle id="SPH04693" cx="1157.33" cy="1003.79" r="9.2" style="fill:#ccc; stroke-width:0px;" /><circle id="SPH04694" cx="1147.09" cy="1030.39" r="9.2" style="fill:#ccc; stroke-width:0px;" /><circle id="SPH04695" cx="1136.84" cy="1056.99" r="9.2" style="fill:#ccc; stroke-width:0px;" /><circle id="SPH04696" cx="1126.61" cy="1083.59" r="9.2" style="fill:#ccc; stroke-width:0px;" /><circle id="SPH04697" cx="504.22" cy="646.12" r="9.2" transform="translate(-214.32 1040.33) rotate(-80.78)" style="fill:#ccc; stroke-width:0px;" /><circle id="SPH04698" cx="496.59" cy="668.86" r="9.2" style="fill:#ccc; stroke-width:0px;" /><circle id="SPH04699" cx="488.95" cy="691.61" r="9.2" style="fill:#ccc; stroke-width:0px;" /><circle id="SPH04700" cx="481.32" cy="714.36" r="9.2" style="fill:#ccc; stroke-width:0px;" /><circle id="SPH04701" cx="473.21" cy="736.93" r="9.2" style="fill:#ccc; stroke-width:0px;" /><circle id="SPH04702" cx="464.58" cy="759.34" r="9.2" style="fill:#ccc; stroke-width:0px;" /><circle id="SPH04703" cx="455.96" cy="781.74" r="9.2" style="fill:#ccc; stroke-width:0px;" /><circle id="SPH04704" cx="447.33" cy="804.16" r="9.2" style="fill:#ccc; stroke-width:0px;" /><circle id="SPH04705" cx="438.71" cy="826.55" r="9.2" style="fill:#ccc; stroke-width:0px;" /><circle id="SPH04706" cx="556.18" cy="615.78" r="9.2" style="fill:#ccc; stroke-width:0px;" /><circle id="SPH04707" cx="548.54" cy="638.54" r="9.2" style="fill:#ccc; stroke-width:0px;" /><circle id="SPH04708" cx="540.9" cy="661.29" r="9.2" style="fill:#ccc; stroke-width:0px;" /><circle id="SPH04709" cx="533.27" cy="684.03" r="9.2" style="fill:#ccc; stroke-width:0px;" /><circle id="SPH04710" cx="525.63" cy="706.78" r="9.2" style="fill:#ccc; stroke-width:0px;" /><circle id="SPH04711" cx="517.99" cy="729.53" r="9.2" style="fill:#ccc; stroke-width:0px;" /><circle id="SPH04712" cx="509.8" cy="752.09" r="9.2" style="fill:#ccc; stroke-width:0px;" /><circle id="SPH04713" cx="501.17" cy="774.5" r="9.2" style="fill:#ccc; stroke-width:0px;" /><circle id="SPH04714" cx="492.55" cy="796.91" r="9.2" style="fill:#ccc; stroke-width:0px;" /><circle id="SPH04715" cx="483.93" cy="819.31" r="9.2" style="fill:#ccc; stroke-width:0px;" /><circle id="SPH04716" cx="475.3" cy="841.72" r="9.2" style="fill:#ccc; stroke-width:0px;" /><circle id="SPH04717" cx="600.49" cy="608.25" r="9.2" style="fill:#ccc; stroke-width:0px;" /><circle id="SPH04718" cx="592.84" cy="631" r="9.2" style="fill:#ccc; stroke-width:0px;" /><circle id="SPH04719" cx="585.21" cy="653.74" r="9.2" style="fill:#ccc; stroke-width:0px;" /><circle id="SPH04720" cx="577.57" cy="676.49" r="9.2" style="fill:#ccc; stroke-width:0px;" /><circle id="SPH04721" cx="569.93" cy="699.25" r="9.2" style="fill:#ccc; stroke-width:0px;" /><circle id="SPH04722" cx="562.29" cy="722" r="9.2" style="fill:#ccc; stroke-width:0px;" /><circle id="SPH04723" cx="554.65" cy="744.76" r="9.2" style="fill:#ccc; stroke-width:0px;" /><circle id="SPH04724" cx="546.38" cy="767.29" r="9.2" style="fill:#ccc; stroke-width:0px;" /><circle id="SPH04725" cx="537.77" cy="789.68" r="9.2" style="fill:#ccc; stroke-width:0px;" /><circle id="SPH04726" cx="529.14" cy="812.08" r="9.2" style="fill:#ccc; stroke-width:0px;" /><circle id="SPH04727" cx="520.53" cy="834.47" r="9.2" style="fill:#ccc; stroke-width:0px;" /><circle id="SPH04728" cx="511.9" cy="856.86" r="9.2" transform="translate(-415.89 1224.9) rotate(-80.78)" style="fill:#ccc; stroke-width:0px;" /><circle id="SPH04729" cx="644.24" cy="600.49" r="9.2" style="fill:#ccc; stroke-width:0px;" /><circle id="SPH04730" cx="637.16" cy="623.42" r="9.2" style="fill:#ccc; stroke-width:0px;" /><circle id="SPH04731" cx="629.52" cy="646.18" r="9.2" style="fill:#ccc; stroke-width:0px;" /><circle id="SPH04732" cx="621.88" cy="668.93" r="9.2" style="fill:#ccc; stroke-width:0px;" /><circle id="SPH04733" cx="614.24" cy="691.69" r="9.2" style="fill:#ccc; stroke-width:0px;" /><circle id="SPH04734" cx="606.61" cy="714.45" r="9.2" style="fill:#ccc; stroke-width:0px;" /><circle id="SPH04735" cx="598.97" cy="737.19" r="9.2" style="fill:#ccc; stroke-width:0px;" /><circle id="SPH04736" cx="591.33" cy="759.93" r="9.2" style="fill:#ccc; stroke-width:0px;" /><circle id="SPH04737" cx="582.99" cy="782.42" r="9.2" style="fill:#ccc; stroke-width:0px;" /><circle id="SPH04738" cx="574.37" cy="804.82" r="9.2" style="fill:#ccc; stroke-width:0px;" /><circle id="SPH04739" cx="565.75" cy="827.21" r="9.2" style="fill:#ccc; stroke-width:0px;" /><circle id="SPH04740" cx="557.13" cy="849.61" r="9.2" style="fill:#ccc; stroke-width:0px;" /><circle id="SPH04741" cx="548.51" cy="872.01" r="9.2" style="fill:#ccc; stroke-width:0px;" /><circle id="SPH04742" cx="687.7" cy="592.67" r="9.2" style="fill:#ccc; stroke-width:0px;" /><circle id="SPH04743" cx="681.06" cy="615.73" r="9.2" style="fill:#ccc; stroke-width:0px;" /><circle id="SPH04744" cx="673.83" cy="638.61" r="9.2" style="fill:#ccc; stroke-width:0px;" /><circle id="SPH04745" cx="666.19" cy="661.37" r="9.2" style="fill:#ccc; stroke-width:0px;" /><circle id="SPH04746" cx="658.56" cy="684.12" r="9.2" style="fill:#ccc; stroke-width:0px;" /><circle id="SPH04747" cx="650.92" cy="706.88" r="9.2" style="fill:#ccc; stroke-width:0px;" /><circle id="SPH04748" cx="643.28" cy="729.62" r="9.2" style="fill:#ccc; stroke-width:0px;" /><circle id="SPH04749" cx="635.64" cy="752.38" r="9.2" style="fill:#ccc; stroke-width:0px;" /><circle id="SPH04750" cx="628" cy="775.14" r="9.2" style="fill:#ccc; stroke-width:0px;" /><circle id="SPH04751" cx="619.57" cy="797.62" r="9.2" style="fill:#ccc; stroke-width:0px;" /><circle id="SPH04752" cx="610.95" cy="820.02" r="9.2" style="fill:#ccc; stroke-width:0px;" /><circle id="SPH04753" cx="602.33" cy="842.4" r="9.2" style="fill:#ccc; stroke-width:0px;" /><circle id="SPH04754" cx="593.72" cy="864.79" r="9.2" style="fill:#ccc; stroke-width:0px;" /><circle id="SPH04755" cx="585.09" cy="887.19" r="9.2" style="fill:#ccc; stroke-width:0px;" /><circle id="SPH04756" cx="776.84" cy="416.06" r="9.2" style="fill:#ccc; stroke-width:0px;" /><circle id="SPH04757" cx="771.39" cy="438.64" r="9.2" style="fill:#ccc; stroke-width:0px;" /><circle id="SPH04758" cx="765.93" cy="461.21" r="9.2" style="fill:#ccc; stroke-width:0px;" /><circle id="SPH04759" cx="760.29" cy="483.74" r="9.2" style="fill:#ccc; stroke-width:0px;" /><circle id="SPH04760" cx="753.85" cy="506.06" r="9.2" style="fill:#ccc; stroke-width:0px;" /><circle id="SPH04761" cx="747.43" cy="528.37" r="9.2" style="fill:#ccc; stroke-width:0px;" /><circle id="SPH04762" cx="741" cy="550.69" r="9.2" style="fill:#ccc; stroke-width:0px;" /><circle id="SPH04763" cx="734.57" cy="573.01" r="9.2" style="fill:#ccc; stroke-width:0px;" /><circle id="SPH04764" cx="728.15" cy="595.33" r="9.2" style="fill:#ccc; stroke-width:0px;" /><circle id="SPH04765" cx="721.72" cy="617.65" r="9.2" style="fill:#ccc; stroke-width:0px;" /><circle id="SPH04766" cx="715.17" cy="639.93" r="9.2" style="fill:#ccc; stroke-width:0px;" /><circle id="SPH04767" cx="707.77" cy="661.94" r="9.2" style="fill:#ccc; stroke-width:0px;" /><circle id="SPH04768" cx="700.38" cy="683.97" r="9.2" style="fill:#ccc; stroke-width:0px;" /><circle id="SPH04769" cx="692.98" cy="705.99" r="9.2" style="fill:#ccc; stroke-width:0px;" /><circle id="SPH04770" cx="685.59" cy="728.02" r="9.2" style="fill:#ccc; stroke-width:0px;" /><circle id="SPH04771" cx="678.19" cy="750.06" r="9.2" style="fill:#ccc; stroke-width:0px;" /><circle id="SPH04772" cx="670.79" cy="772.1" r="9.2" style="fill:#ccc; stroke-width:0px;" /><circle id="SPH04773" cx="663.35" cy="794.13" r="9.2" style="fill:#ccc; stroke-width:0px;" /><circle id="SPH04774" cx="655.01" cy="815.81" r="9.2" style="fill:#ccc; stroke-width:0px;" /><circle id="SPH04775" cx="646.65" cy="837.49" r="9.2" style="fill:#ccc; stroke-width:0px;" /><circle id="SPH04776" cx="638.31" cy="859.17" r="9.2" style="fill:#ccc; stroke-width:0px;" /><circle id="SPH04777" cx="629.97" cy="880.85" r="9.2" style="fill:#ccc; stroke-width:0px;" /><circle id="SPH04778" cx="621.62" cy="902.53" r="9.2" style="fill:#ccc; stroke-width:0px;" /><circle id="SPH04779" cx="815.35" cy="425.31" r="9.2" style="fill:#ccc; stroke-width:0px;" /><circle id="SPH04780" cx="809.83" cy="448.16" r="9.2" style="fill:#ccc; stroke-width:0px;" /><circle id="SPH04781" cx="804.31" cy="471.01" r="9.2" style="fill:#ccc; stroke-width:0px;" /><circle id="SPH04782" cx="798.59" cy="493.81" r="9.2" style="fill:#ccc; stroke-width:0px;" /><circle id="SPH04783" cx="792.09" cy="516.41" r="9.2" style="fill:#ccc; stroke-width:0px;" /><circle id="SPH04784" cx="785.57" cy="539" r="9.2" style="fill:#ccc; stroke-width:0px;" /><circle id="SPH04785" cx="779.07" cy="561.6" r="9.2" style="fill:#ccc; stroke-width:0px;" /><circle id="SPH04786" cx="772.56" cy="584.19" r="9.2" style="fill:#ccc; stroke-width:0px;" /><circle id="SPH04787" cx="766.05" cy="606.79" r="9.2" style="fill:#ccc; stroke-width:0px;" /><circle id="SPH04788" cx="759.55" cy="629.38" r="9.2" style="fill:#ccc; stroke-width:0px;" /><circle id="SPH04789" cx="752.91" cy="651.93" r="9.2" style="fill:#ccc; stroke-width:0px;" /><circle id="SPH04790" cx="745.43" cy="674.21" r="9.2" style="fill:#ccc; stroke-width:0px;" /><circle id="SPH04791" cx="737.94" cy="696.49" r="9.2" style="fill:#ccc; stroke-width:0px;" /><circle id="SPH04792" cx="730.46" cy="718.79" r="9.2" style="fill:#ccc; stroke-width:0px;" /><circle id="SPH04793" cx="722.97" cy="741.08" r="9.2" style="fill:#ccc; stroke-width:0px;" /><circle id="SPH04794" cx="715.49" cy="763.37" r="9.2" style="fill:#ccc; stroke-width:0px;" /><circle id="SPH04795" cx="708.01" cy="785.66" r="9.2" style="fill:#ccc; stroke-width:0px;" /><circle id="SPH04796" cx="700.46" cy="807.94" r="9.2" style="fill:#ccc; stroke-width:0px;" /><circle id="SPH04797" cx="692.01" cy="829.89" r="9.2" style="fill:#ccc; stroke-width:0px;" /><circle id="SPH04798" cx="683.57" cy="851.84" r="9.2" style="fill:#ccc; stroke-width:0px;" /><circle id="SPH04799" cx="675.12" cy="873.79" r="9.2" style="fill:#ccc; stroke-width:0px;" /><circle id="SPH04800" cx="666.67" cy="895.73" r="9.2" style="fill:#ccc; stroke-width:0px;" /><circle id="SPH04801" cx="658.22" cy="917.68" r="9.2" style="fill:#ccc; stroke-width:0px;" /><circle id="SPH04802" cx="853.85" cy="434.56" r="9.2" style="fill:#ccc; stroke-width:0px;" /><circle id="SPH04803" cx="848.27" cy="457.68" r="9.2" style="fill:#ccc; stroke-width:0px;" /><circle id="SPH04804" cx="842.68" cy="480.8" r="9.2" style="fill:#ccc; stroke-width:0px;" /><circle id="SPH04805" cx="836.9" cy="503.87" r="9.2" style="fill:#ccc; stroke-width:0px;" /><circle id="SPH04806" cx="830.32" cy="526.73" r="9.2" style="fill:#ccc; stroke-width:0px;" /><circle id="SPH04807" cx="823.74" cy="549.58" r="9.2" style="fill:#ccc; stroke-width:0px;" /><circle id="SPH04808" cx="817.15" cy="572.47" r="9.2" style="fill:#ccc; stroke-width:0px;" /><circle id="SPH04809" cx="810.56" cy="595.34" r="9.2" style="fill:#ccc; stroke-width:0px;" /><circle id="SPH04810" cx="803.97" cy="618.22" r="9.2" style="fill:#ccc; stroke-width:0px;" /><circle id="SPH04811" cx="797.38" cy="641.09" r="9.2" style="fill:#ccc; stroke-width:0px;" /><circle id="SPH04812" cx="790.66" cy="663.9" r="9.2" style="fill:#ccc; stroke-width:0px;" /><circle id="SPH04813" cx="783.09" cy="686.45" r="9.2" style="fill:#ccc; stroke-width:0px;" /><circle id="SPH04814" cx="775.52" cy="709" r="9.2" style="fill:#ccc; stroke-width:0px;" /><circle id="SPH04815" cx="767.95" cy="731.54" r="9.2" style="fill:#ccc; stroke-width:0px;" /><circle id="SPH04816" cx="760.37" cy="754.09" r="9.2" style="fill:#ccc; stroke-width:0px;" /><circle id="SPH04817" cx="752.81" cy="776.64" r="9.2" style="fill:#ccc; stroke-width:0px;" /><circle id="SPH04818" cx="745.24" cy="799.19" r="9.2" style="fill:#ccc; stroke-width:0px;" /><circle id="SPH04819" cx="737.6" cy="821.71" r="9.2" style="fill:#ccc; stroke-width:0px;" /><circle id="SPH04820" cx="729.04" cy="843.93" r="9.2" style="fill:#ccc; stroke-width:0px;" /><circle id="SPH04821" cx="720.49" cy="866.15" r="9.2" style="fill:#ccc; stroke-width:0px;" /><circle id="SPH04822" cx="711.94" cy="888.36" r="9.2" style="fill:#ccc; stroke-width:0px;" /><circle id="SPH04823" cx="703.39" cy="910.57" r="9.2" style="fill:#ccc; stroke-width:0px;" /><circle id="SPH04824" cx="694.84" cy="932.79" r="9.2" style="fill:#ccc; stroke-width:0px;" /><circle id="SPH04825" cx="892.36" cy="443.8" r="9.2" style="fill:#ccc; stroke-width:0px;" /><circle id="SPH04826" cx="886.95" cy="466.18" r="9.2" style="fill:#ccc; stroke-width:0px;" /><circle id="SPH04827" cx="881.55" cy="488.55" r="9.2" style="fill:#ccc; stroke-width:0px;" /><circle id="SPH04828" cx="876.09" cy="510.91" r="9.2" style="fill:#ccc; stroke-width:0px;" /><circle id="SPH04829" cx="869.72" cy="533.03" r="9.2" style="fill:#ccc; stroke-width:0px;" /><circle id="SPH04830" cx="863.34" cy="555.16" r="9.2" style="fill:#ccc; stroke-width:0px;" /><circle id="SPH04831" cx="856.97" cy="577.29" r="9.2" style="fill:#ccc; stroke-width:0px;" /><circle id="SPH04832" cx="850.59" cy="599.43" r="9.2" style="fill:#ccc; stroke-width:0px;" /><circle id="SPH04833" cx="844.21" cy="621.57" r="9.2" style="fill:#ccc; stroke-width:0px;" /><circle id="SPH04834" cx="837.84" cy="643.7" r="9.2" style="fill:#ccc; stroke-width:0px;" /><circle id="SPH04835" cx="831.47" cy="665.84" r="9.2" style="fill:#ccc; stroke-width:0px;" /><circle id="SPH04836" cx="824.42" cy="687.76" r="9.2" style="fill:#ccc; stroke-width:0px;" /><circle id="SPH04837" cx="817.09" cy="709.58" r="9.2" style="fill:#ccc; stroke-width:0px;" /><circle id="SPH04838" cx="809.77" cy="731.39" r="9.2" style="fill:#ccc; stroke-width:0px;" /><circle id="SPH04839" cx="802.45" cy="753.2" r="9.2" style="fill:#ccc; stroke-width:0px;" /><circle id="SPH04840" cx="795.13" cy="775.01" r="9.2" style="fill:#ccc; stroke-width:0px;" /><circle id="SPH04841" cx="787.81" cy="796.81" r="9.2" style="fill:#ccc; stroke-width:0px;" /><circle id="SPH04842" cx="780.49" cy="818.62" r="9.2" style="fill:#ccc; stroke-width:0px;" /><circle id="SPH04843" cx="772.86" cy="840.33" r="9.2" style="fill:#ccc; stroke-width:0px;" /><circle id="SPH04844" cx="764.58" cy="861.84" r="9.2" style="fill:#ccc; stroke-width:0px;" /><circle id="SPH04845" cx="756.31" cy="883.34" r="9.2" style="fill:#ccc; stroke-width:0px;" /><circle id="SPH04846" cx="748.03" cy="904.83" r="9.2" style="fill:#ccc; stroke-width:0px;" /><circle id="SPH04847" cx="739.76" cy="926.32" r="9.2" style="fill:#ccc; stroke-width:0px;" /><circle id="SPH04848" cx="731.49" cy="947.8" r="9.2" style="fill:#ccc; stroke-width:0px;" /><circle id="SPH04849" cx="930.86" cy="453.05" r="9.2" style="fill:#ccc; stroke-width:0px;" /><circle id="SPH04850" cx="925.39" cy="475.69" r="9.2" style="fill:#ccc; stroke-width:0px;" /><circle id="SPH04851" cx="919.93" cy="498.32" r="9.2" style="fill:#ccc; stroke-width:0px;" /><circle id="SPH04852" cx="914.41" cy="520.94" r="9.2" style="fill:#ccc; stroke-width:0px;" /><circle id="SPH04853" cx="907.96" cy="543.33" r="9.2" style="fill:#ccc; stroke-width:0px;" /><circle id="SPH04854" cx="901.51" cy="565.72" r="9.2" style="fill:#ccc; stroke-width:0px;" /><circle id="SPH04855" cx="895.07" cy="588.08" r="9.2" style="fill:#ccc; stroke-width:0px;" /><circle id="SPH04856" cx="888.63" cy="610.44" r="9.2" style="fill:#ccc; stroke-width:0px;" /><circle id="SPH04857" cx="882.19" cy="632.81" r="9.2" style="fill:#ccc; stroke-width:0px;" /><circle id="SPH04858" cx="875.74" cy="655.19" r="9.2" style="fill:#ccc; stroke-width:0px;" /><circle id="SPH04859" cx="869.3" cy="677.57" r="9.2" style="fill:#ccc; stroke-width:0px;" /><circle id="SPH04860" cx="862.17" cy="699.73" r="9.2" style="fill:#ccc; stroke-width:0px;" /><circle id="SPH04861" cx="854.77" cy="721.79" r="9.2" style="fill:#ccc; stroke-width:0px;" /><circle id="SPH04862" cx="847.37" cy="743.85" r="9.2" style="fill:#ccc; stroke-width:0px;" /><circle id="SPH04863" cx="839.96" cy="765.89" r="9.2" style="fill:#ccc; stroke-width:0px;" /><circle id="SPH04864" cx="832.56" cy="787.95" r="9.2" style="fill:#ccc; stroke-width:0px;" /><circle id="SPH04865" cx="825.15" cy="810" r="9.2" style="fill:#ccc; stroke-width:0px;" /><circle id="SPH04866" cx="817.75" cy="832.05" r="9.2" style="fill:#ccc; stroke-width:0px;" /><circle id="SPH04867" cx="810.02" cy="854.01" r="9.2" style="fill:#ccc; stroke-width:0px;" /><circle id="SPH04868" cx="801.65" cy="875.77" r="9.2" style="fill:#ccc; stroke-width:0px;" /><circle id="SPH04869" cx="793.28" cy="897.53" r="9.2" style="fill:#ccc; stroke-width:0px;" /><circle id="SPH04870" cx="784.91" cy="919.27" r="9.2" style="fill:#ccc; stroke-width:0px;" /><circle id="SPH04871" cx="776.53" cy="941.02" r="9.2" style="fill:#ccc; stroke-width:0px;" /><circle id="SPH04872" cx="768.17" cy="962.77" r="9.2" style="fill:#ccc; stroke-width:0px;" /></g></svg>