<svg id="Layer_1" viewBox="0 0 1697.6 1405.17" xmlns="http://www.w3.org/2000/svg"><g id="back"><g id="back-2"><path id="sphere" d="M2416.78,662.21c0-1528.34-1241.46-2769.81-2769.81-2769.81S-3122.84-866.13-3122.84,662.21-1881.38,3432.02-353.03,3432.02h0c1528.34,0,2769.81-1241.46,2769.81-2769.81Z" style="fill:#f2f2f2; stroke:#ddd; stroke-miterlimit:10; stroke-width:3px;" /></g><g id="sectors"><path id="_204" d="M-103.93,2077.56c-38.71-16.04-433.14-179.42-591.65-245.07,61.78-145.78,112.02-296.48,150.13-450.7,207.57,49.83,415.13,99.66,622.7,149.5-30.57,124.33-67.81,247.45-111.69,368.81h0c-21.66,59.88-44.83,119.05-69.49,177.46h0Z" style="fill:#fff; stroke:#ddd; stroke-miterlimit:10; stroke-width:9px;" /><path id="_205" d="M-545.45,1381.79c207.57,49.83,415.15,99.67,622.72,149.5,50.62-205.84,82.98-415.04,97.07-625.17-54.3-4.27-479.96-37.77-638.47-50.25-8.94,138.44-27.51,276.4-55.69,412.89h0c-7.82,37.87-16.36,75.56-25.62,113.03h0Z" style="fill:#fff; stroke:#ddd; stroke-miterlimit:10; stroke-width:9px;" /><path id="_206" d="M41.33,429.14c-158.53,12.48-346.93,27.23-505.44,39.7,8.33,128.88,8.33,258.16-.02,387.04,158.51,12.48,479.94,37.76,638.47,50.24,11.37-196.11,8.26-257.68-.71-487.53l-132.3,10.55h0Z" style="fill:#fff; stroke:#ddd; stroke-miterlimit:10; stroke-width:9px;" /><path id="_207" d="M-464.11,468.84c158.51-12.47,583.44-45.97,637.74-50.25C159.53,208.46,127.89-.74,77.28-206.59c-207.57,49.83-415.14,99.67-622.7,149.5,9.25,37.46,17.8,75.12,25.61,112.97h0c28.19,136.51,46.76,274.5,55.71,412.95h-.01Z" style="fill:#fff; stroke:#ddd; stroke-miterlimit:10; stroke-width:9px;" /><path id="_305" d="M1048.14,1663.15c-202.56-48.63-405.12-97.26-607.66-145.88,32.38-138.24,56.9-278.33,73.41-419.58,6.5-55.69,11.76-111.48,15.76-167.35,207.66,16.34,415.33,32.69,623.01,49.03-10.51,144.74-28.24,289.08-53.18,432.48h0c-14.63,84.13-31.74,167.93-51.34,251.3h0Z" style="fill:#fff; stroke:#ddd; stroke-miterlimit:10; stroke-width:9px;" /><path id="_306" d="M1152.65,979.38c-207.68-16.34-415.35-32.69-623.01-49.03,12.79-178.43,12.79-357.55,0-535.97,207.67-16.35,415.35-32.69,623.03-49.04,7.67,105.48,11.49,211.17,11.49,316.86h0c0,105.8-3.84,211.59-11.52,317.17h0Z" style="fill:#fff; stroke:#ddd; stroke-miterlimit:10; stroke-width:9px;" /><path id="_307" d="M1152.68,345.34c-207.68,16.35-415.36,32.69-623.03,49.04-3.99-55.87-9.25-111.67-15.76-167.35-16.51-141.27-41.03-281.35-73.41-419.58,202.57-48.63,405.14-97.27,607.72-145.9,19.57,83.27,36.66,166.98,51.27,251h0c24.96,143.5,42.69,287.95,53.2,432.79h.01Z" style="fill:#fff; stroke:#ddd; stroke-miterlimit:10; stroke-width:9px;" /><path id="_405" d="M1951.88,1880.12c133.85-250.71,227.69-525.62,273.08-816.35-30.41-2.39-60.81-4.78-91.21-7.18-327-25.74-654-51.47-980.98-77.21-10.51,144.77-28.24,289.12-53.18,432.54-14.63,84.11-31.74,167.9-51.33,251.25h0c301.2,72.31,602.4,144.62,903.62,216.94h0Z" style="fill:#fff; stroke:#ddd; stroke-miterlimit:10; stroke-width:9px;" /><path id="_406" d="M1161.78,818.92c-1.39,37.29-3.33,74.29-5.71,111.52-1,16.32-2.1,32.63-3.29,48.94,339.15,26.69,1072.18,84.39,1072.18,84.39,31.65-361.76,31.65-560.39.05-802.83,0,0-733.06,57.7-1072.22,84.39,1.19,16.25,2.28,32.51,3.28,48.77,2.38,37.23,4.32,74.23,5.71,111.52h0c3.89,104.43,3.89,208.87,0,313.29h0Z" style="fill:#fff; stroke:#ddd; stroke-miterlimit:10; stroke-width:9px;" /><path id="_407" d="M1048.3-338.49c301.23-72.32,602.46-144.64,903.7-216.96,133.83,250.73,227.65,525.66,273.01,816.39-18.25,1.44-733.07,57.7-1072.22,84.39-10.5-144.81-28.24-289.24-53.19-432.71h0c-14.62-84.07-31.72-167.8-51.3-251.11h0Z" style="fill:#fff; stroke:#ddd; stroke-miterlimit:10; stroke-width:9px;" /></g></g><g id="Seats"><circle id="SPH08903" cx="765.62" cy="419.9" r="9.2" style="fill:#ccc; stroke-width:0px;" /><circle id="SPH08904" cx="767.12" cy="443" r="9.2" style="fill:#ccc; stroke-width:0px;" /><circle id="SPH08905" cx="768.61" cy="466.12" r="9.2" style="fill:#ccc; stroke-width:0px;" /><circle id="SPH08906" cx="770.1" cy="489.22" r="9.2" style="fill:#ccc; stroke-width:0px;" /><circle id="SPH08907" cx="770.7" cy="512.37" r="9.2" style="fill:#ccc; stroke-width:0px;" /><circle id="SPH08908" cx="771.2" cy="535.53" r="9.2" style="fill:#ccc; stroke-width:0px;" /><circle id="SPH08909" cx="771.69" cy="558.67" r="9.2" style="fill:#ccc; stroke-width:0px;" /><circle id="SPH08910" cx="772.19" cy="581.8" r="9.2" style="fill:#ccc; stroke-width:0px;" /><circle id="SPH08911" cx="772.69" cy="604.96" r="9.2" style="fill:#ccc; stroke-width:0px;" /><circle id="SPH08912" cx="773.19" cy="628.11" r="9.2" style="fill:#ccc; stroke-width:0px;" /><circle id="SPH08913" cx="773.69" cy="651.28" r="9.2" style="fill:#ccc; stroke-width:0px;" /><circle id="SPH08914" cx="773.68" cy="674.44" r="9.2" style="fill:#ccc; stroke-width:0px;" /><circle id="SPH08915" cx="773.18" cy="697.61" r="9.2" style="fill:#ccc; stroke-width:0px;" /><circle id="SPH08916" cx="772.69" cy="720.8" r="9.2" style="fill:#ccc; stroke-width:0px;" /><circle id="SPH08917" cx="772.19" cy="743.96" r="9.2" style="fill:#ccc; stroke-width:0px;" /><circle id="SPH08918" cx="771.69" cy="767.12" r="9.2" style="fill:#ccc; stroke-width:0px;" /><circle id="SPH08919" cx="771.19" cy="790.28" r="9.2" style="fill:#ccc; stroke-width:0px;" /><circle id="SPH08920" cx="770.69" cy="813.43" r="9.2" style="fill:#ccc; stroke-width:0px;" /><circle id="SPH08921" cx="770.08" cy="836.56" r="9.2" style="fill:#ccc; stroke-width:0px;" /><path id="GMYDMORRGE5DG" d="M768.59,850.47c5.08,0,9.2,4.12,9.2,9.2s-4.12,9.2-9.2,9.2-9.2-4.12-9.2-9.2,4.12-9.2,9.2-9.2Z" style="fill:#ccc; stroke-width:0px;" /><circle id="SPH08923" cx="767.09" cy="882.78" r="9.2" style="fill:#ccc; stroke-width:0px;" /><circle id="SPH08924" cx="765.6" cy="905.89" r="9.2" style="fill:#ccc; stroke-width:0px;" /><circle id="SPH08925" cx="805.1" cy="416.8" r="9.2" style="fill:#ccc; stroke-width:0px;" /><circle id="SPH08926" cx="806.61" cy="440.2" r="9.2" style="fill:#ccc; stroke-width:0px;" /><circle id="SPH08927" cx="808.13" cy="463.6" r="9.2" style="fill:#ccc; stroke-width:0px;" /><circle id="SPH08928" cx="809.64" cy="487.01" r="9.2" style="fill:#ccc; stroke-width:0px;" /><circle id="SPH08929" cx="810.27" cy="510.46" r="9.2" style="fill:#ccc; stroke-width:0px;" /><circle id="SPH08930" cx="810.77" cy="533.89" r="9.2" style="fill:#ccc; stroke-width:0px;" /><circle id="SPH08931" cx="811.28" cy="557.33" r="9.2" style="fill:#ccc; stroke-width:0px;" /><circle id="SPH08932" cx="811.78" cy="580.76" r="9.2" style="fill:#ccc; stroke-width:0px;" /><circle id="SPH08933" cx="812.29" cy="604.21" r="9.2" style="fill:#ccc; stroke-width:0px;" /><circle id="SPH08934" cx="812.79" cy="627.66" r="9.2" style="fill:#ccc; stroke-width:0px;" /><circle id="SPH08935" cx="813.29" cy="651.12" r="9.2" style="fill:#ccc; stroke-width:0px;" /><circle id="SPH08936" cx="813.29" cy="674.57" r="9.2" style="fill:#ccc; stroke-width:0px;" /><circle id="SPH08937" cx="812.78" cy="698.02" r="9.2" style="fill:#ccc; stroke-width:0px;" /><circle id="SPH08938" cx="812.28" cy="721.48" r="9.2" style="fill:#ccc; stroke-width:0px;" /><circle id="SPH08939" cx="811.77" cy="744.93" r="9.2" style="fill:#ccc; stroke-width:0px;" /><circle id="SPH08940" cx="811.27" cy="768.38" r="9.2" style="fill:#ccc; stroke-width:0px;" /><circle id="SPH08941" cx="810.77" cy="791.84" r="9.2" style="fill:#ccc; stroke-width:0px;" /><circle id="SPH08942" cx="810.26" cy="815.28" r="9.2" style="fill:#ccc; stroke-width:0px;" /><circle id="SPH08943" cx="809.62" cy="838.7" r="9.2" style="fill:#ccc; stroke-width:0px;" /><path id="GMYDMORRGI5DG" d="M808.11,852.9c5.08,0,9.2,4.12,9.2,9.2s-4.12,9.2-9.2,9.2-9.2-4.12-9.2-9.2,4.12-9.2,9.2-9.2Z" style="fill:#ccc; stroke-width:0px;" /><circle id="SPH08945" cx="806.6" cy="885.51" r="9.2" style="fill:#ccc; stroke-width:0px;" /><circle id="SPH08946" cx="805.09" cy="908.92" r="9.2" style="fill:#ccc; stroke-width:0px;" /><circle id="SPH08947" cx="844.58" cy="413.68" r="9.2" style="fill:#ccc; stroke-width:0px;" /><circle id="SPH08948" cx="846.12" cy="437.39" r="9.2" style="fill:#ccc; stroke-width:0px;" /><circle id="SPH08949" cx="847.65" cy="461.09" r="9.2" style="fill:#ccc; stroke-width:0px;" /><circle id="SPH08950" cx="849.18" cy="484.79" r="9.2" style="fill:#ccc; stroke-width:0px;" /><circle id="SPH08951" cx="849.84" cy="508.53" r="9.2" style="fill:#ccc; stroke-width:0px;" /><circle id="SPH08952" cx="850.35" cy="532.27" r="9.2" style="fill:#ccc; stroke-width:0px;" /><circle id="SPH08953" cx="850.85" cy="556" r="9.2" style="fill:#ccc; stroke-width:0px;" /><circle id="SPH08954" cx="851.37" cy="579.73" r="9.2" style="fill:#ccc; stroke-width:0px;" /><circle id="SPH08955" cx="851.88" cy="603.47" r="9.2" style="fill:#ccc; stroke-width:0px;" /><circle id="SPH08956" cx="852.39" cy="627.21" r="9.2" style="fill:#ccc; stroke-width:0px;" /><circle id="SPH08957" cx="852.9" cy="650.94" r="9.2" style="fill:#ccc; stroke-width:0px;" /><circle id="SPH08958" cx="852.89" cy="674.68" r="9.2" style="fill:#ccc; stroke-width:0px;" /><circle id="SPH08959" cx="852.38" cy="698.4" r="9.2" style="fill:#ccc; stroke-width:0px;" /><circle id="SPH08960" cx="851.88" cy="722.14" r="9.2" style="fill:#ccc; stroke-width:0px;" /><circle id="SPH08961" cx="851.37" cy="745.87" r="9.2" style="fill:#ccc; stroke-width:0px;" /><circle id="SPH08962" cx="850.85" cy="769.6" r="9.2" style="fill:#ccc; stroke-width:0px;" /><circle id="SPH08963" cx="850.34" cy="793.34" r="9.2" style="fill:#ccc; stroke-width:0px;" /><circle id="SPH08964" cx="849.83" cy="817.07" r="9.2" style="fill:#ccc; stroke-width:0px;" /><circle id="SPH08965" cx="849.17" cy="840.79" r="9.2" style="fill:#ccc; stroke-width:0px;" /><circle id="SPH08966" cx="847.64" cy="864.49" r="9.2" style="fill:#ccc; stroke-width:0px;" /><circle id="SPH08967" cx="846.11" cy="888.19" r="9.2" style="fill:#ccc; stroke-width:0px;" /><circle id="SPH08968" cx="844.58" cy="911.89" r="9.2" style="fill:#ccc; stroke-width:0px;" /><circle id="SPH08969" cx="884.07" cy="410.58" r="9.2" style="fill:#ccc; stroke-width:0px;" /><circle id="SPH08970" cx="885.61" cy="434.58" r="9.2" style="fill:#ccc; stroke-width:0px;" /><circle id="SPH08971" cx="887.17" cy="458.57" r="9.2" style="fill:#ccc; stroke-width:0px;" /><circle id="SPH08972" cx="888.72" cy="482.57" r="9.2" style="fill:#ccc; stroke-width:0px;" /><circle id="SPH08973" cx="889.41" cy="506.61" r="9.2" style="fill:#ccc; stroke-width:0px;" /><circle id="SPH08974" cx="889.92" cy="530.65" r="9.2" style="fill:#ccc; stroke-width:0px;" /><circle id="SPH08975" cx="890.44" cy="554.68" r="9.2" style="fill:#ccc; stroke-width:0px;" /><circle id="SPH08976" cx="890.95" cy="578.71" r="9.2" style="fill:#ccc; stroke-width:0px;" /><circle id="SPH08977" cx="891.47" cy="602.73" r="9.2" style="fill:#ccc; stroke-width:0px;" /><circle id="SPH08978" cx="891.99" cy="626.77" r="9.2" style="fill:#ccc; stroke-width:0px;" /><circle id="SPH08979" cx="892.5" cy="650.8" r="9.2" style="fill:#ccc; stroke-width:0px;" /><circle id="SPH08980" cx="892.5" cy="674.81" r="9.2" style="fill:#ccc; stroke-width:0px;" /><circle id="SPH08981" cx="891.98" cy="698.83" r="9.2" style="fill:#ccc; stroke-width:0px;" /><circle id="SPH08982" cx="891.47" cy="722.83" r="9.2" style="fill:#ccc; stroke-width:0px;" /><circle id="SPH08983" cx="890.95" cy="746.84" r="9.2" style="fill:#ccc; stroke-width:0px;" /><circle id="SPH08984" cx="890.44" cy="770.86" r="9.2" style="fill:#ccc; stroke-width:0px;" /><circle id="SPH08985" cx="889.92" cy="794.87" r="9.2" style="fill:#ccc; stroke-width:0px;" /><circle id="SPH08986" cx="889.41" cy="818.89" r="9.2" style="fill:#ccc; stroke-width:0px;" /><circle id="SPH08987" cx="888.72" cy="842.9" r="9.2" style="fill:#ccc; stroke-width:0px;" /><circle id="SPH08988" cx="887.17" cy="866.89" r="9.2" style="fill:#ccc; stroke-width:0px;" /><circle id="SPH08989" cx="885.61" cy="890.89" r="9.2" style="fill:#ccc; stroke-width:0px;" /><circle id="SPH08990" cx="884.07" cy="914.89" r="9.2" style="fill:#ccc; stroke-width:0px;" /><circle id="SPH08991" cx="923.55" cy="407.47" r="9.2" style="fill:#ccc; stroke-width:0px;" /><circle id="SPH08992" cx="925.05" cy="430.66" r="9.2" style="fill:#ccc; stroke-width:0px;" /><circle id="SPH08993" cx="926.54" cy="453.84" r="9.2" style="fill:#ccc; stroke-width:0px;" /><circle id="SPH08994" cx="928.05" cy="477.04" r="9.2" style="fill:#ccc; stroke-width:0px;" /><circle id="SPH08995" cx="928.88" cy="500.26" r="9.2" style="fill:#ccc; stroke-width:0px;" /><circle id="SPH08996" cx="929.37" cy="523.49" r="9.2" style="fill:#ccc; stroke-width:0px;" /><circle id="SPH08997" cx="929.88" cy="546.71" r="9.2" style="fill:#ccc; stroke-width:0px;" /><circle id="SPH08998" cx="930.37" cy="569.92" r="9.2" style="fill:#ccc; stroke-width:0px;" /><circle id="SPH08999" cx="930.87" cy="593.15" r="9.2" style="fill:#ccc; stroke-width:0px;" /><circle id="SPH09000" cx="931.37" cy="616.37" r="9.2" style="fill:#ccc; stroke-width:0px;" /><circle id="SPH09001" cx="931.87" cy="639.61" r="9.2" style="fill:#ccc; stroke-width:0px;" /><circle id="SPH09002" cx="932.37" cy="662.86" r="9.2" style="fill:#ccc; stroke-width:0px;" /><circle id="SPH09003" cx="931.87" cy="686.08" r="9.2" style="fill:#ccc; stroke-width:0px;" /><circle id="SPH09004" cx="931.37" cy="709.26" r="9.2" style="fill:#ccc; stroke-width:0px;" /><circle id="SPH09005" cx="930.87" cy="732.45" r="9.2" style="fill:#ccc; stroke-width:0px;" /><circle id="SPH09006" cx="930.37" cy="755.64" r="9.2" style="fill:#ccc; stroke-width:0px;" /><circle id="SPH09007" cx="929.87" cy="778.84" r="9.2" style="fill:#ccc; stroke-width:0px;" /><circle id="SPH09008" cx="929.37" cy="802.04" r="9.2" style="fill:#ccc; stroke-width:0px;" /><circle id="SPH09009" cx="928.88" cy="825.24" r="9.2" style="fill:#ccc; stroke-width:0px;" /><circle id="SPH09010" cx="928.04" cy="848.44" r="9.2" style="fill:#ccc; stroke-width:0px;" /><circle id="SPH09011" cx="926.54" cy="871.64" r="9.2" style="fill:#ccc; stroke-width:0px;" /><circle id="SPH09012" cx="925.05" cy="894.82" r="9.2" style="fill:#ccc; stroke-width:0px;" /><circle id="SPH09013" cx="923.55" cy="918.01" r="9.2" style="fill:#ccc; stroke-width:0px;" /><circle id="SPH09014" cx="963.03" cy="404.36" r="9.2" style="fill:#ccc; stroke-width:0px;" /><circle id="SPH09015" cx="964.55" cy="427.84" r="9.2" style="fill:#ccc; stroke-width:0px;" /><circle id="SPH09016" cx="966.06" cy="451.31" r="9.2" style="fill:#ccc; stroke-width:0px;" /><circle id="SPH09017" cx="967.58" cy="474.78" r="9.2" style="fill:#ccc; stroke-width:0px;" /><circle id="SPH09018" cx="968.45" cy="498.28" r="9.2" style="fill:#ccc; stroke-width:0px;" /><circle id="SPH09019" cx="968.95" cy="521.79" r="9.2" style="fill:#ccc; stroke-width:0px;" /><circle id="SPH09020" cx="969.45" cy="545.29" r="9.2" style="fill:#ccc; stroke-width:0px;" /><circle id="SPH09021" cx="969.96" cy="568.79" r="9.2" style="fill:#ccc; stroke-width:0px;" /><circle id="SPH09022" cx="970.46" cy="592.29" r="9.2" style="fill:#ccc; stroke-width:0px;" /><circle id="SPH09023" cx="970.97" cy="615.8" r="9.2" style="fill:#ccc; stroke-width:0px;" /><circle id="SPH09024" cx="971.48" cy="639.32" r="9.2" style="fill:#ccc; stroke-width:0px;" /><circle id="SPH09025" cx="971.97" cy="662.83" r="9.2" style="fill:#ccc; stroke-width:0px;" /><circle id="SPH09026" cx="971.47" cy="686.32" r="9.2" style="fill:#ccc; stroke-width:0px;" /><circle id="SPH09027" cx="970.97" cy="709.83" r="9.2" style="fill:#ccc; stroke-width:0px;" /><circle id="SPH09028" cx="970.46" cy="733.32" r="9.2" style="fill:#ccc; stroke-width:0px;" /><circle id="SPH09029" cx="969.96" cy="756.82" r="9.2" style="fill:#ccc; stroke-width:0px;" /><circle id="SPH09030" cx="969.45" cy="780.3" r="9.2" style="fill:#ccc; stroke-width:0px;" /><circle id="SPH09031" cx="968.94" cy="803.79" r="9.2" style="fill:#ccc; stroke-width:0px;" /><circle id="SPH09032" cx="968.44" cy="827.27" r="9.2" style="fill:#ccc; stroke-width:0px;" /><circle id="SPH09033" cx="967.57" cy="850.75" r="9.2" style="fill:#ccc; stroke-width:0px;" /><circle id="SPH09034" cx="966.06" cy="874.21" r="9.2" style="fill:#ccc; stroke-width:0px;" /><circle id="SPH09035" cx="964.54" cy="897.68" r="9.2" style="fill:#ccc; stroke-width:0px;" /><circle id="SPH09036" cx="963.03" cy="921.16" r="9.2" style="fill:#ccc; stroke-width:0px;" /><circle id="SPH09037" cx="1002.51" cy="401.26" r="9.2" style="fill:#ccc; stroke-width:0px;" /><circle id="SPH09038" cx="1004.05" cy="425.01" r="9.2" style="fill:#ccc; stroke-width:0px;" /><circle id="SPH09039" cx="1005.58" cy="448.76" r="9.2" style="fill:#ccc; stroke-width:0px;" /><circle id="SPH09040" cx="1007.12" cy="472.52" r="9.2" style="fill:#ccc; stroke-width:0px;" /><circle id="SPH09041" cx="1008.01" cy="496.3" r="9.2" style="fill:#ccc; stroke-width:0px;" /><circle id="SPH09042" cx="1008.52" cy="520.1" r="9.2" style="fill:#ccc; stroke-width:0px;" /><circle id="SPH09043" cx="1009.03" cy="543.88" r="9.2" style="fill:#ccc; stroke-width:0px;" /><circle id="SPH09044" cx="1009.54" cy="567.67" r="9.2" style="fill:#ccc; stroke-width:0px;" /><circle id="SPH09045" cx="1010.05" cy="591.45" r="9.2" style="fill:#ccc; stroke-width:0px;" /><circle id="SPH09046" cx="1010.57" cy="615.24" r="9.2" style="fill:#ccc; stroke-width:0px;" /><circle id="SPH09047" cx="1011.08" cy="639.02" r="9.2" style="fill:#ccc; stroke-width:0px;" /><circle id="SPH09048" cx="1011.58" cy="662.8" r="9.2" style="fill:#ccc; stroke-width:0px;" /><circle id="SPH09049" cx="1011.07" cy="686.64" r="9.2" style="fill:#ccc; stroke-width:0px;" /><circle id="SPH09050" cx="1010.56" cy="710.47" r="9.2" style="fill:#ccc; stroke-width:0px;" /><circle id="SPH09051" cx="1010.05" cy="734.28" r="9.2" style="fill:#ccc; stroke-width:0px;" /><circle id="SPH09052" cx="1009.53" cy="758.08" r="9.2" style="fill:#ccc; stroke-width:0px;" /><circle id="SPH09053" cx="1009.02" cy="781.87" r="9.2" style="fill:#ccc; stroke-width:0px;" /><circle id="SPH09054" cx="1008.51" cy="805.64" r="9.2" style="fill:#ccc; stroke-width:0px;" /><circle id="SPH09055" cx="1008.01" cy="829.42" r="9.2" style="fill:#ccc; stroke-width:0px;" /><circle id="SPH09056" cx="1007.1" cy="853.18" r="9.2" style="fill:#ccc; stroke-width:0px;" /><circle id="SPH09057" cx="1005.57" cy="876.93" r="9.2" style="fill:#ccc; stroke-width:0px;" /><circle id="SPH09058" cx="1004.03" cy="900.69" r="9.2" style="fill:#ccc; stroke-width:0px;" /><circle id="SPH09059" cx="1002.49" cy="924.45" r="9.2" style="fill:#ccc; stroke-width:0px;" /><circle id="SPH09060" cx="1041.99" cy="398.15" r="9.2" style="fill:#ccc; stroke-width:0px;" /><circle id="SPH09061" cx="1043.48" cy="421.14" r="9.2" style="fill:#ccc; stroke-width:0px;" /><circle id="SPH09062" cx="1044.97" cy="444.12" r="9.2" style="fill:#ccc; stroke-width:0px;" /><circle id="SPH09063" cx="1046.45" cy="467.12" r="9.2" style="fill:#ccc; stroke-width:0px;" /><circle id="SPH09064" cx="1047.49" cy="490.14" r="9.2" style="fill:#ccc; stroke-width:0px;" /><circle id="SPH09065" cx="1047.98" cy="513.16" r="9.2" style="fill:#ccc; stroke-width:0px;" /><circle id="SPH09066" cx="1048.48" cy="536.2" r="9.2" style="fill:#ccc; stroke-width:0px;" /><circle id="SPH09067" cx="1048.97" cy="559.21" r="9.2" style="fill:#ccc; stroke-width:0px;" /><circle id="SPH09068" cx="1049.46" cy="582.24" r="9.2" style="fill:#ccc; stroke-width:0px;" /><circle id="SPH09069" cx="1049.96" cy="605.25" r="9.2" style="fill:#ccc; stroke-width:0px;" /><circle id="SPH09070" cx="1050.45" cy="628.28" r="9.2" style="fill:#ccc; stroke-width:0px;" /><circle id="SPH09071" cx="1050.95" cy="651.32" r="9.2" style="fill:#ccc; stroke-width:0px;" /><circle id="SPH09072" cx="1050.94" cy="674.37" r="9.2" style="fill:#ccc; stroke-width:0px;" /><circle id="SPH09073" cx="1050.45" cy="697.43" r="9.2" style="fill:#ccc; stroke-width:0px;" /><circle id="SPH09074" cx="1049.95" cy="720.48" r="9.2" style="fill:#ccc; stroke-width:0px;" /><circle id="SPH09075" cx="1049.46" cy="743.53" r="9.2" style="fill:#ccc; stroke-width:0px;" /><circle id="SPH09076" cx="1048.97" cy="766.57" r="9.2" style="fill:#ccc; stroke-width:0px;" /><circle id="SPH09077" cx="1048.47" cy="789.6" r="9.2" style="fill:#ccc; stroke-width:0px;" /><circle id="SPH09078" cx="1047.97" cy="812.63" r="9.2" style="fill:#ccc; stroke-width:0px;" /><circle id="SPH09079" cx="1047.48" cy="835.64" r="9.2" style="fill:#ccc; stroke-width:0px;" /><circle id="SPH09080" cx="1046.43" cy="858.64" r="9.2" style="fill:#ccc; stroke-width:0px;" /><circle id="SPH09081" cx="1044.94" cy="881.64" r="9.2" style="fill:#ccc; stroke-width:0px;" /><circle id="SPH09082" cx="1043.46" cy="904.63" r="9.2" style="fill:#ccc; stroke-width:0px;" /><circle id="SPH09083" cx="1041.97" cy="927.62" r="9.2" style="fill:#ccc; stroke-width:0px;" /><g id="GMYDMOSXIM5DCOA"><circle cx="1109.41" cy="420.19" r="9.2" style="fill:#ccc; stroke-width:0px;" /><path d="M1108.22,414.76c0-.3.25-.55.55-.55s.54.25.54.55-.24.55-.55.55-.55-.25-.55-.55h.01ZM1108.78,413.38c-.76,0-1.37.61-1.37,1.37h0c0,.77.61,1.39,1.36,1.39s1.37-.62,1.36-1.37h0c0-.76-.61-1.38-1.36-1.38h.01ZM1111.72,416.68v.83l-3.05.03v2.98l3.86.04.79,3.54.93-.14.12.82-1.68.25-.81-3.65-4.03-.04v-4.61l3.86-.04h.01ZM1107.25,419.63c-1.17.26-2,1.31-2,2.51,0,1.41,1.13,2.56,2.54,2.56h0c1.4,0,2.54-1.15,2.54-2.56h.82c0,1.86-1.49,3.38-3.36,3.39h0c-1.86-.01-3.36-1.53-3.36-3.39,0-1.59,1.1-2.97,2.65-3.32l.17.81h0Z" style="fill:#ccc; stroke-width:0px;" /></g><g id="GMYDMOSXIM5DCNY"><circle cx="1111.25" cy="448.71" r="9.2" style="fill:#ccc; stroke-width:0px;" /><path d="M1110.07,443.28c0-.3.25-.55.55-.55s.54.25.54.55-.24.55-.55.55-.55-.25-.55-.55h.01ZM1110.62,441.9c-.76,0-1.37.61-1.37,1.37h0c0,.77.61,1.39,1.36,1.39s1.37-.62,1.36-1.37h0c0-.76-.61-1.38-1.36-1.38h.01ZM1113.57,445.2v.83l-3.05.03v2.98l3.86.04.79,3.54.93-.14.12.82-1.68.25-.81-3.65-4.03-.04v-4.61l3.86-.04h.01ZM1109.1,448.15c-1.17.26-2,1.31-2,2.51,0,1.41,1.13,2.56,2.54,2.56h0c1.4,0,2.54-1.15,2.54-2.56h.82c0,1.86-1.49,3.38-3.36,3.39h0c-1.86-.01-3.36-1.53-3.36-3.39,0-1.59,1.1-2.97,2.65-3.32l.17.81h0Z" style="fill:#ccc; stroke-width:0px;" /></g><g id="GMYDMOSXIM5DCNQ"><circle cx="1113.09" cy="477.21" r="9.2" style="fill:#ccc; stroke-width:0px;" /><path d="M1111.91,471.78c0-.3.25-.55.55-.55s.54.25.54.55-.24.55-.55.55-.55-.25-.55-.55h.01ZM1112.46,470.4c-.76,0-1.37.61-1.37,1.37h0c0,.77.61,1.39,1.36,1.39s1.37-.62,1.36-1.37h0c0-.76-.61-1.38-1.36-1.38h.01ZM1115.41,473.71v.83l-3.05.03v2.98l3.86.04.79,3.54.93-.14.12.82-1.68.25-.81-3.65-4.03-.04v-4.61l3.86-.04h.01ZM1110.94,476.65c-1.17.26-2,1.31-2,2.51,0,1.41,1.13,2.56,2.54,2.56h0c1.4,0,2.54-1.15,2.54-2.56h.82c0,1.86-1.49,3.38-3.36,3.39h0c-1.86-.01-3.36-1.53-3.36-3.39,0-1.59,1.1-2.97,2.65-3.32l.17.81h0Z" style="fill:#ccc; stroke-width:0px;" /></g><g id="GMYDMOSXIM5DCNI"><circle cx="1113.74" cy="505.78" r="9.2" style="fill:#ccc; stroke-width:0px;" /><path d="M1112.56,500.35c0-.3.25-.55.55-.55s.54.25.54.55-.24.55-.55.55-.55-.25-.55-.55h.01ZM1113.11,498.97c-.76,0-1.37.61-1.37,1.37h0c0,.77.61,1.39,1.36,1.39s1.37-.62,1.36-1.37h0c0-.76-.61-1.38-1.36-1.38h.01ZM1116.05,502.27v.83l-3.05.03v2.98l3.86.04.79,3.54.93-.14.12.82-1.68.25-.81-3.65-4.03-.04v-4.61l3.86-.04h.01ZM1111.59,505.22c-1.17.26-2,1.31-2,2.51,0,1.41,1.13,2.56,2.54,2.56h0c1.4,0,2.54-1.15,2.54-2.56h.82c0,1.86-1.49,3.38-3.36,3.39h0c-1.86-.01-3.36-1.53-3.36-3.39,0-1.59,1.1-2.97,2.65-3.32l.17.81h0Z" style="fill:#ccc; stroke-width:0px;" /></g><g id="GMYDMOSXIM5DCNA"><circle cx="1114.35" cy="534.32" r="9.2" style="fill:#ccc; stroke-width:0px;" /><path d="M1113.17,528.9c0-.3.25-.55.55-.55s.54.25.54.55-.24.55-.55.55-.55-.25-.55-.55h.01ZM1113.72,527.52c-.76,0-1.37.61-1.37,1.37h0c0,.77.61,1.39,1.36,1.39s1.37-.62,1.36-1.37h0c0-.76-.61-1.38-1.36-1.38h.01ZM1116.66,530.82v.83l-3.05.03v2.98l3.86.04.79,3.54.93-.14.12.82-1.68.25-.81-3.65-4.03-.04v-4.61l3.86-.04h.01ZM1112.2,533.77c-1.17.26-2,1.31-2,2.51,0,1.41,1.13,2.56,2.54,2.56h0c1.4,0,2.54-1.15,2.54-2.56h.82c0,1.86-1.49,3.38-3.36,3.39h0c-1.86-.01-3.36-1.53-3.36-3.39,0-1.59,1.1-2.97,2.65-3.32l.17.81h0Z" style="fill:#ccc; stroke-width:0px;" /></g><g id="GMYDMOSXIM5DCMY"><circle cx="1114.97" cy="562.88" r="9.2" style="fill:#ccc; stroke-width:0px;" /><path d="M1113.79,557.45c0-.3.25-.55.55-.55s.54.25.54.55-.24.55-.55.55-.55-.25-.55-.55h.01ZM1114.34,556.07c-.76,0-1.37.61-1.37,1.37h0c0,.77.61,1.39,1.36,1.39s1.37-.62,1.36-1.37h0c0-.76-.61-1.38-1.36-1.38h.01ZM1117.28,559.37v.83l-3.05.03v2.98l3.86.04.79,3.54.93-.14.12.82-1.68.25-.81-3.65-4.03-.04v-4.61l3.86-.04h.01ZM1112.81,562.32c-1.17.26-2,1.31-2,2.51,0,1.41,1.13,2.56,2.54,2.56h0c1.4,0,2.54-1.15,2.54-2.56h.82c0,1.86-1.49,3.38-3.36,3.39h0c-1.86-.01-3.36-1.53-3.36-3.39,0-1.59,1.1-2.97,2.65-3.32l.17.81h0Z" style="fill:#ccc; stroke-width:0px;" /></g><g id="GMYDMOSXIM5DCMQ"><circle cx="1115.58" cy="591.42" r="9.2" style="fill:#ccc; stroke-width:0px;" /><path d="M1114.4,585.99c0-.3.25-.55.55-.55s.54.25.54.55-.24.55-.55.55-.55-.25-.55-.55h.01ZM1114.95,584.61c-.76,0-1.37.61-1.37,1.37h0c0,.77.61,1.39,1.36,1.39s1.37-.62,1.36-1.37h0c0-.76-.61-1.38-1.36-1.38h.01ZM1117.9,587.91v.83l-3.05.03v2.98l3.86.04.79,3.54.93-.14.12.82-1.68.25-.81-3.65-4.03-.04v-4.61l3.86-.04h.01ZM1113.43,590.86c-1.17.26-2,1.31-2,2.51,0,1.41,1.13,2.56,2.54,2.56h0c1.4,0,2.54-1.15,2.54-2.56h.82c0,1.86-1.49,3.38-3.36,3.39h0c-1.86-.01-3.36-1.53-3.36-3.39,0-1.59,1.1-2.97,2.65-3.32l.17.81h0Z" style="fill:#ccc; stroke-width:0px;" /></g><g id="GMYDMOSXIM5DCMI"><circle cx="1116.2" cy="619.99" r="9.2" style="fill:#ccc; stroke-width:0px;" /><path d="M1115.02,614.56c0-.3.25-.55.55-.55s.54.25.54.55-.24.55-.55.55-.55-.25-.55-.55h.01ZM1115.57,613.18c-.76,0-1.37.61-1.37,1.37h0c0,.77.61,1.39,1.36,1.39s1.37-.62,1.36-1.37h0c0-.76-.61-1.38-1.36-1.38h.01ZM1118.51,616.48v.83l-3.05.03v2.98l3.86.04.79,3.54.93-.14.12.82-1.68.25-.81-3.65-4.03-.04v-4.61l3.86-.04h.01ZM1114.05,619.43c-1.17.26-2,1.31-2,2.51,0,1.41,1.13,2.56,2.54,2.56h0c1.4,0,2.54-1.15,2.54-2.56h.82c0,1.86-1.49,3.38-3.36,3.39h0c-1.86-.01-3.36-1.53-3.36-3.39,0-1.59,1.1-2.97,2.65-3.32l.17.81h0Z" style="fill:#ccc; stroke-width:0px;" /></g><g id="GMYDMOSXIM5DCMA"><circle cx="1116.81" cy="648.56" r="9.2" style="fill:#ccc; stroke-width:0px;" /><path d="M1115.63,643.14c0-.3.25-.55.55-.55s.54.25.54.55-.24.55-.55.55-.55-.25-.55-.55h.01ZM1116.18,641.76c-.76,0-1.37.61-1.37,1.37h0c0,.77.61,1.39,1.36,1.39s1.37-.62,1.36-1.37h0c0-.76-.61-1.38-1.36-1.38h.01ZM1119.12,645.06v.83l-3.05.03v2.98l3.86.04.79,3.54.93-.14.12.82-1.68.25-.81-3.65-4.03-.04v-4.61l3.86-.04h.01ZM1114.65,648.01c-1.17.26-2,1.31-2,2.51,0,1.41,1.13,2.56,2.54,2.56h0c1.4,0,2.54-1.15,2.54-2.56h.82c0,1.86-1.49,3.38-3.36,3.39h0c-1.86-.01-3.36-1.53-3.36-3.39,0-1.59,1.1-2.97,2.65-3.32l.17.81h0Z" style="fill:#ccc; stroke-width:0px;" /></g><g id="GMYDMOSXIM5DS"><circle cx="1116.81" cy="677.13" r="9.2" style="fill:#ccc; stroke-width:0px;" /><path d="M1115.63,671.7c0-.3.25-.55.55-.55s.54.25.54.55-.24.55-.55.55-.55-.25-.55-.55h.01ZM1116.18,670.32c-.76,0-1.37.61-1.37,1.37h0c0,.77.61,1.39,1.36,1.39s1.37-.62,1.36-1.37h0c0-.76-.61-1.38-1.36-1.38h.01ZM1119.12,673.63v.83l-3.05.03v2.98l3.86.04.79,3.54.93-.14.12.82-1.68.25-.81-3.65-4.03-.04v-4.61l3.86-.04h.01ZM1114.65,676.57c-1.17.26-2,1.31-2,2.51,0,1.41,1.13,2.56,2.54,2.56h0c1.4,0,2.54-1.15,2.54-2.56h.82c0,1.86-1.49,3.38-3.36,3.39h0c-1.86-.01-3.36-1.53-3.36-3.39,0-1.59,1.1-2.97,2.65-3.32l.17.81h0Z" style="fill:#ccc; stroke-width:0px;" /></g><g id="GMYDMOSXIM5DQ"><circle cx="1116.19" cy="705.71" r="9.2" style="fill:#ccc; stroke-width:0px;" /><path d="M1115.01,700.28c0-.3.25-.55.55-.55s.54.25.54.55-.24.55-.55.55-.55-.25-.55-.55h.01ZM1115.56,698.9c-.76,0-1.37.61-1.37,1.37h0c0,.77.61,1.39,1.36,1.39s1.37-.62,1.36-1.37h0c0-.76-.61-1.38-1.36-1.38h.01ZM1118.5,702.2v.83l-3.05.03v2.98l3.86.04.79,3.54.93-.14.12.82-1.68.25-.81-3.65-4.03-.04v-4.61l3.86-.04h.01ZM1114.04,705.15c-1.17.26-2,1.31-2,2.51,0,1.41,1.13,2.56,2.54,2.56h0c1.4,0,2.54-1.15,2.54-2.56h.82c0,1.86-1.49,3.38-3.36,3.39h0c-1.86-.01-3.36-1.53-3.36-3.39,0-1.59,1.1-2.97,2.65-3.32l.17.81h0Z" style="fill:#ccc; stroke-width:0px;" /></g><g id="GMYDMOSXIM5DO"><circle cx="1115.57" cy="734.29" r="9.2" style="fill:#ccc; stroke-width:0px;" /><path d="M1114.39,728.86c0-.3.25-.55.55-.55s.54.25.54.55-.24.55-.55.55-.55-.25-.55-.55h.01ZM1114.94,727.48c-.76,0-1.37.61-1.37,1.37h0c0,.77.61,1.39,1.36,1.39s1.37-.62,1.36-1.37h0c0-.76-.61-1.38-1.36-1.38h.01ZM1117.89,730.79v.83l-3.05.03v2.98l3.86.04.79,3.54.93-.14.12.82-1.68.25-.81-3.65-4.03-.04v-4.61l3.86-.04h.01ZM1113.42,733.73c-1.17.26-2,1.31-2,2.51,0,1.41,1.13,2.56,2.54,2.56h0c1.4,0,2.54-1.15,2.54-2.56h.82c0,1.86-1.49,3.38-3.36,3.39h0c-1.86-.01-3.36-1.53-3.36-3.39,0-1.59,1.1-2.97,2.65-3.32l.17.81h0Z" style="fill:#ccc; stroke-width:0px;" /></g><g id="GMYDMOSXIM5DM"><circle cx="1114.96" cy="762.86" r="9.2" style="fill:#ccc; stroke-width:0px;" /><path d="M1113.78,757.43c0-.3.25-.55.55-.55s.54.25.54.55-.24.55-.55.55-.55-.25-.55-.55h.01ZM1114.33,756.05c-.76,0-1.37.61-1.37,1.37h0c0,.77.61,1.39,1.36,1.39s1.37-.62,1.36-1.37h0c0-.76-.61-1.38-1.36-1.38h.01ZM1117.27,759.35v.83l-3.05.03v2.98l3.86.04.79,3.54.93-.14.12.82-1.68.25-.81-3.65-4.03-.04v-4.61l3.86-.04h.01ZM1112.81,762.3c-1.17.26-2,1.31-2,2.51,0,1.41,1.13,2.56,2.54,2.56h0c1.4,0,2.54-1.15,2.54-2.56h.82c0,1.86-1.49,3.38-3.36,3.39h0c-1.86-.01-3.36-1.53-3.36-3.39,0-1.59,1.1-2.97,2.65-3.32l.17.81h0Z" style="fill:#ccc; stroke-width:0px;" /></g><g id="GMYDMOSXIM5DK"><circle cx="1114.35" cy="791.42" r="9.2" style="fill:#ccc; stroke-width:0px;" /><path d="M1113.17,785.99c0-.3.25-.55.55-.55s.54.25.54.55-.24.55-.55.55-.55-.25-.55-.55h.01ZM1113.72,784.61c-.76,0-1.37.61-1.37,1.37h0c0,.77.61,1.39,1.36,1.39s1.37-.62,1.36-1.37h0c0-.76-.61-1.38-1.36-1.38h.01ZM1116.66,787.91v.83l-3.05.03v2.98l3.86.04.79,3.54.93-.14.12.82-1.68.25-.81-3.65-4.03-.04v-4.61l3.86-.04h.01ZM1112.2,790.86c-1.17.26-2,1.31-2,2.51,0,1.41,1.13,2.56,2.54,2.56h0c1.4,0,2.54-1.15,2.54-2.56h.82c0,1.86-1.49,3.38-3.36,3.39h0c-1.86-.01-3.36-1.53-3.36-3.39,0-1.59,1.1-2.97,2.65-3.32l.17.81h0Z" style="fill:#ccc; stroke-width:0px;" /></g><g id="GMYDMOSXIM5DI"><circle cx="1113.73" cy="819.97" r="9.2" style="fill:#ccc; stroke-width:0px;" /><path d="M1112.55,814.54c0-.3.25-.55.55-.55s.54.25.54.55-.24.55-.55.55-.55-.25-.55-.55h.01ZM1113.1,813.16c-.76,0-1.37.61-1.37,1.37h0c0,.77.61,1.39,1.36,1.39s1.37-.62,1.36-1.37h0c0-.76-.61-1.38-1.36-1.38h.01ZM1116.05,816.47v.83l-3.05.03v2.98l3.86.04.79,3.54.93-.14.12.82-1.68.25-.81-3.65-4.03-.04v-4.61l3.86-.04h.01ZM1111.58,819.41c-1.17.26-2,1.31-2,2.51,0,1.41,1.13,2.56,2.54,2.56h0c1.4,0,2.54-1.15,2.54-2.56h.82c0,1.86-1.49,3.38-3.36,3.39h0c-1.86-.01-3.36-1.53-3.36-3.39,0-1.59,1.1-2.97,2.65-3.32l.17.81h0Z" style="fill:#ccc; stroke-width:0px;" /></g><g id="GMYDMOSXIM5DG"><circle cx="1113.07" cy="848.51" r="9.2" style="fill:#ccc; stroke-width:0px;" /><path d="M1111.89,843.08c0-.3.25-.55.55-.55s.54.25.54.55-.24.55-.55.55-.55-.25-.55-.55h.01ZM1112.44,841.7c-.76,0-1.37.61-1.37,1.37h0c0,.77.61,1.39,1.36,1.39s1.37-.62,1.36-1.37h0c0-.76-.61-1.38-1.36-1.38h.01ZM1115.38,845v.83l-3.05.03v2.98l3.86.04.79,3.54.93-.14.12.82-1.68.25-.81-3.65-4.03-.04v-4.61l3.86-.04h.01ZM1110.92,847.95c-1.17.26-2,1.31-2,2.51,0,1.41,1.13,2.56,2.54,2.56h0c1.4,0,2.54-1.15,2.54-2.56h.82c0,1.86-1.49,3.38-3.36,3.39h0c-1.86-.01-3.36-1.53-3.36-3.39,0-1.59,1.1-2.97,2.65-3.32l.17.81h0Z" style="fill:#ccc; stroke-width:0px;" /></g><g id="GMYDMOSXIM5DE"><circle cx="1111.23" cy="877.03" r="9.2" style="fill:#ccc; stroke-width:0px;" /><path d="M1110.05,871.6c0-.3.25-.55.55-.55s.54.25.54.55-.24.55-.55.55-.55-.25-.55-.55h.01ZM1110.6,870.22c-.76,0-1.37.61-1.37,1.37h0c0,.77.61,1.39,1.36,1.39s1.37-.62,1.36-1.37h0c0-.76-.61-1.38-1.36-1.38h.01ZM1113.54,873.52v.83l-3.05.03v2.98l3.86.04.79,3.54.93-.14.12.82-1.68.25-.81-3.65-4.03-.04v-4.61l3.86-.04h.01ZM1109.08,876.47c-1.17.26-2,1.31-2,2.51,0,1.41,1.13,2.56,2.54,2.56h0c1.4,0,2.54-1.15,2.54-2.56h.82c0,1.86-1.49,3.38-3.36,3.39h0c-1.86-.01-3.36-1.53-3.36-3.39,0-1.59,1.1-2.97,2.65-3.32l.17.81h0Z" style="fill:#ccc; stroke-width:0px;" /></g><g id="GMYDMOSXIM5DC"><circle cx="1109.39" cy="905.54" r="9.2" style="fill:#ccc; stroke-width:0px;" /><path d="M1108.21,900.11c0-.3.25-.55.55-.55s.54.25.54.55-.24.55-.55.55-.55-.25-.55-.55h.01ZM1108.76,898.73c-.76,0-1.37.61-1.37,1.37h0c0,.77.61,1.39,1.36,1.39s1.37-.62,1.36-1.37h0c0-.76-.61-1.38-1.36-1.38h.01ZM1111.7,902.03v.83l-3.05.03v2.98l3.86.04.79,3.54.93-.14.12.82-1.68.25-.81-3.65-4.03-.04v-4.61l3.86-.04h.01ZM1107.24,904.98c-1.17.26-2,1.31-2,2.51,0,1.41,1.13,2.56,2.54,2.56h0c1.4,0,2.54-1.15,2.54-2.56h.82c0,1.86-1.49,3.38-3.36,3.39h0c-1.86-.01-3.36-1.53-3.36-3.39,0-1.59,1.1-2.97,2.65-3.32l.17.81h0Z" style="fill:#ccc; stroke-width:0px;" /></g><circle id="SPH09102" cx="568.21" cy="435.44" r="9.2" style="fill:#ccc; stroke-width:0px;" /><circle id="SPH09103" cx="569.76" cy="459.34" r="9.2" style="fill:#ccc; stroke-width:0px;" /><circle id="SPH09104" cx="571.3" cy="483.24" r="9.2" style="fill:#ccc; stroke-width:0px;" /><circle id="SPH09105" cx="572.54" cy="507.16" r="9.2" style="fill:#ccc; stroke-width:0px;" /><circle id="SPH09106" cx="573.06" cy="531.12" r="9.2" style="fill:#ccc; stroke-width:0px;" /><circle id="SPH09107" cx="573.57" cy="555.07" r="9.2" style="fill:#ccc; stroke-width:0px;" /><circle id="SPH09108" cx="574.09" cy="579" r="9.2" style="fill:#ccc; stroke-width:0px;" /><circle id="SPH09109" cx="574.61" cy="602.94" r="9.2" style="fill:#ccc; stroke-width:0px;" /><circle id="SPH09110" cx="575.12" cy="626.88" r="9.2" style="fill:#ccc; stroke-width:0px;" /><circle id="SPH09111" cx="575.63" cy="650.82" r="9.2" style="fill:#ccc; stroke-width:0px;" /><circle id="SPH09112" cx="575.63" cy="674.76" r="9.2" style="fill:#ccc; stroke-width:0px;" /><circle id="SPH09113" cx="575.12" cy="698.69" r="9.2" style="fill:#ccc; stroke-width:0px;" /><circle id="SPH09114" cx="574.6" cy="722.63" r="9.2" style="fill:#ccc; stroke-width:0px;" /><circle id="SPH09115" cx="574.09" cy="746.56" r="9.2" style="fill:#ccc; stroke-width:0px;" /><circle id="SPH09116" cx="573.57" cy="770.49" r="9.2" style="fill:#ccc; stroke-width:0px;" /><circle id="SPH09117" cx="573.05" cy="794.43" r="9.2" style="fill:#ccc; stroke-width:0px;" /><circle id="SPH09118" cx="572.54" cy="818.36" r="9.2" style="fill:#ccc; stroke-width:0px;" /><circle id="SPH09119" cx="571.3" cy="842.28" r="9.2" style="fill:#ccc; stroke-width:0px;" /><path id="GMYDMORWHIZA" d="M569.76,856.98c5.08,0,9.2,4.12,9.2,9.2s-4.12,9.2-9.2,9.2-9.2-4.12-9.2-9.2,4.12-9.2,9.2-9.2Z" style="fill:#ccc; stroke-width:0px;" /><circle id="SPH09121" cx="568.21" cy="890.08" r="9.2" style="fill:#ccc; stroke-width:0px;" /><circle id="SPH09122" cx="607.69" cy="432.32" r="9.2" style="fill:#ccc; stroke-width:0px;" /><circle id="SPH09123" cx="609.18" cy="455.35" r="9.2" style="fill:#ccc; stroke-width:0px;" /><circle id="SPH09124" cx="610.67" cy="478.36" r="9.2" style="fill:#ccc; stroke-width:0px;" /><circle id="SPH09125" cx="612.03" cy="501.4" r="9.2" style="fill:#ccc; stroke-width:0px;" /><circle id="SPH09126" cx="612.53" cy="524.46" r="9.2" style="fill:#ccc; stroke-width:0px;" /><circle id="SPH09127" cx="613.02" cy="547.52" r="9.2" style="fill:#ccc; stroke-width:0px;" /><circle id="SPH09128" cx="613.52" cy="570.58" r="9.2" style="fill:#ccc; stroke-width:0px;" /><circle id="SPH09129" cx="614.01" cy="593.64" r="9.2" style="fill:#ccc; stroke-width:0px;" /><circle id="SPH09130" cx="614.51" cy="616.7" r="9.2" style="fill:#ccc; stroke-width:0px;" /><circle id="SPH09131" cx="615.01" cy="639.76" r="9.2" style="fill:#ccc; stroke-width:0px;" /><circle id="SPH09132" cx="615.49" cy="662.82" r="9.2" style="fill:#ccc; stroke-width:0px;" /><circle id="SPH09133" cx="615" cy="685.88" r="9.2" style="fill:#ccc; stroke-width:0px;" /><circle id="SPH09134" cx="614.5" cy="708.92" r="9.2" style="fill:#ccc; stroke-width:0px;" /><circle id="SPH09135" cx="614.01" cy="731.96" r="9.2" style="fill:#ccc; stroke-width:0px;" /><circle id="SPH09136" cx="613.52" cy="754.99" r="9.2" style="fill:#ccc; stroke-width:0px;" /><circle id="SPH09137" cx="613.02" cy="778.02" r="9.2" style="fill:#ccc; stroke-width:0px;" /><circle id="SPH09138" cx="612.53" cy="801.06" r="9.2" style="fill:#ccc; stroke-width:0px;" /><circle id="SPH09139" cx="612.03" cy="824.09" r="9.2" style="fill:#ccc; stroke-width:0px;" /><circle id="SPH09140" cx="610.67" cy="847.12" r="9.2" style="fill:#ccc; stroke-width:0px;" /><circle id="SPH09141" cx="609.18" cy="870.14" r="9.2" style="fill:#ccc; stroke-width:0px;" /><circle id="SPH09142" cx="607.69" cy="893.16" r="9.2" style="fill:#ccc; stroke-width:0px;" /><circle id="SPH09143" cx="647.17" cy="429.22" r="9.2" style="fill:#ccc; stroke-width:0px;" /><circle id="SPH09144" cx="648.69" cy="452.55" r="9.2" style="fill:#ccc; stroke-width:0px;" /><circle id="SPH09145" cx="650.19" cy="475.88" r="9.2" style="fill:#ccc; stroke-width:0px;" /><circle id="SPH09146" cx="651.59" cy="499.22" r="9.2" style="fill:#ccc; stroke-width:0px;" /><circle id="SPH09147" cx="652.09" cy="522.6" r="9.2" style="fill:#ccc; stroke-width:0px;" /><circle id="SPH09148" cx="652.6" cy="545.97" r="9.2" style="fill:#ccc; stroke-width:0px;" /><circle id="SPH09149" cx="653.1" cy="569.33" r="9.2" style="fill:#ccc; stroke-width:0px;" /><circle id="SPH09150" cx="653.6" cy="592.7" r="9.2" style="fill:#ccc; stroke-width:0px;" /><circle id="SPH09151" cx="654.1" cy="616.08" r="9.2" style="fill:#ccc; stroke-width:0px;" /><circle id="SPH09152" cx="654.61" cy="639.46" r="9.2" style="fill:#ccc; stroke-width:0px;" /><circle id="SPH09153" cx="655.1" cy="662.85" r="9.2" style="fill:#ccc; stroke-width:0px;" /><circle id="SPH09154" cx="654.6" cy="686.24" r="9.2" style="fill:#ccc; stroke-width:0px;" /><circle id="SPH09155" cx="654.1" cy="709.59" r="9.2" style="fill:#ccc; stroke-width:0px;" /><circle id="SPH09156" cx="653.6" cy="732.92" r="9.2" style="fill:#ccc; stroke-width:0px;" /><circle id="SPH09157" cx="653.09" cy="756.27" r="9.2" style="fill:#ccc; stroke-width:0px;" /><circle id="SPH09158" cx="652.59" cy="779.6" r="9.2" style="fill:#ccc; stroke-width:0px;" /><circle id="SPH09159" cx="652.09" cy="802.94" r="9.2" style="fill:#ccc; stroke-width:0px;" /><circle id="SPH09160" cx="651.59" cy="826.29" r="9.2" style="fill:#ccc; stroke-width:0px;" /><circle id="SPH09161" cx="650.19" cy="849.62" r="9.2" style="fill:#ccc; stroke-width:0px;" /><circle id="SPH09162" cx="648.68" cy="872.96" r="9.2" style="fill:#ccc; stroke-width:0px;" /><circle id="SPH09163" cx="647.17" cy="896.29" r="9.2" style="fill:#ccc; stroke-width:0px;" /><circle id="SPH09164" cx="686.66" cy="426.12" r="9.2" style="fill:#ccc; stroke-width:0px;" /><circle id="SPH09165" cx="688.19" cy="449.76" r="9.2" style="fill:#ccc; stroke-width:0px;" /><circle id="SPH09166" cx="689.71" cy="473.4" r="9.2" style="fill:#ccc; stroke-width:0px;" /><circle id="SPH09167" cx="691.15" cy="497.04" r="9.2" style="fill:#ccc; stroke-width:0px;" /><circle id="SPH09168" cx="691.66" cy="520.73" r="9.2" style="fill:#ccc; stroke-width:0px;" /><circle id="SPH09169" cx="692.17" cy="544.41" r="9.2" style="fill:#ccc; stroke-width:0px;" /><circle id="SPH09170" cx="692.68" cy="568.08" r="9.2" style="fill:#ccc; stroke-width:0px;" /><circle id="SPH09171" cx="693.19" cy="591.76" r="9.2" style="fill:#ccc; stroke-width:0px;" /><circle id="SPH09172" cx="693.7" cy="615.45" r="9.2" style="fill:#ccc; stroke-width:0px;" /><circle id="SPH09173" cx="694.21" cy="639.13" r="9.2" style="fill:#ccc; stroke-width:0px;" /><circle id="SPH09174" cx="694.72" cy="662.81" r="9.2" style="fill:#ccc; stroke-width:0px;" /><circle id="SPH09175" cx="694.21" cy="686.5" r="9.2" style="fill:#ccc; stroke-width:0px;" /><circle id="SPH09176" cx="693.69" cy="710.2" r="9.2" style="fill:#ccc; stroke-width:0px;" /><circle id="SPH09177" cx="693.19" cy="733.88" r="9.2" style="fill:#ccc; stroke-width:0px;" /><circle id="SPH09178" cx="692.68" cy="757.54" r="9.2" style="fill:#ccc; stroke-width:0px;" /><circle id="SPH09179" cx="692.17" cy="781.2" r="9.2" style="fill:#ccc; stroke-width:0px;" /><circle id="SPH09180" cx="691.66" cy="804.87" r="9.2" style="fill:#ccc; stroke-width:0px;" /><circle id="SPH09181" cx="691.15" cy="828.52" r="9.2" style="fill:#ccc; stroke-width:0px;" /><circle id="SPH09182" cx="689.71" cy="852.16" r="9.2" style="fill:#ccc; stroke-width:0px;" /><circle id="SPH09183" cx="688.18" cy="875.8" r="9.2" style="fill:#ccc; stroke-width:0px;" /><circle id="SPH09184" cx="686.65" cy="899.44" r="9.2" style="fill:#ccc; stroke-width:0px;" /><circle id="SPH09185" cx="726.14" cy="423" r="9.2" style="fill:#ccc; stroke-width:0px;" /><circle id="SPH09186" cx="727.69" cy="446.96" r="9.2" style="fill:#ccc; stroke-width:0px;" /><circle id="SPH09187" cx="729.24" cy="470.91" r="9.2" style="fill:#ccc; stroke-width:0px;" /><circle id="SPH09188" cx="730.72" cy="494.87" r="9.2" style="fill:#ccc; stroke-width:0px;" /><circle id="SPH09189" cx="731.23" cy="518.88" r="9.2" style="fill:#ccc; stroke-width:0px;" /><circle id="SPH09190" cx="731.75" cy="542.87" r="9.2" style="fill:#ccc; stroke-width:0px;" /><circle id="SPH09191" cx="732.26" cy="566.85" r="9.2" style="fill:#ccc; stroke-width:0px;" /><circle id="SPH09192" cx="732.78" cy="590.84" r="9.2" style="fill:#ccc; stroke-width:0px;" /><circle id="SPH09193" cx="733.29" cy="614.83" r="9.2" style="fill:#ccc; stroke-width:0px;" /><circle id="SPH09194" cx="733.81" cy="638.81" r="9.2" style="fill:#ccc; stroke-width:0px;" /><circle id="SPH09195" cx="734.33" cy="662.79" r="9.2" style="fill:#ccc; stroke-width:0px;" /><circle id="SPH09196" cx="733.81" cy="686.76" r="9.2" style="fill:#ccc; stroke-width:0px;" /><circle id="SPH09197" cx="733.29" cy="710.8" r="9.2" style="fill:#ccc; stroke-width:0px;" /><circle id="SPH09198" cx="732.77" cy="734.83" r="9.2" style="fill:#ccc; stroke-width:0px;" /><circle id="SPH09199" cx="732.26" cy="758.83" r="9.2" style="fill:#ccc; stroke-width:0px;" /><circle id="SPH09200" cx="731.74" cy="782.82" r="9.2" style="fill:#ccc; stroke-width:0px;" /><circle id="SPH09201" cx="731.23" cy="806.8" r="9.2" style="fill:#ccc; stroke-width:0px;" /><circle id="SPH09202" cx="730.71" cy="830.78" r="9.2" style="fill:#ccc; stroke-width:0px;" /><circle id="SPH09203" cx="729.22" cy="854.73" r="9.2" style="fill:#ccc; stroke-width:0px;" /><circle id="SPH09204" cx="727.68" cy="878.68" r="9.2" style="fill:#ccc; stroke-width:0px;" /><circle id="SPH09205" cx="726.13" cy="902.64" r="9.2" style="fill:#ccc; stroke-width:0px;" /></g></svg>