<svg id="Layer_1" viewBox="0 0 1697.6 1405.17" xmlns="http://www.w3.org/2000/svg"><g id="back"><g id="back-2"><path id="sphere" d="M2300.61-1312.61c0-1528.34-1241.46-2769.81-2769.81-2769.81s-2769.81,1241.47-2769.81,2769.81S-1997.55,1457.2-469.2,1457.2h0c1528.34,0,2769.81-1241.46,2769.81-2769.81Z" style="fill:#f2f2f2; stroke:#ddd; stroke-miterlimit:10; stroke-width:3px;" /></g><g id="sectors"><path id="_403" d="M411.15,960.73c58.27,35.71,116.55,71.43,174.84,107.15,267.98-119.46,512.21-282.18,723.64-479.17-3.46-1.43-553.26-229.18-587.75-243.46-72.42,176.85-156.05,348.07-250.14,512.72h0c-19.74,34.55-39.95,68.8-60.6,102.76h.01Z" style="fill:#fff; stroke:#ddd; stroke-miterlimit:10; stroke-width:9px;" /><path id="_302" d="M-134.12,1272.79c-150.97-109.68-301.93-219.36-452.89-329.05,107.7-130.76,206.03-269.24,294.17-414.41,234.61,143.77,644.21,394.78,878.83,538.55-105.47,57.12-177.69,72.59-323.11,120.12h0c-128.51,38.04-261.12,66.58-397,84.79Z" style="fill:#fff; stroke:#ddd; stroke-miterlimit:10; stroke-width:9px;" /><path id="_303" d="M411.01,960.65c-234.62-143.77-469.24-287.55-703.85-431.32C-196.25,370.23-111.92,203.1-40.94,29.28c254.22,105.3,508.45,210.61,762.68,315.91-72.41,176.85-156.04,348.06-250.14,512.71h0c-19.74,34.55-39.94,68.8-60.59,102.75h0Z" style="fill:#fff; stroke:#ddd; stroke-miterlimit:10; stroke-width:9px;" /><path id="_304" d="M324.31-457.54c-12.93,55.22-27.11,110.15-42.54,164.75-75.95,20.35-151.89,40.7-227.85,61.05-13.04,40.79-26.83,81.4-41.39,121.81C-4.35-63.07-22.18-16.66-40.95,29.28c254.22,105.3,508.45,210.61,762.68,315.91,23.71-57.9,46.22-116.4,67.49-175.48,56.99-158.26,104.57-318.99,142.74-481.38h0c-202.56-48.63-405.12-97.26-607.66-145.88h0Z" style="fill:#fff; stroke:#ddd; stroke-miterlimit:10; stroke-width:9px;" /><path id="_404" d="M721.87,345.23c23.71-57.89,46.21-116.38,67.48-175.44,3.56-9.8,7.11-19.6,10.59-29.43,35.18-99.44,66.58-200.11,94.18-301.9,2.86-10.54,5.62-21.11,8.4-31.66,10.42-39.37,20.28-78.85,29.58-118.43,301.19,72.32,602.4,144.63,903.61,216.94-83.29,156.03-182.08,302.68-294.32,437.95-105.11,114.41-204.72,222.02-231.76,245.45l-10.34-4.3s-384.96-159.46-577.42-239.18h0Z" style="fill:#fff; stroke:#ddd; stroke-miterlimit:10; stroke-width:9px;" /></g></g><g id="Seats"><circle id="SPH02947" cx="1099.42" cy="546.86" r="9.2" style="fill:#ccc; stroke-width:0px;" /><circle id="SPH02948" cx="1089.83" cy="568.86" r="9.2" style="fill:#ccc; stroke-width:0px;" /><circle id="SPH02949" cx="1080.25" cy="590.86" r="9.2" style="fill:#ccc; stroke-width:0px;" /><circle id="SPH02950" cx="1070.66" cy="612.87" r="9.2" style="fill:#ccc; stroke-width:0px;" /><circle id="SPH02951" cx="1061.07" cy="634.88" r="9.2" style="fill:#ccc; stroke-width:0px;" /><circle id="SPH02952" cx="1051.48" cy="656.88" r="9.2" style="fill:#ccc; stroke-width:0px;" /><circle id="SPH02953" cx="1041.9" cy="678.89" r="9.2" style="fill:#ccc; stroke-width:0px;" /><circle id="SPH02954" cx="1032.24" cy="700.86" r="9.2" transform="translate(175.08 1607.51) rotate(-80.78)" style="fill:#ccc; stroke-width:0px;" /><circle id="SPH02955" cx="1021.71" cy="722.43" r="9.2" style="fill:#ccc; stroke-width:0px;" /><circle id="SPH02956" cx="1011.18" cy="744.01" r="9.2" style="fill:#ccc; stroke-width:0px;" /><circle id="SPH02957" cx="1000.64" cy="765.58" r="9.2" style="fill:#ccc; stroke-width:0px;" /><circle id="SPH02958" cx="990.1" cy="787.15" r="9.2" style="fill:#ccc; stroke-width:0px;" /><circle id="SPH02959" cx="1136.06" cy="561.93" r="9.2" style="fill:#ccc; stroke-width:0px;" /><circle id="SPH02960" cx="1126.46" cy="583.93" r="9.2" style="fill:#ccc; stroke-width:0px;" /><circle id="SPH02961" cx="1116.88" cy="605.93" r="9.2" style="fill:#ccc; stroke-width:0px;" /><circle id="SPH02962" cx="1107.3" cy="627.93" r="9.2" style="fill:#ccc; stroke-width:0px;" /><circle id="SPH02963" cx="1097.7" cy="649.93" r="9.2" style="fill:#ccc; stroke-width:0px;" /><circle id="SPH02964" cx="1088.12" cy="671.93" r="9.2" style="fill:#ccc; stroke-width:0px;" /><circle id="SPH02965" cx="1078.54" cy="693.93" r="9.2" style="fill:#ccc; stroke-width:0px;" /><circle id="SPH02966" cx="1068.95" cy="715.93" r="9.2" style="fill:#ccc; stroke-width:0px;" /><circle id="SPH02967" cx="1058.42" cy="737.49" r="9.2" style="fill:#ccc; stroke-width:0px;" /><circle id="SPH02968" cx="1172.7" cy="576.94" r="9.2" style="fill:#ccc; stroke-width:0px;" /><circle id="SPH02969" cx="1163.12" cy="598.94" r="9.2" style="fill:#ccc; stroke-width:0px;" /><circle id="SPH02970" cx="1153.53" cy="620.95" r="9.2" style="fill:#ccc; stroke-width:0px;" /><circle id="SPH02971" cx="1143.94" cy="642.95" r="9.2" style="fill:#ccc; stroke-width:0px;" /><circle id="SPH02972" cx="1134.36" cy="664.95" r="9.2" style="fill:#ccc; stroke-width:0px;" /><circle id="SPH02973" cx="1124.77" cy="686.95" r="9.2" style="fill:#ccc; stroke-width:0px;" /><circle id="SPH02974" cx="713.27" cy="441.73" r="9.2" style="fill:#ccc; stroke-width:0px;" /><circle id="SPH02975" cx="703.99" cy="463.02" r="9.2" style="fill:#ccc; stroke-width:0px;" /><circle id="SPH02976" cx="694.71" cy="484.33" r="9.2" style="fill:#ccc; stroke-width:0px;" /><circle id="SPH02977" cx="685.43" cy="505.63" r="9.2" style="fill:#ccc; stroke-width:0px;" /><circle id="SPH02978" cx="676.15" cy="526.93" r="9.2" style="fill:#ccc; stroke-width:0px;" /><circle id="SPH02979" cx="666.23" cy="547.93" r="9.2" style="fill:#ccc; stroke-width:0px;" /><circle id="SPH02980" cx="656.03" cy="568.81" r="9.2" style="fill:#ccc; stroke-width:0px;" /><circle id="SPH02981" cx="645.83" cy="589.7" r="9.2" style="fill:#ccc; stroke-width:0px;" /><circle id="SPH02982" cx="635.64" cy="610.57" r="9.2" style="fill:#ccc; stroke-width:0px;" /><circle id="SPH02983" cx="625.44" cy="631.46" r="9.2" style="fill:#ccc; stroke-width:0px;" /><circle id="SPH02984" cx="615.25" cy="652.33" r="9.2" style="fill:#ccc; stroke-width:0px;" /><circle id="SPH02985" cx="605.05" cy="673.21" r="9.2" style="fill:#ccc; stroke-width:0px;" /><circle id="SPH02986" cx="594.86" cy="694.09" r="9.2" style="fill:#ccc; stroke-width:0px;" /><circle id="SPH02987" cx="584.22" cy="714.73" r="9.2" style="fill:#ccc; stroke-width:0px;" /><circle id="SPH02988" cx="573.13" cy="735.14" r="9.2" style="fill:#ccc; stroke-width:0px;" /><circle id="SPH02989" cx="562.04" cy="755.56" r="9.2" style="fill:#ccc; stroke-width:0px;" /><circle id="SPH02990" cx="550.95" cy="775.98" r="9.2" style="fill:#ccc; stroke-width:0px;" /><circle id="SPH02991" cx="539.86" cy="796.4" r="9.2" style="fill:#ccc; stroke-width:0px;" /><circle id="SPH02992" cx="528.78" cy="816.81" r="9.2" style="fill:#ccc; stroke-width:0px;" /><circle id="SPH02993" cx="517.68" cy="837.24" r="9.2" style="fill:#ccc; stroke-width:0px;" /><circle id="SPH02994" cx="506.6" cy="857.65" r="9.2" transform="translate(-421.12 1220.33) rotate(-80.78)" style="fill:#ccc; stroke-width:0px;" /><circle id="SPH02995" cx="495.24" cy="877.9" r="9.2" style="fill:#ccc; stroke-width:0px;" /><circle id="SPH02996" cx="483.28" cy="897.81" r="9.2" style="fill:#ccc; stroke-width:0px;" /><circle id="SPH02997" cx="471.32" cy="917.73" r="9.2" style="fill:#ccc; stroke-width:0px;" /><circle id="SPH02998" cx="459.36" cy="937.65" r="9.2" style="fill:#ccc; stroke-width:0px;" /><circle id="SPH02999" cx="749.86" cy="456.89" r="9.2" style="fill:#ccc; stroke-width:0px;" /><circle id="SPH03000" cx="740.48" cy="478.43" r="9.2" style="fill:#ccc; stroke-width:0px;" /><circle id="SPH03001" cx="731.09" cy="499.97" r="9.2" style="fill:#ccc; stroke-width:0px;" /><circle id="SPH03002" cx="721.71" cy="521.5" r="9.2" style="fill:#ccc; stroke-width:0px;" /><circle id="SPH03003" cx="712.32" cy="543.04" r="9.2" style="fill:#ccc; stroke-width:0px;" /><circle id="SPH03004" cx="702.31" cy="564.29" r="9.2" style="fill:#ccc; stroke-width:0px;" /><circle id="SPH03005" cx="692" cy="585.41" r="9.2" style="fill:#ccc; stroke-width:0px;" /><circle id="SPH03006" cx="681.69" cy="606.52" r="9.2" style="fill:#ccc; stroke-width:0px;" /><circle id="SPH03007" cx="671.38" cy="627.63" r="9.2" style="fill:#ccc; stroke-width:0px;" /><circle id="SPH03008" cx="661.07" cy="648.74" r="9.2" style="fill:#ccc; stroke-width:0px;" /><circle id="SPH03009" cx="650.76" cy="669.85" r="9.2" style="fill:#ccc; stroke-width:0px;" /><circle id="SPH03010" cx="640.46" cy="690.94" r="9.2" style="fill:#ccc; stroke-width:0px;" /><circle id="SPH03011" cx="630.15" cy="712.05" r="9.2" style="fill:#ccc; stroke-width:0px;" /><circle id="SPH03012" cx="619.39" cy="732.94" r="9.2" style="fill:#ccc; stroke-width:0px;" /><circle id="SPH03013" cx="608.18" cy="753.59" r="9.2" style="fill:#ccc; stroke-width:0px;" /><circle id="SPH03014" cx="596.96" cy="774.25" r="9.2" style="fill:#ccc; stroke-width:0px;" /><circle id="SPH03015" cx="585.74" cy="794.89" r="9.2" style="fill:#ccc; stroke-width:0px;" /><circle id="SPH03016" cx="574.53" cy="815.55" r="9.2" style="fill:#ccc; stroke-width:0px;" /><circle id="SPH03017" cx="563.3" cy="836.2" r="9.2" style="fill:#ccc; stroke-width:0px;" /><circle id="SPH03018" cx="552.09" cy="856.85" r="9.2" style="fill:#ccc; stroke-width:0px;" /><circle id="SPH03019" cx="540.88" cy="877.5" r="9.2" style="fill:#ccc; stroke-width:0px;" /><circle id="SPH03020" cx="529.38" cy="897.98" r="9.2" style="fill:#ccc; stroke-width:0px;" /><circle id="SPH03021" cx="517.26" cy="918.14" r="9.2" style="fill:#ccc; stroke-width:0px;" /><circle id="SPH03022" cx="505.18" cy="938.29" r="9.2" style="fill:#ccc; stroke-width:0px;" /><circle id="SPH03023" cx="493.08" cy="958.42" r="9.2" style="fill:#ccc; stroke-width:0px;" /><circle id="SPH03024" cx="806.58" cy="425.85" r="9.2" style="fill:#ccc; stroke-width:0px;" /><circle id="SPH03025" cx="797.06" cy="447.73" r="9.2" style="fill:#ccc; stroke-width:0px;" /><circle id="SPH03026" cx="787.52" cy="469.61" r="9.2" style="fill:#ccc; stroke-width:0px;" /><circle id="SPH03027" cx="777.98" cy="491.49" r="9.2" style="fill:#ccc; stroke-width:0px;" /><circle id="SPH03028" cx="768.46" cy="513.36" r="9.2" style="fill:#ccc; stroke-width:0px;" /><circle id="SPH03029" cx="758.92" cy="535.24" r="9.2" style="fill:#ccc; stroke-width:0px;" /><circle id="SPH03030" cx="749.38" cy="557.12" r="9.2" style="fill:#ccc; stroke-width:0px;" /><circle id="SPH03031" cx="739.31" cy="578.76" r="9.2" style="fill:#ccc; stroke-width:0px;" /><circle id="SPH03032" cx="728.84" cy="600.21" r="9.2" style="fill:#ccc; stroke-width:0px;" /><circle id="SPH03033" cx="718.37" cy="621.65" r="9.2" style="fill:#ccc; stroke-width:0px;" /><circle id="SPH03034" cx="707.9" cy="643.1" r="9.2" style="fill:#ccc; stroke-width:0px;" /><circle id="SPH03035" cx="697.42" cy="664.54" r="9.2" style="fill:#ccc; stroke-width:0px;" /><circle id="SPH03036" cx="686.94" cy="686.01" r="9.2" style="fill:#ccc; stroke-width:0px;" /><circle id="SPH03037" cx="676.46" cy="707.45" r="9.2" style="fill:#ccc; stroke-width:0px;" /><circle id="SPH03038" cx="665.98" cy="728.92" r="9.2" style="fill:#ccc; stroke-width:0px;" /><circle id="SPH03039" cx="655.1" cy="750.16" r="9.2" style="fill:#ccc; stroke-width:0px;" /><circle id="SPH03040" cx="643.71" cy="771.13" r="9.2" style="fill:#ccc; stroke-width:0px;" /><circle id="SPH03041" cx="632.32" cy="792.1" r="9.2" style="fill:#ccc; stroke-width:0px;" /><circle id="SPH03042" cx="620.94" cy="813.08" r="9.2" style="fill:#ccc; stroke-width:0px;" /><circle id="SPH03043" cx="609.54" cy="834.05" r="9.2" style="fill:#ccc; stroke-width:0px;" /><circle id="SPH03044" cx="598.14" cy="855.03" r="9.2" style="fill:#ccc; stroke-width:0px;" /><circle id="SPH03045" cx="586.75" cy="876.01" r="9.2" style="fill:#ccc; stroke-width:0px;" /><circle id="SPH03046" cx="575.36" cy="896.98" r="9.2" style="fill:#ccc; stroke-width:0px;" /><circle id="SPH03047" cx="563.67" cy="917.79" r="9.2" style="fill:#ccc; stroke-width:0px;" /><circle id="SPH03048" cx="551.38" cy="938.25" r="9.2" style="fill:#ccc; stroke-width:0px;" /><circle id="SPH03049" cx="539.1" cy="958.7" r="9.2" style="fill:#ccc; stroke-width:0px;" /><circle id="SPH03050" cx="526.82" cy="979.16" r="9.2" style="fill:#ccc; stroke-width:0px;" /><circle id="SPH03051" cx="843.18" cy="441.01" r="9.2" style="fill:#ccc; stroke-width:0px;" /><circle id="SPH03052" cx="833.58" cy="463.01" r="9.2" style="fill:#ccc; stroke-width:0px;" /><circle id="SPH03053" cx="823.99" cy="485.02" r="9.2" style="fill:#ccc; stroke-width:0px;" /><circle id="SPH03054" cx="814.41" cy="507.02" r="9.2" style="fill:#ccc; stroke-width:0px;" /><circle id="SPH03055" cx="804.82" cy="529.03" r="9.2" style="fill:#ccc; stroke-width:0px;" /><circle id="SPH03056" cx="795.23" cy="551.03" r="9.2" style="fill:#ccc; stroke-width:0px;" /><circle id="SPH03057" cx="785.65" cy="573.03" r="9.2" style="fill:#ccc; stroke-width:0px;" /><circle id="SPH03058" cx="775.55" cy="594.8" r="9.2" style="fill:#ccc; stroke-width:0px;" /><circle id="SPH03059" cx="765.02" cy="616.36" r="9.2" style="fill:#ccc; stroke-width:0px;" /><circle id="SPH03060" cx="754.5" cy="637.92" r="9.2" style="fill:#ccc; stroke-width:0px;" /><circle id="SPH03061" cx="743.96" cy="659.49" r="9.2" style="fill:#ccc; stroke-width:0px;" /><circle id="SPH03062" cx="733.42" cy="681.05" r="9.2" style="fill:#ccc; stroke-width:0px;" /><circle id="SPH03063" cx="722.9" cy="702.61" r="9.2" style="fill:#ccc; stroke-width:0px;" /><circle id="SPH03064" cx="712.38" cy="724.16" r="9.2" style="fill:#ccc; stroke-width:0px;" /><circle id="SPH03065" cx="701.85" cy="745.72" r="9.2" style="fill:#ccc; stroke-width:0px;" /><circle id="SPH03066" cx="690.97" cy="767.09" r="9.2" style="fill:#ccc; stroke-width:0px;" /><circle id="SPH03067" cx="679.52" cy="788.17" r="9.2" style="fill:#ccc; stroke-width:0px;" /><circle id="SPH03068" cx="668.06" cy="809.28" r="9.2" style="fill:#ccc; stroke-width:0px;" /><circle id="SPH03069" cx="656.61" cy="830.37" r="9.2" style="fill:#ccc; stroke-width:0px;" /><circle id="SPH03070" cx="645.15" cy="851.45" r="9.2" style="fill:#ccc; stroke-width:0px;" /><circle id="SPH03071" cx="633.7" cy="872.54" r="9.2" style="fill:#ccc; stroke-width:0px;" /><circle id="SPH03072" cx="622.24" cy="893.64" r="9.2" style="fill:#ccc; stroke-width:0px;" /><circle id="SPH03073" cx="610.78" cy="914.73" r="9.2" style="fill:#ccc; stroke-width:0px;" /><circle id="SPH03074" cx="599.11" cy="935.69" r="9.2" style="fill:#ccc; stroke-width:0px;" /><circle id="SPH03075" cx="586.76" cy="956.25" r="9.2" style="fill:#ccc; stroke-width:0px;" /><circle id="SPH03076" cx="574.41" cy="976.83" r="9.2" style="fill:#ccc; stroke-width:0px;" /><circle id="SPH03077" cx="879.76" cy="456.17" r="9.2" style="fill:#ccc; stroke-width:0px;" /><circle id="SPH03078" cx="870.18" cy="478.18" r="9.2" style="fill:#ccc; stroke-width:0px;" /><circle id="SPH03079" cx="860.59" cy="500.18" r="9.2" style="fill:#ccc; stroke-width:0px;" /><circle id="SPH03080" cx="851" cy="522.19" r="9.2" style="fill:#ccc; stroke-width:0px;" /><circle id="SPH03081" cx="841.42" cy="544.18" r="9.2" style="fill:#ccc; stroke-width:0px;" /><circle id="SPH03082" cx="831.82" cy="566.19" r="9.2" style="fill:#ccc; stroke-width:0px;" /><circle id="SPH03083" cx="822.24" cy="588.19" r="9.2" style="fill:#ccc; stroke-width:0px;" /><circle id="SPH03084" cx="812.21" cy="609.98" r="9.2" style="fill:#ccc; stroke-width:0px;" /><circle id="SPH03085" cx="801.67" cy="631.55" r="9.2" style="fill:#ccc; stroke-width:0px;" /><circle id="SPH03086" cx="791.14" cy="653.12" r="9.2" style="fill:#ccc; stroke-width:0px;" /><circle id="SPH03087" cx="780.61" cy="674.68" r="9.2" style="fill:#ccc; stroke-width:0px;" /><circle id="SPH03088" cx="770.08" cy="696.25" r="9.2" style="fill:#ccc; stroke-width:0px;" /><circle id="SPH03089" cx="759.55" cy="717.8" r="9.2" style="fill:#ccc; stroke-width:0px;" /><circle id="SPH03090" cx="749.02" cy="739.36" r="9.2" style="fill:#ccc; stroke-width:0px;" /><circle id="SPH03091" cx="738.5" cy="760.91" r="9.2" style="fill:#ccc; stroke-width:0px;" /><circle id="SPH03092" cx="727.74" cy="782.37" r="9.2" style="fill:#ccc; stroke-width:0px;" /><circle id="SPH03093" cx="716.28" cy="803.47" r="9.2" style="fill:#ccc; stroke-width:0px;" /><circle id="SPH03094" cx="704.82" cy="824.56" r="9.2" style="fill:#ccc; stroke-width:0px;" /><circle id="SPH03095" cx="693.36" cy="845.66" r="9.2" style="fill:#ccc; stroke-width:0px;" /><circle id="SPH03096" cx="681.9" cy="866.76" r="9.2" style="fill:#ccc; stroke-width:0px;" /><circle id="SPH03097" cx="670.45" cy="887.84" r="9.2" style="fill:#ccc; stroke-width:0px;" /><circle id="SPH03098" cx="658.99" cy="908.93" r="9.2" style="fill:#ccc; stroke-width:0px;" /><circle id="SPH03099" cx="647.54" cy="930.02" r="9.2" style="fill:#ccc; stroke-width:0px;" /><circle id="SPH03100" cx="636.05" cy="951.09" r="9.2" style="fill:#ccc; stroke-width:0px;" /><circle id="SPH03101" cx="916.35" cy="471.34" r="9.2" style="fill:#ccc; stroke-width:0px;" /><circle id="SPH03102" cx="906.77" cy="493.33" r="9.2" style="fill:#ccc; stroke-width:0px;" /><circle id="SPH03103" cx="897.18" cy="515.34" r="9.2" style="fill:#ccc; stroke-width:0px;" /><circle id="SPH03104" cx="887.59" cy="537.34" r="9.2" style="fill:#ccc; stroke-width:0px;" /><circle id="SPH03105" cx="878.01" cy="559.33" r="9.2" style="fill:#ccc; stroke-width:0px;" /><circle id="SPH03106" cx="868.42" cy="581.34" r="9.2" style="fill:#ccc; stroke-width:0px;" /><circle id="SPH03107" cx="858.82" cy="603.35" r="9.2" style="fill:#ccc; stroke-width:0px;" /><circle id="SPH03108" cx="848.86" cy="625.17" r="9.2" style="fill:#ccc; stroke-width:0px;" /><circle id="SPH03109" cx="838.33" cy="646.74" r="9.2" style="fill:#ccc; stroke-width:0px;" /><circle id="SPH03110" cx="827.79" cy="668.3" r="9.2" style="fill:#ccc; stroke-width:0px;" /><circle id="SPH03111" cx="817.26" cy="689.87" r="9.2" style="fill:#ccc; stroke-width:0px;" /><circle id="SPH03112" cx="806.74" cy="711.43" r="9.2" style="fill:#ccc; stroke-width:0px;" /><circle id="SPH03113" cx="796.19" cy="733.01" r="9.2" style="fill:#ccc; stroke-width:0px;" /><circle id="SPH03114" cx="785.66" cy="754.6" r="9.2" style="fill:#ccc; stroke-width:0px;" /><circle id="SPH03115" cx="775.11" cy="776.17" r="9.2" style="fill:#ccc; stroke-width:0px;" /><circle id="SPH03116" cx="764.47" cy="797.71" r="9.2" style="fill:#ccc; stroke-width:0px;" /><circle id="SPH03117" cx="753.02" cy="818.79" r="9.2" style="fill:#ccc; stroke-width:0px;" /><circle id="SPH03118" cx="741.57" cy="839.87" r="9.2" style="fill:#ccc; stroke-width:0px;" /><circle id="SPH03119" cx="730.12" cy="860.95" r="9.2" style="fill:#ccc; stroke-width:0px;" /><circle id="SPH03120" cx="718.66" cy="882.05" r="9.2" style="fill:#ccc; stroke-width:0px;" /><circle id="SPH03121" cx="707.21" cy="903.13" r="9.2" style="fill:#ccc; stroke-width:0px;" /><circle id="SPH03122" cx="695.75" cy="924.22" r="9.2" style="fill:#ccc; stroke-width:0px;" /><circle id="SPH03123" cx="952.94" cy="486.49" r="9.2" style="fill:#ccc; stroke-width:0px;" /><circle id="SPH03124" cx="943.36" cy="508.49" r="9.2" style="fill:#ccc; stroke-width:0px;" /><circle id="SPH03125" cx="933.77" cy="530.49" r="9.2" style="fill:#ccc; stroke-width:0px;" /><circle id="SPH03126" cx="924.18" cy="552.49" r="9.2" style="fill:#ccc; stroke-width:0px;" /><circle id="SPH03127" cx="914.6" cy="574.49" r="9.2" style="fill:#ccc; stroke-width:0px;" /><circle id="SPH03128" cx="905.02" cy="596.49" r="9.2" style="fill:#ccc; stroke-width:0px;" /><circle id="SPH03129" cx="895.42" cy="618.49" r="9.2" style="fill:#ccc; stroke-width:0px;" /><circle id="SPH03130" cx="885.51" cy="640.36" r="9.2" style="fill:#ccc; stroke-width:0px;" /><circle id="SPH03131" cx="874.98" cy="661.93" r="9.2" style="fill:#ccc; stroke-width:0px;" /><circle id="SPH03132" cx="864.45" cy="683.49" r="9.2" style="fill:#ccc; stroke-width:0px;" /><circle id="SPH03133" cx="853.91" cy="705.07" r="9.2" style="fill:#ccc; stroke-width:0px;" /><circle id="SPH03134" cx="843.38" cy="726.64" r="9.2" style="fill:#ccc; stroke-width:0px;" /><circle id="SPH03135" cx="832.86" cy="748.18" r="9.2" style="fill:#ccc; stroke-width:0px;" /><circle id="SPH03136" cx="822.33" cy="769.74" r="9.2" style="fill:#ccc; stroke-width:0px;" /><circle id="SPH03137" cx="811.8" cy="791.29" r="9.2" style="fill:#ccc; stroke-width:0px;" /><circle id="SPH03138" cx="801.27" cy="812.85" r="9.2" style="fill:#ccc; stroke-width:0px;" /><circle id="SPH03139" cx="789.85" cy="833.95" r="9.2" style="fill:#ccc; stroke-width:0px;" /><circle id="SPH03140" cx="778.39" cy="855.04" r="9.2" style="fill:#ccc; stroke-width:0px;" /><circle id="SPH03141" cx="766.94" cy="876.12" r="9.2" style="fill:#ccc; stroke-width:0px;" /><circle id="SPH03142" cx="755.49" cy="897.21" r="9.2" style="fill:#ccc; stroke-width:0px;" /><circle id="SPH03143" cx="989.54" cy="501.63" r="9.2" style="fill:#ccc; stroke-width:0px;" /><circle id="SPH03144" cx="979.95" cy="523.64" r="9.2" style="fill:#ccc; stroke-width:0px;" /><circle id="SPH03145" cx="970.37" cy="545.64" r="9.2" style="fill:#ccc; stroke-width:0px;" /><circle id="SPH03146" cx="960.78" cy="567.64" r="9.2" style="fill:#ccc; stroke-width:0px;" /><circle id="SPH03147" cx="951.19" cy="589.64" r="9.2" style="fill:#ccc; stroke-width:0px;" /><circle id="SPH03148" cx="941.61" cy="611.65" r="9.2" style="fill:#ccc; stroke-width:0px;" /><circle id="SPH03149" cx="932.02" cy="633.65" r="9.2" style="fill:#ccc; stroke-width:0px;" /><circle id="SPH03150" cx="922.17" cy="655.54" r="9.2" style="fill:#ccc; stroke-width:0px;" /><circle id="SPH03151" cx="911.63" cy="677.11" r="9.2" style="fill:#ccc; stroke-width:0px;" /><circle id="SPH03152" cx="901.1" cy="698.69" r="9.2" style="fill:#ccc; stroke-width:0px;" /><circle id="SPH03153" cx="890.57" cy="720.25" r="9.2" style="fill:#ccc; stroke-width:0px;" /><circle id="SPH03154" cx="880.03" cy="741.82" r="9.2" style="fill:#ccc; stroke-width:0px;" /><circle id="SPH03155" cx="869.5" cy="763.38" r="9.2" style="fill:#ccc; stroke-width:0px;" /><circle id="SPH03156" cx="858.97" cy="784.95" r="9.2" style="fill:#ccc; stroke-width:0px;" /><circle id="SPH03157" cx="848.42" cy="806.53" r="9.2" style="fill:#ccc; stroke-width:0px;" /><circle id="SPH03158" cx="837.89" cy="828.12" r="9.2" style="fill:#ccc; stroke-width:0px;" /><circle id="SPH03159" cx="826.58" cy="849.28" r="9.2" style="fill:#ccc; stroke-width:0px;" /><circle id="SPH03160" cx="1026.14" cy="516.77" r="9.2" transform="translate(351.67 1446.88) rotate(-80.78)" style="fill:#ccc; stroke-width:0px;" /><circle id="SPH03161" cx="1016.56" cy="538.77" r="9.2" style="fill:#ccc; stroke-width:0px;" /><circle id="SPH03162" cx="1006.97" cy="560.77" r="9.2" style="fill:#ccc; stroke-width:0px;" /><circle id="SPH03163" cx="997.38" cy="582.77" r="9.2" style="fill:#ccc; stroke-width:0px;" /><circle id="SPH03164" cx="987.79" cy="604.77" r="9.2" style="fill:#ccc; stroke-width:0px;" /><circle id="SPH03165" cx="978.21" cy="626.77" r="9.2" style="fill:#ccc; stroke-width:0px;" /><circle id="SPH03166" cx="968.62" cy="648.78" r="9.2" style="fill:#ccc; stroke-width:0px;" /><circle id="SPH03167" cx="958.84" cy="670.69" r="9.2" style="fill:#ccc; stroke-width:0px;" /><circle id="SPH03168" cx="948.3" cy="692.26" r="9.2" style="fill:#ccc; stroke-width:0px;" /><circle id="SPH03169" cx="937.78" cy="713.81" r="9.2" style="fill:#ccc; stroke-width:0px;" /><circle id="SPH03170" cx="927.25" cy="735.37" r="9.2" style="fill:#ccc; stroke-width:0px;" /><circle id="SPH03171" cx="916.72" cy="756.93" r="9.2" style="fill:#ccc; stroke-width:0px;" /><circle id="SPH03172" cx="906.18" cy="778.51" r="9.2" style="fill:#ccc; stroke-width:0px;" /><circle id="SPH03173" cx="895.65" cy="800.09" r="9.2" style="fill:#ccc; stroke-width:0px;" /><circle id="SPH03174" cx="885.1" cy="821.67" r="9.2" style="fill:#ccc; stroke-width:0px;" /><circle id="SPH03175" cx="1062.74" cy="531.91" r="9.2" style="fill:#ccc; stroke-width:0px;" /><circle id="SPH03176" cx="1053.15" cy="553.91" r="9.2" style="fill:#ccc; stroke-width:0px;" /><circle id="SPH03177" cx="1043.57" cy="575.92" r="9.2" style="fill:#ccc; stroke-width:0px;" /><circle id="SPH03178" cx="1033.98" cy="597.91" r="9.2" style="fill:#ccc; stroke-width:0px;" /><circle id="SPH03179" cx="1024.39" cy="619.91" r="9.2" transform="translate(248.4 1531.77) rotate(-80.78)" style="fill:#ccc; stroke-width:0px;" /><circle id="SPH03180" cx="1014.81" cy="641.91" r="9.2" style="fill:#ccc; stroke-width:0px;" /><circle id="SPH03181" cx="1005.22" cy="663.91" r="9.2" style="fill:#ccc; stroke-width:0px;" /><circle id="SPH03182" cx="995.5" cy="685.85" r="9.2" style="fill:#ccc; stroke-width:0px;" /><circle id="SPH03183" cx="984.98" cy="707.41" r="9.2" style="fill:#ccc; stroke-width:0px;" /><circle id="SPH03184" cx="974.45" cy="728.97" r="9.2" style="fill:#ccc; stroke-width:0px;" /><circle id="SPH03185" cx="963.91" cy="750.53" r="9.2" style="fill:#ccc; stroke-width:0px;" /><circle id="SPH03186" cx="953.38" cy="772.09" r="9.2" style="fill:#ccc; stroke-width:0px;" /><circle id="SPH03187" cx="942.85" cy="793.68" r="9.2" style="fill:#ccc; stroke-width:0px;" /><circle id="SPH03188" cx="932.3" cy="815.26" r="9.2" style="fill:#ccc; stroke-width:0px;" /><circle id="SPH03189" cx="921.77" cy="836.85" r="9.2" style="fill:#ccc; stroke-width:0px;" /><circle id="SPH03190" cx="911.22" cy="858.41" r="9.2" style="fill:#ccc; stroke-width:0px;" /></g></svg>