<?xml version="1.0" encoding="UTF-8"?><svg id="Layer_1" xmlns="http://www.w3.org/2000/svg" viewBox="0 0 8192 7680"><g id="back"><path id="sphere" d="M6865.31,3839.5c0-1528.34-1241.46-2769.81-2769.81-2769.81S1325.69,2311.16,1325.69,3839.5s1241.46,2769.81,2769.81,2769.81h0c1528.34,0,2769.81-1241.46,2769.81-2769.81Z" style="fill:#f2f2f2; stroke:#ddd; stroke-miterlimit:10; stroke-width:3px;"/><path d="M1758.88,3838.17c0,655.33,307.79,1239.54,786.53,1615.79,66.08,51.94,160.31,48.05,221.66-9.39,429.06-401.71,697.41-973.05,697.41-1606.4s-268.35-1204.69-697.41-1606.4c-61.36-57.44-155.58-61.33-221.66-9.39-478.74,376.25-786.53,960.46-786.53,1615.79h0Z" style="fill:#e5e5e5; stroke:#ddd; stroke-miterlimit:10; stroke-width:3px;"/></g><g id="others"><path d="M6675.17,3439.86s-.06,0-.16,0c-45.42-290.36-139.17-564.96-272.85-815.4-301.24,72.32-602.47,144.64-903.7,216.96.02.08.04.16.06.24-202.3,48.56-404.59,97.14-606.88,145.7,32.38,138.23,56.9,278.31,73.41,419.58,6.51,55.68,11.77,111.48,15.76,167.35.02,0,.04,0,.06,0,12.69,177.76,12.69,356.2,0,533.97-.02,0-.04,0-.06,0-4,55.87-9.26,111.66-15.76,167.35-16.51,141.25-41.03,281.34-73.41,419.58,202.26,48.55,404.55,97.12,606.83,145.68-.02.07-.03.15-.05.22,301.2,72.31,602.4,144.62,903.62,216.94,133.7-250.42,227.47-524.99,272.92-815.35.1,0,.16,0,.16,0,31.65-361.76,31.65-560.39.05-802.83Z" style="fill:#fff; stroke:#ddd; stroke-miterlimit:10; stroke-width:9px;"/><path d="M4345.23,5256.48c-158.5-65.66-433.17-179.39-591.67-245.05-61.69,145.58-134.88,286.26-219,420.67-94.4-1.33-188.81-2.65-283.21-3.97-43.13,61.36-88.73,120.92-136.68,178.54-14.75,17.71-29.71,35.25-44.9,52.59,191.14,163.24,637.02,544.07,668.82,571.22,126.27-145.08,240.99-300.11,342.97-463.68-.23-.14-.48-.29-.72-.44,99.24-157.02,264.39-509.88,264.39-509.88h0Z" style="fill:#fff; stroke:#ddd; stroke-miterlimit:10; stroke-width:9px;"/><path d="M4345.27,2425.03c-72.58-169.67-165.03-352.57-263.96-509.12.09-.05.19-.11.27-.17-102-163.57-216.71-318.59-342.98-463.67-31.79,27.16-477.64,407.94-668.77,571.19,15.17,17.33,30.12,34.84,44.85,52.54h.01c47.97,57.64,93.59,117.22,136.74,178.63,94.58-1.33,189.17-2.66,283.76-3.99,83.86,134.11,156.85,274.45,218.39,419.68,158.5-65.65,433.19-179.44,591.69-245.09h0Z" style="fill:#fff; stroke:#ddd; stroke-miterlimit:10; stroke-width:9px;"/><path d="M5872.96,5743.45c-3.43-1.42-542.22-224.61-586.53-242.96.21-.52.43-1.04.64-1.56-254.23-105.3-508.46-210.61-762.68-315.91-70.98,173.82-155.31,340.95-251.9,500.05.24.15.49.3.73.45-88.07,145.01-186.31,283.34-293.9,413.96,150.96,109.69,301.92,219.37,452.89,329.05,135.88-18.21,268.49-46.75,397-84.79,145.42-47.53,217.64-63,323.11-120.12-.11-.07-.22-.13-.33-.2,266.93-119.35,510.24-281.64,720.96-477.97h.01Z" style="fill:#fff; stroke:#ddd; stroke-miterlimit:10; stroke-width:9px;"/><path d="M5152.34,1460.91c-130.35-55.93-201.76-83.24-322.88-120.04-128.58-38.08-261.26-66.65-397.23-84.87h0c-150.95,109.68-301.9,219.35-452.84,329.02,107.69,130.76,206.02,269.25,294.15,414.42.39-.24.79-.48,1.18-.72,96.51,159.02,180.78,326.06,251.72,499.79,253.86-105.15,507.71-210.3,761.6-315.46.07.16.14.33.2.49h.02c34.48-14.28,584.25-242.01,587.71-243.44-211.42-197-455.65-359.72-723.64-479.19h0Z" style="fill:#fff; stroke:#ddd; stroke-miterlimit:10; stroke-width:9px;"/></g><g id="sectors"><path id="_208" d="M4525.82,2970.71c-207.59,49.84-415.16,99.67-622.74,149.51-38.11-154.24-88.35-304.95-150.14-450.74,158.5-65.65,552.97-229.04,591.7-245.08,24.64,58.38,47.8,117.52,69.46,177.36h0c43.9,121.41,81.15,244.57,111.73,368.96h-.01Z" style="fill:#fff; stroke:#ddd; stroke-miterlimit:10; stroke-width:9px;"/><path id="_204" d="M4344.6,5254.85c-38.71-16.04-433.14-179.42-591.65-245.07,61.78-145.78,112.02-296.48,150.13-450.7,207.57,49.83,415.13,99.66,622.7,149.5-30.57,124.33-67.81,247.45-111.69,368.81h0c-21.66,59.88-44.83,119.05-69.49,177.46h0Z" style="fill:#fff; stroke:#ddd; stroke-miterlimit:10; stroke-width:9px;"/><path id="_205" d="M3903.08,4559.08c207.57,49.83,415.15,99.67,622.72,149.5,50.62-205.84,82.98-415.04,97.07-625.17-54.3-4.27-479.96-37.77-638.47-50.25-8.94,138.44-27.51,276.4-55.69,412.89h0c-7.82,37.87-16.36,75.56-25.62,113.03h0Z" style="fill:#fff; stroke:#ddd; stroke-miterlimit:10; stroke-width:9px;"/><path id="_206" d="M4489.86,3606.43c-158.53,12.48-346.93,27.23-505.44,39.7,8.33,128.88,8.33,258.16-.02,387.04,158.51,12.48,479.94,37.76,638.47,50.24,11.37-196.11,8.26-257.68-.71-487.53l-132.3,10.55h0Z" style="fill:#fff; stroke:#ddd; stroke-miterlimit:10; stroke-width:9px;"/><path id="_207" d="M3984.42,3646.13c158.51-12.47,583.44-45.97,637.74-50.25-14.1-210.13-45.74-419.33-96.35-625.18-207.57,49.83-415.14,99.67-622.7,149.5,9.25,37.46,17.8,75.12,25.61,112.97h0c28.19,136.51,46.76,274.5,55.71,412.95h-.01Z" style="fill:#fff; stroke:#ddd; stroke-miterlimit:10; stroke-width:9px;"/><path id="_304" d="M4889.01,4694.57c-12.93,55.22-27.11,110.15-42.54,164.75-75.95,20.35-151.89,40.7-227.85,61.05-13.04,40.79-26.83,81.4-41.39,121.81-16.88,46.86-34.71,93.27-53.48,139.21,254.22,105.3,508.45,210.61,762.68,315.91,23.71-57.9,46.22-116.4,67.49-175.48,56.99-158.26,104.57-318.99,142.74-481.38h0c-202.56-48.63-405.12-97.26-607.66-145.88h0Z" style="fill:#fff; stroke:#ddd; stroke-miterlimit:10; stroke-width:9px;"/><path id="_308" d="M5496.73,2838.83c-202.58,48.64-405.16,97.27-607.72,145.9-12.93-55.23-27.11-110.16-42.53-164.76-75.94-20.35-151.87-40.69-227.81-61.04-13.06-40.84-26.87-81.5-41.44-121.97-16.85-46.81-34.67-93.18-53.41-139.09,254.24-105.31,508.48-210.62,762.73-315.93,23.67,57.81,46.14,116.22,67.38,175.2h0c57.02,158.36,104.64,319.19,142.8,481.68h0Z" style="fill:#fff; stroke:#ddd; stroke-miterlimit:10; stroke-width:9px;"/><path id="_408" d="M5286.62,2181.9c23.69,57.85,46.17,116.3,67.42,175.32,3.53,9.81,7.06,19.62,10.6,29.43,35.17,99.44,66.58,200.12,94.17,301.91,2.8,10.55,5.6,21.11,8.4,31.66,10.44,39.43,20.31,78.96,29.61,118.59,301.23-72.31,602.47-144.64,903.7-216.96-83.27-156.03-182.04-302.69-294.27-437.97-70.43-87.61-154.08-177.66-231.9-245.41,0,0-395.29,163.72-587.73,243.43Z" style="fill:#fff; stroke:#ddd; stroke-miterlimit:10; stroke-width:9px;"/><path id="_404" d="M5286.57,5497.34c23.71-57.89,46.21-116.38,67.48-175.44,3.56-9.8,7.11-19.6,10.59-29.43,35.18-99.44,66.58-200.11,94.18-301.9,2.86-10.54,5.62-21.11,8.4-31.66,10.42-39.37,20.28-78.85,29.58-118.43,301.19,72.32,602.4,144.63,903.61,216.94-83.29,156.03-182.08,302.68-294.32,437.95-105.11,114.41-204.72,222.02-231.76,245.45l-10.34-4.3s-384.96-159.46-577.42-239.18h0Z" style="fill:#fff; stroke:#ddd; stroke-miterlimit:10; stroke-width:9px;"/></g></svg>