<svg id="Layer_1" viewBox="0 0 1697.6 1405.17" xmlns="http://www.w3.org/2000/svg"><g id="back"><g id="back-2"><path id="sphere" d="M3004.21-1064.43c0-1528.34-1241.46-2769.81-2769.81-2769.81s-2769.81,1241.47-2769.81,2769.81S-1293.95,1705.38,234.4,1705.38h0c1528.34,0,2769.81-1241.46,2769.81-2769.81Z" style="fill:#f2f2f2; stroke:#ddd; stroke-miterlimit:10; stroke-width:3px;" /></g><g id="sectors"><path id="_203" d="M218.83,861.24c-145.43-89.12-400.61-245.51-546.04-334.63C-243.08,392.18-169.87,251.48-108.17,105.87h0c158.5,65.66,433.17,179.39,591.67,245.05,0,0-165.46,353.52-264.67,510.32h0Z" style="fill:#fff; stroke:#ddd; stroke-miterlimit:10; stroke-width:9px;" /><path id="_204" d="M483.5,350.92c-38.71-16.04-433.14-179.42-591.65-245.07C-46.37-39.93,3.87-190.63,41.98-344.85c207.57,49.83,415.13,99.66,622.7,149.5-30.57,124.33-67.81,247.45-111.69,368.81h0c-21.66,59.88-44.83,119.05-69.49,177.46h0Z" style="fill:#fff; stroke:#ddd; stroke-miterlimit:10; stroke-width:9px;" /><path id="_202" d="M-327.34,526.54s.07.05.12.07c135.57,83.08,499.61,306.17,546.05,334.63C116.85,1024.81,2.13,1179.84-124.14,1324.92c-31.8-27.15-477.68-407.98-668.82-571.22,15.19-17.34,30.15-34.88,44.9-52.59,47.95-57.62,93.55-117.18,136.68-178.54h0c94.68,1.32,189.36,2.65,284.04,3.98h0Z" style="fill:#fff; stroke:#ddd; stroke-miterlimit:10; stroke-width:9px;" /><path id="_403" d="M1114.75,1208.91c58.27,35.71,116.55,71.43,174.84,107.15,267.98-119.46,512.21-282.18,723.64-479.17-3.46-1.43-553.26-229.18-587.75-243.46-72.42,176.85-156.05,348.07-250.14,512.72h0c-19.74,34.55-39.95,68.8-60.6,102.76h.01Z" style="fill:#fff; stroke:#ddd; stroke-miterlimit:10; stroke-width:9px;" /><path id="_302" d="M569.48,1520.97c-150.97-109.68-301.93-219.36-452.89-329.05,107.7-130.76,206.03-269.24,294.17-414.41,234.61,143.77,644.21,394.78,878.83,538.55-105.47,57.12-177.69,72.59-323.11,120.12h0c-128.51,38.04-261.12,66.58-397,84.79Z" style="fill:#fff; stroke:#ddd; stroke-miterlimit:10; stroke-width:9px;" /><path id="_303" d="M1114.61,1208.83c-234.62-143.77-469.24-287.55-703.85-431.32,96.59-159.1,180.92-326.23,251.9-500.05,254.22,105.3,508.45,210.61,762.68,315.91-72.41,176.85-156.04,348.06-250.14,512.71h0c-19.74,34.55-39.94,68.8-60.59,102.75h0Z" style="fill:#fff; stroke:#ddd; stroke-miterlimit:10; stroke-width:9px;" /><path id="_304" d="M1027.91-209.36c-12.93,55.22-27.11,110.15-42.54,164.75-75.95,20.35-151.89,40.7-227.85,61.05-13.04,40.79-26.83,81.4-41.39,121.81-16.88,46.86-34.71,93.27-53.48,139.21,254.22,105.3,508.45,210.61,762.68,315.91,23.71-57.9,46.22-116.4,67.49-175.48,56.99-158.26,104.57-318.99,142.74-481.38h0c-202.56-48.63-405.12-97.26-607.66-145.88h0Z" style="fill:#fff; stroke:#ddd; stroke-miterlimit:10; stroke-width:9px;" /><path id="_405" d="M2539.31,153.48c133.85-250.71,227.69-525.62,273.08-816.35-30.41-2.39-60.81-4.78-91.21-7.18-327-25.74-654-51.47-980.98-77.21-10.51,144.77-28.24,289.12-53.18,432.54-14.63,84.11-31.74,167.9-51.33,251.25h0c301.2,72.31,602.4,144.62,903.62,216.94h0Z" style="fill:#fff; stroke:#ddd; stroke-miterlimit:10; stroke-width:9px;" /><path id="_404" d="M1425.47,593.41c23.71-57.89,46.21-116.38,67.48-175.44,3.56-9.8,7.11-19.6,10.59-29.43,35.18-99.44,66.58-200.11,94.18-301.9,2.86-10.54,5.62-21.11,8.4-31.66,10.42-39.37,20.28-78.85,29.58-118.43,301.19,72.32,602.4,144.63,903.61,216.94-83.29,156.03-182.08,302.68-294.32,437.95-105.11,114.41-204.72,222.02-231.76,245.45l-10.34-4.3s-384.96-159.46-577.42-239.18h0Z" style="fill:#fff; stroke:#ddd; stroke-miterlimit:10; stroke-width:9px;" /></g></g><g id="Seats"><circle id="SPH01194" cx="1047.96" cy="482.57" r="9.2" style="fill:#ccc; stroke-width:0px;" /><circle id="SPH01195" cx="1038.55" cy="504.16" r="9.2" style="fill:#ccc; stroke-width:0px;" /><circle id="SPH01196" cx="1029.14" cy="525.75" r="9.2" transform="translate(345.33 1457.39) rotate(-80.78)" style="fill:#ccc; stroke-width:0px;" /><circle id="SPH01197" cx="1019.73" cy="547.35" r="9.2" transform="translate(316.1 1466.24) rotate(-80.78)" style="fill:#ccc; stroke-width:0px;" /><circle id="SPH01198" cx="1010.32" cy="568.94" r="9.2" style="fill:#ccc; stroke-width:0px;" /><circle id="SPH01199" cx="1000.92" cy="590.54" r="9.2" style="fill:#ccc; stroke-width:0px;" /><circle id="SPH01200" cx="991.2" cy="611.99" r="9.2" style="fill:#ccc; stroke-width:0px;" /><circle id="SPH01201" cx="980.86" cy="633.15" r="9.2" style="fill:#ccc; stroke-width:0px;" /><circle id="SPH01202" cx="970.52" cy="654.32" r="9.2" style="fill:#ccc; stroke-width:0px;" /><circle id="SPH01203" cx="960.19" cy="675.5" r="9.2" style="fill:#ccc; stroke-width:0px;" /><circle id="SPH01204" cx="949.84" cy="696.67" r="9.2" style="fill:#ccc; stroke-width:0px;" /><circle id="SPH01205" cx="939.5" cy="717.84" r="9.2" style="fill:#ccc; stroke-width:0px;" /><circle id="SPH01206" cx="929.18" cy="738.99" r="9.2" style="fill:#ccc; stroke-width:0px;" /><circle id="SPH01207" cx="918.85" cy="760.11" r="9.2" style="fill:#ccc; stroke-width:0px;" /><circle id="SPH01208" cx="907.6" cy="780.81" r="9.2" style="fill:#ccc; stroke-width:0px;" /><circle id="SPH01209" cx="896.36" cy="801.51" r="9.2" style="fill:#ccc; stroke-width:0px;" /><circle id="SPH01210" cx="885.12" cy="822.22" r="9.2" style="fill:#ccc; stroke-width:0px;" /><circle id="SPH01211" cx="873.87" cy="842.92" r="9.2" style="fill:#ccc; stroke-width:0px;" /><circle id="SPH01212" cx="862.62" cy="863.63" r="9.2" style="fill:#ccc; stroke-width:0px;" /><circle id="SPH01213" cx="851.38" cy="884.33" r="9.2" style="fill:#ccc; stroke-width:0px;" /><circle id="SPH01214" cx="840.13" cy="905.04" r="9.2" style="fill:#ccc; stroke-width:0px;" /><circle id="SPH01215" cx="828.26" cy="925.39" r="9.2" style="fill:#ccc; stroke-width:0px;" /><circle id="SPH01216" cx="816.12" cy="945.59" r="9.2" style="fill:#ccc; stroke-width:0px;" /><circle id="SPH01217" cx="803.99" cy="965.79" r="9.2" style="fill:#ccc; stroke-width:0px;" /><circle id="SPH01218" cx="1084.56" cy="497.71" r="9.2" style="fill:#ccc; stroke-width:0px;" /><circle id="SPH01219" cx="1075.44" cy="518.65" r="9.2" style="fill:#ccc; stroke-width:0px;" /><circle id="SPH01220" cx="1066.31" cy="539.59" r="9.2" style="fill:#ccc; stroke-width:0px;" /><circle id="SPH01221" cx="1057.19" cy="560.52" r="9.2" style="fill:#ccc; stroke-width:0px;" /><circle id="SPH01222" cx="1048.07" cy="581.45" r="9.2" style="fill:#ccc; stroke-width:0px;" /><circle id="SPH01223" cx="1038.95" cy="602.39" r="9.2" style="fill:#ccc; stroke-width:0px;" /><circle id="SPH01224" cx="1029.76" cy="623.28" r="9.2" transform="translate(249.58 1539.9) rotate(-80.78)" style="fill:#ccc; stroke-width:0px;" /><circle id="SPH01225" cx="1019.74" cy="643.79" r="9.2" transform="translate(220.92 1547.24) rotate(-80.78)" style="fill:#ccc; stroke-width:0px;" /><circle id="SPH01226" cx="1009.72" cy="664.31" r="9.2" style="fill:#ccc; stroke-width:0px;" /><circle id="SPH01227" cx="999.7" cy="684.83" r="9.2" style="fill:#ccc; stroke-width:0px;" /><circle id="SPH01228" cx="989.68" cy="705.34" r="9.2" style="fill:#ccc; stroke-width:0px;" /><circle id="SPH01229" cx="979.66" cy="725.86" r="9.2" style="fill:#ccc; stroke-width:0px;" /><circle id="SPH01230" cx="969.64" cy="746.36" r="9.2" style="fill:#ccc; stroke-width:0px;" /><circle id="SPH01231" cx="959.63" cy="766.88" r="9.2" style="fill:#ccc; stroke-width:0px;" /><circle id="SPH01232" cx="949.2" cy="787.19" r="9.2" style="fill:#ccc; stroke-width:0px;" /><circle id="SPH01233" cx="938.29" cy="807.27" r="9.2" style="fill:#ccc; stroke-width:0px;" /><circle id="SPH01234" cx="927.4" cy="827.35" r="9.2" style="fill:#ccc; stroke-width:0px;" /><circle id="SPH01235" cx="916.5" cy="847.4" r="9.2" style="fill:#ccc; stroke-width:0px;" /><circle id="SPH01236" cx="905.6" cy="867.46" r="9.2" style="fill:#ccc; stroke-width:0px;" /><circle id="SPH01237" cx="894.71" cy="887.52" r="9.2" style="fill:#ccc; stroke-width:0px;" /><circle id="SPH01238" cx="883.8" cy="907.59" r="9.2" style="fill:#ccc; stroke-width:0px;" /><circle id="SPH01239" cx="872.91" cy="927.67" r="9.2" style="fill:#ccc; stroke-width:0px;" /><circle id="SPH01240" cx="861.28" cy="947.31" r="9.2" style="fill:#ccc; stroke-width:0px;" /><circle id="SPH01241" cx="849.53" cy="966.87" r="9.2" style="fill:#ccc; stroke-width:0px;" /><circle id="SPH01242" cx="837.79" cy="986.44" r="9.2" style="fill:#ccc; stroke-width:0px;" /><circle id="SPH01243" cx="1121.15" cy="512.87" r="9.2" style="fill:#ccc; stroke-width:0px;" /><circle id="SPH01244" cx="1111.92" cy="534.04" r="9.2" style="fill:#ccc; stroke-width:0px;" /><circle id="SPH01245" cx="1102.7" cy="555.21" r="9.2" style="fill:#ccc; stroke-width:0px;" /><circle id="SPH01246" cx="1093.48" cy="576.38" r="9.2" style="fill:#ccc; stroke-width:0px;" /><circle id="SPH01247" cx="1084.25" cy="597.54" r="9.2" style="fill:#ccc; stroke-width:0px;" /><circle id="SPH01248" cx="1075.03" cy="618.71" r="9.2" style="fill:#ccc; stroke-width:0px;" /><circle id="SPH01249" cx="1065.73" cy="639.85" r="9.2" style="fill:#ccc; stroke-width:0px;" /><circle id="SPH01250" cx="1055.6" cy="660.59" r="9.2" style="fill:#ccc; stroke-width:0px;" /><circle id="SPH01251" cx="1045.47" cy="681.35" r="9.2" style="fill:#ccc; stroke-width:0px;" /><circle id="SPH01252" cx="1035.33" cy="702.09" r="9.2" style="fill:#ccc; stroke-width:0px;" /><circle id="SPH01253" cx="1025.2" cy="722.83" r="9.2" transform="translate(147.48 1619.01) rotate(-80.78)" style="fill:#ccc; stroke-width:0px;" /><circle id="SPH01254" cx="1015.07" cy="743.59" r="9.2" style="fill:#ccc; stroke-width:0px;" /><circle id="SPH01255" cx="1004.93" cy="764.34" r="9.2" style="fill:#ccc; stroke-width:0px;" /><circle id="SPH01256" cx="994.79" cy="785.12" r="9.2" style="fill:#ccc; stroke-width:0px;" /><circle id="SPH01257" cx="984.24" cy="805.66" r="9.2" style="fill:#ccc; stroke-width:0px;" /><circle id="SPH01258" cx="973.22" cy="825.93" r="9.2" style="fill:#ccc; stroke-width:0px;" /><circle id="SPH01259" cx="962.21" cy="846.21" r="9.2" style="fill:#ccc; stroke-width:0px;" /><circle id="SPH01260" cx="951.2" cy="866.49" r="9.2" style="fill:#ccc; stroke-width:0px;" /><circle id="SPH01261" cx="940.18" cy="886.77" r="9.2" style="fill:#ccc; stroke-width:0px;" /><circle id="SPH01262" cx="929.17" cy="907.04" r="9.2" style="fill:#ccc; stroke-width:0px;" /><circle id="SPH01263" cx="918.16" cy="927.33" r="9.2" style="fill:#ccc; stroke-width:0px;" /><circle id="SPH01264" cx="907.14" cy="947.6" r="9.2" style="fill:#ccc; stroke-width:0px;" /><circle id="SPH01265" cx="895.36" cy="967.47" r="9.2" style="fill:#ccc; stroke-width:0px;" /><circle id="SPH01266" cx="883.47" cy="987.29" r="9.2" style="fill:#ccc; stroke-width:0px;" /><circle id="SPH01267" cx="871.57" cy="1007.1" r="9.2" style="fill:#ccc; stroke-width:0px;" /><circle id="SPH01268" cx="1157.74" cy="528.03" r="9.2" style="fill:#ccc; stroke-width:0px;" /><circle id="SPH01269" cx="1148.41" cy="549.43" r="9.2" style="fill:#ccc; stroke-width:0px;" /><circle id="SPH01270" cx="1139.08" cy="570.83" r="9.2" style="fill:#ccc; stroke-width:0px;" /><circle id="SPH01271" cx="1129.76" cy="592.24" r="9.2" style="fill:#ccc; stroke-width:0px;" /><circle id="SPH01272" cx="1120.44" cy="613.64" r="9.2" style="fill:#ccc; stroke-width:0px;" /><circle id="SPH01273" cx="1111.1" cy="635.05" r="9.2" style="fill:#ccc; stroke-width:0px;" /><circle id="SPH01274" cx="1101.71" cy="656.43" r="9.2" style="fill:#ccc; stroke-width:0px;" /><circle id="SPH01275" cx="1091.46" cy="677.41" r="9.2" style="fill:#ccc; stroke-width:0px;" /><circle id="SPH01276" cx="1081.2" cy="698.4" r="9.2" style="fill:#ccc; stroke-width:0px;" /><circle id="SPH01277" cx="1070.96" cy="719.39" r="9.2" style="fill:#ccc; stroke-width:0px;" /><circle id="SPH01278" cx="1060.71" cy="740.37" r="9.2" style="fill:#ccc; stroke-width:0px;" /><circle id="SPH01279" cx="1050.46" cy="761.36" r="9.2" style="fill:#ccc; stroke-width:0px;" /><circle id="SPH01280" cx="1040.22" cy="782.33" r="9.2" style="fill:#ccc; stroke-width:0px;" /><circle id="SPH01281" cx="1029.99" cy="803.28" r="9.2" transform="translate(72.1 1691.3) rotate(-80.78)" style="fill:#ccc; stroke-width:0px;" /><circle id="SPH01282" cx="1019.32" cy="824.03" r="9.2" style="fill:#ccc; stroke-width:0px;" /><circle id="SPH01283" cx="1008.17" cy="844.56" r="9.2" style="fill:#ccc; stroke-width:0px;" /><circle id="SPH01284" cx="997.03" cy="865.08" r="9.2" style="fill:#ccc; stroke-width:0px;" /><circle id="SPH01285" cx="985.88" cy="885.61" r="9.2" style="fill:#ccc; stroke-width:0px;" /><circle id="SPH01286" cx="974.73" cy="906.13" r="9.2" style="fill:#ccc; stroke-width:0px;" /><circle id="SPH01287" cx="963.58" cy="926.67" r="9.2" style="fill:#ccc; stroke-width:0px;" /><circle id="SPH01288" cx="952.43" cy="947.19" r="9.2" style="fill:#ccc; stroke-width:0px;" /><circle id="SPH01289" cx="941.28" cy="967.72" r="9.2" style="fill:#ccc; stroke-width:0px;" /><circle id="SPH01290" cx="929.36" cy="987.78" r="9.2" style="fill:#ccc; stroke-width:0px;" /><circle id="SPH01291" cx="917.35" cy="1007.79" r="9.2" style="fill:#ccc; stroke-width:0px;" /><circle id="SPH01292" cx="905.34" cy="1027.79" r="9.2" style="fill:#ccc; stroke-width:0px;" /><circle id="SPH01293" cx="1194.33" cy="543.17" r="9.2" style="fill:#ccc; stroke-width:0px;" /><circle id="SPH01294" cx="1184.91" cy="564.82" r="9.2" style="fill:#ccc; stroke-width:0px;" /><circle id="SPH01295" cx="1175.48" cy="586.46" r="9.2" style="fill:#ccc; stroke-width:0px;" /><circle id="SPH01296" cx="1166.04" cy="608.11" r="9.2" style="fill:#ccc; stroke-width:0px;" /><circle id="SPH01297" cx="1156.61" cy="629.75" r="9.2" style="fill:#ccc; stroke-width:0px;" /><circle id="SPH01298" cx="1147.18" cy="651.39" r="9.2" style="fill:#ccc; stroke-width:0px;" /><circle id="SPH01299" cx="1137.68" cy="673.01" r="9.2" style="fill:#ccc; stroke-width:0px;" /><circle id="SPH01300" cx="1127.32" cy="694.22" r="9.2" style="fill:#ccc; stroke-width:0px;" /><circle id="SPH01301" cx="1116.96" cy="715.44" r="9.2" style="fill:#ccc; stroke-width:0px;" /><circle id="SPH01302" cx="1106.6" cy="736.66" r="9.2" style="fill:#ccc; stroke-width:0px;" /><circle id="SPH01303" cx="1096.24" cy="757.87" r="9.2" style="fill:#ccc; stroke-width:0px;" /><circle id="SPH01304" cx="1085.88" cy="779.09" r="9.2" style="fill:#ccc; stroke-width:0px;" /><circle id="SPH01305" cx="1075.52" cy="800.3" r="9.2" style="fill:#ccc; stroke-width:0px;" /><circle id="SPH01306" cx="1065.15" cy="821.51" r="9.2" style="fill:#ccc; stroke-width:0px;" /><circle id="SPH01307" cx="1054.35" cy="842.51" r="9.2" style="fill:#ccc; stroke-width:0px;" /><circle id="SPH01308" cx="1043.08" cy="863.26" r="9.2" style="fill:#ccc; stroke-width:0px;" /><circle id="SPH01309" cx="1031.81" cy="884.01" r="9.2" transform="translate(-6.06 1760.89) rotate(-80.78)" style="fill:#ccc; stroke-width:0px;" /><circle id="SPH01310" cx="1020.54" cy="904.75" r="9.2" style="fill:#ccc; stroke-width:0px;" /><circle id="SPH01311" cx="1009.28" cy="925.49" r="9.2" style="fill:#ccc; stroke-width:0px;" /><circle id="SPH01312" cx="998.01" cy="946.23" r="9.2" style="fill:#ccc; stroke-width:0px;" /><circle id="SPH01313" cx="986.76" cy="966.96" r="9.2" style="fill:#ccc; stroke-width:0px;" /><circle id="SPH01314" cx="975.49" cy="987.71" r="9.2" style="fill:#ccc; stroke-width:0px;" /><circle id="SPH01315" cx="963.41" cy="1007.99" r="9.2" style="fill:#ccc; stroke-width:0px;" /><circle id="SPH01316" cx="951.25" cy="1028.25" r="9.2" style="fill:#ccc; stroke-width:0px;" /><circle id="SPH01317" cx="939.09" cy="1048.5" r="9.2" style="fill:#ccc; stroke-width:0px;" /><circle id="SPH01318" cx="1230.94" cy="558.3" r="9.2" style="fill:#ccc; stroke-width:0px;" /><circle id="SPH01319" cx="1221.79" cy="579.31" r="9.2" style="fill:#ccc; stroke-width:0px;" /><circle id="SPH01320" cx="1212.63" cy="600.32" r="9.2" style="fill:#ccc; stroke-width:0px;" /><circle id="SPH01321" cx="1203.48" cy="621.33" r="9.2" style="fill:#ccc; stroke-width:0px;" /><circle id="SPH01322" cx="1194.32" cy="642.34" r="9.2" style="fill:#ccc; stroke-width:0px;" /><circle id="SPH01323" cx="1185.17" cy="663.34" r="9.2" style="fill:#ccc; stroke-width:0px;" /><circle id="SPH01324" cx="1176.02" cy="684.35" r="9.2" style="fill:#ccc; stroke-width:0px;" /><circle id="SPH01325" cx="1166.12" cy="705.01" r="9.2" style="fill:#ccc; stroke-width:0px;" /><circle id="SPH01326" cx="1156.07" cy="725.59" r="9.2" style="fill:#ccc; stroke-width:0px;" /><circle id="SPH01327" cx="1146.01" cy="746.19" r="9.2" style="fill:#ccc; stroke-width:0px;" /><circle id="SPH01328" cx="1135.96" cy="766.77" r="9.2" style="fill:#ccc; stroke-width:0px;" /><circle id="SPH01329" cx="1125.9" cy="787.36" r="9.2" style="fill:#ccc; stroke-width:0px;" /><circle id="SPH01330" cx="1115.84" cy="807.96" r="9.2" style="fill:#ccc; stroke-width:0px;" /><circle id="SPH01331" cx="1105.78" cy="828.55" r="9.2" style="fill:#ccc; stroke-width:0px;" /><circle id="SPH01332" cx="1095.72" cy="849.15" r="9.2" style="fill:#ccc; stroke-width:0px;" /><circle id="SPH01333" cx="1084.85" cy="869.31" r="9.2" style="fill:#ccc; stroke-width:0px;" /><circle id="SPH01334" cx="1073.92" cy="889.44" r="9.2" style="fill:#ccc; stroke-width:0px;" /><circle id="SPH01335" cx="1062.98" cy="909.58" r="9.2" style="fill:#ccc; stroke-width:0px;" /><circle id="SPH01336" cx="1052.04" cy="929.72" r="9.2" style="fill:#ccc; stroke-width:0px;" /><circle id="SPH01337" cx="1041.11" cy="949.85" r="9.2" style="fill:#ccc; stroke-width:0px;" /><circle id="SPH01338" cx="1030.17" cy="969.99" r="9.2" transform="translate(-92.31 1831.48) rotate(-80.78)" style="fill:#ccc; stroke-width:0px;" /><circle id="SPH01339" cx="1019.24" cy="990.13" r="9.2" transform="translate(-121.37 1837.61) rotate(-80.78)" style="fill:#ccc; stroke-width:0px;" /><circle id="SPH01340" cx="1008.25" cy="1010.23" r="9.2" style="fill:#ccc; stroke-width:0px;" /><circle id="SPH01341" cx="996.47" cy="1029.87" r="9.2" style="fill:#ccc; stroke-width:0px;" /><circle id="SPH01342" cx="984.68" cy="1049.51" r="9.2" style="fill:#ccc; stroke-width:0px;" /><circle id="SPH01343" cx="972.88" cy="1069.16" r="9.2" style="fill:#ccc; stroke-width:0px;" /><circle id="SPH01344" cx="1267.53" cy="573.45" r="9.2" style="fill:#ccc; stroke-width:0px;" /><circle id="SPH01345" cx="1258.28" cy="594.68" r="9.2" style="fill:#ccc; stroke-width:0px;" /><circle id="SPH01346" cx="1249.03" cy="615.91" r="9.2" style="fill:#ccc; stroke-width:0px;" /><circle id="SPH01347" cx="1239.77" cy="637.16" r="9.2" style="fill:#ccc; stroke-width:0px;" /><circle id="SPH01348" cx="1230.52" cy="658.39" r="9.2" style="fill:#ccc; stroke-width:0px;" /><circle id="SPH01349" cx="1221.27" cy="679.63" r="9.2" style="fill:#ccc; stroke-width:0px;" /><circle id="SPH01350" cx="1212.01" cy="700.87" r="9.2" style="fill:#ccc; stroke-width:0px;" /><circle id="SPH01351" cx="1202.01" cy="721.75" r="9.2" style="fill:#ccc; stroke-width:0px;" /><circle id="SPH01352" cx="1191.85" cy="742.57" r="9.2" style="fill:#ccc; stroke-width:0px;" /><circle id="SPH01353" cx="1181.68" cy="763.39" r="9.2" style="fill:#ccc; stroke-width:0px;" /><circle id="SPH01354" cx="1171.52" cy="784.2" r="9.2" style="fill:#ccc; stroke-width:0px;" /><circle id="SPH01355" cx="1161.36" cy="805.01" r="9.2" style="fill:#ccc; stroke-width:0px;" /><circle id="SPH01356" cx="1151.2" cy="825.81" r="9.2" style="fill:#ccc; stroke-width:0px;" /><circle id="SPH01357" cx="1141.04" cy="846.61" r="9.2" style="fill:#ccc; stroke-width:0px;" /><circle id="SPH01358" cx="1130.88" cy="867.4" r="9.2" style="fill:#ccc; stroke-width:0px;" /><circle id="SPH01359" cx="1119.88" cy="887.79" r="9.2" style="fill:#ccc; stroke-width:0px;" /><circle id="SPH01360" cx="1108.82" cy="908.15" r="9.2" style="fill:#ccc; stroke-width:0px;" /><circle id="SPH01361" cx="1097.77" cy="928.51" r="9.2" style="fill:#ccc; stroke-width:0px;" /><circle id="SPH01362" cx="1086.71" cy="948.87" r="9.2" style="fill:#ccc; stroke-width:0px;" /><circle id="SPH01363" cx="1075.65" cy="969.22" r="9.2" style="fill:#ccc; stroke-width:0px;" /><circle id="SPH01364" cx="1064.6" cy="989.58" r="9.2" style="fill:#ccc; stroke-width:0px;" /><circle id="SPH01365" cx="1053.53" cy="1009.95" r="9.2" style="fill:#ccc; stroke-width:0px;" /><circle id="SPH01366" cx="1042.42" cy="1030.26" r="9.2" style="fill:#ccc; stroke-width:0px;" /><circle id="SPH01367" cx="1030.49" cy="1050.13" r="9.2" transform="translate(-323.43 474.29) rotate(-22.5)" style="fill:#ccc; stroke-width:0px;" /><circle id="SPH01368" cx="1018.56" cy="1070.01" r="9.2" style="fill:#ccc; stroke-width:0px;" /><circle id="SPH01369" cx="1006.62" cy="1089.89" r="9.2" style="fill:#ccc; stroke-width:0px;" /><circle id="SPH01370" cx="1304.13" cy="588.59" r="9.2" style="fill:#ccc; stroke-width:0px;" /><circle id="SPH01371" cx="1294.78" cy="610.04" r="9.2" style="fill:#ccc; stroke-width:0px;" /><circle id="SPH01372" cx="1285.43" cy="631.51" r="9.2" style="fill:#ccc; stroke-width:0px;" /><circle id="SPH01373" cx="1276.08" cy="652.98" r="9.2" style="fill:#ccc; stroke-width:0px;" /><circle id="SPH01374" cx="1266.72" cy="674.43" r="9.2" style="fill:#ccc; stroke-width:0px;" /><circle id="SPH01375" cx="1257.37" cy="695.91" r="9.2" style="fill:#ccc; stroke-width:0px;" /><circle id="SPH01376" cx="1248.02" cy="717.37" r="9.2" style="fill:#ccc; stroke-width:0px;" /><circle id="SPH01377" cx="1237.91" cy="738.49" r="9.2" style="fill:#ccc; stroke-width:0px;" /><circle id="SPH01378" cx="1227.64" cy="759.53" r="9.2" style="fill:#ccc; stroke-width:0px;" /><circle id="SPH01379" cx="1217.36" cy="780.57" r="9.2" style="fill:#ccc; stroke-width:0px;" /><circle id="SPH01380" cx="1207.08" cy="801.61" r="9.2" style="fill:#ccc; stroke-width:0px;" /><circle id="SPH01381" cx="1196.8" cy="822.65" r="9.2" style="fill:#ccc; stroke-width:0px;" /><circle id="SPH01382" cx="1186.53" cy="843.69" r="9.2" style="fill:#ccc; stroke-width:0px;" /><circle id="SPH01383" cx="1176.26" cy="864.73" r="9.2" style="fill:#ccc; stroke-width:0px;" /><circle id="SPH01384" cx="1165.98" cy="885.77" r="9.2" style="fill:#ccc; stroke-width:0px;" /><circle id="SPH01385" cx="1154.85" cy="906.38" r="9.2" style="fill:#ccc; stroke-width:0px;" /><circle id="SPH01386" cx="1143.68" cy="926.95" r="9.2" style="fill:#ccc; stroke-width:0px;" /><circle id="SPH01387" cx="1132.5" cy="947.53" r="9.2" style="fill:#ccc; stroke-width:0px;" /><circle id="SPH01388" cx="1121.32" cy="968.11" r="9.2" style="fill:#ccc; stroke-width:0px;" /><circle id="SPH01389" cx="1110.14" cy="988.69" r="9.2" style="fill:#ccc; stroke-width:0px;" /><circle id="SPH01390" cx="1098.96" cy="1009.27" r="9.2" style="fill:#ccc; stroke-width:0px;" /><circle id="SPH01391" cx="1087.78" cy="1029.86" r="9.2" style="fill:#ccc; stroke-width:0px;" /><circle id="SPH01392" cx="1076.52" cy="1050.39" r="9.2" style="fill:#ccc; stroke-width:0px;" /><circle id="SPH01393" cx="1064.48" cy="1070.47" r="9.2" style="fill:#ccc; stroke-width:0px;" /><circle id="SPH01394" cx="1052.43" cy="1090.52" r="9.2" style="fill:#ccc; stroke-width:0px;" /><circle id="SPH01395" cx="1040.37" cy="1110.6" r="9.2" style="fill:#ccc; stroke-width:0px;" /><circle id="SPH01396" cx="1340.73" cy="603.73" r="9.2" style="fill:#ccc; stroke-width:0px;" /><circle id="SPH01397" cx="1331.28" cy="625.42" r="9.2" style="fill:#ccc; stroke-width:0px;" /><circle id="SPH01398" cx="1321.83" cy="647.11" r="9.2" style="fill:#ccc; stroke-width:0px;" /><circle id="SPH01399" cx="1312.38" cy="668.8" r="9.2" style="fill:#ccc; stroke-width:0px;" /><circle id="SPH01400" cx="1302.92" cy="690.5" r="9.2" style="fill:#ccc; stroke-width:0px;" /><circle id="SPH01401" cx="1293.48" cy="712.19" r="9.2" style="fill:#ccc; stroke-width:0px;" /><circle id="SPH01402" cx="1284.02" cy="733.89" r="9.2" style="fill:#ccc; stroke-width:0px;" /><circle id="SPH01403" cx="1273.8" cy="755.23" r="9.2" style="fill:#ccc; stroke-width:0px;" /><circle id="SPH01404" cx="1263.42" cy="776.5" r="9.2" style="fill:#ccc; stroke-width:0px;" /><circle id="SPH01405" cx="1253.04" cy="797.76" r="9.2" style="fill:#ccc; stroke-width:0px;" /><circle id="SPH01406" cx="1242.65" cy="819.03" r="9.2" style="fill:#ccc; stroke-width:0px;" /><circle id="SPH01407" cx="1232.27" cy="840.28" r="9.2" style="fill:#ccc; stroke-width:0px;" /><circle id="SPH01408" cx="1221.88" cy="861.56" r="9.2" style="fill:#ccc; stroke-width:0px;" /><circle id="SPH01409" cx="1211.48" cy="882.84" r="9.2" style="fill:#ccc; stroke-width:0px;" /><circle id="SPH01410" cx="1201.09" cy="904.11" r="9.2" style="fill:#ccc; stroke-width:0px;" /><circle id="SPH01411" cx="1189.84" cy="924.92" r="9.2" style="fill:#ccc; stroke-width:0px;" /><circle id="SPH01412" cx="1178.55" cy="945.71" r="9.2" style="fill:#ccc; stroke-width:0px;" /><circle id="SPH01413" cx="1167.25" cy="966.51" r="9.2" style="fill:#ccc; stroke-width:0px;" /><circle id="SPH01414" cx="1155.96" cy="987.31" r="9.2" style="fill:#ccc; stroke-width:0px;" /><circle id="SPH01415" cx="1144.67" cy="1008.1" r="9.2" style="fill:#ccc; stroke-width:0px;" /><circle id="SPH01416" cx="1133.38" cy="1028.88" r="9.2" style="fill:#ccc; stroke-width:0px;" /><circle id="SPH01417" cx="1122.08" cy="1049.67" r="9.2" style="fill:#ccc; stroke-width:0px;" /><circle id="SPH01418" cx="1110.7" cy="1070.39" r="9.2" style="fill:#ccc; stroke-width:0px;" /><circle id="SPH01419" cx="1098.53" cy="1090.67" r="9.2" style="fill:#ccc; stroke-width:0px;" /><circle id="SPH01420" cx="1086.36" cy="1110.94" r="9.2" style="fill:#ccc; stroke-width:0px;" /><circle id="SPH01421" cx="1074.18" cy="1131.23" r="9.2" style="fill:#ccc; stroke-width:0px;" /><circle id="SPH01422" cx="682.06" cy="330.96" r="9.2" style="fill:#ccc; stroke-width:0px;" /><circle id="SPH01423" cx="672.94" cy="351.9" r="9.2" style="fill:#ccc; stroke-width:0px;" /><circle id="SPH01424" cx="663.82" cy="372.83" r="9.2" style="fill:#ccc; stroke-width:0px;" /><circle id="SPH01425" cx="654.69" cy="393.77" r="9.2" style="fill:#ccc; stroke-width:0px;" /><circle id="SPH01426" cx="645.57" cy="414.71" r="9.2" style="fill:#ccc; stroke-width:0px;" /><circle id="SPH01427" cx="636.45" cy="435.64" r="9.2" style="fill:#ccc; stroke-width:0px;" /><circle id="SPH01428" cx="626.57" cy="456.22" r="9.2" style="fill:#ccc; stroke-width:0px;" /><circle id="SPH01429" cx="616.55" cy="476.75" r="9.2" style="fill:#ccc; stroke-width:0px;" /><circle id="SPH01430" cx="606.53" cy="497.26" r="9.2" style="fill:#ccc; stroke-width:0px;" /><circle id="SPH01431" cx="596.52" cy="517.77" r="9.2" style="fill:#ccc; stroke-width:0px;" /><circle id="SPH01432" cx="586.49" cy="538.29" r="9.2" style="fill:#ccc; stroke-width:0px;" /><circle id="SPH01433" cx="576.48" cy="558.81" r="9.2" style="fill:#ccc; stroke-width:0px;" /><circle id="SPH01434" cx="566.41" cy="579.31" r="9.2" style="fill:#ccc; stroke-width:0px;" /><circle id="SPH01435" cx="555.52" cy="599.37" r="9.2" style="fill:#ccc; stroke-width:0px;" /><circle id="SPH01436" cx="544.61" cy="619.44" r="9.2" style="fill:#ccc; stroke-width:0px;" /><circle id="SPH01437" cx="533.71" cy="639.51" r="9.2" style="fill:#ccc; stroke-width:0px;" /><circle id="SPH01438" cx="522.81" cy="659.58" r="9.2" style="fill:#ccc; stroke-width:0px;" /><circle id="SPH01439" cx="511.92" cy="679.64" r="9.2" transform="translate(-240.94 1076.08) rotate(-80.78)" style="fill:#ccc; stroke-width:0px;" /><circle id="SPH01440" cx="501.02" cy="699.7" r="9.2" style="fill:#ccc; stroke-width:0px;" /><circle id="SPH01441" cx="489.9" cy="719.63" r="9.2" style="fill:#ccc; stroke-width:0px;" /><circle id="SPH01442" cx="478.12" cy="739.24" r="9.2" style="fill:#ccc; stroke-width:0px;" /><circle id="SPH01443" cx="466.36" cy="758.84" r="9.2" style="fill:#ccc; stroke-width:0px;" /><circle id="SPH01444" cx="718.65" cy="346.12" r="9.2" style="fill:#ccc; stroke-width:0px;" /><circle id="SPH01445" cx="709.41" cy="367.33" r="9.2" style="fill:#ccc; stroke-width:0px;" /><circle id="SPH01446" cx="700.16" cy="388.55" r="9.2" style="fill:#ccc; stroke-width:0px;" /><circle id="SPH01447" cx="690.93" cy="409.75" r="9.2" style="fill:#ccc; stroke-width:0px;" /><circle id="SPH01448" cx="681.68" cy="430.95" r="9.2" style="fill:#ccc; stroke-width:0px;" /><circle id="SPH01449" cx="672.45" cy="452.15" r="9.2" style="fill:#ccc; stroke-width:0px;" /><circle id="SPH01450" cx="662.44" cy="473.02" r="9.2" style="fill:#ccc; stroke-width:0px;" /><circle id="SPH01451" cx="652.29" cy="493.8" r="9.2" style="fill:#ccc; stroke-width:0px;" /><circle id="SPH01452" cx="642.14" cy="514.59" r="9.2" style="fill:#ccc; stroke-width:0px;" /><circle id="SPH01453" cx="631.99" cy="535.38" r="9.2" style="fill:#ccc; stroke-width:0px;" /><circle id="SPH01454" cx="621.83" cy="556.17" r="9.2" style="fill:#ccc; stroke-width:0px;" /><circle id="SPH01455" cx="611.68" cy="576.96" r="9.2" style="fill:#ccc; stroke-width:0px;" /><circle id="SPH01456" cx="601.47" cy="597.74" r="9.2" style="fill:#ccc; stroke-width:0px;" /><circle id="SPH01457" cx="590.43" cy="618.06" r="9.2" style="fill:#ccc; stroke-width:0px;" /><circle id="SPH01458" cx="579.39" cy="638.39" r="9.2" style="fill:#ccc; stroke-width:0px;" /><circle id="SPH01459" cx="568.34" cy="658.72" r="9.2" style="fill:#ccc; stroke-width:0px;" /><circle id="SPH01460" cx="557.3" cy="679.05" r="9.2" style="fill:#ccc; stroke-width:0px;" /><circle id="SPH01461" cx="546.26" cy="699.38" r="9.2" style="fill:#ccc; stroke-width:0px;" /><circle id="SPH01462" cx="535.22" cy="719.71" r="9.2" style="fill:#ccc; stroke-width:0px;" /><circle id="SPH01463" cx="523.92" cy="739.9" r="9.2" style="fill:#ccc; stroke-width:0px;" /><circle id="SPH01464" cx="512.02" cy="759.72" r="9.2" style="fill:#ccc; stroke-width:0px;" /><circle id="SPH01465" cx="500.12" cy="779.54" r="9.2" style="fill:#ccc; stroke-width:0px;" /><circle id="SPH01466" cx="755.24" cy="361.3" r="9.2" style="fill:#ccc; stroke-width:0px;" /><circle id="SPH01467" cx="745.88" cy="382.77" r="9.2" style="fill:#ccc; stroke-width:0px;" /><circle id="SPH01468" cx="736.52" cy="404.25" r="9.2" style="fill:#ccc; stroke-width:0px;" /><circle id="SPH01469" cx="727.16" cy="425.73" r="9.2" style="fill:#ccc; stroke-width:0px;" /><circle id="SPH01470" cx="717.8" cy="447.2" r="9.2" style="fill:#ccc; stroke-width:0px;" /><circle id="SPH01471" cx="708.44" cy="468.67" r="9.2" style="fill:#ccc; stroke-width:0px;" /><circle id="SPH01472" cx="698.31" cy="489.8" r="9.2" style="fill:#ccc; stroke-width:0px;" /><circle id="SPH01473" cx="688.03" cy="510.86" r="9.2" style="fill:#ccc; stroke-width:0px;" /><circle id="SPH01474" cx="677.75" cy="531.91" r="9.2" style="fill:#ccc; stroke-width:0px;" /><circle id="SPH01475" cx="667.46" cy="552.97" r="9.2" style="fill:#ccc; stroke-width:0px;" /><circle id="SPH01476" cx="657.18" cy="574.02" r="9.2" style="fill:#ccc; stroke-width:0px;" /><circle id="SPH01477" cx="646.9" cy="595.07" r="9.2" style="fill:#ccc; stroke-width:0px;" /><circle id="SPH01478" cx="636.56" cy="616.09" r="9.2" style="fill:#ccc; stroke-width:0px;" /><circle id="SPH01479" cx="625.38" cy="636.68" r="9.2" style="fill:#ccc; stroke-width:0px;" /><circle id="SPH01480" cx="614.2" cy="657.27" r="9.2" style="fill:#ccc; stroke-width:0px;" /><circle id="SPH01481" cx="603.01" cy="677.86" r="9.2" style="fill:#ccc; stroke-width:0px;" /><circle id="SPH01482" cx="591.83" cy="698.45" r="9.2" style="fill:#ccc; stroke-width:0px;" /><circle id="SPH01483" cx="580.64" cy="719.03" r="9.2" style="fill:#ccc; stroke-width:0px;" /><circle id="SPH01484" cx="569.47" cy="739.62" r="9.2" style="fill:#ccc; stroke-width:0px;" /><circle id="SPH01485" cx="558.01" cy="760.05" r="9.2" style="fill:#ccc; stroke-width:0px;" /><circle id="SPH01486" cx="545.94" cy="780.16" r="9.2" style="fill:#ccc; stroke-width:0px;" /><circle id="SPH01487" cx="533.87" cy="800.27" r="9.2" style="fill:#ccc; stroke-width:0px;" /><circle id="SPH01488" cx="791.83" cy="376.46" r="9.2" style="fill:#ccc; stroke-width:0px;" /><circle id="SPH01489" cx="782.35" cy="398.2" r="9.2" style="fill:#ccc; stroke-width:0px;" /><circle id="SPH01490" cx="772.87" cy="419.95" r="9.2" style="fill:#ccc; stroke-width:0px;" /><circle id="SPH01491" cx="763.4" cy="441.71" r="9.2" style="fill:#ccc; stroke-width:0px;" /><circle id="SPH01492" cx="753.92" cy="463.44" r="9.2" style="fill:#ccc; stroke-width:0px;" /><circle id="SPH01493" cx="744.44" cy="485.19" r="9.2" style="fill:#ccc; stroke-width:0px;" /><circle id="SPH01494" cx="734.19" cy="506.59" r="9.2" style="fill:#ccc; stroke-width:0px;" /><circle id="SPH01495" cx="723.78" cy="527.9" r="9.2" style="fill:#ccc; stroke-width:0px;" /><circle id="SPH01496" cx="713.36" cy="549.22" r="9.2" style="fill:#ccc; stroke-width:0px;" /><circle id="SPH01497" cx="702.95" cy="570.55" r="9.2" style="fill:#ccc; stroke-width:0px;" /><circle id="SPH01498" cx="692.54" cy="591.87" r="9.2" style="fill:#ccc; stroke-width:0px;" /><circle id="SPH01499" cx="682.12" cy="613.19" r="9.2" style="fill:#ccc; stroke-width:0px;" /><circle id="SPH01500" cx="671.64" cy="634.47" r="9.2" style="fill:#ccc; stroke-width:0px;" /><circle id="SPH01501" cx="660.32" cy="655.32" r="9.2" style="fill:#ccc; stroke-width:0px;" /><circle id="SPH01502" cx="649" cy="676.16" r="9.2" style="fill:#ccc; stroke-width:0px;" /><circle id="SPH01503" cx="637.68" cy="697.01" r="9.2" style="fill:#ccc; stroke-width:0px;" /><circle id="SPH01504" cx="626.36" cy="717.85" r="9.2" style="fill:#ccc; stroke-width:0px;" /><circle id="SPH01505" cx="615.04" cy="738.68" r="9.2" style="fill:#ccc; stroke-width:0px;" /><circle id="SPH01506" cx="603.72" cy="759.54" r="9.2" style="fill:#ccc; stroke-width:0px;" /><circle id="SPH01507" cx="592.1" cy="780.21" r="9.2" style="fill:#ccc; stroke-width:0px;" /><circle id="SPH01508" cx="579.89" cy="800.53" r="9.2" style="fill:#ccc; stroke-width:0px;" /><circle id="SPH01509" cx="567.69" cy="820.86" r="9.2" style="fill:#ccc; stroke-width:0px;" /><circle id="SPH01510" cx="828.41" cy="391.62" r="9.2" style="fill:#ccc; stroke-width:0px;" /><circle id="SPH01511" cx="819.25" cy="412.64" r="9.2" style="fill:#ccc; stroke-width:0px;" /><circle id="SPH01512" cx="810.1" cy="433.66" r="9.2" style="fill:#ccc; stroke-width:0px;" /><circle id="SPH01513" cx="800.93" cy="454.68" r="9.2" style="fill:#ccc; stroke-width:0px;" /><circle id="SPH01514" cx="791.78" cy="475.7" r="9.2" style="fill:#ccc; stroke-width:0px;" /><circle id="SPH01515" cx="782.62" cy="496.72" r="9.2" style="fill:#ccc; stroke-width:0px;" /><circle id="SPH01516" cx="772.92" cy="517.5" r="9.2" style="fill:#ccc; stroke-width:0px;" /><circle id="SPH01517" cx="762.87" cy="538.1" r="9.2" style="fill:#ccc; stroke-width:0px;" /><circle id="SPH01518" cx="752.8" cy="558.71" r="9.2" style="fill:#ccc; stroke-width:0px;" /><circle id="SPH01519" cx="742.74" cy="579.31" r="9.2" style="fill:#ccc; stroke-width:0px;" /><circle id="SPH01520" cx="732.68" cy="599.91" r="9.2" style="fill:#ccc; stroke-width:0px;" /><circle id="SPH01521" cx="722.62" cy="620.51" r="9.2" style="fill:#ccc; stroke-width:0px;" /><circle id="SPH01522" cx="712.56" cy="641.11" r="9.2" style="fill:#ccc; stroke-width:0px;" /><circle id="SPH01523" cx="702.04" cy="661.47" r="9.2" style="fill:#ccc; stroke-width:0px;" /><circle id="SPH01524" cx="691.1" cy="681.62" r="9.2" style="fill:#ccc; stroke-width:0px;" /><circle id="SPH01525" cx="680.16" cy="701.77" r="9.2" style="fill:#ccc; stroke-width:0px;" /><circle id="SPH01526" cx="669.21" cy="721.91" r="9.2" style="fill:#ccc; stroke-width:0px;" /><circle id="SPH01527" cx="658.27" cy="742.07" r="9.2" style="fill:#ccc; stroke-width:0px;" /><circle id="SPH01528" cx="647.32" cy="762.22" r="9.2" style="fill:#ccc; stroke-width:0px;" /><circle id="SPH01529" cx="636.37" cy="782.37" r="9.2" style="fill:#ccc; stroke-width:0px;" /><circle id="SPH01530" cx="625.03" cy="802.29" r="9.2" style="fill:#ccc; stroke-width:0px;" /><circle id="SPH01531" cx="613.22" cy="821.95" r="9.2" style="fill:#ccc; stroke-width:0px;" /><circle id="SPH01532" cx="601.42" cy="841.61" r="9.2" style="fill:#ccc; stroke-width:0px;" /><circle id="SPH01533" cx="865" cy="406.78" r="9.2" style="fill:#ccc; stroke-width:0px;" /><circle id="SPH01534" cx="855.73" cy="428.06" r="9.2" style="fill:#ccc; stroke-width:0px;" /><circle id="SPH01535" cx="846.46" cy="449.34" r="9.2" style="fill:#ccc; stroke-width:0px;" /><circle id="SPH01536" cx="837.19" cy="470.62" r="9.2" style="fill:#ccc; stroke-width:0px;" /><circle id="SPH01537" cx="827.92" cy="491.89" r="9.2" style="fill:#ccc; stroke-width:0px;" /><circle id="SPH01538" cx="818.64" cy="513.18" r="9.2" style="fill:#ccc; stroke-width:0px;" /><circle id="SPH01539" cx="808.83" cy="534.22" r="9.2" style="fill:#ccc; stroke-width:0px;" /><circle id="SPH01540" cx="798.64" cy="555.07" r="9.2" style="fill:#ccc; stroke-width:0px;" /><circle id="SPH01541" cx="788.45" cy="575.94" r="9.2" style="fill:#ccc; stroke-width:0px;" /><circle id="SPH01542" cx="778.27" cy="596.79" r="9.2" style="fill:#ccc; stroke-width:0px;" /><circle id="SPH01543" cx="768.08" cy="617.66" r="9.2" style="fill:#ccc; stroke-width:0px;" /><circle id="SPH01544" cx="757.89" cy="638.51" r="9.2" style="fill:#ccc; stroke-width:0px;" /><circle id="SPH01545" cx="747.71" cy="659.37" r="9.2" style="fill:#ccc; stroke-width:0px;" /><circle id="SPH01546" cx="737.06" cy="679.97" r="9.2" style="fill:#ccc; stroke-width:0px;" /><circle id="SPH01547" cx="725.98" cy="700.37" r="9.2" style="fill:#ccc; stroke-width:0px;" /><circle id="SPH01548" cx="714.9" cy="720.77" r="9.2" style="fill:#ccc; stroke-width:0px;" /><circle id="SPH01549" cx="703.82" cy="741.17" r="9.2" style="fill:#ccc; stroke-width:0px;" /><circle id="SPH01550" cx="692.74" cy="761.57" r="9.2" style="fill:#ccc; stroke-width:0px;" /><circle id="SPH01551" cx="681.66" cy="781.96" r="9.2" style="fill:#ccc; stroke-width:0px;" /><circle id="SPH01552" cx="670.58" cy="802.36" r="9.2" style="fill:#ccc; stroke-width:0px;" /><circle id="SPH01553" cx="659.08" cy="822.51" r="9.2" style="fill:#ccc; stroke-width:0px;" /><circle id="SPH01554" cx="647.12" cy="842.42" r="9.2" style="fill:#ccc; stroke-width:0px;" /><circle id="SPH01555" cx="635.16" cy="862.33" r="9.2" style="fill:#ccc; stroke-width:0px;" /><circle id="SPH01556" cx="901.6" cy="421.94" r="9.2" style="fill:#ccc; stroke-width:0px;" /><circle id="SPH01557" cx="892.21" cy="443.47" r="9.2" style="fill:#ccc; stroke-width:0px;" /><circle id="SPH01558" cx="882.83" cy="465.02" r="9.2" style="fill:#ccc; stroke-width:0px;" /><circle id="SPH01559" cx="873.44" cy="486.55" r="9.2" style="fill:#ccc; stroke-width:0px;" /><circle id="SPH01560" cx="864.06" cy="508.08" r="9.2" style="fill:#ccc; stroke-width:0px;" /><circle id="SPH01561" cx="854.68" cy="529.63" r="9.2" style="fill:#ccc; stroke-width:0px;" /><circle id="SPH01562" cx="844.76" cy="550.91" r="9.2" style="fill:#ccc; stroke-width:0px;" /><circle id="SPH01563" cx="834.44" cy="572.02" r="9.2" style="fill:#ccc; stroke-width:0px;" /><circle id="SPH01564" cx="824.13" cy="593.12" r="9.2" style="fill:#ccc; stroke-width:0px;" /><circle id="SPH01565" cx="813.83" cy="614.23" r="9.2" style="fill:#ccc; stroke-width:0px;" /><circle id="SPH01566" cx="803.52" cy="635.35" r="9.2" style="fill:#ccc; stroke-width:0px;" /><circle id="SPH01567" cx="793.2" cy="656.46" r="9.2" style="fill:#ccc; stroke-width:0px;" /><circle id="SPH01568" cx="782.88" cy="677.59" r="9.2" style="fill:#ccc; stroke-width:0px;" /><circle id="SPH01569" cx="772.09" cy="698.44" r="9.2" style="fill:#ccc; stroke-width:0px;" /><circle id="SPH01570" cx="760.88" cy="719.07" r="9.2" style="fill:#ccc; stroke-width:0px;" /><circle id="SPH01571" cx="749.68" cy="739.7" r="9.2" style="fill:#ccc; stroke-width:0px;" /><circle id="SPH01572" cx="738.48" cy="760.32" r="9.2" style="fill:#ccc; stroke-width:0px;" /><circle id="SPH01573" cx="727.28" cy="780.95" r="9.2" style="fill:#ccc; stroke-width:0px;" /><circle id="SPH01574" cx="716.07" cy="801.58" r="9.2" style="fill:#ccc; stroke-width:0px;" /><circle id="SPH01575" cx="704.87" cy="822.21" r="9.2" style="fill:#ccc; stroke-width:0px;" /><circle id="SPH01576" cx="693.21" cy="842.59" r="9.2" style="fill:#ccc; stroke-width:0px;" /><circle id="SPH01577" cx="681.12" cy="862.73" r="9.2" style="fill:#ccc; stroke-width:0px;" /><circle id="SPH01578" cx="669.02" cy="882.87" r="9.2" style="fill:#ccc; stroke-width:0px;" /><circle id="SPH01579" cx="938.19" cy="437.1" r="9.2" style="fill:#ccc; stroke-width:0px;" /><circle id="SPH01580" cx="928.68" cy="458.9" r="9.2" style="fill:#ccc; stroke-width:0px;" /><circle id="SPH01581" cx="919.19" cy="480.7" r="9.2" style="fill:#ccc; stroke-width:0px;" /><circle id="SPH01582" cx="909.69" cy="502.5" r="9.2" style="fill:#ccc; stroke-width:0px;" /><circle id="SPH01583" cx="900.19" cy="524.3" r="9.2" style="fill:#ccc; stroke-width:0px;" /><circle id="SPH01584" cx="890.68" cy="546.11" r="9.2" style="fill:#ccc; stroke-width:0px;" /><circle id="SPH01585" cx="880.64" cy="567.66" r="9.2" style="fill:#ccc; stroke-width:0px;" /><circle id="SPH01586" cx="870.2" cy="589.03" r="9.2" style="fill:#ccc; stroke-width:0px;" /><circle id="SPH01587" cx="859.76" cy="610.39" r="9.2" style="fill:#ccc; stroke-width:0px;" /><circle id="SPH01588" cx="849.33" cy="631.76" r="9.2" style="fill:#ccc; stroke-width:0px;" /><circle id="SPH01589" cx="838.9" cy="653.12" r="9.2" style="fill:#ccc; stroke-width:0px;" /><circle id="SPH01590" cx="828.46" cy="674.5" r="9.2" style="fill:#ccc; stroke-width:0px;" /><circle id="SPH01591" cx="818.04" cy="695.84" r="9.2" style="fill:#ccc; stroke-width:0px;" /><circle id="SPH01592" cx="807.11" cy="716.94" r="9.2" style="fill:#ccc; stroke-width:0px;" /><circle id="SPH01593" cx="795.76" cy="737.83" r="9.2" style="fill:#ccc; stroke-width:0px;" /><circle id="SPH01594" cx="784.4" cy="758.73" r="9.2" style="fill:#ccc; stroke-width:0px;" /><circle id="SPH01595" cx="773.05" cy="779.63" r="9.2" style="fill:#ccc; stroke-width:0px;" /><circle id="SPH01596" cx="761.71" cy="800.52" r="9.2" style="fill:#ccc; stroke-width:0px;" /><circle id="SPH01597" cx="750.36" cy="821.43" r="9.2" style="fill:#ccc; stroke-width:0px;" /><circle id="SPH01598" cx="739" cy="842.33" r="9.2" style="fill:#ccc; stroke-width:0px;" /><circle id="SPH01599" cx="727.18" cy="862.95" r="9.2" style="fill:#ccc; stroke-width:0px;" /><circle id="SPH01600" cx="714.94" cy="883.32" r="9.2" style="fill:#ccc; stroke-width:0px;" /><circle id="SPH01601" cx="702.7" cy="903.71" r="9.2" style="fill:#ccc; stroke-width:0px;" /><circle id="SPH01602" cx="974.78" cy="452.25" r="9.2" style="fill:#ccc; stroke-width:0px;" /><circle id="SPH01603" cx="965.58" cy="473.35" r="9.2" style="fill:#ccc; stroke-width:0px;" /><circle id="SPH01604" cx="956.39" cy="494.46" r="9.2" style="fill:#ccc; stroke-width:0px;" /><circle id="SPH01605" cx="947.2" cy="515.55" r="9.2" style="fill:#ccc; stroke-width:0px;" /><circle id="SPH01606" cx="938" cy="536.65" r="9.2" style="fill:#ccc; stroke-width:0px;" /><circle id="SPH01607" cx="928.8" cy="557.75" r="9.2" style="fill:#ccc; stroke-width:0px;" /><circle id="SPH01608" cx="919.32" cy="578.7" r="9.2" style="fill:#ccc; stroke-width:0px;" /><circle id="SPH01609" cx="909.22" cy="599.38" r="9.2" style="fill:#ccc; stroke-width:0px;" /><circle id="SPH01610" cx="899.12" cy="620.06" r="9.2" style="fill:#ccc; stroke-width:0px;" /><circle id="SPH01611" cx="889.02" cy="640.75" r="9.2" style="fill:#ccc; stroke-width:0px;" /><circle id="SPH01612" cx="878.92" cy="661.43" r="9.2" style="fill:#ccc; stroke-width:0px;" /><circle id="SPH01613" cx="868.82" cy="682.11" r="9.2" style="fill:#ccc; stroke-width:0px;" /><circle id="SPH01614" cx="858.72" cy="702.78" r="9.2" style="fill:#ccc; stroke-width:0px;" /><circle id="SPH01615" cx="848.63" cy="723.45" r="9.2" style="fill:#ccc; stroke-width:0px;" /><circle id="SPH01616" cx="837.64" cy="743.7" r="9.2" style="fill:#ccc; stroke-width:0px;" /><circle id="SPH01617" cx="826.64" cy="763.95" r="9.2" style="fill:#ccc; stroke-width:0px;" /><circle id="SPH01618" cx="815.64" cy="784.19" r="9.2" style="fill:#ccc; stroke-width:0px;" /><circle id="SPH01619" cx="804.65" cy="804.42" r="9.2" style="fill:#ccc; stroke-width:0px;" /><circle id="SPH01620" cx="793.66" cy="824.66" r="9.2" style="fill:#ccc; stroke-width:0px;" /><circle id="SPH01621" cx="782.67" cy="844.9" r="9.2" style="fill:#ccc; stroke-width:0px;" /><circle id="SPH01622" cx="771.68" cy="865.14" r="9.2" style="fill:#ccc; stroke-width:0px;" /><circle id="SPH01623" cx="760.11" cy="885.03" r="9.2" style="fill:#ccc; stroke-width:0px;" /><circle id="SPH01624" cx="748.27" cy="904.75" r="9.2" style="fill:#ccc; stroke-width:0px;" /><circle id="SPH01625" cx="736.42" cy="924.47" r="9.2" style="fill:#ccc; stroke-width:0px;" /><circle id="SPH01626" cx="1377.33" cy="618.87" r="9.2" style="fill:#ccc; stroke-width:0px;" /><circle id="SPH01627" cx="1368.15" cy="639.95" r="9.2" style="fill:#ccc; stroke-width:0px;" /><circle id="SPH01628" cx="1358.96" cy="661.01" r="9.2" style="fill:#ccc; stroke-width:0px;" /><circle id="SPH01629" cx="1349.78" cy="682.09" r="9.2" style="fill:#ccc; stroke-width:0px;" /><circle id="SPH01630" cx="1340.6" cy="703.17" r="9.2" style="fill:#ccc; stroke-width:0px;" /><circle id="SPH01631" cx="1331.41" cy="724.25" r="9.2" style="fill:#ccc; stroke-width:0px;" /><circle id="SPH01632" cx="1322.23" cy="745.32" r="9.2" style="fill:#ccc; stroke-width:0px;" /><circle id="SPH01633" cx="1312.54" cy="766.16" r="9.2" style="fill:#ccc; stroke-width:0px;" /><circle id="SPH01634" cx="1302.45" cy="786.81" r="9.2" style="fill:#ccc; stroke-width:0px;" /><circle id="SPH01635" cx="1292.36" cy="807.47" r="9.2" style="fill:#ccc; stroke-width:0px;" /><circle id="SPH01636" cx="1282.28" cy="828.12" r="9.2" style="fill:#ccc; stroke-width:0px;" /><circle id="SPH01637" cx="1272.18" cy="848.79" r="9.2" style="fill:#ccc; stroke-width:0px;" /><circle id="SPH01638" cx="1262.09" cy="869.45" r="9.2" style="fill:#ccc; stroke-width:0px;" /><circle id="SPH01639" cx="1252" cy="890.11" r="9.2" style="fill:#ccc; stroke-width:0px;" /><circle id="SPH01640" cx="1241.92" cy="910.77" r="9.2" style="fill:#ccc; stroke-width:0px;" /><circle id="SPH01641" cx="1231.48" cy="931.24" r="9.2" style="fill:#ccc; stroke-width:0px;" /><circle id="SPH01642" cx="1220.5" cy="951.45" r="9.2" style="fill:#ccc; stroke-width:0px;" /><circle id="SPH01643" cx="1209.52" cy="971.65" r="9.2" style="fill:#ccc; stroke-width:0px;" /><circle id="SPH01644" cx="1198.56" cy="991.85" r="9.2" style="fill:#ccc; stroke-width:0px;" /><circle id="SPH01645" cx="1187.58" cy="1012.05" r="9.2" style="fill:#ccc; stroke-width:0px;" /><circle id="SPH01646" cx="1176.61" cy="1032.26" r="9.2" style="fill:#ccc; stroke-width:0px;" /><circle id="SPH01647" cx="1165.64" cy="1052.46" r="9.2" style="fill:#ccc; stroke-width:0px;" /><circle id="SPH01648" cx="1154.66" cy="1072.67" r="9.2" style="fill:#ccc; stroke-width:0px;" /><circle id="SPH01649" cx="1143.48" cy="1092.75" r="9.2" style="fill:#ccc; stroke-width:0px;" /><circle id="SPH01650" cx="1131.64" cy="1112.46" r="9.2" style="fill:#ccc; stroke-width:0px;" /><circle id="SPH01651" cx="1119.8" cy="1132.16" r="9.2" style="fill:#ccc; stroke-width:0px;" /><circle id="SPH01652" cx="1107.99" cy="1151.84" r="9.2" style="fill:#ccc; stroke-width:0px;" /><circle id="SPH01653" cx="1011.37" cy="467.41" r="9.2" style="fill:#ccc; stroke-width:0px;" /><circle id="SPH01654" cx="1002.07" cy="488.76" r="9.2" style="fill:#ccc; stroke-width:0px;" /><circle id="SPH01655" cx="992.76" cy="510.11" r="9.2" style="fill:#ccc; stroke-width:0px;" /><circle id="SPH01656" cx="983.47" cy="531.45" r="9.2" style="fill:#ccc; stroke-width:0px;" /><circle id="SPH01657" cx="974.16" cy="552.79" r="9.2" style="fill:#ccc; stroke-width:0px;" /><circle id="SPH01658" cx="964.86" cy="574.14" r="9.2" style="fill:#ccc; stroke-width:0px;" /><circle id="SPH01659" cx="955.26" cy="595.34" r="9.2" style="fill:#ccc; stroke-width:0px;" /><circle id="SPH01660" cx="945.04" cy="616.27" r="9.2" style="fill:#ccc; stroke-width:0px;" /><circle id="SPH01661" cx="934.82" cy="637.19" r="9.2" style="fill:#ccc; stroke-width:0px;" /><circle id="SPH01662" cx="924.6" cy="658.12" r="9.2" style="fill:#ccc; stroke-width:0px;" /><circle id="SPH01663" cx="914.39" cy="679.03" r="9.2" style="fill:#ccc; stroke-width:0px;" /><circle id="SPH01664" cx="904.17" cy="699.95" r="9.2" style="fill:#ccc; stroke-width:0px;" /><circle id="SPH01665" cx="893.94" cy="720.89" r="9.2" style="fill:#ccc; stroke-width:0px;" /><circle id="SPH01666" cx="883.71" cy="741.83" r="9.2" style="fill:#ccc; stroke-width:0px;" /><circle id="SPH01667" cx="872.6" cy="762.27" r="9.2" style="fill:#ccc; stroke-width:0px;" /><circle id="SPH01668" cx="861.51" cy="782.71" r="9.2" style="fill:#ccc; stroke-width:0px;" /><circle id="SPH01669" cx="850.4" cy="803.15" r="9.2" style="fill:#ccc; stroke-width:0px;" /><circle id="SPH01670" cx="839.31" cy="823.59" r="9.2" style="fill:#ccc; stroke-width:0px;" /><circle id="SPH01671" cx="828.2" cy="844.04" r="9.2" style="fill:#ccc; stroke-width:0px;" /><circle id="SPH01672" cx="817.08" cy="864.5" r="9.2" style="fill:#ccc; stroke-width:0px;" /><circle id="SPH01673" cx="805.98" cy="884.95" r="9.2" style="fill:#ccc; stroke-width:0px;" /><circle id="SPH01674" cx="794.27" cy="905.07" r="9.2" style="fill:#ccc; stroke-width:0px;" /><circle id="SPH01675" cx="782.28" cy="925.02" r="9.2" style="fill:#ccc; stroke-width:0px;" /><circle id="SPH01676" cx="770.31" cy="944.97" r="9.2" style="fill:#ccc; stroke-width:0px;" /></g></svg>