<svg id="Layer_1" viewBox="0 0 1697.6 1405.17" xmlns="http://www.w3.org/2000/svg"><g id="back"><g id="back-2"><path id="sphere" d="M3462.27,239.79c0-1528.34-1241.46-2769.81-2769.81-2769.81S-2077.35-1288.55-2077.35,239.79-835.89,3009.6,692.46,3009.6h0c1528.34,0,2769.81-1241.46,2769.81-2769.81Z" style="fill:#f2f2f2; stroke:#ddd; stroke-miterlimit:10; stroke-width:3px;" /><path d="M-1644.16,238.46c0,655.33,307.79,1239.54,786.53,1615.79,66.08,51.94,160.31,48.05,221.66-9.39C-206.91,1443.15,61.44,871.81,61.44,238.46S-206.91-966.23-635.97-1367.94c-61.36-57.44-155.58-61.33-221.66-9.39-478.74,376.25-786.53,960.46-786.53,1615.79h0Z" style="fill:#e5e5e5; stroke:#ddd; stroke-miterlimit:10; stroke-width:3px;" /></g><g id="sectors"><path id="_203" d="M676.89,2165.46c-145.43-89.12-400.61-245.51-546.04-334.63,84.13-134.43,157.34-275.13,219.04-420.74h0c158.5,65.66,433.17,179.39,591.67,245.05,0,0-165.46,353.52-264.67,510.32h0Z" style="fill:#fff; stroke:#ddd; stroke-miterlimit:10; stroke-width:9px;" /><path id="_204" d="M941.56,1655.14c-38.71-16.04-433.14-179.42-591.65-245.07,61.78-145.78,112.02-296.48,150.13-450.7,207.57,49.83,415.13,99.66,622.7,149.5-30.57,124.33-67.81,247.45-111.69,368.81h0c-21.66,59.88-44.83,119.05-69.49,177.46h0Z" style="fill:#fff; stroke:#ddd; stroke-miterlimit:10; stroke-width:9px;" /><path id="_205" d="M500.04,959.37c207.57,49.83,415.15,99.67,622.72,149.5,50.62-205.84,82.98-415.04,97.07-625.17-54.3-4.27-479.96-37.77-638.47-50.25-8.94,138.44-27.51,276.4-55.69,412.89h0c-7.82,37.87-16.36,75.56-25.62,113.03h0Z" style="fill:#fff; stroke:#ddd; stroke-miterlimit:10; stroke-width:9px;" /><path id="_206" d="M1086.82,6.72c-158.53,12.48-346.93,27.23-505.44,39.7,8.33,128.88,8.33,258.16-.02,387.04,158.51,12.48,479.94,37.76,638.47,50.24,11.37-196.11,8.26-257.68-.71-487.53l-132.3,10.55h0Z" style="fill:#fff; stroke:#ddd; stroke-miterlimit:10; stroke-width:9px;" /><path id="_207" d="M581.38,46.42C739.89,33.95,1164.82.45,1219.12-3.83c-14.1-210.13-45.74-419.33-96.35-625.18-207.57,49.83-415.14,99.67-622.7,149.5,9.25,37.46,17.8,75.12,25.61,112.97h0c28.19,136.51,46.76,274.5,55.71,412.95h-.01Z" style="fill:#fff; stroke:#ddd; stroke-miterlimit:10; stroke-width:9px;" /><path id="_304" d="M1485.97,1094.86c-12.93,55.22-27.11,110.15-42.54,164.75-75.95,20.35-151.89,40.7-227.85,61.05-13.04,40.79-26.83,81.4-41.39,121.81-16.88,46.86-34.71,93.27-53.48,139.21,254.22,105.3,508.45,210.61,762.68,315.91,23.71-57.9,46.22-116.4,67.49-175.48,56.99-158.26,104.57-318.99,142.74-481.38h0c-202.56-48.63-405.12-97.26-607.66-145.88h0Z" style="fill:#fff; stroke:#ddd; stroke-miterlimit:10; stroke-width:9px;" /><path id="_305" d="M2093.63,1240.73c-202.56-48.63-405.12-97.26-607.66-145.88,32.38-138.24,56.9-278.33,73.41-419.58,6.5-55.69,11.76-111.48,15.76-167.35,207.66,16.34,415.33,32.69,623.01,49.03-10.51,144.74-28.24,289.08-53.18,432.48h0c-14.63,84.13-31.74,167.93-51.34,251.3h0Z" style="fill:#fff; stroke:#ddd; stroke-miterlimit:10; stroke-width:9px;" /><path id="_306" d="M2198.14,556.96c-207.68-16.34-415.35-32.69-623.01-49.03,12.79-178.43,12.79-357.55,0-535.97,207.67-16.35,415.35-32.69,623.03-49.04,7.67,105.48,11.49,211.17,11.49,316.86h0c0,105.8-3.84,211.59-11.52,317.17h0Z" style="fill:#fff; stroke:#ddd; stroke-miterlimit:10; stroke-width:9px;" /></g></g><g id="Seats"><circle id="SPH03458" cx="774.75" cy="492.18" r="9.2" style="fill:#ccc; stroke-width:0px;" /><circle id="SPH03459" cx="773.06" cy="517.22" r="9.2" style="fill:#ccc; stroke-width:0px;" /><circle id="SPH03460" cx="770.36" cy="542.16" r="9.2" style="fill:#ccc; stroke-width:0px;" /><circle id="SPH03461" cx="767.66" cy="567.11" r="9.2" style="fill:#ccc; stroke-width:0px;" /><circle id="SPH03462" cx="764.95" cy="592.06" r="9.2" style="fill:#ccc; stroke-width:0px;" /><circle id="SPH03463" cx="762.25" cy="617.02" r="9.2" style="fill:#ccc; stroke-width:0px;" /><circle id="SPH03464" cx="759.54" cy="641.96" r="9.2" style="fill:#ccc; stroke-width:0px;" /><circle id="SPH03465" cx="756.23" cy="666.82" r="9.2" style="fill:#ccc; stroke-width:0px;" /><circle id="SPH03466" cx="752.45" cy="691.63" r="9.2" style="fill:#ccc; stroke-width:0px;" /><circle id="SPH03467" cx="748.67" cy="716.43" r="9.2" style="fill:#ccc; stroke-width:0px;" /><circle id="SPH03468" cx="744.9" cy="741.22" r="9.2" style="fill:#ccc; stroke-width:0px;" /><circle id="SPH03469" cx="741.12" cy="766.02" r="9.2" style="fill:#ccc; stroke-width:0px;" /><circle id="SPH03470" cx="737.28" cy="790.8" r="9.2" style="fill:#ccc; stroke-width:0px;" /><circle id="SPH03471" cx="732.42" cy="815.45" r="9.2" style="fill:#ccc; stroke-width:0px;" /><circle id="SPH03472" cx="727.57" cy="840.09" r="9.2" style="fill:#ccc; stroke-width:0px;" /><circle id="SPH03473" cx="722.71" cy="864.73" r="9.2" style="fill:#ccc; stroke-width:0px;" /><circle id="SPH03474" cx="717.86" cy="889.35" r="9.2" style="fill:#ccc; stroke-width:0px;" /><circle id="SPH03475" cx="713.01" cy="913.98" r="9.2" style="fill:#ccc; stroke-width:0px;" /><circle id="SPH03476" cx="707.58" cy="938.46" r="9.2" style="fill:#ccc; stroke-width:0px;" /><circle id="SPH03477" cx="701.67" cy="962.82" r="9.2" style="fill:#ccc; stroke-width:0px;" /><circle id="SPH03478" cx="814.23" cy="495.29" r="9.2" style="fill:#ccc; stroke-width:0px;" /><circle id="SPH03479" cx="812.52" cy="520.64" r="9.2" style="fill:#ccc; stroke-width:0px;" /><circle id="SPH03480" cx="809.78" cy="545.9" r="9.2" style="fill:#ccc; stroke-width:0px;" /><circle id="SPH03481" cx="807.05" cy="571.18" r="9.2" style="fill:#ccc; stroke-width:0px;" /><circle id="SPH03482" cx="804.3" cy="596.46" r="9.2" style="fill:#ccc; stroke-width:0px;" /><circle id="SPH03483" cx="801.57" cy="621.74" r="9.2" style="fill:#ccc; stroke-width:0px;" /><circle id="SPH03484" cx="798.82" cy="647.02" r="9.2" style="fill:#ccc; stroke-width:0px;" /><circle id="SPH03485" cx="795.46" cy="672.21" r="9.2" style="fill:#ccc; stroke-width:0px;" /><circle id="SPH03486" cx="791.64" cy="697.34" r="9.2" style="fill:#ccc; stroke-width:0px;" /><circle id="SPH03487" cx="787.81" cy="722.46" r="9.2" style="fill:#ccc; stroke-width:0px;" /><circle id="SPH03488" cx="783.98" cy="747.59" r="9.2" style="fill:#ccc; stroke-width:0px;" /><circle id="SPH03489" cx="780.15" cy="772.73" r="9.2" style="fill:#ccc; stroke-width:0px;" /><circle id="SPH03490" cx="776.25" cy="797.87" r="9.2" style="fill:#ccc; stroke-width:0px;" /><circle id="SPH03491" cx="771.34" cy="822.78" r="9.2" style="fill:#ccc; stroke-width:0px;" /><circle id="SPH03492" cx="766.42" cy="847.7" r="9.2" style="fill:#ccc; stroke-width:0px;" /><circle id="SPH03493" cx="761.52" cy="872.62" r="9.2" style="fill:#ccc; stroke-width:0px;" /><circle id="SPH03494" cx="756.61" cy="897.54" r="9.2" style="fill:#ccc; stroke-width:0px;" /><circle id="SPH03495" cx="751.7" cy="922.46" r="9.2" style="fill:#ccc; stroke-width:0px;" /><circle id="SPH03496" cx="746.2" cy="947.24" r="9.2" style="fill:#ccc; stroke-width:0px;" /><circle id="SPH03497" cx="740.21" cy="971.92" r="9.2" style="fill:#ccc; stroke-width:0px;" /><circle id="SPH03498" cx="853.72" cy="498.4" r="9.2" style="fill:#ccc; stroke-width:0px;" /><circle id="SPH03499" cx="851.98" cy="524.06" r="9.2" style="fill:#ccc; stroke-width:0px;" /><circle id="SPH03500" cx="849.21" cy="549.66" r="9.2" style="fill:#ccc; stroke-width:0px;" /><circle id="SPH03501" cx="846.43" cy="575.26" r="9.2" style="fill:#ccc; stroke-width:0px;" /><circle id="SPH03502" cx="843.66" cy="600.85" r="9.2" style="fill:#ccc; stroke-width:0px;" /><circle id="SPH03503" cx="840.89" cy="626.45" r="9.2" style="fill:#ccc; stroke-width:0px;" /><circle id="SPH03504" cx="838.11" cy="652.05" r="9.2" style="fill:#ccc; stroke-width:0px;" /><circle id="SPH03505" cx="834.71" cy="677.57" r="9.2" style="fill:#ccc; stroke-width:0px;" /><circle id="SPH03506" cx="830.83" cy="703.02" r="9.2" style="fill:#ccc; stroke-width:0px;" /><circle id="SPH03507" cx="826.95" cy="728.48" r="9.2" style="fill:#ccc; stroke-width:0px;" /><circle id="SPH03508" cx="823.07" cy="753.94" r="9.2" style="fill:#ccc; stroke-width:0px;" /><circle id="SPH03509" cx="819.2" cy="779.35" r="9.2" style="fill:#ccc; stroke-width:0px;" /><circle id="SPH03510" cx="815.26" cy="804.74" r="9.2" style="fill:#ccc; stroke-width:0px;" /><circle id="SPH03511" cx="810.28" cy="830" r="9.2" style="fill:#ccc; stroke-width:0px;" /><circle id="SPH03512" cx="805.3" cy="855.25" r="9.2" style="fill:#ccc; stroke-width:0px;" /><circle id="SPH03513" cx="800.33" cy="880.5" r="9.2" style="fill:#ccc; stroke-width:0px;" /><circle id="SPH03514" cx="795.35" cy="905.75" r="9.2" style="fill:#ccc; stroke-width:0px;" /><circle id="SPH03515" cx="790.38" cy="931.01" r="9.2" style="fill:#ccc; stroke-width:0px;" /><circle id="SPH03516" cx="784.79" cy="956.12" r="9.2" style="fill:#ccc; stroke-width:0px;" /><circle id="SPH03517" cx="778.73" cy="981.13" r="9.2" style="fill:#ccc; stroke-width:0px;" /><circle id="SPH03518" cx="893.2" cy="501.5" r="9.2" style="fill:#ccc; stroke-width:0px;" /><circle id="SPH03519" cx="891.58" cy="526.21" r="9.2" style="fill:#ccc; stroke-width:0px;" /><circle id="SPH03520" cx="888.91" cy="550.82" r="9.2" style="fill:#ccc; stroke-width:0px;" /><circle id="SPH03521" cx="886.25" cy="575.43" r="9.2" style="fill:#ccc; stroke-width:0px;" /><circle id="SPH03522" cx="883.58" cy="600.04" r="9.2" style="fill:#ccc; stroke-width:0px;" /><circle id="SPH03523" cx="880.91" cy="624.66" r="9.2" style="fill:#ccc; stroke-width:0px;" /><circle id="SPH03524" cx="878.24" cy="649.3" r="9.2" style="fill:#ccc; stroke-width:0px;" /><circle id="SPH03525" cx="875.33" cy="673.9" r="9.2" style="fill:#ccc; stroke-width:0px;" /><circle id="SPH03526" cx="871.59" cy="698.38" r="9.2" style="fill:#ccc; stroke-width:0px;" /><circle id="SPH03527" cx="867.86" cy="722.87" r="9.2" style="fill:#ccc; stroke-width:0px;" /><circle id="SPH03528" cx="864.13" cy="747.35" r="9.2" style="fill:#ccc; stroke-width:0px;" /><circle id="SPH03529" cx="860.4" cy="771.83" r="9.2" style="fill:#ccc; stroke-width:0px;" /><circle id="SPH03530" cx="856.67" cy="796.31" r="9.2" style="fill:#ccc; stroke-width:0px;" /><circle id="SPH03531" cx="852.46" cy="820.72" r="9.2" style="fill:#ccc; stroke-width:0px;" /><circle id="SPH03532" cx="847.67" cy="845.06" r="9.2" style="fill:#ccc; stroke-width:0px;" /><circle id="SPH03533" cx="842.88" cy="869.38" r="9.2" style="fill:#ccc; stroke-width:0px;" /><circle id="SPH03534" cx="838.08" cy="893.71" r="9.2" style="fill:#ccc; stroke-width:0px;" /><circle id="SPH03535" cx="833.29" cy="918.03" r="9.2" style="fill:#ccc; stroke-width:0px;" /><circle id="SPH03536" cx="828.5" cy="942.34" r="9.2" style="fill:#ccc; stroke-width:0px;" /><circle id="SPH03537" cx="823.02" cy="966.49" r="9.2" style="fill:#ccc; stroke-width:0px;" /><circle id="SPH03538" cx="817.19" cy="990.55" r="9.2" style="fill:#ccc; stroke-width:0px;" /><circle id="SPH03539" cx="932.68" cy="504.61" r="9.2" style="fill:#ccc; stroke-width:0px;" /><circle id="SPH03540" cx="931.04" cy="529.63" r="9.2" style="fill:#ccc; stroke-width:0px;" /><circle id="SPH03541" cx="928.34" cy="554.56" r="9.2" style="fill:#ccc; stroke-width:0px;" /><circle id="SPH03542" cx="925.64" cy="579.48" r="9.2" style="fill:#ccc; stroke-width:0px;" /><circle id="SPH03543" cx="922.94" cy="604.4" r="9.2" style="fill:#ccc; stroke-width:0px;" /><circle id="SPH03544" cx="920.24" cy="629.33" r="9.2" style="fill:#ccc; stroke-width:0px;" /><circle id="SPH03545" cx="917.54" cy="654.27" r="9.2" style="fill:#ccc; stroke-width:0px;" /><circle id="SPH03546" cx="914.58" cy="679.18" r="9.2" style="fill:#ccc; stroke-width:0px;" /><circle id="SPH03547" cx="910.8" cy="703.96" r="9.2" style="fill:#ccc; stroke-width:0px;" /><circle id="SPH03548" cx="907.02" cy="728.75" r="9.2" style="fill:#ccc; stroke-width:0px;" /><circle id="SPH03549" cx="903.25" cy="753.54" r="9.2" style="fill:#ccc; stroke-width:0px;" /><circle id="SPH03550" cx="899.46" cy="778.34" r="9.2" style="fill:#ccc; stroke-width:0px;" /><circle id="SPH03551" cx="895.68" cy="803.16" r="9.2" style="fill:#ccc; stroke-width:0px;" /><circle id="SPH03552" cx="891.42" cy="827.88" r="9.2" style="fill:#ccc; stroke-width:0px;" /><circle id="SPH03553" cx="886.57" cy="852.46" r="9.2" style="fill:#ccc; stroke-width:0px;" /><circle id="SPH03554" cx="881.73" cy="877.06" r="9.2" style="fill:#ccc; stroke-width:0px;" /><circle id="SPH03555" cx="876.88" cy="901.65" r="9.2" style="fill:#ccc; stroke-width:0px;" /><circle id="SPH03556" cx="872.03" cy="926.24" r="9.2" style="fill:#ccc; stroke-width:0px;" /><circle id="SPH03557" cx="867.19" cy="950.83" r="9.2" style="fill:#ccc; stroke-width:0px;" /><circle id="SPH03558" cx="861.64" cy="975.29" r="9.2" style="fill:#ccc; stroke-width:0px;" /><circle id="SPH03559" cx="855.73" cy="999.66" r="9.2" style="fill:#ccc; stroke-width:0px;" /><circle id="SPH03560" cx="972.16" cy="507.72" r="9.2" style="fill:#ccc; stroke-width:0px;" /><circle id="SPH03561" cx="970.5" cy="533.04" r="9.2" style="fill:#ccc; stroke-width:0px;" /><circle id="SPH03562" cx="967.77" cy="558.28" r="9.2" style="fill:#ccc; stroke-width:0px;" /><circle id="SPH03563" cx="965.03" cy="583.52" r="9.2" style="fill:#ccc; stroke-width:0px;" /><circle id="SPH03564" cx="962.3" cy="608.75" r="9.2" style="fill:#ccc; stroke-width:0px;" /><circle id="SPH03565" cx="959.57" cy="633.99" r="9.2" style="fill:#ccc; stroke-width:0px;" /><circle id="SPH03566" cx="956.82" cy="659.24" r="9.2" style="fill:#ccc; stroke-width:0px;" /><circle id="SPH03567" cx="953.83" cy="684.45" r="9.2" style="fill:#ccc; stroke-width:0px;" /><circle id="SPH03568" cx="950.01" cy="709.54" r="9.2" style="fill:#ccc; stroke-width:0px;" /><circle id="SPH03569" cx="946.18" cy="734.65" r="9.2" style="fill:#ccc; stroke-width:0px;" /><circle id="SPH03570" cx="942.35" cy="759.76" r="9.2" style="fill:#ccc; stroke-width:0px;" /><circle id="SPH03571" cx="938.54" cy="784.84" r="9.2" style="fill:#ccc; stroke-width:0px;" /><circle id="SPH03572" cx="934.71" cy="809.9" r="9.2" style="fill:#ccc; stroke-width:0px;" /><circle id="SPH03573" cx="930.4" cy="834.88" r="9.2" style="fill:#ccc; stroke-width:0px;" /><circle id="SPH03574" cx="925.49" cy="859.8" r="9.2" style="fill:#ccc; stroke-width:0px;" /><circle id="SPH03575" cx="920.58" cy="884.7" r="9.2" style="fill:#ccc; stroke-width:0px;" /><circle id="SPH03576" cx="915.67" cy="909.61" r="9.2" style="fill:#ccc; stroke-width:0px;" /><circle id="SPH03577" cx="910.77" cy="934.52" r="9.2" style="fill:#ccc; stroke-width:0px;" /><circle id="SPH03578" cx="905.86" cy="959.43" r="9.2" style="fill:#ccc; stroke-width:0px;" /><circle id="SPH03579" cx="900.23" cy="984.19" r="9.2" style="fill:#ccc; stroke-width:0px;" /><circle id="SPH03580" cx="894.24" cy="1008.88" r="9.2" style="fill:#ccc; stroke-width:0px;" /><circle id="SPH03581" cx="1011.64" cy="510.82" r="9.2" style="fill:#ccc; stroke-width:0px;" /><circle id="SPH03582" cx="1009.97" cy="536.46" r="9.2" style="fill:#ccc; stroke-width:0px;" /><circle id="SPH03583" cx="1007.2" cy="562.01" r="9.2" style="fill:#ccc; stroke-width:0px;" /><circle id="SPH03584" cx="1004.43" cy="587.56" r="9.2" style="fill:#ccc; stroke-width:0px;" /><circle id="SPH03585" cx="1001.66" cy="613.1" r="9.2" style="fill:#ccc; stroke-width:0px;" /><circle id="SPH03586" cx="998.89" cy="638.66" r="9.2" style="fill:#ccc; stroke-width:0px;" /><circle id="SPH03587" cx="996.12" cy="664.21" r="9.2" style="fill:#ccc; stroke-width:0px;" /><circle id="SPH03588" cx="993.08" cy="689.74" r="9.2" style="fill:#ccc; stroke-width:0px;" /><circle id="SPH03589" cx="989.21" cy="715.14" r="9.2" style="fill:#ccc; stroke-width:0px;" /><circle id="SPH03590" cx="985.34" cy="740.54" r="9.2" style="fill:#ccc; stroke-width:0px;" /><circle id="SPH03591" cx="981.46" cy="765.95" r="9.2" style="fill:#ccc; stroke-width:0px;" /><circle id="SPH03592" cx="977.6" cy="791.35" r="9.2" style="fill:#ccc; stroke-width:0px;" /><circle id="SPH03593" cx="973.73" cy="816.76" r="9.2" style="fill:#ccc; stroke-width:0px;" /><circle id="SPH03594" cx="969.34" cy="842.09" r="9.2" style="fill:#ccc; stroke-width:0px;" /><circle id="SPH03595" cx="964.37" cy="867.32" r="9.2" style="fill:#ccc; stroke-width:0px;" /><circle id="SPH03596" cx="959.4" cy="892.54" r="9.2" style="fill:#ccc; stroke-width:0px;" /><circle id="SPH03597" cx="954.43" cy="917.76" r="9.2" style="fill:#ccc; stroke-width:0px;" /><circle id="SPH03598" cx="949.46" cy="942.99" r="9.2" style="fill:#ccc; stroke-width:0px;" /><circle id="SPH03599" cx="944.49" cy="968.22" r="9.2" style="fill:#ccc; stroke-width:0px;" /><circle id="SPH03600" cx="938.77" cy="993.29" r="9.2" style="fill:#ccc; stroke-width:0px;" /><circle id="SPH03601" cx="932.7" cy="1018.28" r="9.2" style="fill:#ccc; stroke-width:0px;" /><circle id="SPH03602" cx="1046.42" cy="567.7" r="9.2" style="fill:#ccc; stroke-width:0px;" /><circle id="SPH03603" cx="1043.8" cy="591.81" r="9.2" style="fill:#ccc; stroke-width:0px;" /><circle id="SPH03604" cx="1041.19" cy="615.9" r="9.2" style="fill:#ccc; stroke-width:0px;" /><circle id="SPH03605" cx="1038.58" cy="640.02" r="9.2" style="fill:#ccc; stroke-width:0px;" /><circle id="SPH03606" cx="1035.96" cy="664.14" r="9.2" style="fill:#ccc; stroke-width:0px;" /><circle id="SPH03607" cx="1033.34" cy="688.25" r="9.2" style="fill:#ccc; stroke-width:0px;" /><circle id="SPH03608" cx="1029.71" cy="712.22" r="9.2" transform="translate(161.75 1614.55) rotate(-80.78)" style="fill:#ccc; stroke-width:0px;" /><circle id="SPH03609" cx="1026.06" cy="736.19" r="9.2" transform="translate(135.02 1631.08) rotate(-80.78)" style="fill:#ccc; stroke-width:0px;" /><circle id="SPH03610" cx="1022.41" cy="760.16" r="9.2" style="fill:#ccc; stroke-width:0px;" /><circle id="SPH03611" cx="1018.75" cy="784.14" r="9.2" transform="translate(81.55 1664.13) rotate(-80.78)" style="fill:#ccc; stroke-width:0px;" /><circle id="SPH03612" cx="1015.1" cy="808.14" r="9.2" transform="translate(54.79 1680.68) rotate(-80.78)" style="fill:#ccc; stroke-width:0px;" /><circle id="SPH03613" cx="1011.43" cy="832.15" r="9.2" style="fill:#ccc; stroke-width:0px;" /><circle id="SPH03614" cx="1006.97" cy="855.98" r="9.2" style="fill:#ccc; stroke-width:0px;" /><circle id="SPH03615" cx="1002.28" cy="879.75" r="9.2" style="fill:#ccc; stroke-width:0px;" /><circle id="SPH03616" cx="997.59" cy="903.53" r="9.2" style="fill:#ccc; stroke-width:0px;" /><circle id="SPH03617" cx="992.9" cy="927.32" r="9.2" style="fill:#ccc; stroke-width:0px;" /><circle id="SPH03618" cx="988.22" cy="951.12" r="9.2" style="fill:#ccc; stroke-width:0px;" /><circle id="SPH03619" cx="983.53" cy="974.93" r="9.2" style="fill:#ccc; stroke-width:0px;" /><circle id="SPH03620" cx="1085.9" cy="570.82" r="9.2" style="fill:#ccc; stroke-width:0px;" /><circle id="SPH03621" cx="1083.26" cy="595.28" r="9.2" style="fill:#ccc; stroke-width:0px;" /><circle id="SPH03622" cx="1080.6" cy="619.75" r="9.2" style="fill:#ccc; stroke-width:0px;" /><circle id="SPH03623" cx="1077.95" cy="644.22" r="9.2" style="fill:#ccc; stroke-width:0px;" /><circle id="SPH03624" cx="1075.3" cy="668.7" r="9.2" style="fill:#ccc; stroke-width:0px;" /><circle id="SPH03625" cx="1072.64" cy="693.18" r="9.2" style="fill:#ccc; stroke-width:0px;" /><circle id="SPH03626" cx="1068.96" cy="717.52" r="9.2" style="fill:#ccc; stroke-width:0px;" /><circle id="SPH03627" cx="1065.26" cy="741.86" r="9.2" style="fill:#ccc; stroke-width:0px;" /><circle id="SPH03628" cx="1061.54" cy="766.2" r="9.2" style="fill:#ccc; stroke-width:0px;" /><circle id="SPH03629" cx="1057.84" cy="790.52" r="9.2" style="fill:#ccc; stroke-width:0px;" /><circle id="SPH03630" cx="1054.14" cy="814.82" r="9.2" style="fill:#ccc; stroke-width:0px;" /><circle id="SPH03631" cx="1050.43" cy="839.11" r="9.2" style="fill:#ccc; stroke-width:0px;" /><circle id="SPH03632" cx="1045.88" cy="863.3" r="9.2" style="fill:#ccc; stroke-width:0px;" /><circle id="SPH03633" cx="1041.12" cy="887.46" r="9.2" style="fill:#ccc; stroke-width:0px;" /><circle id="SPH03634" cx="1036.36" cy="911.61" r="9.2" style="fill:#ccc; stroke-width:0px;" /><circle id="SPH03635" cx="1031.6" cy="935.76" r="9.2" transform="translate(-57.32 1804.15) rotate(-80.78)" style="fill:#ccc; stroke-width:0px;" /><circle id="SPH03636" cx="1026.84" cy="959.93" r="9.2" transform="translate(-85.18 1819.75) rotate(-80.78)" style="fill:#ccc; stroke-width:0px;" /><circle id="SPH03637" cx="1022.08" cy="984.1" r="9.2" style="fill:#ccc; stroke-width:0px;" /><circle id="SPH03638" cx="616.82" cy="479.75" r="9.2" style="fill:#ccc; stroke-width:0px;" /><circle id="SPH03639" cx="615.08" cy="504.78" r="9.2" style="fill:#ccc; stroke-width:0px;" /><circle id="SPH03640" cx="612.38" cy="529.74" r="9.2" style="fill:#ccc; stroke-width:0px;" /><circle id="SPH03641" cx="609.67" cy="554.7" r="9.2" style="fill:#ccc; stroke-width:0px;" /><circle id="SPH03642" cx="606.97" cy="579.66" r="9.2" style="fill:#ccc; stroke-width:0px;" /><circle id="SPH03643" cx="604.26" cy="604.62" r="9.2" style="fill:#ccc; stroke-width:0px;" /><circle id="SPH03644" cx="601.56" cy="629.58" r="9.2" style="fill:#ccc; stroke-width:0px;" /><circle id="SPH03645" cx="597.9" cy="654.4" r="9.2" style="fill:#ccc; stroke-width:0px;" /><circle id="SPH03646" cx="594.12" cy="679.21" r="9.2" style="fill:#ccc; stroke-width:0px;" /><circle id="SPH03647" cx="590.34" cy="704.02" r="9.2" style="fill:#ccc; stroke-width:0px;" /><circle id="SPH03648" cx="586.55" cy="728.84" r="9.2" style="fill:#ccc; stroke-width:0px;" /><circle id="SPH03649" cx="582.78" cy="753.65" r="9.2" style="fill:#ccc; stroke-width:0px;" /><circle id="SPH03650" cx="578.3" cy="778.32" r="9.2" style="fill:#ccc; stroke-width:0px;" /><circle id="SPH03651" cx="573.44" cy="802.93" r="9.2" style="fill:#ccc; stroke-width:0px;" /><circle id="SPH03652" cx="568.59" cy="827.54" r="9.2" style="fill:#ccc; stroke-width:0px;" /><circle id="SPH03653" cx="563.74" cy="852.15" r="9.2" style="fill:#ccc; stroke-width:0px;" /><circle id="SPH03654" cx="558.9" cy="876.77" r="9.2" style="fill:#ccc; stroke-width:0px;" /><circle id="SPH03655" cx="553.61" cy="901.29" r="9.2" style="fill:#ccc; stroke-width:0px;" /><circle id="SPH03656" cx="547.69" cy="925.7" r="9.2" style="fill:#ccc; stroke-width:0px;" /><circle id="SPH03657" cx="656.31" cy="482.86" r="9.2" style="fill:#ccc; stroke-width:0px;" /><circle id="SPH03658" cx="654.54" cy="508.24" r="9.2" style="fill:#ccc; stroke-width:0px;" /><circle id="SPH03659" cx="651.8" cy="533.54" r="9.2" style="fill:#ccc; stroke-width:0px;" /><circle id="SPH03660" cx="649.06" cy="558.84" r="9.2" style="fill:#ccc; stroke-width:0px;" /><circle id="SPH03661" cx="646.31" cy="584.14" r="9.2" style="fill:#ccc; stroke-width:0px;" /><circle id="SPH03662" cx="643.57" cy="609.45" r="9.2" style="fill:#ccc; stroke-width:0px;" /><circle id="SPH03663" cx="640.83" cy="634.74" r="9.2" style="fill:#ccc; stroke-width:0px;" /><circle id="SPH03664" cx="637.11" cy="659.92" r="9.2" style="fill:#ccc; stroke-width:0px;" /><circle id="SPH03665" cx="633.28" cy="685.06" r="9.2" style="fill:#ccc; stroke-width:0px;" /><circle id="SPH03666" cx="629.45" cy="710.22" r="9.2" style="fill:#ccc; stroke-width:0px;" /><circle id="SPH03667" cx="625.62" cy="735.36" r="9.2" style="fill:#ccc; stroke-width:0px;" /><circle id="SPH03668" cx="621.78" cy="760.5" r="9.2" style="fill:#ccc; stroke-width:0px;" /><circle id="SPH03669" cx="617.23" cy="785.54" r="9.2" style="fill:#ccc; stroke-width:0px;" /><circle id="SPH03670" cx="612.3" cy="810.54" r="9.2" style="fill:#ccc; stroke-width:0px;" /><circle id="SPH03671" cx="607.38" cy="835.52" r="9.2" style="fill:#ccc; stroke-width:0px;" /><circle id="SPH03672" cx="602.46" cy="860.51" r="9.2" style="fill:#ccc; stroke-width:0px;" /><circle id="SPH03673" cx="597.54" cy="885.5" r="9.2" style="fill:#ccc; stroke-width:0px;" /><circle id="SPH03674" cx="592.15" cy="910.36" r="9.2" style="fill:#ccc; stroke-width:0px;" /><circle id="SPH03675" cx="586.16" cy="935.07" r="9.2" style="fill:#ccc; stroke-width:0px;" /><circle id="SPH03676" cx="695.79" cy="485.97" r="9.2" style="fill:#ccc; stroke-width:0px;" /><circle id="SPH03677" cx="694" cy="511.7" r="9.2" style="fill:#ccc; stroke-width:0px;" /><circle id="SPH03678" cx="691.22" cy="537.34" r="9.2" style="fill:#ccc; stroke-width:0px;" /><circle id="SPH03679" cx="688.44" cy="562.98" r="9.2" style="fill:#ccc; stroke-width:0px;" /><circle id="SPH03680" cx="685.66" cy="588.62" r="9.2" style="fill:#ccc; stroke-width:0px;" /><circle id="SPH03681" cx="682.88" cy="614.28" r="9.2" style="fill:#ccc; stroke-width:0px;" /><circle id="SPH03682" cx="680.1" cy="639.92" r="9.2" style="fill:#ccc; stroke-width:0px;" /><circle id="SPH03683" cx="676.33" cy="665.42" r="9.2" style="fill:#ccc; stroke-width:0px;" /><circle id="SPH03684" cx="672.45" cy="690.92" r="9.2" style="fill:#ccc; stroke-width:0px;" /><circle id="SPH03685" cx="668.56" cy="716.42" r="9.2" style="fill:#ccc; stroke-width:0px;" /><circle id="SPH03686" cx="664.67" cy="741.91" r="9.2" style="fill:#ccc; stroke-width:0px;" /><circle id="SPH03687" cx="660.78" cy="767.44" r="9.2" style="fill:#ccc; stroke-width:0px;" /><circle id="SPH03688" cx="656.16" cy="792.79" r="9.2" style="fill:#ccc; stroke-width:0px;" /><circle id="SPH03689" cx="651.18" cy="818.07" r="9.2" style="fill:#ccc; stroke-width:0px;" /><circle id="SPH03690" cx="646.2" cy="843.38" r="9.2" style="fill:#ccc; stroke-width:0px;" /><circle id="SPH03691" cx="641.21" cy="868.67" r="9.2" style="fill:#ccc; stroke-width:0px;" /><circle id="SPH03692" cx="636.22" cy="893.98" r="9.2" style="fill:#ccc; stroke-width:0px;" /><circle id="SPH03693" cx="630.77" cy="919.16" r="9.2" style="fill:#ccc; stroke-width:0px;" /><circle id="SPH03694" cx="624.69" cy="944.2" r="9.2" style="fill:#ccc; stroke-width:0px;" /><circle id="SPH03695" cx="1125.4" cy="573.92" r="9.2" style="fill:#ccc; stroke-width:0px;" /><circle id="SPH03696" cx="1122.86" cy="597.38" r="9.2" style="fill:#ccc; stroke-width:0px;" /><circle id="SPH03697" cx="1120.32" cy="620.83" r="9.2" style="fill:#ccc; stroke-width:0px;" /><circle id="SPH03698" cx="1117.78" cy="644.29" r="9.2" style="fill:#ccc; stroke-width:0px;" /><circle id="SPH03699" cx="1115.23" cy="667.74" r="9.2" style="fill:#ccc; stroke-width:0px;" /><circle id="SPH03700" cx="1112.69" cy="691.2" r="9.2" style="fill:#ccc; stroke-width:0px;" /><circle id="SPH03701" cx="1109.47" cy="714.56" r="9.2" style="fill:#ccc; stroke-width:0px;" /><circle id="SPH03702" cx="1105.91" cy="737.89" r="9.2" style="fill:#ccc; stroke-width:0px;" /><circle id="SPH03703" cx="1102.36" cy="761.22" r="9.2" style="fill:#ccc; stroke-width:0px;" /><circle id="SPH03704" cx="1098.81" cy="784.54" r="9.2" style="fill:#ccc; stroke-width:0px;" /><circle id="SPH03705" cx="1095.25" cy="807.86" r="9.2" style="fill:#ccc; stroke-width:0px;" /><circle id="SPH03706" cx="1091.7" cy="831.18" r="9.2" style="fill:#ccc; stroke-width:0px;" /><circle id="SPH03707" cx="1087.98" cy="854.48" r="9.2" style="fill:#ccc; stroke-width:0px;" /><circle id="SPH03708" cx="1083.42" cy="877.64" r="9.2" style="fill:#ccc; stroke-width:0px;" /><circle id="SPH03709" cx="1078.86" cy="900.79" r="9.2" style="fill:#ccc; stroke-width:0px;" /><circle id="SPH03710" cx="1074.3" cy="923.94" r="9.2" style="fill:#ccc; stroke-width:0px;" /><circle id="SPH03711" cx="1069.74" cy="947.09" r="9.2" style="fill:#ccc; stroke-width:0px;" /><circle id="SPH03712" cx="1065.17" cy="970.24" r="9.2" style="fill:#ccc; stroke-width:0px;" /><circle id="SPH03713" cx="1060.61" cy="993.39" r="9.2" style="fill:#ccc; stroke-width:0px;" /><circle id="SPH03714" cx="735.27" cy="489.08" r="9.2" style="fill:#ccc; stroke-width:0px;" /><circle id="SPH03715" cx="733.6" cy="513.78" r="9.2" style="fill:#ccc; stroke-width:0px;" /><circle id="SPH03716" cx="730.94" cy="538.4" r="9.2" style="fill:#ccc; stroke-width:0px;" /><circle id="SPH03717" cx="728.26" cy="563.02" r="9.2" style="fill:#ccc; stroke-width:0px;" /><circle id="SPH03718" cx="725.6" cy="587.65" r="9.2" style="fill:#ccc; stroke-width:0px;" /><circle id="SPH03719" cx="722.93" cy="612.27" r="9.2" style="fill:#ccc; stroke-width:0px;" /><circle id="SPH03720" cx="720.26" cy="636.9" r="9.2" style="fill:#ccc; stroke-width:0px;" /><circle id="SPH03721" cx="716.99" cy="661.43" r="9.2" style="fill:#ccc; stroke-width:0px;" /><circle id="SPH03722" cx="713.26" cy="685.91" r="9.2" style="fill:#ccc; stroke-width:0px;" /><circle id="SPH03723" cx="709.54" cy="710.38" r="9.2" style="fill:#ccc; stroke-width:0px;" /><circle id="SPH03724" cx="705.81" cy="734.87" r="9.2" style="fill:#ccc; stroke-width:0px;" /><circle id="SPH03725" cx="702.07" cy="759.35" r="9.2" style="fill:#ccc; stroke-width:0px;" /><circle id="SPH03726" cx="698.3" cy="783.77" r="9.2" style="fill:#ccc; stroke-width:0px;" /><circle id="SPH03727" cx="693.52" cy="808.06" r="9.2" style="fill:#ccc; stroke-width:0px;" /><circle id="SPH03728" cx="688.73" cy="832.34" r="9.2" style="fill:#ccc; stroke-width:0px;" /><circle id="SPH03729" cx="683.95" cy="856.62" r="9.2" style="fill:#ccc; stroke-width:0px;" /><circle id="SPH03730" cx="679.16" cy="880.9" r="9.2" style="fill:#ccc; stroke-width:0px;" /><circle id="SPH03731" cx="674.38" cy="905.18" r="9.2" style="fill:#ccc; stroke-width:0px;" /><circle id="SPH03732" cx="669.04" cy="929.35" r="9.2" style="fill:#ccc; stroke-width:0px;" /><circle id="SPH03733" cx="663.21" cy="953.41" r="9.2" style="fill:#ccc; stroke-width:0px;" /><circle id="SPH03734" cx="1164.9" cy="577.03" r="9.2" style="fill:#ccc; stroke-width:0px;" /><circle id="SPH03735" cx="1162.32" cy="600.82" r="9.2" style="fill:#ccc; stroke-width:0px;" /><circle id="SPH03736" cx="1159.74" cy="624.63" r="9.2" style="fill:#ccc; stroke-width:0px;" /><circle id="SPH03737" cx="1157.16" cy="648.43" r="9.2" style="fill:#ccc; stroke-width:0px;" /><circle id="SPH03738" cx="1154.58" cy="672.23" r="9.2" style="fill:#ccc; stroke-width:0px;" /><circle id="SPH03739" cx="1152" cy="696.04" r="9.2" style="fill:#ccc; stroke-width:0px;" /><circle id="SPH03740" cx="1148.74" cy="719.74" r="9.2" style="fill:#ccc; stroke-width:0px;" /><circle id="SPH03741" cx="1145.13" cy="743.41" r="9.2" style="fill:#ccc; stroke-width:0px;" /><circle id="SPH03742" cx="1141.53" cy="767.07" r="9.2" style="fill:#ccc; stroke-width:0px;" /><circle id="SPH03743" cx="1137.92" cy="790.73" r="9.2" style="fill:#ccc; stroke-width:0px;" /><circle id="SPH03744" cx="1134.3" cy="814.43" r="9.2" style="fill:#ccc; stroke-width:0px;" /><circle id="SPH03745" cx="1130.7" cy="838.14" r="9.2" style="fill:#ccc; stroke-width:0px;" /><circle id="SPH03746" cx="1126.9" cy="861.79" r="9.2" style="fill:#ccc; stroke-width:0px;" /><circle id="SPH03747" cx="1122.27" cy="885.27" r="9.2" style="fill:#ccc; stroke-width:0px;" /><circle id="SPH03748" cx="1117.65" cy="908.75" r="9.2" style="fill:#ccc; stroke-width:0px;" /><circle id="SPH03749" cx="1113.02" cy="932.24" r="9.2" style="fill:#ccc; stroke-width:0px;" /><circle id="SPH03750" cx="1108.39" cy="955.74" r="9.2" style="fill:#ccc; stroke-width:0px;" /><circle id="SPH03751" cx="1103.76" cy="979.22" r="9.2" style="fill:#ccc; stroke-width:0px;" /><circle id="SPH03752" cx="1099.14" cy="1002.72" r="9.2" style="fill:#ccc; stroke-width:0px;" /></g></svg>