<svg id="Layer_1" viewBox="0 0 1697.6 1405.17" xmlns="http://www.w3.org/2000/svg"><g id="back"><g id="back-2"><path id="sphere" d="M2501.26,86.66c0-1528.34-1241.46-2769.81-2769.81-2769.81S-3038.36-1441.68-3038.36,86.66-1796.9,2856.47-268.55,2856.47h0c1528.34,0,2769.81-1241.46,2769.81-2769.81Z" style="fill:#f2f2f2; stroke:#ddd; stroke-miterlimit:10; stroke-width:3px;" /></g><g id="sectors"><path id="_204" d="M-19.45,1502.01c-38.71-16.04-433.14-179.42-591.65-245.07,61.78-145.78,112.02-296.48,150.13-450.7,207.57,49.83,415.13,99.66,622.7,149.5-30.57,124.33-67.81,247.45-111.69,368.81h0c-21.66,59.88-44.83,119.05-69.49,177.46h0Z" style="fill:#fff; stroke:#ddd; stroke-miterlimit:10; stroke-width:9px;" /><path id="_205" d="M-460.97,806.24c207.57,49.83,415.15,99.67,622.72,149.5,50.62-205.84,82.98-415.04,97.07-625.17-54.3-4.27-479.96-37.77-638.47-50.25-8.94,138.44-27.51,276.4-55.69,412.89h0c-7.82,37.87-16.36,75.56-25.62,113.03h0Z" style="fill:#fff; stroke:#ddd; stroke-miterlimit:10; stroke-width:9px;" /><path id="_206" d="M125.81-146.41c-158.53,12.48-346.93,27.23-505.44,39.7,8.33,128.88,8.33,258.16-.02,387.04,158.51,12.48,479.94,37.76,638.47,50.24,11.37-196.11,8.26-257.68-.71-487.53l-132.3,10.55h0Z" style="fill:#fff; stroke:#ddd; stroke-miterlimit:10; stroke-width:9px;" /><path id="_304" d="M524.96,941.73c-12.93,55.22-27.11,110.15-42.54,164.75-75.95,20.35-151.89,40.7-227.85,61.05-13.04,40.79-26.83,81.4-41.39,121.81-16.88,46.86-34.71,93.27-53.48,139.21,254.22,105.3,508.45,210.61,762.68,315.91,23.71-57.9,46.22-116.4,67.49-175.48,56.99-158.26,104.57-318.99,142.74-481.38h0c-202.56-48.63-405.12-97.26-607.66-145.88h0Z" style="fill:#fff; stroke:#ddd; stroke-miterlimit:10; stroke-width:9px;" /><path id="_305" d="M1132.62,1087.6c-202.56-48.63-405.12-97.26-607.66-145.88,32.38-138.24,56.9-278.33,73.41-419.58,6.5-55.69,11.76-111.48,15.76-167.35,207.66,16.34,415.33,32.69,623.01,49.03-10.51,144.74-28.24,289.08-53.18,432.48h0c-14.63,84.13-31.74,167.93-51.34,251.3h0Z" style="fill:#fff; stroke:#ddd; stroke-miterlimit:10; stroke-width:9px;" /><path id="_306" d="M1237.13,403.83c-207.68-16.34-415.35-32.69-623.01-49.03,12.79-178.43,12.79-357.55,0-535.97,207.67-16.35,415.35-32.69,623.03-49.04,7.67,105.48,11.49,211.17,11.49,316.86h0c0,105.8-3.84,211.59-11.52,317.17h0Z" style="fill:#fff; stroke:#ddd; stroke-miterlimit:10; stroke-width:9px;" /><path id="_405" d="M2036.36,1304.57c133.85-250.71,227.69-525.62,273.08-816.35-30.41-2.39-60.81-4.78-91.21-7.18-327-25.74-654-51.47-980.98-77.21-10.51,144.77-28.24,289.12-53.18,432.54-14.63,84.11-31.74,167.9-51.33,251.25h0c301.2,72.31,602.4,144.62,903.62,216.94h0Z" style="fill:#fff; stroke:#ddd; stroke-miterlimit:10; stroke-width:9px;" /><path id="_404" d="M922.52,1744.5c23.71-57.89,46.21-116.38,67.48-175.44,3.56-9.8,7.11-19.6,10.59-29.43,35.18-99.44,66.58-200.11,94.18-301.9,2.86-10.54,5.62-21.11,8.4-31.66,10.42-39.37,20.28-78.85,29.58-118.43,301.19,72.32,602.4,144.63,903.61,216.94-83.29,156.03-182.08,302.68-294.32,437.95-105.11,114.41-204.72,222.02-231.76,245.45l-10.34-4.3s-384.96-159.46-577.42-239.18h0Z" style="fill:#fff; stroke:#ddd; stroke-miterlimit:10; stroke-width:9px;" /><path id="_406" d="M1246.26,243.37c-1.39,37.29-3.33,74.29-5.71,111.52-1,16.32-2.1,32.63-3.29,48.94,339.15,26.69,1072.18,84.39,1072.18,84.39,31.65-361.76,31.65-560.39.05-802.83,0,0-733.06,57.7-1072.22,84.39,1.19,16.25,2.28,32.51,3.28,48.77,2.38,37.23,4.32,74.23,5.71,111.52h0c3.89,104.43,3.89,208.87,0,313.29h0Z" style="fill:#fff; stroke:#ddd; stroke-miterlimit:10; stroke-width:9px;" /></g></g><g id="Seats"><circle id="SPH06535" cx="844.52" cy="416.44" r="9.2" style="fill:#ccc; stroke-width:0px;" /><circle id="SPH06536" cx="842.53" cy="440.01" r="9.2" style="fill:#ccc; stroke-width:0px;" /><circle id="SPH06537" cx="839.99" cy="463.53" r="9.2" style="fill:#ccc; stroke-width:0px;" /><circle id="SPH06538" cx="837.45" cy="487.06" r="9.2" style="fill:#ccc; stroke-width:0px;" /><circle id="SPH06539" cx="834.91" cy="510.58" r="9.2" style="fill:#ccc; stroke-width:0px;" /><circle id="SPH06540" cx="832.38" cy="534.11" r="9.2" style="fill:#ccc; stroke-width:0px;" /><circle id="SPH06541" cx="829.84" cy="557.6" r="9.2" style="fill:#ccc; stroke-width:0px;" /><circle id="SPH06542" cx="827.3" cy="581.12" r="9.2" style="fill:#ccc; stroke-width:0px;" /><circle id="SPH06543" cx="824.55" cy="604.6" r="9.2" style="fill:#ccc; stroke-width:0px;" /><circle id="SPH06544" cx="820.99" cy="628" r="9.2" style="fill:#ccc; stroke-width:0px;" /><circle id="SPH06545" cx="817.44" cy="651.38" r="9.2" style="fill:#ccc; stroke-width:0px;" /><circle id="SPH06546" cx="813.9" cy="674.78" r="9.2" style="fill:#ccc; stroke-width:0px;" /><circle id="SPH06547" cx="810.35" cy="698.14" r="9.2" style="fill:#ccc; stroke-width:0px;" /><circle id="SPH06548" cx="806.81" cy="721.48" r="9.2" style="fill:#ccc; stroke-width:0px;" /><circle id="SPH06549" cx="803.26" cy="744.83" r="9.2" style="fill:#ccc; stroke-width:0px;" /><circle id="SPH06550" cx="799.71" cy="768.19" r="9.2" style="fill:#ccc; stroke-width:0px;" /><circle id="SPH06551" cx="795.21" cy="791.41" r="9.2" style="fill:#ccc; stroke-width:0px;" /><circle id="SPH06552" cx="790.65" cy="814.63" r="9.2" style="fill:#ccc; stroke-width:0px;" /><circle id="SPH06553" cx="786.1" cy="837.85" r="9.2" style="fill:#ccc; stroke-width:0px;" /><circle id="SPH06554" cx="781.54" cy="861.07" r="9.2" style="fill:#ccc; stroke-width:0px;" /><circle id="SPH06555" cx="776.98" cy="884.29" r="9.2" style="fill:#ccc; stroke-width:0px;" /><circle id="SPH06556" cx="772.42" cy="907.52" r="9.2" style="fill:#ccc; stroke-width:0px;" /><circle id="SPH06557" cx="767.87" cy="930.74" r="9.2" style="fill:#ccc; stroke-width:0px;" /><circle id="SPH06558" cx="762.62" cy="953.81" r="9.2" style="fill:#ccc; stroke-width:0px;" /><circle id="SPH06559" cx="884.01" cy="419.54" r="9.2" style="fill:#ccc; stroke-width:0px;" /><circle id="SPH06560" cx="882.11" cy="442.39" r="9.2" style="fill:#ccc; stroke-width:0px;" /><circle id="SPH06561" cx="879.64" cy="465.19" r="9.2" style="fill:#ccc; stroke-width:0px;" /><circle id="SPH06562" cx="877.18" cy="488" r="9.2" style="fill:#ccc; stroke-width:0px;" /><circle id="SPH06563" cx="874.72" cy="510.81" r="9.2" style="fill:#ccc; stroke-width:0px;" /><circle id="SPH06564" cx="872.26" cy="533.61" r="9.2" style="fill:#ccc; stroke-width:0px;" /><circle id="SPH06565" cx="869.8" cy="556.39" r="9.2" style="fill:#ccc; stroke-width:0px;" /><circle id="SPH06566" cx="867.34" cy="579.18" r="9.2" style="fill:#ccc; stroke-width:0px;" /><circle id="SPH06567" cx="864.88" cy="601.97" r="9.2" style="fill:#ccc; stroke-width:0px;" /><circle id="SPH06568" cx="861.55" cy="624.67" r="9.2" style="fill:#ccc; stroke-width:0px;" /><circle id="SPH06569" cx="858.11" cy="647.34" r="9.2" style="fill:#ccc; stroke-width:0px;" /><circle id="SPH06570" cx="854.67" cy="670" r="9.2" style="fill:#ccc; stroke-width:0px;" /><circle id="SPH06571" cx="851.23" cy="692.67" r="9.2" style="fill:#ccc; stroke-width:0px;" /><circle id="SPH06572" cx="847.79" cy="715.34" r="9.2" style="fill:#ccc; stroke-width:0px;" /><circle id="SPH06573" cx="844.35" cy="738" r="9.2" style="fill:#ccc; stroke-width:0px;" /><circle id="SPH06574" cx="840.91" cy="760.67" r="9.2" style="fill:#ccc; stroke-width:0px;" /><circle id="SPH06575" cx="837.15" cy="783.29" r="9.2" style="fill:#ccc; stroke-width:0px;" /><circle id="SPH06576" cx="832.74" cy="805.81" r="9.2" style="fill:#ccc; stroke-width:0px;" /><circle id="SPH06577" cx="828.32" cy="828.32" r="9.2" style="fill:#ccc; stroke-width:0px;" /><circle id="SPH06578" cx="823.9" cy="850.83" r="9.2" style="fill:#ccc; stroke-width:0px;" /><circle id="SPH06579" cx="819.48" cy="873.35" r="9.2" style="fill:#ccc; stroke-width:0px;" /><circle id="SPH06580" cx="815.06" cy="895.87" r="9.2" style="fill:#ccc; stroke-width:0px;" /><circle id="SPH06581" cx="810.64" cy="918.39" r="9.2" style="fill:#ccc; stroke-width:0px;" /><circle id="SPH06582" cx="806.22" cy="940.92" r="9.2" style="fill:#ccc; stroke-width:0px;" /><circle id="SPH06583" cx="801.07" cy="963.27" r="9.2" style="fill:#ccc; stroke-width:0px;" /><circle id="SPH06584" cx="923.49" cy="422.66" r="9.2" style="fill:#ccc; stroke-width:0px;" /><circle id="SPH06585" cx="921.57" cy="445.76" r="9.2" style="fill:#ccc; stroke-width:0px;" /><circle id="SPH06586" cx="919.08" cy="468.82" r="9.2" style="fill:#ccc; stroke-width:0px;" /><circle id="SPH06587" cx="916.59" cy="491.87" r="9.2" style="fill:#ccc; stroke-width:0px;" /><circle id="SPH06588" cx="914.11" cy="514.91" r="9.2" style="fill:#ccc; stroke-width:0px;" /><circle id="SPH06589" cx="911.62" cy="537.95" r="9.2" style="fill:#ccc; stroke-width:0px;" /><circle id="SPH06590" cx="909.13" cy="561" r="9.2" style="fill:#ccc; stroke-width:0px;" /><circle id="SPH06591" cx="906.64" cy="584.05" r="9.2" style="fill:#ccc; stroke-width:0px;" /><circle id="SPH06592" cx="904.15" cy="607.11" r="9.2" style="fill:#ccc; stroke-width:0px;" /><circle id="SPH06593" cx="900.79" cy="630.05" r="9.2" style="fill:#ccc; stroke-width:0px;" /><circle id="SPH06594" cx="897.31" cy="652.98" r="9.2" style="fill:#ccc; stroke-width:0px;" /><circle id="SPH06595" cx="893.83" cy="675.91" r="9.2" style="fill:#ccc; stroke-width:0px;" /><circle id="SPH06596" cx="890.35" cy="698.85" r="9.2" style="fill:#ccc; stroke-width:0px;" /><circle id="SPH06597" cx="886.87" cy="721.8" r="9.2" style="fill:#ccc; stroke-width:0px;" /><circle id="SPH06598" cx="883.38" cy="744.75" r="9.2" style="fill:#ccc; stroke-width:0px;" /><circle id="SPH06599" cx="879.9" cy="767.71" r="9.2" style="fill:#ccc; stroke-width:0px;" /><circle id="SPH06600" cx="876.08" cy="790.59" r="9.2" style="fill:#ccc; stroke-width:0px;" /><circle id="SPH06601" cx="871.61" cy="813.35" r="9.2" style="fill:#ccc; stroke-width:0px;" /><circle id="SPH06602" cx="867.15" cy="836.09" r="9.2" style="fill:#ccc; stroke-width:0px;" /><circle id="SPH06603" cx="862.68" cy="858.84" r="9.2" style="fill:#ccc; stroke-width:0px;" /><circle id="SPH06604" cx="858.22" cy="881.6" r="9.2" style="fill:#ccc; stroke-width:0px;" /><circle id="SPH06605" cx="853.75" cy="904.38" r="9.2" style="fill:#ccc; stroke-width:0px;" /><circle id="SPH06606" cx="849.27" cy="927.15" r="9.2" style="fill:#ccc; stroke-width:0px;" /><circle id="SPH06607" cx="844.81" cy="949.93" r="9.2" style="fill:#ccc; stroke-width:0px;" /><circle id="SPH06608" cx="839.57" cy="972.53" r="9.2" style="fill:#ccc; stroke-width:0px;" /><circle id="SPH06609" cx="962.97" cy="425.76" r="9.2" style="fill:#ccc; stroke-width:0px;" /><circle id="SPH06610" cx="961.03" cy="449.13" r="9.2" style="fill:#ccc; stroke-width:0px;" /><circle id="SPH06611" cx="958.52" cy="472.44" r="9.2" style="fill:#ccc; stroke-width:0px;" /><circle id="SPH06612" cx="956.01" cy="495.75" r="9.2" style="fill:#ccc; stroke-width:0px;" /><circle id="SPH06613" cx="953.49" cy="519.05" r="9.2" style="fill:#ccc; stroke-width:0px;" /><circle id="SPH06614" cx="950.98" cy="542.35" r="9.2" style="fill:#ccc; stroke-width:0px;" /><circle id="SPH06615" cx="948.46" cy="565.66" r="9.2" style="fill:#ccc; stroke-width:0px;" /><circle id="SPH06616" cx="945.95" cy="588.96" r="9.2" style="fill:#ccc; stroke-width:0px;" /><circle id="SPH06617" cx="943.43" cy="612.27" r="9.2" style="fill:#ccc; stroke-width:0px;" /><circle id="SPH06618" cx="940.02" cy="635.47" r="9.2" style="fill:#ccc; stroke-width:0px;" /><circle id="SPH06619" cx="936.51" cy="658.66" r="9.2" style="fill:#ccc; stroke-width:0px;" /><circle id="SPH06620" cx="932.99" cy="681.84" r="9.2" style="fill:#ccc; stroke-width:0px;" /><circle id="SPH06621" cx="929.47" cy="705" r="9.2" style="fill:#ccc; stroke-width:0px;" /><circle id="SPH06622" cx="925.95" cy="728.15" r="9.2" style="fill:#ccc; stroke-width:0px;" /><circle id="SPH06623" cx="922.44" cy="751.3" r="9.2" style="fill:#ccc; stroke-width:0px;" /><circle id="SPH06624" cx="918.93" cy="774.44" r="9.2" style="fill:#ccc; stroke-width:0px;" /><circle id="SPH06625" cx="915.07" cy="797.56" r="9.2" style="fill:#ccc; stroke-width:0px;" /><circle id="SPH06626" cx="910.55" cy="820.57" r="9.2" style="fill:#ccc; stroke-width:0px;" /><circle id="SPH06627" cx="906.03" cy="843.58" r="9.2" style="fill:#ccc; stroke-width:0px;" /><circle id="SPH06628" cx="901.52" cy="866.58" r="9.2" style="fill:#ccc; stroke-width:0px;" /><circle id="SPH06629" cx="897.01" cy="889.58" r="9.2" style="fill:#ccc; stroke-width:0px;" /><circle id="SPH06630" cx="892.5" cy="912.57" r="9.2" style="fill:#ccc; stroke-width:0px;" /><circle id="SPH06631" cx="887.99" cy="935.55" r="9.2" style="fill:#ccc; stroke-width:0px;" /><circle id="SPH06632" cx="883.47" cy="958.55" r="9.2" style="fill:#ccc; stroke-width:0px;" /><circle id="SPH06633" cx="878.17" cy="981.39" r="9.2" style="fill:#ccc; stroke-width:0px;" /><circle id="SPH06634" cx="1002.45" cy="428.87" r="9.2" style="fill:#ccc; stroke-width:0px;" /><circle id="SPH06635" cx="1000.51" cy="452.5" r="9.2" style="fill:#ccc; stroke-width:0px;" /><circle id="SPH06636" cx="997.96" cy="476.07" r="9.2" style="fill:#ccc; stroke-width:0px;" /><circle id="SPH06637" cx="995.42" cy="499.63" r="9.2" style="fill:#ccc; stroke-width:0px;" /><circle id="SPH06638" cx="992.87" cy="523.19" r="9.2" style="fill:#ccc; stroke-width:0px;" /><circle id="SPH06639" cx="990.33" cy="546.75" r="9.2" style="fill:#ccc; stroke-width:0px;" /><circle id="SPH06640" cx="987.79" cy="570.31" r="9.2" style="fill:#ccc; stroke-width:0px;" /><circle id="SPH06641" cx="985.24" cy="593.88" r="9.2" style="fill:#ccc; stroke-width:0px;" /><circle id="SPH06642" cx="982.7" cy="617.46" r="9.2" style="fill:#ccc; stroke-width:0px;" /><circle id="SPH06643" cx="979.25" cy="640.9" r="9.2" style="fill:#ccc; stroke-width:0px;" /><circle id="SPH06644" cx="975.69" cy="664.35" r="9.2" style="fill:#ccc; stroke-width:0px;" /><circle id="SPH06645" cx="972.14" cy="687.78" r="9.2" style="fill:#ccc; stroke-width:0px;" /><circle id="SPH06646" cx="968.58" cy="711.22" r="9.2" style="fill:#ccc; stroke-width:0px;" /><circle id="SPH06647" cx="965.02" cy="734.66" r="9.2" style="fill:#ccc; stroke-width:0px;" /><circle id="SPH06648" cx="961.47" cy="758.09" r="9.2" style="fill:#ccc; stroke-width:0px;" /><circle id="SPH06649" cx="957.91" cy="781.53" r="9.2" style="fill:#ccc; stroke-width:0px;" /><circle id="SPH06650" cx="953.99" cy="804.9" r="9.2" style="fill:#ccc; stroke-width:0px;" /><circle id="SPH06651" cx="949.42" cy="828.15" r="9.2" style="fill:#ccc; stroke-width:0px;" /><circle id="SPH06652" cx="944.85" cy="851.42" r="9.2" style="fill:#ccc; stroke-width:0px;" /><circle id="SPH06653" cx="940.29" cy="874.67" r="9.2" style="fill:#ccc; stroke-width:0px;" /><circle id="SPH06654" cx="935.73" cy="897.91" r="9.2" style="fill:#ccc; stroke-width:0px;" /><circle id="SPH06655" cx="931.16" cy="921.15" r="9.2" style="fill:#ccc; stroke-width:0px;" /><circle id="SPH06656" cx="926.6" cy="944.4" r="9.2" style="fill:#ccc; stroke-width:0px;" /><circle id="SPH06657" cx="922.04" cy="967.64" r="9.2" style="fill:#ccc; stroke-width:0px;" /><circle id="SPH06658" cx="916.65" cy="990.75" r="9.2" style="fill:#ccc; stroke-width:0px;" /><circle id="SPH06659" cx="1041.93" cy="431.97" r="9.2" style="fill:#ccc; stroke-width:0px;" /><circle id="SPH06660" cx="1040.07" cy="454.91" r="9.2" style="fill:#ccc; stroke-width:0px;" /><circle id="SPH06661" cx="1037.6" cy="477.78" r="9.2" style="fill:#ccc; stroke-width:0px;" /><circle id="SPH06662" cx="1035.14" cy="500.65" r="9.2" style="fill:#ccc; stroke-width:0px;" /><circle id="SPH06663" cx="1032.67" cy="523.51" r="9.2" transform="translate(350.5 1458.99) rotate(-80.78)" style="fill:#ccc; stroke-width:0px;" /><circle id="SPH06664" cx="1030.2" cy="546.38" r="9.2" transform="translate(325.86 1475.76) rotate(-80.78)" style="fill:#ccc; stroke-width:0px;" /><circle id="SPH06665" cx="1027.73" cy="569.25" r="9.2" transform="translate(301.21 1492.53) rotate(-80.78)" style="fill:#ccc; stroke-width:0px;" /><circle id="SPH06666" cx="1025.27" cy="592.12" r="9.2" transform="translate(276.57 1509.3) rotate(-80.78)" style="fill:#ccc; stroke-width:0px;" /><circle id="SPH06667" cx="1022.79" cy="614.99" r="9.2" style="fill:#ccc; stroke-width:0px;" /><circle id="SPH06668" cx="1019.78" cy="637.8" r="9.2" transform="translate(226.86 1542.25) rotate(-80.78)" style="fill:#ccc; stroke-width:0px;" /><circle id="SPH06669" cx="1016.32" cy="660.54" r="9.2" style="fill:#ccc; stroke-width:0px;" /><circle id="SPH06670" cx="1012.87" cy="683.28" r="9.2" style="fill:#ccc; stroke-width:0px;" /><circle id="SPH06671" cx="1009.42" cy="706.03" r="9.2" style="fill:#ccc; stroke-width:0px;" /><circle id="SPH06672" cx="1005.96" cy="728.81" r="9.2" style="fill:#ccc; stroke-width:0px;" /><circle id="SPH06673" cx="1002.51" cy="751.58" r="9.2" style="fill:#ccc; stroke-width:0px;" /><circle id="SPH06674" cx="999.05" cy="774.35" r="9.2" style="fill:#ccc; stroke-width:0px;" /><circle id="SPH06675" cx="995.59" cy="797.14" r="9.2" style="fill:#ccc; stroke-width:0px;" /><circle id="SPH06676" cx="991.43" cy="819.75" r="9.2" style="fill:#ccc; stroke-width:0px;" /><circle id="SPH06677" cx="986.99" cy="842.31" r="9.2" style="fill:#ccc; stroke-width:0px;" /><circle id="SPH06678" cx="982.57" cy="864.87" r="9.2" style="fill:#ccc; stroke-width:0px;" /><circle id="SPH06679" cx="978.14" cy="887.44" r="9.2" style="fill:#ccc; stroke-width:0px;" /><circle id="SPH06680" cx="973.71" cy="910" r="9.2" style="fill:#ccc; stroke-width:0px;" /><circle id="SPH06681" cx="969.28" cy="932.56" r="9.2" style="fill:#ccc; stroke-width:0px;" /><circle id="SPH06682" cx="964.86" cy="955.12" r="9.2" style="fill:#ccc; stroke-width:0px;" /><circle id="SPH06683" cx="960.43" cy="977.68" r="9.2" style="fill:#ccc; stroke-width:0px;" /><circle id="SPH06684" cx="955.13" cy="1000.11" r="9.2" style="fill:#ccc; stroke-width:0px;" /><circle id="SPH06685" cx="1081.42" cy="435.08" r="9.2" style="fill:#ccc; stroke-width:0px;" /><circle id="SPH06686" cx="1079.55" cy="458.26" r="9.2" style="fill:#ccc; stroke-width:0px;" /><circle id="SPH06687" cx="1077.05" cy="481.38" r="9.2" style="fill:#ccc; stroke-width:0px;" /><circle id="SPH06688" cx="1074.55" cy="504.5" r="9.2" style="fill:#ccc; stroke-width:0px;" /><circle id="SPH06689" cx="1072.06" cy="527.62" r="9.2" style="fill:#ccc; stroke-width:0px;" /><circle id="SPH06690" cx="1069.56" cy="550.74" r="9.2" style="fill:#ccc; stroke-width:0px;" /><circle id="SPH06691" cx="1067.07" cy="573.86" r="9.2" style="fill:#ccc; stroke-width:0px;" /><circle id="SPH06692" cx="1064.57" cy="596.97" r="9.2" style="fill:#ccc; stroke-width:0px;" /><circle id="SPH06693" cx="1062.07" cy="620.1" r="9.2" style="fill:#ccc; stroke-width:0px;" /><circle id="SPH06694" cx="1059.02" cy="643.15" r="9.2" style="fill:#ccc; stroke-width:0px;" /><circle id="SPH06695" cx="1055.53" cy="666.14" r="9.2" style="fill:#ccc; stroke-width:0px;" /><circle id="SPH06696" cx="1052.03" cy="689.14" r="9.2" style="fill:#ccc; stroke-width:0px;" /><circle id="SPH06697" cx="1048.55" cy="712.11" r="9.2" style="fill:#ccc; stroke-width:0px;" /><circle id="SPH06698" cx="1045.07" cy="735.07" r="9.2" style="fill:#ccc; stroke-width:0px;" /><circle id="SPH06699" cx="1041.58" cy="758.03" r="9.2" style="fill:#ccc; stroke-width:0px;" /><circle id="SPH06700" cx="1038.1" cy="780.99" r="9.2" style="fill:#ccc; stroke-width:0px;" /><circle id="SPH06701" cx="1034.61" cy="803.96" r="9.2" style="fill:#ccc; stroke-width:0px;" /><circle id="SPH06702" cx="1030.39" cy="826.83" r="9.2" transform="translate(49.19 1711.47) rotate(-80.78)" style="fill:#ccc; stroke-width:0px;" /><circle id="SPH06703" cx="1025.91" cy="849.65" r="9.2" transform="translate(22.9 1726.21) rotate(-80.78)" style="fill:#ccc; stroke-width:0px;" /><circle id="SPH06704" cx="1021.43" cy="872.48" r="9.2" style="fill:#ccc; stroke-width:0px;" /><circle id="SPH06705" cx="1016.95" cy="895.3" r="9.2" style="fill:#ccc; stroke-width:0px;" /><circle id="SPH06706" cx="1012.47" cy="918.11" r="9.2" style="fill:#ccc; stroke-width:0px;" /><circle id="SPH06707" cx="1007.99" cy="940.92" r="9.2" style="fill:#ccc; stroke-width:0px;" /><circle id="SPH06708" cx="1003.52" cy="963.74" r="9.2" style="fill:#ccc; stroke-width:0px;" /><circle id="SPH06709" cx="999.04" cy="986.55" r="9.2" style="fill:#ccc; stroke-width:0px;" /><circle id="SPH06710" cx="993.67" cy="1009.18" r="9.2" style="fill:#ccc; stroke-width:0px;" /><circle id="SPH06711" cx="1120.9" cy="438.18" r="9.2" style="fill:#ccc; stroke-width:0px;" /><circle id="SPH06712" cx="1119.01" cy="461.61" r="9.2" style="fill:#ccc; stroke-width:0px;" /><circle id="SPH06713" cx="1116.49" cy="484.98" r="9.2" style="fill:#ccc; stroke-width:0px;" /><circle id="SPH06714" cx="1113.96" cy="508.35" r="9.2" style="fill:#ccc; stroke-width:0px;" /><circle id="SPH06715" cx="1111.44" cy="531.71" r="9.2" style="fill:#ccc; stroke-width:0px;" /><circle id="SPH06716" cx="1108.92" cy="555.08" r="9.2" style="fill:#ccc; stroke-width:0px;" /><circle id="SPH06717" cx="1106.4" cy="578.44" r="9.2" style="fill:#ccc; stroke-width:0px;" /><circle id="SPH06718" cx="1103.87" cy="601.82" r="9.2" style="fill:#ccc; stroke-width:0px;" /><circle id="SPH06719" cx="1101.35" cy="625.18" r="9.2" style="fill:#ccc; stroke-width:0px;" /><circle id="SPH06720" cx="1098.26" cy="648.48" r="9.2" style="fill:#ccc; stroke-width:0px;" /><circle id="SPH06721" cx="1094.73" cy="671.72" r="9.2" style="fill:#ccc; stroke-width:0px;" /><circle id="SPH06722" cx="1091.21" cy="694.95" r="9.2" style="fill:#ccc; stroke-width:0px;" /><circle id="SPH06723" cx="1087.68" cy="718.19" r="9.2" style="fill:#ccc; stroke-width:0px;" /><circle id="SPH06724" cx="1084.15" cy="741.43" r="9.2" style="fill:#ccc; stroke-width:0px;" /><circle id="SPH06725" cx="1080.63" cy="764.67" r="9.2" style="fill:#ccc; stroke-width:0px;" /><circle id="SPH06726" cx="1077.1" cy="787.91" r="9.2" style="fill:#ccc; stroke-width:0px;" /><circle id="SPH06727" cx="1073.57" cy="811.14" r="9.2" style="fill:#ccc; stroke-width:0px;" /><circle id="SPH06728" cx="1069.29" cy="834.25" r="9.2" style="fill:#ccc; stroke-width:0px;" /><circle id="SPH06729" cx="1064.76" cy="857.32" r="9.2" style="fill:#ccc; stroke-width:0px;" /><circle id="SPH06730" cx="1060.23" cy="880.38" r="9.2" style="fill:#ccc; stroke-width:0px;" /><circle id="SPH06731" cx="1055.71" cy="903.46" r="9.2" style="fill:#ccc; stroke-width:0px;" /><circle id="SPH06732" cx="1051.18" cy="926.51" r="9.2" style="fill:#ccc; stroke-width:0px;" /><circle id="SPH06733" cx="1046.66" cy="949.57" r="9.2" style="fill:#ccc; stroke-width:0px;" /><circle id="SPH06734" cx="1042.13" cy="972.63" r="9.2" style="fill:#ccc; stroke-width:0px;" /><circle id="SPH06735" cx="1037.6" cy="995.68" r="9.2" style="fill:#ccc; stroke-width:0px;" /><circle id="SPH06736" cx="1032.15" cy="1018.52" r="9.2" transform="translate(-417.89 1028.16) rotate(-45)" style="fill:#ccc; stroke-width:0px;" /><circle id="SPH06737" cx="1160.38" cy="441.29" r="9.2" style="fill:#ccc; stroke-width:0px;" /><circle id="SPH06738" cx="1158.48" cy="464.97" r="9.2" style="fill:#ccc; stroke-width:0px;" /><circle id="SPH06739" cx="1155.93" cy="488.58" r="9.2" style="fill:#ccc; stroke-width:0px;" /><circle id="SPH06740" cx="1153.38" cy="512.2" r="9.2" style="fill:#ccc; stroke-width:0px;" /><circle id="SPH06741" cx="1150.83" cy="535.81" r="9.2" style="fill:#ccc; stroke-width:0px;" /><circle id="SPH06742" cx="1148.28" cy="559.43" r="9.2" style="fill:#ccc; stroke-width:0px;" /><circle id="SPH06743" cx="1145.73" cy="583.04" r="9.2" style="fill:#ccc; stroke-width:0px;" /><circle id="SPH06744" cx="1143.19" cy="606.66" r="9.2" style="fill:#ccc; stroke-width:0px;" /><circle id="SPH06745" cx="1140.63" cy="630.27" r="9.2" style="fill:#ccc; stroke-width:0px;" /><circle id="SPH06746" cx="1137.51" cy="653.82" r="9.2" style="fill:#ccc; stroke-width:0px;" /><circle id="SPH06747" cx="1133.94" cy="677.3" r="9.2" style="fill:#ccc; stroke-width:0px;" /><circle id="SPH06748" cx="1130.38" cy="700.78" r="9.2" style="fill:#ccc; stroke-width:0px;" /><circle id="SPH06749" cx="1126.81" cy="724.29" r="9.2" style="fill:#ccc; stroke-width:0px;" /><circle id="SPH06750" cx="1123.24" cy="747.8" r="9.2" style="fill:#ccc; stroke-width:0px;" /><circle id="SPH06751" cx="1119.67" cy="771.31" r="9.2" style="fill:#ccc; stroke-width:0px;" /><circle id="SPH06752" cx="1116.11" cy="794.83" r="9.2" style="fill:#ccc; stroke-width:0px;" /><circle id="SPH06753" cx="1112.54" cy="818.34" r="9.2" style="fill:#ccc; stroke-width:0px;" /><circle id="SPH06754" cx="1108.19" cy="841.67" r="9.2" style="fill:#ccc; stroke-width:0px;" /><circle id="SPH06755" cx="1103.61" cy="864.98" r="9.2" style="fill:#ccc; stroke-width:0px;" /><circle id="SPH06756" cx="1099.04" cy="888.27" r="9.2" style="fill:#ccc; stroke-width:0px;" /><circle id="SPH06757" cx="1094.47" cy="911.58" r="9.2" style="fill:#ccc; stroke-width:0px;" /><circle id="SPH06758" cx="1089.89" cy="934.89" r="9.2" style="fill:#ccc; stroke-width:0px;" /><circle id="SPH06759" cx="1085.31" cy="958.2" r="9.2" style="fill:#ccc; stroke-width:0px;" /><circle id="SPH06760" cx="1080.75" cy="981.5" r="9.2" style="fill:#ccc; stroke-width:0px;" /><circle id="SPH06761" cx="1076.17" cy="1004.8" r="9.2" style="fill:#ccc; stroke-width:0px;" /><circle id="SPH06762" cx="1070.63" cy="1027.9" r="9.2" style="fill:#ccc; stroke-width:0px;" /><circle id="SPH06763" cx="647.11" cy="400.9" r="9.2" style="fill:#ccc; stroke-width:0px;" /><circle id="SPH06764" cx="645.1" cy="424.13" r="9.2" style="fill:#ccc; stroke-width:0px;" /><circle id="SPH06765" cx="642.59" cy="447.31" r="9.2" style="fill:#ccc; stroke-width:0px;" /><circle id="SPH06766" cx="640.09" cy="470.49" r="9.2" style="fill:#ccc; stroke-width:0px;" /><circle id="SPH06767" cx="637.59" cy="493.67" r="9.2" style="fill:#ccc; stroke-width:0px;" /><circle id="SPH06768" cx="635.09" cy="516.86" r="9.2" style="fill:#ccc; stroke-width:0px;" /><circle id="SPH06769" cx="632.59" cy="540.03" r="9.2" style="fill:#ccc; stroke-width:0px;" /><circle id="SPH06770" cx="630.08" cy="563.21" r="9.2" style="fill:#ccc; stroke-width:0px;" /><circle id="SPH06771" cx="627.06" cy="586.32" r="9.2" style="fill:#ccc; stroke-width:0px;" /><circle id="SPH06772" cx="623.55" cy="609.38" r="9.2" style="fill:#ccc; stroke-width:0px;" /><circle id="SPH06773" cx="620.06" cy="632.43" r="9.2" style="fill:#ccc; stroke-width:0px;" /><circle id="SPH06774" cx="616.56" cy="655.47" r="9.2" style="fill:#ccc; stroke-width:0px;" /><circle id="SPH06775" cx="613.06" cy="678.51" r="9.2" style="fill:#ccc; stroke-width:0px;" /><circle id="SPH06776" cx="609.56" cy="701.56" r="9.2" style="fill:#ccc; stroke-width:0px;" /><circle id="SPH06777" cx="606.07" cy="724.61" r="9.2" style="fill:#ccc; stroke-width:0px;" /><circle id="SPH06778" cx="602.03" cy="747.59" r="9.2" style="fill:#ccc; stroke-width:0px;" /><circle id="SPH06779" cx="597.54" cy="770.48" r="9.2" style="fill:#ccc; stroke-width:0px;" /><circle id="SPH06780" cx="593.04" cy="793.38" r="9.2" style="fill:#ccc; stroke-width:0px;" /><circle id="SPH06781" cx="588.55" cy="816.27" r="9.2" style="fill:#ccc; stroke-width:0px;" /><circle id="SPH06782" cx="584.06" cy="839.15" r="9.2" style="fill:#ccc; stroke-width:0px;" /><circle id="SPH06783" cx="579.57" cy="862.03" r="9.2" style="fill:#ccc; stroke-width:0px;" /><circle id="SPH06784" cx="575.08" cy="884.91" r="9.2" style="fill:#ccc; stroke-width:0px;" /><circle id="SPH06785" cx="570.07" cy="907.68" r="9.2" style="fill:#ccc; stroke-width:0px;" /><circle id="SPH06786" cx="686.6" cy="404.01" r="9.2" style="fill:#ccc; stroke-width:0px;" /><circle id="SPH06787" cx="684.56" cy="427.51" r="9.2" style="fill:#ccc; stroke-width:0px;" /><circle id="SPH06788" cx="682.03" cy="450.98" r="9.2" style="fill:#ccc; stroke-width:0px;" /><circle id="SPH06789" cx="679.5" cy="474.44" r="9.2" style="fill:#ccc; stroke-width:0px;" /><circle id="SPH06790" cx="676.96" cy="497.91" r="9.2" style="fill:#ccc; stroke-width:0px;" /><circle id="SPH06791" cx="674.43" cy="521.37" r="9.2" style="fill:#ccc; stroke-width:0px;" /><circle id="SPH06792" cx="671.9" cy="544.83" r="9.2" style="fill:#ccc; stroke-width:0px;" /><circle id="SPH06793" cx="669.37" cy="568.27" r="9.2" style="fill:#ccc; stroke-width:0px;" /><circle id="SPH06794" cx="666.3" cy="591.65" r="9.2" style="fill:#ccc; stroke-width:0px;" /><circle id="SPH06795" cx="662.75" cy="614.98" r="9.2" style="fill:#ccc; stroke-width:0px;" /><circle id="SPH06796" cx="659.22" cy="638.31" r="9.2" style="fill:#ccc; stroke-width:0px;" /><circle id="SPH06797" cx="655.67" cy="661.63" r="9.2" style="fill:#ccc; stroke-width:0px;" /><circle id="SPH06798" cx="652.13" cy="684.98" r="9.2" style="fill:#ccc; stroke-width:0px;" /><circle id="SPH06799" cx="648.59" cy="708.35" r="9.2" style="fill:#ccc; stroke-width:0px;" /><circle id="SPH06800" cx="645.04" cy="731.71" r="9.2" style="fill:#ccc; stroke-width:0px;" /><circle id="SPH06801" cx="640.95" cy="754.95" r="9.2" style="fill:#ccc; stroke-width:0px;" /><circle id="SPH06802" cx="636.4" cy="778.07" r="9.2" style="fill:#ccc; stroke-width:0px;" /><circle id="SPH06803" cx="631.87" cy="801.21" r="9.2" style="fill:#ccc; stroke-width:0px;" /><circle id="SPH06804" cx="627.32" cy="824.35" r="9.2" style="fill:#ccc; stroke-width:0px;" /><circle id="SPH06805" cx="622.78" cy="847.51" r="9.2" style="fill:#ccc; stroke-width:0px;" /><circle id="SPH06806" cx="618.23" cy="870.67" r="9.2" style="fill:#ccc; stroke-width:0px;" /><circle id="SPH06807" cx="613.69" cy="893.81" r="9.2" style="fill:#ccc; stroke-width:0px;" /><circle id="SPH06808" cx="608.59" cy="916.83" r="9.2" style="fill:#ccc; stroke-width:0px;" /><circle id="SPH06809" cx="726.08" cy="407.11" r="9.2" style="fill:#ccc; stroke-width:0px;" /><circle id="SPH06810" cx="724.03" cy="430.91" r="9.2" style="fill:#ccc; stroke-width:0px;" /><circle id="SPH06811" cx="721.47" cy="454.66" r="9.2" style="fill:#ccc; stroke-width:0px;" /><circle id="SPH06812" cx="718.9" cy="478.4" r="9.2" style="fill:#ccc; stroke-width:0px;" /><circle id="SPH06813" cx="716.34" cy="502.15" r="9.2" style="fill:#ccc; stroke-width:0px;" /><circle id="SPH06814" cx="713.77" cy="525.88" r="9.2" style="fill:#ccc; stroke-width:0px;" /><circle id="SPH06815" cx="711.21" cy="549.6" r="9.2" style="fill:#ccc; stroke-width:0px;" /><circle id="SPH06816" cx="708.65" cy="573.34" r="9.2" style="fill:#ccc; stroke-width:0px;" /><circle id="SPH06817" cx="705.54" cy="597" r="9.2" style="fill:#ccc; stroke-width:0px;" /><circle id="SPH06818" cx="701.95" cy="620.62" r="9.2" style="fill:#ccc; stroke-width:0px;" /><circle id="SPH06819" cx="698.37" cy="644.22" r="9.2" style="fill:#ccc; stroke-width:0px;" /><circle id="SPH06820" cx="694.79" cy="667.83" r="9.2" style="fill:#ccc; stroke-width:0px;" /><circle id="SPH06821" cx="691.21" cy="691.42" r="9.2" style="fill:#ccc; stroke-width:0px;" /><circle id="SPH06822" cx="687.63" cy="715" r="9.2" style="fill:#ccc; stroke-width:0px;" /><circle id="SPH06823" cx="684.05" cy="738.57" r="9.2" style="fill:#ccc; stroke-width:0px;" /><circle id="SPH06824" cx="679.9" cy="762.07" r="9.2" style="fill:#ccc; stroke-width:0px;" /><circle id="SPH06825" cx="675.3" cy="785.51" r="9.2" style="fill:#ccc; stroke-width:0px;" /><circle id="SPH06826" cx="670.7" cy="808.95" r="9.2" style="fill:#ccc; stroke-width:0px;" /><circle id="SPH06827" cx="666.1" cy="832.39" r="9.2" style="fill:#ccc; stroke-width:0px;" /><circle id="SPH06828" cx="661.5" cy="855.83" r="9.2" style="fill:#ccc; stroke-width:0px;" /><circle id="SPH06829" cx="656.9" cy="879.27" r="9.2" style="fill:#ccc; stroke-width:0px;" /><circle id="SPH06830" cx="652.3" cy="902.71" r="9.2" style="fill:#ccc; stroke-width:0px;" /><circle id="SPH06831" cx="647.12" cy="926" r="9.2" style="fill:#ccc; stroke-width:0px;" /><circle id="SPH06832" cx="765.56" cy="410.23" r="9.2" style="fill:#ccc; stroke-width:0px;" /><circle id="SPH06833" cx="763.6" cy="433.26" r="9.2" style="fill:#ccc; stroke-width:0px;" /><circle id="SPH06834" cx="761.12" cy="456.24" r="9.2" style="fill:#ccc; stroke-width:0px;" /><circle id="SPH06835" cx="758.64" cy="479.23" r="9.2" style="fill:#ccc; stroke-width:0px;" /><circle id="SPH06836" cx="756.16" cy="502.21" r="9.2" style="fill:#ccc; stroke-width:0px;" /><circle id="SPH06837" cx="753.67" cy="525.2" r="9.2" style="fill:#ccc; stroke-width:0px;" /><circle id="SPH06838" cx="751.2" cy="548.16" r="9.2" style="fill:#ccc; stroke-width:0px;" /><circle id="SPH06839" cx="748.72" cy="571.12" r="9.2" style="fill:#ccc; stroke-width:0px;" /><circle id="SPH06840" cx="746.03" cy="594.07" r="9.2" style="fill:#ccc; stroke-width:0px;" /><circle id="SPH06841" cx="742.57" cy="616.92" r="9.2" style="fill:#ccc; stroke-width:0px;" /><circle id="SPH06842" cx="739.11" cy="639.77" r="9.2" style="fill:#ccc; stroke-width:0px;" /><circle id="SPH06843" cx="735.63" cy="662.63" r="9.2" style="fill:#ccc; stroke-width:0px;" /><circle id="SPH06844" cx="732.16" cy="685.47" r="9.2" style="fill:#ccc; stroke-width:0px;" /><circle id="SPH06845" cx="728.7" cy="708.32" r="9.2" style="fill:#ccc; stroke-width:0px;" /><circle id="SPH06846" cx="725.23" cy="731.17" r="9.2" style="fill:#ccc; stroke-width:0px;" /><circle id="SPH06847" cx="721.76" cy="754.03" r="9.2" style="fill:#ccc; stroke-width:0px;" /><circle id="SPH06848" cx="717.38" cy="776.73" r="9.2" style="fill:#ccc; stroke-width:0px;" /><circle id="SPH06849" cx="712.92" cy="799.43" r="9.2" style="fill:#ccc; stroke-width:0px;" /><circle id="SPH06850" cx="708.47" cy="822.12" r="9.2" style="fill:#ccc; stroke-width:0px;" /><circle id="SPH06851" cx="704.02" cy="844.81" r="9.2" style="fill:#ccc; stroke-width:0px;" /><circle id="SPH06852" cx="699.56" cy="867.5" r="9.2" style="fill:#ccc; stroke-width:0px;" /><circle id="SPH06853" cx="695.11" cy="890.19" r="9.2" style="fill:#ccc; stroke-width:0px;" /><circle id="SPH06854" cx="690.66" cy="912.88" r="9.2" style="fill:#ccc; stroke-width:0px;" /><circle id="SPH06855" cx="685.58" cy="935.43" r="9.2" style="fill:#ccc; stroke-width:0px;" /><circle id="SPH06856" cx="1199.86" cy="444.4" r="9.2" style="fill:#ccc; stroke-width:0px;" /><circle id="SPH06857" cx="1198.04" cy="467.41" r="9.2" style="fill:#ccc; stroke-width:0px;" /><circle id="SPH06858" cx="1195.57" cy="490.35" r="9.2" style="fill:#ccc; stroke-width:0px;" /><circle id="SPH06859" cx="1193.09" cy="513.3" r="9.2" style="fill:#ccc; stroke-width:0px;" /><circle id="SPH06860" cx="1190.62" cy="536.24" r="9.2" style="fill:#ccc; stroke-width:0px;" /><circle id="SPH06861" cx="1188.14" cy="559.18" r="9.2" style="fill:#ccc; stroke-width:0px;" /><circle id="SPH06862" cx="1185.66" cy="582.12" r="9.2" style="fill:#ccc; stroke-width:0px;" /><circle id="SPH06863" cx="1183.19" cy="605.07" r="9.2" style="fill:#ccc; stroke-width:0px;" /><circle id="SPH06864" cx="1180.71" cy="628.03" r="9.2" style="fill:#ccc; stroke-width:0px;" /><circle id="SPH06865" cx="1177.99" cy="650.95" r="9.2" style="fill:#ccc; stroke-width:0px;" /><circle id="SPH06866" cx="1174.53" cy="673.76" r="9.2" style="fill:#ccc; stroke-width:0px;" /><circle id="SPH06867" cx="1171.07" cy="696.58" r="9.2" style="fill:#ccc; stroke-width:0px;" /><circle id="SPH06868" cx="1167.6" cy="719.39" r="9.2" style="fill:#ccc; stroke-width:0px;" /><circle id="SPH06869" cx="1164.15" cy="742.18" r="9.2" style="fill:#ccc; stroke-width:0px;" /><circle id="SPH06870" cx="1160.69" cy="764.97" r="9.2" style="fill:#ccc; stroke-width:0px;" /><circle id="SPH06871" cx="1157.23" cy="787.76" r="9.2" style="fill:#ccc; stroke-width:0px;" /><circle id="SPH06872" cx="1153.77" cy="810.56" r="9.2" style="fill:#ccc; stroke-width:0px;" /><circle id="SPH06873" cx="1150.18" cy="833.34" r="9.2" style="fill:#ccc; stroke-width:0px;" /><circle id="SPH06874" cx="1145.73" cy="855.99" r="9.2" style="fill:#ccc; stroke-width:0px;" /><circle id="SPH06875" cx="1141.28" cy="878.64" r="9.2" style="fill:#ccc; stroke-width:0px;" /><circle id="SPH06876" cx="1136.84" cy="901.3" r="9.2" style="fill:#ccc; stroke-width:0px;" /><circle id="SPH06877" cx="1132.39" cy="923.95" r="9.2" style="fill:#ccc; stroke-width:0px;" /><circle id="SPH06878" cx="1127.95" cy="946.59" r="9.2" style="fill:#ccc; stroke-width:0px;" /><circle id="SPH06879" cx="1123.51" cy="969.24" r="9.2" style="fill:#ccc; stroke-width:0px;" /><circle id="SPH06880" cx="1119.06" cy="991.88" r="9.2" style="fill:#ccc; stroke-width:0px;" /><circle id="SPH06881" cx="1114.6" cy="1014.53" r="9.2" style="fill:#ccc; stroke-width:0px;" /><circle id="SPH06882" cx="1109.19" cy="1036.95" r="9.2" style="fill:#ccc; stroke-width:0px;" /><circle id="SPH06883" cx="805.04" cy="413.34" r="9.2" style="fill:#ccc; stroke-width:0px;" /><circle id="SPH06884" cx="803.07" cy="436.63" r="9.2" style="fill:#ccc; stroke-width:0px;" /><circle id="SPH06885" cx="800.55" cy="459.89" r="9.2" style="fill:#ccc; stroke-width:0px;" /><circle id="SPH06886" cx="798.05" cy="483.14" r="9.2" style="fill:#ccc; stroke-width:0px;" /><circle id="SPH06887" cx="795.54" cy="506.4" r="9.2" style="fill:#ccc; stroke-width:0px;" /><circle id="SPH06888" cx="793.03" cy="529.65" r="9.2" style="fill:#ccc; stroke-width:0px;" /><circle id="SPH06889" cx="790.52" cy="552.88" r="9.2" style="fill:#ccc; stroke-width:0px;" /><circle id="SPH06890" cx="788.01" cy="576.12" r="9.2" style="fill:#ccc; stroke-width:0px;" /><circle id="SPH06891" cx="785.29" cy="599.34" r="9.2" style="fill:#ccc; stroke-width:0px;" /><circle id="SPH06892" cx="781.79" cy="622.46" r="9.2" style="fill:#ccc; stroke-width:0px;" /><circle id="SPH06893" cx="778.27" cy="645.57" r="9.2" style="fill:#ccc; stroke-width:0px;" /><circle id="SPH06894" cx="774.76" cy="668.69" r="9.2" style="fill:#ccc; stroke-width:0px;" /><circle id="SPH06895" cx="771.25" cy="691.83" r="9.2" style="fill:#ccc; stroke-width:0px;" /><circle id="SPH06896" cx="767.74" cy="714.98" r="9.2" style="fill:#ccc; stroke-width:0px;" /><circle id="SPH06897" cx="764.23" cy="738.12" r="9.2" style="fill:#ccc; stroke-width:0px;" /><circle id="SPH06898" cx="760.71" cy="761.28" r="9.2" style="fill:#ccc; stroke-width:0px;" /><circle id="SPH06899" cx="756.27" cy="784.21" r="9.2" style="fill:#ccc; stroke-width:0px;" /><circle id="SPH06900" cx="751.76" cy="807.15" r="9.2" style="fill:#ccc; stroke-width:0px;" /><circle id="SPH06901" cx="747.27" cy="830.07" r="9.2" style="fill:#ccc; stroke-width:0px;" /><circle id="SPH06902" cx="742.76" cy="853.01" r="9.2" style="fill:#ccc; stroke-width:0px;" /><circle id="SPH06903" cx="738.26" cy="875.95" r="9.2" style="fill:#ccc; stroke-width:0px;" /><circle id="SPH06904" cx="733.75" cy="898.91" r="9.2" style="fill:#ccc; stroke-width:0px;" /><circle id="SPH06905" cx="729.25" cy="921.86" r="9.2" style="fill:#ccc; stroke-width:0px;" /><circle id="SPH06906" cx="724.09" cy="944.66" r="9.2" style="fill:#ccc; stroke-width:0px;" /></g></svg>