<svg id="Layer_1" viewBox="0 0 1697.6 1405.17" xmlns="http://www.w3.org/2000/svg"><g id="back"><g id="back-2"><path id="sphere" d="M2939.53,2478.62c0-1528.34-1241.46-2769.81-2769.81-2769.81S-2600.09,950.28-2600.09,2478.62-1358.63,5248.43,169.72,5248.43h0c1528.34,0,2769.81-1241.46,2769.81-2769.81Z" style="fill:#f2f2f2; stroke:#ddd; stroke-miterlimit:10; stroke-width:3px;" /></g><g id="sectors"><path id="_208" d="M600.04,1609.83c-207.59,49.84-415.16,99.67-622.74,149.51-38.11-154.24-88.35-304.95-150.14-450.74,158.5-65.65,552.97-229.04,591.7-245.08,24.64,58.38,47.8,117.52,69.46,177.36h0c43.9,121.41,81.15,244.57,111.73,368.96h-.01Z" style="fill:#fff; stroke:#ddd; stroke-miterlimit:10; stroke-width:9px;" /><path id="_209" d="M418.86,1063.52c-72.76-170.09-165.49-353.48-264.69-510.29-145.43,89.12-400.64,245.5-546.07,334.61,84.15,134.44,157.36,275.15,219.07,420.77h0c158.5-65.65,433.19-179.44,591.69-245.09h0Z" style="fill:#fff; stroke:#ddd; stroke-miterlimit:10; stroke-width:9px;" /><path id="_210" d="M-812.73,713.29c-14.73-17.7-29.68-35.21-44.85-52.54C-666.45,497.5-220.6,116.72-188.81,89.56-62.54,234.64,52.17,389.66,154.17,553.23c-46.45,28.46-546.13,334.67-546.19,334.7-94.66,1.33-189.31,2.66-283.96,3.99h0c-43.15-61.41-88.77-120.99-136.74-178.63h-.01Z" style="fill:#fff; stroke:#ddd; stroke-miterlimit:10; stroke-width:9px;" /><path id="_409" d="M1360.86,821.03c34.48-14.28,584.25-242.01,587.71-243.44-211.42-197-455.65-359.72-723.64-479.19-58.27,35.71-116.53,71.42-174.8,107.12,20.63,33.91,40.8,68.13,60.52,102.63h0c94.11,164.69,177.78,335.97,250.19,512.88h.02Z" style="fill:#fff; stroke:#ddd; stroke-miterlimit:10; stroke-width:9px;" /><path id="_308" d="M1570.95,1477.95c-202.58,48.64-405.16,97.27-607.72,145.9-12.93-55.23-27.11-110.16-42.53-164.76-75.94-20.35-151.87-40.69-227.81-61.04-13.06-40.84-26.87-81.5-41.44-121.97-16.85-46.81-34.67-93.18-53.41-139.09,254.24-105.31,508.48-210.62,762.73-315.93,23.67,57.81,46.14,116.22,67.38,175.2h0c57.02,158.36,104.64,319.19,142.8,481.68h0Z" style="fill:#fff; stroke:#ddd; stroke-miterlimit:10; stroke-width:9px;" /><path id="_309" d="M1360.77,821.07c-254.26,105.32-508.49,210.62-762.73,315.93-70.98-173.83-155.31-340.97-251.89-500.07,234.64-143.79,469.29-287.58,703.92-431.37,20.61,33.88,40.76,68.05,60.45,102.52h0c94.13,164.73,177.81,336.03,250.25,512.98h0Z" style="fill:#fff; stroke:#ddd; stroke-miterlimit:10; stroke-width:9px;" /><path id="_310" d="M504.83-106.5C353.88,3.17,202.93,112.84,51.99,222.51c107.69,130.76,206.02,269.25,294.15,414.42,234.64-143.79,644.16-394.74,878.79-538.53-130.35-55.93-201.76-83.24-322.88-120.04h0c-128.58-38.08-261.26-66.65-397.23-84.87h0Z" style="fill:#fff; stroke:#ddd; stroke-miterlimit:10; stroke-width:9px;" /><path id="_408" d="M1360.84,821.02c23.69,57.85,46.17,116.3,67.42,175.32,3.53,9.81,7.06,19.62,10.6,29.43,35.17,99.44,66.58,200.12,94.17,301.91,2.8,10.55,5.6,21.11,8.4,31.66,10.44,39.43,20.31,78.96,29.61,118.59,301.23-72.31,602.47-144.64,903.7-216.96-83.27-156.03-182.04-302.69-294.27-437.97-70.43-87.61-154.08-177.66-231.9-245.41,0,0-395.29,163.72-587.73,243.43Z" style="fill:#fff; stroke:#ddd; stroke-miterlimit:10; stroke-width:9px;" /><path id="_407" d="M1571.05,1477.92c301.23-72.32,602.46-144.64,903.7-216.96,133.83,250.73,227.65,525.66,273.01,816.39-18.25,1.44-733.07,57.7-1072.22,84.39-10.5-144.81-28.24-289.24-53.19-432.71h0c-14.62-84.07-31.72-167.8-51.3-251.11h0Z" style="fill:#fff; stroke:#ddd; stroke-miterlimit:10; stroke-width:9px;" /></g></g><g id="Seats"><circle id="SPH01677" cx="739.41" cy="449.59" r="9.2" style="fill:#ccc; stroke-width:0px;" /><circle id="SPH01678" cx="751.53" cy="469.78" r="9.2" style="fill:#ccc; stroke-width:0px;" /><circle id="SPH01679" cx="763.66" cy="489.98" r="9.2" style="fill:#ccc; stroke-width:0px;" /><circle id="SPH01680" cx="775.52" cy="510.32" r="9.2" style="fill:#ccc; stroke-width:0px;" /><circle id="SPH01681" cx="786.77" cy="531.02" r="9.2" style="fill:#ccc; stroke-width:0px;" /><circle id="SPH01682" cx="798.01" cy="551.72" r="9.2" style="fill:#ccc; stroke-width:0px;" /><circle id="SPH01683" cx="809.25" cy="572.41" r="9.2" style="fill:#ccc; stroke-width:0px;" /><circle id="SPH01684" cx="820.49" cy="593.12" r="9.2" style="fill:#ccc; stroke-width:0px;" /><circle id="SPH01685" cx="831.73" cy="613.81" r="9.2" style="fill:#ccc; stroke-width:0px;" /><circle id="SPH01686" cx="842.98" cy="634.52" r="9.2" style="fill:#ccc; stroke-width:0px;" /><circle id="SPH01687" cx="854.22" cy="655.22" r="9.2" style="fill:#ccc; stroke-width:0px;" /><circle id="SPH01688" cx="864.58" cy="676.4" r="9.2" style="fill:#ccc; stroke-width:0px;" /><circle id="SPH01689" cx="874.9" cy="697.54" r="9.2" style="fill:#ccc; stroke-width:0px;" /><circle id="SPH01690" cx="885.22" cy="718.68" r="9.2" style="fill:#ccc; stroke-width:0px;" /><circle id="SPH01691" cx="895.54" cy="739.82" r="9.2" style="fill:#ccc; stroke-width:0px;" /><circle id="SPH01692" cx="905.88" cy="760.97" r="9.2" style="fill:#ccc; stroke-width:0px;" /><circle id="SPH01693" cx="916.22" cy="782.14" r="9.2" style="fill:#ccc; stroke-width:0px;" /><circle id="SPH01694" cx="926.55" cy="803.3" r="9.2" style="fill:#ccc; stroke-width:0px;" /><circle id="SPH01695" cx="936.26" cy="824.76" r="9.2" style="fill:#ccc; stroke-width:0px;" /><circle id="SPH01696" cx="945.67" cy="846.35" r="9.2" style="fill:#ccc; stroke-width:0px;" /><circle id="SPH01697" cx="955.08" cy="867.94" r="9.2" style="fill:#ccc; stroke-width:0px;" /><circle id="SPH01698" cx="964.49" cy="889.52" r="9.2" style="fill:#ccc; stroke-width:0px;" /><circle id="SPH01699" cx="973.9" cy="911.12" r="9.2" style="fill:#ccc; stroke-width:0px;" /><circle id="SPH01700" cx="983.3" cy="932.7" r="9.2" style="fill:#ccc; stroke-width:0px;" /><circle id="SPH01701" cx="773.18" cy="428.9" r="9.2" style="fill:#ccc; stroke-width:0px;" /><circle id="SPH01702" cx="784.92" cy="448.47" r="9.2" style="fill:#ccc; stroke-width:0px;" /><circle id="SPH01703" cx="796.68" cy="468.04" r="9.2" style="fill:#ccc; stroke-width:0px;" /><circle id="SPH01704" cx="808.3" cy="487.7" r="9.2" style="fill:#ccc; stroke-width:0px;" /><circle id="SPH01705" cx="819.2" cy="507.76" r="9.2" style="fill:#ccc; stroke-width:0px;" /><circle id="SPH01706" cx="830.1" cy="527.83" r="9.2" style="fill:#ccc; stroke-width:0px;" /><circle id="SPH01707" cx="840.99" cy="547.89" r="9.2" style="fill:#ccc; stroke-width:0px;" /><circle id="SPH01708" cx="851.89" cy="567.95" r="9.2" style="fill:#ccc; stroke-width:0px;" /><circle id="SPH01709" cx="862.78" cy="588.01" r="9.2" style="fill:#ccc; stroke-width:0px;" /><circle id="SPH01710" cx="873.68" cy="608.07" r="9.2" style="fill:#ccc; stroke-width:0px;" /><circle id="SPH01711" cx="884.58" cy="628.13" r="9.2" style="fill:#ccc; stroke-width:0px;" /><circle id="SPH01712" cx="894.98" cy="648.44" r="9.2" style="fill:#ccc; stroke-width:0px;" /><circle id="SPH01713" cx="905.01" cy="668.95" r="9.2" style="fill:#ccc; stroke-width:0px;" /><circle id="SPH01714" cx="915.02" cy="689.47" r="9.2" style="fill:#ccc; stroke-width:0px;" /><circle id="SPH01715" cx="925.04" cy="709.97" r="9.2" style="fill:#ccc; stroke-width:0px;" /><circle id="SPH01716" cx="935.06" cy="730.49" r="9.2" style="fill:#ccc; stroke-width:0px;" /><circle id="SPH01717" cx="945.08" cy="751" r="9.2" style="fill:#ccc; stroke-width:0px;" /><circle id="SPH01718" cx="955.1" cy="771.52" r="9.2" style="fill:#ccc; stroke-width:0px;" /><circle id="SPH01719" cx="965.12" cy="792.04" r="9.2" style="fill:#ccc; stroke-width:0px;" /><circle id="SPH01720" cx="974.3" cy="812.93" r="9.2" style="fill:#ccc; stroke-width:0px;" /><circle id="SPH01721" cx="983.42" cy="833.86" r="9.2" style="fill:#ccc; stroke-width:0px;" /><circle id="SPH01722" cx="992.55" cy="854.8" r="9.2" style="fill:#ccc; stroke-width:0px;" /><circle id="SPH01723" cx="1001.67" cy="875.75" r="9.2" style="fill:#ccc; stroke-width:0px;" /><circle id="SPH01724" cx="1010.8" cy="896.68" r="9.2" style="fill:#ccc; stroke-width:0px;" /><circle id="SPH01725" cx="1019.92" cy="917.62" r="9.2" style="fill:#ccc; stroke-width:0px;" /><circle id="SPH01726" cx="806.94" cy="408.2" r="9.2" style="fill:#ccc; stroke-width:0px;" /><circle id="SPH01727" cx="818.82" cy="428" r="9.2" style="fill:#ccc; stroke-width:0px;" /><circle id="SPH01728" cx="830.71" cy="447.8" r="9.2" style="fill:#ccc; stroke-width:0px;" /><circle id="SPH01729" cx="842.49" cy="467.67" r="9.2" style="fill:#ccc; stroke-width:0px;" /><circle id="SPH01730" cx="853.5" cy="487.96" r="9.2" style="fill:#ccc; stroke-width:0px;" /><circle id="SPH01731" cx="864.53" cy="508.26" r="9.2" style="fill:#ccc; stroke-width:0px;" /><circle id="SPH01732" cx="875.55" cy="528.55" r="9.2" style="fill:#ccc; stroke-width:0px;" /><circle id="SPH01733" cx="886.58" cy="548.84" r="9.2" style="fill:#ccc; stroke-width:0px;" /><circle id="SPH01734" cx="897.59" cy="569.12" r="9.2" style="fill:#ccc; stroke-width:0px;" /><circle id="SPH01735" cx="908.61" cy="589.42" r="9.2" style="fill:#ccc; stroke-width:0px;" /><circle id="SPH01736" cx="919.63" cy="609.72" r="9.2" style="fill:#ccc; stroke-width:0px;" /><circle id="SPH01737" cx="930.18" cy="630.25" r="9.2" style="fill:#ccc; stroke-width:0px;" /><circle id="SPH01738" cx="940.31" cy="651.01" r="9.2" style="fill:#ccc; stroke-width:0px;" /><circle id="SPH01739" cx="950.46" cy="671.79" r="9.2" style="fill:#ccc; stroke-width:0px;" /><circle id="SPH01740" cx="960.61" cy="692.56" r="9.2" style="fill:#ccc; stroke-width:0px;" /><circle id="SPH01741" cx="970.75" cy="713.33" r="9.2" style="fill:#ccc; stroke-width:0px;" /><circle id="SPH01742" cx="980.9" cy="734.11" r="9.2" style="fill:#ccc; stroke-width:0px;" /><circle id="SPH01743" cx="991.04" cy="754.87" r="9.2" style="fill:#ccc; stroke-width:0px;" /><circle id="SPH01744" cx="1001.18" cy="775.64" r="9.2" style="fill:#ccc; stroke-width:0px;" /><circle id="SPH01745" cx="1010.46" cy="796.78" r="9.2" style="fill:#ccc; stroke-width:0px;" /><circle id="SPH01746" cx="1019.69" cy="817.96" r="9.2" style="fill:#ccc; stroke-width:0px;" /><circle id="SPH01747" cx="1028.91" cy="839.12" r="9.2" transform="translate(35.81 1720.33) rotate(-80.78)" style="fill:#ccc; stroke-width:0px;" /><circle id="SPH01748" cx="1038.14" cy="860.31" r="9.2" style="fill:#ccc; stroke-width:0px;" /><circle id="SPH01749" cx="1047.37" cy="881.48" r="9.2" style="fill:#ccc; stroke-width:0px;" /><circle id="SPH01750" cx="1056.6" cy="902.66" r="9.2" style="fill:#ccc; stroke-width:0px;" /><circle id="SPH01751" cx="840.7" cy="387.51" r="9.2" style="fill:#ccc; stroke-width:0px;" /><circle id="SPH01752" cx="852.72" cy="407.53" r="9.2" style="fill:#ccc; stroke-width:0px;" /><circle id="SPH01753" cx="864.74" cy="427.56" r="9.2" style="fill:#ccc; stroke-width:0px;" /><circle id="SPH01754" cx="876.66" cy="447.64" r="9.2" style="fill:#ccc; stroke-width:0px;" /><circle id="SPH01755" cx="887.82" cy="468.16" r="9.2" style="fill:#ccc; stroke-width:0px;" /><circle id="SPH01756" cx="898.96" cy="488.68" r="9.2" style="fill:#ccc; stroke-width:0px;" /><circle id="SPH01757" cx="910.1" cy="509.19" r="9.2" style="fill:#ccc; stroke-width:0px;" /><circle id="SPH01758" cx="921.24" cy="529.71" r="9.2" style="fill:#ccc; stroke-width:0px;" /><circle id="SPH01759" cx="932.39" cy="550.23" r="9.2" style="fill:#ccc; stroke-width:0px;" /><circle id="SPH01760" cx="943.54" cy="570.75" r="9.2" style="fill:#ccc; stroke-width:0px;" /><circle id="SPH01761" cx="954.68" cy="591.27" r="9.2" style="fill:#ccc; stroke-width:0px;" /><circle id="SPH01762" cx="965.35" cy="612.04" r="9.2" style="fill:#ccc; stroke-width:0px;" /><circle id="SPH01763" cx="975.59" cy="633" r="9.2" style="fill:#ccc; stroke-width:0px;" /><circle id="SPH01764" cx="985.83" cy="653.97" r="9.2" style="fill:#ccc; stroke-width:0px;" /><circle id="SPH01765" cx="996.06" cy="674.93" r="9.2" style="fill:#ccc; stroke-width:0px;" /><circle id="SPH01766" cx="1006.3" cy="695.89" r="9.2" style="fill:#ccc; stroke-width:0px;" /><circle id="SPH01767" cx="1016.54" cy="716.87" r="9.2" style="fill:#ccc; stroke-width:0px;" /><circle id="SPH01768" cx="1026.78" cy="737.83" r="9.2" transform="translate(134.01 1633.16) rotate(-80.78)" style="fill:#ccc; stroke-width:0px;" /><circle id="SPH01769" cx="1037.03" cy="758.8" r="9.2" style="fill:#ccc; stroke-width:0px;" /><circle id="SPH01770" cx="1046.42" cy="780.18" r="9.2" style="fill:#ccc; stroke-width:0px;" /><circle id="SPH01771" cx="1055.76" cy="801.6" r="9.2" style="fill:#ccc; stroke-width:0px;" /><circle id="SPH01772" cx="1065.09" cy="823.01" r="9.2" style="fill:#ccc; stroke-width:0px;" /><circle id="SPH01773" cx="1074.42" cy="844.42" r="9.2" style="fill:#ccc; stroke-width:0px;" /><circle id="SPH01774" cx="1083.75" cy="865.84" r="9.2" style="fill:#ccc; stroke-width:0px;" /><circle id="SPH01775" cx="1093.08" cy="887.24" r="9.2" style="fill:#ccc; stroke-width:0px;" /><circle id="SPH01776" cx="874.46" cy="366.82" r="9.2" style="fill:#ccc; stroke-width:0px;" /><circle id="SPH01777" cx="886.62" cy="387.06" r="9.2" style="fill:#ccc; stroke-width:0px;" /><circle id="SPH01778" cx="898.78" cy="407.31" r="9.2" style="fill:#ccc; stroke-width:0px;" /><circle id="SPH01779" cx="910.85" cy="427.6" r="9.2" style="fill:#ccc; stroke-width:0px;" /><circle id="SPH01780" cx="922.12" cy="448.35" r="9.2" style="fill:#ccc; stroke-width:0px;" /><circle id="SPH01781" cx="933.38" cy="469.09" r="9.2" style="fill:#ccc; stroke-width:0px;" /><circle id="SPH01782" cx="944.66" cy="489.84" r="9.2" style="fill:#ccc; stroke-width:0px;" /><circle id="SPH01783" cx="955.93" cy="510.6" r="9.2" style="fill:#ccc; stroke-width:0px;" /><circle id="SPH01784" cx="967.2" cy="531.36" r="9.2" style="fill:#ccc; stroke-width:0px;" /><circle id="SPH01785" cx="978.46" cy="552.09" r="9.2" style="fill:#ccc; stroke-width:0px;" /><circle id="SPH01786" cx="989.74" cy="572.84" r="9.2" style="fill:#ccc; stroke-width:0px;" /><circle id="SPH01787" cx="1000.54" cy="593.84" r="9.2" style="fill:#ccc; stroke-width:0px;" /><circle id="SPH01788" cx="1010.9" cy="615.05" r="9.2" style="fill:#ccc; stroke-width:0px;" /><circle id="SPH01789" cx="1021.26" cy="636.27" r="9.2" transform="translate(229.62 1542.42) rotate(-80.78)" style="fill:#ccc; stroke-width:0px;" /><circle id="SPH01790" cx="1031.62" cy="657.48" r="9.2" transform="translate(217.38 1570.46) rotate(-80.78)" style="fill:#ccc; stroke-width:0px;" /><circle id="SPH01791" cx="1041.98" cy="678.7" r="9.2" style="fill:#ccc; stroke-width:0px;" /><circle id="SPH01792" cx="1052.34" cy="699.91" r="9.2" style="fill:#ccc; stroke-width:0px;" /><circle id="SPH01793" cx="1062.7" cy="721.13" r="9.2" style="fill:#ccc; stroke-width:0px;" /><circle id="SPH01794" cx="1073.06" cy="742.35" r="9.2" style="fill:#ccc; stroke-width:0px;" /><circle id="SPH01795" cx="1082.55" cy="763.96" r="9.2" style="fill:#ccc; stroke-width:0px;" /><circle id="SPH01796" cx="1091.98" cy="785.6" r="9.2" style="fill:#ccc; stroke-width:0px;" /><circle id="SPH01797" cx="1101.42" cy="807.24" r="9.2" style="fill:#ccc; stroke-width:0px;" /><circle id="SPH01798" cx="1110.85" cy="828.89" r="9.2" style="fill:#ccc; stroke-width:0px;" /><circle id="SPH01799" cx="1120.28" cy="850.53" r="9.2" style="fill:#ccc; stroke-width:0px;" /><circle id="SPH01800" cx="1129.71" cy="872.2" r="9.2" style="fill:#ccc; stroke-width:0px;" /><circle id="SPH01801" cx="908.23" cy="346.13" r="9.2" style="fill:#ccc; stroke-width:0px;" /><circle id="SPH01802" cx="920.03" cy="365.78" r="9.2" style="fill:#ccc; stroke-width:0px;" /><circle id="SPH01803" cx="931.82" cy="385.42" r="9.2" style="fill:#ccc; stroke-width:0px;" /><circle id="SPH01804" cx="943.62" cy="405.07" r="9.2" style="fill:#ccc; stroke-width:0px;" /><circle id="SPH01805" cx="954.6" cy="425.18" r="9.2" style="fill:#ccc; stroke-width:0px;" /><circle id="SPH01806" cx="965.54" cy="445.32" r="9.2" style="fill:#ccc; stroke-width:0px;" /><circle id="SPH01807" cx="976.47" cy="465.45" r="9.2" style="fill:#ccc; stroke-width:0px;" /><circle id="SPH01808" cx="987.41" cy="485.59" r="9.2" style="fill:#ccc; stroke-width:0px;" /><circle id="SPH01809" cx="998.34" cy="505.72" r="9.2" style="fill:#ccc; stroke-width:0px;" /><circle id="SPH01810" cx="1009.27" cy="525.84" r="9.2" style="fill:#ccc; stroke-width:0px;" /><circle id="SPH01811" cx="1020.21" cy="545.98" r="9.2" style="fill:#ccc; stroke-width:0px;" /><circle id="SPH01812" cx="1031.08" cy="566.15" r="9.2" transform="translate(307.08 1493.23) rotate(-80.78)" style="fill:#ccc; stroke-width:0px;" /><circle id="SPH01813" cx="1041.13" cy="586.73" r="9.2" style="fill:#ccc; stroke-width:0px;" /><circle id="SPH01814" cx="1051.18" cy="607.32" r="9.2" style="fill:#ccc; stroke-width:0px;" /><circle id="SPH01815" cx="1061.25" cy="627.92" r="9.2" style="fill:#ccc; stroke-width:0px;" /><circle id="SPH01816" cx="1071.31" cy="648.52" r="9.2" style="fill:#ccc; stroke-width:0px;" /><circle id="SPH01817" cx="1081.37" cy="669.12" r="9.2" style="fill:#ccc; stroke-width:0px;" /><circle id="SPH01818" cx="1091.42" cy="689.72" r="9.2" style="fill:#ccc; stroke-width:0px;" /><circle id="SPH01819" cx="1101.48" cy="710.31" r="9.2" style="fill:#ccc; stroke-width:0px;" /><circle id="SPH01820" cx="1111.38" cy="730.97" r="9.2" style="fill:#ccc; stroke-width:0px;" /><circle id="SPH01821" cx="1120.53" cy="751.98" r="9.2" style="fill:#ccc; stroke-width:0px;" /><circle id="SPH01822" cx="1129.69" cy="772.99" r="9.2" style="fill:#ccc; stroke-width:0px;" /><circle id="SPH01823" cx="1138.84" cy="794" r="9.2" style="fill:#ccc; stroke-width:0px;" /><circle id="SPH01824" cx="1147.99" cy="815" r="9.2" style="fill:#ccc; stroke-width:0px;" /><circle id="SPH01825" cx="1157.14" cy="836.01" r="9.2" style="fill:#ccc; stroke-width:0px;" /><circle id="SPH01826" cx="1166.3" cy="857.01" r="9.2" style="fill:#ccc; stroke-width:0px;" /><circle id="SPH01827" cx="942" cy="325.44" r="9.2" style="fill:#ccc; stroke-width:0px;" /><circle id="SPH01828" cx="953.92" cy="345.29" r="9.2" style="fill:#ccc; stroke-width:0px;" /><circle id="SPH01829" cx="965.85" cy="365.16" r="9.2" style="fill:#ccc; stroke-width:0px;" /><circle id="SPH01830" cx="977.77" cy="385.01" r="9.2" style="fill:#ccc; stroke-width:0px;" /><circle id="SPH01831" cx="988.88" cy="405.33" r="9.2" style="fill:#ccc; stroke-width:0px;" /><circle id="SPH01832" cx="999.94" cy="425.68" r="9.2" style="fill:#ccc; stroke-width:0px;" /><circle id="SPH01833" cx="1011" cy="446.04" r="9.2" style="fill:#ccc; stroke-width:0px;" /><circle id="SPH01834" cx="1022.06" cy="466.41" r="9.2" style="fill:#ccc; stroke-width:0px;" /><circle id="SPH01835" cx="1033.11" cy="486.77" r="9.2" transform="translate(387.14 1428.57) rotate(-80.78)" style="fill:#ccc; stroke-width:0px;" /><circle id="SPH01836" cx="1044.17" cy="507.12" r="9.2" style="fill:#ccc; stroke-width:0px;" /><circle id="SPH01837" cx="1055.23" cy="527.48" r="9.2" style="fill:#ccc; stroke-width:0px;" /><circle id="SPH01838" cx="1066.22" cy="547.88" r="9.2" style="fill:#ccc; stroke-width:0px;" /><circle id="SPH01839" cx="1076.39" cy="568.68" r="9.2" style="fill:#ccc; stroke-width:0px;" /><circle id="SPH01840" cx="1086.55" cy="589.49" r="9.2" style="fill:#ccc; stroke-width:0px;" /><circle id="SPH01841" cx="1096.71" cy="610.29" r="9.2" style="fill:#ccc; stroke-width:0px;" /><circle id="SPH01842" cx="1106.87" cy="631.1" r="9.2" style="fill:#ccc; stroke-width:0px;" /><circle id="SPH01843" cx="1117.03" cy="651.91" r="9.2" style="fill:#ccc; stroke-width:0px;" /><circle id="SPH01844" cx="1127.2" cy="672.72" r="9.2" style="fill:#ccc; stroke-width:0px;" /><circle id="SPH01845" cx="1137.36" cy="693.53" r="9.2" style="fill:#ccc; stroke-width:0px;" /><circle id="SPH01846" cx="1147.36" cy="714.41" r="9.2" style="fill:#ccc; stroke-width:0px;" /><circle id="SPH01847" cx="1156.61" cy="735.65" r="9.2" style="fill:#ccc; stroke-width:0px;" /><circle id="SPH01848" cx="1165.86" cy="756.89" r="9.2" style="fill:#ccc; stroke-width:0px;" /><circle id="SPH01849" cx="1175.12" cy="778.12" r="9.2" style="fill:#ccc; stroke-width:0px;" /><circle id="SPH01850" cx="1184.37" cy="799.36" r="9.2" style="fill:#ccc; stroke-width:0px;" /><circle id="SPH01851" cx="1193.62" cy="820.6" r="9.2" style="fill:#ccc; stroke-width:0px;" /><circle id="SPH01852" cx="1202.88" cy="841.84" r="9.2" style="fill:#ccc; stroke-width:0px;" /><circle id="SPH01853" cx="975.77" cy="304.75" r="9.2" style="fill:#ccc; stroke-width:0px;" /><circle id="SPH01854" cx="987.82" cy="324.82" r="9.2" style="fill:#ccc; stroke-width:0px;" /><circle id="SPH01855" cx="999.87" cy="344.89" r="9.2" style="fill:#ccc; stroke-width:0px;" /><circle id="SPH01856" cx="1011.92" cy="364.96" r="9.2" style="fill:#ccc; stroke-width:0px;" /><circle id="SPH01857" cx="1023.17" cy="385.49" r="9.2" style="fill:#ccc; stroke-width:0px;" /><circle id="SPH01858" cx="1034.34" cy="406.07" r="9.2" style="fill:#ccc; stroke-width:0px;" /><circle id="SPH01859" cx="1045.52" cy="426.64" r="9.2" style="fill:#ccc; stroke-width:0px;" /><circle id="SPH01860" cx="1056.7" cy="447.22" r="9.2" style="fill:#ccc; stroke-width:0px;" /><circle id="SPH01861" cx="1067.87" cy="467.8" r="9.2" style="fill:#ccc; stroke-width:0px;" /><circle id="SPH01862" cx="1079.05" cy="488.37" r="9.2" style="fill:#ccc; stroke-width:0px;" /><circle id="SPH01863" cx="1090.22" cy="508.95" r="9.2" style="fill:#ccc; stroke-width:0px;" /><circle id="SPH01864" cx="1101.35" cy="529.56" r="9.2" style="fill:#ccc; stroke-width:0px;" /><circle id="SPH01865" cx="1111.62" cy="550.6" r="9.2" style="fill:#ccc; stroke-width:0px;" /><circle id="SPH01866" cx="1121.9" cy="571.64" r="9.2" style="fill:#ccc; stroke-width:0px;" /><circle id="SPH01867" cx="1132.18" cy="592.68" r="9.2" style="fill:#ccc; stroke-width:0px;" /><circle id="SPH01868" cx="1142.45" cy="613.72" r="9.2" style="fill:#ccc; stroke-width:0px;" /><circle id="SPH01869" cx="1152.73" cy="634.76" r="9.2" style="fill:#ccc; stroke-width:0px;" /><circle id="SPH01870" cx="1163" cy="655.8" r="9.2" style="fill:#ccc; stroke-width:0px;" /><circle id="SPH01871" cx="1173.27" cy="676.83" r="9.2" style="fill:#ccc; stroke-width:0px;" /><circle id="SPH01872" cx="1183.38" cy="697.96" r="9.2" style="fill:#ccc; stroke-width:0px;" /><circle id="SPH01873" cx="1192.73" cy="719.41" r="9.2" style="fill:#ccc; stroke-width:0px;" /><circle id="SPH01874" cx="1202.08" cy="740.88" r="9.2" style="fill:#ccc; stroke-width:0px;" /><circle id="SPH01875" cx="1211.43" cy="762.33" r="9.2" style="fill:#ccc; stroke-width:0px;" /><circle id="SPH01876" cx="1220.78" cy="783.8" r="9.2" style="fill:#ccc; stroke-width:0px;" /><circle id="SPH01877" cx="1230.14" cy="805.26" r="9.2" style="fill:#ccc; stroke-width:0px;" /><circle id="SPH01878" cx="1239.49" cy="826.72" r="9.2" style="fill:#ccc; stroke-width:0px;" /><circle id="SPH01879" cx="1009.53" cy="284.05" r="9.2" style="fill:#ccc; stroke-width:0px;" /><circle id="SPH01880" cx="1021.71" cy="304.34" r="9.2" style="fill:#ccc; stroke-width:0px;" /><circle id="SPH01881" cx="1033.9" cy="324.63" r="9.2" style="fill:#ccc; stroke-width:0px;" /><circle id="SPH01882" cx="1046.07" cy="344.92" r="9.2" style="fill:#ccc; stroke-width:0px;" /><circle id="SPH01883" cx="1057.46" cy="365.65" r="9.2" style="fill:#ccc; stroke-width:0px;" /><circle id="SPH01884" cx="1068.75" cy="386.44" r="9.2" style="fill:#ccc; stroke-width:0px;" /><circle id="SPH01885" cx="1080.05" cy="407.24" r="9.2" style="fill:#ccc; stroke-width:0px;" /><circle id="SPH01886" cx="1091.34" cy="428.04" r="9.2" style="fill:#ccc; stroke-width:0px;" /><circle id="SPH01887" cx="1102.63" cy="448.83" r="9.2" style="fill:#ccc; stroke-width:0px;" /><circle id="SPH01888" cx="1113.93" cy="469.63" r="9.2" style="fill:#ccc; stroke-width:0px;" /><circle id="SPH01889" cx="1125.22" cy="490.43" r="9.2" style="fill:#ccc; stroke-width:0px;" /><circle id="SPH01890" cx="1136.47" cy="511.24" r="9.2" style="fill:#ccc; stroke-width:0px;" /><circle id="SPH01891" cx="1146.86" cy="532.52" r="9.2" style="fill:#ccc; stroke-width:0px;" /><circle id="SPH01892" cx="1157.25" cy="553.77" r="9.2" style="fill:#ccc; stroke-width:0px;" /><circle id="SPH01893" cx="1167.63" cy="575.04" r="9.2" style="fill:#ccc; stroke-width:0px;" /><circle id="SPH01894" cx="1178.02" cy="596.32" r="9.2" style="fill:#ccc; stroke-width:0px;" /><circle id="SPH01895" cx="1188.41" cy="617.59" r="9.2" style="fill:#ccc; stroke-width:0px;" /><circle id="SPH01896" cx="1198.79" cy="638.84" r="9.2" style="fill:#ccc; stroke-width:0px;" /><circle id="SPH01897" cx="1209.18" cy="660.1" r="9.2" style="fill:#ccc; stroke-width:0px;" /><circle id="SPH01898" cx="1219.38" cy="681.43" r="9.2" style="fill:#ccc; stroke-width:0px;" /><circle id="SPH01899" cx="1228.82" cy="703.12" r="9.2" style="fill:#ccc; stroke-width:0px;" /><circle id="SPH01900" cx="1238.27" cy="724.8" r="9.2" style="fill:#ccc; stroke-width:0px;" /><circle id="SPH01901" cx="1247.73" cy="746.49" r="9.2" style="fill:#ccc; stroke-width:0px;" /><circle id="SPH01902" cx="1257.18" cy="768.19" r="9.2" style="fill:#ccc; stroke-width:0px;" /><circle id="SPH01903" cx="1266.63" cy="789.88" r="9.2" style="fill:#ccc; stroke-width:0px;" /><circle id="SPH01904" cx="1276.08" cy="811.56" r="9.2" style="fill:#ccc; stroke-width:0px;" /><circle id="SPH01905" cx="401.74" cy="656.5" r="9.2" style="fill:#ccc; stroke-width:0px;" /><circle id="SPH01906" cx="413.5" cy="676.08" r="9.2" style="fill:#ccc; stroke-width:0px;" /><circle id="SPH01907" cx="425.26" cy="695.66" r="9.2" style="fill:#ccc; stroke-width:0px;" /><circle id="SPH01908" cx="436.38" cy="715.6" r="9.2" style="fill:#ccc; stroke-width:0px;" /><circle id="SPH01909" cx="447.28" cy="735.66" r="9.2" style="fill:#ccc; stroke-width:0px;" /><circle id="SPH01910" cx="458.18" cy="755.73" r="9.2" style="fill:#ccc; stroke-width:0px;" /><circle id="SPH01911" cx="469.08" cy="775.8" r="9.2" style="fill:#ccc; stroke-width:0px;" /><circle id="SPH01912" cx="479.98" cy="795.88" r="9.2" style="fill:#ccc; stroke-width:0px;" /><circle id="SPH01913" cx="490.89" cy="815.95" r="9.2" style="fill:#ccc; stroke-width:0px;" /><circle id="SPH01914" cx="501.79" cy="836.03" r="9.2" style="fill:#ccc; stroke-width:0px;" /><circle id="SPH01915" cx="511.84" cy="856.52" r="9.2" transform="translate(-415.61 1224.55) rotate(-80.78)" style="fill:#ccc; stroke-width:0px;" /><circle id="SPH01916" cx="521.86" cy="877.04" r="9.2" style="fill:#ccc; stroke-width:0px;" /><circle id="SPH01917" cx="531.89" cy="897.56" r="9.2" style="fill:#ccc; stroke-width:0px;" /><circle id="SPH01918" cx="541.9" cy="918.08" r="9.2" style="fill:#ccc; stroke-width:0px;" /><circle id="SPH01919" cx="551.93" cy="938.61" r="9.2" style="fill:#ccc; stroke-width:0px;" /><circle id="SPH01920" cx="561.95" cy="959.13" r="9.2" style="fill:#ccc; stroke-width:0px;" /><circle id="SPH01921" cx="571.83" cy="979.73" r="9.2" style="fill:#ccc; stroke-width:0px;" /><circle id="SPH01922" cx="580.95" cy="1000.66" r="9.2" style="fill:#ccc; stroke-width:0px;" /><circle id="SPH01923" cx="590.06" cy="1021.58" r="9.2" style="fill:#ccc; stroke-width:0px;" /><circle id="SPH01924" cx="599.18" cy="1042.5" r="9.2" style="fill:#ccc; stroke-width:0px;" /><circle id="SPH01925" cx="608.3" cy="1063.41" r="9.2" style="fill:#ccc; stroke-width:0px;" /><circle id="SPH01926" cx="617.41" cy="1084.33" r="9.2" style="fill:#ccc; stroke-width:0px;" /><circle id="SPH01927" cx="435.51" cy="635.81" r="9.2" style="fill:#ccc; stroke-width:0px;" /><circle id="SPH01928" cx="447.42" cy="655.64" r="9.2" style="fill:#ccc; stroke-width:0px;" /><circle id="SPH01929" cx="459.33" cy="675.47" r="9.2" style="fill:#ccc; stroke-width:0px;" /><circle id="SPH01930" cx="470.61" cy="695.65" r="9.2" style="fill:#ccc; stroke-width:0px;" /><circle id="SPH01931" cx="481.65" cy="715.97" r="9.2" style="fill:#ccc; stroke-width:0px;" /><circle id="SPH01932" cx="492.69" cy="736.31" r="9.2" style="fill:#ccc; stroke-width:0px;" /><circle id="SPH01933" cx="503.73" cy="756.63" r="9.2" transform="translate(-323.82 1132.66) rotate(-80.78)" style="fill:#ccc; stroke-width:0px;" /><circle id="SPH01934" cx="514.77" cy="776.96" r="9.2" style="fill:#ccc; stroke-width:0px;" /><circle id="SPH01935" cx="525.81" cy="797.28" r="9.2" style="fill:#ccc; stroke-width:0px;" /><circle id="SPH01936" cx="536.85" cy="817.6" r="9.2" style="fill:#ccc; stroke-width:0px;" /><circle id="SPH01937" cx="547.05" cy="838.37" r="9.2" style="fill:#ccc; stroke-width:0px;" /><circle id="SPH01938" cx="557.2" cy="859.16" r="9.2" style="fill:#ccc; stroke-width:0px;" /><circle id="SPH01939" cx="567.36" cy="879.96" r="9.2" style="fill:#ccc; stroke-width:0px;" /><circle id="SPH01940" cx="577.51" cy="900.74" r="9.2" style="fill:#ccc; stroke-width:0px;" /><circle id="SPH01941" cx="587.66" cy="921.53" r="9.2" style="fill:#ccc; stroke-width:0px;" /><circle id="SPH01942" cx="597.82" cy="942.32" r="9.2" style="fill:#ccc; stroke-width:0px;" /><circle id="SPH01943" cx="607.82" cy="963.18" r="9.2" style="fill:#ccc; stroke-width:0px;" /><circle id="SPH01944" cx="617.06" cy="984.39" r="9.2" style="fill:#ccc; stroke-width:0px;" /><circle id="SPH01945" cx="626.3" cy="1005.59" r="9.2" style="fill:#ccc; stroke-width:0px;" /><circle id="SPH01946" cx="635.54" cy="1026.79" r="9.2" style="fill:#ccc; stroke-width:0px;" /><circle id="SPH01947" cx="644.78" cy="1048" r="9.2" style="fill:#ccc; stroke-width:0px;" /><circle id="SPH01948" cx="654.01" cy="1069.19" r="9.2" style="fill:#ccc; stroke-width:0px;" /><circle id="SPH01949" cx="469.28" cy="615.12" r="9.2" style="fill:#ccc; stroke-width:0px;" /><circle id="SPH01950" cx="481.34" cy="635.2" r="9.2" style="fill:#ccc; stroke-width:0px;" /><circle id="SPH01951" cx="493.4" cy="655.29" r="9.2" style="fill:#ccc; stroke-width:0px;" /><circle id="SPH01952" cx="504.85" cy="675.72" r="9.2" transform="translate(-243.01 1065.81) rotate(-80.78)" style="fill:#ccc; stroke-width:0px;" /><circle id="SPH01953" cx="516.03" cy="696.31" r="9.2" style="fill:#ccc; stroke-width:0px;" /><circle id="SPH01954" cx="527.22" cy="716.9" r="9.2" style="fill:#ccc; stroke-width:0px;" /><circle id="SPH01955" cx="538.4" cy="737.5" r="9.2" style="fill:#ccc; stroke-width:0px;" /><circle id="SPH01956" cx="549.58" cy="758.08" r="9.2" style="fill:#ccc; stroke-width:0px;" /><circle id="SPH01957" cx="560.77" cy="778.68" r="9.2" style="fill:#ccc; stroke-width:0px;" /><circle id="SPH01958" cx="571.94" cy="799.26" r="9.2" style="fill:#ccc; stroke-width:0px;" /><circle id="SPH01959" cx="582.29" cy="820.28" r="9.2" style="fill:#ccc; stroke-width:0px;" /><circle id="SPH01960" cx="592.57" cy="841.34" r="9.2" style="fill:#ccc; stroke-width:0px;" /><circle id="SPH01961" cx="602.86" cy="862.4" r="9.2" style="fill:#ccc; stroke-width:0px;" /><circle id="SPH01962" cx="613.14" cy="883.46" r="9.2" style="fill:#ccc; stroke-width:0px;" /><circle id="SPH01963" cx="623.42" cy="904.51" r="9.2" style="fill:#ccc; stroke-width:0px;" /><circle id="SPH01964" cx="633.7" cy="925.56" r="9.2" style="fill:#ccc; stroke-width:0px;" /><circle id="SPH01965" cx="643.83" cy="946.7" r="9.2" style="fill:#ccc; stroke-width:0px;" /><circle id="SPH01966" cx="653.19" cy="968.17" r="9.2" style="fill:#ccc; stroke-width:0px;" /><circle id="SPH01967" cx="662.54" cy="989.65" r="9.2" style="fill:#ccc; stroke-width:0px;" /><circle id="SPH01968" cx="671.91" cy="1011.15" r="9.2" style="fill:#ccc; stroke-width:0px;" /><circle id="SPH01969" cx="681.27" cy="1032.63" r="9.2" style="fill:#ccc; stroke-width:0px;" /><circle id="SPH01970" cx="690.64" cy="1054.12" r="9.2" style="fill:#ccc; stroke-width:0px;" /><circle id="SPH01971" cx="503.05" cy="594.43" r="9.2" style="fill:#ccc; stroke-width:0px;" /><circle id="SPH01972" cx="515.26" cy="614.76" r="9.2" style="fill:#ccc; stroke-width:0px;" /><circle id="SPH01973" cx="527.47" cy="635.11" r="9.2" style="fill:#ccc; stroke-width:0px;" /><circle id="SPH01974" cx="539.09" cy="655.79" r="9.2" style="fill:#ccc; stroke-width:0px;" /><circle id="SPH01975" cx="550.42" cy="676.64" r="9.2" style="fill:#ccc; stroke-width:0px;" /><circle id="SPH01976" cx="561.74" cy="697.48" r="9.2" style="fill:#ccc; stroke-width:0px;" /><circle id="SPH01977" cx="573.06" cy="718.34" r="9.2" style="fill:#ccc; stroke-width:0px;" /><circle id="SPH01978" cx="584.38" cy="739.18" r="9.2" style="fill:#ccc; stroke-width:0px;" /><circle id="SPH01979" cx="595.7" cy="760.03" r="9.2" style="fill:#ccc; stroke-width:0px;" /><circle id="SPH01980" cx="607.02" cy="780.88" r="9.2" style="fill:#ccc; stroke-width:0px;" /><circle id="SPH01981" cx="617.5" cy="802.16" r="9.2" style="fill:#ccc; stroke-width:0px;" /><circle id="SPH01982" cx="627.91" cy="823.48" r="9.2" style="fill:#ccc; stroke-width:0px;" /><circle id="SPH01983" cx="638.33" cy="844.8" r="9.2" style="fill:#ccc; stroke-width:0px;" /><circle id="SPH01984" cx="648.74" cy="866.12" r="9.2" style="fill:#ccc; stroke-width:0px;" /><circle id="SPH01985" cx="659.16" cy="887.45" r="9.2" style="fill:#ccc; stroke-width:0px;" /><circle id="SPH01986" cx="669.57" cy="908.77" r="9.2" style="fill:#ccc; stroke-width:0px;" /><circle id="SPH01987" cx="679.82" cy="930.16" r="9.2" style="fill:#ccc; stroke-width:0px;" /><circle id="SPH01988" cx="689.3" cy="951.92" r="9.2" style="fill:#ccc; stroke-width:0px;" /><circle id="SPH01989" cx="698.78" cy="973.67" r="9.2" style="fill:#ccc; stroke-width:0px;" /><circle id="SPH01990" cx="708.26" cy="995.43" r="9.2" style="fill:#ccc; stroke-width:0px;" /><circle id="SPH01991" cx="717.75" cy="1017.2" r="9.2" style="fill:#ccc; stroke-width:0px;" /><circle id="SPH01992" cx="727.23" cy="1038.98" r="9.2" style="fill:#ccc; stroke-width:0px;" /><circle id="SPH01993" cx="536.81" cy="573.73" r="9.2" style="fill:#ccc; stroke-width:0px;" /><circle id="SPH01994" cx="548.62" cy="593.4" r="9.2" style="fill:#ccc; stroke-width:0px;" /><circle id="SPH01995" cx="560.42" cy="613.05" r="9.2" style="fill:#ccc; stroke-width:0px;" /><circle id="SPH01996" cx="571.76" cy="632.97" r="9.2" style="fill:#ccc; stroke-width:0px;" /><circle id="SPH01997" cx="582.7" cy="653.12" r="9.2" style="fill:#ccc; stroke-width:0px;" /><circle id="SPH01998" cx="593.65" cy="673.28" r="9.2" style="fill:#ccc; stroke-width:0px;" /><circle id="SPH01999" cx="604.58" cy="693.41" r="9.2" style="fill:#ccc; stroke-width:0px;" /><circle id="SPH02000" cx="615.53" cy="713.56" r="9.2" style="fill:#ccc; stroke-width:0px;" /><circle id="SPH02001" cx="626.48" cy="733.72" r="9.2" style="fill:#ccc; stroke-width:0px;" /><circle id="SPH02002" cx="637.42" cy="753.86" r="9.2" style="fill:#ccc; stroke-width:0px;" /><circle id="SPH02003" cx="647.93" cy="774.23" r="9.2" style="fill:#ccc; stroke-width:0px;" /><circle id="SPH02004" cx="657.99" cy="794.83" r="9.2" style="fill:#ccc; stroke-width:0px;" /><circle id="SPH02005" cx="668.06" cy="815.43" r="9.2" style="fill:#ccc; stroke-width:0px;" /><circle id="SPH02006" cx="678.11" cy="836.03" r="9.2" style="fill:#ccc; stroke-width:0px;" /><circle id="SPH02007" cx="688.18" cy="856.64" r="9.2" style="fill:#ccc; stroke-width:0px;" /><circle id="SPH02008" cx="698.24" cy="877.24" r="9.2" style="fill:#ccc; stroke-width:0px;" /><circle id="SPH02009" cx="708.3" cy="897.85" r="9.2" style="fill:#ccc; stroke-width:0px;" /><circle id="SPH02010" cx="717.99" cy="918.64" r="9.2" style="fill:#ccc; stroke-width:0px;" /><circle id="SPH02011" cx="727.15" cy="939.66" r="9.2" style="fill:#ccc; stroke-width:0px;" /><circle id="SPH02012" cx="736.31" cy="960.68" r="9.2" style="fill:#ccc; stroke-width:0px;" /><circle id="SPH02013" cx="745.47" cy="981.7" r="9.2" style="fill:#ccc; stroke-width:0px;" /><circle id="SPH02014" cx="754.64" cy="1002.74" r="9.2" style="fill:#ccc; stroke-width:0px;" /><circle id="SPH02015" cx="763.8" cy="1023.76" r="9.2" style="fill:#ccc; stroke-width:0px;" /><circle id="SPH02016" cx="570.58" cy="553.04" r="9.2" style="fill:#ccc; stroke-width:0px;" /><circle id="SPH02017" cx="582.53" cy="572.95" r="9.2" style="fill:#ccc; stroke-width:0px;" /><circle id="SPH02018" cx="594.47" cy="592.84" r="9.2" style="fill:#ccc; stroke-width:0px;" /><circle id="SPH02019" cx="605.98" cy="613" r="9.2" style="fill:#ccc; stroke-width:0px;" /><circle id="SPH02020" cx="617.05" cy="633.4" r="9.2" style="fill:#ccc; stroke-width:0px;" /><circle id="SPH02021" cx="628.13" cy="653.8" r="9.2" style="fill:#ccc; stroke-width:0px;" /><circle id="SPH02022" cx="639.21" cy="674.19" r="9.2" style="fill:#ccc; stroke-width:0px;" /><circle id="SPH02023" cx="650.28" cy="694.58" r="9.2" style="fill:#ccc; stroke-width:0px;" /><circle id="SPH02024" cx="661.36" cy="714.97" r="9.2" style="fill:#ccc; stroke-width:0px;" /><circle id="SPH02025" cx="672.43" cy="735.36" r="9.2" style="fill:#ccc; stroke-width:0px;" /><circle id="SPH02026" cx="683.09" cy="755.98" r="9.2" style="fill:#ccc; stroke-width:0px;" /><circle id="SPH02027" cx="693.27" cy="776.84" r="9.2" style="fill:#ccc; stroke-width:0px;" /><circle id="SPH02028" cx="703.46" cy="797.69" r="9.2" style="fill:#ccc; stroke-width:0px;" /><circle id="SPH02029" cx="713.64" cy="818.53" r="9.2" style="fill:#ccc; stroke-width:0px;" /><circle id="SPH02030" cx="723.82" cy="839.39" r="9.2" style="fill:#ccc; stroke-width:0px;" /><circle id="SPH02031" cx="734.01" cy="860.24" r="9.2" style="fill:#ccc; stroke-width:0px;" /><circle id="SPH02032" cx="744.19" cy="881.08" r="9.2" style="fill:#ccc; stroke-width:0px;" /><circle id="SPH02033" cx="753.99" cy="902.12" r="9.2" style="fill:#ccc; stroke-width:0px;" /><circle id="SPH02034" cx="763.26" cy="923.4" r="9.2" style="fill:#ccc; stroke-width:0px;" /><circle id="SPH02035" cx="772.53" cy="944.66" r="9.2" style="fill:#ccc; stroke-width:0px;" /><circle id="SPH02036" cx="781.8" cy="965.94" r="9.2" style="fill:#ccc; stroke-width:0px;" /><circle id="SPH02037" cx="791.06" cy="987.2" r="9.2" style="fill:#ccc; stroke-width:0px;" /><circle id="SPH02038" cx="800.33" cy="1008.46" r="9.2" style="fill:#ccc; stroke-width:0px;" /><circle id="SPH02039" cx="604.34" cy="532.36" r="9.2" style="fill:#ccc; stroke-width:0px;" /><circle id="SPH02040" cx="616.44" cy="552.5" r="9.2" style="fill:#ccc; stroke-width:0px;" /><circle id="SPH02041" cx="628.53" cy="572.64" r="9.2" style="fill:#ccc; stroke-width:0px;" /><circle id="SPH02042" cx="640.19" cy="593.04" r="9.2" style="fill:#ccc; stroke-width:0px;" /><circle id="SPH02043" cx="651.41" cy="613.68" r="9.2" style="fill:#ccc; stroke-width:0px;" /><circle id="SPH02044" cx="662.62" cy="634.32" r="9.2" style="fill:#ccc; stroke-width:0px;" /><circle id="SPH02045" cx="673.83" cy="654.97" r="9.2" style="fill:#ccc; stroke-width:0px;" /><circle id="SPH02046" cx="685.05" cy="675.62" r="9.2" style="fill:#ccc; stroke-width:0px;" /><circle id="SPH02047" cx="696.26" cy="696.26" r="9.2" style="fill:#ccc; stroke-width:0px;" /><circle id="SPH02048" cx="707.47" cy="716.91" r="9.2" style="fill:#ccc; stroke-width:0px;" /><circle id="SPH02049" cx="718.27" cy="737.78" r="9.2" style="fill:#ccc; stroke-width:0px;" /><circle id="SPH02050" cx="728.58" cy="758.89" r="9.2" style="fill:#ccc; stroke-width:0px;" /><circle id="SPH02051" cx="738.9" cy="780.01" r="9.2" style="fill:#ccc; stroke-width:0px;" /><circle id="SPH02052" cx="749.21" cy="801.13" r="9.2" style="fill:#ccc; stroke-width:0px;" /><circle id="SPH02053" cx="759.52" cy="822.25" r="9.2" style="fill:#ccc; stroke-width:0px;" /><circle id="SPH02054" cx="769.83" cy="843.36" r="9.2" style="fill:#ccc; stroke-width:0px;" /><circle id="SPH02055" cx="780.15" cy="864.49" r="9.2" style="fill:#ccc; stroke-width:0px;" /><circle id="SPH02056" cx="790.07" cy="885.8" r="9.2" style="fill:#ccc; stroke-width:0px;" /><circle id="SPH02057" cx="799.46" cy="907.34" r="9.2" style="fill:#ccc; stroke-width:0px;" /><circle id="SPH02058" cx="808.86" cy="928.89" r="9.2" style="fill:#ccc; stroke-width:0px;" /><circle id="SPH02059" cx="818.24" cy="950.44" r="9.2" style="fill:#ccc; stroke-width:0px;" /><circle id="SPH02060" cx="827.63" cy="972" r="9.2" style="fill:#ccc; stroke-width:0px;" /><circle id="SPH02061" cx="837.02" cy="993.52" r="9.2" style="fill:#ccc; stroke-width:0px;" /><circle id="SPH02062" cx="638.11" cy="511.66" r="9.2" style="fill:#ccc; stroke-width:0px;" /><circle id="SPH02063" cx="650.35" cy="532.05" r="9.2" style="fill:#ccc; stroke-width:0px;" /><circle id="SPH02064" cx="662.59" cy="552.44" r="9.2" style="fill:#ccc; stroke-width:0px;" /><circle id="SPH02065" cx="674.42" cy="573.07" r="9.2" style="fill:#ccc; stroke-width:0px;" /><circle id="SPH02066" cx="685.76" cy="593.96" r="9.2" style="fill:#ccc; stroke-width:0px;" /><circle id="SPH02067" cx="697.11" cy="614.86" r="9.2" style="fill:#ccc; stroke-width:0px;" /><circle id="SPH02068" cx="708.46" cy="635.76" r="9.2" style="fill:#ccc; stroke-width:0px;" /><circle id="SPH02069" cx="719.82" cy="656.66" r="9.2" style="fill:#ccc; stroke-width:0px;" /><circle id="SPH02070" cx="731.16" cy="677.55" r="9.2" style="fill:#ccc; stroke-width:0px;" /><circle id="SPH02071" cx="742.51" cy="698.45" r="9.2" style="fill:#ccc; stroke-width:0px;" /><circle id="SPH02072" cx="753.45" cy="719.56" r="9.2" style="fill:#ccc; stroke-width:0px;" /><circle id="SPH02073" cx="763.88" cy="740.93" r="9.2" style="fill:#ccc; stroke-width:0px;" /><circle id="SPH02074" cx="774.3" cy="762.28" r="9.2" style="fill:#ccc; stroke-width:0px;" /><circle id="SPH02075" cx="784.74" cy="783.65" r="9.2" style="fill:#ccc; stroke-width:0px;" /><circle id="SPH02076" cx="795.18" cy="805.01" r="9.2" style="fill:#ccc; stroke-width:0px;" /><circle id="SPH02077" cx="805.61" cy="826.37" r="9.2" style="fill:#ccc; stroke-width:0px;" /><circle id="SPH02078" cx="816.04" cy="847.73" r="9.2" style="fill:#ccc; stroke-width:0px;" /><circle id="SPH02079" cx="826.07" cy="869.27" r="9.2" style="fill:#ccc; stroke-width:0px;" /><circle id="SPH02080" cx="835.56" cy="891.05" r="9.2" style="fill:#ccc; stroke-width:0px;" /><circle id="SPH02081" cx="845.06" cy="912.84" r="9.2" style="fill:#ccc; stroke-width:0px;" /><circle id="SPH02082" cx="854.54" cy="934.62" r="9.2" style="fill:#ccc; stroke-width:0px;" /><circle id="SPH02083" cx="864.04" cy="956.4" r="9.2" style="fill:#ccc; stroke-width:0px;" /><circle id="SPH02084" cx="873.54" cy="978.2" r="9.2" style="fill:#ccc; stroke-width:0px;" /><circle id="SPH02085" cx="671.87" cy="490.97" r="9.2" style="fill:#ccc; stroke-width:0px;" /><circle id="SPH02086" cx="683.72" cy="510.7" r="9.2" style="fill:#ccc; stroke-width:0px;" /><circle id="SPH02087" cx="695.57" cy="530.44" r="9.2" style="fill:#ccc; stroke-width:0px;" /><circle id="SPH02088" cx="707.13" cy="550.33" r="9.2" style="fill:#ccc; stroke-width:0px;" /><circle id="SPH02089" cx="718.11" cy="570.56" r="9.2" style="fill:#ccc; stroke-width:0px;" /><circle id="SPH02090" cx="729.1" cy="590.78" r="9.2" style="fill:#ccc; stroke-width:0px;" /><circle id="SPH02091" cx="740.08" cy="611" r="9.2" style="fill:#ccc; stroke-width:0px;" /><circle id="SPH02092" cx="751.06" cy="631.23" r="9.2" style="fill:#ccc; stroke-width:0px;" /><circle id="SPH02093" cx="762.05" cy="651.45" r="9.2" style="fill:#ccc; stroke-width:0px;" /><circle id="SPH02094" cx="773.03" cy="671.67" r="9.2" style="fill:#ccc; stroke-width:0px;" /><circle id="SPH02095" cx="784" cy="691.89" r="9.2" style="fill:#ccc; stroke-width:0px;" /><circle id="SPH02096" cx="794.1" cy="712.56" r="9.2" style="fill:#ccc; stroke-width:0px;" /><circle id="SPH02097" cx="804.19" cy="733.24" r="9.2" style="fill:#ccc; stroke-width:0px;" /><circle id="SPH02098" cx="814.29" cy="753.92" r="9.2" style="fill:#ccc; stroke-width:0px;" /><circle id="SPH02099" cx="824.38" cy="774.58" r="9.2" style="fill:#ccc; stroke-width:0px;" /><circle id="SPH02100" cx="834.48" cy="795.26" r="9.2" style="fill:#ccc; stroke-width:0px;" /><circle id="SPH02101" cx="844.58" cy="815.93" r="9.2" style="fill:#ccc; stroke-width:0px;" /><circle id="SPH02102" cx="854.68" cy="836.62" r="9.2" style="fill:#ccc; stroke-width:0px;" /><circle id="SPH02103" cx="864.18" cy="857.58" r="9.2" style="fill:#ccc; stroke-width:0px;" /><circle id="SPH02104" cx="873.37" cy="878.69" r="9.2" style="fill:#ccc; stroke-width:0px;" /><circle id="SPH02105" cx="882.57" cy="899.79" r="9.2" style="fill:#ccc; stroke-width:0px;" /><circle id="SPH02106" cx="891.76" cy="920.89" r="9.2" style="fill:#ccc; stroke-width:0px;" /><circle id="SPH02107" cx="900.95" cy="942" r="9.2" style="fill:#ccc; stroke-width:0px;" /><circle id="SPH02108" cx="910.15" cy="963.1" r="9.2" style="fill:#ccc; stroke-width:0px;" /><circle id="SPH02109" cx="1043.3" cy="263.36" r="9.2" style="fill:#ccc; stroke-width:0px;" /><circle id="SPH02110" cx="1055.13" cy="283.08" r="9.2" style="fill:#ccc; stroke-width:0px;" /><circle id="SPH02111" cx="1066.97" cy="302.79" r="9.2" style="fill:#ccc; stroke-width:0px;" /><circle id="SPH02112" cx="1078.8" cy="322.49" r="9.2" style="fill:#ccc; stroke-width:0px;" /><circle id="SPH02113" cx="1089.98" cy="342.57" r="9.2" style="fill:#ccc; stroke-width:0px;" /><circle id="SPH02114" cx="1100.96" cy="362.78" r="9.2" style="fill:#ccc; stroke-width:0px;" /><circle id="SPH02115" cx="1111.94" cy="382.99" r="9.2" style="fill:#ccc; stroke-width:0px;" /><circle id="SPH02116" cx="1122.91" cy="403.19" r="9.2" style="fill:#ccc; stroke-width:0px;" /><circle id="SPH02117" cx="1133.89" cy="423.4" r="9.2" style="fill:#ccc; stroke-width:0px;" /><circle id="SPH02118" cx="1144.86" cy="443.6" r="9.2" style="fill:#ccc; stroke-width:0px;" /><circle id="SPH02119" cx="1155.84" cy="463.81" r="9.2" style="fill:#ccc; stroke-width:0px;" /><circle id="SPH02120" cx="1166.81" cy="484.01" r="9.2" style="fill:#ccc; stroke-width:0px;" /><circle id="SPH02121" cx="1177.25" cy="504.48" r="9.2" style="fill:#ccc; stroke-width:0px;" /><circle id="SPH02122" cx="1187.34" cy="525.14" r="9.2" style="fill:#ccc; stroke-width:0px;" /><circle id="SPH02123" cx="1197.42" cy="545.8" r="9.2" style="fill:#ccc; stroke-width:0px;" /><circle id="SPH02124" cx="1207.52" cy="566.48" r="9.2" style="fill:#ccc; stroke-width:0px;" /><circle id="SPH02125" cx="1217.61" cy="587.14" r="9.2" style="fill:#ccc; stroke-width:0px;" /><circle id="SPH02126" cx="1227.7" cy="607.8" r="9.2" style="fill:#ccc; stroke-width:0px;" /><circle id="SPH02127" cx="1237.8" cy="628.48" r="9.2" style="fill:#ccc; stroke-width:0px;" /><circle id="SPH02128" cx="1247.9" cy="649.15" r="9.2" style="fill:#ccc; stroke-width:0px;" /><circle id="SPH02129" cx="1257.59" cy="669.99" r="9.2" style="fill:#ccc; stroke-width:0px;" /><circle id="SPH02130" cx="1266.78" cy="691.07" r="9.2" style="fill:#ccc; stroke-width:0px;" /><circle id="SPH02131" cx="1275.96" cy="712.16" r="9.2" style="fill:#ccc; stroke-width:0px;" /><circle id="SPH02132" cx="1285.14" cy="733.24" r="9.2" style="fill:#ccc; stroke-width:0px;" /><circle id="SPH02133" cx="1294.34" cy="754.32" r="9.2" style="fill:#ccc; stroke-width:0px;" /><circle id="SPH02134" cx="1303.52" cy="775.4" r="9.2" style="fill:#ccc; stroke-width:0px;" /><circle id="SPH02135" cx="1312.7" cy="796.46" r="9.2" style="fill:#ccc; stroke-width:0px;" /><circle id="SPH02136" cx="705.64" cy="470.28" r="9.2" style="fill:#ccc; stroke-width:0px;" /><circle id="SPH02137" cx="717.62" cy="490.24" r="9.2" style="fill:#ccc; stroke-width:0px;" /><circle id="SPH02138" cx="729.61" cy="510.2" r="9.2" style="fill:#ccc; stroke-width:0px;" /><circle id="SPH02139" cx="741.33" cy="530.33" r="9.2" style="fill:#ccc; stroke-width:0px;" /><circle id="SPH02140" cx="752.44" cy="550.79" r="9.2" style="fill:#ccc; stroke-width:0px;" /><circle id="SPH02141" cx="763.55" cy="571.25" r="9.2" style="fill:#ccc; stroke-width:0px;" /><circle id="SPH02142" cx="774.66" cy="591.71" r="9.2" style="fill:#ccc; stroke-width:0px;" /><circle id="SPH02143" cx="785.78" cy="612.18" r="9.2" style="fill:#ccc; stroke-width:0px;" /><circle id="SPH02144" cx="796.9" cy="632.64" r="9.2" style="fill:#ccc; stroke-width:0px;" /><circle id="SPH02145" cx="808.02" cy="653.12" r="9.2" style="fill:#ccc; stroke-width:0px;" /><circle id="SPH02146" cx="819.13" cy="673.59" r="9.2" style="fill:#ccc; stroke-width:0px;" /><circle id="SPH02147" cx="829.34" cy="694.5" r="9.2" style="fill:#ccc; stroke-width:0px;" /><circle id="SPH02148" cx="839.57" cy="715.44" r="9.2" style="fill:#ccc; stroke-width:0px;" /><circle id="SPH02149" cx="849.8" cy="736.38" r="9.2" style="fill:#ccc; stroke-width:0px;" /><circle id="SPH02150" cx="860.03" cy="757.33" r="9.2" style="fill:#ccc; stroke-width:0px;" /><circle id="SPH02151" cx="870.26" cy="778.27" r="9.2" style="fill:#ccc; stroke-width:0px;" /><circle id="SPH02152" cx="880.48" cy="799.2" r="9.2" style="fill:#ccc; stroke-width:0px;" /><circle id="SPH02153" cx="890.7" cy="820.14" r="9.2" style="fill:#ccc; stroke-width:0px;" /><circle id="SPH02154" cx="900.3" cy="841.36" r="9.2" style="fill:#ccc; stroke-width:0px;" /><circle id="SPH02155" cx="909.6" cy="862.71" r="9.2" style="fill:#ccc; stroke-width:0px;" /><circle id="SPH02156" cx="918.9" cy="884.06" r="9.2" style="fill:#ccc; stroke-width:0px;" /><circle id="SPH02157" cx="928.21" cy="905.41" r="9.2" style="fill:#ccc; stroke-width:0px;" /><circle id="SPH02158" cx="937.51" cy="926.76" r="9.2" style="fill:#ccc; stroke-width:0px;" /><circle id="SPH02159" cx="946.82" cy="948.11" r="9.2" style="fill:#ccc; stroke-width:0px;" /></g></svg>