<svg id="Layer_1" viewBox="0 0 1697.6 1405.17" xmlns="http://www.w3.org/2000/svg"><g id="back"><g id="back-2"><path id="sphere" d="M3546.75-325.2c0-1528.34-1241.46-2769.81-2769.81-2769.81S-1992.87-1853.54-1992.87-325.2-751.41,2444.61,776.94,2444.61h0c1528.34,0,2769.81-1241.46,2769.81-2769.81Z" style="fill:#f2f2f2; stroke:#ddd; stroke-miterlimit:10; stroke-width:3px;" /><path d="M-1559.68-326.53c0,655.33,307.79,1239.54,786.53,1615.79,66.08,51.94,160.31,48.05,221.66-9.39C-122.43,878.16,145.92,306.82,145.92-326.53S-122.43-1531.22-551.49-1932.93c-61.36-57.44-155.58-61.33-221.66-9.39-478.74,376.25-786.53,960.46-786.53,1615.79h0Z" style="fill:#e5e5e5; stroke:#ddd; stroke-miterlimit:10; stroke-width:3px;" /></g><g id="sectors"><path id="_203" d="M761.37,1600.47c-145.43-89.12-400.61-245.51-546.04-334.63,84.13-134.43,157.34-275.13,219.04-420.74h0c158.5,65.66,433.17,179.39,591.67,245.05,0,0-165.46,353.52-264.67,510.32h0Z" style="fill:#fff; stroke:#ddd; stroke-miterlimit:10; stroke-width:9px;" /><path id="_204" d="M1026.04,1090.15c-38.71-16.04-433.14-179.42-591.65-245.07,61.78-145.78,112.02-296.48,150.13-450.7,207.57,49.83,415.13,99.66,622.7,149.5-30.57,124.33-67.81,247.45-111.69,368.81h0c-21.66,59.88-44.83,119.05-69.49,177.46h0Z" style="fill:#fff; stroke:#ddd; stroke-miterlimit:10; stroke-width:9px;" /><path id="_202" d="M215.2,1265.77s.07.05.12.07c135.57,83.08,499.61,306.17,546.05,334.63-101.98,163.57-216.7,318.6-342.97,463.68-31.8-27.15-477.68-407.98-668.82-571.22,15.19-17.34,30.15-34.88,44.9-52.59,47.95-57.62,93.55-117.18,136.68-178.54h0c94.68,1.32,189.36,2.65,284.04,3.98h0Z" style="fill:#fff; stroke:#ddd; stroke-miterlimit:10; stroke-width:9px;" /><path id="_205" d="M584.52,394.38c207.57,49.83,415.15,99.67,622.72,149.5,50.62-205.84,82.98-415.04,97.07-625.17-54.3-4.27-479.96-37.77-638.47-50.25-8.94,138.44-27.51,276.4-55.69,412.89h0c-7.82,37.87-16.36,75.56-25.62,113.03h0Z" style="fill:#fff; stroke:#ddd; stroke-miterlimit:10; stroke-width:9px;" /><path id="_403" d="M1657.29,1948.14c58.27,35.71,116.55,71.43,174.84,107.15,267.98-119.46,512.21-282.18,723.64-479.17-3.46-1.43-553.26-229.18-587.75-243.46-72.42,176.85-156.05,348.07-250.14,512.72h0c-19.74,34.55-39.95,68.8-60.6,102.76h.01Z" style="fill:#fff; stroke:#ddd; stroke-miterlimit:10; stroke-width:9px;" /><path id="_303" d="M1657.15,1948.06c-234.62-143.77-469.24-287.55-703.85-431.32,96.59-159.1,180.92-326.23,251.9-500.05,254.22,105.3,508.45,210.61,762.68,315.91-72.41,176.85-156.04,348.06-250.14,512.71h0c-19.74,34.55-39.94,68.8-60.59,102.75h0Z" style="fill:#fff; stroke:#ddd; stroke-miterlimit:10; stroke-width:9px;" /><path id="_304" d="M1570.45,529.87c-12.93,55.22-27.11,110.15-42.54,164.75-75.95,20.35-151.89,40.7-227.85,61.05-13.04,40.79-26.83,81.4-41.39,121.81-16.88,46.86-34.71,93.27-53.48,139.21,254.22,105.3,508.45,210.61,762.68,315.91,23.71-57.9,46.22-116.4,67.49-175.48,56.99-158.26,104.57-318.99,142.74-481.38h0c-202.56-48.63-405.12-97.26-607.66-145.88h0Z" style="fill:#fff; stroke:#ddd; stroke-miterlimit:10; stroke-width:9px;" /><path id="_305" d="M2178.11,675.74c-202.56-48.63-405.12-97.26-607.66-145.88,32.38-138.24,56.9-278.33,73.41-419.58,6.5-55.69,11.76-111.48,15.76-167.35,207.66,16.34,415.33,32.69,623.01,49.03-10.51,144.74-28.24,289.08-53.18,432.48h0c-14.63,84.13-31.74,167.93-51.34,251.3h0Z" style="fill:#fff; stroke:#ddd; stroke-miterlimit:10; stroke-width:9px;" /></g></g><g id="Seats"><circle id="SPH03191" cx="765.81" cy="481.71" r="9.2" style="fill:#ccc; stroke-width:0px;" /><circle id="SPH03192" cx="759.53" cy="505.57" r="9.2" style="fill:#ccc; stroke-width:0px;" /><circle id="SPH03193" cx="752.68" cy="529.27" r="9.2" style="fill:#ccc; stroke-width:0px;" /><circle id="SPH03194" cx="745.83" cy="552.97" r="9.2" style="fill:#ccc; stroke-width:0px;" /><circle id="SPH03195" cx="738.97" cy="576.67" r="9.2" style="fill:#ccc; stroke-width:0px;" /><circle id="SPH03196" cx="732.12" cy="600.37" r="9.2" style="fill:#ccc; stroke-width:0px;" /><circle id="SPH03197" cx="725.26" cy="624.07" r="9.2" style="fill:#ccc; stroke-width:0px;" /><circle id="SPH03198" cx="717.58" cy="647.51" r="9.2" style="fill:#ccc; stroke-width:0px;" /><circle id="SPH03199" cx="709.7" cy="670.89" r="9.2" style="fill:#ccc; stroke-width:0px;" /><circle id="SPH03200" cx="701.82" cy="694.26" r="9.2" style="fill:#ccc; stroke-width:0px;" /><circle id="SPH03201" cx="693.94" cy="717.64" r="9.2" style="fill:#ccc; stroke-width:0px;" /><circle id="SPH03202" cx="686.06" cy="741" r="9.2" style="fill:#ccc; stroke-width:0px;" /><circle id="SPH03203" cx="678.04" cy="764.3" r="9.2" style="fill:#ccc; stroke-width:0px;" /><circle id="SPH03204" cx="669.16" cy="787.3" r="9.2" style="fill:#ccc; stroke-width:0px;" /><circle id="SPH03205" cx="660.26" cy="810.3" r="9.2" style="fill:#ccc; stroke-width:0px;" /><circle id="SPH03206" cx="651.37" cy="833.3" r="9.2" style="fill:#ccc; stroke-width:0px;" /><circle id="SPH03207" cx="642.48" cy="856.3" r="9.2" style="fill:#ccc; stroke-width:0px;" /><circle id="SPH03208" cx="633.58" cy="879.33" r="9.2" style="fill:#ccc; stroke-width:0px;" /><circle id="SPH03209" cx="804.32" cy="490.96" r="9.2" style="fill:#ccc; stroke-width:0px;" /><circle id="SPH03210" cx="797.98" cy="515.17" r="9.2" style="fill:#ccc; stroke-width:0px;" /><circle id="SPH03211" cx="791.02" cy="539.23" r="9.2" style="fill:#ccc; stroke-width:0px;" /><circle id="SPH03212" cx="784.06" cy="563.29" r="9.2" style="fill:#ccc; stroke-width:0px;" /><circle id="SPH03213" cx="777.11" cy="587.35" r="9.2" style="fill:#ccc; stroke-width:0px;" /><circle id="SPH03214" cx="770.15" cy="611.41" r="9.2" style="fill:#ccc; stroke-width:0px;" /><circle id="SPH03215" cx="763.2" cy="635.45" r="9.2" style="fill:#ccc; stroke-width:0px;" /><circle id="SPH03216" cx="755.42" cy="659.25" r="9.2" style="fill:#ccc; stroke-width:0px;" /><circle id="SPH03217" cx="747.42" cy="682.97" r="9.2" style="fill:#ccc; stroke-width:0px;" /><circle id="SPH03218" cx="739.42" cy="706.7" r="9.2" style="fill:#ccc; stroke-width:0px;" /><circle id="SPH03219" cx="731.42" cy="730.43" r="9.2" style="fill:#ccc; stroke-width:0px;" /><circle id="SPH03220" cx="723.41" cy="754.17" r="9.2" style="fill:#ccc; stroke-width:0px;" /><circle id="SPH03221" cx="715.25" cy="777.87" r="9.2" style="fill:#ccc; stroke-width:0px;" /><circle id="SPH03222" cx="706.22" cy="801.25" r="9.2" style="fill:#ccc; stroke-width:0px;" /><circle id="SPH03223" cx="697.18" cy="824.62" r="9.2" style="fill:#ccc; stroke-width:0px;" /><circle id="SPH03224" cx="688.15" cy="847.98" r="9.2" style="fill:#ccc; stroke-width:0px;" /><circle id="SPH03225" cx="679.12" cy="871.34" r="9.2" style="fill:#ccc; stroke-width:0px;" /><circle id="SPH03226" cx="670.09" cy="894.69" r="9.2" style="fill:#ccc; stroke-width:0px;" /><circle id="SPH03227" cx="842.82" cy="500.21" r="9.2" style="fill:#ccc; stroke-width:0px;" /><circle id="SPH03228" cx="836.81" cy="523.43" r="9.2" style="fill:#ccc; stroke-width:0px;" /><circle id="SPH03229" cx="830.15" cy="546.48" r="9.2" style="fill:#ccc; stroke-width:0px;" /><circle id="SPH03230" cx="823.48" cy="569.52" r="9.2" style="fill:#ccc; stroke-width:0px;" /><circle id="SPH03231" cx="816.82" cy="592.56" r="9.2" style="fill:#ccc; stroke-width:0px;" /><circle id="SPH03232" cx="810.16" cy="615.61" r="9.2" style="fill:#ccc; stroke-width:0px;" /><circle id="SPH03233" cx="803.48" cy="638.66" r="9.2" style="fill:#ccc; stroke-width:0px;" /><circle id="SPH03234" cx="796.42" cy="661.59" r="9.2" style="fill:#ccc; stroke-width:0px;" /><circle id="SPH03235" cx="788.75" cy="684.33" r="9.2" style="fill:#ccc; stroke-width:0px;" /><circle id="SPH03236" cx="781.08" cy="707.07" r="9.2" style="fill:#ccc; stroke-width:0px;" /><circle id="SPH03237" cx="773.42" cy="729.81" r="9.2" style="fill:#ccc; stroke-width:0px;" /><circle id="SPH03238" cx="765.75" cy="752.56" r="9.2" style="fill:#ccc; stroke-width:0px;" /><circle id="SPH03239" cx="758.09" cy="775.26" r="9.2" style="fill:#ccc; stroke-width:0px;" /><circle id="SPH03240" cx="750" cy="797.81" r="9.2" style="fill:#ccc; stroke-width:0px;" /><circle id="SPH03241" cx="741.36" cy="820.17" r="9.2" style="fill:#ccc; stroke-width:0px;" /><circle id="SPH03242" cx="732.71" cy="842.54" r="9.2" style="fill:#ccc; stroke-width:0px;" /><circle id="SPH03243" cx="724.06" cy="864.91" r="9.2" style="fill:#ccc; stroke-width:0px;" /><circle id="SPH03244" cx="715.41" cy="887.28" r="9.2" style="fill:#ccc; stroke-width:0px;" /><circle id="SPH03245" cx="706.76" cy="909.65" r="9.2" style="fill:#ccc; stroke-width:0px;" /><circle id="SPH03246" cx="881.32" cy="509.45" r="9.2" style="fill:#ccc; stroke-width:0px;" /><circle id="SPH03247" cx="875.26" cy="533.02" r="9.2" style="fill:#ccc; stroke-width:0px;" /><circle id="SPH03248" cx="868.5" cy="556.41" r="9.2" style="fill:#ccc; stroke-width:0px;" /><circle id="SPH03249" cx="861.74" cy="579.78" r="9.2" style="fill:#ccc; stroke-width:0px;" /><circle id="SPH03250" cx="854.97" cy="603.17" r="9.2" style="fill:#ccc; stroke-width:0px;" /><circle id="SPH03251" cx="848.21" cy="626.54" r="9.2" style="fill:#ccc; stroke-width:0px;" /><circle id="SPH03252" cx="841.46" cy="649.91" r="9.2" style="fill:#ccc; stroke-width:0px;" /><circle id="SPH03253" cx="834.31" cy="673.16" r="9.2" style="fill:#ccc; stroke-width:0px;" /><circle id="SPH03254" cx="826.53" cy="696.21" r="9.2" style="fill:#ccc; stroke-width:0px;" /><circle id="SPH03255" cx="818.76" cy="719.26" r="9.2" style="fill:#ccc; stroke-width:0px;" /><circle id="SPH03256" cx="810.99" cy="742.33" r="9.2" style="fill:#ccc; stroke-width:0px;" /><circle id="SPH03257" cx="803.21" cy="765.38" r="9.2" style="fill:#ccc; stroke-width:0px;" /><circle id="SPH03258" cx="795.44" cy="788.43" r="9.2" style="fill:#ccc; stroke-width:0px;" /><circle id="SPH03259" cx="787.23" cy="811.33" r="9.2" style="fill:#ccc; stroke-width:0px;" /><circle id="SPH03260" cx="778.46" cy="834.02" r="9.2" style="fill:#ccc; stroke-width:0px;" /><circle id="SPH03261" cx="769.68" cy="856.72" r="9.2" style="fill:#ccc; stroke-width:0px;" /><circle id="SPH03262" cx="760.91" cy="879.41" r="9.2" style="fill:#ccc; stroke-width:0px;" /><circle id="SPH03263" cx="752.13" cy="902.11" r="9.2" style="fill:#ccc; stroke-width:0px;" /><circle id="SPH03264" cx="743.36" cy="924.82" r="9.2" style="fill:#ccc; stroke-width:0px;" /><circle id="SPH03265" cx="919.83" cy="518.69" r="9.2" style="fill:#ccc; stroke-width:0px;" /><circle id="SPH03266" cx="913.72" cy="542.6" r="9.2" style="fill:#ccc; stroke-width:0px;" /><circle id="SPH03267" cx="906.86" cy="566.31" r="9.2" style="fill:#ccc; stroke-width:0px;" /><circle id="SPH03268" cx="900" cy="590.03" r="9.2" style="fill:#ccc; stroke-width:0px;" /><circle id="SPH03269" cx="893.14" cy="613.74" r="9.2" style="fill:#ccc; stroke-width:0px;" /><circle id="SPH03270" cx="886.28" cy="637.45" r="9.2" style="fill:#ccc; stroke-width:0px;" /><circle id="SPH03271" cx="879.43" cy="661.17" r="9.2" style="fill:#ccc; stroke-width:0px;" /><circle id="SPH03272" cx="872.19" cy="684.76" r="9.2" style="fill:#ccc; stroke-width:0px;" /><circle id="SPH03273" cx="864.3" cy="708.14" r="9.2" style="fill:#ccc; stroke-width:0px;" /><circle id="SPH03274" cx="856.42" cy="731.52" r="9.2" style="fill:#ccc; stroke-width:0px;" /><circle id="SPH03275" cx="848.54" cy="754.89" r="9.2" style="fill:#ccc; stroke-width:0px;" /><circle id="SPH03276" cx="840.65" cy="778.29" r="9.2" style="fill:#ccc; stroke-width:0px;" /><circle id="SPH03277" cx="832.76" cy="801.71" r="9.2" style="fill:#ccc; stroke-width:0px;" /><circle id="SPH03278" cx="824.41" cy="824.97" r="9.2" style="fill:#ccc; stroke-width:0px;" /><circle id="SPH03279" cx="815.5" cy="848.02" r="9.2" style="fill:#ccc; stroke-width:0px;" /><circle id="SPH03280" cx="806.6" cy="871.06" r="9.2" style="fill:#ccc; stroke-width:0px;" /><circle id="SPH03281" cx="797.68" cy="894.11" r="9.2" style="fill:#ccc; stroke-width:0px;" /><circle id="SPH03282" cx="788.77" cy="917.16" r="9.2" style="fill:#ccc; stroke-width:0px;" /><circle id="SPH03283" cx="779.86" cy="940.21" r="9.2" style="fill:#ccc; stroke-width:0px;" /><circle id="SPH03284" cx="958.34" cy="527.93" r="9.2" style="fill:#ccc; stroke-width:0px;" /><circle id="SPH03285" cx="952.16" cy="552.19" r="9.2" style="fill:#ccc; stroke-width:0px;" /><circle id="SPH03286" cx="945.21" cy="576.24" r="9.2" style="fill:#ccc; stroke-width:0px;" /><circle id="SPH03287" cx="938.25" cy="600.28" r="9.2" style="fill:#ccc; stroke-width:0px;" /><circle id="SPH03288" cx="931.3" cy="624.32" r="9.2" style="fill:#ccc; stroke-width:0px;" /><circle id="SPH03289" cx="924.35" cy="648.37" r="9.2" style="fill:#ccc; stroke-width:0px;" /><circle id="SPH03290" cx="917.4" cy="672.41" r="9.2" style="fill:#ccc; stroke-width:0px;" /><circle id="SPH03291" cx="910.07" cy="696.35" r="9.2" style="fill:#ccc; stroke-width:0px;" /><circle id="SPH03292" cx="902.07" cy="720.07" r="9.2" style="fill:#ccc; stroke-width:0px;" /><circle id="SPH03293" cx="894.07" cy="743.8" r="9.2" style="fill:#ccc; stroke-width:0px;" /><circle id="SPH03294" cx="886.07" cy="767.53" r="9.2" style="fill:#ccc; stroke-width:0px;" /><circle id="SPH03295" cx="878.07" cy="791.25" r="9.2" style="fill:#ccc; stroke-width:0px;" /><circle id="SPH03296" cx="870.08" cy="814.93" r="9.2" style="fill:#ccc; stroke-width:0px;" /><circle id="SPH03297" cx="861.65" cy="838.46" r="9.2" style="fill:#ccc; stroke-width:0px;" /><circle id="SPH03298" cx="852.64" cy="861.8" r="9.2" style="fill:#ccc; stroke-width:0px;" /><circle id="SPH03299" cx="843.6" cy="885.14" r="9.2" style="fill:#ccc; stroke-width:0px;" /><circle id="SPH03300" cx="834.59" cy="908.47" r="9.2" style="fill:#ccc; stroke-width:0px;" /><circle id="SPH03301" cx="825.57" cy="931.79" r="9.2" style="fill:#ccc; stroke-width:0px;" /><circle id="SPH03302" cx="816.56" cy="955.12" r="9.2" style="fill:#ccc; stroke-width:0px;" /><circle id="SPH03303" cx="996.84" cy="537.18" r="9.2" style="fill:#ccc; stroke-width:0px;" /><circle id="SPH03304" cx="990.99" cy="560.49" r="9.2" style="fill:#ccc; stroke-width:0px;" /><circle id="SPH03305" cx="984.31" cy="583.59" r="9.2" style="fill:#ccc; stroke-width:0px;" /><circle id="SPH03306" cx="977.63" cy="606.68" r="9.2" style="fill:#ccc; stroke-width:0px;" /><circle id="SPH03307" cx="970.95" cy="629.77" r="9.2" style="fill:#ccc; stroke-width:0px;" /><circle id="SPH03308" cx="964.27" cy="652.87" r="9.2" style="fill:#ccc; stroke-width:0px;" /><circle id="SPH03309" cx="957.59" cy="675.97" r="9.2" style="fill:#ccc; stroke-width:0px;" /><circle id="SPH03310" cx="950.91" cy="699.06" r="9.2" style="fill:#ccc; stroke-width:0px;" /><circle id="SPH03311" cx="943.26" cy="721.85" r="9.2" style="fill:#ccc; stroke-width:0px;" /><circle id="SPH03312" cx="935.58" cy="744.63" r="9.2" style="fill:#ccc; stroke-width:0px;" /><circle id="SPH03313" cx="927.89" cy="767.42" r="9.2" style="fill:#ccc; stroke-width:0px;" /><circle id="SPH03314" cx="920.21" cy="790.21" r="9.2" style="fill:#ccc; stroke-width:0px;" /><circle id="SPH03315" cx="912.53" cy="812.98" r="9.2" style="fill:#ccc; stroke-width:0px;" /><circle id="SPH03316" cx="904.85" cy="835.77" r="9.2" style="fill:#ccc; stroke-width:0px;" /><circle id="SPH03317" cx="896.44" cy="858.29" r="9.2" style="fill:#ccc; stroke-width:0px;" /><circle id="SPH03318" cx="887.78" cy="880.71" r="9.2" style="fill:#ccc; stroke-width:0px;" /><circle id="SPH03319" cx="879.11" cy="903.13" r="9.2" style="fill:#ccc; stroke-width:0px;" /><circle id="SPH03320" cx="870.44" cy="925.57" r="9.2" style="fill:#ccc; stroke-width:0px;" /><circle id="SPH03321" cx="861.77" cy="947.98" r="9.2" style="fill:#ccc; stroke-width:0px;" /><circle id="SPH03322" cx="853.1" cy="970.41" r="9.2" style="fill:#ccc; stroke-width:0px;" /><circle id="SPH03323" cx="1021.21" cy="598.53" r="9.2" style="fill:#ccc; stroke-width:0px;" /><circle id="SPH03324" cx="1014.64" cy="621.25" r="9.2" style="fill:#ccc; stroke-width:0px;" /><circle id="SPH03325" cx="1008.06" cy="643.98" r="9.2" style="fill:#ccc; stroke-width:0px;" /><circle id="SPH03326" cx="1001.49" cy="666.71" r="9.2" style="fill:#ccc; stroke-width:0px;" /><circle id="SPH03327" cx="994.92" cy="689.44" r="9.2" style="fill:#ccc; stroke-width:0px;" /><circle id="SPH03328" cx="988.32" cy="712.17" r="9.2" style="fill:#ccc; stroke-width:0px;" /><circle id="SPH03329" cx="980.76" cy="734.58" r="9.2" style="fill:#ccc; stroke-width:0px;" /><circle id="SPH03330" cx="973.2" cy="757.01" r="9.2" style="fill:#ccc; stroke-width:0px;" /><circle id="SPH03331" cx="965.64" cy="779.42" r="9.2" style="fill:#ccc; stroke-width:0px;" /><circle id="SPH03332" cx="958.08" cy="801.84" r="9.2" style="fill:#ccc; stroke-width:0px;" /><circle id="SPH03333" cx="950.52" cy="824.29" r="9.2" style="fill:#ccc; stroke-width:0px;" /><circle id="SPH03334" cx="942.95" cy="846.73" r="9.2" style="fill:#ccc; stroke-width:0px;" /><circle id="SPH03335" cx="934.78" cy="868.94" r="9.2" style="fill:#ccc; stroke-width:0px;" /><circle id="SPH03336" cx="926.25" cy="891.02" r="9.2" style="fill:#ccc; stroke-width:0px;" /><circle id="SPH03337" cx="917.71" cy="913.1" r="9.2" style="fill:#ccc; stroke-width:0px;" /><circle id="SPH03338" cx="909.18" cy="935.17" r="9.2" style="fill:#ccc; stroke-width:0px;" /><circle id="SPH03339" cx="1059.75" cy="607.8" r="9.2" style="fill:#ccc; stroke-width:0px;" /><circle id="SPH03340" cx="1053.06" cy="630.93" r="9.2" style="fill:#ccc; stroke-width:0px;" /><circle id="SPH03341" cx="1046.37" cy="654.06" r="9.2" style="fill:#ccc; stroke-width:0px;" /><circle id="SPH03342" cx="1039.68" cy="677.2" r="9.2" style="fill:#ccc; stroke-width:0px;" /><circle id="SPH03343" cx="1032.99" cy="700.33" r="9.2" transform="translate(176.24 1607.8) rotate(-80.78)" style="fill:#ccc; stroke-width:0px;" /><circle id="SPH03344" cx="1026.29" cy="723.47" r="9.2" transform="translate(147.77 1620.62) rotate(-80.78)" style="fill:#ccc; stroke-width:0px;" /><circle id="SPH03345" cx="1018.6" cy="746.29" r="9.2" transform="translate(118.78 1632.19) rotate(-80.78)" style="fill:#ccc; stroke-width:0px;" /><circle id="SPH03346" cx="1010.91" cy="769.11" r="9.2" style="fill:#ccc; stroke-width:0px;" /><circle id="SPH03347" cx="1003.21" cy="791.93" r="9.2" style="fill:#ccc; stroke-width:0px;" /><circle id="SPH03348" cx="995.52" cy="814.74" r="9.2" style="fill:#ccc; stroke-width:0px;" /><circle id="SPH03349" cx="987.84" cy="837.53" r="9.2" style="fill:#ccc; stroke-width:0px;" /><circle id="SPH03350" cx="980.15" cy="860.33" r="9.2" style="fill:#ccc; stroke-width:0px;" /><circle id="SPH03351" cx="971.84" cy="882.91" r="9.2" style="fill:#ccc; stroke-width:0px;" /><circle id="SPH03352" cx="963.16" cy="905.37" r="9.2" style="fill:#ccc; stroke-width:0px;" /><circle id="SPH03353" cx="954.48" cy="927.82" r="9.2" style="fill:#ccc; stroke-width:0px;" /><circle id="SPH03354" cx="945.8" cy="950.27" r="9.2" style="fill:#ccc; stroke-width:0px;" /><circle id="SPH03355" cx="611.79" cy="444.73" r="9.2" style="fill:#ccc; stroke-width:0px;" /><circle id="SPH03356" cx="605.36" cy="468.54" r="9.2" style="fill:#ccc; stroke-width:0px;" /><circle id="SPH03357" cx="598.5" cy="492.23" r="9.2" style="fill:#ccc; stroke-width:0px;" /><circle id="SPH03358" cx="591.65" cy="515.92" r="9.2" style="fill:#ccc; stroke-width:0px;" /><circle id="SPH03359" cx="584.8" cy="539.61" r="9.2" style="fill:#ccc; stroke-width:0px;" /><circle id="SPH03360" cx="577.95" cy="563.3" r="9.2" style="fill:#ccc; stroke-width:0px;" /><circle id="SPH03361" cx="570.85" cy="586.92" r="9.2" style="fill:#ccc; stroke-width:0px;" /><circle id="SPH03362" cx="562.97" cy="610.29" r="9.2" style="fill:#ccc; stroke-width:0px;" /><circle id="SPH03363" cx="555.1" cy="633.65" r="9.2" style="fill:#ccc; stroke-width:0px;" /><circle id="SPH03364" cx="547.22" cy="657.01" r="9.2" style="fill:#ccc; stroke-width:0px;" /><circle id="SPH03365" cx="539.34" cy="680.37" r="9.2" style="fill:#ccc; stroke-width:0px;" /><circle id="SPH03366" cx="531.46" cy="703.74" r="9.2" style="fill:#ccc; stroke-width:0px;" /><circle id="SPH03367" cx="522.72" cy="726.81" r="9.2" style="fill:#ccc; stroke-width:0px;" /><circle id="SPH03368" cx="513.82" cy="749.82" r="9.2" style="fill:#ccc; stroke-width:0px;" /><circle id="SPH03369" cx="504.93" cy="772.81" r="9.2" style="fill:#ccc; stroke-width:0px;" /><circle id="SPH03370" cx="496.04" cy="795.81" r="9.2" style="fill:#ccc; stroke-width:0px;" /><circle id="SPH03371" cx="487.15" cy="818.8" r="9.2" style="fill:#ccc; stroke-width:0px;" /><circle id="SPH03372" cx="650.29" cy="453.98" r="9.2" style="fill:#ccc; stroke-width:0px;" /><circle id="SPH03373" cx="643.8" cy="478.16" r="9.2" style="fill:#ccc; stroke-width:0px;" /><circle id="SPH03374" cx="636.84" cy="502.22" r="9.2" style="fill:#ccc; stroke-width:0px;" /><circle id="SPH03375" cx="629.88" cy="526.29" r="9.2" style="fill:#ccc; stroke-width:0px;" /><circle id="SPH03376" cx="622.92" cy="550.35" r="9.2" style="fill:#ccc; stroke-width:0px;" /><circle id="SPH03377" cx="615.96" cy="574.42" r="9.2" style="fill:#ccc; stroke-width:0px;" /><circle id="SPH03378" cx="608.76" cy="598.41" r="9.2" style="fill:#ccc; stroke-width:0px;" /><circle id="SPH03379" cx="600.76" cy="622.15" r="9.2" style="fill:#ccc; stroke-width:0px;" /><circle id="SPH03380" cx="592.76" cy="645.89" r="9.2" style="fill:#ccc; stroke-width:0px;" /><circle id="SPH03381" cx="584.76" cy="669.62" r="9.2" style="fill:#ccc; stroke-width:0px;" /><circle id="SPH03382" cx="576.76" cy="693.37" r="9.2" style="fill:#ccc; stroke-width:0px;" /><circle id="SPH03383" cx="568.76" cy="717.09" r="9.2" style="fill:#ccc; stroke-width:0px;" /><circle id="SPH03384" cx="559.88" cy="740.49" r="9.2" style="fill:#ccc; stroke-width:0px;" /><circle id="SPH03385" cx="550.85" cy="763.84" r="9.2" style="fill:#ccc; stroke-width:0px;" /><circle id="SPH03386" cx="541.83" cy="787.18" r="9.2" style="fill:#ccc; stroke-width:0px;" /><circle id="SPH03387" cx="532.8" cy="810.53" r="9.2" style="fill:#ccc; stroke-width:0px;" /><circle id="SPH03388" cx="523.78" cy="833.87" r="9.2" style="fill:#ccc; stroke-width:0px;" /><circle id="SPH03389" cx="688.8" cy="463.22" r="9.2" style="fill:#ccc; stroke-width:0px;" /><circle id="SPH03390" cx="682.23" cy="487.8" r="9.2" style="fill:#ccc; stroke-width:0px;" /><circle id="SPH03391" cx="675.16" cy="512.23" r="9.2" style="fill:#ccc; stroke-width:0px;" /><circle id="SPH03392" cx="668.09" cy="536.67" r="9.2" style="fill:#ccc; stroke-width:0px;" /><circle id="SPH03393" cx="661.03" cy="561.1" r="9.2" style="fill:#ccc; stroke-width:0px;" /><circle id="SPH03394" cx="653.96" cy="585.53" r="9.2" style="fill:#ccc; stroke-width:0px;" /><circle id="SPH03395" cx="646.68" cy="609.89" r="9.2" style="fill:#ccc; stroke-width:0px;" /><circle id="SPH03396" cx="638.56" cy="633.99" r="9.2" style="fill:#ccc; stroke-width:0px;" /><circle id="SPH03397" cx="630.44" cy="658.09" r="9.2" style="fill:#ccc; stroke-width:0px;" /><circle id="SPH03398" cx="622.31" cy="682.2" r="9.2" style="fill:#ccc; stroke-width:0px;" /><circle id="SPH03399" cx="614.18" cy="706.3" r="9.2" style="fill:#ccc; stroke-width:0px;" /><circle id="SPH03400" cx="606.05" cy="730.41" r="9.2" style="fill:#ccc; stroke-width:0px;" /><circle id="SPH03401" cx="597.04" cy="754.21" r="9.2" style="fill:#ccc; stroke-width:0px;" /><circle id="SPH03402" cx="587.86" cy="777.94" r="9.2" style="fill:#ccc; stroke-width:0px;" /><circle id="SPH03403" cx="578.68" cy="801.68" r="9.2" style="fill:#ccc; stroke-width:0px;" /><circle id="SPH03404" cx="569.51" cy="825.41" r="9.2" style="fill:#ccc; stroke-width:0px;" /><circle id="SPH03405" cx="560.33" cy="849.15" r="9.2" style="fill:#ccc; stroke-width:0px;" /><circle id="SPH03406" cx="1098.3" cy="617.04" r="9.2" style="fill:#ccc; stroke-width:0px;" /><circle id="SPH03407" cx="1091.49" cy="640.57" r="9.2" style="fill:#ccc; stroke-width:0px;" /><circle id="SPH03408" cx="1084.69" cy="664.09" r="9.2" style="fill:#ccc; stroke-width:0px;" /><circle id="SPH03409" cx="1077.88" cy="687.62" r="9.2" style="fill:#ccc; stroke-width:0px;" /><circle id="SPH03410" cx="1071.08" cy="711.15" r="9.2" style="fill:#ccc; stroke-width:0px;" /><circle id="SPH03411" cx="1064.28" cy="734.68" r="9.2" style="fill:#ccc; stroke-width:0px;" /><circle id="SPH03412" cx="1056.48" cy="757.9" r="9.2" style="fill:#ccc; stroke-width:0px;" /><circle id="SPH03413" cx="1048.64" cy="781.13" r="9.2" style="fill:#ccc; stroke-width:0px;" /><circle id="SPH03414" cx="1040.82" cy="804.33" r="9.2" style="fill:#ccc; stroke-width:0px;" /><circle id="SPH03415" cx="1033" cy="827.55" r="9.2" transform="translate(50.67 1714.65) rotate(-80.78)" style="fill:#ccc; stroke-width:0px;" /><circle id="SPH03416" cx="1025.16" cy="850.77" r="9.2" transform="translate(21.16 1726.41) rotate(-80.78)" style="fill:#ccc; stroke-width:0px;" /><circle id="SPH03417" cx="1017.33" cy="873.99" r="9.2" style="fill:#ccc; stroke-width:0px;" /><circle id="SPH03418" cx="1008.85" cy="896.98" r="9.2" style="fill:#ccc; stroke-width:0px;" /><circle id="SPH03419" cx="1000.02" cy="919.83" r="9.2" style="fill:#ccc; stroke-width:0px;" /><circle id="SPH03420" cx="991.19" cy="942.68" r="9.2" style="fill:#ccc; stroke-width:0px;" /><circle id="SPH03421" cx="982.36" cy="965.53" r="9.2" style="fill:#ccc; stroke-width:0px;" /><circle id="SPH03422" cx="727.3" cy="472.47" r="9.2" style="fill:#ccc; stroke-width:0px;" /><circle id="SPH03423" cx="721.09" cy="495.97" r="9.2" style="fill:#ccc; stroke-width:0px;" /><circle id="SPH03424" cx="714.34" cy="519.31" r="9.2" style="fill:#ccc; stroke-width:0px;" /><circle id="SPH03425" cx="707.58" cy="542.66" r="9.2" style="fill:#ccc; stroke-width:0px;" /><circle id="SPH03426" cx="700.83" cy="566.01" r="9.2" style="fill:#ccc; stroke-width:0px;" /><circle id="SPH03427" cx="694.08" cy="589.36" r="9.2" style="fill:#ccc; stroke-width:0px;" /><circle id="SPH03428" cx="687.32" cy="612.71" r="9.2" style="fill:#ccc; stroke-width:0px;" /><circle id="SPH03429" cx="679.74" cy="635.8" r="9.2" style="fill:#ccc; stroke-width:0px;" /><circle id="SPH03430" cx="671.98" cy="658.83" r="9.2" style="fill:#ccc; stroke-width:0px;" /><circle id="SPH03431" cx="664.21" cy="681.86" r="9.2" style="fill:#ccc; stroke-width:0px;" /><circle id="SPH03432" cx="656.44" cy="704.89" r="9.2" style="fill:#ccc; stroke-width:0px;" /><circle id="SPH03433" cx="648.68" cy="727.93" r="9.2" style="fill:#ccc; stroke-width:0px;" /><circle id="SPH03434" cx="640.76" cy="750.91" r="9.2" style="fill:#ccc; stroke-width:0px;" /><circle id="SPH03435" cx="632" cy="773.58" r="9.2" style="fill:#ccc; stroke-width:0px;" /><circle id="SPH03436" cx="623.24" cy="796.25" r="9.2" style="fill:#ccc; stroke-width:0px;" /><circle id="SPH03437" cx="614.47" cy="818.93" r="9.2" style="fill:#ccc; stroke-width:0px;" /><circle id="SPH03438" cx="605.7" cy="841.61" r="9.2" style="fill:#ccc; stroke-width:0px;" /><circle id="SPH03439" cx="596.93" cy="864.29" r="9.2" style="fill:#ccc; stroke-width:0px;" /><circle id="SPH03440" cx="1136.52" cy="627.44" r="9.2" style="fill:#ccc; stroke-width:0px;" /><circle id="SPH03441" cx="1129.7" cy="651.01" r="9.2" style="fill:#ccc; stroke-width:0px;" /><circle id="SPH03442" cx="1122.88" cy="674.56" r="9.2" style="fill:#ccc; stroke-width:0px;" /><circle id="SPH03443" cx="1116.08" cy="698.11" r="9.2" style="fill:#ccc; stroke-width:0px;" /><circle id="SPH03444" cx="1109.26" cy="721.67" r="9.2" style="fill:#ccc; stroke-width:0px;" /><circle id="SPH03445" cx="1102.45" cy="745.23" r="9.2" style="fill:#ccc; stroke-width:0px;" /><circle id="SPH03446" cx="1094.7" cy="768.49" r="9.2" style="fill:#ccc; stroke-width:0px;" /><circle id="SPH03447" cx="1086.87" cy="791.72" r="9.2" style="fill:#ccc; stroke-width:0px;" /><circle id="SPH03448" cx="1079.03" cy="814.96" r="9.2" style="fill:#ccc; stroke-width:0px;" /><circle id="SPH03449" cx="1071.2" cy="838.2" r="9.2" style="fill:#ccc; stroke-width:0px;" /><circle id="SPH03450" cx="1063.36" cy="861.43" r="9.2" style="fill:#ccc; stroke-width:0px;" /><circle id="SPH03451" cx="1055.52" cy="884.68" r="9.2" style="fill:#ccc; stroke-width:0px;" /><circle id="SPH03452" cx="1047.16" cy="907.73" r="9.2" style="fill:#ccc; stroke-width:0px;" /><circle id="SPH03453" cx="1038.31" cy="930.61" r="9.2" style="fill:#ccc; stroke-width:0px;" /><circle id="SPH03454" cx="1029.47" cy="953.49" r="9.2" transform="translate(-76.61 1816.93) rotate(-80.78)" style="fill:#ccc; stroke-width:0px;" /><circle id="SPH03455" cx="1020.62" cy="976.37" r="9.2" transform="translate(-106.63 1827.41) rotate(-80.78)" style="fill:#ccc; stroke-width:0px;" /><circle id="SPH03456" cx="1011.77" cy="999.25" r="9.2" style="fill:#ccc; stroke-width:0px;" /><circle id="SPH03457" cx="1002.92" cy="1022.14" r="9.2" style="fill:#ccc; stroke-width:0px;" /></g></svg>