<?xml version="1.0" encoding="UTF-8"?><svg id="Layer_1" xmlns="http://www.w3.org/2000/svg" viewBox="0 0 8192 7680"><g id="back"><path id="sphere" d="M6865.31,3839.5c0-1528.34-1241.46-2769.81-2769.81-2769.81S1325.69,2311.16,1325.69,3839.5s1241.46,2769.81,2769.81,2769.81h0c1528.34,0,2769.81-1241.46,2769.81-2769.81Z" style="fill:#f2f2f2; stroke:#ddd; stroke-miterlimit:10; stroke-width:3px;"/><path d="M1758.88,3838.17c0,655.33,307.79,1239.54,786.53,1615.79,66.08,51.94,160.31,48.05,221.66-9.39,429.06-401.71,697.41-973.05,697.41-1606.4s-268.35-1204.69-697.41-1606.4c-61.36-57.44-155.58-61.33-221.66-9.39-478.74,376.25-786.53,960.46-786.53,1615.79h0Z" style="fill:#e5e5e5; stroke:#ddd; stroke-miterlimit:10; stroke-width:3px;"/></g><g id="others"><path d="M4623.79,3597.51l-1.06.08c-14.13-209.82-45.75-418.71-96.29-624.26-.39.09-.78.19-1.17.28-30.55-124.14-67.73-247.05-111.54-368.22-21.66-59.84-44.82-118.98-69.46-177.36-38.73,16.04-433.2,179.43-591.7,245.08,61.79,145.79,112.03,296.5,150.14,450.74.4-.1.81-.19,1.21-.29,9.18,37.22,17.67,74.64,25.43,112.24,28.19,136.51,46.76,274.5,55.71,412.95h-.01c.35-.02.71-.05,1.06-.07,8.25,128.27,8.25,256.93-.02,385.2-.35-.03-.71-.06-1.06-.08-8.94,138.44-27.51,276.4-55.69,412.89-7.77,37.63-16.25,75.08-25.45,112.31-.4-.09-.79-.19-1.19-.28-38.11,154.22-88.35,304.92-150.13,450.7,158.51,65.65,552.94,229.03,591.65,245.07,24.66-58.41,47.83-117.58,69.49-177.46,43.8-121.13,80.98-244.01,111.51-368.1l1.2.29c50.55-205.54,82.88-414.43,97.01-624.25.35.03.71.06,1.06.08,11.37-196.11,8.26-257.68-.71-487.53h.01Z" style="fill:#fff; stroke:#ddd; stroke-miterlimit:10; stroke-width:9px;"/><path d="M6675.17,3439.86s-.06,0-.16,0c-45.42-290.36-139.17-564.96-272.85-815.4-.46.11-.92.22-1.38.33-83.19-155.77-181.84-302.21-293.9-437.29-70.43-87.61-154.08-177.66-231.9-245.41,0,0-395.29,163.72-587.73,243.43.05.12.1.24.15.36-253.99,105.2-507.97,210.4-761.95,315.61,18.74,45.91,36.56,92.28,53.41,139.09,14.57,40.47,28.38,81.13,41.44,121.97,75.94,20.35,151.87,40.69,227.81,61.04,15.42,54.6,29.6,109.53,42.53,164.76.39-.09.78-.19,1.17-.28,32.3,138,56.76,277.84,73.25,418.87,6.47,55.32,11.7,110.77,15.68,166.28l-.93.07c12.79,178.42,12.79,357.54,0,535.97.31.02.62.05.93.07-3.99,55.51-9.22,110.94-15.68,166.27-16.51,141.25-41.03,281.34-73.41,419.58.32.08.63.15.95.23-12.92,55.15-27.08,110.01-42.49,164.53-75.95,20.35-151.89,40.7-227.85,61.05-13.04,40.79-26.83,81.4-41.39,121.81-16.88,46.86-34.71,93.27-53.48,139.21,253.98,105.2,507.97,210.41,761.96,315.61-.05.11-.09.23-.14.34,192.46,79.72,577.42,239.18,577.42,239.18l10.34,4.3c27.04-23.43,126.65-131.04,231.76-245.45,112.24-135.27,211.03-281.92,294.32-437.95-.3-.07-.6-.14-.89-.21,133.64-250.37,227.38-524.87,272.82-815.15.1,0,.16,0,.16,0,31.65-361.76,31.65-560.39.05-802.83Z" style="fill:#fff; stroke:#ddd; stroke-miterlimit:10; stroke-width:9px;"/></g><g id="sectors"><path id="_209" d="M4344.64,2424.4c-72.76-170.09-165.49-353.48-264.69-510.29-145.43,89.12-400.64,245.5-546.07,334.61,84.15,134.44,157.36,275.15,219.07,420.77h0c158.5-65.65,433.19-179.44,591.69-245.09h0Z" style="fill:#fff; stroke:#ddd; stroke-miterlimit:10; stroke-width:9px;"/><path id="_203" d="M4079.93,5765.17c-145.43-89.12-400.61-245.51-546.04-334.63,84.13-134.43,157.34-275.13,219.04-420.74h0c158.5,65.66,433.17,179.39,591.67,245.05,0,0-165.46,353.52-264.67,510.32h0Z" style="fill:#fff; stroke:#ddd; stroke-miterlimit:10; stroke-width:9px;"/><path id="_202" d="M3533.76,5430.47s.07.05.12.07c135.57,83.08,499.61,306.17,546.05,334.63-101.98,163.57-216.7,318.6-342.97,463.68-31.8-27.15-477.68-407.98-668.82-571.22,15.19-17.34,30.15-34.88,44.9-52.59,47.95-57.62,93.55-117.18,136.68-178.54h0c94.68,1.32,189.36,2.65,284.04,3.98h0Z" style="fill:#fff; stroke:#ddd; stroke-miterlimit:10; stroke-width:9px;"/><path id="_210" d="M3113.05,2074.17c-14.73-17.7-29.68-35.21-44.85-52.54,191.13-163.25,636.98-544.03,668.77-571.19,126.27,145.08,240.98,300.1,342.98,463.67-46.45,28.46-546.13,334.67-546.19,334.7-94.66,1.33-189.31,2.66-283.96,3.99h0c-43.15-61.41-88.77-120.99-136.74-178.63h-.01Z" style="fill:#fff; stroke:#ddd; stroke-miterlimit:10; stroke-width:9px;"/><path id="_409" d="M5286.64,2181.91c34.48-14.28,584.25-242.01,587.71-243.44-211.42-197-455.65-359.72-723.64-479.19-58.27,35.71-116.53,71.42-174.8,107.12,20.63,33.91,40.8,68.13,60.52,102.63h0c94.11,164.69,177.78,335.97,250.19,512.88h.02Z" style="fill:#fff; stroke:#ddd; stroke-miterlimit:10; stroke-width:9px;"/><path id="_403" d="M4975.85,6112.84c58.27,35.71,116.55,71.43,174.84,107.15,267.98-119.46,512.21-282.18,723.64-479.17-3.46-1.43-553.26-229.18-587.75-243.46-72.42,176.85-156.05,348.07-250.14,512.72h0c-19.74,34.55-39.95,68.8-60.6,102.76h.01Z" style="fill:#fff; stroke:#ddd; stroke-miterlimit:10; stroke-width:9px;"/><path id="_302" d="M4430.58,6424.9c-150.97-109.68-301.93-219.36-452.89-329.05,107.7-130.76,206.03-269.24,294.17-414.41,234.61,143.77,644.21,394.78,878.83,538.55-105.47,57.12-177.69,72.59-323.11,120.12h0c-128.51,38.04-261.12,66.58-397,84.79Z" style="fill:#fff; stroke:#ddd; stroke-miterlimit:10; stroke-width:9px;"/><path id="_303" d="M4975.71,6112.76c-234.62-143.77-469.24-287.55-703.85-431.32,96.59-159.1,180.92-326.23,251.9-500.05,254.22,105.3,508.45,210.61,762.68,315.91-72.41,176.85-156.04,348.06-250.14,512.71h0c-19.74,34.55-39.94,68.8-60.59,102.75h0Z" style="fill:#fff; stroke:#ddd; stroke-miterlimit:10; stroke-width:9px;"/><path id="_309" d="M5286.55,2181.95c-254.26,105.32-508.49,210.62-762.73,315.93-70.98-173.83-155.31-340.97-251.89-500.07,234.64-143.79,469.29-287.58,703.92-431.37,20.61,33.88,40.76,68.05,60.45,102.52h0c94.13,164.73,177.81,336.03,250.25,512.98h0Z" style="fill:#fff; stroke:#ddd; stroke-miterlimit:10; stroke-width:9px;"/><path id="_310" d="M4430.61,1254.38c-150.95,109.67-301.9,219.34-452.84,329.01,107.69,130.76,206.02,269.25,294.15,414.42,234.64-143.79,644.16-394.74,878.79-538.53-130.35-55.93-201.76-83.24-322.88-120.04h0c-128.58-38.08-261.26-66.65-397.23-84.87h0Z" style="fill:#fff; stroke:#ddd; stroke-miterlimit:10; stroke-width:9px;"/></g></svg>