<svg id="Layer_1" viewBox="0 0 1697.6 1405.17" xmlns="http://www.w3.org/2000/svg"><g id="back"><g id="back-2"><path id="sphere" d="M3784.37,2156.52c0-1528.34-1241.46-2769.81-2769.81-2769.81S-1755.25,628.18-1755.25,2156.52-513.79,4926.33,1014.56,4926.33h0c1528.34,0,2769.81-1241.46,2769.81-2769.81Z" style="fill:#f2f2f2; stroke:#ddd; stroke-miterlimit:10; stroke-width:3px;" /><path d="M-1322.06,2155.19c0,655.33,307.79,1239.54,786.53,1615.79,66.08,51.94,160.31,48.05,221.66-9.39,429.06-401.71,697.41-973.05,697.41-1606.4S115.19,950.5-313.87,548.79c-61.36-57.44-155.58-61.33-221.66-9.39-478.74,376.25-786.53,960.46-786.53,1615.79h0Z" style="fill:#e5e5e5; stroke:#ddd; stroke-miterlimit:10; stroke-width:3px;" /></g><g id="sectors"><path id="_208" d="M1444.88,1287.73c-207.59,49.84-415.16,99.67-622.74,149.51-38.11-154.24-88.35-304.95-150.14-450.74,158.5-65.65,552.97-229.04,591.7-245.08,24.64,58.38,47.8,117.52,69.46,177.36h0c43.9,121.41,81.15,244.57,111.73,368.96h-.01Z" style="fill:#fff; stroke:#ddd; stroke-miterlimit:10; stroke-width:9px;" /><path id="_209" d="M1263.7,741.42c-72.76-170.09-165.49-353.48-264.69-510.29-145.43,89.12-400.64,245.5-546.07,334.61,84.15,134.44,157.36,275.15,219.07,420.77h0c158.5-65.65,433.19-179.44,591.69-245.09h0Z" style="fill:#fff; stroke:#ddd; stroke-miterlimit:10; stroke-width:9px;" /><path id="_210" d="M32.11,391.19c-14.73-17.7-29.68-35.21-44.85-52.54C178.39,175.4,624.24-205.38,656.03-232.54c126.27,145.08,240.98,300.1,342.98,463.67-46.45,28.46-546.13,334.67-546.19,334.7-94.66,1.33-189.31,2.66-283.96,3.99h0c-43.15-61.41-88.77-120.99-136.74-178.63h-.01Z" style="fill:#fff; stroke:#ddd; stroke-miterlimit:10; stroke-width:9px;" /><path id="_207" d="M903.48,1963.15c158.51-12.47,583.44-45.97,637.74-50.25-14.1-210.13-45.74-419.33-96.35-625.18-207.57,49.83-415.14,99.67-622.7,149.5,9.25,37.46,17.8,75.12,25.61,112.97h0c28.19,136.51,46.76,274.5,55.71,412.95h-.01Z" style="fill:#fff; stroke:#ddd; stroke-miterlimit:10; stroke-width:9px;" /><path id="_308" d="M2415.79,1155.85c-202.58,48.64-405.16,97.27-607.72,145.9-12.93-55.23-27.11-110.16-42.53-164.76-75.94-20.35-151.87-40.69-227.81-61.04-13.06-40.84-26.87-81.5-41.44-121.97-16.85-46.81-34.67-93.18-53.41-139.09,254.24-105.31,508.48-210.62,762.73-315.93,23.67,57.81,46.14,116.22,67.38,175.2h0c57.02,158.36,104.64,319.19,142.8,481.68h0Z" style="fill:#fff; stroke:#ddd; stroke-miterlimit:10; stroke-width:9px;" /><path id="_309" d="M2205.61,498.97c-254.26,105.32-508.49,210.62-762.73,315.93-70.98-173.83-155.31-340.97-251.89-500.07,234.64-143.79,469.29-287.58,703.92-431.37,20.61,33.88,40.76,68.05,60.45,102.52h0c94.13,164.73,177.81,336.03,250.25,512.98h0Z" style="fill:#fff; stroke:#ddd; stroke-miterlimit:10; stroke-width:9px;" /><path id="_310" d="M1349.67-428.6c-150.95,109.67-301.9,219.34-452.84,329.01,107.69,130.76,206.02,269.25,294.15,414.42,234.64-143.79,644.16-394.74,878.79-538.53-130.35-55.93-201.76-83.24-322.88-120.04h0c-128.58-38.08-261.26-66.65-397.23-84.87h0Z" style="fill:#fff; stroke:#ddd; stroke-miterlimit:10; stroke-width:9px;" /></g></g><g id="Seats"><circle id="SPH02404" cx="644.09" cy="502.51" r="9.2" style="fill:#ccc; stroke-width:0px;" /><circle id="SPH02405" cx="656.82" cy="523.6" r="9.2" style="fill:#ccc; stroke-width:0px;" /><circle id="SPH02406" cx="669.54" cy="544.69" r="9.2" style="fill:#ccc; stroke-width:0px;" /><circle id="SPH02407" cx="682.26" cy="565.79" r="9.2" style="fill:#ccc; stroke-width:0px;" /><circle id="SPH02408" cx="694.15" cy="587.37" r="9.2" style="fill:#ccc; stroke-width:0px;" /><circle id="SPH02409" cx="705.95" cy="609" r="9.2" style="fill:#ccc; stroke-width:0px;" /><circle id="SPH02410" cx="717.74" cy="630.61" r="9.2" style="fill:#ccc; stroke-width:0px;" /><circle id="SPH02411" cx="729.54" cy="652.23" r="9.2" style="fill:#ccc; stroke-width:0px;" /><circle id="SPH02412" cx="741.33" cy="673.83" r="9.2" style="fill:#ccc; stroke-width:0px;" /><circle id="SPH02413" cx="752.85" cy="695.59" r="9.2" style="fill:#ccc; stroke-width:0px;" /><circle id="SPH02414" cx="763.7" cy="717.7" r="9.2" style="fill:#ccc; stroke-width:0px;" /><circle id="SPH02415" cx="774.54" cy="739.81" r="9.2" style="fill:#ccc; stroke-width:0px;" /><circle id="SPH02416" cx="785.38" cy="761.9" r="9.2" style="fill:#ccc; stroke-width:0px;" /><circle id="SPH02417" cx="796.22" cy="783.98" r="9.2" style="fill:#ccc; stroke-width:0px;" /><circle id="SPH02418" cx="807.05" cy="806.07" r="9.2" style="fill:#ccc; stroke-width:0px;" /><circle id="SPH02419" cx="817.26" cy="828.46" r="9.2" style="fill:#ccc; stroke-width:0px;" /><circle id="SPH02420" cx="827.14" cy="851.03" r="9.2" style="fill:#ccc; stroke-width:0px;" /><circle id="SPH02421" cx="837.02" cy="873.6" r="9.2" style="fill:#ccc; stroke-width:0px;" /><circle id="SPH02422" cx="677.86" cy="481.82" r="9.2" style="fill:#ccc; stroke-width:0px;" /><circle id="SPH02423" cx="690.77" cy="503.22" r="9.2" style="fill:#ccc; stroke-width:0px;" /><circle id="SPH02424" cx="703.68" cy="524.63" r="9.2" style="fill:#ccc; stroke-width:0px;" /><circle id="SPH02425" cx="716.59" cy="546.03" r="9.2" style="fill:#ccc; stroke-width:0px;" /><circle id="SPH02426" cx="728.66" cy="567.93" r="9.2" style="fill:#ccc; stroke-width:0px;" /><circle id="SPH02427" cx="740.62" cy="589.87" r="9.2" style="fill:#ccc; stroke-width:0px;" /><circle id="SPH02428" cx="752.6" cy="611.8" r="9.2" style="fill:#ccc; stroke-width:0px;" /><circle id="SPH02429" cx="764.57" cy="633.74" r="9.2" style="fill:#ccc; stroke-width:0px;" /><circle id="SPH02430" cx="776.53" cy="655.67" r="9.2" style="fill:#ccc; stroke-width:0px;" /><circle id="SPH02431" cx="788.21" cy="677.76" r="9.2" style="fill:#ccc; stroke-width:0px;" /><circle id="SPH02432" cx="799.22" cy="700.21" r="9.2" style="fill:#ccc; stroke-width:0px;" /><circle id="SPH02433" cx="810.24" cy="722.65" r="9.2" style="fill:#ccc; stroke-width:0px;" /><circle id="SPH02434" cx="821.25" cy="745.1" r="9.2" style="fill:#ccc; stroke-width:0px;" /><circle id="SPH02435" cx="832.26" cy="767.53" r="9.2" style="fill:#ccc; stroke-width:0px;" /><circle id="SPH02436" cx="843.26" cy="789.96" r="9.2" style="fill:#ccc; stroke-width:0px;" /><circle id="SPH02437" cx="853.59" cy="812.71" r="9.2" style="fill:#ccc; stroke-width:0px;" /><circle id="SPH02438" cx="863.6" cy="835.59" r="9.2" style="fill:#ccc; stroke-width:0px;" /><circle id="SPH02439" cx="873.62" cy="858.47" r="9.2" style="fill:#ccc; stroke-width:0px;" /><circle id="SPH02440" cx="711.62" cy="461.12" r="9.2" style="fill:#ccc; stroke-width:0px;" /><circle id="SPH02441" cx="723.99" cy="481.64" r="9.2" style="fill:#ccc; stroke-width:0px;" /><circle id="SPH02442" cx="736.37" cy="502.15" r="9.2" style="fill:#ccc; stroke-width:0px;" /><circle id="SPH02443" cx="748.74" cy="522.66" r="9.2" style="fill:#ccc; stroke-width:0px;" /><circle id="SPH02444" cx="760.46" cy="543.55" r="9.2" style="fill:#ccc; stroke-width:0px;" /><circle id="SPH02445" cx="771.94" cy="564.58" r="9.2" style="fill:#ccc; stroke-width:0px;" /><circle id="SPH02446" cx="783.42" cy="585.61" r="9.2" style="fill:#ccc; stroke-width:0px;" /><circle id="SPH02447" cx="794.9" cy="606.65" r="9.2" style="fill:#ccc; stroke-width:0px;" /><circle id="SPH02448" cx="806.38" cy="627.7" r="9.2" style="fill:#ccc; stroke-width:0px;" /><circle id="SPH02449" cx="817.86" cy="648.75" r="9.2" style="fill:#ccc; stroke-width:0px;" /><circle id="SPH02450" cx="828.6" cy="670.17" r="9.2" style="fill:#ccc; stroke-width:0px;" /><circle id="SPH02451" cx="839.15" cy="691.68" r="9.2" style="fill:#ccc; stroke-width:0px;" /><circle id="SPH02452" cx="849.7" cy="713.17" r="9.2" style="fill:#ccc; stroke-width:0px;" /><circle id="SPH02453" cx="860.25" cy="734.68" r="9.2" style="fill:#ccc; stroke-width:0px;" /><circle id="SPH02454" cx="870.8" cy="756.2" r="9.2" style="fill:#ccc; stroke-width:0px;" /><circle id="SPH02455" cx="881.35" cy="777.7" r="9.2" style="fill:#ccc; stroke-width:0px;" /><circle id="SPH02456" cx="891.08" cy="799.6" r="9.2" style="fill:#ccc; stroke-width:0px;" /><circle id="SPH02457" cx="900.69" cy="821.55" r="9.2" style="fill:#ccc; stroke-width:0px;" /><circle id="SPH02458" cx="910.29" cy="843.5" r="9.2" style="fill:#ccc; stroke-width:0px;" /><circle id="SPH02459" cx="745.38" cy="440.44" r="9.2" style="fill:#ccc; stroke-width:0px;" /><circle id="SPH02460" cx="757.94" cy="461.24" r="9.2" style="fill:#ccc; stroke-width:0px;" /><circle id="SPH02461" cx="770.49" cy="482.05" r="9.2" style="fill:#ccc; stroke-width:0px;" /><circle id="SPH02462" cx="783.05" cy="502.86" r="9.2" style="fill:#ccc; stroke-width:0px;" /><circle id="SPH02463" cx="794.93" cy="524.04" r="9.2" style="fill:#ccc; stroke-width:0px;" /><circle id="SPH02464" cx="806.57" cy="545.38" r="9.2" style="fill:#ccc; stroke-width:0px;" /><circle id="SPH02465" cx="818.22" cy="566.72" r="9.2" style="fill:#ccc; stroke-width:0px;" /><circle id="SPH02466" cx="829.86" cy="588.05" r="9.2" style="fill:#ccc; stroke-width:0px;" /><circle id="SPH02467" cx="841.5" cy="609.39" r="9.2" style="fill:#ccc; stroke-width:0px;" /><circle id="SPH02468" cx="853.14" cy="630.73" r="9.2" style="fill:#ccc; stroke-width:0px;" /><circle id="SPH02469" cx="864.01" cy="652.44" r="9.2" style="fill:#ccc; stroke-width:0px;" /><circle id="SPH02470" cx="874.71" cy="674.26" r="9.2" style="fill:#ccc; stroke-width:0px;" /><circle id="SPH02471" cx="885.43" cy="696.11" r="9.2" style="fill:#ccc; stroke-width:0px;" /><circle id="SPH02472" cx="896.14" cy="717.94" r="9.2" style="fill:#ccc; stroke-width:0px;" /><circle id="SPH02473" cx="906.85" cy="739.76" r="9.2" style="fill:#ccc; stroke-width:0px;" /><circle id="SPH02474" cx="917.55" cy="761.58" r="9.2" style="fill:#ccc; stroke-width:0px;" /><circle id="SPH02475" cx="927.4" cy="783.82" r="9.2" style="fill:#ccc; stroke-width:0px;" /><circle id="SPH02476" cx="937.15" cy="806.1" r="9.2" style="fill:#ccc; stroke-width:0px;" /><circle id="SPH02477" cx="946.9" cy="828.39" r="9.2" style="fill:#ccc; stroke-width:0px;" /><circle id="SPH02478" cx="779.15" cy="419.75" r="9.2" style="fill:#ccc; stroke-width:0px;" /><circle id="SPH02479" cx="791.88" cy="440.85" r="9.2" style="fill:#ccc; stroke-width:0px;" /><circle id="SPH02480" cx="804.61" cy="461.95" r="9.2" style="fill:#ccc; stroke-width:0px;" /><circle id="SPH02481" cx="817.34" cy="483.04" r="9.2" style="fill:#ccc; stroke-width:0px;" /><circle id="SPH02482" cx="829.39" cy="504.52" r="9.2" style="fill:#ccc; stroke-width:0px;" /><circle id="SPH02483" cx="841.2" cy="526.16" r="9.2" style="fill:#ccc; stroke-width:0px;" /><circle id="SPH02484" cx="853" cy="547.8" r="9.2" style="fill:#ccc; stroke-width:0px;" /><circle id="SPH02485" cx="864.81" cy="569.44" r="9.2" style="fill:#ccc; stroke-width:0px;" /><circle id="SPH02486" cx="876.62" cy="591.06" r="9.2" style="fill:#ccc; stroke-width:0px;" /><circle id="SPH02487" cx="888.42" cy="612.69" r="9.2" style="fill:#ccc; stroke-width:0px;" /><circle id="SPH02488" cx="899.42" cy="634.73" r="9.2" style="fill:#ccc; stroke-width:0px;" /><circle id="SPH02489" cx="910.29" cy="656.87" r="9.2" style="fill:#ccc; stroke-width:0px;" /><circle id="SPH02490" cx="921.16" cy="679.03" r="9.2" style="fill:#ccc; stroke-width:0px;" /><circle id="SPH02491" cx="932.03" cy="701.19" r="9.2" style="fill:#ccc; stroke-width:0px;" /><circle id="SPH02492" cx="942.9" cy="723.34" r="9.2" style="fill:#ccc; stroke-width:0px;" /><circle id="SPH02493" cx="953.76" cy="745.48" r="9.2" style="fill:#ccc; stroke-width:0px;" /><circle id="SPH02494" cx="963.72" cy="768.04" r="9.2" style="fill:#ccc; stroke-width:0px;" /><circle id="SPH02495" cx="973.61" cy="790.63" r="9.2" style="fill:#ccc; stroke-width:0px;" /><circle id="SPH02496" cx="983.49" cy="813.2" r="9.2" style="fill:#ccc; stroke-width:0px;" /><circle id="SPH02497" cx="812.91" cy="399.05" r="9.2" style="fill:#ccc; stroke-width:0px;" /><circle id="SPH02498" cx="825.82" cy="420.45" r="9.2" style="fill:#ccc; stroke-width:0px;" /><circle id="SPH02499" cx="838.74" cy="441.85" r="9.2" style="fill:#ccc; stroke-width:0px;" /><circle id="SPH02500" cx="851.65" cy="463.25" r="9.2" style="fill:#ccc; stroke-width:0px;" /><circle id="SPH02501" cx="863.87" cy="485.05" r="9.2" style="fill:#ccc; stroke-width:0px;" /><circle id="SPH02502" cx="875.85" cy="506.99" r="9.2" style="fill:#ccc; stroke-width:0px;" /><circle id="SPH02503" cx="887.82" cy="528.92" r="9.2" style="fill:#ccc; stroke-width:0px;" /><circle id="SPH02504" cx="899.78" cy="550.86" r="9.2" style="fill:#ccc; stroke-width:0px;" /><circle id="SPH02505" cx="911.75" cy="572.79" r="9.2" style="fill:#ccc; stroke-width:0px;" /><circle id="SPH02506" cx="923.72" cy="594.72" r="9.2" style="fill:#ccc; stroke-width:0px;" /><circle id="SPH02507" cx="934.87" cy="617.08" r="9.2" style="fill:#ccc; stroke-width:0px;" /><circle id="SPH02508" cx="945.89" cy="639.52" r="9.2" style="fill:#ccc; stroke-width:0px;" /><circle id="SPH02509" cx="956.91" cy="661.99" r="9.2" style="fill:#ccc; stroke-width:0px;" /><circle id="SPH02510" cx="967.93" cy="684.44" r="9.2" style="fill:#ccc; stroke-width:0px;" /><circle id="SPH02511" cx="978.94" cy="706.9" r="9.2" style="fill:#ccc; stroke-width:0px;" /><circle id="SPH02512" cx="989.96" cy="729.36" r="9.2" style="fill:#ccc; stroke-width:0px;" /><circle id="SPH02513" cx="1000.02" cy="752.23" r="9.2" style="fill:#ccc; stroke-width:0px;" /><circle id="SPH02514" cx="1010.05" cy="775.12" r="9.2" style="fill:#ccc; stroke-width:0px;" /><circle id="SPH02515" cx="1020.06" cy="798.02" r="9.2" style="fill:#ccc; stroke-width:0px;" /><circle id="SPH02516" cx="509.02" cy="585.28" r="9.2" transform="translate(-150.24 993.98) rotate(-80.78)" style="fill:#ccc; stroke-width:0px;" /><circle id="SPH02517" cx="521.74" cy="606.36" r="9.2" style="fill:#ccc; stroke-width:0px;" /><circle id="SPH02518" cx="534.46" cy="627.44" r="9.2" style="fill:#ccc; stroke-width:0px;" /><circle id="SPH02519" cx="547.09" cy="648.55" r="9.2" style="fill:#ccc; stroke-width:0px;" /><circle id="SPH02520" cx="558.87" cy="670.15" r="9.2" style="fill:#ccc; stroke-width:0px;" /><circle id="SPH02521" cx="570.66" cy="691.76" r="9.2" style="fill:#ccc; stroke-width:0px;" /><circle id="SPH02522" cx="582.46" cy="713.37" r="9.2" style="fill:#ccc; stroke-width:0px;" /><circle id="SPH02523" cx="594.25" cy="734.98" r="9.2" style="fill:#ccc; stroke-width:0px;" /><circle id="SPH02524" cx="606.04" cy="756.59" r="9.2" style="fill:#ccc; stroke-width:0px;" /><circle id="SPH02525" cx="617.13" cy="778.57" r="9.2" style="fill:#ccc; stroke-width:0px;" /><circle id="SPH02526" cx="627.97" cy="800.68" r="9.2" style="fill:#ccc; stroke-width:0px;" /><circle id="SPH02527" cx="638.82" cy="822.79" r="9.2" style="fill:#ccc; stroke-width:0px;" /><circle id="SPH02528" cx="649.66" cy="844.9" r="9.2" style="fill:#ccc; stroke-width:0px;" /><circle id="SPH02529" cx="660.51" cy="867" r="9.2" style="fill:#ccc; stroke-width:0px;" /><circle id="SPH02530" cx="670.97" cy="889.28" r="9.2" style="fill:#ccc; stroke-width:0px;" /><circle id="SPH02531" cx="680.85" cy="911.85" r="9.2" style="fill:#ccc; stroke-width:0px;" /><circle id="SPH02532" cx="690.73" cy="934.42" r="9.2" style="fill:#ccc; stroke-width:0px;" /><circle id="SPH02533" cx="542.79" cy="564.58" r="9.2" style="fill:#ccc; stroke-width:0px;" /><circle id="SPH02534" cx="555.71" cy="586" r="9.2" style="fill:#ccc; stroke-width:0px;" /><circle id="SPH02535" cx="568.63" cy="607.4" r="9.2" style="fill:#ccc; stroke-width:0px;" /><circle id="SPH02536" cx="581.46" cy="628.87" r="9.2" style="fill:#ccc; stroke-width:0px;" /><circle id="SPH02537" cx="593.44" cy="650.83" r="9.2" style="fill:#ccc; stroke-width:0px;" /><circle id="SPH02538" cx="605.42" cy="672.79" r="9.2" style="fill:#ccc; stroke-width:0px;" /><circle id="SPH02539" cx="617.4" cy="694.73" r="9.2" style="fill:#ccc; stroke-width:0px;" /><circle id="SPH02540" cx="629.38" cy="716.68" r="9.2" style="fill:#ccc; stroke-width:0px;" /><circle id="SPH02541" cx="641.35" cy="738.63" r="9.2" style="fill:#ccc; stroke-width:0px;" /><circle id="SPH02542" cx="652.6" cy="760.96" r="9.2" style="fill:#ccc; stroke-width:0px;" /><circle id="SPH02543" cx="663.62" cy="783.42" r="9.2" style="fill:#ccc; stroke-width:0px;" /><circle id="SPH02544" cx="674.63" cy="805.88" r="9.2" style="fill:#ccc; stroke-width:0px;" /><circle id="SPH02545" cx="685.65" cy="828.34" r="9.2" style="fill:#ccc; stroke-width:0px;" /><circle id="SPH02546" cx="696.67" cy="850.8" r="9.2" style="fill:#ccc; stroke-width:0px;" /><circle id="SPH02547" cx="707.26" cy="873.44" r="9.2" style="fill:#ccc; stroke-width:0px;" /><circle id="SPH02548" cx="717.28" cy="896.33" r="9.2" style="fill:#ccc; stroke-width:0px;" /><circle id="SPH02549" cx="727.3" cy="919.21" r="9.2" style="fill:#ccc; stroke-width:0px;" /><circle id="SPH02550" cx="576.56" cy="543.89" r="9.2" style="fill:#ccc; stroke-width:0px;" /><circle id="SPH02551" cx="589.68" cy="565.64" r="9.2" style="fill:#ccc; stroke-width:0px;" /><circle id="SPH02552" cx="602.79" cy="587.38" r="9.2" style="fill:#ccc; stroke-width:0px;" /><circle id="SPH02553" cx="615.82" cy="609.18" r="9.2" style="fill:#ccc; stroke-width:0px;" /><circle id="SPH02554" cx="627.99" cy="631.48" r="9.2" style="fill:#ccc; stroke-width:0px;" /><circle id="SPH02555" cx="640.16" cy="653.76" r="9.2" style="fill:#ccc; stroke-width:0px;" /><circle id="SPH02556" cx="652.32" cy="676.06" r="9.2" style="fill:#ccc; stroke-width:0px;" /><circle id="SPH02557" cx="664.49" cy="698.36" r="9.2" style="fill:#ccc; stroke-width:0px;" /><circle id="SPH02558" cx="676.66" cy="720.65" r="9.2" style="fill:#ccc; stroke-width:0px;" /><circle id="SPH02559" cx="688.06" cy="743.34" r="9.2" style="fill:#ccc; stroke-width:0px;" /><circle id="SPH02560" cx="699.24" cy="766.13" r="9.2" style="fill:#ccc; stroke-width:0px;" /><circle id="SPH02561" cx="710.42" cy="788.93" r="9.2" style="fill:#ccc; stroke-width:0px;" /><circle id="SPH02562" cx="721.61" cy="811.73" r="9.2" style="fill:#ccc; stroke-width:0px;" /><circle id="SPH02563" cx="732.79" cy="834.52" r="9.2" style="fill:#ccc; stroke-width:0px;" /><circle id="SPH02564" cx="743.52" cy="857.52" r="9.2" style="fill:#ccc; stroke-width:0px;" /><circle id="SPH02565" cx="753.7" cy="880.77" r="9.2" style="fill:#ccc; stroke-width:0px;" /><circle id="SPH02566" cx="763.87" cy="904.02" r="9.2" style="fill:#ccc; stroke-width:0px;" /><circle id="SPH02567" cx="877.61" cy="388.89" r="9.2" style="fill:#ccc; stroke-width:0px;" /><circle id="SPH02568" cx="893.78" cy="416.13" r="9.2" style="fill:#ccc; stroke-width:0px;" /><circle id="SPH02569" cx="910.65" cy="442.03" r="9.2" style="fill:#ccc; stroke-width:0px;" /><circle id="SPH02570" cx="925.63" cy="469.95" r="9.2" style="fill:#ccc; stroke-width:0px;" /><circle id="SPH02571" cx="940.62" cy="497.88" r="9.2" style="fill:#ccc; stroke-width:0px;" /><circle id="SPH02572" cx="955.61" cy="525.8" r="9.2" style="fill:#ccc; stroke-width:0px;" /><circle id="SPH02573" cx="970.6" cy="553.74" r="9.2" style="fill:#ccc; stroke-width:0px;" /><circle id="SPH02574" cx="986.01" cy="580.58" r="9.2" style="fill:#ccc; stroke-width:0px;" /><circle id="SPH02575" cx="999.76" cy="609.12" r="9.2" style="fill:#ccc; stroke-width:0px;" /><circle id="SPH02576" cx="1013.52" cy="637.66" r="9.2" style="fill:#ccc; stroke-width:0px;" /><circle id="SPH02577" cx="1027.27" cy="666.2" r="9.2" transform="translate(205.12 1573.49) rotate(-80.78)" style="fill:#ccc; stroke-width:0px;" /><circle id="SPH02578" cx="1041.02" cy="694.72" r="9.2" style="fill:#ccc; stroke-width:0px;" /><circle id="SPH02579" cx="1054.93" cy="722.41" r="9.2" style="fill:#ccc; stroke-width:0px;" /><circle id="SPH02580" cx="1067.43" cy="751.53" r="9.2" style="fill:#ccc; stroke-width:0px;" /><circle id="SPH02581" cx="610.32" cy="523.2" r="9.2" style="fill:#ccc; stroke-width:0px;" /><circle id="SPH02582" cx="622.86" cy="543.98" r="9.2" style="fill:#ccc; stroke-width:0px;" /><circle id="SPH02583" cx="635.39" cy="564.76" r="9.2" style="fill:#ccc; stroke-width:0px;" /><circle id="SPH02584" cx="647.93" cy="585.53" r="9.2" style="fill:#ccc; stroke-width:0px;" /><circle id="SPH02585" cx="659.63" cy="606.79" r="9.2" style="fill:#ccc; stroke-width:0px;" /><circle id="SPH02586" cx="671.26" cy="628.09" r="9.2" style="fill:#ccc; stroke-width:0px;" /><circle id="SPH02587" cx="682.89" cy="649.4" r="9.2" style="fill:#ccc; stroke-width:0px;" /><circle id="SPH02588" cx="694.51" cy="670.71" r="9.2" style="fill:#ccc; stroke-width:0px;" /><circle id="SPH02589" cx="706.14" cy="692.01" r="9.2" style="fill:#ccc; stroke-width:0px;" /><circle id="SPH02590" cx="717.5" cy="713.44" r="9.2" style="fill:#ccc; stroke-width:0px;" /><circle id="SPH02591" cx="728.19" cy="735.23" r="9.2" style="fill:#ccc; stroke-width:0px;" /><circle id="SPH02592" cx="738.87" cy="757.01" r="9.2" style="fill:#ccc; stroke-width:0px;" /><circle id="SPH02593" cx="749.56" cy="778.79" r="9.2" style="fill:#ccc; stroke-width:0px;" /><circle id="SPH02594" cx="760.24" cy="800.56" r="9.2" style="fill:#ccc; stroke-width:0px;" /><circle id="SPH02595" cx="770.93" cy="822.36" r="9.2" style="fill:#ccc; stroke-width:0px;" /><circle id="SPH02596" cx="781.02" cy="844.43" r="9.2" style="fill:#ccc; stroke-width:0px;" /><circle id="SPH02597" cx="790.75" cy="866.68" r="9.2" style="fill:#ccc; stroke-width:0px;" /><circle id="SPH02598" cx="800.49" cy="888.92" r="9.2" style="fill:#ccc; stroke-width:0px;" /></g></svg>