<svg id="Layer_1" viewBox="0 0 1697.6 1405.17" xmlns="http://www.w3.org/2000/svg"><g id="back"><g id="back-2"><path id="sphere" d="M1857.07-747.62c0-1528.34-1241.46-2769.81-2769.81-2769.81S-3682.55-2275.96-3682.55-747.62-2441.09,2022.19-912.74,2022.19h0c1528.34,0,2769.81-1241.46,2769.81-2769.81Z" style="fill:#f2f2f2; stroke:#ddd; stroke-miterlimit:10; stroke-width:3px;" /></g><g id="sectors"><path id="_403" d="M-32.39,1525.72c58.27,35.71,116.55,71.43,174.84,107.15,267.98-119.46,512.21-282.18,723.64-479.17-3.46-1.43-553.26-229.18-587.75-243.46-72.42,176.85-156.05,348.07-250.14,512.72h0c-19.74,34.55-39.95,68.8-60.6,102.76h.01Z" style="fill:#fff; stroke:#ddd; stroke-miterlimit:10; stroke-width:9px;" /><path id="_302" d="M-577.66,1837.78c-150.97-109.68-301.93-219.36-452.89-329.05,107.7-130.76,206.03-269.24,294.17-414.41,234.61,143.77,644.21,394.78,878.83,538.55-105.47,57.12-177.69,72.59-323.11,120.12h0c-128.51,38.04-261.12,66.58-397,84.79Z" style="fill:#fff; stroke:#ddd; stroke-miterlimit:10; stroke-width:9px;" /><path id="_303" d="M-32.53,1525.64c-234.62-143.77-469.24-287.55-703.85-431.32,96.59-159.1,180.92-326.23,251.9-500.05,254.22,105.3,508.45,210.61,762.68,315.91-72.41,176.85-156.04,348.06-250.14,512.71h0c-19.74,34.55-39.94,68.8-60.59,102.75h0Z" style="fill:#fff; stroke:#ddd; stroke-miterlimit:10; stroke-width:9px;" /><path id="_304" d="M-119.23,107.45c-12.93,55.22-27.11,110.15-42.54,164.75-75.95,20.35-151.89,40.7-227.85,61.05-13.04,40.79-26.83,81.4-41.39,121.81-16.88,46.86-34.71,93.27-53.48,139.21,254.22,105.3,508.45,210.61,762.68,315.91,23.71-57.9,46.22-116.4,67.49-175.48,56.99-158.26,104.57-318.99,142.74-481.38h0C285.86,204.69,83.3,156.06-119.24,107.44h0Z" style="fill:#fff; stroke:#ddd; stroke-miterlimit:10; stroke-width:9px;" /><path id="_305" d="M488.43,253.32C285.87,204.69,83.31,156.06-119.23,107.44-86.85-30.8-62.33-170.89-45.82-312.14c6.5-55.69,11.76-111.48,15.76-167.35,207.66,16.34,415.33,32.69,623.01,49.03-10.51,144.74-28.24,289.08-53.18,432.48h0c-14.63,84.13-31.74,167.93-51.34,251.3h0Z" style="fill:#fff; stroke:#ddd; stroke-miterlimit:10; stroke-width:9px;" /><path id="_405" d="M1392.17,470.29c133.85-250.71,227.69-525.62,273.08-816.35-30.41-2.39-60.81-4.78-91.21-7.18-327-25.74-654-51.47-980.98-77.21-10.51,144.77-28.24,289.12-53.18,432.54-14.63,84.11-31.74,167.9-51.33,251.25h0c301.2,72.31,602.4,144.62,903.62,216.94h0Z" style="fill:#fff; stroke:#ddd; stroke-miterlimit:10; stroke-width:9px;" /><path id="_404" d="M278.33,910.22c23.71-57.89,46.21-116.38,67.48-175.44,3.56-9.8,7.11-19.6,10.59-29.43,35.18-99.44,66.58-200.11,94.18-301.9,2.86-10.54,5.62-21.11,8.4-31.66,10.42-39.37,20.28-78.85,29.58-118.43,301.19,72.32,602.4,144.63,903.61,216.94-83.29,156.03-182.08,302.68-294.32,437.95-105.11,114.41-204.72,222.02-231.76,245.45l-10.34-4.3s-384.96-159.46-577.42-239.18h0Z" style="fill:#fff; stroke:#ddd; stroke-miterlimit:10; stroke-width:9px;" /></g></g><g id="Seats"><circle id="SPH04873" cx="892.58" cy="394.28" r="9.2" style="fill:#ccc; stroke-width:0px;" /><circle id="SPH04874" cx="887.15" cy="416.75" r="9.2" style="fill:#ccc; stroke-width:0px;" /><circle id="SPH04875" cx="881.72" cy="439.23" r="9.2" style="fill:#ccc; stroke-width:0px;" /><circle id="SPH04876" cx="876.29" cy="461.69" r="9.2" style="fill:#ccc; stroke-width:0px;" /><circle id="SPH04877" cx="870.69" cy="484.12" r="9.2" style="fill:#ccc; stroke-width:0px;" /><circle id="SPH04878" cx="864.3" cy="506.32" r="9.2" style="fill:#ccc; stroke-width:0px;" /><circle id="SPH04879" cx="857.91" cy="528.52" r="9.2" style="fill:#ccc; stroke-width:0px;" /><circle id="SPH04880" cx="851.51" cy="550.73" r="9.2" style="fill:#ccc; stroke-width:0px;" /><circle id="SPH04881" cx="845.11" cy="572.95" r="9.2" style="fill:#ccc; stroke-width:0px;" /><circle id="SPH04882" cx="838.72" cy="595.16" r="9.2" style="fill:#ccc; stroke-width:0px;" /><circle id="SPH04883" cx="832.32" cy="617.38" r="9.2" style="fill:#ccc; stroke-width:0px;" /><circle id="SPH04884" cx="825.92" cy="639.58" r="9.2" style="fill:#ccc; stroke-width:0px;" /><circle id="SPH04885" cx="819.52" cy="661.78" r="9.2" style="fill:#ccc; stroke-width:0px;" /><circle id="SPH04886" cx="812.98" cy="683.92" r="9.2" style="fill:#ccc; stroke-width:0px;" /><circle id="SPH04887" cx="805.64" cy="705.8" r="9.2" style="fill:#ccc; stroke-width:0px;" /><circle id="SPH04888" cx="798.29" cy="727.67" r="9.2" style="fill:#ccc; stroke-width:0px;" /><circle id="SPH04889" cx="790.94" cy="749.57" r="9.2" style="fill:#ccc; stroke-width:0px;" /><circle id="SPH04890" cx="783.59" cy="771.47" r="9.2" style="fill:#ccc; stroke-width:0px;" /><circle id="SPH04891" cx="776.24" cy="793.38" r="9.2" style="fill:#ccc; stroke-width:0px;" /><circle id="SPH04892" cx="768.88" cy="815.29" r="9.2" style="fill:#ccc; stroke-width:0px;" /><circle id="SPH04893" cx="761.52" cy="837.2" r="9.2" style="fill:#ccc; stroke-width:0px;" /><circle id="SPH04894" cx="754.16" cy="859.12" r="9.2" style="fill:#ccc; stroke-width:0px;" /><circle id="SPH04895" cx="746.68" cy="881.01" r="9.2" style="fill:#ccc; stroke-width:0px;" /><circle id="SPH04896" cx="738.39" cy="902.58" r="9.2" style="fill:#ccc; stroke-width:0px;" /><circle id="SPH04897" cx="730.08" cy="924.15" r="9.2" style="fill:#ccc; stroke-width:0px;" /><circle id="SPH04898" cx="721.79" cy="945.7" r="9.2" style="fill:#ccc; stroke-width:0px;" /><circle id="SPH04899" cx="713.49" cy="967.25" r="9.2" style="fill:#ccc; stroke-width:0px;" /><circle id="SPH04900" cx="705.2" cy="988.79" r="9.2" style="fill:#ccc; stroke-width:0px;" /><circle id="SPH04901" cx="696.91" cy="1010.33" r="9.2" style="fill:#ccc; stroke-width:0px;" /><circle id="SPH04902" cx="688.62" cy="1031.86" r="9.2" style="fill:#ccc; stroke-width:0px;" /><circle id="SPH04903" cx="931.08" cy="403.52" r="9.2" style="fill:#ccc; stroke-width:0px;" /><circle id="SPH04904" cx="925.6" cy="426.2" r="9.2" style="fill:#ccc; stroke-width:0px;" /><circle id="SPH04905" cx="920.12" cy="448.89" r="9.2" style="fill:#ccc; stroke-width:0px;" /><circle id="SPH04906" cx="914.64" cy="471.57" r="9.2" style="fill:#ccc; stroke-width:0px;" /><circle id="SPH04907" cx="909" cy="494.21" r="9.2" style="fill:#ccc; stroke-width:0px;" /><circle id="SPH04908" cx="902.54" cy="516.63" r="9.2" style="fill:#ccc; stroke-width:0px;" /><circle id="SPH04909" cx="896.08" cy="539.04" r="9.2" style="fill:#ccc; stroke-width:0px;" /><circle id="SPH04910" cx="889.63" cy="561.47" r="9.2" style="fill:#ccc; stroke-width:0px;" /><circle id="SPH04911" cx="883.17" cy="583.89" r="9.2" style="fill:#ccc; stroke-width:0px;" /><circle id="SPH04912" cx="876.72" cy="606.31" r="9.2" style="fill:#ccc; stroke-width:0px;" /><circle id="SPH04913" cx="870.25" cy="628.74" r="9.2" style="fill:#ccc; stroke-width:0px;" /><circle id="SPH04914" cx="863.8" cy="651.15" r="9.2" style="fill:#ccc; stroke-width:0px;" /><circle id="SPH04915" cx="857.34" cy="673.56" r="9.2" style="fill:#ccc; stroke-width:0px;" /><circle id="SPH04916" cx="850.73" cy="695.9" r="9.2" style="fill:#ccc; stroke-width:0px;" /><circle id="SPH04917" cx="843.29" cy="718.07" r="9.2" style="fill:#ccc; stroke-width:0px;" /><circle id="SPH04918" cx="835.85" cy="740.22" r="9.2" style="fill:#ccc; stroke-width:0px;" /><circle id="SPH04919" cx="828.42" cy="762.36" r="9.2" style="fill:#ccc; stroke-width:0px;" /><circle id="SPH04920" cx="820.99" cy="784.5" r="9.2" style="fill:#ccc; stroke-width:0px;" /><circle id="SPH04921" cx="813.55" cy="806.64" r="9.2" style="fill:#ccc; stroke-width:0px;" /><circle id="SPH04922" cx="806.12" cy="828.78" r="9.2" style="fill:#ccc; stroke-width:0px;" /><circle id="SPH04923" cx="798.68" cy="850.92" r="9.2" style="fill:#ccc; stroke-width:0px;" /><circle id="SPH04924" cx="791.25" cy="873.06" r="9.2" style="fill:#ccc; stroke-width:0px;" /><circle id="SPH04925" cx="783.68" cy="895.14" r="9.2" style="fill:#ccc; stroke-width:0px;" /><circle id="SPH04926" cx="775.29" cy="916.92" r="9.2" style="fill:#ccc; stroke-width:0px;" /><circle id="SPH04927" cx="766.91" cy="938.7" r="9.2" style="fill:#ccc; stroke-width:0px;" /><circle id="SPH04928" cx="758.53" cy="960.47" r="9.2" style="fill:#ccc; stroke-width:0px;" /><circle id="SPH04929" cx="750.16" cy="982.23" r="9.2" style="fill:#ccc; stroke-width:0px;" /><circle id="SPH04930" cx="741.78" cy="1003.99" r="9.2" style="fill:#ccc; stroke-width:0px;" /><circle id="SPH04931" cx="733.41" cy="1025.73" r="9.2" style="fill:#ccc; stroke-width:0px;" /><circle id="SPH04932" cx="725.04" cy="1047.47" r="9.2" style="fill:#ccc; stroke-width:0px;" /><circle id="SPH04933" cx="969.59" cy="412.77" r="9.2" style="fill:#ccc; stroke-width:0px;" /><circle id="SPH04934" cx="964.06" cy="435.66" r="9.2" style="fill:#ccc; stroke-width:0px;" /><circle id="SPH04935" cx="958.53" cy="458.54" r="9.2" style="fill:#ccc; stroke-width:0px;" /><circle id="SPH04936" cx="953" cy="481.43" r="9.2" style="fill:#ccc; stroke-width:0px;" /><circle id="SPH04937" cx="947.31" cy="504.28" r="9.2" style="fill:#ccc; stroke-width:0px;" /><circle id="SPH04938" cx="940.8" cy="526.9" r="9.2" style="fill:#ccc; stroke-width:0px;" /><circle id="SPH04939" cx="934.28" cy="549.54" r="9.2" style="fill:#ccc; stroke-width:0px;" /><circle id="SPH04940" cx="927.76" cy="572.15" r="9.2" style="fill:#ccc; stroke-width:0px;" /><circle id="SPH04941" cx="921.24" cy="594.77" r="9.2" style="fill:#ccc; stroke-width:0px;" /><circle id="SPH04942" cx="914.73" cy="617.38" r="9.2" style="fill:#ccc; stroke-width:0px;" /><circle id="SPH04943" cx="908.21" cy="640.02" r="9.2" style="fill:#ccc; stroke-width:0px;" /><circle id="SPH04944" cx="901.7" cy="662.64" r="9.2" style="fill:#ccc; stroke-width:0px;" /><circle id="SPH04945" cx="895.19" cy="685.25" r="9.2" style="fill:#ccc; stroke-width:0px;" /><circle id="SPH04946" cx="888.51" cy="707.79" r="9.2" style="fill:#ccc; stroke-width:0px;" /><circle id="SPH04947" cx="881.01" cy="730.14" r="9.2" style="fill:#ccc; stroke-width:0px;" /><circle id="SPH04948" cx="873.51" cy="752.49" r="9.2" style="fill:#ccc; stroke-width:0px;" /><circle id="SPH04949" cx="866" cy="774.84" r="9.2" style="fill:#ccc; stroke-width:0px;" /><circle id="SPH04950" cx="858.51" cy="797.16" r="9.2" style="fill:#ccc; stroke-width:0px;" /><circle id="SPH04951" cx="851.01" cy="819.49" r="9.2" style="fill:#ccc; stroke-width:0px;" /><circle id="SPH04952" cx="843.52" cy="841.82" r="9.2" style="fill:#ccc; stroke-width:0px;" /><circle id="SPH04953" cx="836.03" cy="864.12" r="9.2" style="fill:#ccc; stroke-width:0px;" /><circle id="SPH04954" cx="828.53" cy="886.43" r="9.2" style="fill:#ccc; stroke-width:0px;" /><circle id="SPH04955" cx="820.9" cy="908.68" r="9.2" style="fill:#ccc; stroke-width:0px;" /><circle id="SPH04956" cx="812.44" cy="930.68" r="9.2" style="fill:#ccc; stroke-width:0px;" /><circle id="SPH04957" cx="803.97" cy="952.67" r="9.2" style="fill:#ccc; stroke-width:0px;" /><circle id="SPH04958" cx="795.51" cy="974.64" r="9.2" style="fill:#ccc; stroke-width:0px;" /><circle id="SPH04959" cx="787.05" cy="996.61" r="9.2" style="fill:#ccc; stroke-width:0px;" /><circle id="SPH04960" cx="778.6" cy="1018.58" r="9.2" style="fill:#ccc; stroke-width:0px;" /><circle id="SPH04961" cx="770.15" cy="1040.53" r="9.2" style="fill:#ccc; stroke-width:0px;" /><circle id="SPH04962" cx="761.7" cy="1062.49" r="9.2" style="fill:#ccc; stroke-width:0px;" /><circle id="SPH04963" cx="1008.1" cy="422.02" r="9.2" style="fill:#ccc; stroke-width:0px;" /><circle id="SPH04964" cx="1002.71" cy="444.34" r="9.2" style="fill:#ccc; stroke-width:0px;" /><circle id="SPH04965" cx="997.31" cy="466.67" r="9.2" style="fill:#ccc; stroke-width:0px;" /><circle id="SPH04966" cx="991.92" cy="488.99" r="9.2" style="fill:#ccc; stroke-width:0px;" /><circle id="SPH04967" cx="986.49" cy="511.31" r="9.2" style="fill:#ccc; stroke-width:0px;" /><circle id="SPH04968" cx="980.13" cy="533.39" r="9.2" style="fill:#ccc; stroke-width:0px;" /><circle id="SPH04969" cx="973.77" cy="555.47" r="9.2" style="fill:#ccc; stroke-width:0px;" /><circle id="SPH04970" cx="967.42" cy="577.53" r="9.2" style="fill:#ccc; stroke-width:0px;" /><circle id="SPH04971" cx="961.06" cy="599.6" r="9.2" style="fill:#ccc; stroke-width:0px;" /><circle id="SPH04972" cx="954.71" cy="621.67" r="9.2" style="fill:#ccc; stroke-width:0px;" /><circle id="SPH04973" cx="948.36" cy="643.74" r="9.2" style="fill:#ccc; stroke-width:0px;" /><circle id="SPH04974" cx="942" cy="665.8" r="9.2" style="fill:#ccc; stroke-width:0px;" /><circle id="SPH04975" cx="935.64" cy="687.88" r="9.2" style="fill:#ccc; stroke-width:0px;" /><circle id="SPH04976" cx="929.28" cy="709.96" r="9.2" style="fill:#ccc; stroke-width:0px;" /><circle id="SPH04977" cx="922.21" cy="731.83" r="9.2" style="fill:#ccc; stroke-width:0px;" /><circle id="SPH04978" cx="914.9" cy="753.62" r="9.2" style="fill:#ccc; stroke-width:0px;" /><circle id="SPH04979" cx="907.58" cy="775.41" r="9.2" style="fill:#ccc; stroke-width:0px;" /><circle id="SPH04980" cx="900.27" cy="797.2" r="9.2" style="fill:#ccc; stroke-width:0px;" /><circle id="SPH04981" cx="892.95" cy="818.98" r="9.2" style="fill:#ccc; stroke-width:0px;" /><circle id="SPH04982" cx="885.64" cy="840.77" r="9.2" style="fill:#ccc; stroke-width:0px;" /><circle id="SPH04983" cx="878.32" cy="862.55" r="9.2" style="fill:#ccc; stroke-width:0px;" /><circle id="SPH04984" cx="871.01" cy="884.32" r="9.2" style="fill:#ccc; stroke-width:0px;" /><circle id="SPH04985" cx="863.71" cy="906.09" r="9.2" style="fill:#ccc; stroke-width:0px;" /><circle id="SPH04986" cx="856" cy="927.71" r="9.2" style="fill:#ccc; stroke-width:0px;" /><circle id="SPH04987" cx="847.76" cy="949.13" r="9.2" style="fill:#ccc; stroke-width:0px;" /><circle id="SPH04988" cx="839.52" cy="970.55" r="9.2" style="fill:#ccc; stroke-width:0px;" /><circle id="SPH04989" cx="831.28" cy="991.95" r="9.2" style="fill:#ccc; stroke-width:0px;" /><circle id="SPH04990" cx="823.04" cy="1013.37" r="9.2" style="fill:#ccc; stroke-width:0px;" /><circle id="SPH04991" cx="814.79" cy="1034.79" r="9.2" style="fill:#ccc; stroke-width:0px;" /><circle id="SPH04992" cx="806.54" cy="1056.23" r="9.2" style="fill:#ccc; stroke-width:0px;" /><circle id="SPH04993" cx="798.29" cy="1077.66" r="9.2" style="fill:#ccc; stroke-width:0px;" /><circle id="SPH04994" cx="1046.6" cy="431.26" r="9.2" style="fill:#ccc; stroke-width:0px;" /><circle id="SPH04995" cx="1041.16" cy="453.78" r="9.2" style="fill:#ccc; stroke-width:0px;" /><circle id="SPH04996" cx="1035.72" cy="476.3" r="9.2" style="fill:#ccc; stroke-width:0px;" /><circle id="SPH04997" cx="1030.28" cy="498.83" r="9.2" transform="translate(372.86 1435.9) rotate(-80.78)" style="fill:#ccc; stroke-width:0px;" /><circle id="SPH04998" cx="1024.81" cy="521.35" r="9.2" transform="translate(346.04 1449.42) rotate(-80.78)" style="fill:#ccc; stroke-width:0px;" /><circle id="SPH04999" cx="1018.4" cy="543.63" r="9.2" transform="translate(318.66 1461.8) rotate(-80.78)" style="fill:#ccc; stroke-width:0px;" /><circle id="SPH05000" cx="1011.98" cy="565.9" r="9.2" style="fill:#ccc; stroke-width:0px;" /><circle id="SPH05001" cx="1005.57" cy="588.15" r="9.2" style="fill:#ccc; stroke-width:0px;" /><circle id="SPH05002" cx="999.16" cy="610.43" r="9.2" style="fill:#ccc; stroke-width:0px;" /><circle id="SPH05003" cx="992.74" cy="632.69" r="9.2" style="fill:#ccc; stroke-width:0px;" /><circle id="SPH05004" cx="986.33" cy="654.95" r="9.2" style="fill:#ccc; stroke-width:0px;" /><circle id="SPH05005" cx="979.92" cy="677.22" r="9.2" style="fill:#ccc; stroke-width:0px;" /><circle id="SPH05006" cx="973.5" cy="699.5" r="9.2" style="fill:#ccc; stroke-width:0px;" /><circle id="SPH05007" cx="967.08" cy="721.8" r="9.2" style="fill:#ccc; stroke-width:0px;" /><circle id="SPH05008" cx="959.95" cy="743.86" r="9.2" style="fill:#ccc; stroke-width:0px;" /><circle id="SPH05009" cx="952.56" cy="765.84" r="9.2" style="fill:#ccc; stroke-width:0px;" /><circle id="SPH05010" cx="945.19" cy="787.82" r="9.2" style="fill:#ccc; stroke-width:0px;" /><circle id="SPH05011" cx="937.81" cy="809.79" r="9.2" style="fill:#ccc; stroke-width:0px;" /><circle id="SPH05012" cx="930.43" cy="831.77" r="9.2" style="fill:#ccc; stroke-width:0px;" /><circle id="SPH05013" cx="923.05" cy="853.75" r="9.2" style="fill:#ccc; stroke-width:0px;" /><circle id="SPH05014" cx="915.68" cy="875.71" r="9.2" style="fill:#ccc; stroke-width:0px;" /><circle id="SPH05015" cx="908.3" cy="897.69" r="9.2" style="fill:#ccc; stroke-width:0px;" /><circle id="SPH05016" cx="900.92" cy="919.67" r="9.2" style="fill:#ccc; stroke-width:0px;" /><circle id="SPH05017" cx="893.13" cy="941.49" r="9.2" style="fill:#ccc; stroke-width:0px;" /><circle id="SPH05018" cx="884.81" cy="963.1" r="9.2" style="fill:#ccc; stroke-width:0px;" /><circle id="SPH05019" cx="876.49" cy="984.74" r="9.2" style="fill:#ccc; stroke-width:0px;" /><circle id="SPH05020" cx="868.17" cy="1006.35" r="9.2" style="fill:#ccc; stroke-width:0px;" /><circle id="SPH05021" cx="859.84" cy="1027.98" r="9.2" style="fill:#ccc; stroke-width:0px;" /><circle id="SPH05022" cx="851.52" cy="1049.62" r="9.2" style="fill:#ccc; stroke-width:0px;" /><circle id="SPH05023" cx="843.18" cy="1071.26" r="9.2" style="fill:#ccc; stroke-width:0px;" /><circle id="SPH05024" cx="834.86" cy="1092.89" r="9.2" style="fill:#ccc; stroke-width:0px;" /><circle id="SPH05025" cx="1085.11" cy="440.5" r="9.2" style="fill:#ccc; stroke-width:0px;" /><circle id="SPH05026" cx="1079.48" cy="463.83" r="9.2" style="fill:#ccc; stroke-width:0px;" /><circle id="SPH05027" cx="1073.84" cy="487.16" r="9.2" style="fill:#ccc; stroke-width:0px;" /><circle id="SPH05028" cx="1068.2" cy="510.49" r="9.2" style="fill:#ccc; stroke-width:0px;" /><circle id="SPH05029" cx="1062.44" cy="533.78" r="9.2" style="fill:#ccc; stroke-width:0px;" /><circle id="SPH05030" cx="1055.8" cy="556.85" r="9.2" style="fill:#ccc; stroke-width:0px;" /><circle id="SPH05031" cx="1049.16" cy="579.9" r="9.2" style="fill:#ccc; stroke-width:0px;" /><circle id="SPH05032" cx="1042.52" cy="602.97" r="9.2" style="fill:#ccc; stroke-width:0px;" /><circle id="SPH05033" cx="1035.87" cy="626.03" r="9.2" style="fill:#ccc; stroke-width:0px;" /><circle id="SPH05034" cx="1029.23" cy="649.09" r="9.2" transform="translate(223.66 1561.06) rotate(-80.78)" style="fill:#ccc; stroke-width:0px;" /><circle id="SPH05035" cx="1022.59" cy="672.15" r="9.2" style="fill:#ccc; stroke-width:0px;" /><circle id="SPH05036" cx="1015.95" cy="695.2" r="9.2" style="fill:#ccc; stroke-width:0px;" /><circle id="SPH05037" cx="1009.31" cy="718.26" r="9.2" style="fill:#ccc; stroke-width:0px;" /><circle id="SPH05038" cx="1002.58" cy="741.28" r="9.2" style="fill:#ccc; stroke-width:0px;" /><circle id="SPH05039" cx="994.93" cy="764.07" r="9.2" style="fill:#ccc; stroke-width:0px;" /><circle id="SPH05040" cx="987.28" cy="786.84" r="9.2" style="fill:#ccc; stroke-width:0px;" /><circle id="SPH05041" cx="979.64" cy="809.62" r="9.2" style="fill:#ccc; stroke-width:0px;" /><circle id="SPH05042" cx="972" cy="832.39" r="9.2" style="fill:#ccc; stroke-width:0px;" /><circle id="SPH05043" cx="1123.61" cy="449.75" r="9.2" style="fill:#ccc; stroke-width:0px;" /><circle id="SPH05044" cx="1117.98" cy="473.07" r="9.2" style="fill:#ccc; stroke-width:0px;" /><circle id="SPH05045" cx="1112.34" cy="496.4" r="9.2" style="fill:#ccc; stroke-width:0px;" /><circle id="SPH05046" cx="1106.71" cy="519.73" r="9.2" style="fill:#ccc; stroke-width:0px;" /><circle id="SPH05047" cx="1100.98" cy="543.04" r="9.2" style="fill:#ccc; stroke-width:0px;" /><circle id="SPH05048" cx="1094.34" cy="566.1" r="9.2" style="fill:#ccc; stroke-width:0px;" /><circle id="SPH05049" cx="1087.7" cy="589.17" r="9.2" style="fill:#ccc; stroke-width:0px;" /><circle id="SPH05050" cx="1081.05" cy="612.23" r="9.2" style="fill:#ccc; stroke-width:0px;" /><circle id="SPH05051" cx="1074.41" cy="635.3" r="9.2" style="fill:#ccc; stroke-width:0px;" /><circle id="SPH05052" cx="1067.76" cy="658.37" r="9.2" style="fill:#ccc; stroke-width:0px;" /><circle id="SPH05053" cx="1061.12" cy="681.43" r="9.2" style="fill:#ccc; stroke-width:0px;" /><circle id="SPH05054" cx="1054.48" cy="704.48" r="9.2" style="fill:#ccc; stroke-width:0px;" /><circle id="SPH05055" cx="1047.84" cy="727.58" r="9.2" style="fill:#ccc; stroke-width:0px;" /><circle id="SPH05056" cx="1041.18" cy="750.68" r="9.2" style="fill:#ccc; stroke-width:0px;" /><circle id="SPH05057" cx="1033.56" cy="773.44" r="9.2" style="fill:#ccc; stroke-width:0px;" /><circle id="SPH05058" cx="1025.92" cy="796.2" r="9.2" transform="translate(75.67 1681.34) rotate(-80.78)" style="fill:#ccc; stroke-width:0px;" /><circle id="SPH05059" cx="1018.28" cy="818.95" r="9.2" transform="translate(46.79 1692.9) rotate(-80.78)" style="fill:#ccc; stroke-width:0px;" /><circle id="SPH05060" cx="1010.64" cy="841.7" r="9.2" style="fill:#ccc; stroke-width:0px;" /><circle id="SPH05061" cx="1162.12" cy="458.99" r="9.2" style="fill:#ccc; stroke-width:0px;" /><circle id="SPH05062" cx="1156.48" cy="482.32" r="9.2" style="fill:#ccc; stroke-width:0px;" /><circle id="SPH05063" cx="1150.84" cy="505.65" r="9.2" style="fill:#ccc; stroke-width:0px;" /><circle id="SPH05064" cx="1145.21" cy="528.98" r="9.2" style="fill:#ccc; stroke-width:0px;" /><circle id="SPH05065" cx="1139.52" cy="552.3" r="9.2" style="fill:#ccc; stroke-width:0px;" /><circle id="SPH05066" cx="1132.88" cy="575.37" r="9.2" style="fill:#ccc; stroke-width:0px;" /><circle id="SPH05067" cx="1126.24" cy="598.43" r="9.2" style="fill:#ccc; stroke-width:0px;" /><circle id="SPH05068" cx="1119.6" cy="621.49" r="9.2" style="fill:#ccc; stroke-width:0px;" /><circle id="SPH05069" cx="1112.96" cy="644.55" r="9.2" style="fill:#ccc; stroke-width:0px;" /><circle id="SPH05070" cx="1106.32" cy="667.61" r="9.2" style="fill:#ccc; stroke-width:0px;" /><circle id="SPH05071" cx="1099.67" cy="690.67" r="9.2" style="fill:#ccc; stroke-width:0px;" /><circle id="SPH05072" cx="1093.03" cy="713.74" r="9.2" style="fill:#ccc; stroke-width:0px;" /><circle id="SPH05073" cx="1086.4" cy="736.78" r="9.2" style="fill:#ccc; stroke-width:0px;" /><circle id="SPH05074" cx="1079.76" cy="759.8" r="9.2" style="fill:#ccc; stroke-width:0px;" /><circle id="SPH05075" cx="1072.27" cy="782.57" r="9.2" style="fill:#ccc; stroke-width:0px;" /><circle id="SPH05076" cx="1064.63" cy="805.3" r="9.2" style="fill:#ccc; stroke-width:0px;" /><circle id="SPH05077" cx="1057" cy="828.04" r="9.2" style="fill:#ccc; stroke-width:0px;" /><circle id="SPH05078" cx="1049.36" cy="850.78" r="9.2" style="fill:#ccc; stroke-width:0px;" /><circle id="SPH05079" cx="1200.63" cy="468.23" r="9.2" style="fill:#ccc; stroke-width:0px;" /><circle id="SPH05080" cx="1194.99" cy="491.56" r="9.2" style="fill:#ccc; stroke-width:0px;" /><circle id="SPH05081" cx="1189.36" cy="514.89" r="9.2" style="fill:#ccc; stroke-width:0px;" /><circle id="SPH05082" cx="1183.72" cy="538.22" r="9.2" style="fill:#ccc; stroke-width:0px;" /><circle id="SPH05083" cx="1178.08" cy="561.55" r="9.2" style="fill:#ccc; stroke-width:0px;" /><circle id="SPH05084" cx="1171.43" cy="584.61" r="9.2" style="fill:#ccc; stroke-width:0px;" /><circle id="SPH05085" cx="1164.79" cy="607.67" r="9.2" style="fill:#ccc; stroke-width:0px;" /><circle id="SPH05086" cx="1158.15" cy="630.73" r="9.2" style="fill:#ccc; stroke-width:0px;" /><circle id="SPH05087" cx="1151.51" cy="653.78" r="9.2" style="fill:#ccc; stroke-width:0px;" /><circle id="SPH05088" cx="1144.86" cy="676.85" r="9.2" style="fill:#ccc; stroke-width:0px;" /><circle id="SPH05089" cx="1138.22" cy="699.91" r="9.2" style="fill:#ccc; stroke-width:0px;" /><circle id="SPH05090" cx="1131.58" cy="722.98" r="9.2" style="fill:#ccc; stroke-width:0px;" /><circle id="SPH05091" cx="1124.93" cy="746.06" r="9.2" style="fill:#ccc; stroke-width:0px;" /><circle id="SPH05092" cx="1118.28" cy="769.14" r="9.2" style="fill:#ccc; stroke-width:0px;" /><circle id="SPH05093" cx="1110.88" cy="791.96" r="9.2" style="fill:#ccc; stroke-width:0px;" /><circle id="SPH05094" cx="1103.24" cy="814.7" r="9.2" style="fill:#ccc; stroke-width:0px;" /><circle id="SPH05095" cx="1095.61" cy="837.46" r="9.2" style="fill:#ccc; stroke-width:0px;" /><circle id="SPH05096" cx="1087.97" cy="860.2" r="9.2" style="fill:#ccc; stroke-width:0px;" /><circle id="SPH05097" cx="623.04" cy="329.57" r="9.2" style="fill:#ccc; stroke-width:0px;" /><circle id="SPH05098" cx="617.59" cy="352.14" r="9.2" style="fill:#ccc; stroke-width:0px;" /><circle id="SPH05099" cx="612.13" cy="374.7" r="9.2" style="fill:#ccc; stroke-width:0px;" /><circle id="SPH05100" cx="606.68" cy="397.27" r="9.2" style="fill:#ccc; stroke-width:0px;" /><circle id="SPH05101" cx="600.78" cy="419.71" r="9.2" style="fill:#ccc; stroke-width:0px;" /><circle id="SPH05102" cx="594.36" cy="442.01" r="9.2" style="fill:#ccc; stroke-width:0px;" /><circle id="SPH05103" cx="587.93" cy="464.32" r="9.2" style="fill:#ccc; stroke-width:0px;" /><circle id="SPH05104" cx="581.51" cy="486.63" r="9.2" style="fill:#ccc; stroke-width:0px;" /><circle id="SPH05105" cx="575.08" cy="508.92" r="9.2" style="fill:#ccc; stroke-width:0px;" /><circle id="SPH05106" cx="568.66" cy="531.22" r="9.2" style="fill:#ccc; stroke-width:0px;" /><circle id="SPH05107" cx="562.24" cy="553.52" r="9.2" style="fill:#ccc; stroke-width:0px;" /><circle id="SPH05108" cx="555.81" cy="575.83" r="9.2" style="fill:#ccc; stroke-width:0px;" /><circle id="SPH05109" cx="549.39" cy="598.11" r="9.2" style="fill:#ccc; stroke-width:0px;" /><circle id="SPH05110" cx="542" cy="620.12" r="9.2" style="fill:#ccc; stroke-width:0px;" /><circle id="SPH05111" cx="534.6" cy="642.14" r="9.2" style="fill:#ccc; stroke-width:0px;" /><circle id="SPH05112" cx="527.21" cy="664.15" r="9.2" style="fill:#ccc; stroke-width:0px;" /><circle id="SPH05113" cx="519.82" cy="686.17" r="9.2" style="fill:#ccc; stroke-width:0px;" /><circle id="SPH05114" cx="512.44" cy="708.18" r="9.2" style="fill:#ccc; stroke-width:0px;" /><circle id="SPH05115" cx="505.04" cy="730.18" r="9.2" transform="translate(-296.61 1111.74) rotate(-80.78)" style="fill:#ccc; stroke-width:0px;" /><circle id="SPH05116" cx="497.65" cy="752.2" r="9.2" style="fill:#ccc; stroke-width:0px;" /><circle id="SPH05117" cx="490.27" cy="774.21" r="9.2" style="fill:#ccc; stroke-width:0px;" /><circle id="SPH05118" cx="482.37" cy="796.03" r="9.2" style="fill:#ccc; stroke-width:0px;" /><circle id="SPH05119" cx="474.04" cy="817.7" r="9.2" style="fill:#ccc; stroke-width:0px;" /><circle id="SPH05120" cx="465.69" cy="839.36" r="9.2" style="fill:#ccc; stroke-width:0px;" /><circle id="SPH05121" cx="457.36" cy="861.03" r="9.2" style="fill:#ccc; stroke-width:0px;" /><circle id="SPH05122" cx="449.02" cy="882.68" r="9.2" style="fill:#ccc; stroke-width:0px;" /><circle id="SPH05123" cx="440.68" cy="904.33" r="9.2" style="fill:#ccc; stroke-width:0px;" /><circle id="SPH05124" cx="432.36" cy="925.97" r="9.2" style="fill:#ccc; stroke-width:0px;" /><circle id="SPH05125" cx="661.55" cy="338.81" r="9.2" style="fill:#ccc; stroke-width:0px;" /><circle id="SPH05126" cx="656.04" cy="361.61" r="9.2" style="fill:#ccc; stroke-width:0px;" /><circle id="SPH05127" cx="650.53" cy="384.39" r="9.2" style="fill:#ccc; stroke-width:0px;" /><circle id="SPH05128" cx="645.03" cy="407.18" r="9.2" style="fill:#ccc; stroke-width:0px;" /><circle id="SPH05129" cx="639.07" cy="429.85" r="9.2" style="fill:#ccc; stroke-width:0px;" /><circle id="SPH05130" cx="632.58" cy="452.37" r="9.2" style="fill:#ccc; stroke-width:0px;" /><circle id="SPH05131" cx="626.09" cy="474.9" r="9.2" style="fill:#ccc; stroke-width:0px;" /><circle id="SPH05132" cx="619.6" cy="497.43" r="9.2" style="fill:#ccc; stroke-width:0px;" /><circle id="SPH05133" cx="613.12" cy="519.95" r="9.2" style="fill:#ccc; stroke-width:0px;" /><circle id="SPH05134" cx="606.63" cy="542.48" r="9.2" style="fill:#ccc; stroke-width:0px;" /><circle id="SPH05135" cx="600.14" cy="565.01" r="9.2" style="fill:#ccc; stroke-width:0px;" /><circle id="SPH05136" cx="593.65" cy="587.54" r="9.2" style="fill:#ccc; stroke-width:0px;" /><circle id="SPH05137" cx="587.14" cy="610.07" r="9.2" style="fill:#ccc; stroke-width:0px;" /><circle id="SPH05138" cx="579.68" cy="632.31" r="9.2" style="fill:#ccc; stroke-width:0px;" /><circle id="SPH05139" cx="572.21" cy="654.55" r="9.2" style="fill:#ccc; stroke-width:0px;" /><circle id="SPH05140" cx="564.75" cy="676.78" r="9.2" style="fill:#ccc; stroke-width:0px;" /><circle id="SPH05141" cx="557.28" cy="699.03" r="9.2" style="fill:#ccc; stroke-width:0px;" /><circle id="SPH05142" cx="549.81" cy="721.27" r="9.2" style="fill:#ccc; stroke-width:0px;" /><circle id="SPH05143" cx="542.34" cy="743.5" r="9.2" style="fill:#ccc; stroke-width:0px;" /><circle id="SPH05144" cx="534.88" cy="765.75" r="9.2" style="fill:#ccc; stroke-width:0px;" /><circle id="SPH05145" cx="527.41" cy="787.98" r="9.2" style="fill:#ccc; stroke-width:0px;" /><circle id="SPH05146" cx="519.42" cy="810.01" r="9.2" style="fill:#ccc; stroke-width:0px;" /><circle id="SPH05147" cx="511" cy="831.89" r="9.2" style="fill:#ccc; stroke-width:0px;" /><circle id="SPH05148" cx="502.58" cy="853.78" r="9.2" style="fill:#ccc; stroke-width:0px;" /><circle id="SPH05149" cx="494.16" cy="875.65" r="9.2" style="fill:#ccc; stroke-width:0px;" /><circle id="SPH05150" cx="485.73" cy="897.53" r="9.2" style="fill:#ccc; stroke-width:0px;" /><circle id="SPH05151" cx="477.32" cy="919.39" r="9.2" style="fill:#ccc; stroke-width:0px;" /><circle id="SPH05152" cx="468.9" cy="941.27" r="9.2" style="fill:#ccc; stroke-width:0px;" /><circle id="SPH05153" cx="700.05" cy="348.06" r="9.2" style="fill:#ccc; stroke-width:0px;" /><circle id="SPH05154" cx="694.49" cy="371.07" r="9.2" style="fill:#ccc; stroke-width:0px;" /><circle id="SPH05155" cx="688.93" cy="394.09" r="9.2" style="fill:#ccc; stroke-width:0px;" /><circle id="SPH05156" cx="683.37" cy="417.1" r="9.2" style="fill:#ccc; stroke-width:0px;" /><circle id="SPH05157" cx="677.36" cy="439.99" r="9.2" style="fill:#ccc; stroke-width:0px;" /><circle id="SPH05158" cx="670.8" cy="462.75" r="9.2" style="fill:#ccc; stroke-width:0px;" /><circle id="SPH05159" cx="664.25" cy="485.5" r="9.2" style="fill:#ccc; stroke-width:0px;" /><circle id="SPH05160" cx="657.69" cy="508.26" r="9.2" style="fill:#ccc; stroke-width:0px;" /><circle id="SPH05161" cx="651.14" cy="531.01" r="9.2" style="fill:#ccc; stroke-width:0px;" /><circle id="SPH05162" cx="644.59" cy="553.75" r="9.2" style="fill:#ccc; stroke-width:0px;" /><circle id="SPH05163" cx="638.04" cy="576.5" r="9.2" style="fill:#ccc; stroke-width:0px;" /><circle id="SPH05164" cx="631.48" cy="599.26" r="9.2" style="fill:#ccc; stroke-width:0px;" /><circle id="SPH05165" cx="624.91" cy="622" r="9.2" style="fill:#ccc; stroke-width:0px;" /><circle id="SPH05166" cx="617.37" cy="644.46" r="9.2" style="fill:#ccc; stroke-width:0px;" /><circle id="SPH05167" cx="609.84" cy="666.91" r="9.2" style="fill:#ccc; stroke-width:0px;" /><circle id="SPH05168" cx="602.29" cy="689.37" r="9.2" style="fill:#ccc; stroke-width:0px;" /><circle id="SPH05169" cx="594.76" cy="711.83" r="9.2" style="fill:#ccc; stroke-width:0px;" /><circle id="SPH05170" cx="587.21" cy="734.28" r="9.2" style="fill:#ccc; stroke-width:0px;" /><circle id="SPH05171" cx="579.68" cy="756.73" r="9.2" style="fill:#ccc; stroke-width:0px;" /><circle id="SPH05172" cx="572.14" cy="779.18" r="9.2" style="fill:#ccc; stroke-width:0px;" /><circle id="SPH05173" cx="564.6" cy="801.64" r="9.2" style="fill:#ccc; stroke-width:0px;" /><circle id="SPH05174" cx="556.52" cy="823.89" r="9.2" style="fill:#ccc; stroke-width:0px;" /><circle id="SPH05175" cx="548" cy="845.99" r="9.2" style="fill:#ccc; stroke-width:0px;" /><circle id="SPH05176" cx="539.5" cy="868.08" r="9.2" style="fill:#ccc; stroke-width:0px;" /><circle id="SPH05177" cx="531" cy="890.18" r="9.2" style="fill:#ccc; stroke-width:0px;" /><circle id="SPH05178" cx="522.5" cy="912.25" r="9.2" style="fill:#ccc; stroke-width:0px;" /><circle id="SPH05179" cx="514.01" cy="934.31" r="9.2" style="fill:#ccc; stroke-width:0px;" /><circle id="SPH05180" cx="505.52" cy="956.37" r="9.2" transform="translate(-519.48 1302.17) rotate(-80.78)" style="fill:#ccc; stroke-width:0px;" /><circle id="SPH05181" cx="738.56" cy="357.3" r="9.2" style="fill:#ccc; stroke-width:0px;" /><circle id="SPH05182" cx="733.15" cy="379.7" r="9.2" style="fill:#ccc; stroke-width:0px;" /><circle id="SPH05183" cx="727.73" cy="402.11" r="9.2" style="fill:#ccc; stroke-width:0px;" /><circle id="SPH05184" cx="722.32" cy="424.51" r="9.2" style="fill:#ccc; stroke-width:0px;" /><circle id="SPH05185" cx="716.6" cy="446.84" r="9.2" style="fill:#ccc; stroke-width:0px;" /><circle id="SPH05186" cx="710.21" cy="468.99" r="9.2" style="fill:#ccc; stroke-width:0px;" /><circle id="SPH05187" cx="703.83" cy="491.15" r="9.2" style="fill:#ccc; stroke-width:0px;" /><circle id="SPH05188" cx="697.45" cy="513.31" r="9.2" style="fill:#ccc; stroke-width:0px;" /><circle id="SPH05189" cx="691.07" cy="535.47" r="9.2" style="fill:#ccc; stroke-width:0px;" /><circle id="SPH05190" cx="684.68" cy="557.63" r="9.2" style="fill:#ccc; stroke-width:0px;" /><circle id="SPH05191" cx="678.31" cy="579.78" r="9.2" style="fill:#ccc; stroke-width:0px;" /><circle id="SPH05192" cx="671.92" cy="601.93" r="9.2" style="fill:#ccc; stroke-width:0px;" /><circle id="SPH05193" cx="665.54" cy="624.1" r="9.2" style="fill:#ccc; stroke-width:0px;" /><circle id="SPH05194" cx="658.6" cy="646.08" r="9.2" style="fill:#ccc; stroke-width:0px;" /><circle id="SPH05195" cx="651.26" cy="667.94" r="9.2" style="fill:#ccc; stroke-width:0px;" /><circle id="SPH05196" cx="643.92" cy="689.79" r="9.2" style="fill:#ccc; stroke-width:0px;" /><circle id="SPH05197" cx="636.59" cy="711.64" r="9.2" style="fill:#ccc; stroke-width:0px;" /><circle id="SPH05198" cx="629.24" cy="733.5" r="9.2" style="fill:#ccc; stroke-width:0px;" /><circle id="SPH05199" cx="621.91" cy="755.35" r="9.2" style="fill:#ccc; stroke-width:0px;" /><circle id="SPH05200" cx="614.57" cy="777.21" r="9.2" style="fill:#ccc; stroke-width:0px;" /><circle id="SPH05201" cx="607.24" cy="799.07" r="9.2" style="fill:#ccc; stroke-width:0px;" /><circle id="SPH05202" cx="599.9" cy="820.92" r="9.2" style="fill:#ccc; stroke-width:0px;" /><circle id="SPH05203" cx="591.78" cy="842.5" r="9.2" style="fill:#ccc; stroke-width:0px;" /><circle id="SPH05204" cx="583.5" cy="864.01" r="9.2" style="fill:#ccc; stroke-width:0px;" /><circle id="SPH05205" cx="575.22" cy="885.53" r="9.2" style="fill:#ccc; stroke-width:0px;" /><circle id="SPH05206" cx="566.94" cy="907.03" r="9.2" style="fill:#ccc; stroke-width:0px;" /><circle id="SPH05207" cx="558.67" cy="928.53" r="9.2" style="fill:#ccc; stroke-width:0px;" /><circle id="SPH05208" cx="550.4" cy="950.02" r="9.2" style="fill:#ccc; stroke-width:0px;" /><circle id="SPH05209" cx="542.12" cy="971.51" r="9.2" style="fill:#ccc; stroke-width:0px;" /><circle id="SPH05210" cx="777.06" cy="366.55" r="9.2" style="fill:#ccc; stroke-width:0px;" /><circle id="SPH05211" cx="771.6" cy="389.17" r="9.2" style="fill:#ccc; stroke-width:0px;" /><circle id="SPH05212" cx="766.13" cy="411.78" r="9.2" style="fill:#ccc; stroke-width:0px;" /><circle id="SPH05213" cx="760.67" cy="434.4" r="9.2" style="fill:#ccc; stroke-width:0px;" /><circle id="SPH05214" cx="754.9" cy="456.94" r="9.2" style="fill:#ccc; stroke-width:0px;" /><circle id="SPH05215" cx="748.45" cy="479.3" r="9.2" style="fill:#ccc; stroke-width:0px;" /><circle id="SPH05216" cx="742.01" cy="501.68" r="9.2" style="fill:#ccc; stroke-width:0px;" /><circle id="SPH05217" cx="735.56" cy="524.05" r="9.2" style="fill:#ccc; stroke-width:0px;" /><circle id="SPH05218" cx="729.12" cy="546.43" r="9.2" style="fill:#ccc; stroke-width:0px;" /><circle id="SPH05219" cx="722.68" cy="568.78" r="9.2" style="fill:#ccc; stroke-width:0px;" /><circle id="SPH05220" cx="716.24" cy="591.15" r="9.2" style="fill:#ccc; stroke-width:0px;" /><circle id="SPH05221" cx="709.8" cy="613.51" r="9.2" style="fill:#ccc; stroke-width:0px;" /><circle id="SPH05222" cx="703.36" cy="635.9" r="9.2" style="fill:#ccc; stroke-width:0px;" /><circle id="SPH05223" cx="696.34" cy="658.08" r="9.2" style="fill:#ccc; stroke-width:0px;" /><circle id="SPH05224" cx="688.93" cy="680.14" r="9.2" style="fill:#ccc; stroke-width:0px;" /><circle id="SPH05225" cx="681.53" cy="702.19" r="9.2" style="fill:#ccc; stroke-width:0px;" /><circle id="SPH05226" cx="674.12" cy="724.25" r="9.2" style="fill:#ccc; stroke-width:0px;" /><circle id="SPH05227" cx="666.72" cy="746.3" r="9.2" style="fill:#ccc; stroke-width:0px;" /><circle id="SPH05228" cx="659.32" cy="768.35" r="9.2" style="fill:#ccc; stroke-width:0px;" /><circle id="SPH05229" cx="651.92" cy="790.41" r="9.2" style="fill:#ccc; stroke-width:0px;" /><circle id="SPH05230" cx="644.51" cy="812.47" r="9.2" style="fill:#ccc; stroke-width:0px;" /><circle id="SPH05231" cx="637.1" cy="834.54" r="9.2" style="fill:#ccc; stroke-width:0px;" /><circle id="SPH05232" cx="628.9" cy="856.31" r="9.2" style="fill:#ccc; stroke-width:0px;" /><circle id="SPH05233" cx="620.54" cy="878.03" r="9.2" style="fill:#ccc; stroke-width:0px;" /><circle id="SPH05234" cx="612.17" cy="899.76" r="9.2" style="fill:#ccc; stroke-width:0px;" /><circle id="SPH05235" cx="603.81" cy="921.47" r="9.2" style="fill:#ccc; stroke-width:0px;" /><circle id="SPH05236" cx="595.46" cy="943.18" r="9.2" style="fill:#ccc; stroke-width:0px;" /><circle id="SPH05237" cx="587.1" cy="964.9" r="9.2" style="fill:#ccc; stroke-width:0px;" /><circle id="SPH05238" cx="578.74" cy="986.62" r="9.2" style="fill:#ccc; stroke-width:0px;" /><circle id="SPH05239" cx="815.56" cy="375.79" r="9.2" style="fill:#ccc; stroke-width:0px;" /><circle id="SPH05240" cx="810.05" cy="398.63" r="9.2" style="fill:#ccc; stroke-width:0px;" /><circle id="SPH05241" cx="804.53" cy="421.47" r="9.2" style="fill:#ccc; stroke-width:0px;" /><circle id="SPH05242" cx="799.02" cy="444.3" r="9.2" style="fill:#ccc; stroke-width:0px;" /><circle id="SPH05243" cx="793.2" cy="467.05" r="9.2" style="fill:#ccc; stroke-width:0px;" /><circle id="SPH05244" cx="786.69" cy="489.63" r="9.2" style="fill:#ccc; stroke-width:0px;" /><circle id="SPH05245" cx="780.19" cy="512.2" r="9.2" style="fill:#ccc; stroke-width:0px;" /><circle id="SPH05246" cx="773.68" cy="534.78" r="9.2" style="fill:#ccc; stroke-width:0px;" /><circle id="SPH05247" cx="767.18" cy="557.36" r="9.2" style="fill:#ccc; stroke-width:0px;" /><circle id="SPH05248" cx="760.68" cy="579.95" r="9.2" style="fill:#ccc; stroke-width:0px;" /><circle id="SPH05249" cx="754.17" cy="602.52" r="9.2" style="fill:#ccc; stroke-width:0px;" /><circle id="SPH05250" cx="747.67" cy="625.1" r="9.2" style="fill:#ccc; stroke-width:0px;" /><circle id="SPH05251" cx="741.16" cy="647.69" r="9.2" style="fill:#ccc; stroke-width:0px;" /><circle id="SPH05252" cx="734.08" cy="670.07" r="9.2" style="fill:#ccc; stroke-width:0px;" /><circle id="SPH05253" cx="726.61" cy="692.33" r="9.2" style="fill:#ccc; stroke-width:0px;" /><circle id="SPH05254" cx="719.14" cy="714.58" r="9.2" style="fill:#ccc; stroke-width:0px;" /><circle id="SPH05255" cx="711.67" cy="736.84" r="9.2" style="fill:#ccc; stroke-width:0px;" /><circle id="SPH05256" cx="704.2" cy="759.1" r="9.2" style="fill:#ccc; stroke-width:0px;" /><circle id="SPH05257" cx="696.72" cy="781.35" r="9.2" style="fill:#ccc; stroke-width:0px;" /><circle id="SPH05258" cx="689.25" cy="803.61" r="9.2" style="fill:#ccc; stroke-width:0px;" /><circle id="SPH05259" cx="681.78" cy="825.87" r="9.2" style="fill:#ccc; stroke-width:0px;" /><circle id="SPH05260" cx="674.31" cy="848.14" r="9.2" style="fill:#ccc; stroke-width:0px;" /><circle id="SPH05261" cx="666.02" cy="870.11" r="9.2" style="fill:#ccc; stroke-width:0px;" /><circle id="SPH05262" cx="657.58" cy="892.03" r="9.2" style="fill:#ccc; stroke-width:0px;" /><circle id="SPH05263" cx="649.14" cy="913.95" r="9.2" style="fill:#ccc; stroke-width:0px;" /><circle id="SPH05264" cx="640.71" cy="935.87" r="9.2" style="fill:#ccc; stroke-width:0px;" /><circle id="SPH05265" cx="632.27" cy="957.78" r="9.2" style="fill:#ccc; stroke-width:0px;" /><circle id="SPH05266" cx="623.84" cy="979.7" r="9.2" style="fill:#ccc; stroke-width:0px;" /><circle id="SPH05267" cx="615.4" cy="1001.62" r="9.2" style="fill:#ccc; stroke-width:0px;" /><circle id="SPH05290" cx="854.08" cy="385.03" r="9.2" style="fill:#ccc; stroke-width:0px;" /><circle id="SPH05291" cx="848.51" cy="408.09" r="9.2" style="fill:#ccc; stroke-width:0px;" /><circle id="SPH05292" cx="842.93" cy="431.15" r="9.2" style="fill:#ccc; stroke-width:0px;" /><circle id="SPH05293" cx="837.36" cy="454.19" r="9.2" style="fill:#ccc; stroke-width:0px;" /><circle id="SPH05294" cx="831.48" cy="477.17" r="9.2" style="fill:#ccc; stroke-width:0px;" /><circle id="SPH05295" cx="824.92" cy="499.97" r="9.2" style="fill:#ccc; stroke-width:0px;" /><circle id="SPH05296" cx="818.36" cy="522.74" r="9.2" style="fill:#ccc; stroke-width:0px;" /><circle id="SPH05297" cx="811.8" cy="545.52" r="9.2" style="fill:#ccc; stroke-width:0px;" /><circle id="SPH05298" cx="805.24" cy="568.3" r="9.2" style="fill:#ccc; stroke-width:0px;" /><circle id="SPH05299" cx="798.68" cy="591.08" r="9.2" style="fill:#ccc; stroke-width:0px;" /><circle id="SPH05300" cx="792.12" cy="613.87" r="9.2" style="fill:#ccc; stroke-width:0px;" /><circle id="SPH05301" cx="785.56" cy="636.66" r="9.2" style="fill:#ccc; stroke-width:0px;" /><circle id="SPH05302" cx="778.99" cy="659.45" r="9.2" style="fill:#ccc; stroke-width:0px;" /><circle id="SPH05303" cx="771.84" cy="682.04" r="9.2" style="fill:#ccc; stroke-width:0px;" /><circle id="SPH05304" cx="764.31" cy="704.49" r="9.2" style="fill:#ccc; stroke-width:0px;" /><circle id="SPH05305" cx="756.76" cy="726.94" r="9.2" style="fill:#ccc; stroke-width:0px;" /><circle id="SPH05306" cx="749.23" cy="749.4" r="9.2" style="fill:#ccc; stroke-width:0px;" /><circle id="SPH05307" cx="741.68" cy="771.87" r="9.2" style="fill:#ccc; stroke-width:0px;" /><circle id="SPH05308" cx="734.13" cy="794.35" r="9.2" style="fill:#ccc; stroke-width:0px;" /><circle id="SPH05309" cx="726.59" cy="816.83" r="9.2" style="fill:#ccc; stroke-width:0px;" /><circle id="SPH05310" cx="719.04" cy="839.32" r="9.2" style="fill:#ccc; stroke-width:0px;" /><circle id="SPH05311" cx="711.48" cy="861.8" r="9.2" style="fill:#ccc; stroke-width:0px;" /><circle id="SPH05312" cx="703.11" cy="883.98" r="9.2" style="fill:#ccc; stroke-width:0px;" /><circle id="SPH05313" cx="694.59" cy="906.11" r="9.2" style="fill:#ccc; stroke-width:0px;" /><circle id="SPH05314" cx="686.08" cy="928.24" r="9.2" style="fill:#ccc; stroke-width:0px;" /><circle id="SPH05315" cx="677.56" cy="950.37" r="9.2" style="fill:#ccc; stroke-width:0px;" /><circle id="SPH05316" cx="669.04" cy="972.48" r="9.2" style="fill:#ccc; stroke-width:0px;" /><circle id="SPH05317" cx="660.53" cy="994.59" r="9.2" style="fill:#ccc; stroke-width:0px;" /><circle id="SPH05318" cx="652.02" cy="1016.72" r="9.2" style="fill:#ccc; stroke-width:0px;" /></g></svg>