<svg id="Layer_1" viewBox="0 0 1697.6 1405.17" xmlns="http://www.w3.org/2000/svg"><g id="back"><g id="back-2"><path id="sphere" d="M1867.63,2135.4c0-1528.34-1241.46-2769.81-2769.81-2769.81S-3671.99,607.06-3671.99,2135.4s1241.46,2769.81,2769.81,2769.81h0c1528.34,0,2769.81-1241.46,2769.81-2769.81Z" style="fill:#f2f2f2; stroke:#ddd; stroke-miterlimit:10; stroke-width:3px;" /></g><g id="sectors"><path id="_409" d="M288.96,477.81c34.48-14.28,584.25-242.01,587.71-243.44C665.25,37.37,421.02-125.35,153.03-244.82c-58.27,35.71-116.53,71.42-174.8,107.12C-1.14-103.79,19.03-69.57,38.75-35.07h0c94.11,164.69,177.78,335.97,250.19,512.88h.02Z" style="fill:#fff; stroke:#ddd; stroke-miterlimit:10; stroke-width:9px;" /><path id="_307" d="M603.53,1818.53c-207.68,16.35-415.36,32.69-623.03,49.04-3.99-55.87-9.25-111.67-15.76-167.35-16.51-141.27-41.03-281.35-73.41-419.58,202.57-48.63,405.14-97.27,607.72-145.9,19.57,83.27,36.66,166.98,51.27,251h0c24.96,143.5,42.69,287.95,53.2,432.79h.01Z" style="fill:#fff; stroke:#ddd; stroke-miterlimit:10; stroke-width:9px;" /><path id="_308" d="M499.05,1134.73c-202.58,48.64-405.16,97.27-607.72,145.9-12.93-55.23-27.11-110.16-42.53-164.76-75.94-20.35-151.87-40.69-227.81-61.04-13.06-40.84-26.87-81.5-41.44-121.97-16.85-46.81-34.67-93.18-53.41-139.09,254.24-105.31,508.48-210.62,762.73-315.93,23.67,57.81,46.14,116.22,67.38,175.2h0c57.02,158.36,104.64,319.19,142.8,481.68h0Z" style="fill:#fff; stroke:#ddd; stroke-miterlimit:10; stroke-width:9px;" /><path id="_309" d="M288.87,477.85c-254.26,105.32-508.49,210.62-762.73,315.93-70.98-173.83-155.31-340.97-251.89-500.07C-491.11,149.92-256.46,6.13-21.83-137.66-1.22-103.78,18.93-69.61,38.62-35.14h0c94.13,164.73,177.81,336.03,250.25,512.98h0Z" style="fill:#fff; stroke:#ddd; stroke-miterlimit:10; stroke-width:9px;" /><path id="_310" d="M-567.07-449.72c-150.95,109.67-301.9,219.34-452.84,329.01,107.69,130.76,206.02,269.25,294.15,414.42C-491.12,149.92-81.6-101.03,153.03-244.82c-130.35-55.93-201.76-83.24-322.88-120.04h0c-128.58-38.08-261.26-66.65-397.23-84.87h0Z" style="fill:#fff; stroke:#ddd; stroke-miterlimit:10; stroke-width:9px;" /><path id="_408" d="M288.94,477.8c23.69,57.85,46.17,116.3,67.42,175.32,3.53,9.81,7.06,19.62,10.6,29.43,35.17,99.44,66.58,200.12,94.17,301.91,2.8,10.55,5.6,21.11,8.4,31.66,10.44,39.43,20.31,78.96,29.61,118.59,301.23-72.31,602.47-144.64,903.7-216.96-83.27-156.03-182.04-302.69-294.27-437.97-70.43-87.61-154.08-177.66-231.9-245.41,0,0-395.29,163.72-587.73,243.43Z" style="fill:#fff; stroke:#ddd; stroke-miterlimit:10; stroke-width:9px;" /><path id="_407" d="M499.15,1134.7c301.23-72.32,602.46-144.64,903.7-216.96,133.83,250.73,227.65,525.66,273.01,816.39-18.25,1.44-733.07,57.7-1072.22,84.39-10.5-144.81-28.24-289.24-53.19-432.71h0c-14.62-84.07-31.72-167.8-51.3-251.11h0Z" style="fill:#fff; stroke:#ddd; stroke-miterlimit:10; stroke-width:9px;" /></g></g><g id="Seats"><circle id="SPH05319" cx="699.15" cy="356.8" r="9.2" style="fill:#ccc; stroke-width:0px;" /><circle id="SPH05320" cx="707.44" cy="378.37" r="9.2" style="fill:#ccc; stroke-width:0px;" /><circle id="SPH05321" cx="715.76" cy="399.95" r="9.2" style="fill:#ccc; stroke-width:0px;" /><circle id="SPH05322" cx="724.05" cy="421.52" r="9.2" style="fill:#ccc; stroke-width:0px;" /><circle id="SPH05323" cx="732.36" cy="443.08" r="9.2" style="fill:#ccc; stroke-width:0px;" /><circle id="SPH05324" cx="740.66" cy="464.66" r="9.2" style="fill:#ccc; stroke-width:0px;" /><circle id="SPH05325" cx="748.97" cy="486.24" r="9.2" style="fill:#ccc; stroke-width:0px;" /><circle id="SPH05326" cx="757.28" cy="507.84" r="9.2" style="fill:#ccc; stroke-width:0px;" /><circle id="SPH05327" cx="764.74" cy="529.71" r="9.2" style="fill:#ccc; stroke-width:0px;" /><circle id="SPH05328" cx="772.1" cy="551.61" r="9.2" style="fill:#ccc; stroke-width:0px;" /><circle id="SPH05329" cx="779.46" cy="573.53" r="9.2" style="fill:#ccc; stroke-width:0px;" /><circle id="SPH05330" cx="786.81" cy="595.44" r="9.2" style="fill:#ccc; stroke-width:0px;" /><circle id="SPH05331" cx="794.17" cy="617.36" r="9.2" style="fill:#ccc; stroke-width:0px;" /><circle id="SPH05332" cx="801.52" cy="639.26" r="9.2" style="fill:#ccc; stroke-width:0px;" /><circle id="SPH05333" cx="808.88" cy="661.15" r="9.2" style="fill:#ccc; stroke-width:0px;" /><circle id="SPH05334" cx="816.23" cy="683.04" r="9.2" style="fill:#ccc; stroke-width:0px;" /><circle id="SPH05335" cx="823.56" cy="704.91" r="9.2" style="fill:#ccc; stroke-width:0px;" /><circle id="SPH05336" cx="830.11" cy="727.06" r="9.2" style="fill:#ccc; stroke-width:0px;" /><circle id="SPH05337" cx="836.5" cy="749.26" r="9.2" style="fill:#ccc; stroke-width:0px;" /><circle id="SPH05338" cx="842.89" cy="771.45" r="9.2" style="fill:#ccc; stroke-width:0px;" /><circle id="SPH05339" cx="849.29" cy="793.66" r="9.2" style="fill:#ccc; stroke-width:0px;" /><circle id="SPH05340" cx="855.68" cy="815.85" r="9.2" style="fill:#ccc; stroke-width:0px;" /><circle id="SPH05341" cx="862.08" cy="838.06" r="9.2" style="fill:#ccc; stroke-width:0px;" /><circle id="SPH05342" cx="868.48" cy="860.28" r="9.2" style="fill:#ccc; stroke-width:0px;" /><circle id="SPH05343" cx="874.88" cy="882.51" r="9.2" style="fill:#ccc; stroke-width:0px;" /><circle id="SPH05344" cx="881.28" cy="904.72" r="9.2" style="fill:#ccc; stroke-width:0px;" /><circle id="SPH05345" cx="886.88" cy="927.16" r="9.2" style="fill:#ccc; stroke-width:0px;" /><circle id="SPH05346" cx="892.3" cy="949.63" r="9.2" style="fill:#ccc; stroke-width:0px;" /><circle id="SPH05347" cx="897.73" cy="972.1" r="9.2" style="fill:#ccc; stroke-width:0px;" /><circle id="SPH05348" cx="903.16" cy="994.57" r="9.2" style="fill:#ccc; stroke-width:0px;" /><circle id="SPH05349" cx="735.74" cy="341.64" r="9.2" style="fill:#ccc; stroke-width:0px;" /><circle id="SPH05350" cx="744.12" cy="363.41" r="9.2" style="fill:#ccc; stroke-width:0px;" /><circle id="SPH05351" cx="752.5" cy="385.19" r="9.2" style="fill:#ccc; stroke-width:0px;" /><circle id="SPH05352" cx="760.88" cy="406.96" r="9.2" style="fill:#ccc; stroke-width:0px;" /><circle id="SPH05353" cx="769.27" cy="428.73" r="9.2" style="fill:#ccc; stroke-width:0px;" /><circle id="SPH05354" cx="777.65" cy="450.52" r="9.2" style="fill:#ccc; stroke-width:0px;" /><circle id="SPH05355" cx="786.03" cy="472.28" r="9.2" style="fill:#ccc; stroke-width:0px;" /><circle id="SPH05356" cx="794.4" cy="494.03" r="9.2" style="fill:#ccc; stroke-width:0px;" /><circle id="SPH05357" cx="801.95" cy="516.1" r="9.2" style="fill:#ccc; stroke-width:0px;" /><circle id="SPH05358" cx="809.37" cy="538.21" r="9.2" style="fill:#ccc; stroke-width:0px;" /><circle id="SPH05359" cx="816.8" cy="560.33" r="9.2" style="fill:#ccc; stroke-width:0px;" /><circle id="SPH05360" cx="824.23" cy="582.45" r="9.2" style="fill:#ccc; stroke-width:0px;" /><circle id="SPH05361" cx="831.66" cy="604.59" r="9.2" style="fill:#ccc; stroke-width:0px;" /><circle id="SPH05362" cx="839.09" cy="626.72" r="9.2" style="fill:#ccc; stroke-width:0px;" /><circle id="SPH05363" cx="846.52" cy="648.87" r="9.2" style="fill:#ccc; stroke-width:0px;" /><circle id="SPH05364" cx="853.96" cy="671.02" r="9.2" style="fill:#ccc; stroke-width:0px;" /><circle id="SPH05365" cx="861.4" cy="693.18" r="9.2" style="fill:#ccc; stroke-width:0px;" /><circle id="SPH05366" cx="868" cy="715.53" r="9.2" style="fill:#ccc; stroke-width:0px;" /><circle id="SPH05367" cx="874.45" cy="737.92" r="9.2" style="fill:#ccc; stroke-width:0px;" /><circle id="SPH05368" cx="880.9" cy="760.32" r="9.2" style="fill:#ccc; stroke-width:0px;" /><circle id="SPH05369" cx="887.36" cy="782.73" r="9.2" style="fill:#ccc; stroke-width:0px;" /><circle id="SPH05370" cx="893.81" cy="805.16" r="9.2" style="fill:#ccc; stroke-width:0px;" /><circle id="SPH05371" cx="900.27" cy="827.58" r="9.2" style="fill:#ccc; stroke-width:0px;" /><circle id="SPH05372" cx="906.73" cy="850.01" r="9.2" style="fill:#ccc; stroke-width:0px;" /><circle id="SPH05373" cx="913.19" cy="872.44" r="9.2" style="fill:#ccc; stroke-width:0px;" /><circle id="SPH05374" cx="919.64" cy="894.87" r="9.2" style="fill:#ccc; stroke-width:0px;" /><circle id="SPH05375" cx="925.27" cy="917.46" r="9.2" style="fill:#ccc; stroke-width:0px;" /><circle id="SPH05376" cx="930.74" cy="940.09" r="9.2" style="fill:#ccc; stroke-width:0px;" /><circle id="SPH05377" cx="936.2" cy="962.72" r="9.2" style="fill:#ccc; stroke-width:0px;" /><circle id="SPH05378" cx="941.67" cy="985.34" r="9.2" style="fill:#ccc; stroke-width:0px;" /><circle id="SPH05379" cx="772.34" cy="326.48" r="9.2" style="fill:#ccc; stroke-width:0px;" /><circle id="SPH05380" cx="780.8" cy="348.45" r="9.2" style="fill:#ccc; stroke-width:0px;" /><circle id="SPH05381" cx="789.25" cy="370.44" r="9.2" style="fill:#ccc; stroke-width:0px;" /><circle id="SPH05382" cx="797.72" cy="392.4" r="9.2" style="fill:#ccc; stroke-width:0px;" /><circle id="SPH05383" cx="806.16" cy="414.37" r="9.2" style="fill:#ccc; stroke-width:0px;" /><circle id="SPH05384" cx="814.63" cy="436.34" r="9.2" style="fill:#ccc; stroke-width:0px;" /><circle id="SPH05385" cx="823.08" cy="458.31" r="9.2" style="fill:#ccc; stroke-width:0px;" /><circle id="SPH05386" cx="831.53" cy="480.27" r="9.2" style="fill:#ccc; stroke-width:0px;" /><circle id="SPH05387" cx="839.17" cy="502.55" r="9.2" style="fill:#ccc; stroke-width:0px;" /><circle id="SPH05388" cx="846.67" cy="524.88" r="9.2" style="fill:#ccc; stroke-width:0px;" /><circle id="SPH05389" cx="854.16" cy="547.2" r="9.2" style="fill:#ccc; stroke-width:0px;" /><circle id="SPH05390" cx="861.65" cy="569.52" r="9.2" style="fill:#ccc; stroke-width:0px;" /><circle id="SPH05391" cx="869.15" cy="591.84" r="9.2" style="fill:#ccc; stroke-width:0px;" /><circle id="SPH05392" cx="876.64" cy="614.16" r="9.2" style="fill:#ccc; stroke-width:0px;" /><circle id="SPH05393" cx="884.15" cy="636.52" r="9.2" style="fill:#ccc; stroke-width:0px;" /><circle id="SPH05394" cx="891.65" cy="658.87" r="9.2" style="fill:#ccc; stroke-width:0px;" /><circle id="SPH05395" cx="899.16" cy="681.22" r="9.2" style="fill:#ccc; stroke-width:0px;" /><circle id="SPH05396" cx="905.82" cy="703.77" r="9.2" style="fill:#ccc; stroke-width:0px;" /><circle id="SPH05397" cx="912.33" cy="726.36" r="9.2" style="fill:#ccc; stroke-width:0px;" /><circle id="SPH05398" cx="918.84" cy="748.96" r="9.2" style="fill:#ccc; stroke-width:0px;" /><circle id="SPH05399" cx="925.35" cy="771.57" r="9.2" style="fill:#ccc; stroke-width:0px;" /><circle id="SPH05400" cx="931.86" cy="794.18" r="9.2" style="fill:#ccc; stroke-width:0px;" /><circle id="SPH05401" cx="938.37" cy="816.79" r="9.2" style="fill:#ccc; stroke-width:0px;" /><circle id="SPH05402" cx="944.88" cy="839.4" r="9.2" style="fill:#ccc; stroke-width:0px;" /><circle id="SPH05403" cx="951.4" cy="862" r="9.2" style="fill:#ccc; stroke-width:0px;" /><circle id="SPH05404" cx="957.9" cy="884.6" r="9.2" style="fill:#ccc; stroke-width:0px;" /><circle id="SPH05405" cx="963.59" cy="907.45" r="9.2" style="fill:#ccc; stroke-width:0px;" /><circle id="SPH05406" cx="969.12" cy="930.36" r="9.2" style="fill:#ccc; stroke-width:0px;" /><circle id="SPH05407" cx="974.66" cy="953.26" r="9.2" style="fill:#ccc; stroke-width:0px;" /><circle id="SPH05408" cx="980.19" cy="976.16" r="9.2" style="fill:#ccc; stroke-width:0px;" /><circle id="SPH05409" cx="808.93" cy="311.32" r="9.2" style="fill:#ccc; stroke-width:0px;" /><circle id="SPH05410" cx="817.19" cy="332.76" r="9.2" style="fill:#ccc; stroke-width:0px;" /><circle id="SPH05411" cx="825.44" cy="354.2" r="9.2" style="fill:#ccc; stroke-width:0px;" /><circle id="SPH05412" cx="833.69" cy="375.64" r="9.2" style="fill:#ccc; stroke-width:0px;" /><circle id="SPH05413" cx="841.94" cy="397.07" r="9.2" style="fill:#ccc; stroke-width:0px;" /><circle id="SPH05414" cx="850.2" cy="418.51" r="9.2" style="fill:#ccc; stroke-width:0px;" /><circle id="SPH05415" cx="858.44" cy="439.95" r="9.2" style="fill:#ccc; stroke-width:0px;" /><circle id="SPH05416" cx="866.7" cy="461.38" r="9.2" style="fill:#ccc; stroke-width:0px;" /><circle id="SPH05417" cx="874.39" cy="483.04" r="9.2" style="fill:#ccc; stroke-width:0px;" /><circle id="SPH05418" cx="881.71" cy="504.83" r="9.2" style="fill:#ccc; stroke-width:0px;" /><circle id="SPH05419" cx="889.02" cy="526.61" r="9.2" style="fill:#ccc; stroke-width:0px;" /><circle id="SPH05420" cx="896.33" cy="548.4" r="9.2" style="fill:#ccc; stroke-width:0px;" /><circle id="SPH05421" cx="903.64" cy="570.18" r="9.2" style="fill:#ccc; stroke-width:0px;" /><circle id="SPH05422" cx="910.96" cy="591.97" r="9.2" style="fill:#ccc; stroke-width:0px;" /><circle id="SPH05423" cx="918.28" cy="613.76" r="9.2" style="fill:#ccc; stroke-width:0px;" /><circle id="SPH05424" cx="925.6" cy="635.55" r="9.2" style="fill:#ccc; stroke-width:0px;" /><circle id="SPH05425" cx="932.92" cy="657.34" r="9.2" style="fill:#ccc; stroke-width:0px;" /><circle id="SPH05426" cx="939.96" cy="679.22" r="9.2" style="fill:#ccc; stroke-width:0px;" /><circle id="SPH05427" cx="946.32" cy="701.31" r="9.2" style="fill:#ccc; stroke-width:0px;" /><circle id="SPH05428" cx="952.68" cy="723.38" r="9.2" style="fill:#ccc; stroke-width:0px;" /><circle id="SPH05429" cx="959.04" cy="745.46" r="9.2" style="fill:#ccc; stroke-width:0px;" /><circle id="SPH05430" cx="965.4" cy="767.54" r="9.2" style="fill:#ccc; stroke-width:0px;" /><circle id="SPH05431" cx="971.76" cy="789.61" r="9.2" style="fill:#ccc; stroke-width:0px;" /><circle id="SPH05432" cx="978.11" cy="811.68" r="9.2" style="fill:#ccc; stroke-width:0px;" /><circle id="SPH05433" cx="984.47" cy="833.75" r="9.2" style="fill:#ccc; stroke-width:0px;" /><circle id="SPH05434" cx="990.82" cy="855.81" r="9.2" style="fill:#ccc; stroke-width:0px;" /><circle id="SPH05435" cx="997.16" cy="877.84" r="9.2" style="fill:#ccc; stroke-width:0px;" /><circle id="SPH05436" cx="1002.56" cy="900.12" r="9.2" style="fill:#ccc; stroke-width:0px;" /><circle id="SPH05437" cx="1007.95" cy="922.43" r="9.2" style="fill:#ccc; stroke-width:0px;" /><circle id="SPH05438" cx="1013.33" cy="944.72" r="9.2" style="fill:#ccc; stroke-width:0px;" /><circle id="SPH05439" cx="1018.72" cy="967.01" r="9.2" transform="translate(-98.98 1817.68) rotate(-80.78)" style="fill:#ccc; stroke-width:0px;" /><circle id="SPH05440" cx="845.53" cy="296.16" r="9.2" style="fill:#ccc; stroke-width:0px;" /><circle id="SPH05441" cx="853.86" cy="317.8" r="9.2" style="fill:#ccc; stroke-width:0px;" /><circle id="SPH05442" cx="862.18" cy="339.41" r="9.2" style="fill:#ccc; stroke-width:0px;" /><circle id="SPH05443" cx="870.51" cy="361.04" r="9.2" style="fill:#ccc; stroke-width:0px;" /><circle id="SPH05444" cx="878.83" cy="382.68" r="9.2" style="fill:#ccc; stroke-width:0px;" /><circle id="SPH05445" cx="887.16" cy="404.3" r="9.2" style="fill:#ccc; stroke-width:0px;" /><circle id="SPH05446" cx="895.48" cy="425.94" r="9.2" style="fill:#ccc; stroke-width:0px;" /><circle id="SPH05447" cx="903.82" cy="447.58" r="9.2" style="fill:#ccc; stroke-width:0px;" /><circle id="SPH05448" cx="911.59" cy="469.41" r="9.2" style="fill:#ccc; stroke-width:0px;" /><circle id="SPH05449" cx="918.96" cy="491.37" r="9.2" style="fill:#ccc; stroke-width:0px;" /><circle id="SPH05450" cx="926.34" cy="513.34" r="9.2" style="fill:#ccc; stroke-width:0px;" /><circle id="SPH05451" cx="933.72" cy="535.32" r="9.2" style="fill:#ccc; stroke-width:0px;" /><circle id="SPH05452" cx="941.09" cy="557.28" r="9.2" style="fill:#ccc; stroke-width:0px;" /><circle id="SPH05453" cx="948.47" cy="579.27" r="9.2" style="fill:#ccc; stroke-width:0px;" /><circle id="SPH05454" cx="955.85" cy="601.24" r="9.2" style="fill:#ccc; stroke-width:0px;" /><circle id="SPH05455" cx="963.23" cy="623.22" r="9.2" style="fill:#ccc; stroke-width:0px;" /><circle id="SPH05456" cx="970.6" cy="645.2" r="9.2" style="fill:#ccc; stroke-width:0px;" /><circle id="SPH05457" cx="977.73" cy="667.27" r="9.2" style="fill:#ccc; stroke-width:0px;" /><circle id="SPH05458" cx="984.15" cy="689.56" r="9.2" style="fill:#ccc; stroke-width:0px;" /><circle id="SPH05459" cx="990.57" cy="711.86" r="9.2" style="fill:#ccc; stroke-width:0px;" /><circle id="SPH05460" cx="997" cy="734.16" r="9.2" style="fill:#ccc; stroke-width:0px;" /><circle id="SPH05461" cx="1003.41" cy="756.44" r="9.2" style="fill:#ccc; stroke-width:0px;" /><circle id="SPH05462" cx="1009.83" cy="778.72" r="9.2" style="fill:#ccc; stroke-width:0px;" /><circle id="SPH05463" cx="1016.24" cy="801" r="9.2" transform="translate(62.8 1675.81) rotate(-80.78)" style="fill:#ccc; stroke-width:0px;" /><circle id="SPH05464" cx="1022.66" cy="823.28" r="9.2" style="fill:#ccc; stroke-width:0px;" /><circle id="SPH05465" cx="1029.07" cy="845.52" r="9.2" transform="translate(29.63 1725.86) rotate(-80.78)" style="fill:#ccc; stroke-width:0px;" /><circle id="SPH05466" cx="1035.47" cy="867.76" r="9.2" style="fill:#ccc; stroke-width:0px;" /><circle id="SPH05467" cx="1040.92" cy="890.29" r="9.2" style="fill:#ccc; stroke-width:0px;" /><circle id="SPH05468" cx="1046.37" cy="912.84" r="9.2" style="fill:#ccc; stroke-width:0px;" /><circle id="SPH05469" cx="1051.82" cy="935.38" r="9.2" style="fill:#ccc; stroke-width:0px;" /><circle id="SPH05470" cx="1057.27" cy="957.92" r="9.2" style="fill:#ccc; stroke-width:0px;" /><circle id="SPH05471" cx="982.65" cy="556.67" r="9.2" style="fill:#ccc; stroke-width:0px;" /><circle id="SPH05472" cx="990.29" cy="579.41" r="9.2" style="fill:#ccc; stroke-width:0px;" /><circle id="SPH05473" cx="997.93" cy="602.16" r="9.2" style="fill:#ccc; stroke-width:0px;" /><circle id="SPH05474" cx="1005.57" cy="624.92" r="9.2" style="fill:#ccc; stroke-width:0px;" /><circle id="SPH05475" cx="1013.21" cy="647.67" r="9.2" style="fill:#ccc; stroke-width:0px;" /><circle id="SPH05476" cx="1019.92" cy="670.7" r="9.2" style="fill:#ccc; stroke-width:0px;" /><circle id="SPH05477" cx="1026.57" cy="693.76" r="9.2" transform="translate(177.33 1595.95) rotate(-80.78)" style="fill:#ccc; stroke-width:0px;" /><circle id="SPH05478" cx="1033.21" cy="716.82" r="9.2" style="fill:#ccc; stroke-width:0px;" /><circle id="SPH05479" cx="1039.85" cy="739.88" r="9.2" style="fill:#ccc; stroke-width:0px;" /><circle id="SPH05480" cx="1046.49" cy="762.94" r="9.2" style="fill:#ccc; stroke-width:0px;" /><circle id="SPH05481" cx="1053.13" cy="786" r="9.2" style="fill:#ccc; stroke-width:0px;" /><circle id="SPH05482" cx="1059.77" cy="809.06" r="9.2" style="fill:#ccc; stroke-width:0px;" /><circle id="SPH05483" cx="1066.41" cy="832.12" r="9.2" style="fill:#ccc; stroke-width:0px;" /><circle id="SPH05484" cx="1073.05" cy="855.17" r="9.2" style="fill:#ccc; stroke-width:0px;" /><circle id="SPH05485" cx="1078.8" cy="878.46" r="9.2" style="fill:#ccc; stroke-width:0px;" /><circle id="SPH05486" cx="1084.44" cy="901.78" r="9.2" style="fill:#ccc; stroke-width:0px;" /><circle id="SPH05487" cx="1090.07" cy="925.1" r="9.2" style="fill:#ccc; stroke-width:0px;" /><circle id="SPH05488" cx="1095.71" cy="948.41" r="9.2" style="fill:#ccc; stroke-width:0px;" /><circle id="SPH05489" cx="1021.31" cy="547.37" r="9.2" style="fill:#ccc; stroke-width:0px;" /><circle id="SPH05490" cx="1028.95" cy="570.12" r="9.2" transform="translate(301.37 1494.46) rotate(-80.78)" style="fill:#ccc; stroke-width:0px;" /><circle id="SPH05491" cx="1036.59" cy="592.88" r="9.2" style="fill:#ccc; stroke-width:0px;" /><circle id="SPH05492" cx="1044.23" cy="615.64" r="9.2" style="fill:#ccc; stroke-width:0px;" /><circle id="SPH05493" cx="1051.84" cy="638.4" r="9.2" style="fill:#ccc; stroke-width:0px;" /><circle id="SPH05494" cx="1058.48" cy="661.47" r="9.2" style="fill:#ccc; stroke-width:0px;" /><circle id="SPH05495" cx="1065.12" cy="684.52" r="9.2" style="fill:#ccc; stroke-width:0px;" /><circle id="SPH05496" cx="1071.76" cy="707.57" r="9.2" style="fill:#ccc; stroke-width:0px;" /><circle id="SPH05497" cx="1078.4" cy="730.64" r="9.2" style="fill:#ccc; stroke-width:0px;" /><circle id="SPH05498" cx="1085.04" cy="753.71" r="9.2" style="fill:#ccc; stroke-width:0px;" /><circle id="SPH05499" cx="1091.68" cy="776.77" r="9.2" style="fill:#ccc; stroke-width:0px;" /><circle id="SPH05500" cx="1098.32" cy="799.84" r="9.2" style="fill:#ccc; stroke-width:0px;" /><circle id="SPH05501" cx="1104.97" cy="822.91" r="9.2" style="fill:#ccc; stroke-width:0px;" /><circle id="SPH05502" cx="1111.61" cy="845.97" r="9.2" style="fill:#ccc; stroke-width:0px;" /><circle id="SPH05503" cx="1117.32" cy="869.27" r="9.2" style="fill:#ccc; stroke-width:0px;" /><circle id="SPH05504" cx="1122.96" cy="892.59" r="9.2" style="fill:#ccc; stroke-width:0px;" /><circle id="SPH05505" cx="1128.59" cy="915.9" r="9.2" style="fill:#ccc; stroke-width:0px;" /><circle id="SPH05506" cx="1134.22" cy="939.21" r="9.2" style="fill:#ccc; stroke-width:0px;" /><circle id="SPH05507" cx="1059.96" cy="538.08" r="9.2" style="fill:#ccc; stroke-width:0px;" /><circle id="SPH05508" cx="1067.6" cy="560.84" r="9.2" style="fill:#ccc; stroke-width:0px;" /><circle id="SPH05509" cx="1075.24" cy="583.58" r="9.2" style="fill:#ccc; stroke-width:0px;" /><circle id="SPH05510" cx="1082.88" cy="606.33" r="9.2" style="fill:#ccc; stroke-width:0px;" /><circle id="SPH05511" cx="1090.37" cy="629.12" r="9.2" style="fill:#ccc; stroke-width:0px;" /><circle id="SPH05512" cx="1097.01" cy="652.19" r="9.2" style="fill:#ccc; stroke-width:0px;" /><circle id="SPH05513" cx="1103.66" cy="675.25" r="9.2" style="fill:#ccc; stroke-width:0px;" /><circle id="SPH05514" cx="1110.3" cy="698.32" r="9.2" style="fill:#ccc; stroke-width:0px;" /><circle id="SPH05515" cx="1116.94" cy="721.38" r="9.2" style="fill:#ccc; stroke-width:0px;" /><circle id="SPH05516" cx="1123.58" cy="744.44" r="9.2" style="fill:#ccc; stroke-width:0px;" /><circle id="SPH05517" cx="1130.23" cy="767.51" r="9.2" style="fill:#ccc; stroke-width:0px;" /><circle id="SPH05518" cx="1136.87" cy="790.56" r="9.2" style="fill:#ccc; stroke-width:0px;" /><circle id="SPH05519" cx="1143.51" cy="813.62" r="9.2" style="fill:#ccc; stroke-width:0px;" /><circle id="SPH05520" cx="1150.14" cy="836.67" r="9.2" style="fill:#ccc; stroke-width:0px;" /><circle id="SPH05521" cx="1155.81" cy="859.96" r="9.2" style="fill:#ccc; stroke-width:0px;" /><circle id="SPH05522" cx="1161.44" cy="883.28" r="9.2" style="fill:#ccc; stroke-width:0px;" /><circle id="SPH05523" cx="1167.08" cy="906.59" r="9.2" style="fill:#ccc; stroke-width:0px;" /><circle id="SPH05524" cx="1172.71" cy="929.9" r="9.2" style="fill:#ccc; stroke-width:0px;" /><circle id="SPH05525" cx="1098.61" cy="528.8" r="9.2" style="fill:#ccc; stroke-width:0px;" /><circle id="SPH05526" cx="1106.25" cy="551.55" r="9.2" style="fill:#ccc; stroke-width:0px;" /><circle id="SPH05527" cx="1113.89" cy="574.3" r="9.2" style="fill:#ccc; stroke-width:0px;" /><circle id="SPH05528" cx="1121.53" cy="597.05" r="9.2" style="fill:#ccc; stroke-width:0px;" /><circle id="SPH05529" cx="1128.92" cy="619.88" r="9.2" style="fill:#ccc; stroke-width:0px;" /><circle id="SPH05530" cx="1135.56" cy="642.94" r="9.2" style="fill:#ccc; stroke-width:0px;" /><circle id="SPH05531" cx="1142.2" cy="666" r="9.2" style="fill:#ccc; stroke-width:0px;" /><circle id="SPH05532" cx="1148.84" cy="689.07" r="9.2" style="fill:#ccc; stroke-width:0px;" /><circle id="SPH05533" cx="1155.48" cy="712.12" r="9.2" style="fill:#ccc; stroke-width:0px;" /><circle id="SPH05534" cx="1162.12" cy="735.19" r="9.2" style="fill:#ccc; stroke-width:0px;" /><circle id="SPH05535" cx="1168.76" cy="758.24" r="9.2" style="fill:#ccc; stroke-width:0px;" /><circle id="SPH05536" cx="1175.4" cy="781.3" r="9.2" style="fill:#ccc; stroke-width:0px;" /><circle id="SPH05537" cx="1182.05" cy="804.36" r="9.2" style="fill:#ccc; stroke-width:0px;" /><circle id="SPH05538" cx="1188.69" cy="827.42" r="9.2" style="fill:#ccc; stroke-width:0px;" /><circle id="SPH05539" cx="1194.33" cy="850.76" r="9.2" style="fill:#ccc; stroke-width:0px;" /><circle id="SPH05540" cx="1199.96" cy="874.1" r="9.2" style="fill:#ccc; stroke-width:0px;" /><circle id="SPH05541" cx="1205.6" cy="897.44" r="9.2" style="fill:#ccc; stroke-width:0px;" /><circle id="SPH05542" cx="1211.24" cy="920.76" r="9.2" style="fill:#ccc; stroke-width:0px;" /><circle id="SPH05543" cx="442.96" cy="462.91" r="9.2" style="fill:#ccc; stroke-width:0px;" /><circle id="SPH05544" cx="451.31" cy="484.58" r="9.2" style="fill:#ccc; stroke-width:0px;" /><circle id="SPH05545" cx="459.64" cy="506.24" r="9.2" style="fill:#ccc; stroke-width:0px;" /><circle id="SPH05546" cx="467.98" cy="527.91" r="9.2" style="fill:#ccc; stroke-width:0px;" /><circle id="SPH05547" cx="476.32" cy="549.57" r="9.2" style="fill:#ccc; stroke-width:0px;" /><circle id="SPH05548" cx="484.66" cy="571.24" r="9.2" style="fill:#ccc; stroke-width:0px;" /><circle id="SPH05549" cx="493" cy="592.9" r="9.2" style="fill:#ccc; stroke-width:0px;" /><circle id="SPH05550" cx="500.88" cy="614.73" r="9.2" style="fill:#ccc; stroke-width:0px;" /><circle id="SPH05551" cx="508.28" cy="636.74" r="9.2" transform="translate(-201.66 1036.46) rotate(-80.78)" style="fill:#ccc; stroke-width:0px;" /><circle id="SPH05552" cx="515.66" cy="658.75" r="9.2" style="fill:#ccc; stroke-width:0px;" /><circle id="SPH05553" cx="523.05" cy="680.76" r="9.2" style="fill:#ccc; stroke-width:0px;" /><circle id="SPH05554" cx="530.44" cy="702.77" r="9.2" style="fill:#ccc; stroke-width:0px;" /><circle id="SPH05555" cx="537.84" cy="724.79" r="9.2" style="fill:#ccc; stroke-width:0px;" /><circle id="SPH05556" cx="545.24" cy="746.82" r="9.2" style="fill:#ccc; stroke-width:0px;" /><circle id="SPH05557" cx="552.63" cy="768.84" r="9.2" style="fill:#ccc; stroke-width:0px;" /><circle id="SPH05558" cx="560.02" cy="790.87" r="9.2" style="fill:#ccc; stroke-width:0px;" /><circle id="SPH05559" cx="566.44" cy="813.17" r="9.2" style="fill:#ccc; stroke-width:0px;" /><circle id="SPH05560" cx="572.87" cy="835.47" r="9.2" style="fill:#ccc; stroke-width:0px;" /><circle id="SPH05561" cx="579.29" cy="857.78" r="9.2" style="fill:#ccc; stroke-width:0px;" /><circle id="SPH05562" cx="585.72" cy="880.09" r="9.2" style="fill:#ccc; stroke-width:0px;" /><circle id="SPH05563" cx="592.15" cy="902.4" r="9.2" style="fill:#ccc; stroke-width:0px;" /><circle id="SPH05564" cx="598.57" cy="924.72" r="9.2" style="fill:#ccc; stroke-width:0px;" /><circle id="SPH05565" cx="605" cy="947.03" r="9.2" style="fill:#ccc; stroke-width:0px;" /><circle id="SPH05566" cx="611.42" cy="969.34" r="9.2" style="fill:#ccc; stroke-width:0px;" /><circle id="SPH05567" cx="617.32" cy="991.8" r="9.2" style="fill:#ccc; stroke-width:0px;" /><circle id="SPH05568" cx="622.77" cy="1014.37" r="9.2" style="fill:#ccc; stroke-width:0px;" /><circle id="SPH05569" cx="628.24" cy="1036.98" r="9.2" style="fill:#ccc; stroke-width:0px;" /><circle id="SPH05570" cx="633.69" cy="1059.58" r="9.2" style="fill:#ccc; stroke-width:0px;" /><circle id="SPH05571" cx="479.56" cy="447.76" r="9.2" style="fill:#ccc; stroke-width:0px;" /><circle id="SPH05572" cx="487.99" cy="469.64" r="9.2" style="fill:#ccc; stroke-width:0px;" /><circle id="SPH05573" cx="496.4" cy="491.52" r="9.2" style="fill:#ccc; stroke-width:0px;" /><circle id="SPH05574" cx="504.83" cy="513.4" r="9.2" transform="translate(-82.81 929.47) rotate(-80.78)" style="fill:#ccc; stroke-width:0px;" /><circle id="SPH05575" cx="513.25" cy="535.28" r="9.2" style="fill:#ccc; stroke-width:0px;" /><circle id="SPH05576" cx="521.68" cy="557.16" r="9.2" style="fill:#ccc; stroke-width:0px;" /><circle id="SPH05577" cx="530.1" cy="579.04" r="9.2" style="fill:#ccc; stroke-width:0px;" /><circle id="SPH05578" cx="538.08" cy="601.08" r="9.2" style="fill:#ccc; stroke-width:0px;" /><circle id="SPH05579" cx="545.54" cy="623.31" r="9.2" style="fill:#ccc; stroke-width:0px;" /><circle id="SPH05580" cx="553" cy="645.53" r="9.2" style="fill:#ccc; stroke-width:0px;" /><circle id="SPH05581" cx="560.46" cy="667.76" r="9.2" style="fill:#ccc; stroke-width:0px;" /><circle id="SPH05582" cx="567.92" cy="690" r="9.2" style="fill:#ccc; stroke-width:0px;" /><circle id="SPH05583" cx="575.4" cy="712.24" r="9.2" style="fill:#ccc; stroke-width:0px;" /><circle id="SPH05584" cx="582.86" cy="734.48" r="9.2" style="fill:#ccc; stroke-width:0px;" /><circle id="SPH05585" cx="590.33" cy="756.73" r="9.2" style="fill:#ccc; stroke-width:0px;" /><circle id="SPH05586" cx="597.8" cy="778.98" r="9.2" style="fill:#ccc; stroke-width:0px;" /><circle id="SPH05587" cx="604.3" cy="801.51" r="9.2" style="fill:#ccc; stroke-width:0px;" /><circle id="SPH05588" cx="610.79" cy="824.05" r="9.2" style="fill:#ccc; stroke-width:0px;" /><circle id="SPH05589" cx="617.28" cy="846.58" r="9.2" style="fill:#ccc; stroke-width:0px;" /><circle id="SPH05590" cx="623.77" cy="869.12" r="9.2" style="fill:#ccc; stroke-width:0px;" /><circle id="SPH05591" cx="630.26" cy="891.67" r="9.2" style="fill:#ccc; stroke-width:0px;" /><circle id="SPH05592" cx="636.76" cy="914.22" r="9.2" style="fill:#ccc; stroke-width:0px;" /><circle id="SPH05593" cx="643.24" cy="936.76" r="9.2" style="fill:#ccc; stroke-width:0px;" /><circle id="SPH05594" cx="649.74" cy="959.3" r="9.2" style="fill:#ccc; stroke-width:0px;" /><circle id="SPH05595" cx="655.69" cy="982" r="9.2" style="fill:#ccc; stroke-width:0px;" /><circle id="SPH05596" cx="661.2" cy="1004.81" r="9.2" style="fill:#ccc; stroke-width:0px;" /><circle id="SPH05597" cx="666.72" cy="1027.64" r="9.2" style="fill:#ccc; stroke-width:0px;" /><circle id="SPH05598" cx="672.24" cy="1050.48" r="9.2" style="fill:#ccc; stroke-width:0px;" /><circle id="SPH05599" cx="516.16" cy="432.6" r="9.2" style="fill:#ccc; stroke-width:0px;" /><circle id="SPH05600" cx="524.67" cy="454.69" r="9.2" style="fill:#ccc; stroke-width:0px;" /><circle id="SPH05601" cx="533.17" cy="476.79" r="9.2" style="fill:#ccc; stroke-width:0px;" /><circle id="SPH05602" cx="541.68" cy="498.88" r="9.2" style="fill:#ccc; stroke-width:0px;" /><circle id="SPH05603" cx="550.18" cy="520.99" r="9.2" style="fill:#ccc; stroke-width:0px;" /><circle id="SPH05604" cx="558.68" cy="543.08" r="9.2" style="fill:#ccc; stroke-width:0px;" /><circle id="SPH05605" cx="567.19" cy="565.17" r="9.2" style="fill:#ccc; stroke-width:0px;" /><circle id="SPH05606" cx="575.26" cy="587.42" r="9.2" style="fill:#ccc; stroke-width:0px;" /><circle id="SPH05607" cx="582.8" cy="609.86" r="9.2" style="fill:#ccc; stroke-width:0px;" /><circle id="SPH05608" cx="590.33" cy="632.32" r="9.2" style="fill:#ccc; stroke-width:0px;" /><circle id="SPH05609" cx="597.87" cy="654.76" r="9.2" style="fill:#ccc; stroke-width:0px;" /><circle id="SPH05610" cx="605.4" cy="677.21" r="9.2" style="fill:#ccc; stroke-width:0px;" /><circle id="SPH05611" cx="612.95" cy="699.67" r="9.2" style="fill:#ccc; stroke-width:0px;" /><circle id="SPH05612" cx="620.48" cy="722.12" r="9.2" style="fill:#ccc; stroke-width:0px;" /><circle id="SPH05613" cx="628.03" cy="744.58" r="9.2" style="fill:#ccc; stroke-width:0px;" /><circle id="SPH05614" cx="635.56" cy="767.04" r="9.2" style="fill:#ccc; stroke-width:0px;" /><circle id="SPH05615" cx="642.13" cy="789.8" r="9.2" style="fill:#ccc; stroke-width:0px;" /><circle id="SPH05616" cx="648.68" cy="812.55" r="9.2" style="fill:#ccc; stroke-width:0px;" /><circle id="SPH05617" cx="655.24" cy="835.3" r="9.2" style="fill:#ccc; stroke-width:0px;" /><circle id="SPH05618" cx="661.79" cy="858.05" r="9.2" style="fill:#ccc; stroke-width:0px;" /><circle id="SPH05619" cx="668.34" cy="880.79" r="9.2" style="fill:#ccc; stroke-width:0px;" /><circle id="SPH05620" cx="674.89" cy="903.53" r="9.2" style="fill:#ccc; stroke-width:0px;" /><circle id="SPH05621" cx="681.44" cy="926.27" r="9.2" style="fill:#ccc; stroke-width:0px;" /><circle id="SPH05622" cx="687.99" cy="949.01" r="9.2" style="fill:#ccc; stroke-width:0px;" /><circle id="SPH05623" cx="693.99" cy="971.91" r="9.2" style="fill:#ccc; stroke-width:0px;" /><circle id="SPH05624" cx="699.56" cy="994.94" r="9.2" style="fill:#ccc; stroke-width:0px;" /><circle id="SPH05625" cx="705.13" cy="1018.01" r="9.2" style="fill:#ccc; stroke-width:0px;" /><circle id="SPH05626" cx="710.71" cy="1041.09" r="9.2" style="fill:#ccc; stroke-width:0px;" /><circle id="SPH05627" cx="552.76" cy="417.44" r="9.2" style="fill:#ccc; stroke-width:0px;" /><circle id="SPH05628" cx="561.04" cy="438.96" r="9.2" style="fill:#ccc; stroke-width:0px;" /><circle id="SPH05629" cx="569.32" cy="460.47" r="9.2" style="fill:#ccc; stroke-width:0px;" /><circle id="SPH05630" cx="577.6" cy="481.98" r="9.2" style="fill:#ccc; stroke-width:0px;" /><circle id="SPH05631" cx="585.88" cy="503.5" r="9.2" style="fill:#ccc; stroke-width:0px;" /><circle id="SPH05632" cx="594.16" cy="525.01" r="9.2" style="fill:#ccc; stroke-width:0px;" /><circle id="SPH05633" cx="602.44" cy="546.52" r="9.2" style="fill:#ccc; stroke-width:0px;" /><circle id="SPH05634" cx="610.55" cy="568.1" r="9.2" style="fill:#ccc; stroke-width:0px;" /><circle id="SPH05635" cx="617.88" cy="589.96" r="9.2" style="fill:#ccc; stroke-width:0px;" /><circle id="SPH05636" cx="625.22" cy="611.8" r="9.2" style="fill:#ccc; stroke-width:0px;" /><circle id="SPH05637" cx="632.56" cy="633.66" r="9.2" style="fill:#ccc; stroke-width:0px;" /><circle id="SPH05638" cx="639.89" cy="655.52" r="9.2" style="fill:#ccc; stroke-width:0px;" /><circle id="SPH05639" cx="647.24" cy="677.37" r="9.2" style="fill:#ccc; stroke-width:0px;" /><circle id="SPH05640" cx="654.57" cy="699.22" r="9.2" style="fill:#ccc; stroke-width:0px;" /><circle id="SPH05641" cx="661.91" cy="721.08" r="9.2" style="fill:#ccc; stroke-width:0px;" /><circle id="SPH05642" cx="669.24" cy="742.93" r="9.2" style="fill:#ccc; stroke-width:0px;" /><circle id="SPH05643" cx="676.18" cy="764.92" r="9.2" style="fill:#ccc; stroke-width:0px;" /><circle id="SPH05644" cx="682.56" cy="787.08" r="9.2" style="fill:#ccc; stroke-width:0px;" /><circle id="SPH05645" cx="688.94" cy="809.24" r="9.2" style="fill:#ccc; stroke-width:0px;" /><circle id="SPH05646" cx="695.32" cy="831.4" r="9.2" style="fill:#ccc; stroke-width:0px;" /><circle id="SPH05647" cx="701.7" cy="853.56" r="9.2" style="fill:#ccc; stroke-width:0px;" /><circle id="SPH05648" cx="708.08" cy="875.69" r="9.2" style="fill:#ccc; stroke-width:0px;" /><circle id="SPH05649" cx="714.46" cy="897.84" r="9.2" style="fill:#ccc; stroke-width:0px;" /><circle id="SPH05650" cx="720.84" cy="919.97" r="9.2" style="fill:#ccc; stroke-width:0px;" /><circle id="SPH05651" cx="727.21" cy="942.12" r="9.2" style="fill:#ccc; stroke-width:0px;" /><circle id="SPH05652" cx="732.93" cy="964.45" r="9.2" style="fill:#ccc; stroke-width:0px;" /><circle id="SPH05653" cx="738.35" cy="986.89" r="9.2" style="fill:#ccc; stroke-width:0px;" /><circle id="SPH05654" cx="743.77" cy="1009.34" r="9.2" style="fill:#ccc; stroke-width:0px;" /><circle id="SPH05655" cx="749.2" cy="1031.8" r="9.2" style="fill:#ccc; stroke-width:0px;" /><circle id="SPH05656" cx="589.36" cy="402.28" r="9.2" style="fill:#ccc; stroke-width:0px;" /><circle id="SPH05657" cx="597.72" cy="424" r="9.2" style="fill:#ccc; stroke-width:0px;" /><circle id="SPH05658" cx="606.08" cy="445.72" r="9.2" style="fill:#ccc; stroke-width:0px;" /><circle id="SPH05659" cx="614.44" cy="467.44" r="9.2" style="fill:#ccc; stroke-width:0px;" /><circle id="SPH05660" cx="622.8" cy="489.16" r="9.2" style="fill:#ccc; stroke-width:0px;" /><circle id="SPH05661" cx="631.16" cy="510.88" r="9.2" style="fill:#ccc; stroke-width:0px;" /><circle id="SPH05662" cx="639.52" cy="532.6" r="9.2" style="fill:#ccc; stroke-width:0px;" /><circle id="SPH05663" cx="647.72" cy="554.38" r="9.2" style="fill:#ccc; stroke-width:0px;" /><circle id="SPH05664" cx="655.12" cy="576.44" r="9.2" style="fill:#ccc; stroke-width:0px;" /><circle id="SPH05665" cx="662.52" cy="598.51" r="9.2" style="fill:#ccc; stroke-width:0px;" /><circle id="SPH05666" cx="669.94" cy="620.58" r="9.2" style="fill:#ccc; stroke-width:0px;" /><circle id="SPH05667" cx="677.34" cy="642.64" r="9.2" style="fill:#ccc; stroke-width:0px;" /><circle id="SPH05668" cx="684.75" cy="664.7" r="9.2" style="fill:#ccc; stroke-width:0px;" /><circle id="SPH05669" cx="692.16" cy="686.76" r="9.2" style="fill:#ccc; stroke-width:0px;" /><circle id="SPH05670" cx="699.56" cy="708.81" r="9.2" style="fill:#ccc; stroke-width:0px;" /><circle id="SPH05671" cx="706.96" cy="730.86" r="9.2" style="fill:#ccc; stroke-width:0px;" /><circle id="SPH05672" cx="713.97" cy="753.06" r="9.2" style="fill:#ccc; stroke-width:0px;" /><circle id="SPH05673" cx="720.41" cy="775.44" r="9.2" style="fill:#ccc; stroke-width:0px;" /><circle id="SPH05674" cx="726.86" cy="797.82" r="9.2" style="fill:#ccc; stroke-width:0px;" /><circle id="SPH05675" cx="733.31" cy="820.2" r="9.2" style="fill:#ccc; stroke-width:0px;" /><circle id="SPH05676" cx="739.75" cy="842.57" r="9.2" style="fill:#ccc; stroke-width:0px;" /><circle id="SPH05677" cx="746.19" cy="864.93" r="9.2" style="fill:#ccc; stroke-width:0px;" /><circle id="SPH05678" cx="752.63" cy="887.29" r="9.2" style="fill:#ccc; stroke-width:0px;" /><circle id="SPH05679" cx="759.07" cy="909.64" r="9.2" style="fill:#ccc; stroke-width:0px;" /><circle id="SPH05680" cx="765.51" cy="932.01" r="9.2" style="fill:#ccc; stroke-width:0px;" /><circle id="SPH05681" cx="771.28" cy="954.56" r="9.2" style="fill:#ccc; stroke-width:0px;" /><circle id="SPH05682" cx="776.75" cy="977.2" r="9.2" style="fill:#ccc; stroke-width:0px;" /><circle id="SPH05683" cx="782.22" cy="999.85" r="9.2" style="fill:#ccc; stroke-width:0px;" /><circle id="SPH05684" cx="787.7" cy="1022.54" r="9.2" style="fill:#ccc; stroke-width:0px;" /><circle id="SPH05685" cx="625.95" cy="387.12" r="9.2" style="fill:#ccc; stroke-width:0px;" /><circle id="SPH05686" cx="634.39" cy="409.04" r="9.2" style="fill:#ccc; stroke-width:0px;" /><circle id="SPH05687" cx="642.83" cy="430.97" r="9.2" style="fill:#ccc; stroke-width:0px;" /><circle id="SPH05688" cx="651.28" cy="452.9" r="9.2" style="fill:#ccc; stroke-width:0px;" /><circle id="SPH05689" cx="659.72" cy="474.84" r="9.2" style="fill:#ccc; stroke-width:0px;" /><circle id="SPH05690" cx="668.16" cy="496.76" r="9.2" style="fill:#ccc; stroke-width:0px;" /><circle id="SPH05691" cx="676.6" cy="518.69" r="9.2" style="fill:#ccc; stroke-width:0px;" /><circle id="SPH05692" cx="684.88" cy="540.67" r="9.2" style="fill:#ccc; stroke-width:0px;" /><circle id="SPH05693" cx="692.36" cy="562.94" r="9.2" style="fill:#ccc; stroke-width:0px;" /><circle id="SPH05694" cx="699.84" cy="585.22" r="9.2" style="fill:#ccc; stroke-width:0px;" /><circle id="SPH05695" cx="707.32" cy="607.49" r="9.2" style="fill:#ccc; stroke-width:0px;" /><circle id="SPH05696" cx="714.8" cy="629.76" r="9.2" style="fill:#ccc; stroke-width:0px;" /><circle id="SPH05697" cx="722.27" cy="652.03" r="9.2" style="fill:#ccc; stroke-width:0px;" /><circle id="SPH05698" cx="729.74" cy="674.28" r="9.2" style="fill:#ccc; stroke-width:0px;" /><circle id="SPH05699" cx="737.21" cy="696.53" r="9.2" style="fill:#ccc; stroke-width:0px;" /><circle id="SPH05700" cx="744.68" cy="718.79" r="9.2" style="fill:#ccc; stroke-width:0px;" /><circle id="SPH05701" cx="751.76" cy="741.18" r="9.2" style="fill:#ccc; stroke-width:0px;" /><circle id="SPH05702" cx="758.26" cy="763.76" r="9.2" style="fill:#ccc; stroke-width:0px;" /><circle id="SPH05703" cx="764.76" cy="786.35" r="9.2" style="fill:#ccc; stroke-width:0px;" /><circle id="SPH05704" cx="771.27" cy="808.93" r="9.2" style="fill:#ccc; stroke-width:0px;" /><circle id="SPH05705" cx="777.77" cy="831.52" r="9.2" style="fill:#ccc; stroke-width:0px;" /><circle id="SPH05706" cx="784.28" cy="854.09" r="9.2" style="fill:#ccc; stroke-width:0px;" /><circle id="SPH05707" cx="790.78" cy="876.68" r="9.2" style="fill:#ccc; stroke-width:0px;" /><circle id="SPH05708" cx="797.28" cy="899.25" r="9.2" style="fill:#ccc; stroke-width:0px;" /><circle id="SPH05709" cx="803.79" cy="921.83" r="9.2" style="fill:#ccc; stroke-width:0px;" /><circle id="SPH05710" cx="809.61" cy="944.61" r="9.2" style="fill:#ccc; stroke-width:0px;" /><circle id="SPH05711" cx="815.14" cy="967.48" r="9.2" style="fill:#ccc; stroke-width:0px;" /><circle id="SPH05712" cx="820.67" cy="990.36" r="9.2" style="fill:#ccc; stroke-width:0px;" /><circle id="SPH05713" cx="826.19" cy="1013.23" r="9.2" style="fill:#ccc; stroke-width:0px;" /><circle id="SPH05714" cx="1167.46" cy="610.62" r="9.2" style="fill:#ccc; stroke-width:0px;" /><circle id="SPH05715" cx="1174.11" cy="633.68" r="9.2" style="fill:#ccc; stroke-width:0px;" /><circle id="SPH05716" cx="1180.75" cy="656.75" r="9.2" style="fill:#ccc; stroke-width:0px;" /><circle id="SPH05717" cx="1187.39" cy="679.81" r="9.2" style="fill:#ccc; stroke-width:0px;" /><circle id="SPH05718" cx="1194.03" cy="702.88" r="9.2" style="fill:#ccc; stroke-width:0px;" /><circle id="SPH05719" cx="1200.67" cy="725.94" r="9.2" style="fill:#ccc; stroke-width:0px;" /><circle id="SPH05720" cx="1207.32" cy="749" r="9.2" style="fill:#ccc; stroke-width:0px;" /><circle id="SPH05721" cx="1213.96" cy="772.07" r="9.2" style="fill:#ccc; stroke-width:0px;" /><circle id="SPH05722" cx="1220.6" cy="795.15" r="9.2" style="fill:#ccc; stroke-width:0px;" /><circle id="SPH05723" cx="1227.21" cy="818.23" r="9.2" style="fill:#ccc; stroke-width:0px;" /><circle id="SPH05724" cx="1232.85" cy="841.57" r="9.2" style="fill:#ccc; stroke-width:0px;" /><circle id="SPH05725" cx="1238.49" cy="864.92" r="9.2" style="fill:#ccc; stroke-width:0px;" /><circle id="SPH05726" cx="1244.13" cy="888.26" r="9.2" style="fill:#ccc; stroke-width:0px;" /><circle id="SPH05727" cx="1249.77" cy="911.61" r="9.2" style="fill:#ccc; stroke-width:0px;" /><circle id="SPH05728" cx="662.55" cy="371.96" r="9.2" style="fill:#ccc; stroke-width:0px;" /><circle id="SPH05729" cx="671.07" cy="394.09" r="9.2" style="fill:#ccc; stroke-width:0px;" /><circle id="SPH05730" cx="679.59" cy="416.24" r="9.2" style="fill:#ccc; stroke-width:0px;" /><circle id="SPH05731" cx="688.11" cy="438.37" r="9.2" style="fill:#ccc; stroke-width:0px;" /><circle id="SPH05732" cx="696.63" cy="460.51" r="9.2" style="fill:#ccc; stroke-width:0px;" /><circle id="SPH05733" cx="705.15" cy="482.64" r="9.2" style="fill:#ccc; stroke-width:0px;" /><circle id="SPH05734" cx="713.68" cy="504.78" r="9.2" style="fill:#ccc; stroke-width:0px;" /><circle id="SPH05735" cx="722.05" cy="526.97" r="9.2" style="fill:#ccc; stroke-width:0px;" /><circle id="SPH05736" cx="729.6" cy="549.45" r="9.2" style="fill:#ccc; stroke-width:0px;" /><circle id="SPH05737" cx="737.15" cy="571.94" r="9.2" style="fill:#ccc; stroke-width:0px;" /><circle id="SPH05738" cx="744.7" cy="594.42" r="9.2" style="fill:#ccc; stroke-width:0px;" /><circle id="SPH05739" cx="752.25" cy="616.92" r="9.2" style="fill:#ccc; stroke-width:0px;" /><circle id="SPH05740" cx="759.8" cy="639.39" r="9.2" style="fill:#ccc; stroke-width:0px;" /><circle id="SPH05741" cx="767.34" cy="661.84" r="9.2" style="fill:#ccc; stroke-width:0px;" /><circle id="SPH05742" cx="774.88" cy="684.31" r="9.2" style="fill:#ccc; stroke-width:0px;" /><circle id="SPH05743" cx="782.41" cy="706.76" r="9.2" style="fill:#ccc; stroke-width:0px;" /><circle id="SPH05744" cx="789.56" cy="729.35" r="9.2" style="fill:#ccc; stroke-width:0px;" /><circle id="SPH05745" cx="796.12" cy="752.14" r="9.2" style="fill:#ccc; stroke-width:0px;" /><circle id="SPH05746" cx="802.68" cy="774.92" r="9.2" style="fill:#ccc; stroke-width:0px;" /><circle id="SPH05747" cx="809.25" cy="797.71" r="9.2" style="fill:#ccc; stroke-width:0px;" /><circle id="SPH05748" cx="815.81" cy="820.5" r="9.2" style="fill:#ccc; stroke-width:0px;" /><circle id="SPH05749" cx="822.37" cy="843.28" r="9.2" style="fill:#ccc; stroke-width:0px;" /><circle id="SPH05750" cx="828.94" cy="866.08" r="9.2" style="fill:#ccc; stroke-width:0px;" /><circle id="SPH05751" cx="835.51" cy="888.88" r="9.2" style="fill:#ccc; stroke-width:0px;" /><circle id="SPH05752" cx="842.07" cy="911.67" r="9.2" style="fill:#ccc; stroke-width:0px;" /><circle id="SPH05753" cx="847.93" cy="934.6" r="9.2" style="fill:#ccc; stroke-width:0px;" /><circle id="SPH05754" cx="853.49" cy="957.59" r="9.2" style="fill:#ccc; stroke-width:0px;" /><circle id="SPH05755" cx="859.04" cy="980.58" r="9.2" style="fill:#ccc; stroke-width:0px;" /><circle id="SPH05756" cx="864.6" cy="1003.56" r="9.2" style="fill:#ccc; stroke-width:0px;" /><circle id="SPH05757" cx="1245.86" cy="739.74" r="9.2" style="fill:#ccc; stroke-width:0px;" /><circle id="SPH05758" cx="1252.5" cy="762.81" r="9.2" style="fill:#ccc; stroke-width:0px;" /><circle id="SPH05759" cx="1259.15" cy="785.88" r="9.2" style="fill:#ccc; stroke-width:0px;" /><circle id="SPH05760" cx="1265.72" cy="808.98" r="9.2" style="fill:#ccc; stroke-width:0px;" /><circle id="SPH05761" cx="1271.35" cy="832.31" r="9.2" style="fill:#ccc; stroke-width:0px;" /><circle id="SPH05762" cx="1276.99" cy="855.64" r="9.2" style="fill:#ccc; stroke-width:0px;" /><circle id="SPH05763" cx="1282.62" cy="878.97" r="9.2" style="fill:#ccc; stroke-width:0px;" /><circle id="SPH05764" cx="1288.26" cy="902.3" r="9.2" style="fill:#ccc; stroke-width:0px;" /></g></svg>