<svg id="Layer_1" viewBox="0 0 1697.6 1405.17" xmlns="http://www.w3.org/2000/svg"><g id="back"><g id="back-2"><path id="sphere" d="M3288.02-1544.94c0-1528.34-1241.46-2769.81-2769.81-2769.81s-2769.81,1241.47-2769.81,2769.81S-1010.14,1224.87,518.21,1224.87h0c1528.34,0,2769.81-1241.46,2769.81-2769.81Z" style="fill:#f2f2f2; stroke:#ddd; stroke-miterlimit:10; stroke-width:3px;" /></g><g id="sectors"><path id="_203" d="M502.64,380.73C357.21,291.61,102.03,135.22-43.4,46.1,40.73-88.33,113.94-229.03,175.64-374.64h0c158.5,65.66,433.17,179.39,591.67,245.05,0,0-165.46,353.52-264.67,510.32h0Z" style="fill:#fff; stroke:#ddd; stroke-miterlimit:10; stroke-width:9px;" /><path id="_202" d="M-43.53,46.03s.07.05.12.07C92.16,129.18,456.2,352.27,502.64,380.73c-101.98,163.57-216.7,318.6-342.97,463.68-31.8-27.15-477.68-407.98-668.82-571.22,15.19-17.34,30.15-34.88,44.9-52.59,47.95-57.62,93.55-117.18,136.68-178.54h0c94.68,1.32,189.36,2.65,284.04,3.98h0Z" style="fill:#fff; stroke:#ddd; stroke-miterlimit:10; stroke-width:9px;" /><path id="_403" d="M1398.56,728.4c58.27,35.71,116.55,71.43,174.84,107.15,267.98-119.46,512.21-282.18,723.64-479.17-3.46-1.43-553.26-229.18-587.75-243.46-72.42,176.85-156.05,348.07-250.14,512.72h0c-19.74,34.55-39.95,68.8-60.6,102.76h.01Z" style="fill:#fff; stroke:#ddd; stroke-miterlimit:10; stroke-width:9px;" /><path id="_302" d="M853.29,1040.46c-150.97-109.68-301.93-219.36-452.89-329.05,107.7-130.76,206.03-269.24,294.17-414.41,234.61,143.77,644.21,394.78,878.83,538.55-105.47,57.12-177.69,72.59-323.11,120.12h0c-128.51,38.04-261.12,66.58-397,84.79Z" style="fill:#fff; stroke:#ddd; stroke-miterlimit:10; stroke-width:9px;" /><path id="_303" d="M1398.42,728.32c-234.62-143.77-469.24-287.55-703.85-431.32,96.59-159.1,180.92-326.23,251.9-500.05C1200.69-97.75,1454.92,7.56,1709.15,112.86c-72.41,176.85-156.04,348.06-250.14,512.71h0c-19.74,34.55-39.94,68.8-60.59,102.75h0Z" style="fill:#fff; stroke:#ddd; stroke-miterlimit:10; stroke-width:9px;" /><path id="_304" d="M1311.72-689.87c-12.93,55.22-27.11,110.15-42.54,164.75-75.95,20.35-151.89,40.7-227.85,61.05-13.04,40.79-26.83,81.4-41.39,121.81-16.88,46.86-34.71,93.27-53.48,139.21C1200.68-97.75,1454.91,7.56,1709.14,112.86c23.71-57.9,46.22-116.4,67.49-175.48,56.99-158.26,104.57-318.99,142.74-481.38h0c-202.56-48.63-405.12-97.26-607.66-145.88h0Z" style="fill:#fff; stroke:#ddd; stroke-miterlimit:10; stroke-width:9px;" /></g></g><g id="Seats"><circle id="SPH00001" cx="1043.34" cy="559.35" r="9.2" style="fill:#ccc; stroke-width:0px;" /><circle id="SPH00002" cx="1030.89" cy="579.86" r="9.2" transform="translate(293.39 1504.56) rotate(-80.78)" style="fill:#ccc; stroke-width:0px;" /><circle id="SPH00003" cx="1017.66" cy="599.87" r="9.2" style="fill:#ccc; stroke-width:0px;" /><circle id="SPH00004" cx="1004.45" cy="619.89" r="9.2" style="fill:#ccc; stroke-width:0px;" /><circle id="SPH00005" cx="991.22" cy="639.9" r="9.2" style="fill:#ccc; stroke-width:0px;" /><circle id="SPH00006" cx="978" cy="659.91" r="9.2" style="fill:#ccc; stroke-width:0px;" /><circle id="SPH00007" cx="964.78" cy="679.93" r="9.2" style="fill:#ccc; stroke-width:0px;" /><circle id="SPH00008" cx="951.56" cy="699.94" r="9.2" style="fill:#ccc; stroke-width:0px;" /><circle id="SPH00009" cx="938.34" cy="719.95" r="9.2" style="fill:#ccc; stroke-width:0px;" /><circle id="SPH00010" cx="924.3" cy="739.39" r="9.2" style="fill:#ccc; stroke-width:0px;" /><circle id="SPH00011" cx="910.23" cy="758.81" r="9.2" style="fill:#ccc; stroke-width:0px;" /><circle id="SPH00012" cx="896.16" cy="778.23" r="9.2" style="fill:#ccc; stroke-width:0px;" /><circle id="SPH00013" cx="882.09" cy="797.67" r="9.2" style="fill:#ccc; stroke-width:0px;" /><circle id="SPH00014" cx="868.01" cy="817.11" r="9.2" style="fill:#ccc; stroke-width:0px;" /><circle id="SPH00015" cx="853.94" cy="836.52" r="9.2" style="fill:#ccc; stroke-width:0px;" /><circle id="SPH00016" cx="839.88" cy="855.94" r="9.2" style="fill:#ccc; stroke-width:0px;" /><circle id="SPH00017" cx="825.13" cy="874.85" r="9.2" style="fill:#ccc; stroke-width:0px;" /><circle id="SPH00018" cx="810.24" cy="893.64" r="9.2" style="fill:#ccc; stroke-width:0px;" /><circle id="SPH00019" cx="795.36" cy="912.44" r="9.2" style="fill:#ccc; stroke-width:0px;" /><circle id="SPH00020" cx="780.46" cy="931.24" r="9.2" style="fill:#ccc; stroke-width:0px;" /><circle id="SPH00021" cx="1077.1" cy="580.04" r="9.2" style="fill:#ccc; stroke-width:0px;" /><circle id="SPH00022" cx="1063.85" cy="601.81" r="9.2" style="fill:#ccc; stroke-width:0px;" /><circle id="SPH00023" cx="1049.8" cy="623.08" r="9.2" style="fill:#ccc; stroke-width:0px;" /><circle id="SPH00024" cx="1035.74" cy="644.35" r="9.2" style="fill:#ccc; stroke-width:0px;" /><circle id="SPH00025" cx="1021.69" cy="665.63" r="9.2" style="fill:#ccc; stroke-width:0px;" /><circle id="SPH00026" cx="1007.64" cy="686.89" r="9.2" style="fill:#ccc; stroke-width:0px;" /><circle id="SPH00027" cx="993.59" cy="708.16" r="9.2" style="fill:#ccc; stroke-width:0px;" /><circle id="SPH00028" cx="979.54" cy="729.43" r="9.2" style="fill:#ccc; stroke-width:0px;" /><circle id="SPH00029" cx="965.18" cy="750.47" r="9.2" style="fill:#ccc; stroke-width:0px;" /><circle id="SPH00030" cx="950.22" cy="771.11" r="9.2" style="fill:#ccc; stroke-width:0px;" /><circle id="SPH00031" cx="935.26" cy="791.77" r="9.2" style="fill:#ccc; stroke-width:0px;" /><circle id="SPH00032" cx="920.3" cy="812.43" r="9.2" style="fill:#ccc; stroke-width:0px;" /><circle id="SPH00033" cx="905.34" cy="833.08" r="9.2" style="fill:#ccc; stroke-width:0px;" /><circle id="SPH00034" cx="890.38" cy="853.74" r="9.2" style="fill:#ccc; stroke-width:0px;" /><circle id="SPH00035" cx="875.41" cy="874.39" r="9.2" style="fill:#ccc; stroke-width:0px;" /><circle id="SPH00036" cx="859.95" cy="894.67" r="9.2" style="fill:#ccc; stroke-width:0px;" /><circle id="SPH00037" cx="844.12" cy="914.65" r="9.2" style="fill:#ccc; stroke-width:0px;" /><circle id="SPH00038" cx="828.3" cy="934.63" r="9.2" style="fill:#ccc; stroke-width:0px;" /><circle id="SPH00039" cx="812.47" cy="954.62" r="9.2" style="fill:#ccc; stroke-width:0px;" /><circle id="SPH00040" cx="1110.87" cy="600.74" r="9.2" style="fill:#ccc; stroke-width:0px;" /><circle id="SPH00041" cx="1098.44" cy="621.28" r="9.2" style="fill:#ccc; stroke-width:0px;" /><circle id="SPH00042" cx="1085.22" cy="641.31" r="9.2" style="fill:#ccc; stroke-width:0px;" /><circle id="SPH00043" cx="1071.98" cy="661.33" r="9.2" style="fill:#ccc; stroke-width:0px;" /><circle id="SPH00044" cx="1058.76" cy="681.35" r="9.2" style="fill:#ccc; stroke-width:0px;" /><circle id="SPH00045" cx="1045.53" cy="701.39" r="9.2" style="fill:#ccc; stroke-width:0px;" /><circle id="SPH00046" cx="1032.3" cy="721.42" r="9.2" transform="translate(154.84 1624.83) rotate(-80.78)" style="fill:#ccc; stroke-width:0px;" /><circle id="SPH00047" cx="1019.06" cy="741.45" r="9.2" style="fill:#ccc; stroke-width:0px;" /><circle id="SPH00048" cx="1005.82" cy="761.48" r="9.2" style="fill:#ccc; stroke-width:0px;" /><circle id="SPH00049" cx="991.93" cy="781.03" r="9.2" style="fill:#ccc; stroke-width:0px;" /><circle id="SPH00050" cx="977.85" cy="800.48" r="9.2" style="fill:#ccc; stroke-width:0px;" /><circle id="SPH00051" cx="963.77" cy="819.91" r="9.2" style="fill:#ccc; stroke-width:0px;" /><circle id="SPH00052" cx="949.69" cy="839.35" r="9.2" style="fill:#ccc; stroke-width:0px;" /><circle id="SPH00053" cx="935.6" cy="858.8" r="9.2" style="fill:#ccc; stroke-width:0px;" /><circle id="SPH00054" cx="921.52" cy="878.25" r="9.2" style="fill:#ccc; stroke-width:0px;" /><circle id="SPH00055" cx="907.43" cy="897.7" r="9.2" style="fill:#ccc; stroke-width:0px;" /><circle id="SPH00056" cx="892.93" cy="916.81" r="9.2" style="fill:#ccc; stroke-width:0px;" /><circle id="SPH00057" cx="878.02" cy="935.63" r="9.2" style="fill:#ccc; stroke-width:0px;" /><circle id="SPH00058" cx="1144.64" cy="621.43" r="9.2" style="fill:#ccc; stroke-width:0px;" /><circle id="SPH00059" cx="1132.24" cy="641.97" r="9.2" style="fill:#ccc; stroke-width:0px;" /><circle id="SPH00060" cx="1119.01" cy="662" r="9.2" style="fill:#ccc; stroke-width:0px;" /><circle id="SPH00061" cx="1105.78" cy="682.03" r="9.2" style="fill:#ccc; stroke-width:0px;" /><circle id="SPH00062" cx="1092.54" cy="702.06" r="9.2" style="fill:#ccc; stroke-width:0px;" /><circle id="SPH00063" cx="1079.32" cy="722.08" r="9.2" style="fill:#ccc; stroke-width:0px;" /><circle id="SPH00064" cx="1066.09" cy="742.11" r="9.2" style="fill:#ccc; stroke-width:0px;" /><circle id="SPH00065" cx="1052.86" cy="762.13" r="9.2" style="fill:#ccc; stroke-width:0px;" /><circle id="SPH00066" cx="1039.62" cy="782.16" r="9.2" style="fill:#ccc; stroke-width:0px;" /><circle id="SPH00067" cx="1025.8" cy="801.78" r="9.2" transform="translate(70.06 1685.9) rotate(-80.78)" style="fill:#ccc; stroke-width:0px;" /><circle id="SPH00068" cx="1011.73" cy="821.21" r="9.2" style="fill:#ccc; stroke-width:0px;" /><circle id="SPH00069" cx="997.65" cy="840.65" r="9.2" style="fill:#ccc; stroke-width:0px;" /><circle id="SPH00070" cx="983.58" cy="860.08" r="9.2" style="fill:#ccc; stroke-width:0px;" /><circle id="SPH00071" cx="969.5" cy="879.51" r="9.2" style="fill:#ccc; stroke-width:0px;" /><circle id="SPH00072" cx="955.42" cy="898.94" r="9.2" style="fill:#ccc; stroke-width:0px;" /><circle id="SPH00073" cx="941.35" cy="918.37" r="9.2" style="fill:#ccc; stroke-width:0px;" /><circle id="SPH00074" cx="1178.4" cy="642.11" r="9.2" style="fill:#ccc; stroke-width:0px;" /><circle id="SPH00075" cx="1166.02" cy="662.68" r="9.2" style="fill:#ccc; stroke-width:0px;" /><circle id="SPH00076" cx="1152.79" cy="682.71" r="9.2" style="fill:#ccc; stroke-width:0px;" /><circle id="SPH00077" cx="1139.56" cy="702.73" r="9.2" style="fill:#ccc; stroke-width:0px;" /><circle id="SPH00078" cx="1126.34" cy="722.75" r="9.2" style="fill:#ccc; stroke-width:0px;" /><circle id="SPH00079" cx="1113.1" cy="742.78" r="9.2" style="fill:#ccc; stroke-width:0px;" /><circle id="SPH00080" cx="1099.88" cy="762.79" r="9.2" style="fill:#ccc; stroke-width:0px;" /><circle id="SPH00081" cx="1086.66" cy="782.81" r="9.2" style="fill:#ccc; stroke-width:0px;" /><circle id="SPH00082" cx="1073.43" cy="802.83" r="9.2" style="fill:#ccc; stroke-width:0px;" /><circle id="SPH00083" cx="1059.69" cy="822.5" r="9.2" style="fill:#ccc; stroke-width:0px;" /><circle id="SPH00084" cx="1045.61" cy="841.94" r="9.2" style="fill:#ccc; stroke-width:0px;" /><circle id="SPH00085" cx="1031.53" cy="861.38" r="9.2" transform="translate(16.04 1741.61) rotate(-80.78)" style="fill:#ccc; stroke-width:0px;" /><circle id="SPH00086" cx="1017.45" cy="880.81" r="9.2" style="fill:#ccc; stroke-width:0px;" /><circle id="SPH00087" cx="1003.38" cy="900.24" r="9.2" style="fill:#ccc; stroke-width:0px;" /><circle id="SPH00088" cx="989.3" cy="919.68" r="9.2" style="fill:#ccc; stroke-width:0px;" /><circle id="SPH00089" cx="1212.17" cy="662.81" r="9.2" style="fill:#ccc; stroke-width:0px;" /><circle id="SPH00090" cx="1199.8" cy="683.38" r="9.2" style="fill:#ccc; stroke-width:0px;" /><circle id="SPH00091" cx="1186.57" cy="703.41" r="9.2" style="fill:#ccc; stroke-width:0px;" /><circle id="SPH00092" cx="1173.34" cy="723.43" r="9.2" style="fill:#ccc; stroke-width:0px;" /><circle id="SPH00093" cx="1160.11" cy="743.46" r="9.2" style="fill:#ccc; stroke-width:0px;" /><circle id="SPH00094" cx="1146.88" cy="763.48" r="9.2" style="fill:#ccc; stroke-width:0px;" /><circle id="SPH00095" cx="1133.66" cy="783.51" r="9.2" style="fill:#ccc; stroke-width:0px;" /><circle id="SPH00096" cx="1120.43" cy="803.53" r="9.2" style="fill:#ccc; stroke-width:0px;" /><circle id="SPH00097" cx="1107.2" cy="823.55" r="9.2" style="fill:#ccc; stroke-width:0px;" /><circle id="SPH00098" cx="1093.54" cy="843.28" r="9.2" style="fill:#ccc; stroke-width:0px;" /><circle id="SPH00099" cx="1079.46" cy="862.72" r="9.2" style="fill:#ccc; stroke-width:0px;" /><circle id="SPH00100" cx="1065.38" cy="882.15" r="9.2" style="fill:#ccc; stroke-width:0px;" /><circle id="SPH00101" cx="1051.3" cy="901.59" r="9.2" style="fill:#ccc; stroke-width:0px;" /><circle id="SPH00102" cx="1245.94" cy="683.5" r="9.2" style="fill:#ccc; stroke-width:0px;" /><circle id="SPH00103" cx="1233.58" cy="704.07" r="9.2" style="fill:#ccc; stroke-width:0px;" /><circle id="SPH00104" cx="1220.36" cy="724.11" r="9.2" style="fill:#ccc; stroke-width:0px;" /><circle id="SPH00105" cx="1207.13" cy="744.13" r="9.2" style="fill:#ccc; stroke-width:0px;" /><circle id="SPH00106" cx="1193.9" cy="764.15" r="9.2" style="fill:#ccc; stroke-width:0px;" /><circle id="SPH00107" cx="1180.68" cy="784.17" r="9.2" style="fill:#ccc; stroke-width:0px;" /><circle id="SPH00108" cx="1167.45" cy="804.2" r="9.2" style="fill:#ccc; stroke-width:0px;" /><circle id="SPH00109" cx="1154.22" cy="824.23" r="9.2" style="fill:#ccc; stroke-width:0px;" /><circle id="SPH00110" cx="1140.98" cy="844.26" r="9.2" style="fill:#ccc; stroke-width:0px;" /><circle id="SPH00111" cx="1127.4" cy="864.03" r="9.2" style="fill:#ccc; stroke-width:0px;" /><circle id="SPH00112" cx="1113.31" cy="883.47" r="9.2" style="fill:#ccc; stroke-width:0px;" /><circle id="SPH00113" cx="1279.7" cy="704.19" r="9.2" style="fill:#ccc; stroke-width:0px;" /><circle id="SPH00114" cx="1267.35" cy="724.75" r="9.2" style="fill:#ccc; stroke-width:0px;" /><circle id="SPH00115" cx="1254.15" cy="744.8" r="9.2" style="fill:#ccc; stroke-width:0px;" /><circle id="SPH00116" cx="1240.92" cy="764.82" r="9.2" style="fill:#ccc; stroke-width:0px;" /><circle id="SPH00117" cx="1227.7" cy="784.84" r="9.2" style="fill:#ccc; stroke-width:0px;" /><circle id="SPH00118" cx="1214.47" cy="804.87" r="9.2" style="fill:#ccc; stroke-width:0px;" /><circle id="SPH00119" cx="1201.24" cy="824.89" r="9.2" style="fill:#ccc; stroke-width:0px;" /><circle id="SPH00120" cx="1188.01" cy="844.91" r="9.2" style="fill:#ccc; stroke-width:0px;" /><circle id="SPH00121" cx="1174.78" cy="864.94" r="9.2" style="fill:#ccc; stroke-width:0px;" /><circle id="SPH00122" cx="1313.47" cy="724.87" r="9.2" style="fill:#ccc; stroke-width:0px;" /><circle id="SPH00123" cx="1301.11" cy="745.45" r="9.2" style="fill:#ccc; stroke-width:0px;" /><circle id="SPH00124" cx="1287.93" cy="765.51" r="9.2" style="fill:#ccc; stroke-width:0px;" /><circle id="SPH00125" cx="1274.7" cy="785.54" r="9.2" style="fill:#ccc; stroke-width:0px;" /><circle id="SPH00126" cx="1261.46" cy="805.56" r="9.2" style="fill:#ccc; stroke-width:0px;" /><circle id="SPH00127" cx="1248.24" cy="825.59" r="9.2" style="fill:#ccc; stroke-width:0px;" /><circle id="SPH00128" cx="1235.02" cy="845.6" r="9.2" style="fill:#ccc; stroke-width:0px;" /><circle id="SPH00129" cx="705.68" cy="352.43" r="9.2" style="fill:#ccc; stroke-width:0px;" /><circle id="SPH00130" cx="693.27" cy="372.5" r="9.2" style="fill:#ccc; stroke-width:0px;" /><circle id="SPH00131" cx="680.26" cy="392.19" r="9.2" style="fill:#ccc; stroke-width:0px;" /><circle id="SPH00132" cx="667.26" cy="411.87" r="9.2" style="fill:#ccc; stroke-width:0px;" /><circle id="SPH00133" cx="654.26" cy="431.55" r="9.2" style="fill:#ccc; stroke-width:0px;" /><circle id="SPH00134" cx="641.26" cy="451.23" r="9.2" style="fill:#ccc; stroke-width:0px;" /><circle id="SPH00135" cx="628.25" cy="470.91" r="9.2" style="fill:#ccc; stroke-width:0px;" /><circle id="SPH00136" cx="615.25" cy="490.6" r="9.2" style="fill:#ccc; stroke-width:0px;" /><circle id="SPH00137" cx="601.6" cy="509.84" r="9.2" style="fill:#ccc; stroke-width:0px;" /><circle id="SPH00138" cx="587.76" cy="528.95" r="9.2" style="fill:#ccc; stroke-width:0px;" /><circle id="SPH00139" cx="573.92" cy="548.06" r="9.2" style="fill:#ccc; stroke-width:0px;" /><circle id="SPH00140" cx="560.08" cy="567.17" r="9.2" style="fill:#ccc; stroke-width:0px;" /><circle id="SPH00141" cx="546.24" cy="586.27" r="9.2" style="fill:#ccc; stroke-width:0px;" /><circle id="SPH00142" cx="532.41" cy="605.38" r="9.2" style="fill:#ccc; stroke-width:0px;" /><circle id="SPH00143" cx="518.38" cy="624.34" r="9.2" style="fill:#ccc; stroke-width:0px;" /><circle id="SPH00144" cx="503.73" cy="642.84" r="9.2" transform="translate(-211.5 1037.09) rotate(-80.78)" style="fill:#ccc; stroke-width:0px;" /><circle id="SPH00145" cx="489.07" cy="661.35" r="9.2" style="fill:#ccc; stroke-width:0px;" /><circle id="SPH00146" cx="474.42" cy="679.85" r="9.2" style="fill:#ccc; stroke-width:0px;" /><circle id="SPH00147" cx="459.76" cy="698.35" r="9.2" style="fill:#ccc; stroke-width:0px;" /><circle id="SPH00148" cx="739.45" cy="373.12" r="9.2" style="fill:#ccc; stroke-width:0px;" /><circle id="SPH00149" cx="726.96" cy="393.35" r="9.2" style="fill:#ccc; stroke-width:0px;" /><circle id="SPH00150" cx="713.86" cy="413.18" r="9.2" style="fill:#ccc; stroke-width:0px;" /><circle id="SPH00151" cx="700.76" cy="433" r="9.2" style="fill:#ccc; stroke-width:0px;" /><circle id="SPH00152" cx="687.66" cy="452.83" r="9.2" style="fill:#ccc; stroke-width:0px;" /><circle id="SPH00153" cx="674.56" cy="472.66" r="9.2" style="fill:#ccc; stroke-width:0px;" /><circle id="SPH00154" cx="661.46" cy="492.49" r="9.2" style="fill:#ccc; stroke-width:0px;" /><circle id="SPH00155" cx="648.35" cy="512.32" r="9.2" style="fill:#ccc; stroke-width:0px;" /><circle id="SPH00156" cx="634.64" cy="531.73" r="9.2" style="fill:#ccc; stroke-width:0px;" /><circle id="SPH00157" cx="620.7" cy="550.99" r="9.2" style="fill:#ccc; stroke-width:0px;" /><circle id="SPH00158" cx="606.76" cy="570.23" r="9.2" style="fill:#ccc; stroke-width:0px;" /><circle id="SPH00159" cx="592.81" cy="589.49" r="9.2" style="fill:#ccc; stroke-width:0px;" /><circle id="SPH00160" cx="578.88" cy="608.72" r="9.2" style="fill:#ccc; stroke-width:0px;" /><circle id="SPH00161" cx="564.94" cy="627.96" r="9.2" style="fill:#ccc; stroke-width:0px;" /><circle id="SPH00162" cx="550.87" cy="647.11" r="9.2" style="fill:#ccc; stroke-width:0px;" /><circle id="SPH00163" cx="536.11" cy="665.73" r="9.2" style="fill:#ccc; stroke-width:0px;" /><circle id="SPH00164" cx="521.35" cy="684.37" r="9.2" style="fill:#ccc; stroke-width:0px;" /><circle id="SPH00165" cx="506.6" cy="703" r="9.2" transform="translate(-268.47 1090.45) rotate(-80.78)" style="fill:#ccc; stroke-width:0px;" /><circle id="SPH00166" cx="491.84" cy="721.63" r="9.2" style="fill:#ccc; stroke-width:0px;" /><circle id="SPH00167" cx="773.22" cy="393.82" r="9.2" style="fill:#ccc; stroke-width:0px;" /><circle id="SPH00168" cx="760.65" cy="414.19" r="9.2" style="fill:#ccc; stroke-width:0px;" /><circle id="SPH00169" cx="747.46" cy="434.16" r="9.2" style="fill:#ccc; stroke-width:0px;" /><circle id="SPH00170" cx="734.26" cy="454.14" r="9.2" style="fill:#ccc; stroke-width:0px;" /><circle id="SPH00171" cx="721.06" cy="474.11" r="9.2" style="fill:#ccc; stroke-width:0px;" /><circle id="SPH00172" cx="707.86" cy="494.08" r="9.2" style="fill:#ccc; stroke-width:0px;" /><circle id="SPH00173" cx="694.67" cy="514.06" r="9.2" style="fill:#ccc; stroke-width:0px;" /><circle id="SPH00174" cx="681.47" cy="534.03" r="9.2" style="fill:#ccc; stroke-width:0px;" /><circle id="SPH00175" cx="667.7" cy="553.61" r="9.2" style="fill:#ccc; stroke-width:0px;" /><circle id="SPH00176" cx="653.65" cy="573" r="9.2" style="fill:#ccc; stroke-width:0px;" /><circle id="SPH00177" cx="639.6" cy="592.39" r="9.2" style="fill:#ccc; stroke-width:0px;" /><circle id="SPH00178" cx="625.55" cy="611.79" r="9.2" style="fill:#ccc; stroke-width:0px;" /><circle id="SPH00179" cx="611.51" cy="631.17" r="9.2" style="fill:#ccc; stroke-width:0px;" /><circle id="SPH00180" cx="597.46" cy="650.56" r="9.2" style="fill:#ccc; stroke-width:0px;" /><circle id="SPH00181" cx="583.33" cy="669.9" r="9.2" style="fill:#ccc; stroke-width:0px;" /><circle id="SPH00182" cx="568.47" cy="688.66" r="9.2" style="fill:#ccc; stroke-width:0px;" /><circle id="SPH00183" cx="553.62" cy="707.41" r="9.2" style="fill:#ccc; stroke-width:0px;" /><circle id="SPH00184" cx="538.77" cy="726.16" r="9.2" style="fill:#ccc; stroke-width:0px;" /><circle id="SPH00185" cx="523.91" cy="744.92" r="9.2" style="fill:#ccc; stroke-width:0px;" /><circle id="SPH00186" cx="806.98" cy="414.51" r="9.2" style="fill:#ccc; stroke-width:0px;" /><circle id="SPH00187" cx="795.03" cy="433.98" r="9.2" style="fill:#ccc; stroke-width:0px;" /><circle id="SPH00188" cx="782.44" cy="453.04" r="9.2" style="fill:#ccc; stroke-width:0px;" /><circle id="SPH00189" cx="769.86" cy="472.1" r="9.2" style="fill:#ccc; stroke-width:0px;" /><circle id="SPH00190" cx="757.26" cy="491.16" r="9.2" style="fill:#ccc; stroke-width:0px;" /><circle id="SPH00191" cx="744.66" cy="510.22" r="9.2" style="fill:#ccc; stroke-width:0px;" /><circle id="SPH00192" cx="732.08" cy="529.27" r="9.2" style="fill:#ccc; stroke-width:0px;" /><circle id="SPH00193" cx="719.49" cy="548.33" r="9.2" style="fill:#ccc; stroke-width:0px;" /><circle id="SPH00194" cx="706.71" cy="567.25" r="9.2" style="fill:#ccc; stroke-width:0px;" /><circle id="SPH00195" cx="693.3" cy="585.75" r="9.2" style="fill:#ccc; stroke-width:0px;" /><circle id="SPH00196" cx="679.9" cy="604.26" r="9.2" style="fill:#ccc; stroke-width:0px;" /><circle id="SPH00197" cx="666.5" cy="622.76" r="9.2" style="fill:#ccc; stroke-width:0px;" /><circle id="SPH00198" cx="653.1" cy="641.27" r="9.2" style="fill:#ccc; stroke-width:0px;" /><circle id="SPH00199" cx="639.69" cy="659.78" r="9.2" style="fill:#ccc; stroke-width:0px;" /><circle id="SPH00200" cx="626.28" cy="678.29" r="9.2" style="fill:#ccc; stroke-width:0px;" /><circle id="SPH00201" cx="612.66" cy="696.64" r="9.2" style="fill:#ccc; stroke-width:0px;" /><circle id="SPH00202" cx="598.48" cy="714.55" r="9.2" style="fill:#ccc; stroke-width:0px;" /><circle id="SPH00203" cx="584.3" cy="732.46" r="9.2" style="fill:#ccc; stroke-width:0px;" /><circle id="SPH00204" cx="570.1" cy="750.38" r="9.2" style="fill:#ccc; stroke-width:0px;" /><circle id="SPH00205" cx="555.91" cy="768.3" r="9.2" style="fill:#ccc; stroke-width:0px;" /><circle id="SPH00206" cx="840.74" cy="435.2" r="9.2" style="fill:#ccc; stroke-width:0px;" /><circle id="SPH00207" cx="828.73" cy="454.82" r="9.2" style="fill:#ccc; stroke-width:0px;" /><circle id="SPH00208" cx="816.05" cy="474.01" r="9.2" style="fill:#ccc; stroke-width:0px;" /><circle id="SPH00209" cx="803.36" cy="493.22" r="9.2" style="fill:#ccc; stroke-width:0px;" /><circle id="SPH00210" cx="790.68" cy="512.41" r="9.2" style="fill:#ccc; stroke-width:0px;" /><circle id="SPH00211" cx="778" cy="531.6" r="9.2" style="fill:#ccc; stroke-width:0px;" /><circle id="SPH00212" cx="765.32" cy="550.8" r="9.2" style="fill:#ccc; stroke-width:0px;" /><circle id="SPH00213" cx="752.64" cy="569.99" r="9.2" style="fill:#ccc; stroke-width:0px;" /><circle id="SPH00214" cx="739.8" cy="589.07" r="9.2" style="fill:#ccc; stroke-width:0px;" /><circle id="SPH00215" cx="726.3" cy="607.71" r="9.2" style="fill:#ccc; stroke-width:0px;" /><circle id="SPH00216" cx="712.81" cy="626.34" r="9.2" style="fill:#ccc; stroke-width:0px;" /><circle id="SPH00217" cx="699.31" cy="644.97" r="9.2" style="fill:#ccc; stroke-width:0px;" /><circle id="SPH00218" cx="685.82" cy="663.6" r="9.2" style="fill:#ccc; stroke-width:0px;" /><circle id="SPH00219" cx="672.32" cy="682.23" r="9.2" style="fill:#ccc; stroke-width:0px;" /><circle id="SPH00220" cx="658.82" cy="700.87" r="9.2" style="fill:#ccc; stroke-width:0px;" /><circle id="SPH00221" cx="645.18" cy="719.38" r="9.2" style="fill:#ccc; stroke-width:0px;" /><circle id="SPH00222" cx="630.9" cy="737.41" r="9.2" style="fill:#ccc; stroke-width:0px;" /><circle id="SPH00223" cx="616.61" cy="755.44" r="9.2" style="fill:#ccc; stroke-width:0px;" /><circle id="SPH00224" cx="602.33" cy="773.47" r="9.2" style="fill:#ccc; stroke-width:0px;" /><circle id="SPH00225" cx="588.05" cy="791.51" r="9.2" style="fill:#ccc; stroke-width:0px;" /><circle id="SPH00226" cx="874.51" cy="455.89" r="9.2" style="fill:#ccc; stroke-width:0px;" /><circle id="SPH00227" cx="862.42" cy="475.66" r="9.2" style="fill:#ccc; stroke-width:0px;" /><circle id="SPH00228" cx="849.65" cy="494.99" r="9.2" style="fill:#ccc; stroke-width:0px;" /><circle id="SPH00229" cx="836.88" cy="514.33" r="9.2" style="fill:#ccc; stroke-width:0px;" /><circle id="SPH00230" cx="824.11" cy="533.65" r="9.2" style="fill:#ccc; stroke-width:0px;" /><circle id="SPH00231" cx="811.34" cy="552.99" r="9.2" style="fill:#ccc; stroke-width:0px;" /><circle id="SPH00232" cx="798.57" cy="572.32" r="9.2" style="fill:#ccc; stroke-width:0px;" /><circle id="SPH00233" cx="785.79" cy="591.65" r="9.2" style="fill:#ccc; stroke-width:0px;" /><circle id="SPH00234" cx="772.89" cy="610.9" r="9.2" style="fill:#ccc; stroke-width:0px;" /><circle id="SPH00235" cx="759.3" cy="629.67" r="9.2" style="fill:#ccc; stroke-width:0px;" /><circle id="SPH00236" cx="745.7" cy="648.43" r="9.2" style="fill:#ccc; stroke-width:0px;" /><circle id="SPH00237" cx="732.11" cy="667.19" r="9.2" style="fill:#ccc; stroke-width:0px;" /><circle id="SPH00238" cx="718.52" cy="685.95" r="9.2" style="fill:#ccc; stroke-width:0px;" /><circle id="SPH00239" cx="704.93" cy="704.72" r="9.2" style="fill:#ccc; stroke-width:0px;" /><circle id="SPH00240" cx="691.34" cy="723.48" r="9.2" style="fill:#ccc; stroke-width:0px;" /><circle id="SPH00241" cx="677.64" cy="742.16" r="9.2" style="fill:#ccc; stroke-width:0px;" /><circle id="SPH00242" cx="663.26" cy="760.33" r="9.2" style="fill:#ccc; stroke-width:0px;" /><circle id="SPH00243" cx="648.86" cy="778.5" r="9.2" style="fill:#ccc; stroke-width:0px;" /><circle id="SPH00244" cx="634.48" cy="796.67" r="9.2" style="fill:#ccc; stroke-width:0px;" /><circle id="SPH00245" cx="620.09" cy="814.83" r="9.2" style="fill:#ccc; stroke-width:0px;" /><circle id="SPH00246" cx="908.27" cy="476.59" r="9.2" style="fill:#ccc; stroke-width:0px;" /><circle id="SPH00247" cx="896.11" cy="496.5" r="9.2" style="fill:#ccc; stroke-width:0px;" /><circle id="SPH00248" cx="883.26" cy="515.97" r="9.2" style="fill:#ccc; stroke-width:0px;" /><circle id="SPH00249" cx="870.39" cy="535.44" r="9.2" style="fill:#ccc; stroke-width:0px;" /><circle id="SPH00250" cx="857.53" cy="554.91" r="9.2" style="fill:#ccc; stroke-width:0px;" /><circle id="SPH00251" cx="844.66" cy="574.39" r="9.2" style="fill:#ccc; stroke-width:0px;" /><circle id="SPH00252" cx="831.8" cy="593.85" r="9.2" style="fill:#ccc; stroke-width:0px;" /><circle id="SPH00253" cx="818.94" cy="613.32" r="9.2" style="fill:#ccc; stroke-width:0px;" /><circle id="SPH00254" cx="805.98" cy="632.72" r="9.2" style="fill:#ccc; stroke-width:0px;" /><circle id="SPH00255" cx="792.29" cy="651.62" r="9.2" style="fill:#ccc; stroke-width:0px;" /><circle id="SPH00256" cx="778.61" cy="670.51" r="9.2" style="fill:#ccc; stroke-width:0px;" /><circle id="SPH00257" cx="764.92" cy="689.41" r="9.2" style="fill:#ccc; stroke-width:0px;" /><circle id="SPH00258" cx="751.24" cy="708.3" r="9.2" style="fill:#ccc; stroke-width:0px;" /><circle id="SPH00259" cx="737.56" cy="727.18" r="9.2" style="fill:#ccc; stroke-width:0px;" /><circle id="SPH00260" cx="723.87" cy="746.07" r="9.2" style="fill:#ccc; stroke-width:0px;" /><circle id="SPH00261" cx="710.13" cy="764.93" r="9.2" style="fill:#ccc; stroke-width:0px;" /><circle id="SPH00262" cx="695.64" cy="783.23" r="9.2" style="fill:#ccc; stroke-width:0px;" /><circle id="SPH00263" cx="681.14" cy="801.52" r="9.2" style="fill:#ccc; stroke-width:0px;" /><circle id="SPH00264" cx="666.66" cy="819.82" r="9.2" style="fill:#ccc; stroke-width:0px;" /><circle id="SPH00265" cx="652.18" cy="838.1" r="9.2" style="fill:#ccc; stroke-width:0px;" /><circle id="SPH00266" cx="942.04" cy="497.27" r="9.2" style="fill:#ccc; stroke-width:0px;" /><circle id="SPH00267" cx="929.81" cy="517.34" r="9.2" style="fill:#ccc; stroke-width:0px;" /><circle id="SPH00268" cx="916.86" cy="536.95" r="9.2" style="fill:#ccc; stroke-width:0px;" /><circle id="SPH00269" cx="903.9" cy="556.55" r="9.2" style="fill:#ccc; stroke-width:0px;" /><circle id="SPH00270" cx="890.95" cy="576.15" r="9.2" style="fill:#ccc; stroke-width:0px;" /><circle id="SPH00271" cx="878" cy="595.76" r="9.2" style="fill:#ccc; stroke-width:0px;" /><circle id="SPH00272" cx="865.06" cy="615.36" r="9.2" style="fill:#ccc; stroke-width:0px;" /><circle id="SPH00273" cx="852.11" cy="634.95" r="9.2" style="fill:#ccc; stroke-width:0px;" /><circle id="SPH00274" cx="839.1" cy="654.5" r="9.2" style="fill:#ccc; stroke-width:0px;" /><circle id="SPH00275" cx="825.31" cy="673.54" r="9.2" style="fill:#ccc; stroke-width:0px;" /><circle id="SPH00276" cx="811.53" cy="692.57" r="9.2" style="fill:#ccc; stroke-width:0px;" /><circle id="SPH00277" cx="797.74" cy="711.6" r="9.2" style="fill:#ccc; stroke-width:0px;" /><circle id="SPH00278" cx="783.97" cy="730.62" r="9.2" style="fill:#ccc; stroke-width:0px;" /><circle id="SPH00279" cx="770.2" cy="749.63" r="9.2" style="fill:#ccc; stroke-width:0px;" /><circle id="SPH00280" cx="756.42" cy="768.64" r="9.2" style="fill:#ccc; stroke-width:0px;" /><circle id="SPH00281" cx="742.65" cy="787.65" r="9.2" style="fill:#ccc; stroke-width:0px;" /><circle id="SPH00282" cx="728.06" cy="806.07" r="9.2" style="fill:#ccc; stroke-width:0px;" /><circle id="SPH00283" cx="713.47" cy="824.49" r="9.2" style="fill:#ccc; stroke-width:0px;" /><circle id="SPH00284" cx="698.89" cy="842.9" r="9.2" style="fill:#ccc; stroke-width:0px;" /><circle id="SPH00285" cx="684.3" cy="861.31" r="9.2" style="fill:#ccc; stroke-width:0px;" /><circle id="SPH00286" cx="975.81" cy="517.96" r="9.2" style="fill:#ccc; stroke-width:0px;" /><circle id="SPH00287" cx="963.5" cy="538.17" r="9.2" style="fill:#ccc; stroke-width:0px;" /><circle id="SPH00288" cx="950.46" cy="557.91" r="9.2" style="fill:#ccc; stroke-width:0px;" /><circle id="SPH00289" cx="937.42" cy="577.66" r="9.2" style="fill:#ccc; stroke-width:0px;" /><circle id="SPH00290" cx="924.38" cy="597.39" r="9.2" style="fill:#ccc; stroke-width:0px;" /><circle id="SPH00291" cx="911.34" cy="617.14" r="9.2" style="fill:#ccc; stroke-width:0px;" /><circle id="SPH00292" cx="898.3" cy="636.88" r="9.2" style="fill:#ccc; stroke-width:0px;" /><circle id="SPH00293" cx="885.25" cy="656.63" r="9.2" style="fill:#ccc; stroke-width:0px;" /><circle id="SPH00294" cx="872.16" cy="676.36" r="9.2" style="fill:#ccc; stroke-width:0px;" /><circle id="SPH00295" cx="858.28" cy="695.53" r="9.2" style="fill:#ccc; stroke-width:0px;" /><circle id="SPH00296" cx="844.39" cy="714.7" r="9.2" style="fill:#ccc; stroke-width:0px;" /><circle id="SPH00297" cx="830.51" cy="733.87" r="9.2" style="fill:#ccc; stroke-width:0px;" /><circle id="SPH00298" cx="816.64" cy="753.02" r="9.2" style="fill:#ccc; stroke-width:0px;" /><circle id="SPH00299" cx="802.76" cy="772.18" r="9.2" style="fill:#ccc; stroke-width:0px;" /><circle id="SPH00300" cx="788.88" cy="791.35" r="9.2" style="fill:#ccc; stroke-width:0px;" /><circle id="SPH00301" cx="775" cy="810.5" r="9.2" style="fill:#ccc; stroke-width:0px;" /><circle id="SPH00302" cx="760.34" cy="829.09" r="9.2" style="fill:#ccc; stroke-width:0px;" /><circle id="SPH00303" cx="745.66" cy="847.63" r="9.2" style="fill:#ccc; stroke-width:0px;" /><circle id="SPH00304" cx="730.96" cy="866.19" r="9.2" style="fill:#ccc; stroke-width:0px;" /><circle id="SPH00305" cx="716.26" cy="884.75" r="9.2" style="fill:#ccc; stroke-width:0px;" /><circle id="SPH00306" cx="1009.58" cy="538.66" r="9.2" style="fill:#ccc; stroke-width:0px;" /><circle id="SPH00307" cx="997.2" cy="559.02" r="9.2" style="fill:#ccc; stroke-width:0px;" /><circle id="SPH00308" cx="984.06" cy="578.89" r="9.2" style="fill:#ccc; stroke-width:0px;" /><circle id="SPH00309" cx="970.94" cy="598.77" r="9.2" style="fill:#ccc; stroke-width:0px;" /><circle id="SPH00310" cx="957.8" cy="618.65" r="9.2" style="fill:#ccc; stroke-width:0px;" /><circle id="SPH00311" cx="944.66" cy="638.54" r="9.2" style="fill:#ccc; stroke-width:0px;" /><circle id="SPH00312" cx="931.53" cy="658.43" r="9.2" style="fill:#ccc; stroke-width:0px;" /><circle id="SPH00313" cx="918.39" cy="678.31" r="9.2" style="fill:#ccc; stroke-width:0px;" /><circle id="SPH00314" cx="905.25" cy="698.19" r="9.2" style="fill:#ccc; stroke-width:0px;" /><circle id="SPH00315" cx="891.27" cy="717.48" r="9.2" style="fill:#ccc; stroke-width:0px;" /><circle id="SPH00316" cx="877.3" cy="736.77" r="9.2" style="fill:#ccc; stroke-width:0px;" /><circle id="SPH00317" cx="863.33" cy="756.06" r="9.2" style="fill:#ccc; stroke-width:0px;" /><circle id="SPH00318" cx="849.34" cy="775.37" r="9.2" style="fill:#ccc; stroke-width:0px;" /><circle id="SPH00319" cx="835.36" cy="794.67" r="9.2" style="fill:#ccc; stroke-width:0px;" /><circle id="SPH00320" cx="821.38" cy="813.98" r="9.2" style="fill:#ccc; stroke-width:0px;" /><circle id="SPH00321" cx="807.4" cy="833.28" r="9.2" style="fill:#ccc; stroke-width:0px;" /><circle id="SPH00322" cx="792.7" cy="852.03" r="9.2" style="fill:#ccc; stroke-width:0px;" /><circle id="SPH00323" cx="777.9" cy="870.7" r="9.2" style="fill:#ccc; stroke-width:0px;" /><circle id="SPH00324" cx="763.11" cy="889.37" r="9.2" style="fill:#ccc; stroke-width:0px;" /><circle id="SPH00325" cx="748.32" cy="908.05" r="9.2" style="fill:#ccc; stroke-width:0px;" /></g></svg>