<svg id="Layer_1" viewBox="0 0 1697.6 1405.17" xmlns="http://www.w3.org/2000/svg"><g id="back"><g id="back-2"><path id="sphere" d="M3562.6,1723.54c0-1528.34-1241.46-2769.81-2769.81-2769.81S-1977.02,195.2-1977.02,1723.54-735.56,4493.35,792.79,4493.35h0c1528.34,0,2769.81-1241.46,2769.81-2769.81Z" style="fill:#f2f2f2; stroke:#ddd; stroke-miterlimit:10; stroke-width:3px;" /><path d="M-1543.83,1722.21c0,655.33,307.79,1239.54,786.53,1615.79,66.08,51.94,160.31,48.05,221.66-9.39C-106.58,2926.9,161.77,2355.56,161.77,1722.21S-106.58,517.52-535.64,115.81c-61.36-57.44-155.58-61.33-221.66-9.39-478.74,376.25-786.53,960.46-786.53,1615.79h0Z" style="fill:#e5e5e5; stroke:#ddd; stroke-miterlimit:10; stroke-width:3px;" /></g><g id="sectors"><path id="_208" d="M1223.11,854.75c-207.59,49.84-415.16,99.67-622.74,149.51-38.11-154.24-88.35-304.95-150.14-450.74,158.5-65.65,552.97-229.04,591.7-245.08,24.64,58.38,47.8,117.52,69.46,177.36h0c43.9,121.41,81.15,244.57,111.73,368.96h-.01Z" style="fill:#fff; stroke:#ddd; stroke-miterlimit:10; stroke-width:9px;" /><path id="_209" d="M1041.93,308.44c-72.76-170.09-165.49-353.48-264.69-510.29C631.81-112.73,376.6,43.65,231.17,132.76c84.15,134.44,157.36,275.15,219.07,420.77h0c158.5-65.65,433.19-179.44,591.69-245.09h0Z" style="fill:#fff; stroke:#ddd; stroke-miterlimit:10; stroke-width:9px;" /><path id="_210" d="M-189.66-41.79c-14.73-17.7-29.68-35.21-44.85-52.54C-43.38-257.58,402.47-638.36,434.26-665.52c126.27,145.08,240.98,300.1,342.98,463.67-46.45,28.46-546.13,334.67-546.19,334.7-94.66,1.33-189.31,2.66-283.96,3.99h0C-96.06,75.43-141.68,15.85-189.65-41.79h-.01Z" style="fill:#fff; stroke:#ddd; stroke-miterlimit:10; stroke-width:9px;" /><path id="_207" d="M681.71,1530.17c158.51-12.47,583.44-45.97,637.74-50.25-14.1-210.13-45.74-419.33-96.35-625.18-207.57,49.83-415.14,99.67-622.7,149.5,9.25,37.46,17.8,75.12,25.61,112.97h0c28.19,136.51,46.76,274.5,55.71,412.95h-.01Z" style="fill:#fff; stroke:#ddd; stroke-miterlimit:10; stroke-width:9px;" /><path id="_409" d="M1983.93,65.95c34.48-14.28,584.25-242.01,587.71-243.44-211.42-197-455.65-359.72-723.64-479.19-58.27,35.71-116.53,71.42-174.8,107.12,20.63,33.91,40.8,68.13,60.52,102.63h0c94.11,164.69,177.78,335.97,250.19,512.88h.02Z" style="fill:#fff; stroke:#ddd; stroke-miterlimit:10; stroke-width:9px;" /><path id="_306" d="M2298.47,2040.71c-207.68-16.34-415.35-32.69-623.01-49.03,12.79-178.43,12.79-357.55,0-535.97,207.67-16.35,415.35-32.69,623.03-49.04,7.67,105.48,11.49,211.17,11.49,316.86h0c0,105.8-3.84,211.59-11.52,317.17h0Z" style="fill:#fff; stroke:#ddd; stroke-miterlimit:10; stroke-width:9px;" /><path id="_307" d="M2298.5,1406.67c-207.68,16.35-415.36,32.69-623.03,49.04-3.99-55.87-9.25-111.67-15.76-167.35-16.51-141.27-41.03-281.35-73.41-419.58,202.57-48.63,405.14-97.27,607.72-145.9,19.57,83.27,36.66,166.98,51.27,251h0c24.96,143.5,42.69,287.95,53.2,432.79h.01Z" style="fill:#fff; stroke:#ddd; stroke-miterlimit:10; stroke-width:9px;" /><path id="_308" d="M2194.02,722.87c-202.58,48.64-405.16,97.27-607.72,145.9-12.93-55.23-27.11-110.16-42.53-164.76-75.94-20.35-151.87-40.69-227.81-61.04-13.06-40.84-26.87-81.5-41.44-121.97-16.85-46.81-34.67-93.18-53.41-139.09,254.24-105.31,508.48-210.62,762.73-315.93,23.67,57.81,46.14,116.22,67.38,175.2h0c57.02,158.36,104.64,319.19,142.8,481.68h0Z" style="fill:#fff; stroke:#ddd; stroke-miterlimit:10; stroke-width:9px;" /><path id="_309" d="M1983.84,65.99c-254.26,105.32-508.49,210.62-762.73,315.93-70.98-173.83-155.31-340.97-251.89-500.07,234.64-143.79,469.29-287.58,703.92-431.37,20.61,33.88,40.76,68.05,60.45,102.52h0c94.13,164.73,177.81,336.03,250.25,512.98h0Z" style="fill:#fff; stroke:#ddd; stroke-miterlimit:10; stroke-width:9px;" /></g></g><g id="Seats"><circle id="SPH04208" cx="649.42" cy="520.1" r="9.2" style="fill:#ccc; stroke-width:0px;" /><circle id="SPH04209" cx="658.32" cy="543.12" r="9.2" style="fill:#ccc; stroke-width:0px;" /><circle id="SPH04210" cx="667.22" cy="566.14" r="9.2" style="fill:#ccc; stroke-width:0px;" /><circle id="SPH04211" cx="676.12" cy="589.14" r="9.2" style="fill:#ccc; stroke-width:0px;" /><circle id="SPH04212" cx="685.01" cy="612.15" r="9.2" style="fill:#ccc; stroke-width:0px;" /><circle id="SPH04213" cx="693.91" cy="635.17" r="9.2" style="fill:#ccc; stroke-width:0px;" /><circle id="SPH04214" cx="701.93" cy="658.49" r="9.2" style="fill:#ccc; stroke-width:0px;" /><circle id="SPH04215" cx="709.81" cy="681.86" r="9.2" style="fill:#ccc; stroke-width:0px;" /><circle id="SPH04216" cx="717.69" cy="705.24" r="9.2" style="fill:#ccc; stroke-width:0px;" /><circle id="SPH04217" cx="725.57" cy="728.61" r="9.2" style="fill:#ccc; stroke-width:0px;" /><circle id="SPH04218" cx="733.45" cy="751.98" r="9.2" style="fill:#ccc; stroke-width:0px;" /><circle id="SPH04219" cx="741.13" cy="775.42" r="9.2" style="fill:#ccc; stroke-width:0px;" /><circle id="SPH04220" cx="747.98" cy="799.14" r="9.2" style="fill:#ccc; stroke-width:0px;" /><circle id="SPH04221" cx="754.84" cy="822.84" r="9.2" style="fill:#ccc; stroke-width:0px;" /><circle id="SPH04222" cx="761.69" cy="846.55" r="9.2" style="fill:#ccc; stroke-width:0px;" /><circle id="SPH04223" cx="768.56" cy="870.26" r="9.2" style="fill:#ccc; stroke-width:0px;" /><circle id="SPH04224" cx="775.41" cy="893.98" r="9.2" style="fill:#ccc; stroke-width:0px;" /><circle id="SPH04225" cx="781.69" cy="917.84" r="9.2" style="fill:#ccc; stroke-width:0px;" /><circle id="SPH04226" cx="686.02" cy="504.95" r="9.2" style="fill:#ccc; stroke-width:0px;" /><circle id="SPH04227" cx="695.05" cy="528.3" r="9.2" style="fill:#ccc; stroke-width:0px;" /><circle id="SPH04228" cx="704.08" cy="551.66" r="9.2" style="fill:#ccc; stroke-width:0px;" /><circle id="SPH04229" cx="713.11" cy="575.02" r="9.2" style="fill:#ccc; stroke-width:0px;" /><circle id="SPH04230" cx="722.14" cy="598.38" r="9.2" style="fill:#ccc; stroke-width:0px;" /><circle id="SPH04231" cx="731.17" cy="621.74" r="9.2" style="fill:#ccc; stroke-width:0px;" /><circle id="SPH04232" cx="739.31" cy="645.41" r="9.2" style="fill:#ccc; stroke-width:0px;" /><circle id="SPH04233" cx="747.31" cy="669.15" r="9.2" style="fill:#ccc; stroke-width:0px;" /><circle id="SPH04234" cx="755.32" cy="692.88" r="9.2" style="fill:#ccc; stroke-width:0px;" /><circle id="SPH04235" cx="763.32" cy="716.61" r="9.2" style="fill:#ccc; stroke-width:0px;" /><circle id="SPH04236" cx="771.32" cy="740.34" r="9.2" style="fill:#ccc; stroke-width:0px;" /><circle id="SPH04237" cx="779.09" cy="764.14" r="9.2" style="fill:#ccc; stroke-width:0px;" /><circle id="SPH04238" cx="786.04" cy="788.18" r="9.2" style="fill:#ccc; stroke-width:0px;" /><circle id="SPH04239" cx="793" cy="812.23" r="9.2" style="fill:#ccc; stroke-width:0px;" /><circle id="SPH04240" cx="799.94" cy="836.26" r="9.2" style="fill:#ccc; stroke-width:0px;" /><circle id="SPH04241" cx="806.89" cy="860.28" r="9.2" style="fill:#ccc; stroke-width:0px;" /><circle id="SPH04242" cx="813.84" cy="884.31" r="9.2" style="fill:#ccc; stroke-width:0px;" /><circle id="SPH04243" cx="820.17" cy="908.52" r="9.2" style="fill:#ccc; stroke-width:0px;" /><circle id="SPH04244" cx="722.61" cy="489.79" r="9.2" style="fill:#ccc; stroke-width:0px;" /><circle id="SPH04245" cx="731.27" cy="512.18" r="9.2" style="fill:#ccc; stroke-width:0px;" /><circle id="SPH04246" cx="739.92" cy="534.55" r="9.2" style="fill:#ccc; stroke-width:0px;" /><circle id="SPH04247" cx="748.57" cy="556.93" r="9.2" style="fill:#ccc; stroke-width:0px;" /><circle id="SPH04248" cx="757.22" cy="579.3" r="9.2" style="fill:#ccc; stroke-width:0px;" /><circle id="SPH04249" cx="765.88" cy="601.69" r="9.2" style="fill:#ccc; stroke-width:0px;" /><circle id="SPH04250" cx="773.97" cy="624.27" r="9.2" style="fill:#ccc; stroke-width:0px;" /><circle id="SPH04251" cx="781.64" cy="647.02" r="9.2" style="fill:#ccc; stroke-width:0px;" /><circle id="SPH04252" cx="789.31" cy="669.77" r="9.2" style="fill:#ccc; stroke-width:0px;" /><circle id="SPH04253" cx="796.98" cy="692.51" r="9.2" style="fill:#ccc; stroke-width:0px;" /><circle id="SPH04254" cx="804.65" cy="715.26" r="9.2" style="fill:#ccc; stroke-width:0px;" /><circle id="SPH04255" cx="812.32" cy="738.01" r="9.2" style="fill:#ccc; stroke-width:0px;" /><circle id="SPH04256" cx="819.37" cy="760.92" r="9.2" style="fill:#ccc; stroke-width:0px;" /><circle id="SPH04257" cx="826.05" cy="783.97" r="9.2" style="fill:#ccc; stroke-width:0px;" /><circle id="SPH04258" cx="832.71" cy="807.02" r="9.2" style="fill:#ccc; stroke-width:0px;" /><circle id="SPH04259" cx="839.37" cy="830.06" r="9.2" style="fill:#ccc; stroke-width:0px;" /><circle id="SPH04260" cx="846.04" cy="853.1" r="9.2" style="fill:#ccc; stroke-width:0px;" /><circle id="SPH04261" cx="852.7" cy="876.14" r="9.2" style="fill:#ccc; stroke-width:0px;" /><circle id="SPH04262" cx="858.7" cy="899.37" r="9.2" style="fill:#ccc; stroke-width:0px;" /><circle id="SPH04263" cx="759.21" cy="474.63" r="9.2" style="fill:#ccc; stroke-width:0px;" /><circle id="SPH04264" cx="767.99" cy="497.34" r="9.2" style="fill:#ccc; stroke-width:0px;" /><circle id="SPH04265" cx="776.77" cy="520.04" r="9.2" style="fill:#ccc; stroke-width:0px;" /><circle id="SPH04266" cx="785.55" cy="542.75" r="9.2" style="fill:#ccc; stroke-width:0px;" /><circle id="SPH04267" cx="794.33" cy="565.46" r="9.2" style="fill:#ccc; stroke-width:0px;" /><circle id="SPH04268" cx="803.1" cy="588.17" r="9.2" style="fill:#ccc; stroke-width:0px;" /><circle id="SPH04269" cx="811.31" cy="611.06" r="9.2" style="fill:#ccc; stroke-width:0px;" /><circle id="SPH04270" cx="819.09" cy="634.13" r="9.2" style="fill:#ccc; stroke-width:0px;" /><circle id="SPH04271" cx="826.86" cy="657.18" r="9.2" style="fill:#ccc; stroke-width:0px;" /><circle id="SPH04272" cx="834.64" cy="680.24" r="9.2" style="fill:#ccc; stroke-width:0px;" /><circle id="SPH04273" cx="842.41" cy="703.3" r="9.2" style="fill:#ccc; stroke-width:0px;" /><circle id="SPH04274" cx="850.18" cy="726.36" r="9.2" style="fill:#ccc; stroke-width:0px;" /><circle id="SPH04275" cx="857.33" cy="749.62" r="9.2" style="fill:#ccc; stroke-width:0px;" /><circle id="SPH04276" cx="864.1" cy="773.02" r="9.2" style="fill:#ccc; stroke-width:0px;" /><circle id="SPH04277" cx="870.86" cy="796.4" r="9.2" style="fill:#ccc; stroke-width:0px;" /><circle id="SPH04278" cx="877.62" cy="819.78" r="9.2" style="fill:#ccc; stroke-width:0px;" /><circle id="SPH04279" cx="884.39" cy="843.18" r="9.2" style="fill:#ccc; stroke-width:0px;" /><circle id="SPH04280" cx="891.15" cy="866.56" r="9.2" style="fill:#ccc; stroke-width:0px;" /><circle id="SPH04281" cx="897.21" cy="890.14" r="9.2" style="fill:#ccc; stroke-width:0px;" /><circle id="SPH04282" cx="795.81" cy="459.47" r="9.2" style="fill:#ccc; stroke-width:0px;" /><circle id="SPH04283" cx="804.71" cy="482.5" r="9.2" style="fill:#ccc; stroke-width:0px;" /><circle id="SPH04284" cx="813.61" cy="505.52" r="9.2" style="fill:#ccc; stroke-width:0px;" /><circle id="SPH04285" cx="822.51" cy="528.54" r="9.2" style="fill:#ccc; stroke-width:0px;" /><circle id="SPH04286" cx="831.41" cy="551.57" r="9.2" style="fill:#ccc; stroke-width:0px;" /><circle id="SPH04287" cx="840.32" cy="574.6" r="9.2" style="fill:#ccc; stroke-width:0px;" /><circle id="SPH04288" cx="848.64" cy="597.83" r="9.2" style="fill:#ccc; stroke-width:0px;" /><circle id="SPH04289" cx="856.53" cy="621.22" r="9.2" style="fill:#ccc; stroke-width:0px;" /><circle id="SPH04290" cx="864.41" cy="644.6" r="9.2" style="fill:#ccc; stroke-width:0px;" /><circle id="SPH04291" cx="872.29" cy="667.98" r="9.2" style="fill:#ccc; stroke-width:0px;" /><circle id="SPH04292" cx="880.17" cy="691.36" r="9.2" style="fill:#ccc; stroke-width:0px;" /><circle id="SPH04293" cx="888.06" cy="714.75" r="9.2" style="fill:#ccc; stroke-width:0px;" /><circle id="SPH04294" cx="895.29" cy="738.34" r="9.2" style="fill:#ccc; stroke-width:0px;" /><circle id="SPH04295" cx="902.15" cy="762.05" r="9.2" style="fill:#ccc; stroke-width:0px;" /><circle id="SPH04296" cx="909.01" cy="785.74" r="9.2" style="fill:#ccc; stroke-width:0px;" /><circle id="SPH04297" cx="915.85" cy="809.45" r="9.2" style="fill:#ccc; stroke-width:0px;" /><circle id="SPH04298" cx="922.72" cy="833.17" r="9.2" style="fill:#ccc; stroke-width:0px;" /><circle id="SPH04299" cx="929.57" cy="856.89" r="9.2" style="fill:#ccc; stroke-width:0px;" /><circle id="SPH04300" cx="935.7" cy="880.82" r="9.2" style="fill:#ccc; stroke-width:0px;" /><circle id="SPH04301" cx="832.41" cy="444.31" r="9.2" style="fill:#ccc; stroke-width:0px;" /><circle id="SPH04302" cx="841.43" cy="467.66" r="9.2" style="fill:#ccc; stroke-width:0px;" /><circle id="SPH04303" cx="850.45" cy="491.01" r="9.2" style="fill:#ccc; stroke-width:0px;" /><circle id="SPH04304" cx="859.48" cy="514.35" r="9.2" style="fill:#ccc; stroke-width:0px;" /><circle id="SPH04305" cx="868.5" cy="537.7" r="9.2" style="fill:#ccc; stroke-width:0px;" /><circle id="SPH04306" cx="877.53" cy="561.04" r="9.2" style="fill:#ccc; stroke-width:0px;" /><circle id="SPH04307" cx="885.97" cy="584.61" r="9.2" style="fill:#ccc; stroke-width:0px;" /><circle id="SPH04308" cx="893.97" cy="608.34" r="9.2" style="fill:#ccc; stroke-width:0px;" /><circle id="SPH04309" cx="901.97" cy="632.06" r="9.2" style="fill:#ccc; stroke-width:0px;" /><circle id="SPH04310" cx="909.97" cy="655.79" r="9.2" style="fill:#ccc; stroke-width:0px;" /><circle id="SPH04311" cx="917.97" cy="679.53" r="9.2" style="fill:#ccc; stroke-width:0px;" /><circle id="SPH04312" cx="925.97" cy="703.24" r="9.2" style="fill:#ccc; stroke-width:0px;" /><circle id="SPH04313" cx="933.28" cy="727.16" r="9.2" style="fill:#ccc; stroke-width:0px;" /><circle id="SPH04314" cx="940.24" cy="751.21" r="9.2" style="fill:#ccc; stroke-width:0px;" /><circle id="SPH04315" cx="947.19" cy="775.26" r="9.2" style="fill:#ccc; stroke-width:0px;" /><circle id="SPH04316" cx="954.15" cy="799.31" r="9.2" style="fill:#ccc; stroke-width:0px;" /><circle id="SPH04317" cx="961.1" cy="823.37" r="9.2" style="fill:#ccc; stroke-width:0px;" /><circle id="SPH04318" cx="968.06" cy="847.42" r="9.2" style="fill:#ccc; stroke-width:0px;" /><circle id="SPH04319" cx="974.23" cy="871.7" r="9.2" style="fill:#ccc; stroke-width:0px;" /><circle id="SPH04320" cx="869" cy="429.15" r="9.2" style="fill:#ccc; stroke-width:0px;" /><circle id="SPH04321" cx="877.67" cy="451.58" r="9.2" style="fill:#ccc; stroke-width:0px;" /><circle id="SPH04322" cx="886.33" cy="474" r="9.2" style="fill:#ccc; stroke-width:0px;" /><circle id="SPH04323" cx="895.01" cy="496.43" r="9.2" style="fill:#ccc; stroke-width:0px;" /><circle id="SPH04324" cx="903.68" cy="518.86" r="9.2" style="fill:#ccc; stroke-width:0px;" /><circle id="SPH04325" cx="912.35" cy="541.29" r="9.2" style="fill:#ccc; stroke-width:0px;" /><circle id="SPH04326" cx="920.75" cy="563.81" r="9.2" style="fill:#ccc; stroke-width:0px;" /><circle id="SPH04327" cx="928.43" cy="586.59" r="9.2" style="fill:#ccc; stroke-width:0px;" /><circle id="SPH04328" cx="936.11" cy="609.38" r="9.2" style="fill:#ccc; stroke-width:0px;" /><circle id="SPH04329" cx="943.79" cy="632.16" r="9.2" style="fill:#ccc; stroke-width:0px;" /><circle id="SPH04330" cx="951.48" cy="654.94" r="9.2" style="fill:#ccc; stroke-width:0px;" /><circle id="SPH04331" cx="959.16" cy="677.74" r="9.2" style="fill:#ccc; stroke-width:0px;" /><circle id="SPH04332" cx="966.81" cy="700.53" r="9.2" style="fill:#ccc; stroke-width:0px;" /><circle id="SPH04333" cx="973.49" cy="723.64" r="9.2" style="fill:#ccc; stroke-width:0px;" /><circle id="SPH04334" cx="980.17" cy="746.75" r="9.2" style="fill:#ccc; stroke-width:0px;" /><circle id="SPH04335" cx="986.85" cy="769.85" r="9.2" style="fill:#ccc; stroke-width:0px;" /><circle id="SPH04336" cx="993.53" cy="792.95" r="9.2" style="fill:#ccc; stroke-width:0px;" /><circle id="SPH04337" cx="1000.21" cy="816.05" r="9.2" style="fill:#ccc; stroke-width:0px;" /><circle id="SPH04338" cx="1006.89" cy="839.14" r="9.2" style="fill:#ccc; stroke-width:0px;" /><circle id="SPH04339" cx="1012.74" cy="862.48" r="9.2" style="fill:#ccc; stroke-width:0px;" /><circle id="SPH04340" cx="924.17" cy="462.05" r="9.2" style="fill:#ccc; stroke-width:0px;" /><circle id="SPH04341" cx="932.82" cy="484.42" r="9.2" style="fill:#ccc; stroke-width:0px;" /><circle id="SPH04342" cx="941.48" cy="506.81" r="9.2" style="fill:#ccc; stroke-width:0px;" /><circle id="SPH04343" cx="950.13" cy="529.2" r="9.2" style="fill:#ccc; stroke-width:0px;" /><circle id="SPH04344" cx="958.45" cy="551.7" r="9.2" style="fill:#ccc; stroke-width:0px;" /><circle id="SPH04345" cx="966.12" cy="574.44" r="9.2" style="fill:#ccc; stroke-width:0px;" /><circle id="SPH04346" cx="973.79" cy="597.18" r="9.2" style="fill:#ccc; stroke-width:0px;" /><circle id="SPH04347" cx="981.45" cy="619.92" r="9.2" style="fill:#ccc; stroke-width:0px;" /><circle id="SPH04348" cx="989.13" cy="642.66" r="9.2" style="fill:#ccc; stroke-width:0px;" /><circle id="SPH04349" cx="996.79" cy="665.39" r="9.2" style="fill:#ccc; stroke-width:0px;" /><circle id="SPH04350" cx="1004.45" cy="688.15" r="9.2" style="fill:#ccc; stroke-width:0px;" /><circle id="SPH04351" cx="1011.11" cy="711.18" r="9.2" style="fill:#ccc; stroke-width:0px;" /><circle id="SPH04352" cx="1017.77" cy="734.22" r="9.2" transform="translate(130 1621.24) rotate(-80.78)" style="fill:#ccc; stroke-width:0px;" /><circle id="SPH04353" cx="1024.43" cy="757.26" r="9.2" transform="translate(112.85 1647.16) rotate(-80.78)" style="fill:#ccc; stroke-width:0px;" /><circle id="SPH04354" cx="1031.09" cy="780.29" r="9.2" transform="translate(95.71 1673.08) rotate(-80.78)" style="fill:#ccc; stroke-width:0px;" /><circle id="SPH04355" cx="1037.76" cy="803.34" r="9.2" style="fill:#ccc; stroke-width:0px;" /><circle id="SPH04356" cx="961.89" cy="449.78" r="9.2" style="fill:#ccc; stroke-width:0px;" /><circle id="SPH04357" cx="970.54" cy="472.17" r="9.2" style="fill:#ccc; stroke-width:0px;" /><circle id="SPH04358" cx="979.2" cy="494.55" r="9.2" style="fill:#ccc; stroke-width:0px;" /><circle id="SPH04359" cx="987.85" cy="516.94" r="9.2" style="fill:#ccc; stroke-width:0px;" /><circle id="SPH04360" cx="996.12" cy="539.46" r="9.2" style="fill:#ccc; stroke-width:0px;" /><circle id="SPH04361" cx="1003.79" cy="562.21" r="9.2" style="fill:#ccc; stroke-width:0px;" /><circle id="SPH04362" cx="1011.45" cy="584.95" r="9.2" style="fill:#ccc; stroke-width:0px;" /><circle id="SPH04363" cx="1019.13" cy="607.7" r="9.2" transform="translate(256.03 1516.33) rotate(-80.78)" style="fill:#ccc; stroke-width:0px;" /><circle id="SPH04364" cx="1026.79" cy="630.44" r="9.2" transform="translate(240.02 1542.99) rotate(-80.78)" style="fill:#ccc; stroke-width:0px;" /><circle id="SPH04365" cx="1034.46" cy="653.18" r="9.2" style="fill:#ccc; stroke-width:0px;" /><circle id="SPH04366" cx="1042.12" cy="675.9" r="9.2" style="fill:#ccc; stroke-width:0px;" /><circle id="SPH04367" cx="1048.8" cy="698.96" r="9.2" style="fill:#ccc; stroke-width:0px;" /><circle id="SPH04368" cx="1055.47" cy="722.03" r="9.2" style="fill:#ccc; stroke-width:0px;" /><circle id="SPH04369" cx="1062.13" cy="745.1" r="9.2" style="fill:#ccc; stroke-width:0px;" /><circle id="SPH04370" cx="1068.81" cy="768.16" r="9.2" style="fill:#ccc; stroke-width:0px;" /><circle id="SPH04371" cx="1075.48" cy="791.22" r="9.2" style="fill:#ccc; stroke-width:0px;" /><circle id="SPH04372" cx="503.04" cy="580.74" r="9.2" transform="translate(-150.78 984.26) rotate(-80.78)" style="fill:#ccc; stroke-width:0px;" /><circle id="SPH04373" cx="511.93" cy="603.74" r="9.2" style="fill:#ccc; stroke-width:0px;" /><circle id="SPH04374" cx="520.83" cy="626.74" r="9.2" style="fill:#ccc; stroke-width:0px;" /><circle id="SPH04375" cx="529.72" cy="649.75" r="9.2" style="fill:#ccc; stroke-width:0px;" /><circle id="SPH04376" cx="538.61" cy="672.74" r="9.2" style="fill:#ccc; stroke-width:0px;" /><circle id="SPH04377" cx="547.35" cy="695.81" r="9.2" style="fill:#ccc; stroke-width:0px;" /><circle id="SPH04378" cx="555.23" cy="719.18" r="9.2" style="fill:#ccc; stroke-width:0px;" /><circle id="SPH04379" cx="563.11" cy="742.55" r="9.2" style="fill:#ccc; stroke-width:0px;" /><circle id="SPH04380" cx="570.99" cy="765.91" r="9.2" style="fill:#ccc; stroke-width:0px;" /><circle id="SPH04381" cx="578.86" cy="789.28" r="9.2" style="fill:#ccc; stroke-width:0px;" /><circle id="SPH04382" cx="586.74" cy="812.65" r="9.2" style="fill:#ccc; stroke-width:0px;" /><circle id="SPH04383" cx="593.83" cy="836.26" r="9.2" style="fill:#ccc; stroke-width:0px;" /><circle id="SPH04384" cx="600.68" cy="859.94" r="9.2" style="fill:#ccc; stroke-width:0px;" /><circle id="SPH04385" cx="607.53" cy="883.63" r="9.2" style="fill:#ccc; stroke-width:0px;" /><circle id="SPH04386" cx="614.38" cy="907.31" r="9.2" style="fill:#ccc; stroke-width:0px;" /><circle id="SPH04387" cx="621.23" cy="931" r="9.2" style="fill:#ccc; stroke-width:0px;" /><circle id="SPH04388" cx="627.65" cy="954.78" r="9.2" style="fill:#ccc; stroke-width:0px;" /><circle id="SPH04389" cx="539.64" cy="565.58" r="9.2" style="fill:#ccc; stroke-width:0px;" /><circle id="SPH04390" cx="548.67" cy="588.94" r="9.2" style="fill:#ccc; stroke-width:0px;" /><circle id="SPH04391" cx="557.7" cy="612.3" r="9.2" style="fill:#ccc; stroke-width:0px;" /><circle id="SPH04392" cx="566.73" cy="635.67" r="9.2" style="fill:#ccc; stroke-width:0px;" /><circle id="SPH04393" cx="575.77" cy="659.04" r="9.2" style="fill:#ccc; stroke-width:0px;" /><circle id="SPH04394" cx="584.65" cy="682.46" r="9.2" style="fill:#ccc; stroke-width:0px;" /><circle id="SPH04395" cx="592.65" cy="706.2" r="9.2" style="fill:#ccc; stroke-width:0px;" /><circle id="SPH04396" cx="600.65" cy="729.94" r="9.2" style="fill:#ccc; stroke-width:0px;" /><circle id="SPH04397" cx="608.65" cy="753.68" r="9.2" style="fill:#ccc; stroke-width:0px;" /><circle id="SPH04398" cx="616.66" cy="777.42" r="9.2" style="fill:#ccc; stroke-width:0px;" /><circle id="SPH04399" cx="624.66" cy="801.17" r="9.2" style="fill:#ccc; stroke-width:0px;" /><circle id="SPH04400" cx="631.84" cy="825.16" r="9.2" style="fill:#ccc; stroke-width:0px;" /><circle id="SPH04401" cx="638.8" cy="849.22" r="9.2" style="fill:#ccc; stroke-width:0px;" /><circle id="SPH04402" cx="645.76" cy="873.29" r="9.2" style="fill:#ccc; stroke-width:0px;" /><circle id="SPH04403" cx="652.73" cy="897.36" r="9.2" style="fill:#ccc; stroke-width:0px;" /><circle id="SPH04404" cx="659.69" cy="921.42" r="9.2" style="fill:#ccc; stroke-width:0px;" /><circle id="SPH04405" cx="666.17" cy="945.61" r="9.2" style="fill:#ccc; stroke-width:0px;" /><circle id="SPH04406" cx="576.23" cy="550.42" r="9.2" style="fill:#ccc; stroke-width:0px;" /><circle id="SPH04407" cx="585.41" cy="574.15" r="9.2" style="fill:#ccc; stroke-width:0px;" /><circle id="SPH04408" cx="594.58" cy="597.88" r="9.2" style="fill:#ccc; stroke-width:0px;" /><circle id="SPH04409" cx="603.75" cy="621.61" r="9.2" style="fill:#ccc; stroke-width:0px;" /><circle id="SPH04410" cx="612.93" cy="645.34" r="9.2" style="fill:#ccc; stroke-width:0px;" /><circle id="SPH04411" cx="621.94" cy="669.14" r="9.2" style="fill:#ccc; stroke-width:0px;" /><circle id="SPH04412" cx="630.07" cy="693.24" r="9.2" style="fill:#ccc; stroke-width:0px;" /><circle id="SPH04413" cx="638.19" cy="717.34" r="9.2" style="fill:#ccc; stroke-width:0px;" /><circle id="SPH04414" cx="646.32" cy="741.46" r="9.2" style="fill:#ccc; stroke-width:0px;" /><circle id="SPH04415" cx="654.45" cy="765.55" r="9.2" style="fill:#ccc; stroke-width:0px;" /><circle id="SPH04416" cx="662.57" cy="789.65" r="9.2" style="fill:#ccc; stroke-width:0px;" /><circle id="SPH04417" cx="669.85" cy="814.02" r="9.2" style="fill:#ccc; stroke-width:0px;" /><circle id="SPH04418" cx="676.91" cy="838.46" r="9.2" style="fill:#ccc; stroke-width:0px;" /><circle id="SPH04419" cx="683.98" cy="862.9" r="9.2" style="fill:#ccc; stroke-width:0px;" /><circle id="SPH04420" cx="691.05" cy="887.36" r="9.2" style="fill:#ccc; stroke-width:0px;" /><circle id="SPH04421" cx="698.13" cy="911.81" r="9.2" style="fill:#ccc; stroke-width:0px;" /><circle id="SPH04422" cx="704.69" cy="936.37" r="9.2" style="fill:#ccc; stroke-width:0px;" /><circle id="SPH04423" cx="999.61" cy="437.54" r="9.2" style="fill:#ccc; stroke-width:0px;" /><circle id="SPH04424" cx="1008.26" cy="459.92" r="9.2" style="fill:#ccc; stroke-width:0px;" /><circle id="SPH04425" cx="1016.92" cy="482.3" r="9.2" style="fill:#ccc; stroke-width:0px;" /><circle id="SPH04426" cx="1025.57" cy="504.69" r="9.2" transform="translate(363.12 1436.17) rotate(-80.78)" style="fill:#ccc; stroke-width:0px;" /><circle id="SPH04427" cx="1033.78" cy="527.22" r="9.2" style="fill:#ccc; stroke-width:0px;" /><circle id="SPH04428" cx="1041.45" cy="549.97" r="9.2" style="fill:#ccc; stroke-width:0px;" /><circle id="SPH04429" cx="1049.12" cy="572.7" r="9.2" style="fill:#ccc; stroke-width:0px;" /><circle id="SPH04430" cx="1056.78" cy="595.45" r="9.2" style="fill:#ccc; stroke-width:0px;" /><circle id="SPH04431" cx="1064.45" cy="618.19" r="9.2" style="fill:#ccc; stroke-width:0px;" /><circle id="SPH04432" cx="1072.13" cy="640.94" r="9.2" style="fill:#ccc; stroke-width:0px;" /><circle id="SPH04433" cx="1079.8" cy="663.7" r="9.2" style="fill:#ccc; stroke-width:0px;" /><circle id="SPH04434" cx="1086.49" cy="686.74" r="9.2" style="fill:#ccc; stroke-width:0px;" /><circle id="SPH04435" cx="1093.15" cy="709.79" r="9.2" style="fill:#ccc; stroke-width:0px;" /><circle id="SPH04436" cx="1099.81" cy="732.83" r="9.2" style="fill:#ccc; stroke-width:0px;" /><circle id="SPH04437" cx="1106.48" cy="755.88" r="9.2" style="fill:#ccc; stroke-width:0px;" /><circle id="SPH04438" cx="1113.15" cy="778.94" r="9.2" style="fill:#ccc; stroke-width:0px;" /><circle id="SPH04439" cx="612.83" cy="535.26" r="9.2" style="fill:#ccc; stroke-width:0px;" /><circle id="SPH04440" cx="621.59" cy="557.94" r="9.2" style="fill:#ccc; stroke-width:0px;" /><circle id="SPH04441" cx="630.36" cy="580.61" r="9.2" style="fill:#ccc; stroke-width:0px;" /><circle id="SPH04442" cx="639.13" cy="603.28" r="9.2" style="fill:#ccc; stroke-width:0px;" /><circle id="SPH04443" cx="647.89" cy="625.95" r="9.2" style="fill:#ccc; stroke-width:0px;" /><circle id="SPH04444" cx="656.65" cy="648.62" r="9.2" style="fill:#ccc; stroke-width:0px;" /><circle id="SPH04445" cx="664.57" cy="671.61" r="9.2" style="fill:#ccc; stroke-width:0px;" /><circle id="SPH04446" cx="672.33" cy="694.64" r="9.2" style="fill:#ccc; stroke-width:0px;" /><circle id="SPH04447" cx="680.09" cy="717.67" r="9.2" style="fill:#ccc; stroke-width:0px;" /><circle id="SPH04448" cx="687.86" cy="740.7" r="9.2" style="fill:#ccc; stroke-width:0px;" /><circle id="SPH04449" cx="695.63" cy="763.74" r="9.2" style="fill:#ccc; stroke-width:0px;" /><circle id="SPH04450" cx="703.21" cy="786.83" r="9.2" style="fill:#ccc; stroke-width:0px;" /><circle id="SPH04451" cx="709.96" cy="810.18" r="9.2" style="fill:#ccc; stroke-width:0px;" /><circle id="SPH04452" cx="716.71" cy="833.54" r="9.2" style="fill:#ccc; stroke-width:0px;" /><circle id="SPH04453" cx="723.47" cy="856.9" r="9.2" style="fill:#ccc; stroke-width:0px;" /><circle id="SPH04454" cx="730.22" cy="880.27" r="9.2" style="fill:#ccc; stroke-width:0px;" /><circle id="SPH04455" cx="736.98" cy="903.64" r="9.2" style="fill:#ccc; stroke-width:0px;" /><circle id="SPH04456" cx="743.19" cy="927.13" r="9.2" style="fill:#ccc; stroke-width:0px;" /><circle id="SPH04457" cx="1020.75" cy="382.41" r="9.2" transform="translate(479.77 1328.72) rotate(-80.78)" style="fill:#ccc; stroke-width:0px;" /><circle id="SPH04458" cx="1029.41" cy="404.79" r="9.2" transform="translate(464.95 1356.07) rotate(-80.78)" style="fill:#ccc; stroke-width:0px;" /><circle id="SPH04459" cx="1038.06" cy="427.18" r="9.2" style="fill:#ccc; stroke-width:0px;" /><circle id="SPH04460" cx="1046.72" cy="449.57" r="9.2" style="fill:#ccc; stroke-width:0px;" /><circle id="SPH04461" cx="1055.37" cy="471.94" r="9.2" style="fill:#ccc; stroke-width:0px;" /><circle id="SPH04462" cx="1064.02" cy="494.33" r="9.2" style="fill:#ccc; stroke-width:0px;" /><circle id="SPH04463" cx="1072.1" cy="516.92" r="9.2" style="fill:#ccc; stroke-width:0px;" /><circle id="SPH04464" cx="1079.77" cy="539.66" r="9.2" style="fill:#ccc; stroke-width:0px;" /><circle id="SPH04465" cx="1087.44" cy="562.42" r="9.2" style="fill:#ccc; stroke-width:0px;" /><circle id="SPH04466" cx="1095.1" cy="585.15" r="9.2" style="fill:#ccc; stroke-width:0px;" /><circle id="SPH04467" cx="1102.77" cy="607.9" r="9.2" style="fill:#ccc; stroke-width:0px;" /><circle id="SPH04468" cx="1110.44" cy="630.64" r="9.2" style="fill:#ccc; stroke-width:0px;" /><circle id="SPH04469" cx="1118.06" cy="653.41" r="9.2" style="fill:#ccc; stroke-width:0px;" /><circle id="SPH04470" cx="1124.73" cy="676.45" r="9.2" style="fill:#ccc; stroke-width:0px;" /><circle id="SPH04471" cx="1131.39" cy="699.5" r="9.2" style="fill:#ccc; stroke-width:0px;" /><circle id="SPH04472" cx="1138.05" cy="722.54" r="9.2" style="fill:#ccc; stroke-width:0px;" /><circle id="SPH04473" cx="1144.72" cy="745.58" r="9.2" style="fill:#ccc; stroke-width:0px;" /><circle id="SPH04474" cx="1151.38" cy="768.62" r="9.2" style="fill:#ccc; stroke-width:0px;" /></g></svg>