<svg id="Layer_1" viewBox="0 0 1697.6 1405.17" xmlns="http://www.w3.org/2000/svg"><g id="back"><g id="back-2"><path id="sphere" d="M2680.79,1918.91c0-1528.34-1241.46-2769.81-2769.81-2769.81S-2858.83,390.57-2858.83,1918.91-1617.37,4688.72-89.02,4688.72h0c1528.34,0,2769.81-1241.46,2769.81-2769.81Z" style="fill:#f2f2f2; stroke:#ddd; stroke-miterlimit:10; stroke-width:3px;" /></g><g id="sectors"><path id="_208" d="M341.3,1050.12c-207.59,49.84-415.16,99.67-622.74,149.51-38.11-154.24-88.35-304.95-150.14-450.74,158.5-65.65,552.97-229.04,591.7-245.08,24.64,58.38,47.8,117.52,69.46,177.36h0c43.9,121.41,81.15,244.57,111.73,368.96h-.01Z" style="fill:#fff; stroke:#ddd; stroke-miterlimit:10; stroke-width:9px;" /><path id="_209" d="M160.12,503.81C87.36,333.72-5.37,150.33-104.57-6.48c-145.43,89.12-400.64,245.5-546.07,334.61,84.15,134.44,157.36,275.15,219.07,420.77h0C-273.07,683.25,1.62,569.46,160.12,503.81h0Z" style="fill:#fff; stroke:#ddd; stroke-miterlimit:10; stroke-width:9px;" /><path id="_207" d="M-200.1,1725.54c158.51-12.47,583.44-45.97,637.74-50.25-14.1-210.13-45.74-419.33-96.35-625.18-207.57,49.83-415.14,99.67-622.7,149.5,9.25,37.46,17.8,75.12,25.61,112.97h0c28.19,136.51,46.76,274.5,55.71,412.95h-.01Z" style="fill:#fff; stroke:#ddd; stroke-miterlimit:10; stroke-width:9px;" /><path id="_409" d="M1102.12,261.32c34.48-14.28,584.25-242.01,587.71-243.44-211.42-197-455.65-359.72-723.64-479.19-58.27,35.71-116.53,71.42-174.8,107.12,20.63,33.91,40.8,68.13,60.52,102.63h0c94.11,164.69,177.78,335.97,250.19,512.88h.02Z" style="fill:#fff; stroke:#ddd; stroke-miterlimit:10; stroke-width:9px;" /><path id="_307" d="M1416.69,1602.04c-207.68,16.35-415.36,32.69-623.03,49.04-3.99-55.87-9.25-111.67-15.76-167.35-16.51-141.27-41.03-281.35-73.41-419.58,202.57-48.63,405.14-97.27,607.72-145.9,19.57,83.27,36.66,166.98,51.27,251h0c24.96,143.5,42.69,287.95,53.2,432.79h.01Z" style="fill:#fff; stroke:#ddd; stroke-miterlimit:10; stroke-width:9px;" /><path id="_308" d="M1312.21,918.24c-202.58,48.64-405.16,97.27-607.72,145.9-12.93-55.23-27.11-110.16-42.53-164.76-75.94-20.35-151.87-40.69-227.81-61.04-13.06-40.84-26.87-81.5-41.44-121.97-16.85-46.81-34.67-93.18-53.41-139.09,254.24-105.31,508.48-210.62,762.73-315.93,23.67,57.81,46.14,116.22,67.38,175.2h0c57.02,158.36,104.64,319.19,142.8,481.68h0Z" style="fill:#fff; stroke:#ddd; stroke-miterlimit:10; stroke-width:9px;" /><path id="_309" d="M1102.03,261.36c-254.26,105.32-508.49,210.62-762.73,315.93C268.32,403.46,183.99,236.32,87.41,77.22c234.64-143.79,469.29-287.58,703.92-431.37,20.61,33.88,40.76,68.05,60.45,102.52h0c94.13,164.73,177.81,336.03,250.25,512.98h0Z" style="fill:#fff; stroke:#ddd; stroke-miterlimit:10; stroke-width:9px;" /><path id="_310" d="M246.09-666.21C95.14-556.54-55.81-446.87-206.75-337.2-99.06-206.44-.73-67.95,87.4,77.22,322.04-66.57,731.56-317.52,966.19-461.31c-130.35-55.93-201.76-83.24-322.88-120.04h0c-128.58-38.08-261.26-66.65-397.23-84.87h0Z" style="fill:#fff; stroke:#ddd; stroke-miterlimit:10; stroke-width:9px;" /><path id="_408" d="M1102.1,261.31c23.69,57.85,46.17,116.3,67.42,175.32,3.53,9.81,7.06,19.62,10.6,29.43,35.17,99.44,66.58,200.12,94.17,301.91,2.8,10.55,5.6,21.11,8.4,31.66,10.44,39.43,20.31,78.96,29.61,118.59,301.23-72.31,602.47-144.64,903.7-216.96-83.27-156.03-182.04-302.69-294.27-437.97-70.43-87.61-154.08-177.66-231.9-245.41,0,0-395.29,163.72-587.73,243.43Z" style="fill:#fff; stroke:#ddd; stroke-miterlimit:10; stroke-width:9px;" /><path id="_407" d="M1312.31,918.21c301.23-72.32,602.46-144.64,903.7-216.96,133.83,250.73,227.65,525.66,273.01,816.39-18.25,1.44-733.07,57.7-1072.22,84.39-10.5-144.81-28.24-289.24-53.19-432.71h0c-14.62-84.07-31.72-167.8-51.3-251.11h0Z" style="fill:#fff; stroke:#ddd; stroke-miterlimit:10; stroke-width:9px;" /></g></g><g id="Seats"><circle id="SPH05765" cx="757.22" cy="453.09" r="9.2" style="fill:#ccc; stroke-width:0px;" /><circle id="SPH05766" cx="765.69" cy="475.09" r="9.2" style="fill:#ccc; stroke-width:0px;" /><circle id="SPH05767" cx="774.15" cy="497.09" r="9.2" style="fill:#ccc; stroke-width:0px;" /><circle id="SPH05768" cx="782.63" cy="519.1" r="9.2" style="fill:#ccc; stroke-width:0px;" /><circle id="SPH05769" cx="791.1" cy="541.11" r="9.2" style="fill:#ccc; stroke-width:0px;" /><circle id="SPH05770" cx="799.56" cy="563.11" r="9.2" style="fill:#ccc; stroke-width:0px;" /><circle id="SPH05771" cx="807.4" cy="585.33" r="9.2" style="fill:#ccc; stroke-width:0px;" /><circle id="SPH05772" cx="814.91" cy="607.67" r="9.2" style="fill:#ccc; stroke-width:0px;" /><circle id="SPH05773" cx="822.41" cy="630.03" r="9.2" style="fill:#ccc; stroke-width:0px;" /><circle id="SPH05774" cx="829.92" cy="652.39" r="9.2" style="fill:#ccc; stroke-width:0px;" /><circle id="SPH05775" cx="837.43" cy="674.75" r="9.2" style="fill:#ccc; stroke-width:0px;" /><circle id="SPH05776" cx="844.93" cy="697.11" r="9.2" style="fill:#ccc; stroke-width:0px;" /><circle id="SPH05777" cx="852.43" cy="719.43" r="9.2" style="fill:#ccc; stroke-width:0px;" /><circle id="SPH05778" cx="859.63" cy="741.86" r="9.2" style="fill:#ccc; stroke-width:0px;" /><circle id="SPH05779" cx="866.15" cy="764.51" r="9.2" style="fill:#ccc; stroke-width:0px;" /><circle id="SPH05780" cx="872.68" cy="787.17" r="9.2" style="fill:#ccc; stroke-width:0px;" /><circle id="SPH05781" cx="879.2" cy="809.82" r="9.2" style="fill:#ccc; stroke-width:0px;" /><circle id="SPH05782" cx="885.73" cy="832.47" r="9.2" style="fill:#ccc; stroke-width:0px;" /><circle id="SPH05783" cx="892.26" cy="855.15" r="9.2" style="fill:#ccc; stroke-width:0px;" /><circle id="SPH05784" cx="898.79" cy="877.82" r="9.2" style="fill:#ccc; stroke-width:0px;" /><circle id="SPH05785" cx="905.31" cy="900.48" r="9.2" style="fill:#ccc; stroke-width:0px;" /><circle id="SPH05786" cx="910.88" cy="923.4" r="9.2" style="fill:#ccc; stroke-width:0px;" /><circle id="SPH05787" cx="916.43" cy="946.33" r="9.2" style="fill:#ccc; stroke-width:0px;" /><circle id="SPH05788" cx="921.96" cy="969.26" r="9.2" style="fill:#ccc; stroke-width:0px;" /><circle id="SPH05789" cx="793.82" cy="437.93" r="9.2" style="fill:#ccc; stroke-width:0px;" /><circle id="SPH05790" cx="802.03" cy="459.26" r="9.2" style="fill:#ccc; stroke-width:0px;" /><circle id="SPH05791" cx="810.23" cy="480.58" r="9.2" style="fill:#ccc; stroke-width:0px;" /><circle id="SPH05792" cx="818.44" cy="501.9" r="9.2" style="fill:#ccc; stroke-width:0px;" /><circle id="SPH05793" cx="826.64" cy="523.22" r="9.2" style="fill:#ccc; stroke-width:0px;" /><circle id="SPH05794" cx="834.85" cy="544.54" r="9.2" style="fill:#ccc; stroke-width:0px;" /><circle id="SPH05795" cx="842.69" cy="566.01" r="9.2" style="fill:#ccc; stroke-width:0px;" /><circle id="SPH05796" cx="849.96" cy="587.68" r="9.2" style="fill:#ccc; stroke-width:0px;" /><circle id="SPH05797" cx="857.23" cy="609.35" r="9.2" style="fill:#ccc; stroke-width:0px;" /><circle id="SPH05798" cx="864.51" cy="631" r="9.2" style="fill:#ccc; stroke-width:0px;" /><circle id="SPH05799" cx="871.79" cy="652.67" r="9.2" style="fill:#ccc; stroke-width:0px;" /><circle id="SPH05800" cx="879.06" cy="674.32" r="9.2" style="fill:#ccc; stroke-width:0px;" /><circle id="SPH05801" cx="886.33" cy="695.99" r="9.2" style="fill:#ccc; stroke-width:0px;" /><circle id="SPH05802" cx="893.6" cy="717.65" r="9.2" style="fill:#ccc; stroke-width:0px;" /><circle id="SPH05803" cx="900.17" cy="739.53" r="9.2" style="fill:#ccc; stroke-width:0px;" /><circle id="SPH05804" cx="906.49" cy="761.47" r="9.2" style="fill:#ccc; stroke-width:0px;" /><circle id="SPH05805" cx="912.81" cy="783.43" r="9.2" style="fill:#ccc; stroke-width:0px;" /><circle id="SPH05806" cx="919.14" cy="805.39" r="9.2" style="fill:#ccc; stroke-width:0px;" /><circle id="SPH05807" cx="925.46" cy="827.34" r="9.2" style="fill:#ccc; stroke-width:0px;" /><circle id="SPH05808" cx="931.79" cy="849.31" r="9.2" style="fill:#ccc; stroke-width:0px;" /><circle id="SPH05809" cx="938.11" cy="871.27" r="9.2" style="fill:#ccc; stroke-width:0px;" /><circle id="SPH05810" cx="944.35" cy="893.27" r="9.2" style="fill:#ccc; stroke-width:0px;" /><circle id="SPH05811" cx="949.71" cy="915.49" r="9.2" style="fill:#ccc; stroke-width:0px;" /><circle id="SPH05812" cx="955.08" cy="937.71" r="9.2" style="fill:#ccc; stroke-width:0px;" /><circle id="SPH05813" cx="960.45" cy="959.93" r="9.2" style="fill:#ccc; stroke-width:0px;" /><circle id="SPH05814" cx="830.41" cy="422.77" r="9.2" style="fill:#ccc; stroke-width:0px;" /><circle id="SPH05815" cx="838.71" cy="444.34" r="9.2" style="fill:#ccc; stroke-width:0px;" /><circle id="SPH05816" cx="847.02" cy="465.91" r="9.2" style="fill:#ccc; stroke-width:0px;" /><circle id="SPH05817" cx="855.32" cy="487.47" r="9.2" style="fill:#ccc; stroke-width:0px;" /><circle id="SPH05818" cx="863.62" cy="509.04" r="9.2" style="fill:#ccc; stroke-width:0px;" /><circle id="SPH05819" cx="871.92" cy="530.61" r="9.2" style="fill:#ccc; stroke-width:0px;" /><circle id="SPH05820" cx="879.86" cy="552.31" r="9.2" style="fill:#ccc; stroke-width:0px;" /><circle id="SPH05821" cx="887.21" cy="574.2" r="9.2" style="fill:#ccc; stroke-width:0px;" /><circle id="SPH05822" cx="894.56" cy="596.11" r="9.2" style="fill:#ccc; stroke-width:0px;" /><circle id="SPH05823" cx="901.91" cy="618.01" r="9.2" style="fill:#ccc; stroke-width:0px;" /><circle id="SPH05824" cx="909.28" cy="639.91" r="9.2" style="fill:#ccc; stroke-width:0px;" /><circle id="SPH05825" cx="916.62" cy="661.8" r="9.2" style="fill:#ccc; stroke-width:0px;" /><circle id="SPH05826" cx="923.98" cy="683.72" r="9.2" style="fill:#ccc; stroke-width:0px;" /><circle id="SPH05827" cx="931.35" cy="705.67" r="9.2" style="fill:#ccc; stroke-width:0px;" /><circle id="SPH05828" cx="937.99" cy="727.79" r="9.2" style="fill:#ccc; stroke-width:0px;" /><circle id="SPH05829" cx="944.39" cy="749.97" r="9.2" style="fill:#ccc; stroke-width:0px;" /><circle id="SPH05830" cx="950.78" cy="772.16" r="9.2" style="fill:#ccc; stroke-width:0px;" /><circle id="SPH05831" cx="957.17" cy="794.35" r="9.2" style="fill:#ccc; stroke-width:0px;" /><circle id="SPH05832" cx="963.56" cy="816.54" r="9.2" style="fill:#ccc; stroke-width:0px;" /><circle id="SPH05833" cx="969.95" cy="838.73" r="9.2" style="fill:#ccc; stroke-width:0px;" /><circle id="SPH05834" cx="976.35" cy="860.93" r="9.2" style="fill:#ccc; stroke-width:0px;" /><circle id="SPH05835" cx="982.63" cy="883.15" r="9.2" style="fill:#ccc; stroke-width:0px;" /><circle id="SPH05836" cx="988.06" cy="905.6" r="9.2" style="fill:#ccc; stroke-width:0px;" /><circle id="SPH05837" cx="993.48" cy="928.05" r="9.2" style="fill:#ccc; stroke-width:0px;" /><circle id="SPH05838" cx="998.91" cy="950.5" r="9.2" style="fill:#ccc; stroke-width:0px;" /><circle id="SPH05839" cx="867.01" cy="407.62" r="9.2" style="fill:#ccc; stroke-width:0px;" /><circle id="SPH05840" cx="875.4" cy="429.43" r="9.2" style="fill:#ccc; stroke-width:0px;" /><circle id="SPH05841" cx="883.8" cy="451.23" r="9.2" style="fill:#ccc; stroke-width:0px;" /><circle id="SPH05842" cx="892.19" cy="473.03" r="9.2" style="fill:#ccc; stroke-width:0px;" /><circle id="SPH05843" cx="900.59" cy="494.84" r="9.2" style="fill:#ccc; stroke-width:0px;" /><circle id="SPH05844" cx="908.98" cy="516.65" r="9.2" style="fill:#ccc; stroke-width:0px;" /><circle id="SPH05845" cx="917.03" cy="538.59" r="9.2" style="fill:#ccc; stroke-width:0px;" /><circle id="SPH05846" cx="924.47" cy="560.74" r="9.2" style="fill:#ccc; stroke-width:0px;" /><circle id="SPH05847" cx="931.9" cy="582.9" r="9.2" style="fill:#ccc; stroke-width:0px;" /><circle id="SPH05848" cx="939.34" cy="605.04" r="9.2" style="fill:#ccc; stroke-width:0px;" /><circle id="SPH05849" cx="946.78" cy="627.2" r="9.2" style="fill:#ccc; stroke-width:0px;" /><circle id="SPH05850" cx="954.21" cy="649.35" r="9.2" style="fill:#ccc; stroke-width:0px;" /><circle id="SPH05851" cx="961.66" cy="671.52" r="9.2" style="fill:#ccc; stroke-width:0px;" /><circle id="SPH05852" cx="969.11" cy="693.71" r="9.2" style="fill:#ccc; stroke-width:0px;" /><circle id="SPH05853" cx="975.83" cy="716.06" r="9.2" style="fill:#ccc; stroke-width:0px;" /><circle id="SPH05854" cx="982.29" cy="738.49" r="9.2" style="fill:#ccc; stroke-width:0px;" /><circle id="SPH05855" cx="988.75" cy="760.92" r="9.2" style="fill:#ccc; stroke-width:0px;" /><circle id="SPH05856" cx="995.21" cy="783.36" r="9.2" style="fill:#ccc; stroke-width:0px;" /><circle id="SPH05857" cx="1001.68" cy="805.81" r="9.2" style="fill:#ccc; stroke-width:0px;" /><circle id="SPH05858" cx="1008.14" cy="828.24" r="9.2" style="fill:#ccc; stroke-width:0px;" /><circle id="SPH05859" cx="1014.6" cy="850.67" r="9.2" style="fill:#ccc; stroke-width:0px;" /><circle id="SPH05860" cx="1020.95" cy="873.14" r="9.2" style="fill:#ccc; stroke-width:0px;" /><circle id="SPH05861" cx="1026.44" cy="895.86" r="9.2" transform="translate(-22.27 1765.54) rotate(-80.78)" style="fill:#ccc; stroke-width:0px;" /><circle id="SPH05862" cx="1031.94" cy="918.57" r="9.2" transform="translate(-40.07 1790.05) rotate(-80.78)" style="fill:#ccc; stroke-width:0px;" /><circle id="SPH05863" cx="1037.43" cy="941.29" r="9.2" style="fill:#ccc; stroke-width:0px;" /><circle id="SPH05864" cx="903.61" cy="392.45" r="9.2" style="fill:#ccc; stroke-width:0px;" /><circle id="SPH05865" cx="912.1" cy="414.51" r="9.2" style="fill:#ccc; stroke-width:0px;" /><circle id="SPH05866" cx="920.59" cy="436.55" r="9.2" style="fill:#ccc; stroke-width:0px;" /><circle id="SPH05867" cx="929.08" cy="458.61" r="9.2" style="fill:#ccc; stroke-width:0px;" /><circle id="SPH05868" cx="937.55" cy="480.66" r="9.2" style="fill:#ccc; stroke-width:0px;" /><circle id="SPH05869" cx="946.05" cy="502.71" r="9.2" style="fill:#ccc; stroke-width:0px;" /><circle id="SPH05870" cx="954.19" cy="524.87" r="9.2" style="fill:#ccc; stroke-width:0px;" /><circle id="SPH05871" cx="961.71" cy="547.27" r="9.2" style="fill:#ccc; stroke-width:0px;" /><circle id="SPH05872" cx="969.23" cy="569.67" r="9.2" style="fill:#ccc; stroke-width:0px;" /><circle id="SPH05873" cx="976.75" cy="592.07" r="9.2" style="fill:#ccc; stroke-width:0px;" /><circle id="SPH05874" cx="984.28" cy="614.48" r="9.2" style="fill:#ccc; stroke-width:0px;" /><circle id="SPH05875" cx="991.8" cy="636.88" r="9.2" style="fill:#ccc; stroke-width:0px;" /><circle id="SPH05876" cx="999.32" cy="659.29" r="9.2" style="fill:#ccc; stroke-width:0px;" /><circle id="SPH05877" cx="1006.85" cy="681.71" r="9.2" style="fill:#ccc; stroke-width:0px;" /><circle id="SPH05878" cx="1013.66" cy="704.32" r="9.2" style="fill:#ccc; stroke-width:0px;" /><circle id="SPH05879" cx="1020.19" cy="727.03" r="9.2" style="fill:#ccc; stroke-width:0px;" /><circle id="SPH05880" cx="1026.74" cy="749.73" r="9.2" transform="translate(122.23 1643.12) rotate(-80.78)" style="fill:#ccc; stroke-width:0px;" /><circle id="SPH05881" cx="1033.28" cy="772.43" r="9.2" style="fill:#ccc; stroke-width:0px;" /><circle id="SPH05882" cx="1039.82" cy="795.14" r="9.2" style="fill:#ccc; stroke-width:0px;" /><circle id="SPH05883" cx="1046.35" cy="817.84" r="9.2" style="fill:#ccc; stroke-width:0px;" /><circle id="SPH05884" cx="1052.89" cy="840.53" r="9.2" style="fill:#ccc; stroke-width:0px;" /><circle id="SPH05885" cx="1059.31" cy="863.25" r="9.2" style="fill:#ccc; stroke-width:0px;" /><circle id="SPH05886" cx="1064.86" cy="886.21" r="9.2" style="fill:#ccc; stroke-width:0px;" /><circle id="SPH05887" cx="1070.4" cy="909.18" r="9.2" style="fill:#ccc; stroke-width:0px;" /><circle id="SPH05888" cx="1075.95" cy="932.14" r="9.2" style="fill:#ccc; stroke-width:0px;" /><circle id="SPH05889" cx="940.2" cy="377.3" r="9.2" style="fill:#ccc; stroke-width:0px;" /><circle id="SPH05890" cx="948.44" cy="398.7" r="9.2" style="fill:#ccc; stroke-width:0px;" /><circle id="SPH05891" cx="956.68" cy="420.1" r="9.2" style="fill:#ccc; stroke-width:0px;" /><circle id="SPH05892" cx="964.92" cy="441.5" r="9.2" style="fill:#ccc; stroke-width:0px;" /><circle id="SPH05893" cx="973.15" cy="462.91" r="9.2" style="fill:#ccc; stroke-width:0px;" /><circle id="SPH05894" cx="981.39" cy="484.31" r="9.2" style="fill:#ccc; stroke-width:0px;" /><circle id="SPH05895" cx="989.54" cy="505.74" r="9.2" style="fill:#ccc; stroke-width:0px;" /><circle id="SPH05896" cx="996.84" cy="527.47" r="9.2" style="fill:#ccc; stroke-width:0px;" /><circle id="SPH05897" cx="1004.14" cy="549.23" r="9.2" style="fill:#ccc; stroke-width:0px;" /><circle id="SPH05898" cx="1011.44" cy="570.96" r="9.2" style="fill:#ccc; stroke-width:0px;" /><circle id="SPH05899" cx="1018.74" cy="592.71" r="9.2" transform="translate(270.5 1503.35) rotate(-80.78)" style="fill:#ccc; stroke-width:0px;" /><circle id="SPH05900" cx="1026.03" cy="614.44" r="9.2" transform="translate(255.17 1528.8) rotate(-80.78)" style="fill:#ccc; stroke-width:0px;" /><circle id="SPH05901" cx="1033.34" cy="636.19" r="9.2" style="fill:#ccc; stroke-width:0px;" /><circle id="SPH05902" cx="1040.63" cy="657.93" r="9.2" style="fill:#ccc; stroke-width:0px;" /><circle id="SPH05903" cx="1047.79" cy="679.72" r="9.2" style="fill:#ccc; stroke-width:0px;" /><circle id="SPH05904" cx="1054.14" cy="701.78" r="9.2" style="fill:#ccc; stroke-width:0px;" /><circle id="SPH05905" cx="1060.48" cy="723.81" r="9.2" style="fill:#ccc; stroke-width:0px;" /><circle id="SPH05906" cx="1066.83" cy="745.84" r="9.2" style="fill:#ccc; stroke-width:0px;" /><circle id="SPH05907" cx="1073.17" cy="767.87" r="9.2" style="fill:#ccc; stroke-width:0px;" /><circle id="SPH05908" cx="1079.51" cy="789.91" r="9.2" style="fill:#ccc; stroke-width:0px;" /><circle id="SPH05909" cx="1085.87" cy="811.94" r="9.2" style="fill:#ccc; stroke-width:0px;" /><circle id="SPH05910" cx="1092.21" cy="833.98" r="9.2" style="fill:#ccc; stroke-width:0px;" /><circle id="SPH05911" cx="1098.31" cy="856.07" r="9.2" style="fill:#ccc; stroke-width:0px;" /><circle id="SPH05912" cx="1103.7" cy="878.35" r="9.2" style="fill:#ccc; stroke-width:0px;" /><circle id="SPH05913" cx="1109.08" cy="900.63" r="9.2" style="fill:#ccc; stroke-width:0px;" /><circle id="SPH05914" cx="1114.46" cy="922.91" r="9.2" style="fill:#ccc; stroke-width:0px;" /><circle id="SPH05915" cx="976.8" cy="362.14" r="9.2" style="fill:#ccc; stroke-width:0px;" /><circle id="SPH05916" cx="985.13" cy="383.77" r="9.2" style="fill:#ccc; stroke-width:0px;" /><circle id="SPH05917" cx="993.46" cy="405.4" r="9.2" style="fill:#ccc; stroke-width:0px;" /><circle id="SPH05918" cx="1001.79" cy="427.03" r="9.2" style="fill:#ccc; stroke-width:0px;" /><circle id="SPH05919" cx="1010.11" cy="448.67" r="9.2" style="fill:#ccc; stroke-width:0px;" /><circle id="SPH05920" cx="1018.44" cy="470.31" r="9.2" style="fill:#ccc; stroke-width:0px;" /><circle id="SPH05921" cx="1026.69" cy="491.97" r="9.2" transform="translate(376.61 1426.6) rotate(-80.78)" style="fill:#ccc; stroke-width:0px;" /><circle id="SPH05922" cx="1034.07" cy="513.94" r="9.2" style="fill:#ccc; stroke-width:0px;" /><circle id="SPH05923" cx="1041.44" cy="535.91" r="9.2" style="fill:#ccc; stroke-width:0px;" /><circle id="SPH05924" cx="1048.82" cy="557.89" r="9.2" style="fill:#ccc; stroke-width:0px;" /><circle id="SPH05925" cx="1056.2" cy="579.87" r="9.2" style="fill:#ccc; stroke-width:0px;" /><circle id="SPH05926" cx="1063.58" cy="601.84" r="9.2" style="fill:#ccc; stroke-width:0px;" /><circle id="SPH05927" cx="1070.95" cy="623.81" r="9.2" style="fill:#ccc; stroke-width:0px;" /><circle id="SPH05928" cx="1078.33" cy="645.78" r="9.2" style="fill:#ccc; stroke-width:0px;" /><circle id="SPH05929" cx="1085.55" cy="667.79" r="9.2" style="fill:#ccc; stroke-width:0px;" /><circle id="SPH05930" cx="1091.98" cy="690.1" r="9.2" style="fill:#ccc; stroke-width:0px;" /><circle id="SPH05931" cx="1098.4" cy="712.39" r="9.2" style="fill:#ccc; stroke-width:0px;" /><circle id="SPH05932" cx="1104.82" cy="734.68" r="9.2" style="fill:#ccc; stroke-width:0px;" /><circle id="SPH05933" cx="1111.24" cy="756.98" r="9.2" style="fill:#ccc; stroke-width:0px;" /><circle id="SPH05934" cx="1117.66" cy="779.27" r="9.2" style="fill:#ccc; stroke-width:0px;" /><circle id="SPH05935" cx="1124.08" cy="801.55" r="9.2" style="fill:#ccc; stroke-width:0px;" /><circle id="SPH05936" cx="1130.5" cy="823.84" r="9.2" style="fill:#ccc; stroke-width:0px;" /><circle id="SPH05937" cx="1136.67" cy="846.19" r="9.2" style="fill:#ccc; stroke-width:0px;" /><circle id="SPH05938" cx="1142.11" cy="868.71" r="9.2" style="fill:#ccc; stroke-width:0px;" /><circle id="SPH05939" cx="1147.55" cy="891.22" r="9.2" style="fill:#ccc; stroke-width:0px;" /><circle id="SPH05940" cx="1152.98" cy="913.72" r="9.2" style="fill:#ccc; stroke-width:0px;" /><circle id="SPH05941" cx="1013.4" cy="346.98" r="9.2" style="fill:#ccc; stroke-width:0px;" /><circle id="SPH05942" cx="1021.82" cy="368.84" r="9.2" style="fill:#ccc; stroke-width:0px;" /><circle id="SPH05943" cx="1030.23" cy="390.71" r="9.2" transform="translate(479.54 1345.05) rotate(-80.78)" style="fill:#ccc; stroke-width:0px;" /><circle id="SPH05944" cx="1038.65" cy="412.58" r="9.2" style="fill:#ccc; stroke-width:0px;" /><circle id="SPH05945" cx="1047.07" cy="434.44" r="9.2" style="fill:#ccc; stroke-width:0px;" /><circle id="SPH05946" cx="1055.48" cy="456.31" r="9.2" style="fill:#ccc; stroke-width:0px;" /><circle id="SPH05947" cx="1063.83" cy="478.19" r="9.2" style="fill:#ccc; stroke-width:0px;" /><circle id="SPH05948" cx="1071.29" cy="500.4" r="9.2" style="fill:#ccc; stroke-width:0px;" /><circle id="SPH05949" cx="1078.75" cy="522.62" r="9.2" style="fill:#ccc; stroke-width:0px;" /><circle id="SPH05950" cx="1086.21" cy="544.83" r="9.2" style="fill:#ccc; stroke-width:0px;" /><circle id="SPH05951" cx="1093.67" cy="567.03" r="9.2" style="fill:#ccc; stroke-width:0px;" /><circle id="SPH05952" cx="1101.12" cy="589.24" r="9.2" style="fill:#ccc; stroke-width:0px;" /><circle id="SPH05953" cx="1108.57" cy="611.44" r="9.2" style="fill:#ccc; stroke-width:0px;" /><circle id="SPH05954" cx="1116.03" cy="633.63" r="9.2" style="fill:#ccc; stroke-width:0px;" /><circle id="SPH05955" cx="1123.33" cy="655.87" r="9.2" style="fill:#ccc; stroke-width:0px;" /><circle id="SPH05956" cx="1129.82" cy="678.4" r="9.2" style="fill:#ccc; stroke-width:0px;" /><circle id="SPH05957" cx="1136.31" cy="700.92" r="9.2" style="fill:#ccc; stroke-width:0px;" /><circle id="SPH05958" cx="1142.79" cy="723.45" r="9.2" style="fill:#ccc; stroke-width:0px;" /><circle id="SPH05959" cx="1149.28" cy="745.97" r="9.2" style="fill:#ccc; stroke-width:0px;" /><circle id="SPH05960" cx="1155.77" cy="768.49" r="9.2" style="fill:#ccc; stroke-width:0px;" /><circle id="SPH05961" cx="1162.26" cy="791.02" r="9.2" style="fill:#ccc; stroke-width:0px;" /><circle id="SPH05962" cx="1168.75" cy="813.54" r="9.2" style="fill:#ccc; stroke-width:0px;" /><circle id="SPH05963" cx="1174.97" cy="836.13" r="9.2" style="fill:#ccc; stroke-width:0px;" /><circle id="SPH05964" cx="1180.48" cy="858.92" r="9.2" style="fill:#ccc; stroke-width:0px;" /><circle id="SPH05965" cx="1185.99" cy="881.71" r="9.2" style="fill:#ccc; stroke-width:0px;" /><circle id="SPH05966" cx="1191.5" cy="904.51" r="9.2" style="fill:#ccc; stroke-width:0px;" /><g id="GMYDQOSXIM5DEMA"><circle cx="1082.4" cy="344.77" r="9.2" style="fill:#ccc; stroke-width:0px;" /><path d="M1081.21,339.34c0-.3.25-.55.55-.55s.54.25.54.55-.24.55-.55.55-.55-.25-.55-.55h.01ZM1081.77,337.96c-.76,0-1.37.61-1.37,1.37h0c0,.77.61,1.39,1.36,1.39s1.37-.62,1.36-1.37h0c0-.76-.61-1.38-1.36-1.38h.01ZM1084.71,341.26v.83l-3.05.03v2.98l3.86.04.79,3.54.93-.14.12.82-1.68.25-.81-3.65-4.03-.04v-4.61l3.86-.04h.01ZM1080.24,344.21c-1.17.26-2,1.31-2,2.51,0,1.41,1.13,2.56,2.54,2.56h0c1.4,0,2.54-1.15,2.54-2.56h.82c0,1.86-1.49,3.38-3.36,3.39h0c-1.86-.01-3.36-1.53-3.36-3.39,0-1.59,1.1-2.97,2.65-3.32l.17.81h0Z" style="fill:#ccc; stroke-width:0px;" /></g><circle id="SPH05968" cx="1092.74" cy="371.64" r="9.2" style="fill:#ccc; stroke-width:0px;" /><circle id="SPH05969" cx="1103.08" cy="398.51" r="9.2" style="fill:#ccc; stroke-width:0px;" /><circle id="SPH05970" cx="1113.42" cy="425.39" r="9.2" style="fill:#ccc; stroke-width:0px;" /><g id="GMYDQOSXIM5DCNQ"><circle cx="1123.76" cy="452.26" r="9.2" style="fill:#ccc; stroke-width:0px;" /><path d="M1122.58,446.83c0-.3.25-.55.55-.55s.54.25.54.55-.24.55-.55.55-.55-.25-.55-.55h.01ZM1123.13,445.45c-.76,0-1.37.61-1.37,1.37h0c0,.77.61,1.39,1.36,1.39s1.37-.62,1.36-1.37h0c0-.76-.61-1.38-1.36-1.38h.01ZM1126.08,448.75v.83l-3.05.03v2.98l3.86.04.79,3.54.93-.14.12.82-1.68.25-.81-3.65-4.03-.04v-4.61l3.86-.04h.01ZM1121.61,451.7c-1.17.26-2,1.31-2,2.51,0,1.41,1.13,2.56,2.54,2.56h0c1.4,0,2.54-1.15,2.54-2.56h.82c0,1.86-1.49,3.38-3.36,3.39h0c-1.86-.01-3.36-1.53-3.36-3.39,0-1.59,1.1-2.97,2.65-3.32l.17.81h0Z" style="fill:#ccc; stroke-width:0px;" /></g><g id="GMYDQOSXIM5DCNI"><circle cx="1133.07" cy="479.51" r="9.2" style="fill:#ccc; stroke-width:0px;" /><path d="M1131.89,474.08c0-.3.25-.55.55-.55s.54.25.54.55-.24.55-.55.55-.55-.25-.55-.55h.01ZM1132.45,472.7c-.76,0-1.37.61-1.37,1.37h0c0,.77.61,1.39,1.36,1.39s1.37-.62,1.36-1.37h0c0-.76-.61-1.38-1.36-1.38h.01ZM1135.39,476v.83l-3.05.03v2.98l3.86.04.79,3.54.93-.14.12.82-1.68.25-.81-3.65-4.03-.04v-4.61l3.86-.04h.01ZM1130.92,478.95c-1.17.26-2,1.31-2,2.51,0,1.41,1.13,2.56,2.54,2.56h0c1.4,0,2.54-1.15,2.54-2.56h.82c0,1.86-1.49,3.38-3.36,3.39h0c-1.86-.01-3.36-1.53-3.36-3.39,0-1.59,1.1-2.97,2.65-3.32l.17.81h0Z" style="fill:#ccc; stroke-width:0px;" /></g><g id="GMYDQOSXIM5DCNA"><circle cx="1142.24" cy="506.81" r="9.2" style="fill:#ccc; stroke-width:0px;" /><path d="M1141.06,501.38c0-.3.25-.55.55-.55s.54.25.54.55-.24.55-.55.55-.55-.25-.55-.55h.01ZM1141.61,500c-.76,0-1.37.61-1.37,1.37h0c0,.77.61,1.39,1.36,1.39s1.37-.62,1.36-1.37h0c0-.76-.61-1.38-1.36-1.38h.01ZM1144.56,503.3v.83l-3.05.03v2.98l3.86.04.79,3.54.93-.14.12.82-1.68.25-.81-3.65-4.03-.04v-4.61l3.86-.04h.01ZM1140.09,506.25c-1.17.26-2,1.31-2,2.51,0,1.41,1.13,2.56,2.54,2.56h0c1.4,0,2.54-1.15,2.54-2.56h.82c0,1.86-1.49,3.38-3.36,3.39h0c-1.86-.01-3.36-1.53-3.36-3.39,0-1.59,1.1-2.97,2.65-3.32l.17.81h0Z" style="fill:#ccc; stroke-width:0px;" /></g><g id="GMYDQOSXIM5DCMY"><circle cx="1151.41" cy="534.11" r="9.2" style="fill:#ccc; stroke-width:0px;" /><path d="M1150.23,528.69c0-.3.25-.55.55-.55s.54.25.54.55-.24.55-.55.55-.55-.25-.55-.55h.01ZM1150.78,527.31c-.76,0-1.37.61-1.37,1.37h0c0,.77.61,1.39,1.36,1.39s1.37-.62,1.36-1.37h0c0-.76-.61-1.38-1.36-1.38h.01ZM1153.72,530.61v.83l-3.05.03v2.98l3.86.04.79,3.54.93-.14.12.82-1.68.25-.81-3.65-4.03-.04v-4.61l3.86-.04h.01ZM1149.26,533.55c-1.17.26-2,1.31-2,2.51,0,1.41,1.13,2.56,2.54,2.56h0c1.4,0,2.54-1.15,2.54-2.56h.82c0,1.86-1.49,3.38-3.36,3.39h0c-1.86-.01-3.36-1.53-3.36-3.39,0-1.59,1.1-2.97,2.65-3.32l.17.81h0Z" style="fill:#ccc; stroke-width:0px;" /></g><g id="GMYDQOSXIM5DCMQ"><circle cx="1160.57" cy="561.42" r="9.2" style="fill:#ccc; stroke-width:0px;" /><path d="M1159.39,555.99c0-.3.25-.55.55-.55s.54.25.54.55-.24.55-.55.55-.55-.25-.55-.55h.01ZM1159.94,554.61c-.76,0-1.37.61-1.37,1.37h0c0,.77.61,1.39,1.36,1.39s1.37-.62,1.36-1.37h0c0-.76-.61-1.38-1.36-1.38h.01ZM1162.88,557.91v.83l-3.05.03v2.98l3.86.04.79,3.54.93-.14.12.82-1.68.25-.81-3.65-4.03-.04v-4.61l3.86-.04h.01ZM1158.42,560.86c-1.17.26-2,1.31-2,2.51,0,1.41,1.13,2.56,2.54,2.56h0c1.4,0,2.54-1.15,2.54-2.56h.82c0,1.86-1.49,3.38-3.36,3.39h0c-1.86-.01-3.36-1.53-3.36-3.39,0-1.59,1.1-2.97,2.65-3.32l.17.81h0Z" style="fill:#ccc; stroke-width:0px;" /></g><g id="GMYDQOSXIM5DCMI"><circle cx="1169.73" cy="588.69" r="9.2" style="fill:#ccc; stroke-width:0px;" /><path d="M1168.55,583.26c0-.3.25-.55.55-.55s.54.25.54.55-.24.55-.55.55-.55-.25-.55-.55h.01ZM1169.1,581.88c-.76,0-1.37.61-1.37,1.37h0c0,.77.61,1.39,1.36,1.39s1.37-.62,1.36-1.37h0c0-.76-.61-1.38-1.36-1.38h.01ZM1172.04,585.18v.83l-3.05.03v2.98l3.86.04.79,3.54.93-.14.12.82-1.68.25-.81-3.65-4.03-.04v-4.61l3.86-.04h.01ZM1167.58,588.13c-1.17.26-2,1.31-2,2.51,0,1.41,1.13,2.56,2.54,2.56h0c1.4,0,2.54-1.15,2.54-2.56h.82c0,1.86-1.49,3.38-3.36,3.39h0c-1.86-.01-3.36-1.53-3.36-3.39,0-1.59,1.1-2.97,2.65-3.32l.17.81h0Z" style="fill:#ccc; stroke-width:0px;" /></g><g id="GMYDQOSXIM5DCMA"><circle cx="1178.88" cy="615.95" r="9.2" style="fill:#ccc; stroke-width:0px;" /><path d="M1177.7,610.53c0-.3.25-.55.55-.55s.54.25.54.55-.24.55-.55.55-.55-.25-.55-.55h.01ZM1178.25,609.15c-.76,0-1.37.61-1.37,1.37h0c0,.77.61,1.39,1.36,1.39s1.37-.62,1.36-1.37h0c0-.76-.61-1.38-1.36-1.38h.01ZM1181.2,612.45v.83l-3.05.03v2.98l3.86.04.79,3.54.93-.14.12.82-1.68.25-.81-3.65-4.03-.04v-4.61l3.86-.04h.01ZM1176.73,615.39c-1.17.26-2,1.31-2,2.51,0,1.41,1.13,2.56,2.54,2.56h0c1.4,0,2.54-1.15,2.54-2.56h.82c0,1.86-1.49,3.38-3.36,3.39h0c-1.86-.01-3.36-1.53-3.36-3.39,0-1.59,1.1-2.97,2.65-3.32l.17.81h0Z" style="fill:#ccc; stroke-width:0px;" /></g><circle id="SPH05978" cx="1187.59" cy="643.38" r="9.2" style="fill:#ccc; stroke-width:0px;" /><circle id="SPH05979" cx="1195.56" cy="671.07" r="9.2" style="fill:#ccc; stroke-width:0px;" /><circle id="SPH05980" cx="1203.54" cy="698.75" r="9.2" style="fill:#ccc; stroke-width:0px;" /><circle id="SPH05981" cx="1211.51" cy="726.43" r="9.2" style="fill:#ccc; stroke-width:0px;" /><g id="GMYDQOSXIM5DK"><circle cx="1219.48" cy="754.11" r="9.2" style="fill:#ccc; stroke-width:0px;" /><path d="M1218.3,748.69c0-.3.25-.55.55-.55s.54.25.54.55-.24.55-.55.55-.55-.25-.55-.55h.01ZM1218.85,747.31c-.76,0-1.37.61-1.37,1.37h0c0,.77.61,1.39,1.36,1.39s1.37-.62,1.36-1.37h0c0-.76-.61-1.38-1.36-1.38h.01ZM1221.8,750.61v.83l-3.05.03v2.98l3.86.04.79,3.54.93-.14.12.82-1.68.25-.81-3.65-4.03-.04v-4.61l3.86-.04h.01ZM1217.33,753.55c-1.17.26-2,1.31-2,2.51,0,1.41,1.13,2.56,2.54,2.56h0c1.4,0,2.54-1.15,2.54-2.56h.82c0,1.86-1.49,3.38-3.36,3.39h0c-1.86-.01-3.36-1.53-3.36-3.39,0-1.59,1.1-2.97,2.65-3.32l.17.81h0Z" style="fill:#ccc; stroke-width:0px;" /></g><g id="GMYDQOSXIM5DI"><circle cx="1227.46" cy="781.8" r="9.2" style="fill:#ccc; stroke-width:0px;" /><path d="M1226.28,776.37c0-.3.25-.55.55-.55s.54.25.54.55-.24.55-.55.55-.55-.25-.55-.55h.01ZM1226.83,774.99c-.76,0-1.37.61-1.37,1.37h0c0,.77.61,1.39,1.36,1.39s1.37-.62,1.36-1.37h0c0-.76-.61-1.38-1.36-1.38h.01ZM1229.77,778.29v.83l-3.05.03v2.98l3.86.04.79,3.54.93-.14.12.82-1.68.25-.81-3.65-4.03-.04v-4.61l3.86-.04h.01ZM1225.31,781.24c-1.17.26-2,1.31-2,2.51,0,1.41,1.13,2.56,2.54,2.56h0c1.4,0,2.54-1.15,2.54-2.56h.82c0,1.86-1.49,3.38-3.36,3.39h0c-1.86-.01-3.36-1.53-3.36-3.39,0-1.59,1.1-2.97,2.65-3.32l.17.81h0Z" style="fill:#ccc; stroke-width:0px;" /></g><g id="GMYDQOSXIM5DG"><circle cx="1235.43" cy="809.49" r="9.2" style="fill:#ccc; stroke-width:0px;" /><path d="M1234.25,804.06c0-.3.25-.55.55-.55s.54.25.54.55-.24.55-.55.55-.55-.25-.55-.55h.01ZM1234.81,802.68c-.76,0-1.37.61-1.37,1.37h0c0,.77.61,1.39,1.36,1.39s1.37-.62,1.36-1.37h0c0-.76-.61-1.38-1.36-1.38h.01ZM1237.75,805.98v.83l-3.05.03v2.98l3.86.04.79,3.54.93-.14.12.82-1.68.25-.81-3.65-4.03-.04v-4.61l3.86-.04h.01ZM1233.28,808.93c-1.17.26-2,1.31-2,2.51,0,1.41,1.13,2.56,2.54,2.56h0c1.4,0,2.54-1.15,2.54-2.56h.82c0,1.86-1.49,3.38-3.36,3.39h0c-1.86-.01-3.36-1.53-3.36-3.39,0-1.59,1.1-2.97,2.65-3.32l.17.81h0Z" style="fill:#ccc; stroke-width:0px;" /></g><g id="GMYDQOSXIM5DE"><circle cx="1242.32" cy="837.44" r="9.2" style="fill:#ccc; stroke-width:0px;" /><path d="M1241.13,832.01c0-.3.25-.55.55-.55s.54.25.54.55-.24.55-.55.55-.55-.25-.55-.55h.01ZM1241.69,830.63c-.76,0-1.37.61-1.37,1.37h0c0,.77.61,1.39,1.36,1.39s1.37-.62,1.36-1.37h0c0-.76-.61-1.38-1.36-1.38h.01ZM1244.63,833.93v.83l-3.05.03v2.98l3.86.04.79,3.54.93-.14.12.82-1.68.25-.81-3.65-4.03-.04v-4.61l3.86-.04h.01ZM1240.16,836.88c-1.17.26-2,1.31-2,2.51,0,1.41,1.13,2.56,2.54,2.56h0c1.4,0,2.54-1.15,2.54-2.56h.82c0,1.86-1.49,3.38-3.36,3.39h0c-1.86-.01-3.36-1.53-3.36-3.39,0-1.59,1.1-2.97,2.65-3.32l.17.81h0Z" style="fill:#ccc; stroke-width:0px;" /></g><circle id="SPH05986" cx="1249.08" cy="865.42" r="9.2" style="fill:#ccc; stroke-width:0px;" /><circle id="SPH05987" cx="391.25" cy="604.67" r="9.2" style="fill:#ccc; stroke-width:0px;" /><circle id="SPH05988" cx="399.87" cy="627.07" r="9.2" style="fill:#ccc; stroke-width:0px;" /><circle id="SPH05989" cx="408.49" cy="649.47" r="9.2" style="fill:#ccc; stroke-width:0px;" /><circle id="SPH05990" cx="417.11" cy="671.86" r="9.2" style="fill:#ccc; stroke-width:0px;" /><circle id="SPH05991" cx="425.73" cy="694.26" r="9.2" style="fill:#ccc; stroke-width:0px;" /><circle id="SPH05992" cx="433.83" cy="716.84" r="9.2" style="fill:#ccc; stroke-width:0px;" /><circle id="SPH05993" cx="441.48" cy="739.59" r="9.2" style="fill:#ccc; stroke-width:0px;" /><circle id="SPH05994" cx="449.11" cy="762.35" r="9.2" style="fill:#ccc; stroke-width:0px;" /><circle id="SPH05995" cx="456.75" cy="785.11" r="9.2" style="fill:#ccc; stroke-width:0px;" /><circle id="SPH05996" cx="427.84" cy="589.52" r="9.2" style="fill:#ccc; stroke-width:0px;" /><circle id="SPH05997" cx="436.47" cy="611.91" r="9.2" style="fill:#ccc; stroke-width:0px;" /><circle id="SPH05998" cx="445.08" cy="634.31" r="9.2" style="fill:#ccc; stroke-width:0px;" /><circle id="SPH05999" cx="453.71" cy="656.71" r="9.2" style="fill:#ccc; stroke-width:0px;" /><circle id="SPH06000" cx="462.33" cy="679.11" r="9.2" style="fill:#ccc; stroke-width:0px;" /><circle id="SPH06001" cx="470.51" cy="701.67" r="9.2" style="fill:#ccc; stroke-width:0px;" /><circle id="SPH06002" cx="478.15" cy="724.43" r="9.2" style="fill:#ccc; stroke-width:0px;" /><circle id="SPH06003" cx="485.79" cy="747.19" r="9.2" style="fill:#ccc; stroke-width:0px;" /><circle id="SPH06004" cx="493.43" cy="769.94" r="9.2" style="fill:#ccc; stroke-width:0px;" /><circle id="SPH06005" cx="501.08" cy="792.7" r="9.2" style="fill:#ccc; stroke-width:0px;" /><circle id="SPH06006" cx="508.71" cy="815.46" r="9.2" transform="translate(-377.71 1186.98) rotate(-80.78)" style="fill:#ccc; stroke-width:0px;" /><circle id="SPH06007" cx="464.44" cy="574.36" r="9.2" style="fill:#ccc; stroke-width:0px;" /><circle id="SPH06008" cx="473.07" cy="596.76" r="9.2" style="fill:#ccc; stroke-width:0px;" /><circle id="SPH06009" cx="481.68" cy="619.15" r="9.2" style="fill:#ccc; stroke-width:0px;" /><circle id="SPH06010" cx="490.31" cy="641.55" r="9.2" style="fill:#ccc; stroke-width:0px;" /><circle id="SPH06011" cx="498.92" cy="663.95" r="9.2" style="fill:#ccc; stroke-width:0px;" /><circle id="SPH06012" cx="507.19" cy="686.47" r="9.2" style="fill:#ccc; stroke-width:0px;" /><circle id="SPH06013" cx="514.83" cy="709.23" r="9.2" style="fill:#ccc; stroke-width:0px;" /><circle id="SPH06014" cx="522.47" cy="731.99" r="9.2" style="fill:#ccc; stroke-width:0px;" /><circle id="SPH06015" cx="530.1" cy="754.73" r="9.2" style="fill:#ccc; stroke-width:0px;" /><circle id="SPH06016" cx="537.74" cy="777.47" r="9.2" style="fill:#ccc; stroke-width:0px;" /><circle id="SPH06017" cx="545.37" cy="800.22" r="9.2" style="fill:#ccc; stroke-width:0px;" /><circle id="SPH06018" cx="553.01" cy="822.97" r="9.2" style="fill:#ccc; stroke-width:0px;" /><circle id="SPH06019" cx="501.04" cy="559.2" r="9.2" style="fill:#ccc; stroke-width:0px;" /><circle id="SPH06020" cx="509.66" cy="581.59" r="9.2" transform="translate(-146.06 991.51) rotate(-80.78)" style="fill:#ccc; stroke-width:0px;" /><circle id="SPH06021" cx="518.28" cy="603.99" r="9.2" style="fill:#ccc; stroke-width:0px;" /><circle id="SPH06022" cx="526.91" cy="626.39" r="9.2" style="fill:#ccc; stroke-width:0px;" /><circle id="SPH06023" cx="535.52" cy="648.79" r="9.2" style="fill:#ccc; stroke-width:0px;" /><circle id="SPH06024" cx="543.86" cy="671.29" r="9.2" style="fill:#ccc; stroke-width:0px;" /><circle id="SPH06025" cx="551.5" cy="694.03" r="9.2" style="fill:#ccc; stroke-width:0px;" /><circle id="SPH06026" cx="559.14" cy="716.79" r="9.2" style="fill:#ccc; stroke-width:0px;" /><circle id="SPH06027" cx="566.77" cy="739.54" r="9.2" style="fill:#ccc; stroke-width:0px;" /><circle id="SPH06028" cx="574.41" cy="762.29" r="9.2" style="fill:#ccc; stroke-width:0px;" /><circle id="SPH06029" cx="582.05" cy="785.03" r="9.2" style="fill:#ccc; stroke-width:0px;" /><circle id="SPH06030" cx="589.68" cy="807.78" r="9.2" style="fill:#ccc; stroke-width:0px;" /><circle id="SPH06031" cx="596.76" cy="830.73" r="9.2" style="fill:#ccc; stroke-width:0px;" /><circle id="SPH06032" cx="537.63" cy="544.04" r="9.2" style="fill:#ccc; stroke-width:0px;" /><circle id="SPH06033" cx="546.26" cy="566.44" r="9.2" style="fill:#ccc; stroke-width:0px;" /><circle id="SPH06034" cx="554.88" cy="588.83" r="9.2" style="fill:#ccc; stroke-width:0px;" /><circle id="SPH06035" cx="563.5" cy="611.23" r="9.2" style="fill:#ccc; stroke-width:0px;" /><circle id="SPH06036" cx="572.12" cy="633.63" r="9.2" style="fill:#ccc; stroke-width:0px;" /><circle id="SPH06037" cx="580.53" cy="656.1" r="9.2" style="fill:#ccc; stroke-width:0px;" /><circle id="SPH06038" cx="588.17" cy="678.87" r="9.2" style="fill:#ccc; stroke-width:0px;" /><circle id="SPH06039" cx="595.82" cy="701.62" r="9.2" style="fill:#ccc; stroke-width:0px;" /><circle id="SPH06040" cx="603.45" cy="724.38" r="9.2" style="fill:#ccc; stroke-width:0px;" /><circle id="SPH06041" cx="611.09" cy="747.12" r="9.2" style="fill:#ccc; stroke-width:0px;" /><circle id="SPH06042" cx="618.73" cy="769.87" r="9.2" style="fill:#ccc; stroke-width:0px;" /><circle id="SPH06043" cx="626.37" cy="792.63" r="9.2" style="fill:#ccc; stroke-width:0px;" /><circle id="SPH06044" cx="633.58" cy="815.49" r="9.2" style="fill:#ccc; stroke-width:0px;" /><circle id="SPH06045" cx="640.22" cy="838.54" r="9.2" style="fill:#ccc; stroke-width:0px;" /><circle id="SPH06046" cx="574.23" cy="528.88" r="9.2" style="fill:#ccc; stroke-width:0px;" /><circle id="SPH06047" cx="582.58" cy="550.56" r="9.2" style="fill:#ccc; stroke-width:0px;" /><circle id="SPH06048" cx="590.92" cy="572.24" r="9.2" style="fill:#ccc; stroke-width:0px;" /><circle id="SPH06049" cx="599.27" cy="593.92" r="9.2" style="fill:#ccc; stroke-width:0px;" /><circle id="SPH06050" cx="607.61" cy="615.59" r="9.2" style="fill:#ccc; stroke-width:0px;" /><circle id="SPH06051" cx="615.95" cy="637.27" r="9.2" style="fill:#ccc; stroke-width:0px;" /><circle id="SPH06052" cx="623.37" cy="659.29" r="9.2" style="fill:#ccc; stroke-width:0px;" /><circle id="SPH06053" cx="630.77" cy="681.31" r="9.2" style="fill:#ccc; stroke-width:0px;" /><circle id="SPH06054" cx="638.16" cy="703.35" r="9.2" style="fill:#ccc; stroke-width:0px;" /><circle id="SPH06055" cx="645.55" cy="725.36" r="9.2" style="fill:#ccc; stroke-width:0px;" /><circle id="SPH06056" cx="652.95" cy="747.39" r="9.2" style="fill:#ccc; stroke-width:0px;" /><circle id="SPH06057" cx="660.35" cy="769.42" r="9.2" style="fill:#ccc; stroke-width:0px;" /><circle id="SPH06058" cx="667.75" cy="791.46" r="9.2" style="fill:#ccc; stroke-width:0px;" /><circle id="SPH06059" cx="674.29" cy="813.74" r="9.2" style="fill:#ccc; stroke-width:0px;" /><circle id="SPH06060" cx="680.71" cy="836.06" r="9.2" style="fill:#ccc; stroke-width:0px;" /><circle id="SPH06061" cx="687.14" cy="858.38" r="9.2" style="fill:#ccc; stroke-width:0px;" /><circle id="SPH06062" cx="693.57" cy="880.69" r="9.2" style="fill:#ccc; stroke-width:0px;" /><circle id="SPH06063" cx="699.99" cy="903" r="9.2" style="fill:#ccc; stroke-width:0px;" /><circle id="SPH06064" cx="706.43" cy="925.32" r="9.2" style="fill:#ccc; stroke-width:0px;" /><circle id="SPH06065" cx="712.85" cy="947.64" r="9.2" style="fill:#ccc; stroke-width:0px;" /><circle id="SPH06066" cx="718.49" cy="970.18" r="9.2" style="fill:#ccc; stroke-width:0px;" /><circle id="SPH06067" cx="723.95" cy="992.81" r="9.2" style="fill:#ccc; stroke-width:0px;" /><circle id="SPH06068" cx="729.43" cy="1015.45" r="9.2" style="fill:#ccc; stroke-width:0px;" /><circle id="SPH06069" cx="610.83" cy="513.72" r="9.2" style="fill:#ccc; stroke-width:0px;" /><circle id="SPH06070" cx="619.28" cy="535.67" r="9.2" style="fill:#ccc; stroke-width:0px;" /><circle id="SPH06071" cx="627.72" cy="557.61" r="9.2" style="fill:#ccc; stroke-width:0px;" /><circle id="SPH06072" cx="636.17" cy="579.55" r="9.2" style="fill:#ccc; stroke-width:0px;" /><circle id="SPH06073" cx="644.62" cy="601.5" r="9.2" style="fill:#ccc; stroke-width:0px;" /><circle id="SPH06074" cx="653.07" cy="623.44" r="9.2" style="fill:#ccc; stroke-width:0px;" /><circle id="SPH06075" cx="660.59" cy="645.71" r="9.2" style="fill:#ccc; stroke-width:0px;" /><circle id="SPH06076" cx="668.08" cy="668.01" r="9.2" style="fill:#ccc; stroke-width:0px;" /><circle id="SPH06077" cx="675.56" cy="690.31" r="9.2" style="fill:#ccc; stroke-width:0px;" /><circle id="SPH06078" cx="683.04" cy="712.6" r="9.2" style="fill:#ccc; stroke-width:0px;" /><circle id="SPH06079" cx="690.53" cy="734.89" r="9.2" style="fill:#ccc; stroke-width:0px;" /><circle id="SPH06080" cx="698.02" cy="757.19" r="9.2" style="fill:#ccc; stroke-width:0px;" /><circle id="SPH06081" cx="705.5" cy="779.48" r="9.2" style="fill:#ccc; stroke-width:0px;" /><circle id="SPH06082" cx="712.12" cy="802.04" r="9.2" style="fill:#ccc; stroke-width:0px;" /><circle id="SPH06083" cx="718.63" cy="824.63" r="9.2" style="fill:#ccc; stroke-width:0px;" /><circle id="SPH06084" cx="725.13" cy="847.2" r="9.2" style="fill:#ccc; stroke-width:0px;" /><circle id="SPH06085" cx="731.63" cy="869.78" r="9.2" style="fill:#ccc; stroke-width:0px;" /><circle id="SPH06086" cx="738.14" cy="892.35" r="9.2" style="fill:#ccc; stroke-width:0px;" /><circle id="SPH06087" cx="744.64" cy="914.94" r="9.2" style="fill:#ccc; stroke-width:0px;" /><circle id="SPH06088" cx="751.15" cy="937.51" r="9.2" style="fill:#ccc; stroke-width:0px;" /><circle id="SPH06089" cx="756.85" cy="960.33" r="9.2" style="fill:#ccc; stroke-width:0px;" /><circle id="SPH06090" cx="762.38" cy="983.23" r="9.2" style="fill:#ccc; stroke-width:0px;" /><circle id="SPH06091" cx="767.91" cy="1006.15" r="9.2" style="fill:#ccc; stroke-width:0px;" /><circle id="SPH06092" cx="647.43" cy="498.57" r="9.2" style="fill:#ccc; stroke-width:0px;" /><circle id="SPH06093" cx="655.98" cy="520.77" r="9.2" style="fill:#ccc; stroke-width:0px;" /><circle id="SPH06094" cx="664.52" cy="542.99" r="9.2" style="fill:#ccc; stroke-width:0px;" /><circle id="SPH06095" cx="673.08" cy="565.19" r="9.2" style="fill:#ccc; stroke-width:0px;" /><circle id="SPH06096" cx="681.62" cy="587.4" r="9.2" style="fill:#ccc; stroke-width:0px;" /><circle id="SPH06097" cx="690.17" cy="609.61" r="9.2" style="fill:#ccc; stroke-width:0px;" /><circle id="SPH06098" cx="697.8" cy="632.15" r="9.2" style="fill:#ccc; stroke-width:0px;" /><circle id="SPH06099" cx="705.38" cy="654.7" r="9.2" style="fill:#ccc; stroke-width:0px;" /><circle id="SPH06100" cx="712.95" cy="677.25" r="9.2" style="fill:#ccc; stroke-width:0px;" /><circle id="SPH06101" cx="720.52" cy="699.8" r="9.2" style="fill:#ccc; stroke-width:0px;" /><circle id="SPH06102" cx="728.09" cy="722.35" r="9.2" style="fill:#ccc; stroke-width:0px;" /><circle id="SPH06103" cx="735.67" cy="744.91" r="9.2" style="fill:#ccc; stroke-width:0px;" /><circle id="SPH06104" cx="743.23" cy="767.47" r="9.2" style="fill:#ccc; stroke-width:0px;" /><circle id="SPH06105" cx="749.95" cy="790.31" r="9.2" style="fill:#ccc; stroke-width:0px;" /><circle id="SPH06106" cx="756.55" cy="813.18" r="9.2" style="fill:#ccc; stroke-width:0px;" /><circle id="SPH06107" cx="763.13" cy="836.04" r="9.2" style="fill:#ccc; stroke-width:0px;" /><circle id="SPH06108" cx="769.71" cy="858.9" r="9.2" style="fill:#ccc; stroke-width:0px;" /><circle id="SPH06109" cx="776.29" cy="881.75" r="9.2" style="fill:#ccc; stroke-width:0px;" /><circle id="SPH06110" cx="782.88" cy="904.62" r="9.2" style="fill:#ccc; stroke-width:0px;" /><circle id="SPH06111" cx="789.46" cy="927.47" r="9.2" style="fill:#ccc; stroke-width:0px;" /><circle id="SPH06112" cx="795.23" cy="950.57" r="9.2" style="fill:#ccc; stroke-width:0px;" /><circle id="SPH06113" cx="800.83" cy="973.72" r="9.2" style="fill:#ccc; stroke-width:0px;" /><circle id="SPH06114" cx="806.43" cy="996.93" r="9.2" style="fill:#ccc; stroke-width:0px;" /><circle id="SPH06115" cx="684.03" cy="483.41" r="9.2" style="fill:#ccc; stroke-width:0px;" /><circle id="SPH06116" cx="692.3" cy="504.9" r="9.2" style="fill:#ccc; stroke-width:0px;" /><circle id="SPH06117" cx="700.57" cy="526.39" r="9.2" style="fill:#ccc; stroke-width:0px;" /><circle id="SPH06118" cx="708.84" cy="547.89" r="9.2" style="fill:#ccc; stroke-width:0px;" /><circle id="SPH06119" cx="717.12" cy="569.39" r="9.2" style="fill:#ccc; stroke-width:0px;" /><circle id="SPH06120" cx="725.39" cy="590.88" r="9.2" style="fill:#ccc; stroke-width:0px;" /><circle id="SPH06121" cx="733.02" cy="612.62" r="9.2" style="fill:#ccc; stroke-width:0px;" /><circle id="SPH06122" cx="740.35" cy="634.44" r="9.2" style="fill:#ccc; stroke-width:0px;" /><circle id="SPH06123" cx="747.68" cy="656.27" r="9.2" style="fill:#ccc; stroke-width:0px;" /><circle id="SPH06124" cx="755" cy="678.08" r="9.2" style="fill:#ccc; stroke-width:0px;" /><circle id="SPH06125" cx="762.33" cy="699.91" r="9.2" style="fill:#ccc; stroke-width:0px;" /><circle id="SPH06126" cx="769.65" cy="721.73" r="9.2" style="fill:#ccc; stroke-width:0px;" /><circle id="SPH06127" cx="776.98" cy="743.55" r="9.2" style="fill:#ccc; stroke-width:0px;" /><circle id="SPH06128" cx="784.01" cy="765.47" r="9.2" style="fill:#ccc; stroke-width:0px;" /><circle id="SPH06129" cx="790.39" cy="787.61" r="9.2" style="fill:#ccc; stroke-width:0px;" /><circle id="SPH06130" cx="796.77" cy="809.75" r="9.2" style="fill:#ccc; stroke-width:0px;" /><circle id="SPH06131" cx="803.15" cy="831.9" r="9.2" style="fill:#ccc; stroke-width:0px;" /><circle id="SPH06132" cx="809.52" cy="854.03" r="9.2" style="fill:#ccc; stroke-width:0px;" /><circle id="SPH06133" cx="815.9" cy="876.17" r="9.2" style="fill:#ccc; stroke-width:0px;" /><circle id="SPH06134" cx="822.28" cy="898.31" r="9.2" style="fill:#ccc; stroke-width:0px;" /><circle id="SPH06135" cx="828.65" cy="920.44" r="9.2" style="fill:#ccc; stroke-width:0px;" /><circle id="SPH06136" cx="834.11" cy="942.84" r="9.2" style="fill:#ccc; stroke-width:0px;" /><circle id="SPH06137" cx="839.51" cy="965.26" r="9.2" style="fill:#ccc; stroke-width:0px;" /><circle id="SPH06138" cx="844.94" cy="987.71" r="9.2" style="fill:#ccc; stroke-width:0px;" /><circle id="SPH06139" cx="720.63" cy="468.25" r="9.2" style="fill:#ccc; stroke-width:0px;" /><circle id="SPH06140" cx="728.99" cy="490" r="9.2" style="fill:#ccc; stroke-width:0px;" /><circle id="SPH06141" cx="737.36" cy="511.75" r="9.2" style="fill:#ccc; stroke-width:0px;" /><circle id="SPH06142" cx="745.73" cy="533.48" r="9.2" style="fill:#ccc; stroke-width:0px;" /><circle id="SPH06143" cx="754.1" cy="555.23" r="9.2" style="fill:#ccc; stroke-width:0px;" /><circle id="SPH06144" cx="762.48" cy="576.97" r="9.2" style="fill:#ccc; stroke-width:0px;" /><circle id="SPH06145" cx="770.2" cy="598.95" r="9.2" style="fill:#ccc; stroke-width:0px;" /><circle id="SPH06146" cx="777.62" cy="621.03" r="9.2" style="fill:#ccc; stroke-width:0px;" /><circle id="SPH06147" cx="785.03" cy="643.12" r="9.2" style="fill:#ccc; stroke-width:0px;" /><circle id="SPH06148" cx="792.45" cy="665.21" r="9.2" style="fill:#ccc; stroke-width:0px;" /><circle id="SPH06149" cx="799.87" cy="687.31" r="9.2" style="fill:#ccc; stroke-width:0px;" /><circle id="SPH06150" cx="807.28" cy="709.39" r="9.2" style="fill:#ccc; stroke-width:0px;" /><circle id="SPH06151" cx="814.69" cy="731.46" r="9.2" style="fill:#ccc; stroke-width:0px;" /><circle id="SPH06152" cx="821.81" cy="753.62" r="9.2" style="fill:#ccc; stroke-width:0px;" /><circle id="SPH06153" cx="828.26" cy="776.01" r="9.2" style="fill:#ccc; stroke-width:0px;" /><circle id="SPH06154" cx="834.71" cy="798.41" r="9.2" style="fill:#ccc; stroke-width:0px;" /><circle id="SPH06155" cx="841.16" cy="820.8" r="9.2" style="fill:#ccc; stroke-width:0px;" /><circle id="SPH06156" cx="847.61" cy="843.2" r="9.2" style="fill:#ccc; stroke-width:0px;" /><circle id="SPH06157" cx="854.07" cy="865.61" r="9.2" style="fill:#ccc; stroke-width:0px;" /><circle id="SPH06158" cx="860.51" cy="888.01" r="9.2" style="fill:#ccc; stroke-width:0px;" /><circle id="SPH06159" cx="866.97" cy="910.41" r="9.2" style="fill:#ccc; stroke-width:0px;" /><circle id="SPH06160" cx="872.48" cy="933.08" r="9.2" style="fill:#ccc; stroke-width:0px;" /><circle id="SPH06161" cx="877.96" cy="955.76" r="9.2" style="fill:#ccc; stroke-width:0px;" /><circle id="SPH06162" cx="883.45" cy="978.47" r="9.2" style="fill:#ccc; stroke-width:0px;" /></g></svg>