<svg id="Layer_1" viewBox="0 0 1697.6 1405.17" xmlns="http://www.w3.org/2000/svg"><g id="back"><g id="back-2"><path id="sphere" d="M4138.14-1217.56c0-1528.34-1241.46-2769.81-2769.81-2769.81S-1401.48-2745.9-1401.48-1217.56-160.02,1552.25,1368.33,1552.25h0c1528.34,0,2769.81-1241.46,2769.81-2769.81Z" style="fill:#f2f2f2; stroke:#ddd; stroke-miterlimit:10; stroke-width:3px;" /><path d="M-968.29-1218.89c0,655.33,307.79,1239.54,786.53,1615.79,66.08,51.94,160.31,48.05,221.66-9.39C468.96-14.2,737.31-585.54,737.31-1218.89S468.96-2423.58,39.9-2825.29c-61.36-57.44-155.58-61.33-221.66-9.39-478.74,376.25-786.53,960.46-786.53,1615.79h0Z" style="fill:#e5e5e5; stroke:#ddd; stroke-miterlimit:10; stroke-width:3px;" /></g><g id="sectors"><path id="_203" d="M1352.76,708.11c-145.43-89.12-400.61-245.51-546.04-334.63,84.13-134.43,157.34-275.13,219.04-420.74h0c158.5,65.66,433.17,179.39,591.67,245.05,0,0-165.46,353.52-264.67,510.32h0Z" style="fill:#fff; stroke:#ddd; stroke-miterlimit:10; stroke-width:9px;" /><path id="_204" d="M1617.43,197.79c-38.71-16.04-433.14-179.42-591.65-245.07,61.78-145.78,112.02-296.48,150.13-450.7,207.57,49.83,415.13,99.66,622.7,149.5-30.57,124.33-67.81,247.45-111.69,368.81h0c-21.66,59.88-44.83,119.05-69.49,177.46h0Z" style="fill:#fff; stroke:#ddd; stroke-miterlimit:10; stroke-width:9px;" /><path id="_202" d="M806.59,373.41s.07.05.12.07c135.57,83.08,499.61,306.17,546.05,334.63-101.98,163.57-216.7,318.6-342.97,463.68-31.8-27.15-477.68-407.98-668.82-571.22,15.19-17.34,30.15-34.88,44.9-52.59,47.95-57.62,93.55-117.18,136.68-178.54h0c94.68,1.32,189.36,2.65,284.04,3.98h0Z" style="fill:#fff; stroke:#ddd; stroke-miterlimit:10; stroke-width:9px;" /><path id="_302" d="M1703.41,1367.84c-150.97-109.68-301.93-219.36-452.89-329.05,107.7-130.76,206.03-269.24,294.17-414.41,234.61,143.77,644.21,394.78,878.83,538.55-105.47,57.12-177.69,72.59-323.11,120.12h0c-128.51,38.04-261.12,66.58-397,84.79Z" style="fill:#fff; stroke:#ddd; stroke-miterlimit:10; stroke-width:9px;" /><path id="_303" d="M2248.54,1055.7c-234.62-143.77-469.24-287.55-703.85-431.32,96.59-159.1,180.92-326.23,251.9-500.05,254.22,105.3,508.45,210.61,762.68,315.91-72.41,176.85-156.04,348.06-250.14,512.71h0c-19.74,34.55-39.94,68.8-60.59,102.75h0Z" style="fill:#fff; stroke:#ddd; stroke-miterlimit:10; stroke-width:9px;" /></g></g><g id="Seats"><circle id="SPH02599" cx="952.28" cy="511.03" r="9.2" style="fill:#ccc; stroke-width:0px;" /><circle id="SPH02600" cx="938.59" cy="531.65" r="9.2" style="fill:#ccc; stroke-width:0px;" /><circle id="SPH02601" cx="924.9" cy="552.26" r="9.2" style="fill:#ccc; stroke-width:0px;" /><circle id="SPH02602" cx="911.23" cy="572.87" r="9.2" style="fill:#ccc; stroke-width:0px;" /><circle id="SPH02603" cx="897.54" cy="593.48" r="9.2" style="fill:#ccc; stroke-width:0px;" /><circle id="SPH02604" cx="883.49" cy="613.85" r="9.2" style="fill:#ccc; stroke-width:0px;" /><circle id="SPH02605" cx="868.92" cy="633.85" r="9.2" style="fill:#ccc; stroke-width:0px;" /><circle id="SPH02606" cx="854.36" cy="653.86" r="9.2" style="fill:#ccc; stroke-width:0px;" /><circle id="SPH02607" cx="839.8" cy="673.86" r="9.2" style="fill:#ccc; stroke-width:0px;" /><circle id="SPH02608" cx="825.23" cy="693.86" r="9.2" style="fill:#ccc; stroke-width:0px;" /><circle id="SPH02609" cx="810.67" cy="713.86" r="9.2" style="fill:#ccc; stroke-width:0px;" /><circle id="SPH02610" cx="795.39" cy="733.32" r="9.2" style="fill:#ccc; stroke-width:0px;" /><circle id="SPH02611" cx="779.95" cy="752.71" r="9.2" style="fill:#ccc; stroke-width:0px;" /><circle id="SPH02612" cx="764.52" cy="772.09" r="9.2" style="fill:#ccc; stroke-width:0px;" /><circle id="SPH02613" cx="749.09" cy="791.47" r="9.2" style="fill:#ccc; stroke-width:0px;" /><circle id="SPH02614" cx="733.66" cy="810.84" r="9.2" style="fill:#ccc; stroke-width:0px;" /><circle id="SPH02615" cx="718.01" cy="830.03" r="9.2" style="fill:#ccc; stroke-width:0px;" /><circle id="SPH02616" cx="701.78" cy="848.7" r="9.2" style="fill:#ccc; stroke-width:0px;" /><circle id="SPH02617" cx="986.06" cy="531.74" r="9.2" style="fill:#ccc; stroke-width:0px;" /><circle id="SPH02618" cx="972.18" cy="552.66" r="9.2" style="fill:#ccc; stroke-width:0px;" /><circle id="SPH02619" cx="958.29" cy="573.57" r="9.2" style="fill:#ccc; stroke-width:0px;" /><circle id="SPH02620" cx="944.39" cy="594.5" r="9.2" style="fill:#ccc; stroke-width:0px;" /><circle id="SPH02621" cx="930.5" cy="615.42" r="9.2" style="fill:#ccc; stroke-width:0px;" /><circle id="SPH02622" cx="916.27" cy="636.09" r="9.2" style="fill:#ccc; stroke-width:0px;" /><circle id="SPH02623" cx="901.5" cy="656.39" r="9.2" style="fill:#ccc; stroke-width:0px;" /><circle id="SPH02624" cx="886.72" cy="676.69" r="9.2" style="fill:#ccc; stroke-width:0px;" /><circle id="SPH02625" cx="871.94" cy="696.99" r="9.2" style="fill:#ccc; stroke-width:0px;" /><circle id="SPH02626" cx="857.17" cy="717.27" r="9.2" style="fill:#ccc; stroke-width:0px;" /><circle id="SPH02627" cx="842.4" cy="737.56" r="9.2" style="fill:#ccc; stroke-width:0px;" /><circle id="SPH02628" cx="826.91" cy="757.31" r="9.2" style="fill:#ccc; stroke-width:0px;" /><circle id="SPH02629" cx="811.3" cy="776.92" r="9.2" style="fill:#ccc; stroke-width:0px;" /><circle id="SPH02630" cx="795.67" cy="796.54" r="9.2" style="fill:#ccc; stroke-width:0px;" /><circle id="SPH02631" cx="780.06" cy="816.15" r="9.2" style="fill:#ccc; stroke-width:0px;" /><circle id="SPH02632" cx="764.43" cy="835.77" r="9.2" style="fill:#ccc; stroke-width:0px;" /><circle id="SPH02633" cx="748.59" cy="855.21" r="9.2" style="fill:#ccc; stroke-width:0px;" /><circle id="SPH02634" cx="732.13" cy="874.14" r="9.2" style="fill:#ccc; stroke-width:0px;" /><circle id="SPH02635" cx="1019.86" cy="552.44" r="9.2" transform="translate(311.19 1470.64) rotate(-80.78)" style="fill:#ccc; stroke-width:0px;" /><circle id="SPH02636" cx="1006.54" cy="572.49" r="9.2" style="fill:#ccc; stroke-width:0px;" /><circle id="SPH02637" cx="993.23" cy="592.53" r="9.2" style="fill:#ccc; stroke-width:0px;" /><circle id="SPH02638" cx="979.93" cy="612.58" r="9.2" style="fill:#ccc; stroke-width:0px;" /><circle id="SPH02639" cx="966.62" cy="632.62" r="9.2" style="fill:#ccc; stroke-width:0px;" /><circle id="SPH02640" cx="953.23" cy="652.61" r="9.2" style="fill:#ccc; stroke-width:0px;" /><circle id="SPH02641" cx="939.07" cy="672.06" r="9.2" style="fill:#ccc; stroke-width:0px;" /><circle id="SPH02642" cx="924.91" cy="691.51" r="9.2" style="fill:#ccc; stroke-width:0px;" /><circle id="SPH02643" cx="910.75" cy="710.96" r="9.2" style="fill:#ccc; stroke-width:0px;" /><circle id="SPH02644" cx="896.58" cy="730.42" r="9.2" style="fill:#ccc; stroke-width:0px;" /><circle id="SPH02645" cx="882.42" cy="749.87" r="9.2" style="fill:#ccc; stroke-width:0px;" /><circle id="SPH02646" cx="868.06" cy="769.2" r="9.2" style="fill:#ccc; stroke-width:0px;" /><circle id="SPH02647" cx="853.07" cy="788.03" r="9.2" style="fill:#ccc; stroke-width:0px;" /><circle id="SPH02648" cx="838.08" cy="806.86" r="9.2" style="fill:#ccc; stroke-width:0px;" /><circle id="SPH02649" cx="823.09" cy="825.68" r="9.2" style="fill:#ccc; stroke-width:0px;" /><circle id="SPH02650" cx="808.09" cy="844.51" r="9.2" style="fill:#ccc; stroke-width:0px;" /><circle id="SPH02651" cx="793.1" cy="863.35" r="9.2" style="fill:#ccc; stroke-width:0px;" /><circle id="SPH02652" cx="777.83" cy="881.94" r="9.2" style="fill:#ccc; stroke-width:0px;" /><circle id="SPH02653" cx="762.03" cy="900.11" r="9.2" style="fill:#ccc; stroke-width:0px;" /><circle id="SPH02654" cx="1053.64" cy="573.15" r="9.2" style="fill:#ccc; stroke-width:0px;" /><circle id="SPH02655" cx="1040.14" cy="593.48" r="9.2" style="fill:#ccc; stroke-width:0px;" /><circle id="SPH02656" cx="1026.64" cy="613.81" r="9.2" transform="translate(256.31 1528.87) rotate(-80.78)" style="fill:#ccc; stroke-width:0px;" /><circle id="SPH02657" cx="1013.14" cy="634.15" r="9.2" style="fill:#ccc; stroke-width:0px;" /><circle id="SPH02658" cx="999.63" cy="654.48" r="9.2" style="fill:#ccc; stroke-width:0px;" /><circle id="SPH02659" cx="986.08" cy="674.78" r="9.2" style="fill:#ccc; stroke-width:0px;" /><circle id="SPH02660" cx="971.71" cy="694.51" r="9.2" style="fill:#ccc; stroke-width:0px;" /><circle id="SPH02661" cx="957.34" cy="714.23" r="9.2" style="fill:#ccc; stroke-width:0px;" /><circle id="SPH02662" cx="942.98" cy="733.97" r="9.2" style="fill:#ccc; stroke-width:0px;" /><circle id="SPH02663" cx="928.62" cy="753.7" r="9.2" style="fill:#ccc; stroke-width:0px;" /><circle id="SPH02664" cx="914.26" cy="773.42" r="9.2" style="fill:#ccc; stroke-width:0px;" /><circle id="SPH02665" cx="899.72" cy="793.03" r="9.2" style="fill:#ccc; stroke-width:0px;" /><circle id="SPH02666" cx="884.5" cy="812.14" r="9.2" style="fill:#ccc; stroke-width:0px;" /><circle id="SPH02667" cx="869.27" cy="831.26" r="9.2" style="fill:#ccc; stroke-width:0px;" /><circle id="SPH02668" cx="854.06" cy="850.36" r="9.2" style="fill:#ccc; stroke-width:0px;" /><circle id="SPH02669" cx="838.86" cy="869.44" r="9.2" style="fill:#ccc; stroke-width:0px;" /><circle id="SPH02670" cx="823.66" cy="888.53" r="9.2" style="fill:#ccc; stroke-width:0px;" /><circle id="SPH02671" cx="808.16" cy="907.39" r="9.2" style="fill:#ccc; stroke-width:0px;" /><circle id="SPH02672" cx="792.14" cy="925.82" r="9.2" style="fill:#ccc; stroke-width:0px;" /><circle id="SPH02673" cx="1087.43" cy="593.85" r="9.2" style="fill:#ccc; stroke-width:0px;" /><circle id="SPH02674" cx="1073.73" cy="614.47" r="9.2" style="fill:#ccc; stroke-width:0px;" /><circle id="SPH02675" cx="1060.04" cy="635.1" r="9.2" style="fill:#ccc; stroke-width:0px;" /><circle id="SPH02676" cx="1046.35" cy="655.72" r="9.2" style="fill:#ccc; stroke-width:0px;" /><circle id="SPH02677" cx="1032.66" cy="676.35" r="9.2" transform="translate(199.63 1587.34) rotate(-80.78)" style="fill:#ccc; stroke-width:0px;" /><circle id="SPH02678" cx="1018.93" cy="696.94" r="9.2" style="fill:#ccc; stroke-width:0px;" /><circle id="SPH02679" cx="1004.36" cy="716.95" r="9.2" style="fill:#ccc; stroke-width:0px;" /><circle id="SPH02680" cx="989.79" cy="736.95" r="9.2" style="fill:#ccc; stroke-width:0px;" /><circle id="SPH02681" cx="975.23" cy="756.96" r="9.2" style="fill:#ccc; stroke-width:0px;" /><circle id="SPH02682" cx="960.66" cy="776.98" r="9.2" style="fill:#ccc; stroke-width:0px;" /><circle id="SPH02683" cx="946.09" cy="796.98" r="9.2" style="fill:#ccc; stroke-width:0px;" /><circle id="SPH02684" cx="931.37" cy="816.85" r="9.2" style="fill:#ccc; stroke-width:0px;" /><circle id="SPH02685" cx="915.96" cy="836.19" r="9.2" style="fill:#ccc; stroke-width:0px;" /><circle id="SPH02686" cx="900.56" cy="855.53" r="9.2" style="fill:#ccc; stroke-width:0px;" /><circle id="SPH02687" cx="885.15" cy="874.88" r="9.2" style="fill:#ccc; stroke-width:0px;" /><circle id="SPH02688" cx="869.74" cy="894.23" r="9.2" style="fill:#ccc; stroke-width:0px;" /><circle id="SPH02689" cx="854.34" cy="913.56" r="9.2" style="fill:#ccc; stroke-width:0px;" /><circle id="SPH02690" cx="838.66" cy="932.67" r="9.2" style="fill:#ccc; stroke-width:0px;" /><circle id="SPH02691" cx="822.43" cy="951.35" r="9.2" style="fill:#ccc; stroke-width:0px;" /><circle id="SPH02692" cx="1121.21" cy="614.55" r="9.2" style="fill:#ccc; stroke-width:0px;" /><circle id="SPH02693" cx="1107.33" cy="635.47" r="9.2" style="fill:#ccc; stroke-width:0px;" /><circle id="SPH02694" cx="1093.45" cy="656.37" r="9.2" style="fill:#ccc; stroke-width:0px;" /><circle id="SPH02695" cx="1079.56" cy="677.28" r="9.2" style="fill:#ccc; stroke-width:0px;" /><circle id="SPH02696" cx="1065.68" cy="698.19" r="9.2" style="fill:#ccc; stroke-width:0px;" /><circle id="SPH02697" cx="1051.78" cy="719.09" r="9.2" style="fill:#ccc; stroke-width:0px;" /><circle id="SPH02698" cx="1037.01" cy="739.38" r="9.2" style="fill:#ccc; stroke-width:0px;" /><circle id="SPH02699" cx="1022.24" cy="759.67" r="9.2" transform="translate(108.63 1647.02) rotate(-80.78)" style="fill:#ccc; stroke-width:0px;" /><circle id="SPH02700" cx="1007.47" cy="779.95" r="9.2" style="fill:#ccc; stroke-width:0px;" /><circle id="SPH02701" cx="992.7" cy="800.24" r="9.2" style="fill:#ccc; stroke-width:0px;" /><circle id="SPH02702" cx="977.93" cy="820.53" r="9.2" style="fill:#ccc; stroke-width:0px;" /><circle id="SPH02703" cx="962.99" cy="840.71" r="9.2" style="fill:#ccc; stroke-width:0px;" /><circle id="SPH02704" cx="947.35" cy="860.35" r="9.2" style="fill:#ccc; stroke-width:0px;" /><circle id="SPH02705" cx="931.71" cy="879.99" r="9.2" style="fill:#ccc; stroke-width:0px;" /><circle id="SPH02706" cx="916.07" cy="899.62" r="9.2" style="fill:#ccc; stroke-width:0px;" /><circle id="SPH02707" cx="900.43" cy="919.27" r="9.2" style="fill:#ccc; stroke-width:0px;" /><circle id="SPH02708" cx="884.79" cy="938.9" r="9.2" style="fill:#ccc; stroke-width:0px;" /><circle id="SPH02709" cx="868.86" cy="958.29" r="9.2" style="fill:#ccc; stroke-width:0px;" /><circle id="SPH02710" cx="852.38" cy="977.26" r="9.2" style="fill:#ccc; stroke-width:0px;" /><circle id="SPH02711" cx="1155" cy="635.26" r="9.2" style="fill:#ccc; stroke-width:0px;" /><circle id="SPH02712" cx="1141.66" cy="655.35" r="9.2" style="fill:#ccc; stroke-width:0px;" /><circle id="SPH02713" cx="1128.34" cy="675.43" r="9.2" style="fill:#ccc; stroke-width:0px;" /><circle id="SPH02714" cx="1115" cy="695.5" r="9.2" style="fill:#ccc; stroke-width:0px;" /><circle id="SPH02715" cx="1101.67" cy="715.58" r="9.2" style="fill:#ccc; stroke-width:0px;" /><circle id="SPH02716" cx="1088.34" cy="735.66" r="9.2" style="fill:#ccc; stroke-width:0px;" /><circle id="SPH02717" cx="1074.39" cy="755.32" r="9.2" style="fill:#ccc; stroke-width:0px;" /><circle id="SPH02718" cx="1060.2" cy="774.81" r="9.2" style="fill:#ccc; stroke-width:0px;" /><circle id="SPH02719" cx="1046.01" cy="794.29" r="9.2" style="fill:#ccc; stroke-width:0px;" /><circle id="SPH02720" cx="1031.83" cy="813.79" r="9.2" transform="translate(63.27 1701.94) rotate(-80.78)" style="fill:#ccc; stroke-width:0px;" /><circle id="SPH02721" cx="1017.63" cy="833.27" r="9.2" transform="translate(32.11 1704.28) rotate(-80.78)" style="fill:#ccc; stroke-width:0px;" /><circle id="SPH02722" cx="1003.44" cy="852.76" r="9.2" style="fill:#ccc; stroke-width:0px;" /><circle id="SPH02723" cx="988.78" cy="871.88" r="9.2" style="fill:#ccc; stroke-width:0px;" /><circle id="SPH02724" cx="973.76" cy="890.75" r="9.2" style="fill:#ccc; stroke-width:0px;" /><circle id="SPH02725" cx="958.74" cy="909.61" r="9.2" style="fill:#ccc; stroke-width:0px;" /><circle id="SPH02726" cx="943.71" cy="928.48" r="9.2" style="fill:#ccc; stroke-width:0px;" /><circle id="SPH02727" cx="928.69" cy="947.35" r="9.2" style="fill:#ccc; stroke-width:0px;" /><circle id="SPH02728" cx="913.66" cy="966.21" r="9.2" style="fill:#ccc; stroke-width:0px;" /><circle id="SPH02729" cx="898.3" cy="984.78" r="9.2" style="fill:#ccc; stroke-width:0px;" /><circle id="SPH02730" cx="882.49" cy="1002.97" r="9.2" style="fill:#ccc; stroke-width:0px;" /><circle id="SPH02731" cx="1158.91" cy="700.95" r="9.2" style="fill:#ccc; stroke-width:0px;" /><circle id="SPH02732" cx="1145.78" cy="720.74" r="9.2" style="fill:#ccc; stroke-width:0px;" /><circle id="SPH02733" cx="1132.64" cy="740.52" r="9.2" style="fill:#ccc; stroke-width:0px;" /><circle id="SPH02734" cx="1119.51" cy="760.3" r="9.2" style="fill:#ccc; stroke-width:0px;" /><circle id="SPH02735" cx="1105.7" cy="779.6" r="9.2" style="fill:#ccc; stroke-width:0px;" /><circle id="SPH02736" cx="1091.72" cy="798.79" r="9.2" style="fill:#ccc; stroke-width:0px;" /><circle id="SPH02737" cx="1077.74" cy="817.99" r="9.2" style="fill:#ccc; stroke-width:0px;" /><circle id="SPH02738" cx="1063.77" cy="837.19" r="9.2" style="fill:#ccc; stroke-width:0px;" /><circle id="SPH02739" cx="1049.78" cy="856.39" r="9.2" style="fill:#ccc; stroke-width:0px;" /><circle id="SPH02740" cx="1035.81" cy="875.59" r="9.2" style="fill:#ccc; stroke-width:0px;" /><circle id="SPH02741" cx="1021.43" cy="894.47" r="9.2" style="fill:#ccc; stroke-width:0px;" /><circle id="SPH02742" cx="1006.63" cy="913.04" r="9.2" style="fill:#ccc; stroke-width:0px;" /><circle id="SPH02743" cx="991.84" cy="931.61" r="9.2" style="fill:#ccc; stroke-width:0px;" /><circle id="SPH02744" cx="977.05" cy="950.19" r="9.2" style="fill:#ccc; stroke-width:0px;" /><circle id="SPH02745" cx="962.26" cy="968.75" r="9.2" style="fill:#ccc; stroke-width:0px;" /><circle id="SPH02746" cx="947.48" cy="987.31" r="9.2" style="fill:#ccc; stroke-width:0px;" /><circle id="SPH02747" cx="1192.7" cy="721.65" r="9.2" style="fill:#ccc; stroke-width:0px;" /><circle id="SPH02748" cx="1180.18" cy="740.52" r="9.2" style="fill:#ccc; stroke-width:0px;" /><circle id="SPH02749" cx="1167.64" cy="759.39" r="9.2" style="fill:#ccc; stroke-width:0px;" /><circle id="SPH02750" cx="1155.12" cy="778.27" r="9.2" style="fill:#ccc; stroke-width:0px;" /><circle id="SPH02751" cx="1142.14" cy="796.82" r="9.2" style="fill:#ccc; stroke-width:0px;" /><circle id="SPH02752" cx="1128.81" cy="815.13" r="9.2" style="fill:#ccc; stroke-width:0px;" /><circle id="SPH02753" cx="1115.47" cy="833.44" r="9.2" style="fill:#ccc; stroke-width:0px;" /><circle id="SPH02754" cx="1102.14" cy="851.76" r="9.2" style="fill:#ccc; stroke-width:0px;" /><circle id="SPH02755" cx="1088.8" cy="870.07" r="9.2" style="fill:#ccc; stroke-width:0px;" /><circle id="SPH02756" cx="1075.47" cy="888.39" r="9.2" style="fill:#ccc; stroke-width:0px;" /><circle id="SPH02757" cx="1062.13" cy="906.71" r="9.2" style="fill:#ccc; stroke-width:0px;" /><circle id="SPH02758" cx="1048.12" cy="924.51" r="9.2" style="fill:#ccc; stroke-width:0px;" /><circle id="SPH02759" cx="1034.01" cy="942.23" r="9.2" style="fill:#ccc; stroke-width:0px;" /><circle id="SPH02760" cx="1019.89" cy="959.96" r="9.2" transform="translate(-91.04 1812.91) rotate(-80.78)" style="fill:#ccc; stroke-width:0px;" /><circle id="SPH02761" cx="1005.78" cy="977.68" r="9.2" style="fill:#ccc; stroke-width:0px;" /><circle id="SPH02762" cx="991.66" cy="995.41" r="9.2" style="fill:#ccc; stroke-width:0px;" /><circle id="SPH02763" cx="977.54" cy="1013.13" r="9.2" style="fill:#ccc; stroke-width:0px;" /><circle id="SPH02764" cx="529.71" cy="426.97" r="9.2" style="fill:#ccc; stroke-width:0px;" /><circle id="SPH02765" cx="514.33" cy="448.1" r="9.2" style="fill:#ccc; stroke-width:0px;" /><circle id="SPH02766" cx="498.95" cy="469.22" r="9.2" style="fill:#ccc; stroke-width:0px;" /><circle id="SPH02767" cx="483.01" cy="489.91" r="9.2" style="fill:#ccc; stroke-width:0px;" /><circle id="SPH02768" cx="466.74" cy="510.35" r="9.2" style="fill:#ccc; stroke-width:0px;" /><circle id="SPH02769" cx="450.46" cy="530.79" r="9.2" style="fill:#ccc; stroke-width:0px;" /><circle id="SPH02770" cx="434.18" cy="551.23" r="9.2" style="fill:#ccc; stroke-width:0px;" /><circle id="SPH02771" cx="417.9" cy="571.67" r="9.2" style="fill:#ccc; stroke-width:0px;" /><circle id="SPH02772" cx="400.74" cy="591.39" r="9.2" style="fill:#ccc; stroke-width:0px;" /><circle id="SPH02773" cx="578.25" cy="427.59" r="9.2" style="fill:#ccc; stroke-width:0px;" /><circle id="SPH02774" cx="564.11" cy="447" r="9.2" style="fill:#ccc; stroke-width:0px;" /><circle id="SPH02775" cx="549.97" cy="466.43" r="9.2" style="fill:#ccc; stroke-width:0px;" /><circle id="SPH02776" cx="535.83" cy="485.84" r="9.2" style="fill:#ccc; stroke-width:0px;" /><circle id="SPH02777" cx="521.52" cy="505.12" r="9.2" style="fill:#ccc; stroke-width:0px;" /><circle id="SPH02778" cx="506.56" cy="523.91" r="9.2" style="fill:#ccc; stroke-width:0px;" /><circle id="SPH02779" cx="491.6" cy="542.7" r="9.2" style="fill:#ccc; stroke-width:0px;" /><circle id="SPH02780" cx="476.64" cy="561.48" r="9.2" style="fill:#ccc; stroke-width:0px;" /><circle id="SPH02781" cx="461.67" cy="580.27" r="9.2" style="fill:#ccc; stroke-width:0px;" /><circle id="SPH02782" cx="446.62" cy="598.98" r="9.2" style="fill:#ccc; stroke-width:0px;" /><circle id="SPH02783" cx="430.86" cy="617.11" r="9.2" style="fill:#ccc; stroke-width:0px;" /><circle id="SPH02784" cx="626.78" cy="428.2" r="9.2" style="fill:#ccc; stroke-width:0px;" /><circle id="SPH02785" cx="612.26" cy="448.14" r="9.2" style="fill:#ccc; stroke-width:0px;" /><circle id="SPH02786" cx="597.74" cy="468.08" r="9.2" style="fill:#ccc; stroke-width:0px;" /><circle id="SPH02787" cx="583.23" cy="488.02" r="9.2" style="fill:#ccc; stroke-width:0px;" /><circle id="SPH02788" cx="568.71" cy="507.96" r="9.2" style="fill:#ccc; stroke-width:0px;" /><circle id="SPH02789" cx="554.07" cy="527.81" r="9.2" style="fill:#ccc; stroke-width:0px;" /><circle id="SPH02790" cx="538.7" cy="547.11" r="9.2" style="fill:#ccc; stroke-width:0px;" /><circle id="SPH02791" cx="523.34" cy="566.4" r="9.2" style="fill:#ccc; stroke-width:0px;" /><circle id="SPH02792" cx="507.98" cy="585.7" r="9.2" transform="translate(-151.53 993.3) rotate(-80.78)" style="fill:#ccc; stroke-width:0px;" /><circle id="SPH02793" cx="492.61" cy="604.99" r="9.2" style="fill:#ccc; stroke-width:0px;" /><circle id="SPH02794" cx="477.15" cy="624.22" r="9.2" style="fill:#ccc; stroke-width:0px;" /><circle id="SPH02795" cx="460.98" cy="642.83" r="9.2" style="fill:#ccc; stroke-width:0px;" /><circle id="SPH02796" cx="674.14" cy="428.8" r="9.2" style="fill:#ccc; stroke-width:0px;" /><circle id="SPH02797" cx="660.13" cy="449.68" r="9.2" style="fill:#ccc; stroke-width:0px;" /><circle id="SPH02798" cx="645.33" cy="470.01" r="9.2" style="fill:#ccc; stroke-width:0px;" /><circle id="SPH02799" cx="630.52" cy="490.35" r="9.2" style="fill:#ccc; stroke-width:0px;" /><circle id="SPH02800" cx="615.72" cy="510.67" r="9.2" style="fill:#ccc; stroke-width:0px;" /><circle id="SPH02801" cx="600.91" cy="531.01" r="9.2" style="fill:#ccc; stroke-width:0px;" /><circle id="SPH02802" cx="586.02" cy="551.27" r="9.2" style="fill:#ccc; stroke-width:0px;" /><circle id="SPH02803" cx="570.34" cy="570.95" r="9.2" style="fill:#ccc; stroke-width:0px;" /><circle id="SPH02804" cx="554.68" cy="590.62" r="9.2" style="fill:#ccc; stroke-width:0px;" /><circle id="SPH02805" cx="539.01" cy="610.3" r="9.2" style="fill:#ccc; stroke-width:0px;" /><circle id="SPH02806" cx="523.34" cy="629.97" r="9.2" style="fill:#ccc; stroke-width:0px;" /><circle id="SPH02807" cx="507.58" cy="649.57" r="9.2" transform="translate(-214.91 1046.55) rotate(-80.78)" style="fill:#ccc; stroke-width:0px;" /><circle id="SPH02808" cx="491.09" cy="668.55" r="9.2" style="fill:#ccc; stroke-width:0px;" /><circle id="SPH02809" cx="721.27" cy="429.41" r="9.2" style="fill:#ccc; stroke-width:0px;" /><circle id="SPH02810" cx="708.15" cy="449.17" r="9.2" style="fill:#ccc; stroke-width:0px;" /><circle id="SPH02811" cx="695.03" cy="468.93" r="9.2" style="fill:#ccc; stroke-width:0px;" /><circle id="SPH02812" cx="681.11" cy="488.14" r="9.2" style="fill:#ccc; stroke-width:0px;" /><circle id="SPH02813" cx="667.14" cy="507.32" r="9.2" style="fill:#ccc; stroke-width:0px;" /><circle id="SPH02814" cx="653.18" cy="526.5" r="9.2" style="fill:#ccc; stroke-width:0px;" /><circle id="SPH02815" cx="639.22" cy="545.68" r="9.2" style="fill:#ccc; stroke-width:0px;" /><circle id="SPH02816" cx="625.25" cy="564.87" r="9.2" style="fill:#ccc; stroke-width:0px;" /><circle id="SPH02817" cx="610.82" cy="583.69" r="9.2" style="fill:#ccc; stroke-width:0px;" /><circle id="SPH02818" cx="596.04" cy="602.25" r="9.2" style="fill:#ccc; stroke-width:0px;" /><circle id="SPH02819" cx="581.26" cy="620.8" r="9.2" style="fill:#ccc; stroke-width:0px;" /><circle id="SPH02820" cx="566.48" cy="639.37" r="9.2" style="fill:#ccc; stroke-width:0px;" /><circle id="SPH02821" cx="551.7" cy="657.93" r="9.2" style="fill:#ccc; stroke-width:0px;" /><circle id="SPH02822" cx="536.76" cy="676.37" r="9.2" style="fill:#ccc; stroke-width:0px;" /><circle id="SPH02823" cx="521.2" cy="694.27" r="9.2" style="fill:#ccc; stroke-width:0px;" /><circle id="SPH02824" cx="768.42" cy="430" r="9.2" style="fill:#ccc; stroke-width:0px;" /><circle id="SPH02825" cx="755.04" cy="450.14" r="9.2" style="fill:#ccc; stroke-width:0px;" /><circle id="SPH02826" cx="741.67" cy="470.27" r="9.2" style="fill:#ccc; stroke-width:0px;" /><circle id="SPH02827" cx="728.3" cy="490.41" r="9.2" style="fill:#ccc; stroke-width:0px;" /><circle id="SPH02828" cx="714.17" cy="510.01" r="9.2" style="fill:#ccc; stroke-width:0px;" /><circle id="SPH02829" cx="699.94" cy="529.55" r="9.2" style="fill:#ccc; stroke-width:0px;" /><circle id="SPH02830" cx="685.72" cy="549.09" r="9.2" style="fill:#ccc; stroke-width:0px;" /><circle id="SPH02831" cx="671.5" cy="568.63" r="9.2" style="fill:#ccc; stroke-width:0px;" /><circle id="SPH02832" cx="657.27" cy="588.15" r="9.2" style="fill:#ccc; stroke-width:0px;" /><circle id="SPH02833" cx="642.6" cy="607.35" r="9.2" style="fill:#ccc; stroke-width:0px;" /><circle id="SPH02834" cx="627.54" cy="626.25" r="9.2" style="fill:#ccc; stroke-width:0px;" /><circle id="SPH02835" cx="612.49" cy="645.16" r="9.2" style="fill:#ccc; stroke-width:0px;" /><circle id="SPH02836" cx="597.43" cy="664.07" r="9.2" style="fill:#ccc; stroke-width:0px;" /><circle id="SPH02837" cx="582.38" cy="682.97" r="9.2" style="fill:#ccc; stroke-width:0px;" /><circle id="SPH02838" cx="567.18" cy="701.74" r="9.2" style="fill:#ccc; stroke-width:0px;" /><circle id="SPH02839" cx="551.31" cy="719.98" r="9.2" style="fill:#ccc; stroke-width:0px;" /><circle id="SPH02840" cx="817.14" cy="428.21" r="9.2" style="fill:#ccc; stroke-width:0px;" /><circle id="SPH02841" cx="803.46" cy="448.82" r="9.2" style="fill:#ccc; stroke-width:0px;" /><circle id="SPH02842" cx="789.77" cy="469.43" r="9.2" style="fill:#ccc; stroke-width:0px;" /><circle id="SPH02843" cx="776.09" cy="490.03" r="9.2" style="fill:#ccc; stroke-width:0px;" /><circle id="SPH02844" cx="762.41" cy="510.63" r="9.2" style="fill:#ccc; stroke-width:0px;" /><circle id="SPH02845" cx="748.05" cy="530.76" r="9.2" style="fill:#ccc; stroke-width:0px;" /><circle id="SPH02846" cx="733.49" cy="550.75" r="9.2" style="fill:#ccc; stroke-width:0px;" /><circle id="SPH02847" cx="718.93" cy="570.75" r="9.2" style="fill:#ccc; stroke-width:0px;" /><circle id="SPH02848" cx="704.38" cy="590.74" r="9.2" style="fill:#ccc; stroke-width:0px;" /><circle id="SPH02849" cx="689.82" cy="610.73" r="9.2" style="fill:#ccc; stroke-width:0px;" /><circle id="SPH02850" cx="674.86" cy="630.42" r="9.2" style="fill:#ccc; stroke-width:0px;" /><circle id="SPH02851" cx="659.44" cy="649.77" r="9.2" style="fill:#ccc; stroke-width:0px;" /><circle id="SPH02852" cx="644.03" cy="669.12" r="9.2" style="fill:#ccc; stroke-width:0px;" /><circle id="SPH02853" cx="628.63" cy="688.47" r="9.2" style="fill:#ccc; stroke-width:0px;" /><circle id="SPH02854" cx="613.21" cy="707.83" r="9.2" style="fill:#ccc; stroke-width:0px;" /><circle id="SPH02855" cx="597.64" cy="727.05" r="9.2" style="fill:#ccc; stroke-width:0px;" /><circle id="SPH02856" cx="581.41" cy="745.72" r="9.2" style="fill:#ccc; stroke-width:0px;" /><circle id="SPH02857" cx="850.92" cy="448.92" r="9.2" style="fill:#ccc; stroke-width:0px;" /><circle id="SPH02858" cx="837.03" cy="469.85" r="9.2" style="fill:#ccc; stroke-width:0px;" /><circle id="SPH02859" cx="823.13" cy="490.78" r="9.2" style="fill:#ccc; stroke-width:0px;" /><circle id="SPH02860" cx="809.23" cy="511.71" r="9.2" style="fill:#ccc; stroke-width:0px;" /><circle id="SPH02861" cx="795.34" cy="532.63" r="9.2" style="fill:#ccc; stroke-width:0px;" /><circle id="SPH02862" cx="780.77" cy="553.1" r="9.2" style="fill:#ccc; stroke-width:0px;" /><circle id="SPH02863" cx="765.98" cy="573.4" r="9.2" style="fill:#ccc; stroke-width:0px;" /><circle id="SPH02864" cx="751.2" cy="593.71" r="9.2" style="fill:#ccc; stroke-width:0px;" /><circle id="SPH02865" cx="736.42" cy="614.02" r="9.2" style="fill:#ccc; stroke-width:0px;" /><circle id="SPH02866" cx="721.63" cy="634.32" r="9.2" style="fill:#ccc; stroke-width:0px;" /><circle id="SPH02867" cx="706.44" cy="654.32" r="9.2" style="fill:#ccc; stroke-width:0px;" /><circle id="SPH02868" cx="690.78" cy="673.98" r="9.2" style="fill:#ccc; stroke-width:0px;" /><circle id="SPH02869" cx="675.12" cy="693.65" r="9.2" style="fill:#ccc; stroke-width:0px;" /><circle id="SPH02870" cx="659.46" cy="713.31" r="9.2" style="fill:#ccc; stroke-width:0px;" /><circle id="SPH02871" cx="643.79" cy="732.99" r="9.2" style="fill:#ccc; stroke-width:0px;" /><circle id="SPH02872" cx="627.98" cy="752.51" r="9.2" style="fill:#ccc; stroke-width:0px;" /><circle id="SPH02873" cx="611.5" cy="771.46" r="9.2" style="fill:#ccc; stroke-width:0px;" /><circle id="SPH02874" cx="884.7" cy="469.63" r="9.2" style="fill:#ccc; stroke-width:0px;" /><circle id="SPH02875" cx="870.59" cy="490.88" r="9.2" style="fill:#ccc; stroke-width:0px;" /><circle id="SPH02876" cx="856.49" cy="512.13" r="9.2" style="fill:#ccc; stroke-width:0px;" /><circle id="SPH02877" cx="842.38" cy="533.39" r="9.2" style="fill:#ccc; stroke-width:0px;" /><circle id="SPH02878" cx="828.26" cy="554.63" r="9.2" style="fill:#ccc; stroke-width:0px;" /><circle id="SPH02879" cx="813.49" cy="575.43" r="9.2" style="fill:#ccc; stroke-width:0px;" /><circle id="SPH02880" cx="798.47" cy="596.06" r="9.2" style="fill:#ccc; stroke-width:0px;" /><circle id="SPH02881" cx="783.46" cy="616.68" r="9.2" style="fill:#ccc; stroke-width:0px;" /><circle id="SPH02882" cx="768.44" cy="637.31" r="9.2" style="fill:#ccc; stroke-width:0px;" /><circle id="SPH02883" cx="753.43" cy="657.92" r="9.2" style="fill:#ccc; stroke-width:0px;" /><circle id="SPH02884" cx="738.02" cy="678.23" r="9.2" style="fill:#ccc; stroke-width:0px;" /><circle id="SPH02885" cx="722.13" cy="698.19" r="9.2" style="fill:#ccc; stroke-width:0px;" /><circle id="SPH02886" cx="706.25" cy="718.12" r="9.2" style="fill:#ccc; stroke-width:0px;" /><circle id="SPH02887" cx="690.38" cy="738.06" r="9.2" style="fill:#ccc; stroke-width:0px;" /><circle id="SPH02888" cx="674.48" cy="758.02" r="9.2" style="fill:#ccc; stroke-width:0px;" /><circle id="SPH02889" cx="658.43" cy="777.83" r="9.2" style="fill:#ccc; stroke-width:0px;" /><circle id="SPH02890" cx="641.72" cy="797.07" r="9.2" style="fill:#ccc; stroke-width:0px;" /><circle id="SPH02891" cx="1226.49" cy="742.36" r="9.2" style="fill:#ccc; stroke-width:0px;" /><circle id="SPH02892" cx="1213.75" cy="761.55" r="9.2" style="fill:#ccc; stroke-width:0px;" /><circle id="SPH02893" cx="1201.01" cy="780.74" r="9.2" style="fill:#ccc; stroke-width:0px;" /><circle id="SPH02894" cx="1188.26" cy="799.94" r="9.2" style="fill:#ccc; stroke-width:0px;" /><circle id="SPH02895" cx="1175.09" cy="818.84" r="9.2" style="fill:#ccc; stroke-width:0px;" /><circle id="SPH02896" cx="1161.53" cy="837.47" r="9.2" style="fill:#ccc; stroke-width:0px;" /><circle id="SPH02897" cx="1147.96" cy="856.1" r="9.2" style="fill:#ccc; stroke-width:0px;" /><circle id="SPH02898" cx="1134.4" cy="874.73" r="9.2" style="fill:#ccc; stroke-width:0px;" /><circle id="SPH02899" cx="1120.84" cy="893.35" r="9.2" style="fill:#ccc; stroke-width:0px;" /><circle id="SPH02900" cx="1107.27" cy="911.99" r="9.2" style="fill:#ccc; stroke-width:0px;" /><circle id="SPH02901" cx="1093.71" cy="930.61" r="9.2" style="fill:#ccc; stroke-width:0px;" /><circle id="SPH02902" cx="1079.47" cy="948.71" r="9.2" style="fill:#ccc; stroke-width:0px;" /><circle id="SPH02903" cx="1065.12" cy="966.72" r="9.2" style="fill:#ccc; stroke-width:0px;" /><circle id="SPH02904" cx="1050.78" cy="984.75" r="9.2" style="fill:#ccc; stroke-width:0px;" /><circle id="SPH02905" cx="1036.43" cy="1002.76" r="9.2" style="fill:#ccc; stroke-width:0px;" /><circle id="SPH02906" cx="1022.09" cy="1020.77" r="9.2" style="fill:#ccc; stroke-width:0px;" /><circle id="SPH02907" cx="1007.74" cy="1038.79" r="9.2" style="fill:#ccc; stroke-width:0px;" /><circle id="SPH02908" cx="1290.15" cy="718.07" r="9.2" style="fill:#ccc; stroke-width:0px;" /><circle id="SPH02909" cx="1276.79" cy="738.19" r="9.2" style="fill:#ccc; stroke-width:0px;" /><circle id="SPH02910" cx="1263.44" cy="758.31" r="9.2" style="fill:#ccc; stroke-width:0px;" /><circle id="SPH02911" cx="1250.09" cy="778.41" r="9.2" style="fill:#ccc; stroke-width:0px;" /><circle id="SPH02912" cx="1236.73" cy="798.52" r="9.2" style="fill:#ccc; stroke-width:0px;" /><circle id="SPH02913" cx="1223.38" cy="818.63" r="9.2" style="fill:#ccc; stroke-width:0px;" /><circle id="SPH02914" cx="1209.74" cy="838.54" r="9.2" style="fill:#ccc; stroke-width:0px;" /><circle id="SPH02915" cx="1195.53" cy="858.05" r="9.2" style="fill:#ccc; stroke-width:0px;" /><circle id="SPH02916" cx="1181.31" cy="877.57" r="9.2" style="fill:#ccc; stroke-width:0px;" /><circle id="SPH02917" cx="1167.1" cy="897.09" r="9.2" style="fill:#ccc; stroke-width:0px;" /><circle id="SPH02918" cx="1152.89" cy="916.61" r="9.2" style="fill:#ccc; stroke-width:0px;" /><circle id="SPH02919" cx="1138.68" cy="936.13" r="9.2" style="fill:#ccc; stroke-width:0px;" /><circle id="SPH02920" cx="1124.48" cy="955.63" r="9.2" style="fill:#ccc; stroke-width:0px;" /><circle id="SPH02921" cx="1109.5" cy="974.58" r="9.2" style="fill:#ccc; stroke-width:0px;" /><circle id="SPH02922" cx="1094.45" cy="993.47" r="9.2" style="fill:#ccc; stroke-width:0px;" /><circle id="SPH02923" cx="1079.41" cy="1012.35" r="9.2" style="fill:#ccc; stroke-width:0px;" /><circle id="SPH02924" cx="1064.37" cy="1031.24" r="9.2" style="fill:#ccc; stroke-width:0px;" /><circle id="SPH02925" cx="1049.33" cy="1050.13" r="9.2" style="fill:#ccc; stroke-width:0px;" /><circle id="SPH02926" cx="1034.29" cy="1069.01" r="9.2" style="fill:#ccc; stroke-width:0px;" /><circle id="SPH02927" cx="1018.84" cy="1087.55" r="9.2" style="fill:#ccc; stroke-width:0px;" /><circle id="SPH02928" cx="1003.01" cy="1105.77" r="9.2" style="fill:#ccc; stroke-width:0px;" /><circle id="SPH02929" cx="918.49" cy="490.33" r="9.2" style="fill:#ccc; stroke-width:0px;" /><circle id="SPH02930" cx="905.01" cy="510.64" r="9.2" style="fill:#ccc; stroke-width:0px;" /><circle id="SPH02931" cx="891.52" cy="530.95" r="9.2" style="fill:#ccc; stroke-width:0px;" /><circle id="SPH02932" cx="878.04" cy="551.26" r="9.2" style="fill:#ccc; stroke-width:0px;" /><circle id="SPH02933" cx="864.55" cy="571.56" r="9.2" style="fill:#ccc; stroke-width:0px;" /><circle id="SPH02934" cx="850.69" cy="591.62" r="9.2" style="fill:#ccc; stroke-width:0px;" /><circle id="SPH02935" cx="836.34" cy="611.33" r="9.2" style="fill:#ccc; stroke-width:0px;" /><circle id="SPH02936" cx="821.99" cy="631.03" r="9.2" style="fill:#ccc; stroke-width:0px;" /><circle id="SPH02937" cx="807.64" cy="650.75" r="9.2" style="fill:#ccc; stroke-width:0px;" /><circle id="SPH02938" cx="793.29" cy="670.46" r="9.2" style="fill:#ccc; stroke-width:0px;" /><circle id="SPH02939" cx="778.94" cy="690.17" r="9.2" style="fill:#ccc; stroke-width:0px;" /><circle id="SPH02940" cx="763.87" cy="709.34" r="9.2" style="fill:#ccc; stroke-width:0px;" /><circle id="SPH02941" cx="748.68" cy="728.41" r="9.2" style="fill:#ccc; stroke-width:0px;" /><circle id="SPH02942" cx="733.49" cy="747.49" r="9.2" style="fill:#ccc; stroke-width:0px;" /><circle id="SPH02943" cx="718.3" cy="766.56" r="9.2" style="fill:#ccc; stroke-width:0px;" /><circle id="SPH02944" cx="703.11" cy="785.63" r="9.2" style="fill:#ccc; stroke-width:0px;" /><circle id="SPH02945" cx="687.7" cy="804.53" r="9.2" style="fill:#ccc; stroke-width:0px;" /><circle id="SPH02946" cx="671.7" cy="822.94" r="9.2" style="fill:#ccc; stroke-width:0px;" /></g></svg>