<svg id="Layer_1" viewBox="0 0 1697.6 1405.17" xmlns="http://www.w3.org/2000/svg"><g id="back"><g id="back-2"><path id="sphere" d="M3455.67,1208.71c0-1528.34-1241.46-2769.81-2769.81-2769.81S-2083.95-319.63-2083.95,1208.71-842.49,3978.53,685.86,3978.53h0c1528.34,0,2769.81-1241.46,2769.81-2769.81Z" style="fill:#f2f2f2; stroke:#ddd; stroke-miterlimit:10; stroke-width:3px;" /><path d="M-1650.76,1207.38c0,655.33,307.79,1239.54,786.53,1615.79,66.08,51.94,160.31,48.05,221.66-9.39C-213.51,2412.07,54.84,1840.73,54.84,1207.38S-213.51,2.69-642.57-399.02c-61.36-57.44-155.58-61.33-221.66-9.39-478.74,376.25-786.53,960.46-786.53,1615.79h0Z" style="fill:#e5e5e5; stroke:#ddd; stroke-miterlimit:10; stroke-width:3px;" /></g><g id="sectors"><path id="_208" d="M1116.18,339.92c-207.59,49.84-415.16,99.67-622.74,149.51-38.11-154.24-88.35-304.95-150.14-450.74C501.8-26.95,896.27-190.35,935-206.39c24.64,58.38,47.8,117.52,69.46,177.36h0c43.9,121.41,81.15,244.57,111.73,368.96h-.01Z" style="fill:#fff; stroke:#ddd; stroke-miterlimit:10; stroke-width:9px;" /><path id="_209" d="M935-206.39c-72.76-170.09-165.49-353.48-264.69-510.29-145.43,89.12-400.64,245.5-546.07,334.61C208.39-247.63,281.6-106.92,343.31,38.7h0c158.5-65.65,433.19-179.44,591.69-245.09h0Z" style="fill:#fff; stroke:#ddd; stroke-miterlimit:10; stroke-width:9px;" /><path id="_205" d="M493.44,1928.3c207.57,49.83,415.15,99.67,622.72,149.5,50.62-205.84,82.98-415.04,97.07-625.17-54.3-4.27-479.96-37.77-638.47-50.25-8.94,138.44-27.51,276.4-55.69,412.89h0c-7.82,37.87-16.36,75.56-25.62,113.03h0Z" style="fill:#fff; stroke:#ddd; stroke-miterlimit:10; stroke-width:9px;" /><path id="_206" d="M1080.22,975.64c-158.53,12.48-346.93,27.23-505.44,39.7,8.33,128.88,8.33,258.16-.02,387.04,158.51,12.48,479.94,37.76,638.47,50.24,11.37-196.11,8.26-257.68-.71-487.53l-132.3,10.55h0Z" style="fill:#fff; stroke:#ddd; stroke-miterlimit:10; stroke-width:9px;" /><path id="_207" d="M574.78,1015.34c158.51-12.47,583.44-45.97,637.74-50.25-14.1-210.13-45.74-419.33-96.35-625.18-207.57,49.83-415.14,99.67-622.7,149.5,9.25,37.46,17.8,75.12,25.61,112.97h0c28.19,136.51,46.76,274.5,55.71,412.95h-.01Z" style="fill:#fff; stroke:#ddd; stroke-miterlimit:10; stroke-width:9px;" /><path id="_306" d="M2191.54,1525.88c-207.68-16.34-415.35-32.69-623.01-49.03,12.79-178.43,12.79-357.55,0-535.97,207.67-16.35,415.35-32.69,623.03-49.04,7.67,105.48,11.49,211.17,11.49,316.86h0c0,105.8-3.84,211.59-11.52,317.17h0Z" style="fill:#fff; stroke:#ddd; stroke-miterlimit:10; stroke-width:9px;" /><path id="_307" d="M2191.57,891.84c-207.68,16.35-415.36,32.69-623.03,49.04-3.99-55.87-9.25-111.67-15.76-167.35-16.51-141.27-41.03-281.35-73.41-419.58,202.57-48.63,405.14-97.27,607.72-145.9,19.57,83.27,36.66,166.98,51.27,251h0c24.96,143.5,42.69,287.95,53.2,432.79h.01Z" style="fill:#fff; stroke:#ddd; stroke-miterlimit:10; stroke-width:9px;" /><path id="_308" d="M2087.09,208.05c-202.58,48.64-405.16,97.27-607.72,145.9-12.93-55.23-27.11-110.16-42.53-164.76-75.94-20.35-151.87-40.69-227.81-61.04-13.06-40.84-26.87-81.5-41.44-121.97-16.85-46.81-34.67-93.18-53.41-139.09,254.24-105.31,508.48-210.62,762.73-315.93,23.67,57.81,46.14,116.22,67.38,175.2h0c57.02,158.36,104.64,319.19,142.8,481.68h0Z" style="fill:#fff; stroke:#ddd; stroke-miterlimit:10; stroke-width:9px;" /></g></g><g id="Seats"><circle id="SPH03913" cx="695.13" cy="486.99" r="9.2" style="fill:#ccc; stroke-width:0px;" /><circle id="SPH03914" cx="701.04" cy="511.37" r="9.2" style="fill:#ccc; stroke-width:0px;" /><circle id="SPH03915" cx="706.46" cy="535.86" r="9.2" style="fill:#ccc; stroke-width:0px;" /><circle id="SPH03916" cx="711.3" cy="560.47" r="9.2" style="fill:#ccc; stroke-width:0px;" /><circle id="SPH03917" cx="716.16" cy="585.1" r="9.2" style="fill:#ccc; stroke-width:0px;" /><circle id="SPH03918" cx="721.01" cy="609.71" r="9.2" style="fill:#ccc; stroke-width:0px;" /><circle id="SPH03919" cx="725.86" cy="634.33" r="9.2" style="fill:#ccc; stroke-width:0px;" /><circle id="SPH03920" cx="730.71" cy="658.94" r="9.2" style="fill:#ccc; stroke-width:0px;" /><circle id="SPH03921" cx="734.54" cy="683.73" r="9.2" style="fill:#ccc; stroke-width:0px;" /><circle id="SPH03922" cx="738.32" cy="708.52" r="9.2" style="fill:#ccc; stroke-width:0px;" /><circle id="SPH03923" cx="742.1" cy="733.31" r="9.2" style="fill:#ccc; stroke-width:0px;" /><circle id="SPH03924" cx="745.87" cy="758.1" r="9.2" style="fill:#ccc; stroke-width:0px;" /><circle id="SPH03925" cx="749.66" cy="782.9" r="9.2" style="fill:#ccc; stroke-width:0px;" /><circle id="SPH03926" cx="752.95" cy="807.75" r="9.2" style="fill:#ccc; stroke-width:0px;" /><circle id="SPH03927" cx="755.66" cy="832.67" r="9.2" style="fill:#ccc; stroke-width:0px;" /><circle id="SPH03928" cx="758.36" cy="857.59" r="9.2" style="fill:#ccc; stroke-width:0px;" /><circle id="SPH03929" cx="761.06" cy="882.52" r="9.2" style="fill:#ccc; stroke-width:0px;" /><circle id="SPH03930" cx="763.76" cy="907.44" r="9.2" style="fill:#ccc; stroke-width:0px;" /><circle id="SPH03931" cx="766.46" cy="932.37" r="9.2" style="fill:#ccc; stroke-width:0px;" /><circle id="SPH03932" cx="768.15" cy="957.37" r="9.2" style="fill:#ccc; stroke-width:0px;" /><circle id="SPH03933" cx="733.63" cy="477.75" r="9.2" style="fill:#ccc; stroke-width:0px;" /><circle id="SPH03934" cx="739.62" cy="502.46" r="9.2" style="fill:#ccc; stroke-width:0px;" /><circle id="SPH03935" cx="745.12" cy="527.26" r="9.2" style="fill:#ccc; stroke-width:0px;" /><circle id="SPH03936" cx="750.04" cy="552.21" r="9.2" style="fill:#ccc; stroke-width:0px;" /><circle id="SPH03937" cx="754.95" cy="577.14" r="9.2" style="fill:#ccc; stroke-width:0px;" /><circle id="SPH03938" cx="759.86" cy="602.08" r="9.2" style="fill:#ccc; stroke-width:0px;" /><circle id="SPH03939" cx="764.78" cy="627.02" r="9.2" style="fill:#ccc; stroke-width:0px;" /><circle id="SPH03940" cx="769.7" cy="651.97" r="9.2" style="fill:#ccc; stroke-width:0px;" /><circle id="SPH03941" cx="773.58" cy="677.09" r="9.2" style="fill:#ccc; stroke-width:0px;" /><circle id="SPH03942" cx="777.42" cy="702.21" r="9.2" style="fill:#ccc; stroke-width:0px;" /><circle id="SPH03943" cx="781.24" cy="727.33" r="9.2" style="fill:#ccc; stroke-width:0px;" /><circle id="SPH03944" cx="785.07" cy="752.49" r="9.2" style="fill:#ccc; stroke-width:0px;" /><circle id="SPH03945" cx="788.91" cy="777.64" r="9.2" style="fill:#ccc; stroke-width:0px;" /><circle id="SPH03946" cx="792.26" cy="802.84" r="9.2" style="fill:#ccc; stroke-width:0px;" /><circle id="SPH03947" cx="794.99" cy="828.11" r="9.2" style="fill:#ccc; stroke-width:0px;" /><circle id="SPH03948" cx="797.73" cy="853.37" r="9.2" style="fill:#ccc; stroke-width:0px;" /><circle id="SPH03949" cx="800.47" cy="878.62" r="9.2" style="fill:#ccc; stroke-width:0px;" /><circle id="SPH03950" cx="803.21" cy="903.89" r="9.2" style="fill:#ccc; stroke-width:0px;" /><circle id="SPH03951" cx="805.94" cy="929.13" r="9.2" style="fill:#ccc; stroke-width:0px;" /><circle id="SPH03952" cx="807.65" cy="954.48" r="9.2" style="fill:#ccc; stroke-width:0px;" /><circle id="SPH03953" cx="772.14" cy="468.5" r="9.2" style="fill:#ccc; stroke-width:0px;" /><circle id="SPH03954" cx="778.21" cy="493.52" r="9.2" style="fill:#ccc; stroke-width:0px;" /><circle id="SPH03955" cx="783.78" cy="518.64" r="9.2" style="fill:#ccc; stroke-width:0px;" /><circle id="SPH03956" cx="788.76" cy="543.9" r="9.2" style="fill:#ccc; stroke-width:0px;" /><circle id="SPH03957" cx="793.74" cy="569.14" r="9.2" style="fill:#ccc; stroke-width:0px;" /><circle id="SPH03958" cx="798.71" cy="594.4" r="9.2" style="fill:#ccc; stroke-width:0px;" /><circle id="SPH03959" cx="803.69" cy="619.66" r="9.2" style="fill:#ccc; stroke-width:0px;" /><circle id="SPH03960" cx="808.67" cy="644.91" r="9.2" style="fill:#ccc; stroke-width:0px;" /><circle id="SPH03961" cx="812.62" cy="670.36" r="9.2" style="fill:#ccc; stroke-width:0px;" /><circle id="SPH03962" cx="816.5" cy="695.82" r="9.2" style="fill:#ccc; stroke-width:0px;" /><circle id="SPH03963" cx="820.38" cy="721.29" r="9.2" style="fill:#ccc; stroke-width:0px;" /><circle id="SPH03964" cx="824.26" cy="746.73" r="9.2" style="fill:#ccc; stroke-width:0px;" /><circle id="SPH03965" cx="828.14" cy="772.17" r="9.2" style="fill:#ccc; stroke-width:0px;" /><circle id="SPH03966" cx="831.53" cy="797.7" r="9.2" style="fill:#ccc; stroke-width:0px;" /><circle id="SPH03967" cx="834.3" cy="823.3" r="9.2" style="fill:#ccc; stroke-width:0px;" /><circle id="SPH03968" cx="837.08" cy="848.9" r="9.2" style="fill:#ccc; stroke-width:0px;" /><circle id="SPH03969" cx="839.85" cy="874.47" r="9.2" style="fill:#ccc; stroke-width:0px;" /><circle id="SPH03970" cx="842.62" cy="900.06" r="9.2" style="fill:#ccc; stroke-width:0px;" /><circle id="SPH03971" cx="845.4" cy="925.64" r="9.2" style="fill:#ccc; stroke-width:0px;" /><circle id="SPH03972" cx="847.13" cy="951.3" r="9.2" style="fill:#ccc; stroke-width:0px;" /><circle id="SPH03973" cx="810.65" cy="459.26" r="9.2" style="fill:#ccc; stroke-width:0px;" /><circle id="SPH03974" cx="816.48" cy="483.33" r="9.2" style="fill:#ccc; stroke-width:0px;" /><circle id="SPH03975" cx="821.94" cy="507.47" r="9.2" style="fill:#ccc; stroke-width:0px;" /><circle id="SPH03976" cx="826.74" cy="531.77" r="9.2" style="fill:#ccc; stroke-width:0px;" /><circle id="SPH03977" cx="831.52" cy="556.06" r="9.2" style="fill:#ccc; stroke-width:0px;" /><circle id="SPH03978" cx="836.31" cy="580.37" r="9.2" style="fill:#ccc; stroke-width:0px;" /><circle id="SPH03979" cx="841.1" cy="604.67" r="9.2" style="fill:#ccc; stroke-width:0px;" /><circle id="SPH03980" cx="845.89" cy="628.97" r="9.2" style="fill:#ccc; stroke-width:0px;" /><circle id="SPH03981" cx="850.09" cy="653.37" r="9.2" style="fill:#ccc; stroke-width:0px;" /><circle id="SPH03982" cx="853.82" cy="677.86" r="9.2" style="fill:#ccc; stroke-width:0px;" /><circle id="SPH03983" cx="857.54" cy="702.33" r="9.2" style="fill:#ccc; stroke-width:0px;" /><circle id="SPH03984" cx="861.28" cy="726.81" r="9.2" style="fill:#ccc; stroke-width:0px;" /><circle id="SPH03985" cx="865.01" cy="751.29" r="9.2" style="fill:#ccc; stroke-width:0px;" /><circle id="SPH03986" cx="868.74" cy="775.77" r="9.2" style="fill:#ccc; stroke-width:0px;" /><circle id="SPH03987" cx="871.65" cy="800.35" r="9.2" style="fill:#ccc; stroke-width:0px;" /><circle id="SPH03988" cx="874.32" cy="824.96" r="9.2" style="fill:#ccc; stroke-width:0px;" /><circle id="SPH03989" cx="876.98" cy="849.57" r="9.2" style="fill:#ccc; stroke-width:0px;" /><circle id="SPH03990" cx="879.65" cy="874.17" r="9.2" style="fill:#ccc; stroke-width:0px;" /><circle id="SPH03991" cx="882.32" cy="898.79" r="9.2" style="fill:#ccc; stroke-width:0px;" /><circle id="SPH03992" cx="884.98" cy="923.4" r="9.2" style="fill:#ccc; stroke-width:0px;" /><circle id="SPH03993" cx="886.6" cy="948.1" r="9.2" style="fill:#ccc; stroke-width:0px;" /><circle id="SPH03994" cx="849.15" cy="450.02" r="9.2" style="fill:#ccc; stroke-width:0px;" /><circle id="SPH03995" cx="855.06" cy="474.39" r="9.2" style="fill:#ccc; stroke-width:0px;" /><circle id="SPH03996" cx="860.61" cy="498.85" r="9.2" style="fill:#ccc; stroke-width:0px;" /><circle id="SPH03997" cx="865.46" cy="523.45" r="9.2" style="fill:#ccc; stroke-width:0px;" /><circle id="SPH03998" cx="870.3" cy="548.06" r="9.2" style="fill:#ccc; stroke-width:0px;" /><circle id="SPH03999" cx="875.15" cy="572.66" r="9.2" style="fill:#ccc; stroke-width:0px;" /><circle id="SPH04000" cx="880" cy="597.27" r="9.2" style="fill:#ccc; stroke-width:0px;" /><circle id="SPH04001" cx="884.86" cy="621.89" r="9.2" style="fill:#ccc; stroke-width:0px;" /><circle id="SPH04002" cx="889.11" cy="646.6" r="9.2" style="fill:#ccc; stroke-width:0px;" /><circle id="SPH04003" cx="892.89" cy="671.37" r="9.2" style="fill:#ccc; stroke-width:0px;" /><circle id="SPH04004" cx="896.66" cy="696.15" r="9.2" style="fill:#ccc; stroke-width:0px;" /><circle id="SPH04005" cx="900.44" cy="720.96" r="9.2" style="fill:#ccc; stroke-width:0px;" /><circle id="SPH04006" cx="904.22" cy="745.77" r="9.2" style="fill:#ccc; stroke-width:0px;" /><circle id="SPH04007" cx="908.01" cy="770.58" r="9.2" style="fill:#ccc; stroke-width:0px;" /><circle id="SPH04008" cx="910.95" cy="795.49" r="9.2" style="fill:#ccc; stroke-width:0px;" /><circle id="SPH04009" cx="913.66" cy="820.42" r="9.2" style="fill:#ccc; stroke-width:0px;" /><circle id="SPH04010" cx="916.36" cy="845.36" r="9.2" style="fill:#ccc; stroke-width:0px;" /><circle id="SPH04011" cx="919.06" cy="870.28" r="9.2" style="fill:#ccc; stroke-width:0px;" /><circle id="SPH04012" cx="921.76" cy="895.21" r="9.2" style="fill:#ccc; stroke-width:0px;" /><circle id="SPH04013" cx="924.46" cy="920.13" r="9.2" style="fill:#ccc; stroke-width:0px;" /><circle id="SPH04014" cx="926.09" cy="945.14" r="9.2" style="fill:#ccc; stroke-width:0px;" /><circle id="SPH04015" cx="887.66" cy="440.77" r="9.2" style="fill:#ccc; stroke-width:0px;" /><circle id="SPH04016" cx="893.64" cy="465.45" r="9.2" style="fill:#ccc; stroke-width:0px;" /><circle id="SPH04017" cx="899.26" cy="490.22" r="9.2" style="fill:#ccc; stroke-width:0px;" /><circle id="SPH04018" cx="904.18" cy="515.13" r="9.2" style="fill:#ccc; stroke-width:0px;" /><circle id="SPH04019" cx="909.09" cy="540.05" r="9.2" style="fill:#ccc; stroke-width:0px;" /><circle id="SPH04020" cx="913.99" cy="564.95" r="9.2" style="fill:#ccc; stroke-width:0px;" /><circle id="SPH04021" cx="918.9" cy="589.86" r="9.2" style="fill:#ccc; stroke-width:0px;" /><circle id="SPH04022" cx="923.81" cy="614.76" r="9.2" style="fill:#ccc; stroke-width:0px;" /><circle id="SPH04023" cx="928.13" cy="639.77" r="9.2" style="fill:#ccc; stroke-width:0px;" /><circle id="SPH04024" cx="931.95" cy="664.89" r="9.2" style="fill:#ccc; stroke-width:0px;" /><circle id="SPH04025" cx="935.78" cy="690.01" r="9.2" style="fill:#ccc; stroke-width:0px;" /><circle id="SPH04026" cx="939.61" cy="715.09" r="9.2" style="fill:#ccc; stroke-width:0px;" /><circle id="SPH04027" cx="943.42" cy="740.14" r="9.2" style="fill:#ccc; stroke-width:0px;" /><circle id="SPH04028" cx="947.24" cy="765.21" r="9.2" style="fill:#ccc; stroke-width:0px;" /><circle id="SPH04029" cx="950.24" cy="790.42" r="9.2" style="fill:#ccc; stroke-width:0px;" /><circle id="SPH04030" cx="952.98" cy="815.69" r="9.2" style="fill:#ccc; stroke-width:0px;" /><circle id="SPH04031" cx="955.71" cy="840.93" r="9.2" style="fill:#ccc; stroke-width:0px;" /><circle id="SPH04032" cx="958.45" cy="866.17" r="9.2" style="fill:#ccc; stroke-width:0px;" /><circle id="SPH04033" cx="961.18" cy="891.41" r="9.2" style="fill:#ccc; stroke-width:0px;" /><circle id="SPH04034" cx="963.92" cy="916.64" r="9.2" style="fill:#ccc; stroke-width:0px;" /><circle id="SPH04035" cx="965.57" cy="941.96" r="9.2" style="fill:#ccc; stroke-width:0px;" /><circle id="SPH04036" cx="926.16" cy="431.53" r="9.2" style="fill:#ccc; stroke-width:0px;" /><circle id="SPH04037" cx="932.22" cy="456.5" r="9.2" style="fill:#ccc; stroke-width:0px;" /><circle id="SPH04038" cx="937.93" cy="481.56" r="9.2" style="fill:#ccc; stroke-width:0px;" /><circle id="SPH04039" cx="942.9" cy="506.78" r="9.2" style="fill:#ccc; stroke-width:0px;" /><circle id="SPH04040" cx="947.86" cy="532.01" r="9.2" style="fill:#ccc; stroke-width:0px;" /><circle id="SPH04041" cx="952.83" cy="557.22" r="9.2" style="fill:#ccc; stroke-width:0px;" /><circle id="SPH04042" cx="957.8" cy="582.42" r="9.2" style="fill:#ccc; stroke-width:0px;" /><circle id="SPH04043" cx="962.77" cy="607.63" r="9.2" style="fill:#ccc; stroke-width:0px;" /><circle id="SPH04044" cx="967.14" cy="632.94" r="9.2" style="fill:#ccc; stroke-width:0px;" /><circle id="SPH04045" cx="971.02" cy="658.35" r="9.2" style="fill:#ccc; stroke-width:0px;" /><circle id="SPH04046" cx="974.89" cy="683.76" r="9.2" style="fill:#ccc; stroke-width:0px;" /><circle id="SPH04047" cx="978.76" cy="709.17" r="9.2" style="fill:#ccc; stroke-width:0px;" /><circle id="SPH04048" cx="982.63" cy="734.57" r="9.2" style="fill:#ccc; stroke-width:0px;" /><circle id="SPH04049" cx="986.5" cy="759.97" r="9.2" style="fill:#ccc; stroke-width:0px;" /><circle id="SPH04050" cx="989.54" cy="785.49" r="9.2" style="fill:#ccc; stroke-width:0px;" /><circle id="SPH04051" cx="992.3" cy="811.02" r="9.2" style="fill:#ccc; stroke-width:0px;" /><circle id="SPH04052" cx="995.07" cy="836.57" r="9.2" style="fill:#ccc; stroke-width:0px;" /><circle id="SPH04053" cx="997.84" cy="862.11" r="9.2" style="fill:#ccc; stroke-width:0px;" /><circle id="SPH04054" cx="1000.61" cy="887.66" r="9.2" style="fill:#ccc; stroke-width:0px;" /><circle id="SPH04055" cx="1003.38" cy="913.2" r="9.2" style="fill:#ccc; stroke-width:0px;" /><circle id="SPH04056" cx="1005.05" cy="938.83" r="9.2" style="fill:#ccc; stroke-width:0px;" /><circle id="SPH04057" cx="976.97" cy="474.86" r="9.2" style="fill:#ccc; stroke-width:0px;" /><circle id="SPH04058" cx="981.66" cy="498.66" r="9.2" style="fill:#ccc; stroke-width:0px;" /><circle id="SPH04059" cx="986.34" cy="522.45" r="9.2" style="fill:#ccc; stroke-width:0px;" /><circle id="SPH04060" cx="991.03" cy="546.25" r="9.2" style="fill:#ccc; stroke-width:0px;" /><circle id="SPH04061" cx="995.72" cy="570.04" r="9.2" style="fill:#ccc; stroke-width:0px;" /><circle id="SPH04062" cx="1000.41" cy="593.82" r="9.2" style="fill:#ccc; stroke-width:0px;" /><circle id="SPH04063" cx="1004.87" cy="617.66" r="9.2" style="fill:#ccc; stroke-width:0px;" /><circle id="SPH04064" cx="1008.53" cy="641.63" r="9.2" style="fill:#ccc; stroke-width:0px;" /><circle id="SPH04065" cx="1012.18" cy="665.6" r="9.2" style="fill:#ccc; stroke-width:0px;" /><circle id="SPH04066" cx="1015.83" cy="689.57" r="9.2" style="fill:#ccc; stroke-width:0px;" /><circle id="SPH04067" cx="1019.49" cy="713.58" r="9.2" transform="translate(151.82 1605.6) rotate(-80.78)" style="fill:#ccc; stroke-width:0px;" /><circle id="SPH04068" cx="1023.14" cy="737.59" r="9.2" transform="translate(131.19 1629.37) rotate(-80.78)" style="fill:#ccc; stroke-width:0px;" /><circle id="SPH04069" cx="1026.78" cy="761.59" r="9.2" transform="translate(110.55 1653.12) rotate(-80.78)" style="fill:#ccc; stroke-width:0px;" /><circle id="SPH04070" cx="1029.39" cy="785.7" r="9.2" transform="translate(88.95 1675.94) rotate(-80.78)" style="fill:#ccc; stroke-width:0px;" /><circle id="SPH04071" cx="1032" cy="809.82" r="9.2" transform="translate(67.33 1698.78) rotate(-80.78)" style="fill:#ccc; stroke-width:0px;" /><circle id="SPH04072" cx="1034.62" cy="833.93" r="9.2" style="fill:#ccc; stroke-width:0px;" /><circle id="SPH04073" cx="1037.23" cy="858.04" r="9.2" style="fill:#ccc; stroke-width:0px;" /><circle id="SPH04074" cx="1039.84" cy="882.15" r="9.2" style="fill:#ccc; stroke-width:0px;" /><circle id="SPH04075" cx="1015.5" cy="465.61" r="9.2" transform="translate(393.24 1393.41) rotate(-80.78)" style="fill:#ccc; stroke-width:0px;" /><circle id="SPH04076" cx="1020.26" cy="489.75" r="9.2" transform="translate(373.41 1418.39) rotate(-80.78)" style="fill:#ccc; stroke-width:0px;" /><circle id="SPH04077" cx="1025.02" cy="513.9" r="9.2" transform="translate(353.57 1443.37) rotate(-80.78)" style="fill:#ccc; stroke-width:0px;" /><circle id="SPH04078" cx="1029.78" cy="538.05" r="9.2" transform="translate(333.72 1468.35) rotate(-80.78)" style="fill:#ccc; stroke-width:0px;" /><circle id="SPH04079" cx="1034.54" cy="562.21" r="9.2" style="fill:#ccc; stroke-width:0px;" /><circle id="SPH04080" cx="1039.3" cy="586.36" r="9.2" style="fill:#ccc; stroke-width:0px;" /><circle id="SPH04081" cx="1043.85" cy="610.55" r="9.2" style="fill:#ccc; stroke-width:0px;" /><circle id="SPH04082" cx="1047.55" cy="634.89" r="9.2" style="fill:#ccc; stroke-width:0px;" /><circle id="SPH04083" cx="1051.26" cy="659.23" r="9.2" style="fill:#ccc; stroke-width:0px;" /><circle id="SPH04084" cx="1054.97" cy="683.55" r="9.2" style="fill:#ccc; stroke-width:0px;" /><circle id="SPH04085" cx="1058.67" cy="707.86" r="9.2" style="fill:#ccc; stroke-width:0px;" /><circle id="SPH04086" cx="1062.38" cy="732.15" r="9.2" style="fill:#ccc; stroke-width:0px;" /><circle id="SPH04087" cx="1066.05" cy="756.47" r="9.2" style="fill:#ccc; stroke-width:0px;" /><circle id="SPH04088" cx="1068.7" cy="780.95" r="9.2" style="fill:#ccc; stroke-width:0px;" /><circle id="SPH04089" cx="1071.36" cy="805.44" r="9.2" style="fill:#ccc; stroke-width:0px;" /><circle id="SPH04090" cx="1074.02" cy="829.92" r="9.2" style="fill:#ccc; stroke-width:0px;" /><circle id="SPH04091" cx="1076.66" cy="854.4" r="9.2" style="fill:#ccc; stroke-width:0px;" /><circle id="SPH04092" cx="1079.32" cy="878.88" r="9.2" style="fill:#ccc; stroke-width:0px;" /><circle id="SPH04093" cx="541.1" cy="523.97" r="9.2" style="fill:#ccc; stroke-width:0px;" /><circle id="SPH04094" cx="547.02" cy="548.36" r="9.2" style="fill:#ccc; stroke-width:0px;" /><circle id="SPH04095" cx="552.3" cy="572.89" r="9.2" style="fill:#ccc; stroke-width:0px;" /><circle id="SPH04096" cx="557.16" cy="597.51" r="9.2" style="fill:#ccc; stroke-width:0px;" /><circle id="SPH04097" cx="562.02" cy="622.14" r="9.2" style="fill:#ccc; stroke-width:0px;" /><circle id="SPH04098" cx="566.86" cy="646.77" r="9.2" style="fill:#ccc; stroke-width:0px;" /><circle id="SPH04099" cx="571.72" cy="671.39" r="9.2" style="fill:#ccc; stroke-width:0px;" /><circle id="SPH04100" cx="576.19" cy="696.07" r="9.2" style="fill:#ccc; stroke-width:0px;" /><circle id="SPH04101" cx="579.98" cy="720.89" r="9.2" style="fill:#ccc; stroke-width:0px;" /><circle id="SPH04102" cx="583.76" cy="745.71" r="9.2" style="fill:#ccc; stroke-width:0px;" /><circle id="SPH04103" cx="587.54" cy="770.53" r="9.2" style="fill:#ccc; stroke-width:0px;" /><circle id="SPH04104" cx="591.32" cy="795.33" r="9.2" style="fill:#ccc; stroke-width:0px;" /><circle id="SPH04105" cx="594.98" cy="820.15" r="9.2" style="fill:#ccc; stroke-width:0px;" /><circle id="SPH04106" cx="597.68" cy="845.1" r="9.2" style="fill:#ccc; stroke-width:0px;" /><circle id="SPH04107" cx="600.38" cy="870.03" r="9.2" style="fill:#ccc; stroke-width:0px;" /><circle id="SPH04108" cx="603.08" cy="894.97" r="9.2" style="fill:#ccc; stroke-width:0px;" /><circle id="SPH04109" cx="605.78" cy="919.9" r="9.2" style="fill:#ccc; stroke-width:0px;" /><circle id="SPH04110" cx="608.49" cy="944.84" r="9.2" style="fill:#ccc; stroke-width:0px;" /><circle id="SPH04111" cx="610.23" cy="969.86" r="9.2" style="fill:#ccc; stroke-width:0px;" /><circle id="SPH04112" cx="579.61" cy="514.73" r="9.2" style="fill:#ccc; stroke-width:0px;" /><circle id="SPH04113" cx="585.61" cy="539.46" r="9.2" style="fill:#ccc; stroke-width:0px;" /><circle id="SPH04114" cx="590.98" cy="564.33" r="9.2" style="fill:#ccc; stroke-width:0px;" /><circle id="SPH04115" cx="595.9" cy="589.3" r="9.2" style="fill:#ccc; stroke-width:0px;" /><circle id="SPH04116" cx="600.82" cy="614.26" r="9.2" style="fill:#ccc; stroke-width:0px;" /><circle id="SPH04117" cx="605.74" cy="639.23" r="9.2" style="fill:#ccc; stroke-width:0px;" /><circle id="SPH04118" cx="610.66" cy="664.21" r="9.2" style="fill:#ccc; stroke-width:0px;" /><circle id="SPH04119" cx="615.21" cy="689.24" r="9.2" style="fill:#ccc; stroke-width:0px;" /><circle id="SPH04120" cx="619.04" cy="714.37" r="9.2" style="fill:#ccc; stroke-width:0px;" /><circle id="SPH04121" cx="622.87" cy="739.52" r="9.2" style="fill:#ccc; stroke-width:0px;" /><circle id="SPH04122" cx="626.7" cy="764.67" r="9.2" style="fill:#ccc; stroke-width:0px;" /><circle id="SPH04123" cx="630.54" cy="789.82" r="9.2" style="fill:#ccc; stroke-width:0px;" /><circle id="SPH04124" cx="634.24" cy="814.97" r="9.2" style="fill:#ccc; stroke-width:0px;" /><circle id="SPH04125" cx="636.98" cy="840.26" r="9.2" style="fill:#ccc; stroke-width:0px;" /><circle id="SPH04126" cx="639.73" cy="865.55" r="9.2" style="fill:#ccc; stroke-width:0px;" /><circle id="SPH04127" cx="642.46" cy="890.84" r="9.2" style="fill:#ccc; stroke-width:0px;" /><circle id="SPH04128" cx="645.21" cy="916.13" r="9.2" style="fill:#ccc; stroke-width:0px;" /><circle id="SPH04129" cx="647.94" cy="941.41" r="9.2" style="fill:#ccc; stroke-width:0px;" /><circle id="SPH04130" cx="649.71" cy="966.77" r="9.2" style="fill:#ccc; stroke-width:0px;" /><circle id="SPH04131" cx="618.12" cy="505.48" r="9.2" style="fill:#ccc; stroke-width:0px;" /><circle id="SPH04132" cx="624.2" cy="530.55" r="9.2" style="fill:#ccc; stroke-width:0px;" /><circle id="SPH04133" cx="629.66" cy="555.75" r="9.2" style="fill:#ccc; stroke-width:0px;" /><circle id="SPH04134" cx="634.64" cy="581.06" r="9.2" style="fill:#ccc; stroke-width:0px;" /><circle id="SPH04135" cx="639.62" cy="606.37" r="9.2" style="fill:#ccc; stroke-width:0px;" /><circle id="SPH04136" cx="644.62" cy="631.67" r="9.2" style="fill:#ccc; stroke-width:0px;" /><circle id="SPH04137" cx="649.6" cy="656.98" r="9.2" style="fill:#ccc; stroke-width:0px;" /><circle id="SPH04138" cx="654.22" cy="682.35" r="9.2" style="fill:#ccc; stroke-width:0px;" /><circle id="SPH04139" cx="658.1" cy="707.86" r="9.2" style="fill:#ccc; stroke-width:0px;" /><circle id="SPH04140" cx="661.99" cy="733.35" r="9.2" style="fill:#ccc; stroke-width:0px;" /><circle id="SPH04141" cx="665.87" cy="758.85" r="9.2" style="fill:#ccc; stroke-width:0px;" /><circle id="SPH04142" cx="669.76" cy="784.37" r="9.2" style="fill:#ccc; stroke-width:0px;" /><circle id="SPH04143" cx="673.53" cy="809.9" r="9.2" style="fill:#ccc; stroke-width:0px;" /><circle id="SPH04144" cx="676.3" cy="835.53" r="9.2" style="fill:#ccc; stroke-width:0px;" /><circle id="SPH04145" cx="679.08" cy="861.15" r="9.2" style="fill:#ccc; stroke-width:0px;" /><circle id="SPH04146" cx="681.86" cy="886.78" r="9.2" style="fill:#ccc; stroke-width:0px;" /><circle id="SPH04147" cx="684.63" cy="912.41" r="9.2" style="fill:#ccc; stroke-width:0px;" /><circle id="SPH04148" cx="687.42" cy="938.03" r="9.2" style="fill:#ccc; stroke-width:0px;" /><circle id="SPH04149" cx="689.2" cy="963.74" r="9.2" style="fill:#ccc; stroke-width:0px;" /><circle id="SPH04150" cx="1054.04" cy="456.36" r="9.2" style="fill:#ccc; stroke-width:0px;" /><circle id="SPH04151" cx="1058.6" cy="479.5" r="9.2" style="fill:#ccc; stroke-width:0px;" /><circle id="SPH04152" cx="1063.17" cy="502.66" r="9.2" style="fill:#ccc; stroke-width:0px;" /><circle id="SPH04153" cx="1067.73" cy="525.81" r="9.2" style="fill:#ccc; stroke-width:0px;" /><circle id="SPH04154" cx="1072.29" cy="548.95" r="9.2" style="fill:#ccc; stroke-width:0px;" /><circle id="SPH04155" cx="1076.85" cy="572.1" r="9.2" style="fill:#ccc; stroke-width:0px;" /><circle id="SPH04156" cx="1081.41" cy="595.24" r="9.2" style="fill:#ccc; stroke-width:0px;" /><circle id="SPH04157" cx="1085.12" cy="618.53" r="9.2" style="fill:#ccc; stroke-width:0px;" /><circle id="SPH04158" cx="1088.67" cy="641.86" r="9.2" style="fill:#ccc; stroke-width:0px;" /><circle id="SPH04159" cx="1092.23" cy="665.19" r="9.2" style="fill:#ccc; stroke-width:0px;" /><circle id="SPH04160" cx="1095.78" cy="688.51" r="9.2" style="fill:#ccc; stroke-width:0px;" /><circle id="SPH04161" cx="1099.34" cy="711.84" r="9.2" style="fill:#ccc; stroke-width:0px;" /><circle id="SPH04162" cx="1102.9" cy="735.17" r="9.2" style="fill:#ccc; stroke-width:0px;" /><circle id="SPH04163" cx="1106.1" cy="758.53" r="9.2" style="fill:#ccc; stroke-width:0px;" /><circle id="SPH04164" cx="1108.65" cy="781.97" r="9.2" style="fill:#ccc; stroke-width:0px;" /><circle id="SPH04165" cx="1111.19" cy="805.42" r="9.2" style="fill:#ccc; stroke-width:0px;" /><circle id="SPH04166" cx="1113.73" cy="828.86" r="9.2" style="fill:#ccc; stroke-width:0px;" /><circle id="SPH04167" cx="1116.27" cy="852.32" r="9.2" style="fill:#ccc; stroke-width:0px;" /><circle id="SPH04168" cx="1118.82" cy="875.77" r="9.2" style="fill:#ccc; stroke-width:0px;" /><circle id="SPH04169" cx="656.62" cy="496.24" r="9.2" style="fill:#ccc; stroke-width:0px;" /><circle id="SPH04170" cx="662.46" cy="520.3" r="9.2" style="fill:#ccc; stroke-width:0px;" /><circle id="SPH04171" cx="667.79" cy="544.48" r="9.2" style="fill:#ccc; stroke-width:0px;" /><circle id="SPH04172" cx="672.58" cy="568.77" r="9.2" style="fill:#ccc; stroke-width:0px;" /><circle id="SPH04173" cx="677.37" cy="593.07" r="9.2" style="fill:#ccc; stroke-width:0px;" /><circle id="SPH04174" cx="682.15" cy="617.36" r="9.2" style="fill:#ccc; stroke-width:0px;" /><circle id="SPH04175" cx="686.94" cy="641.65" r="9.2" style="fill:#ccc; stroke-width:0px;" /><circle id="SPH04176" cx="691.73" cy="665.93" r="9.2" style="fill:#ccc; stroke-width:0px;" /><circle id="SPH04177" cx="695.5" cy="690.42" r="9.2" style="fill:#ccc; stroke-width:0px;" /><circle id="SPH04178" cx="699.23" cy="714.9" r="9.2" style="fill:#ccc; stroke-width:0px;" /><circle id="SPH04179" cx="702.97" cy="739.38" r="9.2" style="fill:#ccc; stroke-width:0px;" /><circle id="SPH04180" cx="706.7" cy="763.86" r="9.2" style="fill:#ccc; stroke-width:0px;" /><circle id="SPH04181" cx="710.42" cy="788.33" r="9.2" style="fill:#ccc; stroke-width:0px;" /><circle id="SPH04182" cx="713.68" cy="812.86" r="9.2" style="fill:#ccc; stroke-width:0px;" /><circle id="SPH04183" cx="716.34" cy="837.48" r="9.2" style="fill:#ccc; stroke-width:0px;" /><circle id="SPH04184" cx="719.02" cy="862.08" r="9.2" style="fill:#ccc; stroke-width:0px;" /><circle id="SPH04185" cx="721.68" cy="886.68" r="9.2" style="fill:#ccc; stroke-width:0px;" /><circle id="SPH04186" cx="724.34" cy="911.28" r="9.2" style="fill:#ccc; stroke-width:0px;" /><circle id="SPH04187" cx="727.01" cy="935.88" r="9.2" style="fill:#ccc; stroke-width:0px;" /><circle id="SPH04188" cx="728.67" cy="960.57" r="9.2" style="fill:#ccc; stroke-width:0px;" /><circle id="SPH04189" cx="1092.58" cy="447.1" r="9.2" style="fill:#ccc; stroke-width:0px;" /><circle id="SPH04190" cx="1097.21" cy="470.59" r="9.2" style="fill:#ccc; stroke-width:0px;" /><circle id="SPH04191" cx="1101.83" cy="494.08" r="9.2" style="fill:#ccc; stroke-width:0px;" /><circle id="SPH04192" cx="1106.46" cy="517.57" r="9.2" style="fill:#ccc; stroke-width:0px;" /><circle id="SPH04193" cx="1111.1" cy="541.06" r="9.2" style="fill:#ccc; stroke-width:0px;" /><circle id="SPH04194" cx="1115.72" cy="564.54" r="9.2" style="fill:#ccc; stroke-width:0px;" /><circle id="SPH04195" cx="1120.35" cy="588.04" r="9.2" style="fill:#ccc; stroke-width:0px;" /><circle id="SPH04196" cx="1124.13" cy="611.68" r="9.2" style="fill:#ccc; stroke-width:0px;" /><circle id="SPH04197" cx="1127.74" cy="635.34" r="9.2" style="fill:#ccc; stroke-width:0px;" /><circle id="SPH04198" cx="1131.34" cy="659.02" r="9.2" style="fill:#ccc; stroke-width:0px;" /><circle id="SPH04199" cx="1134.95" cy="682.71" r="9.2" style="fill:#ccc; stroke-width:0px;" /><circle id="SPH04200" cx="1138.57" cy="706.41" r="9.2" style="fill:#ccc; stroke-width:0px;" /><circle id="SPH04201" cx="1142.18" cy="730.1" r="9.2" style="fill:#ccc; stroke-width:0px;" /><circle id="SPH04202" cx="1145.43" cy="753.83" r="9.2" style="fill:#ccc; stroke-width:0px;" /><circle id="SPH04203" cx="1148.01" cy="777.64" r="9.2" style="fill:#ccc; stroke-width:0px;" /><circle id="SPH04204" cx="1150.59" cy="801.44" r="9.2" style="fill:#ccc; stroke-width:0px;" /><circle id="SPH04205" cx="1153.17" cy="825.25" r="9.2" style="fill:#ccc; stroke-width:0px;" /><circle id="SPH04206" cx="1155.75" cy="849.06" r="9.2" style="fill:#ccc; stroke-width:0px;" /><circle id="SPH04207" cx="1158.33" cy="872.86" r="9.2" style="fill:#ccc; stroke-width:0px;" /></g></svg>