<?xml version="1.0" encoding="UTF-8"?><svg id="Layer_1" xmlns="http://www.w3.org/2000/svg" viewBox="0 0 8192 7680"><g id="back"><path id="sphere" d="M6865.31,3839.5c0-1528.34-1241.46-2769.81-2769.81-2769.81S1325.69,2311.16,1325.69,3839.5s1241.46,2769.81,2769.81,2769.81h0c1528.34,0,2769.81-1241.46,2769.81-2769.81Z" style="fill:#f2f2f2; stroke:#ddd; stroke-miterlimit:10; stroke-width:3px;"/><path d="M1758.88,3838.17c0,655.33,307.79,1239.54,786.53,1615.79,66.08,51.94,160.31,48.05,221.66-9.39,429.06-401.71,697.41-973.05,697.41-1606.4s-268.35-1204.69-697.41-1606.4c-61.36-57.44-155.58-61.33-221.66-9.39-478.74,376.25-786.53,960.46-786.53,1615.79h0Z" style="fill:#e5e5e5; stroke:#ddd; stroke-miterlimit:10; stroke-width:3px;"/></g><g id="others"><path d="M5602.81,4158.3c-207.68-16.34-415.35-32.69-623.01-49.03,12.79-178.43,12.79-357.55,0-535.97,207.67-16.35,415.35-32.69,623.03-49.04,7.67,105.48,11.49,211.17,11.49,316.86h0c0,105.8-3.84,211.59-11.52,317.17h0Z" style="fill:#fff; stroke:#ddd; stroke-miterlimit:10; stroke-width:9px;"/><path d="M5499.31,2840.23c300.94-72.24,601.9-144.5,902.84-216.75-83.27-156.03-182.04-302.69-294.27-437.97-70.43-87.61-154.08-177.66-231.9-245.41,0,0-395.29,163.72-587.73,243.43.05.12.1.24.15.36-253.99,105.2-507.97,210.4-761.95,315.61,18.74,45.91,36.56,92.28,53.41,139.09,14.57,40.47,28.38,81.13,41.44,121.97,75.94,20.35,151.87,40.69,227.81,61.04,15.42,54.6,29.6,109.53,42.53,164.76,202.56-48.63,405.14-97.26,607.72-145.9h0c-.02-.08-.03-.15-.05-.23h0Z" style="fill:#fff; stroke:#ddd; stroke-miterlimit:10; stroke-width:9px;"/><path d="M5499.24,4842.3c.02-.08.04-.16.06-.23-202.56-48.63-405.12-97.26-607.66-145.88h0c-12.93,55.23-27.11,110.16-42.54,164.76-75.95,20.35-151.89,40.7-227.85,61.05-13.04,40.79-26.83,81.4-41.39,121.81-16.88,46.86-34.71,93.27-53.48,139.21,253.98,105.2,507.97,210.41,761.96,315.61-.05.11-.09.23-.14.34,192.46,79.72,577.42,239.18,577.42,239.18l10.34,4.3c27.04-23.43,126.65-131.04,231.76-245.45,112.24-135.27,211.03-281.92,294.32-437.95-300.94-72.25-601.88-144.49-902.8-216.75h0Z" style="fill:#fff; stroke:#ddd; stroke-miterlimit:10; stroke-width:9px;"/><path d="M4623.79,3597.51l-1.06.08c-14.13-209.82-45.75-418.71-96.29-624.26-.39.09-.78.19-1.17.28-30.55-124.14-67.73-247.05-111.54-368.22-21.66-59.84-44.82-118.98-69.46-177.36-38.73,16.04-433.2,179.43-591.7,245.08,61.79,145.79,112.03,296.5,150.14,450.74.4-.1.81-.19,1.21-.29,9.18,37.22,17.67,74.64,25.43,112.24,28.19,136.51,46.76,274.5,55.71,412.95h-.01c.35-.02.71-.05,1.06-.07,8.25,128.27,8.25,256.93-.02,385.2-.35-.03-.71-.06-1.06-.08-8.94,138.44-27.51,276.4-55.69,412.89-7.77,37.63-16.25,75.08-25.45,112.31-.4-.09-.79-.19-1.19-.28-38.11,154.22-88.35,304.92-150.13,450.7,158.51,65.65,552.94,229.03,591.65,245.07,24.66-58.41,47.83-117.58,69.49-177.46,43.8-121.13,80.98-244.01,111.51-368.1l1.2.29c50.55-205.54,82.88-414.43,97.01-624.25.35.03.71.06,1.06.08,11.37-196.11,8.26-257.68-.71-487.53h.01Z" style="fill:#fff; stroke:#ddd; stroke-miterlimit:10; stroke-width:9px;"/><path d="M4345.23,5256.48c-158.5-65.66-433.17-179.39-591.67-245.05-61.69,145.58-134.88,286.26-219,420.67-94.4-1.33-188.81-2.65-283.21-3.97-43.13,61.36-88.73,120.92-136.68,178.54-14.75,17.71-29.71,35.25-44.9,52.59,191.14,163.24,637.02,544.07,668.82,571.22,126.27-145.08,240.99-300.11,342.97-463.68-.23-.14-.48-.29-.72-.44,99.24-157.02,264.39-509.88,264.39-509.88h0Z" style="fill:#fff; stroke:#ddd; stroke-miterlimit:10; stroke-width:9px;"/><path d="M4345.27,2425.03c-72.58-169.67-165.03-352.57-263.96-509.12.09-.05.19-.11.27-.17-102-163.57-216.71-318.59-342.98-463.67-31.79,27.16-477.64,407.94-668.77,571.19,15.17,17.33,30.12,34.84,44.85,52.54h.01c47.97,57.64,93.59,117.22,136.74,178.63,94.58-1.33,189.17-2.66,283.76-3.99,83.86,134.11,156.85,274.45,218.39,419.68,158.5-65.65,433.19-179.44,591.69-245.09h0Z" style="fill:#fff; stroke:#ddd; stroke-miterlimit:10; stroke-width:9px;"/><path d="M5872.96,5743.45c-3.43-1.42-542.22-224.61-586.53-242.96.21-.52.43-1.04.64-1.56-254.23-105.3-508.46-210.61-762.68-315.91-70.98,173.82-155.31,340.95-251.9,500.05.24.15.49.3.73.45-88.07,145.01-186.31,283.34-293.9,413.96,150.96,109.69,301.92,219.37,452.89,329.05,135.88-18.21,268.49-46.75,397-84.79,145.42-47.53,217.64-63,323.11-120.12-.11-.07-.22-.13-.33-.2,266.93-119.35,510.24-281.64,720.96-477.97h.01Z" style="fill:#fff; stroke:#ddd; stroke-miterlimit:10; stroke-width:9px;"/><path d="M5152.34,1460.91c-130.35-55.93-201.76-83.24-322.88-120.04-128.58-38.08-261.26-66.65-397.23-84.87h0c-150.95,109.68-301.9,219.35-452.84,329.02,107.69,130.76,206.02,269.25,294.15,414.42.39-.24.79-.48,1.18-.72,96.51,159.02,180.78,326.06,251.72,499.79,253.86-105.15,507.71-210.3,761.6-315.46.07.16.14.33.2.49h.02c34.48-14.28,584.25-242.01,587.71-243.44-211.42-197-455.65-359.72-723.64-479.19h0Z" style="fill:#fff; stroke:#ddd; stroke-miterlimit:10; stroke-width:9px;"/></g><g id="sectors"><path id="_305" d="M5496.67,4840.44c-202.56-48.63-405.12-97.26-607.66-145.88,32.38-138.24,56.9-278.33,73.41-419.58,6.5-55.69,11.76-111.48,15.76-167.35,207.66,16.34,415.33,32.69,623.01,49.03-10.51,144.74-28.24,289.08-53.18,432.48h0c-14.63,84.13-31.74,167.93-51.34,251.3h0Z" style="fill:#fff; stroke:#ddd; stroke-miterlimit:10; stroke-width:9px;"/><path id="_307" d="M5601.21,3522.63c-207.68,16.35-415.36,32.69-623.03,49.04-3.99-55.87-9.25-111.67-15.76-167.35-16.51-141.27-41.03-281.35-73.41-419.58,202.57-48.63,405.14-97.27,607.72-145.9,19.57,83.27,36.66,166.98,51.27,251h0c24.96,143.5,42.69,287.95,53.2,432.79h.01Z" style="fill:#fff; stroke:#ddd; stroke-miterlimit:10; stroke-width:9px;"/><path id="_405" d="M6400.41,5057.41c133.85-250.71,227.69-525.62,273.08-816.35-30.41-2.39-60.81-4.78-91.21-7.18-327-25.74-654-51.47-980.98-77.21-10.51,144.77-28.24,289.12-53.18,432.54-14.63,84.11-31.74,167.9-51.33,251.25h0c301.2,72.31,602.4,144.62,903.62,216.94h0Z" style="fill:#fff; stroke:#ddd; stroke-miterlimit:10; stroke-width:9px;"/><path id="_406" d="M5610.31,3996.21c-1.39,37.29-3.33,74.29-5.71,111.52-1,16.32-2.1,32.63-3.29,48.94,339.15,26.69,1072.18,84.39,1072.18,84.39,31.65-361.76,31.65-560.39.05-802.83,0,0-733.06,57.7-1072.22,84.39,1.19,16.25,2.28,32.51,3.28,48.77,2.38,37.23,4.32,74.23,5.71,111.52h0c3.89,104.43,3.89,208.87,0,313.29h0Z" style="fill:#fff; stroke:#ddd; stroke-miterlimit:10; stroke-width:9px;"/><path id="_407" d="M5496.83,2838.8c301.23-72.32,602.46-144.64,903.7-216.96,133.83,250.73,227.65,525.66,273.01,816.39-18.25,1.44-733.07,57.7-1072.22,84.39-10.5-144.81-28.24-289.24-53.19-432.71h0c-14.62-84.07-31.72-167.8-51.3-251.11h0Z" style="fill:#fff; stroke:#ddd; stroke-miterlimit:10; stroke-width:9px;"/></g></svg>