<svg id="Layer_1" viewBox="0 0 1697.6 1405.17" xmlns="http://www.w3.org/2000/svg"><g id="back"><g id="back-2"><path id="sphere" d="M4180.38,2663.42c0-1528.34-1241.46-2769.81-2769.81-2769.81S-1359.24,1135.08-1359.24,2663.42-117.78,5433.23,1410.57,5433.23h0c1528.34,0,2769.81-1241.46,2769.81-2769.81Z" style="fill:#f2f2f2; stroke:#ddd; stroke-miterlimit:10; stroke-width:3px;" /><path d="M-926.05,2662.09c0,655.33,307.79,1239.54,786.53,1615.79,66.08,51.94,160.31,48.05,221.66-9.39,429.06-401.71,697.41-973.05,697.41-1606.4S511.2,1457.4,82.14,1055.69c-61.36-57.44-155.58-61.33-221.66-9.39-478.74,376.25-786.53,960.46-786.53,1615.79h0Z" style="fill:#e5e5e5; stroke:#ddd; stroke-miterlimit:10; stroke-width:3px;" /></g><g id="sectors"><path id="_208" d="M1840.89,1794.63c-207.59,49.84-415.16,99.67-622.74,149.51-38.11-154.24-88.35-304.95-150.14-450.74,158.5-65.65,552.97-229.04,591.7-245.08,24.64,58.38,47.8,117.52,69.46,177.36h0c43.9,121.41,81.15,244.57,111.73,368.96h-.01Z" style="fill:#fff; stroke:#ddd; stroke-miterlimit:10; stroke-width:9px;" /><path id="_209" d="M1659.71,1248.32c-72.76-170.09-165.49-353.48-264.69-510.29-145.43,89.12-400.64,245.5-546.07,334.61,84.15,134.44,157.36,275.15,219.07,420.77h0c158.5-65.65,433.19-179.44,591.69-245.09h0Z" style="fill:#fff; stroke:#ddd; stroke-miterlimit:10; stroke-width:9px;" /><path id="_210" d="M428.12,898.09c-14.73-17.7-29.68-35.21-44.85-52.54,191.13-163.25,636.98-544.03,668.77-571.19,126.27,145.08,240.98,300.1,342.98,463.67-46.45,28.46-546.13,334.67-546.19,334.7-94.66,1.33-189.31,2.66-283.96,3.99h0c-43.15-61.41-88.77-120.99-136.74-178.63h-.01Z" style="fill:#fff; stroke:#ddd; stroke-miterlimit:10; stroke-width:9px;" /><path id="_309" d="M2601.62,1005.87c-254.26,105.32-508.49,210.62-762.73,315.93-70.98-173.83-155.31-340.97-251.89-500.07,234.64-143.79,469.29-287.58,703.92-431.37,20.61,33.88,40.76,68.05,60.45,102.52h0c94.13,164.73,177.81,336.03,250.25,512.98h0Z" style="fill:#fff; stroke:#ddd; stroke-miterlimit:10; stroke-width:9px;" /><path id="_310" d="M1745.68,78.3c-150.95,109.67-301.9,219.34-452.84,329.01,107.69,130.76,206.02,269.25,294.15,414.42,234.64-143.79,644.16-394.74,878.79-538.53-130.35-55.93-201.76-83.24-322.88-120.04h0c-128.58-38.08-261.26-66.65-397.23-84.87h0Z" style="fill:#fff; stroke:#ddd; stroke-miterlimit:10; stroke-width:9px;" /></g></g><g id="Seats"><circle id="SPH00651" cx="744.19" cy="598.44" r="9.2" style="fill:#ccc; stroke-width:0px;" /><circle id="SPH00652" cx="760.43" cy="617.11" r="9.2" style="fill:#ccc; stroke-width:0px;" /><circle id="SPH00653" cx="776.05" cy="636.28" r="9.2" style="fill:#ccc; stroke-width:0px;" /><circle id="SPH00654" cx="791.47" cy="655.64" r="9.2" style="fill:#ccc; stroke-width:0px;" /><circle id="SPH00655" cx="806.88" cy="675" r="9.2" style="fill:#ccc; stroke-width:0px;" /><circle id="SPH00656" cx="822.29" cy="694.35" r="9.2" style="fill:#ccc; stroke-width:0px;" /><circle id="SPH00657" cx="837.7" cy="713.69" r="9.2" style="fill:#ccc; stroke-width:0px;" /><circle id="SPH00658" cx="852.96" cy="733.15" r="9.2" style="fill:#ccc; stroke-width:0px;" /><circle id="SPH00659" cx="867.53" cy="753.15" r="9.2" style="fill:#ccc; stroke-width:0px;" /><circle id="SPH00660" cx="882.09" cy="773.16" r="9.2" style="fill:#ccc; stroke-width:0px;" /><circle id="SPH00661" cx="896.65" cy="793.15" r="9.2" style="fill:#ccc; stroke-width:0px;" /><circle id="SPH00662" cx="911.22" cy="813.16" r="9.2" style="fill:#ccc; stroke-width:0px;" /><circle id="SPH00663" cx="925.78" cy="833.16" r="9.2" style="fill:#ccc; stroke-width:0px;" /><circle id="SPH00664" cx="939.81" cy="853.51" r="9.2" style="fill:#ccc; stroke-width:0px;" /><circle id="SPH00665" cx="953.49" cy="874.11" r="9.2" style="fill:#ccc; stroke-width:0px;" /><circle id="SPH00666" cx="967.18" cy="894.72" r="9.2" style="fill:#ccc; stroke-width:0px;" /><circle id="SPH00667" cx="980.87" cy="915.35" r="9.2" style="fill:#ccc; stroke-width:0px;" /><circle id="SPH00668" cx="994.56" cy="935.96" r="9.2" style="fill:#ccc; stroke-width:0px;" /><circle id="SPH00669" cx="774.3" cy="572.72" r="9.2" style="fill:#ccc; stroke-width:0px;" /><circle id="SPH00670" cx="790.78" cy="591.67" r="9.2" style="fill:#ccc; stroke-width:0px;" /><circle id="SPH00671" cx="806.64" cy="611.12" r="9.2" style="fill:#ccc; stroke-width:0px;" /><circle id="SPH00672" cx="822.28" cy="630.76" r="9.2" style="fill:#ccc; stroke-width:0px;" /><circle id="SPH00673" cx="837.92" cy="650.4" r="9.2" style="fill:#ccc; stroke-width:0px;" /><circle id="SPH00674" cx="853.56" cy="670.05" r="9.2" style="fill:#ccc; stroke-width:0px;" /><circle id="SPH00675" cx="869.21" cy="689.7" r="9.2" style="fill:#ccc; stroke-width:0px;" /><circle id="SPH00676" cx="884.71" cy="709.47" r="9.2" style="fill:#ccc; stroke-width:0px;" /><circle id="SPH00677" cx="899.47" cy="729.76" r="9.2" style="fill:#ccc; stroke-width:0px;" /><circle id="SPH00678" cx="914.25" cy="750.04" r="9.2" style="fill:#ccc; stroke-width:0px;" /><circle id="SPH00679" cx="929.03" cy="770.34" r="9.2" style="fill:#ccc; stroke-width:0px;" /><circle id="SPH00680" cx="943.79" cy="790.62" r="9.2" style="fill:#ccc; stroke-width:0px;" /><circle id="SPH00681" cx="958.56" cy="810.91" r="9.2" style="fill:#ccc; stroke-width:0px;" /><circle id="SPH00682" cx="972.79" cy="831.59" r="9.2" style="fill:#ccc; stroke-width:0px;" /><circle id="SPH00683" cx="986.68" cy="852.5" r="9.2" style="fill:#ccc; stroke-width:0px;" /><circle id="SPH00684" cx="1000.57" cy="873.42" r="9.2" style="fill:#ccc; stroke-width:0px;" /><circle id="SPH00685" cx="1014.46" cy="894.34" r="9.2" style="fill:#ccc; stroke-width:0px;" /><circle id="SPH00686" cx="1028.35" cy="915.25" r="9.2" transform="translate(-39.81 1783.71) rotate(-80.78)" style="fill:#ccc; stroke-width:0px;" /><circle id="SPH00687" cx="804.41" cy="547" r="9.2" style="fill:#ccc; stroke-width:0px;" /><circle id="SPH00688" cx="820.19" cy="565.16" r="9.2" style="fill:#ccc; stroke-width:0px;" /><circle id="SPH00689" cx="835.46" cy="583.75" r="9.2" style="fill:#ccc; stroke-width:0px;" /><circle id="SPH00690" cx="850.45" cy="602.57" r="9.2" style="fill:#ccc; stroke-width:0px;" /><circle id="SPH00691" cx="865.44" cy="621.39" r="9.2" style="fill:#ccc; stroke-width:0px;" /><circle id="SPH00692" cx="880.43" cy="640.21" r="9.2" style="fill:#ccc; stroke-width:0px;" /><circle id="SPH00693" cx="895.42" cy="659.04" r="9.2" style="fill:#ccc; stroke-width:0px;" /><circle id="SPH00694" cx="910.41" cy="677.87" r="9.2" style="fill:#ccc; stroke-width:0px;" /><circle id="SPH00695" cx="924.75" cy="697.2" r="9.2" style="fill:#ccc; stroke-width:0px;" /><circle id="SPH00696" cx="938.93" cy="716.66" r="9.2" style="fill:#ccc; stroke-width:0px;" /><circle id="SPH00697" cx="953.09" cy="736.12" r="9.2" style="fill:#ccc; stroke-width:0px;" /><circle id="SPH00698" cx="967.26" cy="755.57" r="9.2" style="fill:#ccc; stroke-width:0px;" /><circle id="SPH00699" cx="981.43" cy="775.04" r="9.2" style="fill:#ccc; stroke-width:0px;" /><circle id="SPH00700" cx="995.59" cy="794.49" r="9.2" style="fill:#ccc; stroke-width:0px;" /><circle id="SPH00701" cx="1008.98" cy="814.49" r="9.2" style="fill:#ccc; stroke-width:0px;" /><circle id="SPH00702" cx="1022.29" cy="834.54" r="9.2" style="fill:#ccc; stroke-width:0px;" /><circle id="SPH00703" cx="1035.6" cy="854.6" r="9.2" style="fill:#ccc; stroke-width:0px;" /><circle id="SPH00704" cx="1048.91" cy="874.64" r="9.2" style="fill:#ccc; stroke-width:0px;" /><circle id="SPH00705" cx="1062.23" cy="894.69" r="9.2" style="fill:#ccc; stroke-width:0px;" /><circle id="SPH00706" cx="834.53" cy="521.28" r="9.2" style="fill:#ccc; stroke-width:0px;" /><circle id="SPH00707" cx="850.54" cy="539.7" r="9.2" style="fill:#ccc; stroke-width:0px;" /><circle id="SPH00708" cx="866.02" cy="558.56" r="9.2" style="fill:#ccc; stroke-width:0px;" /><circle id="SPH00709" cx="881.23" cy="577.65" r="9.2" style="fill:#ccc; stroke-width:0px;" /><circle id="SPH00710" cx="896.44" cy="596.74" r="9.2" style="fill:#ccc; stroke-width:0px;" /><circle id="SPH00711" cx="911.64" cy="615.83" r="9.2" style="fill:#ccc; stroke-width:0px;" /><circle id="SPH00712" cx="926.83" cy="634.92" r="9.2" style="fill:#ccc; stroke-width:0px;" /><circle id="SPH00713" cx="942.03" cy="654" r="9.2" style="fill:#ccc; stroke-width:0px;" /><circle id="SPH00714" cx="956.55" cy="673.6" r="9.2" style="fill:#ccc; stroke-width:0px;" /><circle id="SPH00715" cx="970.92" cy="693.32" r="9.2" style="fill:#ccc; stroke-width:0px;" /><circle id="SPH00716" cx="985.29" cy="713.06" r="9.2" style="fill:#ccc; stroke-width:0px;" /><circle id="SPH00717" cx="999.65" cy="732.79" r="9.2" style="fill:#ccc; stroke-width:0px;" /><circle id="SPH00718" cx="1014.02" cy="752.52" r="9.2" style="fill:#ccc; stroke-width:0px;" /><circle id="SPH00719" cx="1028.39" cy="772.24" r="9.2" transform="translate(101.39 1663.65) rotate(-80.78)" style="fill:#ccc; stroke-width:0px;" /><circle id="SPH00720" cx="1041.93" cy="792.53" r="9.2" style="fill:#ccc; stroke-width:0px;" /><circle id="SPH00721" cx="1055.43" cy="812.85" r="9.2" style="fill:#ccc; stroke-width:0px;" /><circle id="SPH00722" cx="1068.91" cy="833.18" r="9.2" style="fill:#ccc; stroke-width:0px;" /><circle id="SPH00723" cx="1082.41" cy="853.5" r="9.2" style="fill:#ccc; stroke-width:0px;" /><circle id="SPH00724" cx="1095.9" cy="873.81" r="9.2" style="fill:#ccc; stroke-width:0px;" /><circle id="SPH00725" cx="864.64" cy="495.56" r="9.2" style="fill:#ccc; stroke-width:0px;" /><circle id="SPH00726" cx="880.88" cy="514.24" r="9.2" style="fill:#ccc; stroke-width:0px;" /><circle id="SPH00727" cx="896.59" cy="533.37" r="9.2" style="fill:#ccc; stroke-width:0px;" /><circle id="SPH00728" cx="912" cy="552.73" r="9.2" style="fill:#ccc; stroke-width:0px;" /><circle id="SPH00729" cx="927.42" cy="572.09" r="9.2" style="fill:#ccc; stroke-width:0px;" /><circle id="SPH00730" cx="942.84" cy="591.45" r="9.2" style="fill:#ccc; stroke-width:0px;" /><circle id="SPH00731" cx="958.26" cy="610.81" r="9.2" style="fill:#ccc; stroke-width:0px;" /><circle id="SPH00732" cx="973.67" cy="630.17" r="9.2" style="fill:#ccc; stroke-width:0px;" /><circle id="SPH00733" cx="988.4" cy="650.06" r="9.2" style="fill:#ccc; stroke-width:0px;" /><circle id="SPH00734" cx="1002.97" cy="670.07" r="9.2" style="fill:#ccc; stroke-width:0px;" /><circle id="SPH00735" cx="1017.55" cy="690.08" r="9.2" style="fill:#ccc; stroke-width:0px;" /><circle id="SPH00736" cx="1032.11" cy="710.08" r="9.2" transform="translate(165.87 1615.12) rotate(-80.78)" style="fill:#ccc; stroke-width:0px;" /><circle id="SPH00737" cx="1046.67" cy="730.08" r="9.2" style="fill:#ccc; stroke-width:0px;" /><circle id="SPH00738" cx="1061.23" cy="750.08" r="9.2" style="fill:#ccc; stroke-width:0px;" /><circle id="SPH00739" cx="1074.95" cy="770.67" r="9.2" style="fill:#ccc; stroke-width:0px;" /><circle id="SPH00740" cx="1088.64" cy="791.29" r="9.2" style="fill:#ccc; stroke-width:0px;" /><circle id="SPH00741" cx="1102.32" cy="811.9" r="9.2" style="fill:#ccc; stroke-width:0px;" /><circle id="SPH00742" cx="1116.01" cy="832.52" r="9.2" style="fill:#ccc; stroke-width:0px;" /><circle id="SPH00743" cx="1129.71" cy="853.15" r="9.2" style="fill:#ccc; stroke-width:0px;" /><circle id="SPH00744" cx="894.75" cy="469.84" r="9.2" style="fill:#ccc; stroke-width:0px;" /><circle id="SPH00745" cx="911.22" cy="488.78" r="9.2" style="fill:#ccc; stroke-width:0px;" /><circle id="SPH00746" cx="927.15" cy="508.17" r="9.2" style="fill:#ccc; stroke-width:0px;" /><circle id="SPH00747" cx="942.78" cy="527.81" r="9.2" style="fill:#ccc; stroke-width:0px;" /><circle id="SPH00748" cx="958.42" cy="547.44" r="9.2" style="fill:#ccc; stroke-width:0px;" /><circle id="SPH00749" cx="974.05" cy="567.08" r="9.2" style="fill:#ccc; stroke-width:0px;" /><circle id="SPH00750" cx="989.68" cy="586.71" r="9.2" style="fill:#ccc; stroke-width:0px;" /><circle id="SPH00751" cx="1005.32" cy="606.34" r="9.2" style="fill:#ccc; stroke-width:0px;" /><circle id="SPH00752" cx="1020.25" cy="626.52" r="9.2" transform="translate(238.39 1533.24) rotate(-80.78)" style="fill:#ccc; stroke-width:0px;" /><circle id="SPH00753" cx="1035.02" cy="646.81" r="9.2" style="fill:#ccc; stroke-width:0px;" /><circle id="SPH00754" cx="1049.79" cy="667.09" r="9.2" style="fill:#ccc; stroke-width:0px;" /><circle id="SPH00755" cx="1064.56" cy="687.39" r="9.2" style="fill:#ccc; stroke-width:0px;" /><circle id="SPH00756" cx="1079.35" cy="707.68" r="9.2" style="fill:#ccc; stroke-width:0px;" /><circle id="SPH00757" cx="1094.12" cy="727.98" r="9.2" style="fill:#ccc; stroke-width:0px;" /><circle id="SPH00758" cx="1108.01" cy="748.88" r="9.2" style="fill:#ccc; stroke-width:0px;" /><circle id="SPH00759" cx="1121.9" cy="769.8" r="9.2" style="fill:#ccc; stroke-width:0px;" /><circle id="SPH00760" cx="1135.78" cy="790.69" r="9.2" style="fill:#ccc; stroke-width:0px;" /><circle id="SPH00761" cx="1149.66" cy="811.6" r="9.2" style="fill:#ccc; stroke-width:0px;" /><circle id="SPH00762" cx="1163.53" cy="832.49" r="9.2" style="fill:#ccc; stroke-width:0px;" /><circle id="SPH00763" cx="924.87" cy="444.12" r="9.2" style="fill:#ccc; stroke-width:0px;" /><circle id="SPH00764" cx="940.68" cy="462.32" r="9.2" style="fill:#ccc; stroke-width:0px;" /><circle id="SPH00765" cx="956.04" cy="480.88" r="9.2" style="fill:#ccc; stroke-width:0px;" /><circle id="SPH00766" cx="971.05" cy="499.75" r="9.2" style="fill:#ccc; stroke-width:0px;" /><circle id="SPH00767" cx="986.07" cy="518.6" r="9.2" style="fill:#ccc; stroke-width:0px;" /><circle id="SPH00768" cx="1001.08" cy="537.45" r="9.2" style="fill:#ccc; stroke-width:0px;" /><circle id="SPH00769" cx="1016.1" cy="556.31" r="9.2" transform="translate(304.21 1470.18) rotate(-80.78)" style="fill:#ccc; stroke-width:0px;" /><circle id="SPH00770" cx="1031.11" cy="575.16" r="9.2" transform="translate(298.21 1500.83) rotate(-80.78)" style="fill:#ccc; stroke-width:0px;" /><circle id="SPH00771" cx="1045.76" cy="594.28" r="9.2" style="fill:#ccc; stroke-width:0px;" /><circle id="SPH00772" cx="1059.95" cy="613.77" r="9.2" style="fill:#ccc; stroke-width:0px;" /><circle id="SPH00773" cx="1074.14" cy="633.26" r="9.2" style="fill:#ccc; stroke-width:0px;" /><circle id="SPH00774" cx="1088.33" cy="652.75" r="9.2" style="fill:#ccc; stroke-width:0px;" /><circle id="SPH00775" cx="1102.52" cy="672.24" r="9.2" style="fill:#ccc; stroke-width:0px;" /><circle id="SPH00776" cx="1116.71" cy="691.74" r="9.2" style="fill:#ccc; stroke-width:0px;" /><circle id="SPH00777" cx="1130.66" cy="711.4" r="9.2" style="fill:#ccc; stroke-width:0px;" /><circle id="SPH00778" cx="1143.99" cy="731.48" r="9.2" style="fill:#ccc; stroke-width:0px;" /><circle id="SPH00779" cx="1157.31" cy="751.55" r="9.2" style="fill:#ccc; stroke-width:0px;" /><circle id="SPH00780" cx="1170.64" cy="771.62" r="9.2" style="fill:#ccc; stroke-width:0px;" /><circle id="SPH00781" cx="1183.97" cy="791.69" r="9.2" style="fill:#ccc; stroke-width:0px;" /><circle id="SPH00782" cx="1197.3" cy="811.76" r="9.2" style="fill:#ccc; stroke-width:0px;" /><circle id="SPH00783" cx="989.78" cy="459.69" r="9.2" style="fill:#ccc; stroke-width:0px;" /><circle id="SPH00784" cx="1004.57" cy="478.27" r="9.2" style="fill:#ccc; stroke-width:0px;" /><circle id="SPH00785" cx="1019.36" cy="496.84" r="9.2" transform="translate(365.65 1423.45) rotate(-80.78)" style="fill:#ccc; stroke-width:0px;" /><circle id="SPH00786" cx="1034.15" cy="515.42" r="9.2" style="fill:#ccc; stroke-width:0px;" /><circle id="SPH00787" cx="1048.95" cy="534" r="9.2" style="fill:#ccc; stroke-width:0px;" /><circle id="SPH00788" cx="1063.75" cy="552.57" r="9.2" style="fill:#ccc; stroke-width:0px;" /><circle id="SPH00789" cx="1078.12" cy="571.46" r="9.2" style="fill:#ccc; stroke-width:0px;" /><circle id="SPH00790" cx="1092.11" cy="590.66" r="9.2" style="fill:#ccc; stroke-width:0px;" /><circle id="SPH00791" cx="1106.08" cy="609.86" r="9.2" style="fill:#ccc; stroke-width:0px;" /><circle id="SPH00792" cx="1120.06" cy="629.05" r="9.2" style="fill:#ccc; stroke-width:0px;" /><circle id="SPH00793" cx="1134.04" cy="648.24" r="9.2" style="fill:#ccc; stroke-width:0px;" /><circle id="SPH00794" cx="1148" cy="667.44" r="9.2" style="fill:#ccc; stroke-width:0px;" /><circle id="SPH00795" cx="1161.82" cy="686.73" r="9.2" style="fill:#ccc; stroke-width:0px;" /><circle id="SPH00796" cx="1174.95" cy="706.52" r="9.2" style="fill:#ccc; stroke-width:0px;" /><circle id="SPH00797" cx="1188.09" cy="726.3" r="9.2" style="fill:#ccc; stroke-width:0px;" /><circle id="SPH00798" cx="1201.22" cy="746.08" r="9.2" style="fill:#ccc; stroke-width:0px;" /><circle id="SPH00799" cx="1019.91" cy="433.95" r="9.2" style="fill:#ccc; stroke-width:0px;" /><circle id="SPH00800" cx="1034.02" cy="451.68" r="9.2" style="fill:#ccc; stroke-width:0px;" /><circle id="SPH00801" cx="1048.12" cy="469.39" r="9.2" style="fill:#ccc; stroke-width:0px;" /><circle id="SPH00802" cx="1062.24" cy="487.11" r="9.2" style="fill:#ccc; stroke-width:0px;" /><circle id="SPH00803" cx="1076.35" cy="504.83" r="9.2" style="fill:#ccc; stroke-width:0px;" /><circle id="SPH00804" cx="1090.46" cy="522.55" r="9.2" style="fill:#ccc; stroke-width:0px;" /><circle id="SPH00805" cx="1104.46" cy="540.35" r="9.2" style="fill:#ccc; stroke-width:0px;" /><circle id="SPH00806" cx="1117.79" cy="558.66" r="9.2" style="fill:#ccc; stroke-width:0px;" /><circle id="SPH00807" cx="1131.13" cy="576.98" r="9.2" style="fill:#ccc; stroke-width:0px;" /><circle id="SPH00808" cx="1144.47" cy="595.29" r="9.2" style="fill:#ccc; stroke-width:0px;" /><circle id="SPH00809" cx="1157.8" cy="613.6" r="9.2" style="fill:#ccc; stroke-width:0px;" /><circle id="SPH00810" cx="1171.14" cy="631.92" r="9.2" style="fill:#ccc; stroke-width:0px;" /><circle id="SPH00811" cx="1184.47" cy="650.24" r="9.2" style="fill:#ccc; stroke-width:0px;" /><circle id="SPH00812" cx="1197.44" cy="668.8" r="9.2" style="fill:#ccc; stroke-width:0px;" /><circle id="SPH00813" cx="1209.96" cy="687.65" r="9.2" style="fill:#ccc; stroke-width:0px;" /><circle id="SPH00814" cx="1222.48" cy="706.52" r="9.2" style="fill:#ccc; stroke-width:0px;" /><circle id="SPH00815" cx="1235" cy="725.36" r="9.2" style="fill:#ccc; stroke-width:0px;" /><circle id="SPH00816" cx="443.1" cy="855.68" r="9.2" style="fill:#ccc; stroke-width:0px;" /><circle id="SPH00817" cx="458.35" cy="873.21" r="9.2" style="fill:#ccc; stroke-width:0px;" /><circle id="SPH00818" cx="472.92" cy="891.32" r="9.2" style="fill:#ccc; stroke-width:0px;" /><circle id="SPH00819" cx="487.4" cy="909.49" r="9.2" style="fill:#ccc; stroke-width:0px;" /><circle id="SPH00820" cx="501.87" cy="927.67" r="9.2" style="fill:#ccc; stroke-width:0px;" /><circle id="SPH00821" cx="516.35" cy="945.85" r="9.2" style="fill:#ccc; stroke-width:0px;" /><circle id="SPH00822" cx="530.83" cy="964.03" r="9.2" style="fill:#ccc; stroke-width:0px;" /><circle id="SPH00823" cx="544.76" cy="982.62" r="9.2" style="fill:#ccc; stroke-width:0px;" /><circle id="SPH00824" cx="558.44" cy="1001.41" r="9.2" style="fill:#ccc; stroke-width:0px;" /><circle id="SPH00825" cx="572.12" cy="1020.2" r="9.2" style="fill:#ccc; stroke-width:0px;" /><circle id="SPH00826" cx="473.22" cy="829.96" r="9.2" style="fill:#ccc; stroke-width:0px;" /><circle id="SPH00827" cx="488.98" cy="848.08" r="9.2" style="fill:#ccc; stroke-width:0px;" /><circle id="SPH00828" cx="504.03" cy="866.81" r="9.2" transform="translate(-432.32 1225.48) rotate(-80.78)" style="fill:#ccc; stroke-width:0px;" /><circle id="SPH00829" cx="519" cy="885.61" r="9.2" style="fill:#ccc; stroke-width:0px;" /><circle id="SPH00830" cx="533.98" cy="904.41" r="9.2" style="fill:#ccc; stroke-width:0px;" /><circle id="SPH00831" cx="548.95" cy="923.21" r="9.2" style="fill:#ccc; stroke-width:0px;" /><circle id="SPH00832" cx="563.91" cy="942.01" r="9.2" style="fill:#ccc; stroke-width:0px;" /><circle id="SPH00833" cx="578.23" cy="961.31" r="9.2" style="fill:#ccc; stroke-width:0px;" /><circle id="SPH00834" cx="592.37" cy="980.74" r="9.2" style="fill:#ccc; stroke-width:0px;" /><circle id="SPH00835" cx="606.51" cy="1000.16" r="9.2" style="fill:#ccc; stroke-width:0px;" /><circle id="SPH00836" cx="620.65" cy="1019.58" r="9.2" style="fill:#ccc; stroke-width:0px;" /><circle id="SPH00837" cx="503.33" cy="804.24" r="9.2" transform="translate(-371.15 1172.25) rotate(-80.78)" style="fill:#ccc; stroke-width:0px;" /><circle id="SPH00838" cx="519.51" cy="822.86" r="9.2" style="fill:#ccc; stroke-width:0px;" /><circle id="SPH00839" cx="534.97" cy="842.09" r="9.2" style="fill:#ccc; stroke-width:0px;" /><circle id="SPH00840" cx="550.34" cy="861.4" r="9.2" style="fill:#ccc; stroke-width:0px;" /><circle id="SPH00841" cx="565.71" cy="880.7" r="9.2" style="fill:#ccc; stroke-width:0px;" /><circle id="SPH00842" cx="581.08" cy="900" r="9.2" style="fill:#ccc; stroke-width:0px;" /><circle id="SPH00843" cx="596.45" cy="919.3" r="9.2" style="fill:#ccc; stroke-width:0px;" /><circle id="SPH00844" cx="611.09" cy="939.16" r="9.2" style="fill:#ccc; stroke-width:0px;" /><circle id="SPH00845" cx="625.62" cy="959.12" r="9.2" style="fill:#ccc; stroke-width:0px;" /><circle id="SPH00846" cx="640.14" cy="979.07" r="9.2" style="fill:#ccc; stroke-width:0px;" /><circle id="SPH00847" cx="654.67" cy="999.02" r="9.2" style="fill:#ccc; stroke-width:0px;" /><circle id="SPH00848" cx="669.19" cy="1018.96" r="9.2" style="fill:#ccc; stroke-width:0px;" /><circle id="SPH00849" cx="533.44" cy="778.52" r="9.2" style="fill:#ccc; stroke-width:0px;" /><circle id="SPH00850" cx="549.95" cy="797.51" r="9.2" style="fill:#ccc; stroke-width:0px;" /><circle id="SPH00851" cx="565.71" cy="817.12" r="9.2" style="fill:#ccc; stroke-width:0px;" /><circle id="SPH00852" cx="581.38" cy="836.8" r="9.2" style="fill:#ccc; stroke-width:0px;" /><circle id="SPH00853" cx="597.05" cy="856.48" r="9.2" style="fill:#ccc; stroke-width:0px;" /><circle id="SPH00854" cx="612.72" cy="876.16" r="9.2" style="fill:#ccc; stroke-width:0px;" /><circle id="SPH00855" cx="628.39" cy="895.84" r="9.2" style="fill:#ccc; stroke-width:0px;" /><circle id="SPH00856" cx="643.29" cy="916.12" r="9.2" style="fill:#ccc; stroke-width:0px;" /><circle id="SPH00857" cx="658.11" cy="936.46" r="9.2" style="fill:#ccc; stroke-width:0px;" /><circle id="SPH00858" cx="672.91" cy="956.8" r="9.2" style="fill:#ccc; stroke-width:0px;" /><circle id="SPH00859" cx="687.72" cy="977.13" r="9.2" style="fill:#ccc; stroke-width:0px;" /><circle id="SPH00860" cx="702.54" cy="997.48" r="9.2" style="fill:#ccc; stroke-width:0px;" /><circle id="SPH00861" cx="716.53" cy="1018.36" r="9.2" style="fill:#ccc; stroke-width:0px;" /><circle id="SPH00862" cx="563.55" cy="752.8" r="9.2" style="fill:#ccc; stroke-width:0px;" /><circle id="SPH00863" cx="579.13" cy="770.72" r="9.2" style="fill:#ccc; stroke-width:0px;" /><circle id="SPH00864" cx="594.07" cy="789.16" r="9.2" style="fill:#ccc; stroke-width:0px;" /><circle id="SPH00865" cx="608.85" cy="807.73" r="9.2" style="fill:#ccc; stroke-width:0px;" /><circle id="SPH00866" cx="623.64" cy="826.3" r="9.2" style="fill:#ccc; stroke-width:0px;" /><circle id="SPH00867" cx="638.42" cy="844.86" r="9.2" style="fill:#ccc; stroke-width:0px;" /><circle id="SPH00868" cx="653.2" cy="863.43" r="9.2" style="fill:#ccc; stroke-width:0px;" /><circle id="SPH00869" cx="667.63" cy="882.27" r="9.2" style="fill:#ccc; stroke-width:0px;" /><circle id="SPH00870" cx="681.6" cy="901.46" r="9.2" style="fill:#ccc; stroke-width:0px;" /><circle id="SPH00871" cx="695.57" cy="920.64" r="9.2" style="fill:#ccc; stroke-width:0px;" /><circle id="SPH00872" cx="709.55" cy="939.84" r="9.2" style="fill:#ccc; stroke-width:0px;" /><circle id="SPH00873" cx="723.52" cy="959.03" r="9.2" style="fill:#ccc; stroke-width:0px;" /><circle id="SPH00874" cx="737.43" cy="978.24" r="9.2" style="fill:#ccc; stroke-width:0px;" /><circle id="SPH00875" cx="750.55" cy="998" r="9.2" style="fill:#ccc; stroke-width:0px;" /><circle id="SPH00876" cx="763.67" cy="1017.76" r="9.2" style="fill:#ccc; stroke-width:0px;" /><circle id="SPH00877" cx="593.67" cy="727.08" r="9.2" style="fill:#ccc; stroke-width:0px;" /><circle id="SPH00878" cx="609.53" cy="745.33" r="9.2" style="fill:#ccc; stroke-width:0px;" /><circle id="SPH00879" cx="624.75" cy="764.12" r="9.2" style="fill:#ccc; stroke-width:0px;" /><circle id="SPH00880" cx="639.81" cy="783.04" r="9.2" style="fill:#ccc; stroke-width:0px;" /><circle id="SPH00881" cx="654.87" cy="801.96" r="9.2" style="fill:#ccc; stroke-width:0px;" /><circle id="SPH00882" cx="669.93" cy="820.87" r="9.2" style="fill:#ccc; stroke-width:0px;" /><circle id="SPH00883" cx="684.99" cy="839.78" r="9.2" style="fill:#ccc; stroke-width:0px;" /><circle id="SPH00884" cx="699.67" cy="858.99" r="9.2" style="fill:#ccc; stroke-width:0px;" /><circle id="SPH00885" cx="713.89" cy="878.52" r="9.2" style="fill:#ccc; stroke-width:0px;" /><circle id="SPH00886" cx="728.12" cy="898.08" r="9.2" style="fill:#ccc; stroke-width:0px;" /><circle id="SPH00887" cx="742.35" cy="917.62" r="9.2" style="fill:#ccc; stroke-width:0px;" /><circle id="SPH00888" cx="756.59" cy="937.16" r="9.2" style="fill:#ccc; stroke-width:0px;" /><circle id="SPH00889" cx="770.71" cy="956.78" r="9.2" style="fill:#ccc; stroke-width:0px;" /><circle id="SPH00890" cx="784.08" cy="976.92" r="9.2" style="fill:#ccc; stroke-width:0px;" /><circle id="SPH00891" cx="797.44" cy="997.04" r="9.2" style="fill:#ccc; stroke-width:0px;" /><circle id="SPH00892" cx="810.8" cy="1017.16" r="9.2" style="fill:#ccc; stroke-width:0px;" /><circle id="SPH00893" cx="623.73" cy="701.31" r="9.2" style="fill:#ccc; stroke-width:0px;" /><circle id="SPH00894" cx="639.96" cy="719.98" r="9.2" style="fill:#ccc; stroke-width:0px;" /><circle id="SPH00895" cx="655.52" cy="739.2" r="9.2" style="fill:#ccc; stroke-width:0px;" /><circle id="SPH00896" cx="670.93" cy="758.56" r="9.2" style="fill:#ccc; stroke-width:0px;" /><circle id="SPH00897" cx="686.34" cy="777.9" r="9.2" style="fill:#ccc; stroke-width:0px;" /><circle id="SPH00898" cx="701.75" cy="797.24" r="9.2" style="fill:#ccc; stroke-width:0px;" /><circle id="SPH00899" cx="717.15" cy="816.6" r="9.2" style="fill:#ccc; stroke-width:0px;" /><circle id="SPH00900" cx="732.11" cy="836.28" r="9.2" style="fill:#ccc; stroke-width:0px;" /><circle id="SPH00901" cx="746.67" cy="856.28" r="9.2" style="fill:#ccc; stroke-width:0px;" /><circle id="SPH00902" cx="761.24" cy="876.28" r="9.2" style="fill:#ccc; stroke-width:0px;" /><circle id="SPH00903" cx="775.79" cy="896.27" r="9.2" style="fill:#ccc; stroke-width:0px;" /><circle id="SPH00904" cx="790.35" cy="916.26" r="9.2" style="fill:#ccc; stroke-width:0px;" /><circle id="SPH00905" cx="804.71" cy="936.4" r="9.2" style="fill:#ccc; stroke-width:0px;" /><circle id="SPH00906" cx="818.39" cy="957" r="9.2" style="fill:#ccc; stroke-width:0px;" /><circle id="SPH00907" cx="832.08" cy="977.61" r="9.2" style="fill:#ccc; stroke-width:0px;" /><circle id="SPH00908" cx="845.76" cy="998.22" r="9.2" style="fill:#ccc; stroke-width:0px;" /><circle id="SPH00909" cx="859.44" cy="1018.82" r="9.2" style="fill:#ccc; stroke-width:0px;" /><circle id="SPH00910" cx="653.85" cy="675.6" r="9.2" style="fill:#ccc; stroke-width:0px;" /><circle id="SPH00911" cx="670.33" cy="694.56" r="9.2" style="fill:#ccc; stroke-width:0px;" /><circle id="SPH00912" cx="686.14" cy="714.08" r="9.2" style="fill:#ccc; stroke-width:0px;" /><circle id="SPH00913" cx="701.79" cy="733.73" r="9.2" style="fill:#ccc; stroke-width:0px;" /><circle id="SPH00914" cx="717.44" cy="753.38" r="9.2" style="fill:#ccc; stroke-width:0px;" /><circle id="SPH00915" cx="733.08" cy="773.03" r="9.2" style="fill:#ccc; stroke-width:0px;" /><circle id="SPH00916" cx="748.73" cy="792.68" r="9.2" style="fill:#ccc; stroke-width:0px;" /><circle id="SPH00917" cx="763.91" cy="812.68" r="9.2" style="fill:#ccc; stroke-width:0px;" /><circle id="SPH00918" cx="778.7" cy="832.99" r="9.2" style="fill:#ccc; stroke-width:0px;" /><circle id="SPH00919" cx="793.48" cy="853.29" r="9.2" style="fill:#ccc; stroke-width:0px;" /><circle id="SPH00920" cx="808.27" cy="873.6" r="9.2" style="fill:#ccc; stroke-width:0px;" /><circle id="SPH00921" cx="823.06" cy="893.91" r="9.2" style="fill:#ccc; stroke-width:0px;" /><circle id="SPH00922" cx="837.63" cy="914.37" r="9.2" style="fill:#ccc; stroke-width:0px;" /><circle id="SPH00923" cx="851.52" cy="935.31" r="9.2" style="fill:#ccc; stroke-width:0px;" /><circle id="SPH00924" cx="865.43" cy="956.24" r="9.2" style="fill:#ccc; stroke-width:0px;" /><circle id="SPH00925" cx="879.32" cy="977.18" r="9.2" style="fill:#ccc; stroke-width:0px;" /><circle id="SPH00926" cx="893.24" cy="998.13" r="9.2" style="fill:#ccc; stroke-width:0px;" /><circle id="SPH00927" cx="683.96" cy="649.88" r="9.2" style="fill:#ccc; stroke-width:0px;" /><circle id="SPH00928" cx="700.7" cy="669.12" r="9.2" style="fill:#ccc; stroke-width:0px;" /><circle id="SPH00929" cx="716.75" cy="688.96" r="9.2" style="fill:#ccc; stroke-width:0px;" /><circle id="SPH00930" cx="732.64" cy="708.92" r="9.2" style="fill:#ccc; stroke-width:0px;" /><circle id="SPH00931" cx="748.54" cy="728.87" r="9.2" style="fill:#ccc; stroke-width:0px;" /><circle id="SPH00932" cx="764.44" cy="748.83" r="9.2" style="fill:#ccc; stroke-width:0px;" /><circle id="SPH00933" cx="780.32" cy="768.78" r="9.2" style="fill:#ccc; stroke-width:0px;" /><circle id="SPH00934" cx="795.73" cy="789.1" r="9.2" style="fill:#ccc; stroke-width:0px;" /><circle id="SPH00935" cx="810.75" cy="809.72" r="9.2" style="fill:#ccc; stroke-width:0px;" /><circle id="SPH00936" cx="825.76" cy="830.34" r="9.2" style="fill:#ccc; stroke-width:0px;" /><circle id="SPH00937" cx="840.78" cy="850.96" r="9.2" style="fill:#ccc; stroke-width:0px;" /><circle id="SPH00938" cx="855.79" cy="871.59" r="9.2" style="fill:#ccc; stroke-width:0px;" /><circle id="SPH00939" cx="870.55" cy="892.38" r="9.2" style="fill:#ccc; stroke-width:0px;" /><circle id="SPH00940" cx="884.67" cy="913.63" r="9.2" style="fill:#ccc; stroke-width:0px;" /><circle id="SPH00941" cx="898.78" cy="934.88" r="9.2" style="fill:#ccc; stroke-width:0px;" /><circle id="SPH00942" cx="912.88" cy="956.12" r="9.2" style="fill:#ccc; stroke-width:0px;" /><circle id="SPH00943" cx="926.99" cy="977.37" r="9.2" style="fill:#ccc; stroke-width:0px;" /><circle id="SPH00944" cx="1050.04" cy="408.22" r="9.2" style="fill:#ccc; stroke-width:0px;" /><circle id="SPH00945" cx="1064.39" cy="426.24" r="9.2" style="fill:#ccc; stroke-width:0px;" /><circle id="SPH00946" cx="1078.74" cy="444.27" r="9.2" style="fill:#ccc; stroke-width:0px;" /><circle id="SPH00947" cx="1093.09" cy="462.29" r="9.2" style="fill:#ccc; stroke-width:0px;" /><circle id="SPH00948" cx="1107.44" cy="480.32" r="9.2" style="fill:#ccc; stroke-width:0px;" /><circle id="SPH00949" cx="1121.79" cy="498.33" r="9.2" style="fill:#ccc; stroke-width:0px;" /><circle id="SPH00950" cx="1136.04" cy="516.44" r="9.2" style="fill:#ccc; stroke-width:0px;" /><circle id="SPH00951" cx="1149.6" cy="535.07" r="9.2" style="fill:#ccc; stroke-width:0px;" /><circle id="SPH00952" cx="1163.16" cy="553.7" r="9.2" style="fill:#ccc; stroke-width:0px;" /><circle id="SPH00953" cx="1176.73" cy="572.32" r="9.2" style="fill:#ccc; stroke-width:0px;" /><circle id="SPH00954" cx="1190.28" cy="590.95" r="9.2" style="fill:#ccc; stroke-width:0px;" /><circle id="SPH00955" cx="1203.85" cy="609.58" r="9.2" style="fill:#ccc; stroke-width:0px;" /><circle id="SPH00956" cx="1217.42" cy="628.21" r="9.2" style="fill:#ccc; stroke-width:0px;" /><circle id="SPH00957" cx="1230.59" cy="647.12" r="9.2" style="fill:#ccc; stroke-width:0px;" /><circle id="SPH00958" cx="1243.32" cy="666.31" r="9.2" style="fill:#ccc; stroke-width:0px;" /><circle id="SPH00959" cx="1256.07" cy="685.5" r="9.2" style="fill:#ccc; stroke-width:0px;" /><circle id="SPH00960" cx="1268.81" cy="704.69" r="9.2" style="fill:#ccc; stroke-width:0px;" /><circle id="SPH00961" cx="1045.32" cy="341.24" r="9.2" style="fill:#ccc; stroke-width:0px;" /><circle id="SPH00962" cx="1061.99" cy="360.43" r="9.2" style="fill:#ccc; stroke-width:0px;" /><circle id="SPH00963" cx="1078.19" cy="380" r="9.2" style="fill:#ccc; stroke-width:0px;" /><circle id="SPH00964" cx="1094.02" cy="399.88" r="9.2" style="fill:#ccc; stroke-width:0px;" /><circle id="SPH00965" cx="1109.85" cy="419.76" r="9.2" style="fill:#ccc; stroke-width:0px;" /><circle id="SPH00966" cx="1125.68" cy="439.64" r="9.2" style="fill:#ccc; stroke-width:0px;" /><circle id="SPH00967" cx="1141.51" cy="459.52" r="9.2" style="fill:#ccc; stroke-width:0px;" /><circle id="SPH00968" cx="1157.35" cy="479.4" r="9.2" style="fill:#ccc; stroke-width:0px;" /><circle id="SPH00969" cx="1172.76" cy="499.6" r="9.2" style="fill:#ccc; stroke-width:0px;" /><circle id="SPH00970" cx="1187.72" cy="520.15" r="9.2" style="fill:#ccc; stroke-width:0px;" /><circle id="SPH00971" cx="1202.68" cy="540.69" r="9.2" style="fill:#ccc; stroke-width:0px;" /><circle id="SPH00972" cx="1217.64" cy="561.24" r="9.2" style="fill:#ccc; stroke-width:0px;" /><circle id="SPH00973" cx="1232.6" cy="581.79" r="9.2" style="fill:#ccc; stroke-width:0px;" /><circle id="SPH00974" cx="1247.56" cy="602.34" r="9.2" style="fill:#ccc; stroke-width:0px;" /><circle id="SPH00975" cx="1262.18" cy="623.12" r="9.2" style="fill:#ccc; stroke-width:0px;" /><circle id="SPH00976" cx="1276.24" cy="644.29" r="9.2" style="fill:#ccc; stroke-width:0px;" /><circle id="SPH00977" cx="1290.3" cy="665.48" r="9.2" style="fill:#ccc; stroke-width:0px;" /><circle id="SPH00978" cx="1304.37" cy="686.66" r="9.2" style="fill:#ccc; stroke-width:0px;" /><circle id="SPH00979" cx="1318.44" cy="707.84" r="9.2" style="fill:#ccc; stroke-width:0px;" /><circle id="SPH00980" cx="1332.49" cy="729.02" r="9.2" style="fill:#ccc; stroke-width:0px;" /><circle id="SPH00981" cx="714.07" cy="624.16" r="9.2" style="fill:#ccc; stroke-width:0px;" /><circle id="SPH00982" cx="730.07" cy="642.55" r="9.2" style="fill:#ccc; stroke-width:0px;" /><circle id="SPH00983" cx="745.47" cy="661.44" r="9.2" style="fill:#ccc; stroke-width:0px;" /><circle id="SPH00984" cx="760.66" cy="680.52" r="9.2" style="fill:#ccc; stroke-width:0px;" /><circle id="SPH00985" cx="775.84" cy="699.58" r="9.2" style="fill:#ccc; stroke-width:0px;" /><circle id="SPH00986" cx="791.03" cy="718.65" r="9.2" style="fill:#ccc; stroke-width:0px;" /><circle id="SPH00987" cx="806.22" cy="737.73" r="9.2" style="fill:#ccc; stroke-width:0px;" /><circle id="SPH00988" cx="821.27" cy="756.9" r="9.2" style="fill:#ccc; stroke-width:0px;" /><circle id="SPH00989" cx="835.63" cy="776.61" r="9.2" style="fill:#ccc; stroke-width:0px;" /><circle id="SPH00990" cx="849.97" cy="796.32" r="9.2" style="fill:#ccc; stroke-width:0px;" /><circle id="SPH00991" cx="864.32" cy="816.03" r="9.2" style="fill:#ccc; stroke-width:0px;" /><circle id="SPH00992" cx="878.67" cy="835.74" r="9.2" style="fill:#ccc; stroke-width:0px;" /><circle id="SPH00993" cx="893.02" cy="855.44" r="9.2" style="fill:#ccc; stroke-width:0px;" /><circle id="SPH00994" cx="906.87" cy="875.48" r="9.2" style="fill:#ccc; stroke-width:0px;" /><circle id="SPH00995" cx="920.35" cy="895.78" r="9.2" style="fill:#ccc; stroke-width:0px;" /><circle id="SPH00996" cx="933.82" cy="916.07" r="9.2" style="fill:#ccc; stroke-width:0px;" /><circle id="SPH00997" cx="947.29" cy="936.36" r="9.2" style="fill:#ccc; stroke-width:0px;" /><circle id="SPH00998" cx="960.77" cy="956.66" r="9.2" style="fill:#ccc; stroke-width:0px;" /></g></svg>