<svg id="Layer_1" viewBox="0 0 1697.6 1405.17" xmlns="http://www.w3.org/2000/svg"><g id="back"><g id="back-2"><path id="sphere" d="M3853.01-795.14c0-1528.34-1241.46-2769.81-2769.81-2769.81S-1686.61-2323.48-1686.61-795.14-445.15,1974.67,1083.2,1974.67h0c1528.34,0,2769.81-1241.46,2769.81-2769.81Z" style="fill:#f2f2f2; stroke:#ddd; stroke-miterlimit:10; stroke-width:3px;" /><path d="M-1253.42-796.47c0,655.33,307.79,1239.54,786.53,1615.79,66.08,51.94,160.31,48.05,221.66-9.39C183.83,408.22,452.18-163.12,452.18-796.47S183.83-2001.16-245.23-2402.87c-61.36-57.44-155.58-61.33-221.66-9.39-478.74,376.25-786.53,960.46-786.53,1615.79h0Z" style="fill:#e5e5e5; stroke:#ddd; stroke-miterlimit:10; stroke-width:3px;" /></g><g id="sectors"><path id="_203" d="M1067.63,1130.53c-145.43-89.12-400.61-245.51-546.04-334.63,84.13-134.43,157.34-275.13,219.04-420.74h0c158.5,65.66,433.17,179.39,591.67,245.05,0,0-165.46,353.52-264.67,510.32h0Z" style="fill:#fff; stroke:#ddd; stroke-miterlimit:10; stroke-width:9px;" /><path id="_204" d="M1332.3,620.21c-38.71-16.04-433.14-179.42-591.65-245.07,61.78-145.78,112.02-296.48,150.13-450.7,207.57,49.83,415.13,99.66,622.7,149.5-30.57,124.33-67.81,247.45-111.69,368.81h0c-21.66,59.88-44.83,119.05-69.49,177.46h0Z" style="fill:#fff; stroke:#ddd; stroke-miterlimit:10; stroke-width:9px;" /><path id="_202" d="M521.46,795.83s.07.05.12.07c135.57,83.08,499.61,306.17,546.05,334.63-101.98,163.57-216.7,318.6-342.97,463.68-31.8-27.15-477.68-407.98-668.82-571.22,15.19-17.34,30.15-34.88,44.9-52.59,47.95-57.62,93.55-117.18,136.68-178.54h0c94.68,1.32,189.36,2.65,284.04,3.98h0Z" style="fill:#fff; stroke:#ddd; stroke-miterlimit:10; stroke-width:9px;" /><path id="_205" d="M890.78-75.56c207.57,49.83,415.15,99.67,622.72,149.5,50.62-205.84,82.98-415.04,97.07-625.17-54.3-4.27-479.96-37.77-638.47-50.25-8.94,138.44-27.51,276.4-55.69,412.89h0c-7.82,37.87-16.36,75.56-25.62,113.03h0Z" style="fill:#fff; stroke:#ddd; stroke-miterlimit:10; stroke-width:9px;" /><path id="_302" d="M1418.28,1790.26c-150.97-109.68-301.93-219.36-452.89-329.05,107.7-130.76,206.03-269.24,294.17-414.41,234.61,143.77,644.21,394.78,878.83,538.55-105.47,57.12-177.69,72.59-323.11,120.12h0c-128.51,38.04-261.12,66.58-397,84.79Z" style="fill:#fff; stroke:#ddd; stroke-miterlimit:10; stroke-width:9px;" /><path id="_303" d="M1963.41,1478.12c-234.62-143.77-469.24-287.55-703.85-431.32,96.59-159.1,180.92-326.23,251.9-500.05,254.22,105.3,508.45,210.61,762.68,315.91-72.41,176.85-156.04,348.06-250.14,512.71h0c-19.74,34.55-39.94,68.8-60.59,102.75h0Z" style="fill:#fff; stroke:#ddd; stroke-miterlimit:10; stroke-width:9px;" /><path id="_304" d="M1876.71,59.93c-12.93,55.22-27.11,110.15-42.54,164.75-75.95,20.35-151.89,40.7-227.85,61.05-13.04,40.79-26.83,81.4-41.39,121.81-16.88,46.86-34.71,93.27-53.48,139.21,254.22,105.3,508.45,210.61,762.68,315.91,23.71-57.9,46.22-116.4,67.49-175.48,56.99-158.26,104.57-318.99,142.74-481.38h0c-202.56-48.63-405.12-97.26-607.66-145.88h0Z" style="fill:#fff; stroke:#ddd; stroke-miterlimit:10; stroke-width:9px;" /></g></g><g id="Seats"><circle id="SPH00999" cx="905.65" cy="488.86" r="9.2" style="fill:#ccc; stroke-width:0px;" /><circle id="SPH01000" cx="895.77" cy="511.43" r="9.2" style="fill:#ccc; stroke-width:0px;" /><circle id="SPH01001" cx="885.9" cy="533.99" r="9.2" style="fill:#ccc; stroke-width:0px;" /><circle id="SPH01002" cx="875.69" cy="556.4" r="9.2" style="fill:#ccc; stroke-width:0px;" /><circle id="SPH01003" cx="864.84" cy="578.51" r="9.2" style="fill:#ccc; stroke-width:0px;" /><circle id="SPH01004" cx="853.99" cy="600.63" r="9.2" style="fill:#ccc; stroke-width:0px;" /><circle id="SPH01005" cx="843.14" cy="622.74" r="9.2" style="fill:#ccc; stroke-width:0px;" /><circle id="SPH01006" cx="832.28" cy="644.86" r="9.2" style="fill:#ccc; stroke-width:0px;" /><circle id="SPH01007" cx="821.44" cy="666.97" r="9.2" style="fill:#ccc; stroke-width:0px;" /><circle id="SPH01008" cx="809.92" cy="688.73" r="9.2" style="fill:#ccc; stroke-width:0px;" /><circle id="SPH01009" cx="798.12" cy="710.34" r="9.2" style="fill:#ccc; stroke-width:0px;" /><circle id="SPH01010" cx="786.32" cy="731.97" r="9.2" style="fill:#ccc; stroke-width:0px;" /><circle id="SPH01011" cx="774.5" cy="753.63" r="9.2" style="fill:#ccc; stroke-width:0px;" /><circle id="SPH01012" cx="762.68" cy="775.29" r="9.2" style="fill:#ccc; stroke-width:0px;" /><circle id="SPH01013" cx="750.78" cy="796.89" r="9.2" style="fill:#ccc; stroke-width:0px;" /><circle id="SPH01014" cx="738.05" cy="817.97" r="9.2" style="fill:#ccc; stroke-width:0px;" /><circle id="SPH01015" cx="725.33" cy="839.05" r="9.2" style="fill:#ccc; stroke-width:0px;" /><circle id="SPH01016" cx="712.61" cy="860.14" r="9.2" style="fill:#ccc; stroke-width:0px;" /><circle id="SPH01017" cx="942.24" cy="504.01" r="9.2" style="fill:#ccc; stroke-width:0px;" /><circle id="SPH01018" cx="932.22" cy="526.92" r="9.2" style="fill:#ccc; stroke-width:0px;" /><circle id="SPH01019" cx="922.2" cy="549.83" r="9.2" style="fill:#ccc; stroke-width:0px;" /><circle id="SPH01020" cx="911.85" cy="572.59" r="9.2" style="fill:#ccc; stroke-width:0px;" /><circle id="SPH01021" cx="900.84" cy="595.04" r="9.2" style="fill:#ccc; stroke-width:0px;" /><circle id="SPH01022" cx="889.83" cy="617.49" r="9.2" style="fill:#ccc; stroke-width:0px;" /><circle id="SPH01023" cx="878.81" cy="639.93" r="9.2" style="fill:#ccc; stroke-width:0px;" /><circle id="SPH01024" cx="867.8" cy="662.4" r="9.2" style="fill:#ccc; stroke-width:0px;" /><circle id="SPH01025" cx="856.77" cy="684.85" r="9.2" style="fill:#ccc; stroke-width:0px;" /><circle id="SPH01026" cx="845.08" cy="706.95" r="9.2" style="fill:#ccc; stroke-width:0px;" /><circle id="SPH01027" cx="833.12" cy="728.88" r="9.2" style="fill:#ccc; stroke-width:0px;" /><circle id="SPH01028" cx="821.14" cy="750.83" r="9.2" style="fill:#ccc; stroke-width:0px;" /><circle id="SPH01029" cx="809.14" cy="772.81" r="9.2" style="fill:#ccc; stroke-width:0px;" /><circle id="SPH01030" cx="797.15" cy="794.8" r="9.2" style="fill:#ccc; stroke-width:0px;" /><circle id="SPH01031" cx="785.06" cy="816.71" r="9.2" style="fill:#ccc; stroke-width:0px;" /><circle id="SPH01032" cx="772.15" cy="838.1" r="9.2" style="fill:#ccc; stroke-width:0px;" /><circle id="SPH01033" cx="759.25" cy="859.49" r="9.2" style="fill:#ccc; stroke-width:0px;" /><circle id="SPH01034" cx="746.34" cy="880.89" r="9.2" style="fill:#ccc; stroke-width:0px;" /><circle id="SPH01035" cx="978.84" cy="519.17" r="9.2" style="fill:#ccc; stroke-width:0px;" /><circle id="SPH01036" cx="969.24" cy="541.13" r="9.2" style="fill:#ccc; stroke-width:0px;" /><circle id="SPH01037" cx="959.63" cy="563.07" r="9.2" style="fill:#ccc; stroke-width:0px;" /><circle id="SPH01038" cx="949.89" cy="584.96" r="9.2" style="fill:#ccc; stroke-width:0px;" /><circle id="SPH01039" cx="939.34" cy="606.47" r="9.2" style="fill:#ccc; stroke-width:0px;" /><circle id="SPH01040" cx="928.79" cy="627.98" r="9.2" style="fill:#ccc; stroke-width:0px;" /><circle id="SPH01041" cx="918.24" cy="649.49" r="9.2" style="fill:#ccc; stroke-width:0px;" /><circle id="SPH01042" cx="907.68" cy="671" r="9.2" style="fill:#ccc; stroke-width:0px;" /><circle id="SPH01043" cx="897.12" cy="692.51" r="9.2" style="fill:#ccc; stroke-width:0px;" /><circle id="SPH01044" cx="886.39" cy="713.93" r="9.2" style="fill:#ccc; stroke-width:0px;" /><circle id="SPH01045" cx="874.9" cy="734.99" r="9.2" style="fill:#ccc; stroke-width:0px;" /><circle id="SPH01046" cx="863.41" cy="756.03" r="9.2" style="fill:#ccc; stroke-width:0px;" /><circle id="SPH01047" cx="851.92" cy="777.09" r="9.2" style="fill:#ccc; stroke-width:0px;" /><circle id="SPH01048" cx="840.44" cy="798.14" r="9.2" style="fill:#ccc; stroke-width:0px;" /><circle id="SPH01049" cx="828.95" cy="819.19" r="9.2" style="fill:#ccc; stroke-width:0px;" /><circle id="SPH01050" cx="817.21" cy="840.09" r="9.2" style="fill:#ccc; stroke-width:0px;" /><circle id="SPH01051" cx="804.83" cy="860.61" r="9.2" style="fill:#ccc; stroke-width:0px;" /><circle id="SPH01052" cx="792.45" cy="881.12" r="9.2" style="fill:#ccc; stroke-width:0px;" /><circle id="SPH01053" cx="780.08" cy="901.62" r="9.2" style="fill:#ccc; stroke-width:0px;" /><circle id="SPH01054" cx="1015.43" cy="534.33" r="9.2" style="fill:#ccc; stroke-width:0px;" /><circle id="SPH01055" cx="1005.68" cy="556.6" r="9.2" style="fill:#ccc; stroke-width:0px;" /><circle id="SPH01056" cx="995.94" cy="578.86" r="9.2" style="fill:#ccc; stroke-width:0px;" /><circle id="SPH01057" cx="986.09" cy="601.08" r="9.2" style="fill:#ccc; stroke-width:0px;" /><circle id="SPH01058" cx="975.39" cy="622.89" r="9.2" style="fill:#ccc; stroke-width:0px;" /><circle id="SPH01059" cx="964.68" cy="644.72" r="9.2" style="fill:#ccc; stroke-width:0px;" /><circle id="SPH01060" cx="953.98" cy="666.53" r="9.2" style="fill:#ccc; stroke-width:0px;" /><circle id="SPH01061" cx="943.28" cy="688.34" r="9.2" style="fill:#ccc; stroke-width:0px;" /><circle id="SPH01062" cx="932.58" cy="710.15" r="9.2" style="fill:#ccc; stroke-width:0px;" /><circle id="SPH01063" cx="921.71" cy="731.87" r="9.2" style="fill:#ccc; stroke-width:0px;" /><circle id="SPH01064" cx="910.07" cy="753.21" r="9.2" style="fill:#ccc; stroke-width:0px;" /><circle id="SPH01065" cx="898.42" cy="774.55" r="9.2" style="fill:#ccc; stroke-width:0px;" /><circle id="SPH01066" cx="886.78" cy="795.89" r="9.2" style="fill:#ccc; stroke-width:0px;" /><circle id="SPH01067" cx="875.13" cy="817.23" r="9.2" style="fill:#ccc; stroke-width:0px;" /><circle id="SPH01068" cx="863.48" cy="838.57" r="9.2" style="fill:#ccc; stroke-width:0px;" /><circle id="SPH01069" cx="851.59" cy="859.76" r="9.2" style="fill:#ccc; stroke-width:0px;" /><circle id="SPH01070" cx="839.03" cy="880.57" r="9.2" style="fill:#ccc; stroke-width:0px;" /><circle id="SPH01071" cx="826.47" cy="901.4" r="9.2" style="fill:#ccc; stroke-width:0px;" /><circle id="SPH01072" cx="813.91" cy="922.22" r="9.2" style="fill:#ccc; stroke-width:0px;" /><circle id="SPH01073" cx="1052.03" cy="549.49" r="9.2" style="fill:#ccc; stroke-width:0px;" /><circle id="SPH01074" cx="1042.14" cy="572.07" r="9.2" style="fill:#ccc; stroke-width:0px;" /><circle id="SPH01075" cx="1032.25" cy="594.65" r="9.2" transform="translate(279.93 1518.32) rotate(-80.78)" style="fill:#ccc; stroke-width:0px;" /><circle id="SPH01076" cx="1022.29" cy="617.21" r="9.2" style="fill:#ccc; stroke-width:0px;" /><circle id="SPH01077" cx="1011.44" cy="639.33" r="9.2" style="fill:#ccc; stroke-width:0px;" /><circle id="SPH01078" cx="1000.58" cy="661.47" r="9.2" style="fill:#ccc; stroke-width:0px;" /><circle id="SPH01079" cx="989.72" cy="683.6" r="9.2" style="fill:#ccc; stroke-width:0px;" /><circle id="SPH01080" cx="978.87" cy="705.72" r="9.2" style="fill:#ccc; stroke-width:0px;" /><circle id="SPH01081" cx="968.01" cy="727.85" r="9.2" style="fill:#ccc; stroke-width:0px;" /><circle id="SPH01082" cx="956.99" cy="749.89" r="9.2" style="fill:#ccc; stroke-width:0px;" /><circle id="SPH01083" cx="945.19" cy="771.52" r="9.2" style="fill:#ccc; stroke-width:0px;" /><circle id="SPH01084" cx="933.38" cy="793.16" r="9.2" style="fill:#ccc; stroke-width:0px;" /><circle id="SPH01085" cx="921.58" cy="814.78" r="9.2" style="fill:#ccc; stroke-width:0px;" /><circle id="SPH01086" cx="909.77" cy="836.41" r="9.2" style="fill:#ccc; stroke-width:0px;" /><circle id="SPH01087" cx="897.97" cy="858.04" r="9.2" style="fill:#ccc; stroke-width:0px;" /><circle id="SPH01088" cx="885.91" cy="879.53" r="9.2" style="fill:#ccc; stroke-width:0px;" /><circle id="SPH01089" cx="873.16" cy="900.65" r="9.2" style="fill:#ccc; stroke-width:0px;" /><circle id="SPH01090" cx="860.42" cy="921.78" r="9.2" style="fill:#ccc; stroke-width:0px;" /><circle id="SPH01091" cx="847.68" cy="942.9" r="9.2" style="fill:#ccc; stroke-width:0px;" /><circle id="SPH01092" cx="1088.62" cy="564.65" r="9.2" style="fill:#ccc; stroke-width:0px;" /><circle id="SPH01093" cx="1078.6" cy="587.54" r="9.2" style="fill:#ccc; stroke-width:0px;" /><circle id="SPH01094" cx="1068.57" cy="610.44" r="9.2" style="fill:#ccc; stroke-width:0px;" /><circle id="SPH01095" cx="1058.5" cy="633.31" r="9.2" style="fill:#ccc; stroke-width:0px;" /><circle id="SPH01096" cx="1047.49" cy="655.75" r="9.2" style="fill:#ccc; stroke-width:0px;" /><circle id="SPH01097" cx="1036.48" cy="678.19" r="9.2" style="fill:#ccc; stroke-width:0px;" /><circle id="SPH01098" cx="1025.47" cy="700.63" r="9.2" transform="translate(169.62 1600.63) rotate(-80.78)" style="fill:#ccc; stroke-width:0px;" /><circle id="SPH01099" cx="1014.46" cy="723.08" r="9.2" style="fill:#ccc; stroke-width:0px;" /><circle id="SPH01100" cx="1003.44" cy="745.53" r="9.2" style="fill:#ccc; stroke-width:0px;" /><circle id="SPH01101" cx="992.28" cy="767.9" r="9.2" style="fill:#ccc; stroke-width:0px;" /><circle id="SPH01102" cx="980.3" cy="789.83" r="9.2" style="fill:#ccc; stroke-width:0px;" /><circle id="SPH01103" cx="968.34" cy="811.76" r="9.2" style="fill:#ccc; stroke-width:0px;" /><circle id="SPH01104" cx="956.37" cy="833.69" r="9.2" style="fill:#ccc; stroke-width:0px;" /><circle id="SPH01105" cx="944.41" cy="855.61" r="9.2" style="fill:#ccc; stroke-width:0px;" /><circle id="SPH01106" cx="932.45" cy="877.53" r="9.2" style="fill:#ccc; stroke-width:0px;" /><circle id="SPH01107" cx="920.23" cy="899.3" r="9.2" style="fill:#ccc; stroke-width:0px;" /><circle id="SPH01108" cx="907.32" cy="920.69" r="9.2" style="fill:#ccc; stroke-width:0px;" /><circle id="SPH01109" cx="894.42" cy="942.08" r="9.2" style="fill:#ccc; stroke-width:0px;" /><circle id="SPH01110" cx="881.52" cy="963.46" r="9.2" style="fill:#ccc; stroke-width:0px;" /><circle id="SPH01125" cx="759.28" cy="428.23" r="9.2" style="fill:#ccc; stroke-width:0px;" /><circle id="SPH01126" cx="749.41" cy="450.79" r="9.2" style="fill:#ccc; stroke-width:0px;" /><circle id="SPH01127" cx="739.54" cy="473.34" r="9.2" style="fill:#ccc; stroke-width:0px;" /><circle id="SPH01128" cx="729.08" cy="495.61" r="9.2" style="fill:#ccc; stroke-width:0px;" /><circle id="SPH01129" cx="718.23" cy="517.72" r="9.2" style="fill:#ccc; stroke-width:0px;" /><circle id="SPH01130" cx="707.39" cy="539.82" r="9.2" style="fill:#ccc; stroke-width:0px;" /><circle id="SPH01131" cx="696.54" cy="561.93" r="9.2" style="fill:#ccc; stroke-width:0px;" /><circle id="SPH01132" cx="685.68" cy="584.05" r="9.2" style="fill:#ccc; stroke-width:0px;" /><circle id="SPH01133" cx="674.6" cy="606.03" r="9.2" style="fill:#ccc; stroke-width:0px;" /><circle id="SPH01134" cx="662.8" cy="627.65" r="9.2" style="fill:#ccc; stroke-width:0px;" /><circle id="SPH01135" cx="651.01" cy="649.25" r="9.2" style="fill:#ccc; stroke-width:0px;" /><circle id="SPH01136" cx="639.22" cy="670.86" r="9.2" style="fill:#ccc; stroke-width:0px;" /><circle id="SPH01137" cx="627.43" cy="692.46" r="9.2" style="fill:#ccc; stroke-width:0px;" /><circle id="SPH01138" cx="615.64" cy="714.06" r="9.2" style="fill:#ccc; stroke-width:0px;" /><circle id="SPH01139" cx="603" cy="735.19" r="9.2" style="fill:#ccc; stroke-width:0px;" /><circle id="SPH01140" cx="590.28" cy="756.26" r="9.2" style="fill:#ccc; stroke-width:0px;" /><circle id="SPH01141" cx="577.57" cy="777.34" r="9.2" style="fill:#ccc; stroke-width:0px;" /><circle id="SPH01142" cx="795.88" cy="443.39" r="9.2" style="fill:#ccc; stroke-width:0px;" /><circle id="SPH01143" cx="785.85" cy="466.3" r="9.2" style="fill:#ccc; stroke-width:0px;" /><circle id="SPH01144" cx="775.82" cy="489.21" r="9.2" style="fill:#ccc; stroke-width:0px;" /><circle id="SPH01145" cx="765.22" cy="511.85" r="9.2" style="fill:#ccc; stroke-width:0px;" /><circle id="SPH01146" cx="754.2" cy="534.3" r="9.2" style="fill:#ccc; stroke-width:0px;" /><circle id="SPH01147" cx="743.19" cy="556.76" r="9.2" style="fill:#ccc; stroke-width:0px;" /><circle id="SPH01148" cx="732.17" cy="579.21" r="9.2" style="fill:#ccc; stroke-width:0px;" /><circle id="SPH01149" cx="721.15" cy="601.66" r="9.2" style="fill:#ccc; stroke-width:0px;" /><circle id="SPH01150" cx="709.9" cy="624" r="9.2" style="fill:#ccc; stroke-width:0px;" /><circle id="SPH01151" cx="697.92" cy="645.95" r="9.2" style="fill:#ccc; stroke-width:0px;" /><circle id="SPH01152" cx="685.95" cy="667.9" r="9.2" style="fill:#ccc; stroke-width:0px;" /><circle id="SPH01153" cx="673.97" cy="689.84" r="9.2" style="fill:#ccc; stroke-width:0px;" /><circle id="SPH01154" cx="662" cy="711.77" r="9.2" style="fill:#ccc; stroke-width:0px;" /><circle id="SPH01155" cx="650.04" cy="733.69" r="9.2" style="fill:#ccc; stroke-width:0px;" /><circle id="SPH01156" cx="637.22" cy="755.13" r="9.2" style="fill:#ccc; stroke-width:0px;" /><circle id="SPH01157" cx="624.31" cy="776.54" r="9.2" style="fill:#ccc; stroke-width:0px;" /><circle id="SPH01158" cx="611.39" cy="797.95" r="9.2" style="fill:#ccc; stroke-width:0px;" /><circle id="SPH01159" cx="832.47" cy="458.55" r="9.2" style="fill:#ccc; stroke-width:0px;" /><circle id="SPH01160" cx="822.28" cy="481.81" r="9.2" style="fill:#ccc; stroke-width:0px;" /><circle id="SPH01161" cx="812.1" cy="505.08" r="9.2" style="fill:#ccc; stroke-width:0px;" /><circle id="SPH01162" cx="801.36" cy="528.08" r="9.2" style="fill:#ccc; stroke-width:0px;" /><circle id="SPH01163" cx="790.18" cy="550.88" r="9.2" style="fill:#ccc; stroke-width:0px;" /><circle id="SPH01164" cx="779" cy="573.68" r="9.2" style="fill:#ccc; stroke-width:0px;" /><circle id="SPH01165" cx="767.81" cy="596.48" r="9.2" style="fill:#ccc; stroke-width:0px;" /><circle id="SPH01166" cx="756.62" cy="619.28" r="9.2" style="fill:#ccc; stroke-width:0px;" /><circle id="SPH01167" cx="745.21" cy="641.96" r="9.2" style="fill:#ccc; stroke-width:0px;" /><circle id="SPH01168" cx="733.05" cy="664.25" r="9.2" style="fill:#ccc; stroke-width:0px;" /><circle id="SPH01169" cx="720.88" cy="686.55" r="9.2" style="fill:#ccc; stroke-width:0px;" /><circle id="SPH01170" cx="708.72" cy="708.82" r="9.2" style="fill:#ccc; stroke-width:0px;" /><circle id="SPH01171" cx="696.58" cy="731.08" r="9.2" style="fill:#ccc; stroke-width:0px;" /><circle id="SPH01172" cx="684.44" cy="753.33" r="9.2" style="fill:#ccc; stroke-width:0px;" /><circle id="SPH01173" cx="671.4" cy="775.13" r="9.2" style="fill:#ccc; stroke-width:0px;" /><circle id="SPH01174" cx="658.28" cy="796.89" r="9.2" style="fill:#ccc; stroke-width:0px;" /><circle id="SPH01175" cx="645.16" cy="818.63" r="9.2" style="fill:#ccc; stroke-width:0px;" /><circle id="SPH01176" cx="869.06" cy="473.7" r="9.2" style="fill:#ccc; stroke-width:0px;" /><circle id="SPH01177" cx="859.33" cy="495.94" r="9.2" style="fill:#ccc; stroke-width:0px;" /><circle id="SPH01178" cx="849.6" cy="518.18" r="9.2" style="fill:#ccc; stroke-width:0px;" /><circle id="SPH01179" cx="839.5" cy="540.25" r="9.2" style="fill:#ccc; stroke-width:0px;" /><circle id="SPH01180" cx="828.81" cy="562.04" r="9.2" style="fill:#ccc; stroke-width:0px;" /><circle id="SPH01181" cx="818.12" cy="583.83" r="9.2" style="fill:#ccc; stroke-width:0px;" /><circle id="SPH01182" cx="807.44" cy="605.61" r="9.2" style="fill:#ccc; stroke-width:0px;" /><circle id="SPH01183" cx="796.75" cy="627.39" r="9.2" style="fill:#ccc; stroke-width:0px;" /><circle id="SPH01184" cx="786.07" cy="649.17" r="9.2" style="fill:#ccc; stroke-width:0px;" /><circle id="SPH01185" cx="774.69" cy="670.61" r="9.2" style="fill:#ccc; stroke-width:0px;" /><circle id="SPH01186" cx="763.07" cy="691.91" r="9.2" style="fill:#ccc; stroke-width:0px;" /><circle id="SPH01187" cx="751.44" cy="713.21" r="9.2" style="fill:#ccc; stroke-width:0px;" /><circle id="SPH01188" cx="739.82" cy="734.52" r="9.2" style="fill:#ccc; stroke-width:0px;" /><circle id="SPH01189" cx="728.19" cy="755.82" r="9.2" style="fill:#ccc; stroke-width:0px;" /><circle id="SPH01190" cx="716.48" cy="777.08" r="9.2" style="fill:#ccc; stroke-width:0px;" /><circle id="SPH01191" cx="703.93" cy="797.88" r="9.2" style="fill:#ccc; stroke-width:0px;" /><circle id="SPH01192" cx="691.38" cy="818.68" r="9.2" style="fill:#ccc; stroke-width:0px;" /><circle id="SPH01193" cx="678.83" cy="839.48" r="9.2" style="fill:#ccc; stroke-width:0px;" /></g></svg>