<svg id="Layer_1" viewBox="0 0 1697.6 1405.17" xmlns="http://www.w3.org/2000/svg"><g id="back"><g id="back-2"><path id="sphere" d="M2332.3,2779.59C2332.3,1251.25,1090.84,9.78-437.51,9.78s-2769.81,1241.47-2769.81,2769.81S-1965.86,5549.4-437.51,5549.4h0c1528.34,0,2769.81-1241.46,2769.81-2769.81Z" style="fill:#f2f2f2; stroke:#ddd; stroke-miterlimit:10; stroke-width:3px;" /></g><g id="sectors"><path id="_409" d="M753.63,1122c34.48-14.28,584.25-242.01,587.71-243.44-211.42-197-455.65-359.72-723.64-479.19-58.27,35.71-116.53,71.42-174.8,107.12,20.63,33.91,40.8,68.13,60.52,102.63h0c94.11,164.69,177.78,335.97,250.19,512.88h.02Z" style="fill:#fff; stroke:#ddd; stroke-miterlimit:10; stroke-width:9px;" /><path id="_308" d="M963.72,1778.92c-202.58,48.64-405.16,97.27-607.72,145.9-12.93-55.23-27.11-110.16-42.53-164.76-75.94-20.35-151.87-40.69-227.81-61.04-13.06-40.84-26.87-81.5-41.44-121.97-16.85-46.81-34.67-93.18-53.41-139.09,254.24-105.31,508.48-210.62,762.73-315.93,23.67,57.81,46.14,116.22,67.38,175.2h0c57.02,158.36,104.64,319.19,142.8,481.68h0Z" style="fill:#fff; stroke:#ddd; stroke-miterlimit:10; stroke-width:9px;" /><path id="_309" d="M753.54,1122.04c-254.26,105.32-508.49,210.62-762.73,315.93-70.98-173.83-155.31-340.97-251.89-500.07C-26.44,794.11,208.21,650.32,442.84,506.53c20.61,33.88,40.76,68.05,60.45,102.52h0c94.13,164.73,177.81,336.03,250.25,512.98h0Z" style="fill:#fff; stroke:#ddd; stroke-miterlimit:10; stroke-width:9px;" /><path id="_310" d="M-102.4,194.47c-150.95,109.67-301.9,219.34-452.84,329.01,107.69,130.76,206.02,269.25,294.15,414.42C-26.45,794.11,383.07,543.16,617.7,399.37c-130.35-55.93-201.76-83.24-322.88-120.04h0C166.24,241.25,33.56,212.68-102.41,194.46h0Z" style="fill:#fff; stroke:#ddd; stroke-miterlimit:10; stroke-width:9px;" /><path id="_408" d="M753.61,1121.99c23.69,57.85,46.17,116.3,67.42,175.32,3.53,9.81,7.06,19.62,10.6,29.43,35.17,99.44,66.58,200.12,94.17,301.91,2.8,10.55,5.6,21.11,8.4,31.66,10.44,39.43,20.31,78.96,29.61,118.59,301.23-72.31,602.47-144.64,903.7-216.96-83.27-156.03-182.04-302.69-294.27-437.97-70.43-87.61-154.08-177.66-231.9-245.41,0,0-395.29,163.72-587.73,243.43Z" style="fill:#fff; stroke:#ddd; stroke-miterlimit:10; stroke-width:9px;" /></g></g><g id="Seats"><circle id="SPH02160" cx="1021.79" cy="680.82" r="9.2" style="fill:#ccc; stroke-width:0px;" /><circle id="SPH02161" cx="1032.32" cy="702.38" r="9.2" transform="translate(173.65 1608.86) rotate(-80.78)" style="fill:#ccc; stroke-width:0px;" /><circle id="SPH02162" cx="1042.85" cy="723.95" r="9.2" style="fill:#ccc; stroke-width:0px;" /><circle id="SPH02163" cx="1053.39" cy="745.51" r="9.2" style="fill:#ccc; stroke-width:0px;" /><circle id="SPH02164" cx="1063.91" cy="767.07" r="9.2" style="fill:#ccc; stroke-width:0px;" /><circle id="SPH02165" cx="1073.56" cy="789.05" r="9.2" style="fill:#ccc; stroke-width:0px;" /><circle id="SPH02166" cx="1083.15" cy="811.06" r="9.2" style="fill:#ccc; stroke-width:0px;" /><circle id="SPH02167" cx="1092.75" cy="833.06" r="9.2" style="fill:#ccc; stroke-width:0px;" /><circle id="SPH02168" cx="1102.33" cy="855.07" r="9.2" style="fill:#ccc; stroke-width:0px;" /><circle id="SPH02169" cx="1111.91" cy="877.06" r="9.2" style="fill:#ccc; stroke-width:0px;" /><circle id="SPH02170" cx="1121.5" cy="899.06" r="9.2" style="fill:#ccc; stroke-width:0px;" /><circle id="SPH02171" cx="1131.09" cy="921.06" r="9.2" style="fill:#ccc; stroke-width:0px;" /><circle id="SPH02172" cx="1090.03" cy="730.32" r="9.2" style="fill:#ccc; stroke-width:0px;" /><circle id="SPH02173" cx="1100.57" cy="751.89" r="9.2" style="fill:#ccc; stroke-width:0px;" /><circle id="SPH02174" cx="1110.15" cy="773.89" r="9.2" style="fill:#ccc; stroke-width:0px;" /><circle id="SPH02175" cx="1119.75" cy="795.9" r="9.2" style="fill:#ccc; stroke-width:0px;" /><circle id="SPH02176" cx="1129.33" cy="817.9" r="9.2" style="fill:#ccc; stroke-width:0px;" /><circle id="SPH02177" cx="1138.91" cy="839.9" r="9.2" style="fill:#ccc; stroke-width:0px;" /><circle id="SPH02178" cx="1148.51" cy="861.91" r="9.2" style="fill:#ccc; stroke-width:0px;" /><circle id="SPH02179" cx="1158.09" cy="883.91" r="9.2" style="fill:#ccc; stroke-width:0px;" /><circle id="SPH02180" cx="1167.68" cy="905.91" r="9.2" style="fill:#ccc; stroke-width:0px;" /><circle id="SPH02181" cx="1156.33" cy="780.73" r="9.2" style="fill:#ccc; stroke-width:0px;" /><circle id="SPH02182" cx="1165.92" cy="802.73" r="9.2" style="fill:#ccc; stroke-width:0px;" /><circle id="SPH02183" cx="1175.51" cy="824.74" r="9.2" style="fill:#ccc; stroke-width:0px;" /><circle id="SPH02184" cx="1185.09" cy="846.74" r="9.2" style="fill:#ccc; stroke-width:0px;" /><circle id="SPH02185" cx="1194.67" cy="868.73" r="9.2" style="fill:#ccc; stroke-width:0px;" /><circle id="SPH02186" cx="1204.27" cy="890.73" r="9.2" style="fill:#ccc; stroke-width:0px;" /><circle id="SPH02187" cx="491.19" cy="530.55" r="9.2" style="fill:#ccc; stroke-width:0px;" /><circle id="SPH02188" cx="503.23" cy="550.6" r="9.2" transform="translate(-120.87 959.14) rotate(-80.78)" style="fill:#ccc; stroke-width:0px;" /><circle id="SPH02189" cx="515.27" cy="570.64" r="9.2" style="fill:#ccc; stroke-width:0px;" /><circle id="SPH02190" cx="527.3" cy="590.68" r="9.2" style="fill:#ccc; stroke-width:0px;" /><circle id="SPH02191" cx="538.7" cy="611.09" r="9.2" style="fill:#ccc; stroke-width:0px;" /><circle id="SPH02192" cx="549.86" cy="631.63" r="9.2" style="fill:#ccc; stroke-width:0px;" /><circle id="SPH02193" cx="561.02" cy="652.18" r="9.2" style="fill:#ccc; stroke-width:0px;" /><circle id="SPH02194" cx="572.18" cy="672.72" r="9.2" style="fill:#ccc; stroke-width:0px;" /><circle id="SPH02195" cx="583.33" cy="693.27" r="9.2" style="fill:#ccc; stroke-width:0px;" /><circle id="SPH02196" cx="594.5" cy="713.82" r="9.2" style="fill:#ccc; stroke-width:0px;" /><circle id="SPH02197" cx="605.65" cy="734.36" r="9.2" style="fill:#ccc; stroke-width:0px;" /><circle id="SPH02198" cx="616.81" cy="754.91" r="9.2" style="fill:#ccc; stroke-width:0px;" /><circle id="SPH02199" cx="627.43" cy="775.71" r="9.2" style="fill:#ccc; stroke-width:0px;" /><circle id="SPH02200" cx="637.7" cy="796.73" r="9.2" style="fill:#ccc; stroke-width:0px;" /><circle id="SPH02201" cx="647.95" cy="817.73" r="9.2" style="fill:#ccc; stroke-width:0px;" /><circle id="SPH02202" cx="658.22" cy="838.74" r="9.2" style="fill:#ccc; stroke-width:0px;" /><circle id="SPH02203" cx="668.47" cy="859.73" r="9.2" style="fill:#ccc; stroke-width:0px;" /><circle id="SPH02204" cx="678.71" cy="880.72" r="9.2" style="fill:#ccc; stroke-width:0px;" /><circle id="SPH02205" cx="688.97" cy="901.71" r="9.2" style="fill:#ccc; stroke-width:0px;" /><circle id="SPH02206" cx="699.23" cy="922.71" r="9.2" style="fill:#ccc; stroke-width:0px;" /><circle id="SPH02207" cx="709.07" cy="943.89" r="9.2" style="fill:#ccc; stroke-width:0px;" /><circle id="SPH02208" cx="718.42" cy="965.33" r="9.2" style="fill:#ccc; stroke-width:0px;" /><circle id="SPH02209" cx="727.75" cy="986.75" r="9.2" style="fill:#ccc; stroke-width:0px;" /><circle id="SPH02210" cx="737.09" cy="1008.19" r="9.2" style="fill:#ccc; stroke-width:0px;" /><circle id="SPH02211" cx="746.43" cy="1029.62" r="9.2" style="fill:#ccc; stroke-width:0px;" /><circle id="SPH02212" cx="524.96" cy="509.86" r="9.2" style="fill:#ccc; stroke-width:0px;" /><circle id="SPH02213" cx="537.13" cy="530.13" r="9.2" style="fill:#ccc; stroke-width:0px;" /><circle id="SPH02214" cx="549.3" cy="550.4" r="9.2" style="fill:#ccc; stroke-width:0px;" /><circle id="SPH02215" cx="561.47" cy="570.67" r="9.2" style="fill:#ccc; stroke-width:0px;" /><circle id="SPH02216" cx="573.01" cy="591.29" r="9.2" style="fill:#ccc; stroke-width:0px;" /><circle id="SPH02217" cx="584.3" cy="612.07" r="9.2" style="fill:#ccc; stroke-width:0px;" /><circle id="SPH02218" cx="595.58" cy="632.83" r="9.2" style="fill:#ccc; stroke-width:0px;" /><circle id="SPH02219" cx="606.86" cy="653.62" r="9.2" style="fill:#ccc; stroke-width:0px;" /><circle id="SPH02220" cx="618.15" cy="674.39" r="9.2" style="fill:#ccc; stroke-width:0px;" /><circle id="SPH02221" cx="629.43" cy="695.18" r="9.2" style="fill:#ccc; stroke-width:0px;" /><circle id="SPH02222" cx="640.71" cy="715.95" r="9.2" style="fill:#ccc; stroke-width:0px;" /><circle id="SPH02223" cx="652" cy="736.72" r="9.2" style="fill:#ccc; stroke-width:0px;" /><circle id="SPH02224" cx="662.75" cy="757.78" r="9.2" style="fill:#ccc; stroke-width:0px;" /><circle id="SPH02225" cx="673.11" cy="779.01" r="9.2" style="fill:#ccc; stroke-width:0px;" /><circle id="SPH02226" cx="683.49" cy="800.25" r="9.2" style="fill:#ccc; stroke-width:0px;" /><circle id="SPH02227" cx="693.86" cy="821.48" r="9.2" style="fill:#ccc; stroke-width:0px;" /><circle id="SPH02228" cx="704.23" cy="842.71" r="9.2" style="fill:#ccc; stroke-width:0px;" /><circle id="SPH02229" cx="714.59" cy="863.95" r="9.2" style="fill:#ccc; stroke-width:0px;" /><circle id="SPH02230" cx="724.96" cy="885.18" r="9.2" style="fill:#ccc; stroke-width:0px;" /><circle id="SPH02231" cx="735.34" cy="906.41" r="9.2" style="fill:#ccc; stroke-width:0px;" /><circle id="SPH02232" cx="745.28" cy="927.85" r="9.2" style="fill:#ccc; stroke-width:0px;" /><circle id="SPH02233" cx="754.72" cy="949.52" r="9.2" style="fill:#ccc; stroke-width:0px;" /><circle id="SPH02234" cx="764.17" cy="971.19" r="9.2" style="fill:#ccc; stroke-width:0px;" /><circle id="SPH02235" cx="773.61" cy="992.87" r="9.2" style="fill:#ccc; stroke-width:0px;" /><circle id="SPH02236" cx="783.06" cy="1014.54" r="9.2" style="fill:#ccc; stroke-width:0px;" /><circle id="SPH02237" cx="558.72" cy="489.17" r="9.2" style="fill:#ccc; stroke-width:0px;" /><circle id="SPH02238" cx="571.01" cy="509.63" r="9.2" style="fill:#ccc; stroke-width:0px;" /><circle id="SPH02239" cx="583.29" cy="530.08" r="9.2" style="fill:#ccc; stroke-width:0px;" /><circle id="SPH02240" cx="595.58" cy="550.55" r="9.2" style="fill:#ccc; stroke-width:0px;" /><circle id="SPH02241" cx="607.25" cy="571.35" r="9.2" style="fill:#ccc; stroke-width:0px;" /><circle id="SPH02242" cx="618.63" cy="592.32" r="9.2" style="fill:#ccc; stroke-width:0px;" /><circle id="SPH02243" cx="630.03" cy="613.3" r="9.2" style="fill:#ccc; stroke-width:0px;" /><circle id="SPH02244" cx="641.42" cy="634.27" r="9.2" style="fill:#ccc; stroke-width:0px;" /><circle id="SPH02245" cx="652.81" cy="655.24" r="9.2" style="fill:#ccc; stroke-width:0px;" /><circle id="SPH02246" cx="664.2" cy="676.22" r="9.2" style="fill:#ccc; stroke-width:0px;" /><circle id="SPH02247" cx="675.59" cy="697.18" r="9.2" style="fill:#ccc; stroke-width:0px;" /><circle id="SPH02248" cx="686.98" cy="718.15" r="9.2" style="fill:#ccc; stroke-width:0px;" /><circle id="SPH02249" cx="697.83" cy="739.39" r="9.2" style="fill:#ccc; stroke-width:0px;" /><circle id="SPH02250" cx="708.31" cy="760.84" r="9.2" style="fill:#ccc; stroke-width:0px;" /><circle id="SPH02251" cx="718.79" cy="782.3" r="9.2" style="fill:#ccc; stroke-width:0px;" /><circle id="SPH02252" cx="729.27" cy="803.75" r="9.2" style="fill:#ccc; stroke-width:0px;" /><circle id="SPH02253" cx="739.75" cy="825.21" r="9.2" style="fill:#ccc; stroke-width:0px;" /><circle id="SPH02254" cx="750.23" cy="846.66" r="9.2" style="fill:#ccc; stroke-width:0px;" /><circle id="SPH02255" cx="760.71" cy="868.12" r="9.2" style="fill:#ccc; stroke-width:0px;" /><circle id="SPH02256" cx="771.18" cy="889.57" r="9.2" style="fill:#ccc; stroke-width:0px;" /><circle id="SPH02257" cx="781.23" cy="911.21" r="9.2" style="fill:#ccc; stroke-width:0px;" /><circle id="SPH02258" cx="790.76" cy="933.09" r="9.2" style="fill:#ccc; stroke-width:0px;" /><circle id="SPH02259" cx="800.29" cy="954.95" r="9.2" style="fill:#ccc; stroke-width:0px;" /><circle id="SPH02260" cx="809.82" cy="976.83" r="9.2" style="fill:#ccc; stroke-width:0px;" /><circle id="SPH02261" cx="819.35" cy="998.7" r="9.2" style="fill:#ccc; stroke-width:0px;" /><circle id="SPH02262" cx="828.88" cy="1020.56" r="9.2" style="fill:#ccc; stroke-width:0px;" /><circle id="SPH02263" cx="838.41" cy="1042.43" r="9.2" style="fill:#ccc; stroke-width:0px;" /><circle id="SPH02264" cx="606.18" cy="491.28" r="9.2" style="fill:#ccc; stroke-width:0px;" /><circle id="SPH02265" cx="618.54" cy="511.86" r="9.2" style="fill:#ccc; stroke-width:0px;" /><circle id="SPH02266" cx="630.89" cy="532.43" r="9.2" style="fill:#ccc; stroke-width:0px;" /><circle id="SPH02267" cx="642.56" cy="553.4" r="9.2" style="fill:#ccc; stroke-width:0px;" /><circle id="SPH02268" cx="654.02" cy="574.5" r="9.2" style="fill:#ccc; stroke-width:0px;" /><circle id="SPH02269" cx="665.47" cy="595.59" r="9.2" style="fill:#ccc; stroke-width:0px;" /><circle id="SPH02270" cx="676.92" cy="616.67" r="9.2" style="fill:#ccc; stroke-width:0px;" /><circle id="SPH02271" cx="688.39" cy="637.77" r="9.2" style="fill:#ccc; stroke-width:0px;" /><circle id="SPH02272" cx="699.84" cy="658.87" r="9.2" style="fill:#ccc; stroke-width:0px;" /><circle id="SPH02273" cx="711.29" cy="679.95" r="9.2" style="fill:#ccc; stroke-width:0px;" /><circle id="SPH02274" cx="722.75" cy="701.04" r="9.2" style="fill:#ccc; stroke-width:0px;" /><circle id="SPH02275" cx="733.62" cy="722.43" r="9.2" style="fill:#ccc; stroke-width:0px;" /><circle id="SPH02276" cx="744.15" cy="743.99" r="9.2" style="fill:#ccc; stroke-width:0px;" /><circle id="SPH02277" cx="754.67" cy="765.55" r="9.2" style="fill:#ccc; stroke-width:0px;" /><circle id="SPH02278" cx="765.2" cy="787.09" r="9.2" style="fill:#ccc; stroke-width:0px;" /><circle id="SPH02279" cx="775.72" cy="808.64" r="9.2" style="fill:#ccc; stroke-width:0px;" /><circle id="SPH02280" cx="786.25" cy="830.19" r="9.2" style="fill:#ccc; stroke-width:0px;" /><circle id="SPH02281" cx="796.78" cy="851.75" r="9.2" style="fill:#ccc; stroke-width:0px;" /><circle id="SPH02282" cx="807.31" cy="873.31" r="9.2" style="fill:#ccc; stroke-width:0px;" /><circle id="SPH02283" cx="817.39" cy="895.08" r="9.2" style="fill:#ccc; stroke-width:0px;" /><circle id="SPH02284" cx="826.99" cy="917.09" r="9.2" style="fill:#ccc; stroke-width:0px;" /><circle id="SPH02285" cx="836.58" cy="939.09" r="9.2" style="fill:#ccc; stroke-width:0px;" /><circle id="SPH02286" cx="846.17" cy="961.11" r="9.2" style="fill:#ccc; stroke-width:0px;" /><circle id="SPH02287" cx="855.76" cy="983.12" r="9.2" style="fill:#ccc; stroke-width:0px;" /><circle id="SPH02288" cx="865.35" cy="1005.14" r="9.2" style="fill:#ccc; stroke-width:0px;" /><circle id="SPH02289" cx="874.95" cy="1027.16" r="9.2" style="fill:#ccc; stroke-width:0px;" /><circle id="SPH02290" cx="667.86" cy="517.07" r="9.2" style="fill:#ccc; stroke-width:0px;" /><circle id="SPH02291" cx="679.33" cy="538.14" r="9.2" style="fill:#ccc; stroke-width:0px;" /><circle id="SPH02292" cx="690.79" cy="559.23" r="9.2" style="fill:#ccc; stroke-width:0px;" /><circle id="SPH02293" cx="702.24" cy="580.33" r="9.2" style="fill:#ccc; stroke-width:0px;" /><circle id="SPH02294" cx="713.71" cy="601.42" r="9.2" style="fill:#ccc; stroke-width:0px;" /><circle id="SPH02295" cx="725.15" cy="622.51" r="9.2" style="fill:#ccc; stroke-width:0px;" /><circle id="SPH02296" cx="736.61" cy="643.59" r="9.2" style="fill:#ccc; stroke-width:0px;" /><circle id="SPH02297" cx="748.07" cy="664.69" r="9.2" style="fill:#ccc; stroke-width:0px;" /><circle id="SPH02298" cx="759.52" cy="685.78" r="9.2" style="fill:#ccc; stroke-width:0px;" /><circle id="SPH02299" cx="770.27" cy="707.24" r="9.2" style="fill:#ccc; stroke-width:0px;" /><circle id="SPH02300" cx="780.8" cy="728.79" r="9.2" style="fill:#ccc; stroke-width:0px;" /><circle id="SPH02301" cx="791.33" cy="750.35" r="9.2" style="fill:#ccc; stroke-width:0px;" /><circle id="SPH02302" cx="801.86" cy="771.91" r="9.2" style="fill:#ccc; stroke-width:0px;" /><circle id="SPH02303" cx="812.39" cy="793.47" r="9.2" style="fill:#ccc; stroke-width:0px;" /><circle id="SPH02304" cx="822.91" cy="815.03" r="9.2" style="fill:#ccc; stroke-width:0px;" /><circle id="SPH02305" cx="833.44" cy="836.59" r="9.2" style="fill:#ccc; stroke-width:0px;" /><circle id="SPH02306" cx="843.97" cy="858.14" r="9.2" style="fill:#ccc; stroke-width:0px;" /><circle id="SPH02307" cx="853.99" cy="879.94" r="9.2" style="fill:#ccc; stroke-width:0px;" /><circle id="SPH02308" cx="863.58" cy="901.93" r="9.2" style="fill:#ccc; stroke-width:0px;" /><circle id="SPH02309" cx="873.15" cy="923.91" r="9.2" style="fill:#ccc; stroke-width:0px;" /><circle id="SPH02310" cx="882.74" cy="945.91" r="9.2" style="fill:#ccc; stroke-width:0px;" /><circle id="SPH02311" cx="892.32" cy="967.91" r="9.2" style="fill:#ccc; stroke-width:0px;" /><circle id="SPH02312" cx="901.91" cy="989.91" r="9.2" style="fill:#ccc; stroke-width:0px;" /><circle id="SPH02313" cx="911.51" cy="1011.92" r="9.2" style="fill:#ccc; stroke-width:0px;" /><circle id="SPH02314" cx="727.57" cy="543.99" r="9.2" style="fill:#ccc; stroke-width:0px;" /><circle id="SPH02315" cx="739.02" cy="565.07" r="9.2" style="fill:#ccc; stroke-width:0px;" /><circle id="SPH02316" cx="750.47" cy="586.16" r="9.2" style="fill:#ccc; stroke-width:0px;" /><circle id="SPH02317" cx="761.93" cy="607.24" r="9.2" style="fill:#ccc; stroke-width:0px;" /><circle id="SPH02318" cx="773.39" cy="628.34" r="9.2" style="fill:#ccc; stroke-width:0px;" /><circle id="SPH02319" cx="784.84" cy="649.43" r="9.2" style="fill:#ccc; stroke-width:0px;" /><circle id="SPH02320" cx="796.3" cy="670.52" r="9.2" style="fill:#ccc; stroke-width:0px;" /><circle id="SPH02321" cx="806.91" cy="692.03" r="9.2" style="fill:#ccc; stroke-width:0px;" /><circle id="SPH02322" cx="817.46" cy="713.62" r="9.2" style="fill:#ccc; stroke-width:0px;" /><circle id="SPH02323" cx="828" cy="735.2" r="9.2" style="fill:#ccc; stroke-width:0px;" /><circle id="SPH02324" cx="838.54" cy="756.79" r="9.2" style="fill:#ccc; stroke-width:0px;" /><circle id="SPH02325" cx="849.08" cy="778.37" r="9.2" style="fill:#ccc; stroke-width:0px;" /><circle id="SPH02326" cx="859.63" cy="799.96" r="9.2" style="fill:#ccc; stroke-width:0px;" /><circle id="SPH02327" cx="870.16" cy="821.55" r="9.2" style="fill:#ccc; stroke-width:0px;" /><circle id="SPH02328" cx="880.71" cy="843.13" r="9.2" style="fill:#ccc; stroke-width:0px;" /><circle id="SPH02329" cx="890.67" cy="864.97" r="9.2" style="fill:#ccc; stroke-width:0px;" /><circle id="SPH02330" cx="900.26" cy="886.97" r="9.2" style="fill:#ccc; stroke-width:0px;" /><circle id="SPH02331" cx="909.84" cy="908.98" r="9.2" style="fill:#ccc; stroke-width:0px;" /><circle id="SPH02332" cx="919.43" cy="930.98" r="9.2" style="fill:#ccc; stroke-width:0px;" /><circle id="SPH02333" cx="929.02" cy="952.98" r="9.2" style="fill:#ccc; stroke-width:0px;" /><circle id="SPH02334" cx="938.6" cy="974.98" r="9.2" style="fill:#ccc; stroke-width:0px;" /><circle id="SPH02335" cx="948.19" cy="996.99" r="9.2" style="fill:#ccc; stroke-width:0px;" /><circle id="SPH02336" cx="787.27" cy="570.92" r="9.2" style="fill:#ccc; stroke-width:0px;" /><circle id="SPH02337" cx="798.72" cy="592.02" r="9.2" style="fill:#ccc; stroke-width:0px;" /><circle id="SPH02338" cx="810.18" cy="613.11" r="9.2" style="fill:#ccc; stroke-width:0px;" /><circle id="SPH02339" cx="821.64" cy="634.21" r="9.2" style="fill:#ccc; stroke-width:0px;" /><circle id="SPH02340" cx="833.06" cy="655.32" r="9.2" style="fill:#ccc; stroke-width:0px;" /><circle id="SPH02341" cx="843.59" cy="676.89" r="9.2" style="fill:#ccc; stroke-width:0px;" /><circle id="SPH02342" cx="854.12" cy="698.45" r="9.2" style="fill:#ccc; stroke-width:0px;" /><circle id="SPH02343" cx="864.66" cy="720.02" r="9.2" style="fill:#ccc; stroke-width:0px;" /><circle id="SPH02344" cx="875.18" cy="741.57" r="9.2" style="fill:#ccc; stroke-width:0px;" /><circle id="SPH02345" cx="885.7" cy="763.11" r="9.2" style="fill:#ccc; stroke-width:0px;" /><circle id="SPH02346" cx="896.22" cy="784.64" r="9.2" style="fill:#ccc; stroke-width:0px;" /><circle id="SPH02347" cx="906.74" cy="806.19" r="9.2" style="fill:#ccc; stroke-width:0px;" /><circle id="SPH02348" cx="917.26" cy="827.74" r="9.2" style="fill:#ccc; stroke-width:0px;" /><circle id="SPH02349" cx="927.16" cy="849.59" r="9.2" style="fill:#ccc; stroke-width:0px;" /><circle id="SPH02350" cx="936.76" cy="871.62" r="9.2" style="fill:#ccc; stroke-width:0px;" /><circle id="SPH02351" cx="946.35" cy="893.63" r="9.2" style="fill:#ccc; stroke-width:0px;" /><circle id="SPH02352" cx="955.94" cy="915.63" r="9.2" style="fill:#ccc; stroke-width:0px;" /><circle id="SPH02353" cx="965.53" cy="937.65" r="9.2" style="fill:#ccc; stroke-width:0px;" /><circle id="SPH02354" cx="975.12" cy="959.66" r="9.2" style="fill:#ccc; stroke-width:0px;" /><circle id="SPH02355" cx="984.71" cy="981.67" r="9.2" style="fill:#ccc; stroke-width:0px;" /><circle id="SPH02356" cx="858.4" cy="618.93" r="9.2" style="fill:#ccc; stroke-width:0px;" /><circle id="SPH02357" cx="869.7" cy="640.11" r="9.2" style="fill:#ccc; stroke-width:0px;" /><circle id="SPH02358" cx="880.23" cy="661.68" r="9.2" style="fill:#ccc; stroke-width:0px;" /><circle id="SPH02359" cx="890.77" cy="683.25" r="9.2" style="fill:#ccc; stroke-width:0px;" /><circle id="SPH02360" cx="901.3" cy="704.82" r="9.2" style="fill:#ccc; stroke-width:0px;" /><circle id="SPH02361" cx="911.83" cy="726.39" r="9.2" style="fill:#ccc; stroke-width:0px;" /><circle id="SPH02362" cx="922.37" cy="747.95" r="9.2" style="fill:#ccc; stroke-width:0px;" /><circle id="SPH02363" cx="932.9" cy="769.51" r="9.2" style="fill:#ccc; stroke-width:0px;" /><circle id="SPH02364" cx="943.42" cy="791.07" r="9.2" style="fill:#ccc; stroke-width:0px;" /><circle id="SPH02365" cx="953.95" cy="812.62" r="9.2" style="fill:#ccc; stroke-width:0px;" /><circle id="SPH02366" cx="963.79" cy="834.52" r="9.2" style="fill:#ccc; stroke-width:0px;" /><circle id="SPH02367" cx="973.38" cy="856.53" r="9.2" style="fill:#ccc; stroke-width:0px;" /><circle id="SPH02368" cx="982.97" cy="878.54" r="9.2" style="fill:#ccc; stroke-width:0px;" /><circle id="SPH02369" cx="992.56" cy="900.55" r="9.2" style="fill:#ccc; stroke-width:0px;" /><circle id="SPH02370" cx="1002.15" cy="922.56" r="9.2" style="fill:#ccc; stroke-width:0px;" /><circle id="SPH02371" cx="1011.75" cy="944.58" r="9.2" style="fill:#ccc; stroke-width:0px;" /><circle id="SPH02372" cx="1021.34" cy="966.58" r="9.2" style="fill:#ccc; stroke-width:0px;" /><circle id="SPH02373" cx="916.89" cy="646.5" r="9.2" style="fill:#ccc; stroke-width:0px;" /><circle id="SPH02374" cx="927.42" cy="668.06" r="9.2" style="fill:#ccc; stroke-width:0px;" /><circle id="SPH02375" cx="937.95" cy="689.63" r="9.2" style="fill:#ccc; stroke-width:0px;" /><circle id="SPH02376" cx="948.48" cy="711.19" r="9.2" style="fill:#ccc; stroke-width:0px;" /><circle id="SPH02377" cx="959.01" cy="732.75" r="9.2" style="fill:#ccc; stroke-width:0px;" /><circle id="SPH02378" cx="969.54" cy="754.31" r="9.2" style="fill:#ccc; stroke-width:0px;" /><circle id="SPH02379" cx="980.07" cy="775.87" r="9.2" style="fill:#ccc; stroke-width:0px;" /><circle id="SPH02380" cx="990.6" cy="797.43" r="9.2" style="fill:#ccc; stroke-width:0px;" /><circle id="SPH02381" cx="1000.38" cy="819.36" r="9.2" style="fill:#ccc; stroke-width:0px;" /><circle id="SPH02382" cx="1009.97" cy="841.36" r="9.2" style="fill:#ccc; stroke-width:0px;" /><circle id="SPH02383" cx="1019.56" cy="863.37" r="9.2" style="fill:#ccc; stroke-width:0px;" /><circle id="SPH02384" cx="1029.15" cy="885.38" r="9.2" transform="translate(-9.65 1759.42) rotate(-80.78)" style="fill:#ccc; stroke-width:0px;" /><circle id="SPH02385" cx="1038.74" cy="907.38" r="9.2" style="fill:#ccc; stroke-width:0px;" /><circle id="SPH02386" cx="1048.32" cy="929.39" r="9.2" style="fill:#ccc; stroke-width:0px;" /><circle id="SPH02387" cx="1057.91" cy="951.39" r="9.2" style="fill:#ccc; stroke-width:0px;" /><circle id="SPH02388" cx="943.01" cy="609.74" r="9.2" style="fill:#ccc; stroke-width:0px;" /><circle id="SPH02389" cx="953.54" cy="631.31" r="9.2" style="fill:#ccc; stroke-width:0px;" /><circle id="SPH02390" cx="964.07" cy="652.87" r="9.2" style="fill:#ccc; stroke-width:0px;" /><circle id="SPH02391" cx="974.6" cy="674.43" r="9.2" style="fill:#ccc; stroke-width:0px;" /><circle id="SPH02392" cx="985.13" cy="695.99" r="9.2" style="fill:#ccc; stroke-width:0px;" /><circle id="SPH02393" cx="995.66" cy="717.55" r="9.2" style="fill:#ccc; stroke-width:0px;" /><circle id="SPH02394" cx="1006.19" cy="739.11" r="9.2" style="fill:#ccc; stroke-width:0px;" /><circle id="SPH02395" cx="1016.72" cy="760.68" r="9.2" transform="translate(103 1642.42) rotate(-80.78)" style="fill:#ccc; stroke-width:0px;" /><circle id="SPH02396" cx="1027.25" cy="782.24" r="9.2" transform="translate(90.56 1670.92) rotate(-80.78)" style="fill:#ccc; stroke-width:0px;" /><circle id="SPH02397" cx="1036.96" cy="804.19" r="9.2" style="fill:#ccc; stroke-width:0px;" /><circle id="SPH02398" cx="1046.55" cy="826.19" r="9.2" style="fill:#ccc; stroke-width:0px;" /><circle id="SPH02399" cx="1056.14" cy="848.19" r="9.2" style="fill:#ccc; stroke-width:0px;" /><circle id="SPH02400" cx="1065.72" cy="870.19" r="9.2" style="fill:#ccc; stroke-width:0px;" /><circle id="SPH02401" cx="1075.31" cy="892.19" r="9.2" style="fill:#ccc; stroke-width:0px;" /><circle id="SPH02402" cx="1084.9" cy="914.19" r="9.2" style="fill:#ccc; stroke-width:0px;" /><circle id="SPH02403" cx="1094.48" cy="936.19" r="9.2" style="fill:#ccc; stroke-width:0px;" /></g></svg>