<svg id="Layer_1" viewBox="0 0 1697.6 1405.17" xmlns="http://www.w3.org/2000/svg"><g id="back"><g id="back-2"><path id="sphere" d="M3462.27,667.49c0-1528.34-1241.46-2769.81-2769.81-2769.81S-2077.35-860.85-2077.35,667.49-835.89,3437.3,692.46,3437.3h0c1528.34,0,2769.81-1241.46,2769.81-2769.81Z" style="fill:#f2f2f2; stroke:#ddd; stroke-miterlimit:10; stroke-width:3px;" /><path d="M-1644.16,666.16c0,655.33,307.79,1239.54,786.53,1615.79,66.08,51.94,160.31,48.05,221.66-9.39C-206.91,1870.85,61.44,1299.51,61.44,666.16S-206.91-538.53-635.97-940.24c-61.36-57.44-155.58-61.33-221.66-9.39C-1336.37-573.38-1644.16,10.83-1644.16,666.16h0Z" style="fill:#e5e5e5; stroke:#ddd; stroke-miterlimit:10; stroke-width:3px;" /></g><g id="sectors"><path id="_204" d="M941.56,2082.84c-38.71-16.04-433.14-179.42-591.65-245.07,61.78-145.78,112.02-296.48,150.13-450.7,207.57,49.83,415.13,99.66,622.7,149.5-30.57,124.33-67.81,247.45-111.69,368.81h0c-21.66,59.88-44.83,119.05-69.49,177.46h0Z" style="fill:#fff; stroke:#ddd; stroke-miterlimit:10; stroke-width:9px;" /><path id="_205" d="M500.04,1387.07c207.57,49.83,415.15,99.67,622.72,149.5,50.62-205.84,82.98-415.04,97.07-625.17-54.3-4.27-479.96-37.77-638.47-50.25-8.94,138.44-27.51,276.4-55.69,412.89h0c-7.82,37.87-16.36,75.56-25.62,113.03h0Z" style="fill:#fff; stroke:#ddd; stroke-miterlimit:10; stroke-width:9px;" /><path id="_206" d="M1086.82,434.42c-158.53,12.48-346.93,27.23-505.44,39.7,8.33,128.88,8.33,258.16-.02,387.04,158.51,12.48,479.94,37.76,638.47,50.24,11.37-196.11,8.26-257.68-.71-487.53l-132.3,10.55h0Z" style="fill:#fff; stroke:#ddd; stroke-miterlimit:10; stroke-width:9px;" /><path id="_207" d="M581.38,474.12c158.51-12.47,583.44-45.97,637.74-50.25-14.1-210.13-45.74-419.33-96.35-625.18-207.57,49.83-415.14,99.67-622.7,149.5,9.25,37.46,17.8,75.12,25.61,112.97h0c28.19,136.51,46.76,274.5,55.71,412.95h-.01Z" style="fill:#fff; stroke:#ddd; stroke-miterlimit:10; stroke-width:9px;" /><path id="_305" d="M2093.63,1668.43c-202.56-48.63-405.12-97.26-607.66-145.88,32.38-138.24,56.9-278.33,73.41-419.58,6.5-55.69,11.76-111.48,15.76-167.35,207.66,16.34,415.33,32.69,623.01,49.03-10.51,144.74-28.24,289.08-53.18,432.48h0c-14.63,84.13-31.74,167.93-51.34,251.3h0Z" style="fill:#fff; stroke:#ddd; stroke-miterlimit:10; stroke-width:9px;" /><path id="_306" d="M2198.14,984.66c-207.68-16.34-415.35-32.69-623.01-49.03,12.79-178.43,12.79-357.55,0-535.97,207.67-16.35,415.35-32.69,623.03-49.04,7.67,105.48,11.49,211.17,11.49,316.86h0c0,105.8-3.84,211.59-11.52,317.17h0Z" style="fill:#fff; stroke:#ddd; stroke-miterlimit:10; stroke-width:9px;" /><path id="_307" d="M2198.17,350.62c-207.68,16.35-415.36,32.69-623.03,49.04-3.99-55.87-9.25-111.67-15.76-167.35-16.51-141.27-41.03-281.35-73.41-419.58,202.57-48.63,405.14-97.27,607.72-145.9,19.57,83.27,36.66,166.98,51.27,251h0c24.96,143.5,42.69,287.95,53.2,432.79h.01Z" style="fill:#fff; stroke:#ddd; stroke-miterlimit:10; stroke-width:9px;" /></g></g><g id="Seats"><circle id="SPH03753" cx="780.35" cy="502.57" r="9.2" style="fill:#ccc; stroke-width:0px;" /><circle id="SPH03754" cx="781.89" cy="526.2" r="9.2" style="fill:#ccc; stroke-width:0px;" /><circle id="SPH03755" cx="782.58" cy="549.86" r="9.2" style="fill:#ccc; stroke-width:0px;" /><circle id="SPH03756" cx="783.09" cy="573.52" r="9.2" style="fill:#ccc; stroke-width:0px;" /><circle id="SPH03757" cx="783.59" cy="597.19" r="9.2" style="fill:#ccc; stroke-width:0px;" /><circle id="SPH03758" cx="784.1" cy="620.85" r="9.2" style="fill:#ccc; stroke-width:0px;" /><circle id="SPH03759" cx="784.62" cy="644.52" r="9.2" style="fill:#ccc; stroke-width:0px;" /><circle id="SPH03760" cx="785.12" cy="668.21" r="9.2" style="fill:#ccc; stroke-width:0px;" /><circle id="SPH03761" cx="784.61" cy="691.89" r="9.2" style="fill:#ccc; stroke-width:0px;" /><circle id="SPH03762" cx="784.1" cy="715.57" r="9.2" style="fill:#ccc; stroke-width:0px;" /><circle id="SPH03763" cx="783.58" cy="739.22" r="9.2" style="fill:#ccc; stroke-width:0px;" /><circle id="SPH03764" cx="783.08" cy="762.88" r="9.2" style="fill:#ccc; stroke-width:0px;" /><circle id="SPH03765" cx="782.57" cy="786.5" r="9.2" style="fill:#ccc; stroke-width:0px;" /><circle id="SPH03766" cx="781.87" cy="810.12" r="9.2" style="fill:#ccc; stroke-width:0px;" /><circle id="SPH03767" cx="780.34" cy="833.72" r="9.2" style="fill:#ccc; stroke-width:0px;" /><circle id="SPH03768" cx="819.84" cy="499.46" r="9.2" style="fill:#ccc; stroke-width:0px;" /><circle id="SPH03769" cx="821.3" cy="521.92" r="9.2" style="fill:#ccc; stroke-width:0px;" /><circle id="SPH03770" cx="822.06" cy="544.42" r="9.2" style="fill:#ccc; stroke-width:0px;" /><circle id="SPH03771" cx="822.55" cy="566.93" r="9.2" style="fill:#ccc; stroke-width:0px;" /><circle id="SPH03772" cx="823.04" cy="589.43" r="9.2" style="fill:#ccc; stroke-width:0px;" /><circle id="SPH03773" cx="823.52" cy="611.92" r="9.2" style="fill:#ccc; stroke-width:0px;" /><circle id="SPH03774" cx="824.01" cy="634.44" r="9.2" style="fill:#ccc; stroke-width:0px;" /><circle id="SPH03775" cx="824.5" cy="656.95" r="9.2" style="fill:#ccc; stroke-width:0px;" /><circle id="SPH03776" cx="824.49" cy="679.46" r="9.2" style="fill:#ccc; stroke-width:0px;" /><circle id="SPH03777" cx="824" cy="701.97" r="9.2" style="fill:#ccc; stroke-width:0px;" /><circle id="SPH03778" cx="823.51" cy="724.49" r="9.2" style="fill:#ccc; stroke-width:0px;" /><circle id="SPH03779" cx="823.03" cy="746.98" r="9.2" style="fill:#ccc; stroke-width:0px;" /><circle id="SPH03780" cx="822.54" cy="769.46" r="9.2" style="fill:#ccc; stroke-width:0px;" /><circle id="SPH03781" cx="822.06" cy="791.92" r="9.2" style="fill:#ccc; stroke-width:0px;" /><circle id="SPH03782" cx="821.28" cy="814.4" r="9.2" style="fill:#ccc; stroke-width:0px;" /><circle id="SPH03783" cx="819.82" cy="836.85" r="9.2" style="fill:#ccc; stroke-width:0px;" /><circle id="SPH03784" cx="859.32" cy="496.35" r="9.2" style="fill:#ccc; stroke-width:0px;" /><circle id="SPH03785" cx="860.8" cy="519.24" r="9.2" style="fill:#ccc; stroke-width:0px;" /><circle id="SPH03786" cx="861.62" cy="542.14" r="9.2" style="fill:#ccc; stroke-width:0px;" /><circle id="SPH03787" cx="862.12" cy="565.06" r="9.2" style="fill:#ccc; stroke-width:0px;" /><circle id="SPH03788" cx="862.62" cy="587.98" r="9.2" style="fill:#ccc; stroke-width:0px;" /><circle id="SPH03789" cx="863.11" cy="610.89" r="9.2" style="fill:#ccc; stroke-width:0px;" /><circle id="SPH03790" cx="863.6" cy="633.81" r="9.2" style="fill:#ccc; stroke-width:0px;" /><circle id="SPH03791" cx="864.1" cy="656.71" r="9.2" style="fill:#ccc; stroke-width:0px;" /><circle id="SPH03792" cx="864.09" cy="679.62" r="9.2" style="fill:#ccc; stroke-width:0px;" /><circle id="SPH03793" cx="863.59" cy="702.52" r="9.2" style="fill:#ccc; stroke-width:0px;" /><circle id="SPH03794" cx="863.1" cy="725.44" r="9.2" style="fill:#ccc; stroke-width:0px;" /><circle id="SPH03795" cx="862.61" cy="748.34" r="9.2" style="fill:#ccc; stroke-width:0px;" /><circle id="SPH03796" cx="862.11" cy="771.23" r="9.2" style="fill:#ccc; stroke-width:0px;" /><circle id="SPH03797" cx="861.62" cy="794.12" r="9.2" style="fill:#ccc; stroke-width:0px;" /><circle id="SPH03798" cx="860.79" cy="817.01" r="9.2" style="fill:#ccc; stroke-width:0px;" /><circle id="SPH03799" cx="859.3" cy="839.86" r="9.2" style="fill:#ccc; stroke-width:0px;" /><circle id="SPH03800" cx="898.8" cy="493.25" r="9.2" style="fill:#ccc; stroke-width:0px;" /><circle id="SPH03801" cx="900.31" cy="516.54" r="9.2" style="fill:#ccc; stroke-width:0px;" /><circle id="SPH03802" cx="901.18" cy="539.87" r="9.2" style="fill:#ccc; stroke-width:0px;" /><circle id="SPH03803" cx="901.69" cy="563.2" r="9.2" style="fill:#ccc; stroke-width:0px;" /><circle id="SPH03804" cx="902.19" cy="586.53" r="9.2" style="fill:#ccc; stroke-width:0px;" /><circle id="SPH03805" cx="902.7" cy="609.86" r="9.2" style="fill:#ccc; stroke-width:0px;" /><circle id="SPH03806" cx="903.2" cy="633.18" r="9.2" style="fill:#ccc; stroke-width:0px;" /><circle id="SPH03807" cx="903.7" cy="656.49" r="9.2" style="fill:#ccc; stroke-width:0px;" /><circle id="SPH03808" cx="903.7" cy="679.79" r="9.2" style="fill:#ccc; stroke-width:0px;" /><circle id="SPH03809" cx="903.19" cy="703.09" r="9.2" style="fill:#ccc; stroke-width:0px;" /><circle id="SPH03810" cx="902.69" cy="726.41" r="9.2" style="fill:#ccc; stroke-width:0px;" /><circle id="SPH03811" cx="902.18" cy="749.72" r="9.2" style="fill:#ccc; stroke-width:0px;" /><circle id="SPH03812" cx="901.69" cy="773.05" r="9.2" style="fill:#ccc; stroke-width:0px;" /><circle id="SPH03813" cx="901.18" cy="796.37" r="9.2" style="fill:#ccc; stroke-width:0px;" /><circle id="SPH03814" cx="900.3" cy="819.69" r="9.2" style="fill:#ccc; stroke-width:0px;" /><circle id="SPH03815" cx="898.79" cy="842.96" r="9.2" style="fill:#ccc; stroke-width:0px;" /><circle id="SPH03816" cx="938.28" cy="490.14" r="9.2" style="fill:#ccc; stroke-width:0px;" /><circle id="SPH03817" cx="939.82" cy="513.85" r="9.2" style="fill:#ccc; stroke-width:0px;" /><circle id="SPH03818" cx="940.74" cy="537.59" r="9.2" style="fill:#ccc; stroke-width:0px;" /><circle id="SPH03819" cx="941.26" cy="561.33" r="9.2" style="fill:#ccc; stroke-width:0px;" /><circle id="SPH03820" cx="941.77" cy="585.09" r="9.2" style="fill:#ccc; stroke-width:0px;" /><circle id="SPH03821" cx="942.28" cy="608.82" r="9.2" style="fill:#ccc; stroke-width:0px;" /><circle id="SPH03822" cx="942.79" cy="632.57" r="9.2" style="fill:#ccc; stroke-width:0px;" /><circle id="SPH03823" cx="943.3" cy="656.33" r="9.2" style="fill:#ccc; stroke-width:0px;" /><circle id="SPH03824" cx="943.3" cy="680.11" r="9.2" style="fill:#ccc; stroke-width:0px;" /><circle id="SPH03825" cx="942.78" cy="703.87" r="9.2" style="fill:#ccc; stroke-width:0px;" /><circle id="SPH03826" cx="942.27" cy="727.62" r="9.2" style="fill:#ccc; stroke-width:0px;" /><circle id="SPH03827" cx="941.76" cy="751.36" r="9.2" style="fill:#ccc; stroke-width:0px;" /><circle id="SPH03828" cx="941.25" cy="775.11" r="9.2" style="fill:#ccc; stroke-width:0px;" /><circle id="SPH03829" cx="940.74" cy="798.86" r="9.2" style="fill:#ccc; stroke-width:0px;" /><circle id="SPH03830" cx="939.79" cy="822.59" r="9.2" style="fill:#ccc; stroke-width:0px;" /><circle id="SPH03831" cx="938.26" cy="846.27" r="9.2" style="fill:#ccc; stroke-width:0px;" /><circle id="SPH03832" cx="977.76" cy="487.03" r="9.2" style="fill:#ccc; stroke-width:0px;" /><circle id="SPH03833" cx="979.33" cy="511.15" r="9.2" style="fill:#ccc; stroke-width:0px;" /><circle id="SPH03834" cx="980.3" cy="535.29" r="9.2" style="fill:#ccc; stroke-width:0px;" /><circle id="SPH03835" cx="980.82" cy="559.46" r="9.2" style="fill:#ccc; stroke-width:0px;" /><circle id="SPH03836" cx="981.34" cy="583.62" r="9.2" style="fill:#ccc; stroke-width:0px;" /><circle id="SPH03837" cx="981.86" cy="607.78" r="9.2" style="fill:#ccc; stroke-width:0px;" /><circle id="SPH03838" cx="982.39" cy="631.95" r="9.2" style="fill:#ccc; stroke-width:0px;" /><circle id="SPH03839" cx="982.91" cy="656.12" r="9.2" style="fill:#ccc; stroke-width:0px;" /><circle id="SPH03840" cx="982.9" cy="680.29" r="9.2" style="fill:#ccc; stroke-width:0px;" /><circle id="SPH03841" cx="982.38" cy="704.45" r="9.2" style="fill:#ccc; stroke-width:0px;" /><circle id="SPH03842" cx="981.86" cy="728.61" r="9.2" style="fill:#ccc; stroke-width:0px;" /><circle id="SPH03843" cx="981.34" cy="752.77" r="9.2" style="fill:#ccc; stroke-width:0px;" /><circle id="SPH03844" cx="980.82" cy="776.93" r="9.2" style="fill:#ccc; stroke-width:0px;" /><circle id="SPH03845" cx="980.3" cy="801.1" r="9.2" style="fill:#ccc; stroke-width:0px;" /><circle id="SPH03846" cx="979.3" cy="825.24" r="9.2" style="fill:#ccc; stroke-width:0px;" /><circle id="SPH03847" cx="977.74" cy="849.33" r="9.2" style="fill:#ccc; stroke-width:0px;" /><circle id="SPH03848" cx="622.43" cy="515" r="9.2" style="fill:#ccc; stroke-width:0px;" /><circle id="SPH03849" cx="623.9" cy="538.53" r="9.2" style="fill:#ccc; stroke-width:0px;" /><circle id="SPH03850" cx="624.4" cy="562.11" r="9.2" style="fill:#ccc; stroke-width:0px;" /><circle id="SPH03851" cx="624.91" cy="585.68" r="9.2" style="fill:#ccc; stroke-width:0px;" /><circle id="SPH03852" cx="625.42" cy="609.25" r="9.2" style="fill:#ccc; stroke-width:0px;" /><circle id="SPH03853" cx="625.93" cy="632.81" r="9.2" style="fill:#ccc; stroke-width:0px;" /><circle id="SPH03854" cx="626.43" cy="656.38" r="9.2" style="fill:#ccc; stroke-width:0px;" /><circle id="SPH03855" cx="626.43" cy="679.97" r="9.2" style="fill:#ccc; stroke-width:0px;" /><circle id="SPH03856" cx="625.92" cy="703.55" r="9.2" style="fill:#ccc; stroke-width:0px;" /><circle id="SPH03857" cx="625.42" cy="727.11" r="9.2" style="fill:#ccc; stroke-width:0px;" /><circle id="SPH03858" cx="624.9" cy="750.67" r="9.2" style="fill:#ccc; stroke-width:0px;" /><circle id="SPH03859" cx="624.39" cy="774.22" r="9.2" style="fill:#ccc; stroke-width:0px;" /><circle id="SPH03860" cx="623.89" cy="797.8" r="9.2" style="fill:#ccc; stroke-width:0px;" /><circle id="SPH03861" cx="622.42" cy="821.31" r="9.2" style="fill:#ccc; stroke-width:0px;" /><circle id="SPH03862" cx="661.91" cy="511.89" r="9.2" style="fill:#ccc; stroke-width:0px;" /><circle id="SPH03863" cx="663.36" cy="534.18" r="9.2" style="fill:#ccc; stroke-width:0px;" /><circle id="SPH03864" cx="663.89" cy="556.52" r="9.2" style="fill:#ccc; stroke-width:0px;" /><circle id="SPH03865" cx="664.38" cy="578.85" r="9.2" style="fill:#ccc; stroke-width:0px;" /><circle id="SPH03866" cx="664.86" cy="601.18" r="9.2" style="fill:#ccc; stroke-width:0px;" /><circle id="SPH03867" cx="665.34" cy="623.51" r="9.2" style="fill:#ccc; stroke-width:0px;" /><circle id="SPH03868" cx="665.82" cy="645.85" r="9.2" style="fill:#ccc; stroke-width:0px;" /><circle id="SPH03869" cx="666.29" cy="668.2" r="9.2" style="fill:#ccc; stroke-width:0px;" /><circle id="SPH03870" cx="665.81" cy="690.54" r="9.2" style="fill:#ccc; stroke-width:0px;" /><circle id="SPH03871" cx="665.33" cy="712.89" r="9.2" style="fill:#ccc; stroke-width:0px;" /><circle id="SPH03872" cx="664.85" cy="735.22" r="9.2" style="fill:#ccc; stroke-width:0px;" /><circle id="SPH03873" cx="664.37" cy="757.54" r="9.2" style="fill:#ccc; stroke-width:0px;" /><circle id="SPH03874" cx="663.88" cy="779.87" r="9.2" style="fill:#ccc; stroke-width:0px;" /><circle id="SPH03875" cx="663.34" cy="802.2" r="9.2" style="fill:#ccc; stroke-width:0px;" /><circle id="SPH03876" cx="661.89" cy="824.51" r="9.2" style="fill:#ccc; stroke-width:0px;" /><circle id="SPH03877" cx="701.39" cy="508.79" r="9.2" style="fill:#ccc; stroke-width:0px;" /><circle id="SPH03878" cx="702.86" cy="531.52" r="9.2" style="fill:#ccc; stroke-width:0px;" /><circle id="SPH03879" cx="703.45" cy="554.3" r="9.2" style="fill:#ccc; stroke-width:0px;" /><circle id="SPH03880" cx="703.94" cy="577.09" r="9.2" style="fill:#ccc; stroke-width:0px;" /><circle id="SPH03881" cx="704.43" cy="599.85" r="9.2" style="fill:#ccc; stroke-width:0px;" /><circle id="SPH03882" cx="704.93" cy="622.63" r="9.2" style="fill:#ccc; stroke-width:0px;" /><circle id="SPH03883" cx="705.42" cy="645.4" r="9.2" style="fill:#ccc; stroke-width:0px;" /><circle id="SPH03884" cx="705.9" cy="668.17" r="9.2" style="fill:#ccc; stroke-width:0px;" /><circle id="SPH03885" cx="705.41" cy="690.93" r="9.2" style="fill:#ccc; stroke-width:0px;" /><circle id="SPH03886" cx="704.92" cy="713.7" r="9.2" style="fill:#ccc; stroke-width:0px;" /><circle id="SPH03887" cx="704.43" cy="736.47" r="9.2" style="fill:#ccc; stroke-width:0px;" /><circle id="SPH03888" cx="703.94" cy="759.24" r="9.2" style="fill:#ccc; stroke-width:0px;" /><circle id="SPH03889" cx="703.45" cy="782.01" r="9.2" style="fill:#ccc; stroke-width:0px;" /><circle id="SPH03890" cx="702.85" cy="804.77" r="9.2" style="fill:#ccc; stroke-width:0px;" /><circle id="SPH03891" cx="701.38" cy="827.48" r="9.2" style="fill:#ccc; stroke-width:0px;" /><circle id="SPH03892" cx="1018.74" cy="483.97" r="9.2" style="fill:#ccc; stroke-width:0px;" /><circle id="SPH03893" cx="1020.38" cy="513.98" r="9.2" style="fill:#ccc; stroke-width:0px;" /><circle id="SPH03894" cx="1021.03" cy="544.02" r="9.2" style="fill:#ccc; stroke-width:0px;" /><circle id="SPH03895" cx="1021.67" cy="574.08" r="9.2" style="fill:#ccc; stroke-width:0px;" /><circle id="SPH03896" cx="1022.32" cy="604.12" r="9.2" style="fill:#ccc; stroke-width:0px;" /><circle id="SPH03897" cx="1022.97" cy="634.15" r="9.2" style="fill:#ccc; stroke-width:0px;" /><circle id="SPH03898" cx="740.87" cy="505.68" r="9.2" style="fill:#ccc; stroke-width:0px;" /><circle id="SPH03899" cx="742.38" cy="528.86" r="9.2" style="fill:#ccc; stroke-width:0px;" /><circle id="SPH03900" cx="743.02" cy="552.09" r="9.2" style="fill:#ccc; stroke-width:0px;" /><circle id="SPH03901" cx="743.51" cy="575.3" r="9.2" style="fill:#ccc; stroke-width:0px;" /><circle id="SPH03902" cx="744.02" cy="598.52" r="9.2" style="fill:#ccc; stroke-width:0px;" /><circle id="SPH03903" cx="744.51" cy="621.73" r="9.2" style="fill:#ccc; stroke-width:0px;" /><circle id="SPH03904" cx="745.02" cy="644.93" r="9.2" style="fill:#ccc; stroke-width:0px;" /><circle id="SPH03905" cx="745.51" cy="668.12" r="9.2" style="fill:#ccc; stroke-width:0px;" /><circle id="SPH03906" cx="745.01" cy="691.32" r="9.2" style="fill:#ccc; stroke-width:0px;" /><circle id="SPH03907" cx="744.51" cy="714.52" r="9.2" style="fill:#ccc; stroke-width:0px;" /><circle id="SPH03908" cx="744.01" cy="737.72" r="9.2" style="fill:#ccc; stroke-width:0px;" /><circle id="SPH03909" cx="743.51" cy="760.92" r="9.2" style="fill:#ccc; stroke-width:0px;" /><circle id="SPH03910" cx="743.01" cy="784.12" r="9.2" style="fill:#ccc; stroke-width:0px;" /><circle id="SPH03911" cx="742.37" cy="807.32" r="9.2" style="fill:#ccc; stroke-width:0px;" /><circle id="SPH03912" cx="740.86" cy="830.5" r="9.2" style="fill:#ccc; stroke-width:0px;" /></g></svg>