<svg id="Layer_1" viewBox="0 0 1697.6 1405.17" xmlns="http://www.w3.org/2000/svg"><g id="back"><g id="back-2"><path id="sphere" d="M2474.86,1306.4c0-1528.34-1241.46-2769.81-2769.81-2769.81S-3064.76-221.94-3064.76,1306.4-1823.3,4076.21-294.95,4076.21h0c1528.34,0,2769.81-1241.46,2769.81-2769.81Z" style="fill:#f2f2f2; stroke:#ddd; stroke-miterlimit:10; stroke-width:3px;" /></g><g id="sectors"><path id="_208" d="M135.37,437.61c-207.59,49.84-415.16,99.67-622.74,149.51-38.11-154.24-88.35-304.95-150.14-450.74C-479.01,70.73-84.54-92.66-45.81-108.7-21.17-50.32,1.99,8.82,23.65,68.66h0c43.9,121.41,81.15,244.57,111.73,368.96h-.01Z" style="fill:#fff; stroke:#ddd; stroke-miterlimit:10; stroke-width:9px;" /><path id="_206" d="M99.41,1073.33c-158.53,12.48-346.93,27.23-505.44,39.7,8.33,128.88,8.33,258.16-.02,387.04,158.51,12.48,479.94,37.76,638.47,50.24,11.37-196.11,8.26-257.68-.71-487.53l-132.3,10.55h0Z" style="fill:#fff; stroke:#ddd; stroke-miterlimit:10; stroke-width:9px;" /><path id="_207" d="M-406.03,1113.03c158.51-12.47,583.44-45.97,637.74-50.25-14.1-210.13-45.74-419.33-96.35-625.18-207.57,49.83-415.14,99.67-622.7,149.5,9.25,37.46,17.8,75.12,25.61,112.97h0c28.19,136.51,46.76,274.5,55.71,412.95h-.01Z" style="fill:#fff; stroke:#ddd; stroke-miterlimit:10; stroke-width:9px;" /><path id="_306" d="M1210.73,1623.57c-207.68-16.34-415.35-32.69-623.01-49.03,12.79-178.43,12.79-357.55,0-535.97,207.67-16.35,415.35-32.69,623.03-49.04,7.67,105.48,11.49,211.17,11.49,316.86h0c0,105.8-3.84,211.59-11.52,317.17h0Z" style="fill:#fff; stroke:#ddd; stroke-miterlimit:10; stroke-width:9px;" /><path id="_307" d="M1210.76,989.53c-207.68,16.35-415.36,32.69-623.03,49.04-3.99-55.87-9.25-111.67-15.76-167.35-16.51-141.27-41.03-281.35-73.41-419.58,202.57-48.63,405.14-97.27,607.72-145.9,19.57,83.27,36.66,166.98,51.27,251h0c24.96,143.5,42.69,287.95,53.2,432.79h.01Z" style="fill:#fff; stroke:#ddd; stroke-miterlimit:10; stroke-width:9px;" /><path id="_308" d="M1106.28,305.73c-202.58,48.64-405.16,97.27-607.72,145.9-12.93-55.23-27.11-110.16-42.53-164.76-75.94-20.35-151.87-40.69-227.81-61.04-13.06-40.84-26.87-81.5-41.44-121.97-16.85-46.81-34.67-93.18-53.41-139.09,254.24-105.31,508.48-210.62,762.73-315.93,23.67,57.81,46.14,116.22,67.38,175.2h0c57.02,158.36,104.64,319.19,142.8,481.68h0Z" style="fill:#fff; stroke:#ddd; stroke-miterlimit:10; stroke-width:9px;" /><path id="_408" d="M896.17-351.2c23.69,57.85,46.17,116.3,67.42,175.32,3.53,9.81,7.06,19.62,10.6,29.43,35.17,99.44,66.58,200.12,94.17,301.91,2.8,10.55,5.6,21.11,8.4,31.66,10.44,39.43,20.31,78.96,29.61,118.59,301.23-72.31,602.47-144.64,903.7-216.96-83.27-156.03-182.04-302.69-294.27-437.97-70.43-87.61-154.08-177.66-231.9-245.41,0,0-395.29,163.72-587.73,243.43Z" style="fill:#fff; stroke:#ddd; stroke-miterlimit:10; stroke-width:9px;" /><path id="_406" d="M1219.86,1463.11c-1.39,37.29-3.33,74.29-5.71,111.52-1,16.32-2.1,32.63-3.29,48.94,339.15,26.69,1072.18,84.39,1072.18,84.39,31.65-361.76,31.65-560.39.05-802.83,0,0-733.06,57.7-1072.22,84.39,1.19,16.25,2.28,32.51,3.28,48.77,2.38,37.23,4.32,74.23,5.71,111.52h0c3.89,104.43,3.89,208.87,0,313.29h0Z" style="fill:#fff; stroke:#ddd; stroke-miterlimit:10; stroke-width:9px;" /><path id="_407" d="M1106.38,305.7c301.23-72.32,602.46-144.64,903.7-216.96,133.83,250.73,227.65,525.66,273.01,816.39-18.25,1.44-733.07,57.7-1072.22,84.39-10.5-144.81-28.24-289.24-53.19-432.71h0c-14.62-84.07-31.72-167.8-51.3-251.11h0Z" style="fill:#fff; stroke:#ddd; stroke-miterlimit:10; stroke-width:9px;" /></g></g><g id="Seats"><circle id="SPH06163" cx="736.25" cy="440.44" r="9.2" style="fill:#ccc; stroke-width:0px;" /><circle id="SPH06164" cx="741.49" cy="463.5" r="9.2" style="fill:#ccc; stroke-width:0px;" /><circle id="SPH06165" cx="746.05" cy="486.72" r="9.2" style="fill:#ccc; stroke-width:0px;" /><circle id="SPH06166" cx="750.6" cy="509.92" r="9.2" style="fill:#ccc; stroke-width:0px;" /><circle id="SPH06167" cx="755.15" cy="533.13" r="9.2" style="fill:#ccc; stroke-width:0px;" /><circle id="SPH06168" cx="759.71" cy="556.35" r="9.2" style="fill:#ccc; stroke-width:0px;" /><circle id="SPH06169" cx="764.27" cy="579.56" r="9.2" style="fill:#ccc; stroke-width:0px;" /><circle id="SPH06170" cx="768.82" cy="602.77" r="9.2" style="fill:#ccc; stroke-width:0px;" /><circle id="SPH06171" cx="773.33" cy="626" r="9.2" style="fill:#ccc; stroke-width:0px;" /><circle id="SPH06172" cx="776.88" cy="649.39" r="9.2" style="fill:#ccc; stroke-width:0px;" /><circle id="SPH06173" cx="780.43" cy="672.8" r="9.2" style="fill:#ccc; stroke-width:0px;" /><circle id="SPH06174" cx="783.98" cy="696.19" r="9.2" style="fill:#ccc; stroke-width:0px;" /><circle id="SPH06175" cx="787.53" cy="719.56" r="9.2" style="fill:#ccc; stroke-width:0px;" /><circle id="SPH06176" cx="791.07" cy="742.91" r="9.2" style="fill:#ccc; stroke-width:0px;" /><circle id="SPH06177" cx="794.62" cy="766.28" r="9.2" style="fill:#ccc; stroke-width:0px;" /><circle id="SPH06178" cx="798.17" cy="789.66" r="9.2" style="fill:#ccc; stroke-width:0px;" /><circle id="SPH06179" cx="800.92" cy="813.15" r="9.2" style="fill:#ccc; stroke-width:0px;" /><circle id="SPH06180" cx="803.46" cy="836.68" r="9.2" style="fill:#ccc; stroke-width:0px;" /><circle id="SPH06181" cx="806" cy="860.21" r="9.2" style="fill:#ccc; stroke-width:0px;" /><circle id="SPH06182" cx="808.54" cy="883.74" r="9.2" style="fill:#ccc; stroke-width:0px;" /><circle id="SPH06183" cx="811.07" cy="907.27" r="9.2" style="fill:#ccc; stroke-width:0px;" /><circle id="SPH06184" cx="813.62" cy="930.81" r="9.2" style="fill:#ccc; stroke-width:0px;" /><circle id="SPH06185" cx="816.16" cy="954.34" r="9.2" style="fill:#ccc; stroke-width:0px;" /><circle id="SPH06186" cx="818.14" cy="977.89" r="9.2" style="fill:#ccc; stroke-width:0px;" /><circle id="SPH06187" cx="774.76" cy="431.2" r="9.2" style="fill:#ccc; stroke-width:0px;" /><circle id="SPH06188" cx="779.89" cy="453.54" r="9.2" style="fill:#ccc; stroke-width:0px;" /><circle id="SPH06189" cx="784.3" cy="476.04" r="9.2" style="fill:#ccc; stroke-width:0px;" /><circle id="SPH06190" cx="788.72" cy="498.53" r="9.2" style="fill:#ccc; stroke-width:0px;" /><circle id="SPH06191" cx="793.14" cy="521.02" r="9.2" style="fill:#ccc; stroke-width:0px;" /><circle id="SPH06192" cx="797.55" cy="543.52" r="9.2" style="fill:#ccc; stroke-width:0px;" /><circle id="SPH06193" cx="801.97" cy="566.03" r="9.2" style="fill:#ccc; stroke-width:0px;" /><circle id="SPH06194" cx="806.38" cy="588.53" r="9.2" style="fill:#ccc; stroke-width:0px;" /><circle id="SPH06195" cx="810.8" cy="611.03" r="9.2" style="fill:#ccc; stroke-width:0px;" /><circle id="SPH06196" cx="814.55" cy="633.64" r="9.2" style="fill:#ccc; stroke-width:0px;" /><circle id="SPH06197" cx="817.98" cy="656.31" r="9.2" style="fill:#ccc; stroke-width:0px;" /><circle id="SPH06198" cx="821.42" cy="678.98" r="9.2" style="fill:#ccc; stroke-width:0px;" /><circle id="SPH06199" cx="824.87" cy="701.64" r="9.2" style="fill:#ccc; stroke-width:0px;" /><circle id="SPH06200" cx="828.3" cy="724.31" r="9.2" style="fill:#ccc; stroke-width:0px;" /><circle id="SPH06201" cx="831.75" cy="746.97" r="9.2" style="fill:#ccc; stroke-width:0px;" /><circle id="SPH06202" cx="835.18" cy="769.64" r="9.2" style="fill:#ccc; stroke-width:0px;" /><circle id="SPH06203" cx="838.5" cy="792.32" r="9.2" style="fill:#ccc; stroke-width:0px;" /><circle id="SPH06204" cx="840.96" cy="815.11" r="9.2" style="fill:#ccc; stroke-width:0px;" /><circle id="SPH06205" cx="843.42" cy="837.92" r="9.2" style="fill:#ccc; stroke-width:0px;" /><circle id="SPH06206" cx="845.88" cy="860.72" r="9.2" style="fill:#ccc; stroke-width:0px;" /><circle id="SPH06207" cx="848.35" cy="883.53" r="9.2" style="fill:#ccc; stroke-width:0px;" /><circle id="SPH06208" cx="850.81" cy="906.33" r="9.2" style="fill:#ccc; stroke-width:0px;" /><circle id="SPH06209" cx="853.27" cy="929.14" r="9.2" style="fill:#ccc; stroke-width:0px;" /><circle id="SPH06210" cx="855.73" cy="951.96" r="9.2" style="fill:#ccc; stroke-width:0px;" /><circle id="SPH06211" cx="857.62" cy="974.79" r="9.2" style="fill:#ccc; stroke-width:0px;" /><circle id="SPH06212" cx="813.27" cy="421.95" r="9.2" style="fill:#ccc; stroke-width:0px;" /><circle id="SPH06213" cx="818.48" cy="444.53" r="9.2" style="fill:#ccc; stroke-width:0px;" /><circle id="SPH06214" cx="822.95" cy="467.28" r="9.2" style="fill:#ccc; stroke-width:0px;" /><circle id="SPH06215" cx="827.41" cy="490.04" r="9.2" style="fill:#ccc; stroke-width:0px;" /><circle id="SPH06216" cx="831.87" cy="512.79" r="9.2" style="fill:#ccc; stroke-width:0px;" /><circle id="SPH06217" cx="836.34" cy="535.54" r="9.2" style="fill:#ccc; stroke-width:0px;" /><circle id="SPH06218" cx="840.81" cy="558.3" r="9.2" style="fill:#ccc; stroke-width:0px;" /><circle id="SPH06219" cx="845.27" cy="581.08" r="9.2" style="fill:#ccc; stroke-width:0px;" /><circle id="SPH06220" cx="849.75" cy="603.84" r="9.2" style="fill:#ccc; stroke-width:0px;" /><circle id="SPH06221" cx="853.55" cy="626.7" r="9.2" style="fill:#ccc; stroke-width:0px;" /><circle id="SPH06222" cx="857.02" cy="649.63" r="9.2" style="fill:#ccc; stroke-width:0px;" /><circle id="SPH06223" cx="860.5" cy="672.54" r="9.2" style="fill:#ccc; stroke-width:0px;" /><circle id="SPH06224" cx="863.98" cy="695.48" r="9.2" style="fill:#ccc; stroke-width:0px;" /><circle id="SPH06225" cx="867.47" cy="718.44" r="9.2" style="fill:#ccc; stroke-width:0px;" /><circle id="SPH06226" cx="870.95" cy="741.39" r="9.2" style="fill:#ccc; stroke-width:0px;" /><circle id="SPH06227" cx="874.43" cy="764.34" r="9.2" style="fill:#ccc; stroke-width:0px;" /><circle id="SPH06228" cx="877.78" cy="787.3" r="9.2" style="fill:#ccc; stroke-width:0px;" /><circle id="SPH06229" cx="880.27" cy="810.36" r="9.2" style="fill:#ccc; stroke-width:0px;" /><circle id="SPH06230" cx="882.76" cy="833.41" r="9.2" style="fill:#ccc; stroke-width:0px;" /><circle id="SPH06231" cx="885.26" cy="856.48" r="9.2" style="fill:#ccc; stroke-width:0px;" /><circle id="SPH06232" cx="887.75" cy="879.54" r="9.2" style="fill:#ccc; stroke-width:0px;" /><circle id="SPH06233" cx="890.23" cy="902.6" r="9.2" style="fill:#ccc; stroke-width:0px;" /><circle id="SPH06234" cx="892.72" cy="925.68" r="9.2" style="fill:#ccc; stroke-width:0px;" /><circle id="SPH06235" cx="895.22" cy="948.75" r="9.2" style="fill:#ccc; stroke-width:0px;" /><circle id="SPH06236" cx="897.11" cy="971.84" r="9.2" style="fill:#ccc; stroke-width:0px;" /><circle id="SPH06237" cx="851.77" cy="412.7" r="9.2" style="fill:#ccc; stroke-width:0px;" /><circle id="SPH06238" cx="857.07" cy="435.54" r="9.2" style="fill:#ccc; stroke-width:0px;" /><circle id="SPH06239" cx="861.58" cy="458.55" r="9.2" style="fill:#ccc; stroke-width:0px;" /><circle id="SPH06240" cx="866.1" cy="481.56" r="9.2" style="fill:#ccc; stroke-width:0px;" /><circle id="SPH06241" cx="870.62" cy="504.56" r="9.2" style="fill:#ccc; stroke-width:0px;" /><circle id="SPH06242" cx="875.13" cy="527.58" r="9.2" style="fill:#ccc; stroke-width:0px;" /><circle id="SPH06243" cx="879.65" cy="550.58" r="9.2" style="fill:#ccc; stroke-width:0px;" /><circle id="SPH06244" cx="884.16" cy="573.57" r="9.2" style="fill:#ccc; stroke-width:0px;" /><circle id="SPH06245" cx="888.67" cy="596.58" r="9.2" style="fill:#ccc; stroke-width:0px;" /><circle id="SPH06246" cx="892.54" cy="619.71" r="9.2" style="fill:#ccc; stroke-width:0px;" /><circle id="SPH06247" cx="896.06" cy="642.89" r="9.2" style="fill:#ccc; stroke-width:0px;" /><circle id="SPH06248" cx="899.58" cy="666.08" r="9.2" style="fill:#ccc; stroke-width:0px;" /><circle id="SPH06249" cx="903.09" cy="689.24" r="9.2" style="fill:#ccc; stroke-width:0px;" /><circle id="SPH06250" cx="906.6" cy="712.4" r="9.2" style="fill:#ccc; stroke-width:0px;" /><circle id="SPH06251" cx="910.12" cy="735.56" r="9.2" style="fill:#ccc; stroke-width:0px;" /><circle id="SPH06252" cx="913.63" cy="758.72" r="9.2" style="fill:#ccc; stroke-width:0px;" /><circle id="SPH06253" cx="917.03" cy="781.92" r="9.2" style="fill:#ccc; stroke-width:0px;" /><circle id="SPH06254" cx="919.55" cy="805.24" r="9.2" style="fill:#ccc; stroke-width:0px;" /><circle id="SPH06255" cx="922.07" cy="828.56" r="9.2" style="fill:#ccc; stroke-width:0px;" /><circle id="SPH06256" cx="924.59" cy="851.89" r="9.2" style="fill:#ccc; stroke-width:0px;" /><circle id="SPH06257" cx="927.1" cy="875.22" r="9.2" style="fill:#ccc; stroke-width:0px;" /><circle id="SPH06258" cx="929.62" cy="898.55" r="9.2" style="fill:#ccc; stroke-width:0px;" /><circle id="SPH06259" cx="932.15" cy="921.88" r="9.2" style="fill:#ccc; stroke-width:0px;" /><circle id="SPH06260" cx="934.67" cy="945.21" r="9.2" style="fill:#ccc; stroke-width:0px;" /><circle id="SPH06261" cx="936.58" cy="968.56" r="9.2" style="fill:#ccc; stroke-width:0px;" /><circle id="SPH06262" cx="890.27" cy="403.46" r="9.2" style="fill:#ccc; stroke-width:0px;" /><circle id="SPH06263" cx="895.66" cy="426.55" r="9.2" style="fill:#ccc; stroke-width:0px;" /><circle id="SPH06264" cx="900.22" cy="449.81" r="9.2" style="fill:#ccc; stroke-width:0px;" /><circle id="SPH06265" cx="904.79" cy="473.08" r="9.2" style="fill:#ccc; stroke-width:0px;" /><circle id="SPH06266" cx="909.36" cy="496.35" r="9.2" style="fill:#ccc; stroke-width:0px;" /><circle id="SPH06267" cx="913.92" cy="519.62" r="9.2" style="fill:#ccc; stroke-width:0px;" /><circle id="SPH06268" cx="918.49" cy="542.88" r="9.2" style="fill:#ccc; stroke-width:0px;" /><circle id="SPH06269" cx="923.06" cy="566.13" r="9.2" style="fill:#ccc; stroke-width:0px;" /><circle id="SPH06270" cx="927.62" cy="589.4" r="9.2" style="fill:#ccc; stroke-width:0px;" /><circle id="SPH06271" cx="931.54" cy="612.76" r="9.2" style="fill:#ccc; stroke-width:0px;" /><circle id="SPH06272" cx="935.09" cy="636.2" r="9.2" style="fill:#ccc; stroke-width:0px;" /><circle id="SPH06273" cx="938.65" cy="659.64" r="9.2" style="fill:#ccc; stroke-width:0px;" /><circle id="SPH06274" cx="942.21" cy="683.08" r="9.2" style="fill:#ccc; stroke-width:0px;" /><circle id="SPH06275" cx="945.76" cy="706.51" r="9.2" style="fill:#ccc; stroke-width:0px;" /><circle id="SPH06276" cx="949.32" cy="729.95" r="9.2" style="fill:#ccc; stroke-width:0px;" /><circle id="SPH06277" cx="952.87" cy="753.38" r="9.2" style="fill:#ccc; stroke-width:0px;" /><circle id="SPH06278" cx="956.32" cy="776.84" r="9.2" style="fill:#ccc; stroke-width:0px;" /><circle id="SPH06279" cx="958.87" cy="800.4" r="9.2" style="fill:#ccc; stroke-width:0px;" /><circle id="SPH06280" cx="961.41" cy="823.97" r="9.2" style="fill:#ccc; stroke-width:0px;" /><circle id="SPH06281" cx="963.95" cy="847.55" r="9.2" style="fill:#ccc; stroke-width:0px;" /><circle id="SPH06282" cx="966.5" cy="871.14" r="9.2" style="fill:#ccc; stroke-width:0px;" /><circle id="SPH06283" cx="969.04" cy="894.72" r="9.2" style="fill:#ccc; stroke-width:0px;" /><circle id="SPH06284" cx="971.58" cy="918.32" r="9.2" style="fill:#ccc; stroke-width:0px;" /><circle id="SPH06285" cx="974.14" cy="941.9" r="9.2" style="fill:#ccc; stroke-width:0px;" /><circle id="SPH06286" cx="976.07" cy="965.52" r="9.2" style="fill:#ccc; stroke-width:0px;" /><circle id="SPH06287" cx="928.78" cy="394.21" r="9.2" style="fill:#ccc; stroke-width:0px;" /><circle id="SPH06288" cx="934.07" cy="416.61" r="9.2" style="fill:#ccc; stroke-width:0px;" /><circle id="SPH06289" cx="938.5" cy="439.18" r="9.2" style="fill:#ccc; stroke-width:0px;" /><circle id="SPH06290" cx="942.93" cy="461.76" r="9.2" style="fill:#ccc; stroke-width:0px;" /><circle id="SPH06291" cx="947.36" cy="484.35" r="9.2" style="fill:#ccc; stroke-width:0px;" /><circle id="SPH06292" cx="951.78" cy="506.92" r="9.2" style="fill:#ccc; stroke-width:0px;" /><circle id="SPH06293" cx="956.22" cy="529.51" r="9.2" style="fill:#ccc; stroke-width:0px;" /><circle id="SPH06294" cx="960.65" cy="552.08" r="9.2" style="fill:#ccc; stroke-width:0px;" /><circle id="SPH06295" cx="965.08" cy="574.66" r="9.2" style="fill:#ccc; stroke-width:0px;" /><circle id="SPH06296" cx="969.24" cy="597.28" r="9.2" style="fill:#ccc; stroke-width:0px;" /><circle id="SPH06297" cx="972.69" cy="620.03" r="9.2" style="fill:#ccc; stroke-width:0px;" /><circle id="SPH06298" cx="976.15" cy="642.77" r="9.2" style="fill:#ccc; stroke-width:0px;" /><circle id="SPH06299" cx="979.59" cy="665.52" r="9.2" style="fill:#ccc; stroke-width:0px;" /><circle id="SPH06300" cx="983.05" cy="688.3" r="9.2" style="fill:#ccc; stroke-width:0px;" /><circle id="SPH06301" cx="986.5" cy="711.08" r="9.2" style="fill:#ccc; stroke-width:0px;" /><circle id="SPH06302" cx="989.96" cy="733.84" r="9.2" style="fill:#ccc; stroke-width:0px;" /><circle id="SPH06303" cx="993.42" cy="756.61" r="9.2" style="fill:#ccc; stroke-width:0px;" /><circle id="SPH06304" cx="996.42" cy="779.41" r="9.2" style="fill:#ccc; stroke-width:0px;" /><circle id="SPH06305" cx="998.9" cy="802.29" r="9.2" style="fill:#ccc; stroke-width:0px;" /><circle id="SPH06306" cx="1001.36" cy="825.16" r="9.2" style="fill:#ccc; stroke-width:0px;" /><circle id="SPH06307" cx="1003.83" cy="848.04" r="9.2" style="fill:#ccc; stroke-width:0px;" /><circle id="SPH06308" cx="1006.3" cy="870.94" r="9.2" style="fill:#ccc; stroke-width:0px;" /><circle id="SPH06309" cx="1008.78" cy="893.83" r="9.2" style="fill:#ccc; stroke-width:0px;" /><circle id="SPH06310" cx="1011.25" cy="916.72" r="9.2" style="fill:#ccc; stroke-width:0px;" /><circle id="SPH06311" cx="1013.71" cy="939.61" r="9.2" style="fill:#ccc; stroke-width:0px;" /><circle id="SPH06312" cx="1015.55" cy="962.52" r="9.2" style="fill:#ccc; stroke-width:0px;" /><circle id="SPH06313" cx="967.29" cy="384.97" r="9.2" style="fill:#ccc; stroke-width:0px;" /><circle id="SPH06314" cx="972.65" cy="407.61" r="9.2" style="fill:#ccc; stroke-width:0px;" /><circle id="SPH06315" cx="977.13" cy="430.43" r="9.2" style="fill:#ccc; stroke-width:0px;" /><circle id="SPH06316" cx="981.61" cy="453.24" r="9.2" style="fill:#ccc; stroke-width:0px;" /><circle id="SPH06317" cx="986.09" cy="476.06" r="9.2" style="fill:#ccc; stroke-width:0px;" /><circle id="SPH06318" cx="990.57" cy="498.89" r="9.2" style="fill:#ccc; stroke-width:0px;" /><circle id="SPH06319" cx="995.05" cy="521.72" r="9.2" style="fill:#ccc; stroke-width:0px;" /><circle id="SPH06320" cx="999.53" cy="544.55" r="9.2" style="fill:#ccc; stroke-width:0px;" /><circle id="SPH06321" cx="1004.01" cy="567.36" r="9.2" style="fill:#ccc; stroke-width:0px;" /><circle id="SPH06322" cx="1008.22" cy="590.24" r="9.2" style="fill:#ccc; stroke-width:0px;" /><circle id="SPH06323" cx="1011.71" cy="613.23" r="9.2" style="fill:#ccc; stroke-width:0px;" /><circle id="SPH06324" cx="1015.2" cy="636.22" r="9.2" style="fill:#ccc; stroke-width:0px;" /><circle id="SPH06325" cx="1018.69" cy="659.2" r="9.2" style="fill:#ccc; stroke-width:0px;" /><circle id="SPH06326" cx="1022.18" cy="682.16" r="9.2" style="fill:#ccc; stroke-width:0px;" /><circle id="SPH06327" cx="1025.66" cy="705.12" r="9.2" transform="translate(165.35 1604.59) rotate(-80.78)" style="fill:#ccc; stroke-width:0px;" /><circle id="SPH06328" cx="1029.15" cy="728.08" r="9.2" transform="translate(145.62 1627.32) rotate(-80.78)" style="fill:#ccc; stroke-width:0px;" /><circle id="SPH06329" cx="1032.63" cy="751.05" r="9.2" transform="translate(125.87 1650.04) rotate(-80.78)" style="fill:#ccc; stroke-width:0px;" /><circle id="SPH06330" cx="1035.68" cy="774.1" r="9.2" style="fill:#ccc; stroke-width:0px;" /><circle id="SPH06331" cx="1038.18" cy="797.24" r="9.2" style="fill:#ccc; stroke-width:0px;" /><circle id="SPH06332" cx="1040.67" cy="820.36" r="9.2" style="fill:#ccc; stroke-width:0px;" /><circle id="SPH06333" cx="1043.18" cy="843.51" r="9.2" style="fill:#ccc; stroke-width:0px;" /><circle id="SPH06334" cx="1045.67" cy="866.64" r="9.2" style="fill:#ccc; stroke-width:0px;" /><circle id="SPH06335" cx="1048.17" cy="889.78" r="9.2" style="fill:#ccc; stroke-width:0px;" /><circle id="SPH06336" cx="1050.67" cy="912.92" r="9.2" style="fill:#ccc; stroke-width:0px;" /><circle id="SPH06337" cx="1053.16" cy="936.07" r="9.2" style="fill:#ccc; stroke-width:0px;" /><circle id="SPH06338" cx="1055.02" cy="959.22" r="9.2" style="fill:#ccc; stroke-width:0px;" /><circle id="SPH06339" cx="1005.79" cy="375.72" r="9.2" style="fill:#ccc; stroke-width:0px;" /><circle id="SPH06340" cx="1011.24" cy="398.6" r="9.2" style="fill:#ccc; stroke-width:0px;" /><circle id="SPH06341" cx="1015.77" cy="421.67" r="9.2" transform="translate(436.84 1356.78) rotate(-80.78)" style="fill:#ccc; stroke-width:0px;" /><circle id="SPH06342" cx="1020.29" cy="444.72" r="9.2" style="fill:#ccc; stroke-width:0px;" /><circle id="SPH06343" cx="1024.82" cy="467.79" r="9.2" transform="translate(398.91 1404.45) rotate(-80.78)" style="fill:#ccc; stroke-width:0px;" /><circle id="SPH06344" cx="1029.35" cy="490.86" r="9.2" transform="translate(379.94 1428.29) rotate(-80.78)" style="fill:#ccc; stroke-width:0px;" /><circle id="SPH06345" cx="1033.87" cy="513.94" r="9.2" style="fill:#ccc; stroke-width:0px;" /><circle id="SPH06346" cx="1038.4" cy="537" r="9.2" style="fill:#ccc; stroke-width:0px;" /><circle id="SPH06347" cx="1042.93" cy="560.08" r="9.2" style="fill:#ccc; stroke-width:0px;" /><circle id="SPH06348" cx="1047.21" cy="583.19" r="9.2" style="fill:#ccc; stroke-width:0px;" /><circle id="SPH06349" cx="1050.73" cy="606.42" r="9.2" style="fill:#ccc; stroke-width:0px;" /><circle id="SPH06350" cx="1054.26" cy="629.66" r="9.2" style="fill:#ccc; stroke-width:0px;" /><circle id="SPH06351" cx="1057.78" cy="652.9" r="9.2" style="fill:#ccc; stroke-width:0px;" /><circle id="SPH06352" cx="1061.31" cy="676.13" r="9.2" style="fill:#ccc; stroke-width:0px;" /><circle id="SPH06353" cx="1064.84" cy="699.37" r="9.2" style="fill:#ccc; stroke-width:0px;" /><circle id="SPH06354" cx="1068.37" cy="722.6" r="9.2" style="fill:#ccc; stroke-width:0px;" /><circle id="SPH06355" cx="1071.89" cy="745.84" r="9.2" style="fill:#ccc; stroke-width:0px;" /><circle id="SPH06356" cx="1074.98" cy="769.14" r="9.2" style="fill:#ccc; stroke-width:0px;" /><circle id="SPH06357" cx="1077.5" cy="792.51" r="9.2" style="fill:#ccc; stroke-width:0px;" /><circle id="SPH06358" cx="1080.02" cy="815.88" r="9.2" style="fill:#ccc; stroke-width:0px;" /><circle id="SPH06359" cx="1082.55" cy="839.24" r="9.2" style="fill:#ccc; stroke-width:0px;" /><circle id="SPH06360" cx="1085.07" cy="862.63" r="9.2" style="fill:#ccc; stroke-width:0px;" /><circle id="SPH06361" cx="1087.59" cy="886" r="9.2" style="fill:#ccc; stroke-width:0px;" /><circle id="SPH06362" cx="1090.11" cy="909.4" r="9.2" style="fill:#ccc; stroke-width:0px;" /><circle id="SPH06363" cx="1092.64" cy="932.78" r="9.2" style="fill:#ccc; stroke-width:0px;" /><circle id="SPH06364" cx="1094.51" cy="956.16" r="9.2" style="fill:#ccc; stroke-width:0px;" /><circle id="SPH06365" cx="1044.3" cy="366.48" r="9.2" style="fill:#ccc; stroke-width:0px;" /><circle id="SPH06366" cx="1049.82" cy="389.58" r="9.2" style="fill:#ccc; stroke-width:0px;" /><circle id="SPH06367" cx="1054.4" cy="412.89" r="9.2" style="fill:#ccc; stroke-width:0px;" /><circle id="SPH06368" cx="1058.98" cy="436.2" r="9.2" style="fill:#ccc; stroke-width:0px;" /><circle id="SPH06369" cx="1063.55" cy="459.5" r="9.2" style="fill:#ccc; stroke-width:0px;" /><circle id="SPH06370" cx="1068.12" cy="482.81" r="9.2" style="fill:#ccc; stroke-width:0px;" /><circle id="SPH06371" cx="1072.7" cy="506.12" r="9.2" style="fill:#ccc; stroke-width:0px;" /><circle id="SPH06372" cx="1077.27" cy="529.41" r="9.2" style="fill:#ccc; stroke-width:0px;" /><circle id="SPH06373" cx="1081.84" cy="552.72" r="9.2" style="fill:#ccc; stroke-width:0px;" /><circle id="SPH06374" cx="1086.18" cy="576.07" r="9.2" style="fill:#ccc; stroke-width:0px;" /><circle id="SPH06375" cx="1089.75" cy="599.55" r="9.2" style="fill:#ccc; stroke-width:0px;" /><circle id="SPH06376" cx="1093.3" cy="623.04" r="9.2" style="fill:#ccc; stroke-width:0px;" /><circle id="SPH06377" cx="1096.87" cy="646.54" r="9.2" style="fill:#ccc; stroke-width:0px;" /><circle id="SPH06378" cx="1100.44" cy="670.04" r="9.2" style="fill:#ccc; stroke-width:0px;" /><circle id="SPH06379" cx="1104.01" cy="693.56" r="9.2" style="fill:#ccc; stroke-width:0px;" /><circle id="SPH06380" cx="1107.58" cy="717.06" r="9.2" style="fill:#ccc; stroke-width:0px;" /><circle id="SPH06381" cx="1111.15" cy="740.57" r="9.2" style="fill:#ccc; stroke-width:0px;" /><circle id="SPH06382" cx="1114.27" cy="764.12" r="9.2" style="fill:#ccc; stroke-width:0px;" /><circle id="SPH06383" cx="1116.82" cy="787.74" r="9.2" style="fill:#ccc; stroke-width:0px;" /><circle id="SPH06384" cx="1119.36" cy="811.36" r="9.2" style="fill:#ccc; stroke-width:0px;" /><circle id="SPH06385" cx="1121.91" cy="834.97" r="9.2" style="fill:#ccc; stroke-width:0px;" /><circle id="SPH06386" cx="1124.47" cy="858.6" r="9.2" style="fill:#ccc; stroke-width:0px;" /><circle id="SPH06387" cx="1127.01" cy="882.22" r="9.2" style="fill:#ccc; stroke-width:0px;" /><circle id="SPH06388" cx="1129.56" cy="905.84" r="9.2" style="fill:#ccc; stroke-width:0px;" /><circle id="SPH06389" cx="1132.11" cy="929.48" r="9.2" style="fill:#ccc; stroke-width:0px;" /><circle id="SPH06390" cx="1133.99" cy="953.15" r="9.2" style="fill:#ccc; stroke-width:0px;" /><circle id="SPH06391" cx="543.72" cy="486.66" r="9.2" style="fill:#ccc; stroke-width:0px;" /><circle id="SPH06392" cx="548.73" cy="509.43" r="9.2" style="fill:#ccc; stroke-width:0px;" /><circle id="SPH06393" cx="553.22" cy="532.31" r="9.2" style="fill:#ccc; stroke-width:0px;" /><circle id="SPH06394" cx="557.7" cy="555.19" r="9.2" style="fill:#ccc; stroke-width:0px;" /><circle id="SPH06395" cx="562.19" cy="578.06" r="9.2" style="fill:#ccc; stroke-width:0px;" /><circle id="SPH06396" cx="566.69" cy="600.95" r="9.2" style="fill:#ccc; stroke-width:0px;" /><circle id="SPH06397" cx="571.18" cy="623.83" r="9.2" style="fill:#ccc; stroke-width:0px;" /><circle id="SPH06398" cx="575.67" cy="646.7" r="9.2" style="fill:#ccc; stroke-width:0px;" /><circle id="SPH06399" cx="579.69" cy="669.65" r="9.2" style="fill:#ccc; stroke-width:0px;" /><circle id="SPH06400" cx="583.18" cy="692.7" r="9.2" style="fill:#ccc; stroke-width:0px;" /><circle id="SPH06401" cx="586.68" cy="715.75" r="9.2" style="fill:#ccc; stroke-width:0px;" /><circle id="SPH06402" cx="590.18" cy="738.8" r="9.2" style="fill:#ccc; stroke-width:0px;" /><circle id="SPH06403" cx="593.68" cy="761.85" r="9.2" style="fill:#ccc; stroke-width:0px;" /><circle id="SPH06404" cx="597.18" cy="784.9" r="9.2" style="fill:#ccc; stroke-width:0px;" /><circle id="SPH06405" cx="600.68" cy="807.95" r="9.2" style="fill:#ccc; stroke-width:0px;" /><circle id="SPH06406" cx="603.7" cy="831.06" r="9.2" style="fill:#ccc; stroke-width:0px;" /><circle id="SPH06407" cx="606.2" cy="854.24" r="9.2" style="fill:#ccc; stroke-width:0px;" /><circle id="SPH06408" cx="608.7" cy="877.42" r="9.2" style="fill:#ccc; stroke-width:0px;" /><circle id="SPH06409" cx="611.21" cy="900.61" r="9.2" style="fill:#ccc; stroke-width:0px;" /><circle id="SPH06410" cx="613.71" cy="923.8" r="9.2" style="fill:#ccc; stroke-width:0px;" /><circle id="SPH06411" cx="616.22" cy="946.99" r="9.2" style="fill:#ccc; stroke-width:0px;" /><circle id="SPH06412" cx="618.72" cy="970.18" r="9.2" style="fill:#ccc; stroke-width:0px;" /><circle id="SPH06413" cx="620.73" cy="993.43" r="9.2" style="fill:#ccc; stroke-width:0px;" /><circle id="SPH06414" cx="582.22" cy="477.41" r="9.2" style="fill:#ccc; stroke-width:0px;" /><circle id="SPH06415" cx="587.32" cy="500.46" r="9.2" style="fill:#ccc; stroke-width:0px;" /><circle id="SPH06416" cx="591.87" cy="523.61" r="9.2" style="fill:#ccc; stroke-width:0px;" /><circle id="SPH06417" cx="596.41" cy="546.77" r="9.2" style="fill:#ccc; stroke-width:0px;" /><circle id="SPH06418" cx="600.95" cy="569.92" r="9.2" style="fill:#ccc; stroke-width:0px;" /><circle id="SPH06419" cx="605.5" cy="593.08" r="9.2" style="fill:#ccc; stroke-width:0px;" /><circle id="SPH06420" cx="610.04" cy="616.24" r="9.2" style="fill:#ccc; stroke-width:0px;" /><circle id="SPH06421" cx="614.59" cy="639.4" r="9.2" style="fill:#ccc; stroke-width:0px;" /><circle id="SPH06422" cx="618.68" cy="662.64" r="9.2" style="fill:#ccc; stroke-width:0px;" /><circle id="SPH06423" cx="622.22" cy="685.96" r="9.2" style="fill:#ccc; stroke-width:0px;" /><circle id="SPH06424" cx="625.75" cy="709.28" r="9.2" style="fill:#ccc; stroke-width:0px;" /><circle id="SPH06425" cx="629.3" cy="732.61" r="9.2" style="fill:#ccc; stroke-width:0px;" /><circle id="SPH06426" cx="632.84" cy="755.96" r="9.2" style="fill:#ccc; stroke-width:0px;" /><circle id="SPH06427" cx="636.38" cy="779.3" r="9.2" style="fill:#ccc; stroke-width:0px;" /><circle id="SPH06428" cx="639.92" cy="802.64" r="9.2" style="fill:#ccc; stroke-width:0px;" /><circle id="SPH06429" cx="642.98" cy="826.03" r="9.2" style="fill:#ccc; stroke-width:0px;" /><circle id="SPH06430" cx="645.52" cy="849.5" r="9.2" style="fill:#ccc; stroke-width:0px;" /><circle id="SPH06431" cx="648.06" cy="872.96" r="9.2" style="fill:#ccc; stroke-width:0px;" /><circle id="SPH06432" cx="650.58" cy="896.43" r="9.2" style="fill:#ccc; stroke-width:0px;" /><circle id="SPH06433" cx="653.12" cy="919.9" r="9.2" style="fill:#ccc; stroke-width:0px;" /><circle id="SPH06434" cx="655.66" cy="943.37" r="9.2" style="fill:#ccc; stroke-width:0px;" /><circle id="SPH06435" cx="658.18" cy="966.84" r="9.2" style="fill:#ccc; stroke-width:0px;" /><circle id="SPH06436" cx="660.22" cy="990.37" r="9.2" style="fill:#ccc; stroke-width:0px;" /><circle id="SPH06437" cx="620.74" cy="468.16" r="9.2" style="fill:#ccc; stroke-width:0px;" /><circle id="SPH06438" cx="625.91" cy="491.48" r="9.2" style="fill:#ccc; stroke-width:0px;" /><circle id="SPH06439" cx="630.51" cy="514.91" r="9.2" style="fill:#ccc; stroke-width:0px;" /><circle id="SPH06440" cx="635.11" cy="538.34" r="9.2" style="fill:#ccc; stroke-width:0px;" /><circle id="SPH06441" cx="639.71" cy="561.77" r="9.2" style="fill:#ccc; stroke-width:0px;" /><circle id="SPH06442" cx="644.31" cy="585.21" r="9.2" style="fill:#ccc; stroke-width:0px;" /><circle id="SPH06443" cx="648.9" cy="608.64" r="9.2" style="fill:#ccc; stroke-width:0px;" /><circle id="SPH06444" cx="653.5" cy="632.08" r="9.2" style="fill:#ccc; stroke-width:0px;" /><circle id="SPH06445" cx="657.66" cy="655.59" r="9.2" style="fill:#ccc; stroke-width:0px;" /><circle id="SPH06446" cx="661.25" cy="679.21" r="9.2" style="fill:#ccc; stroke-width:0px;" /><circle id="SPH06447" cx="664.83" cy="702.84" r="9.2" style="fill:#ccc; stroke-width:0px;" /><circle id="SPH06448" cx="668.42" cy="726.44" r="9.2" style="fill:#ccc; stroke-width:0px;" /><circle id="SPH06449" cx="671.99" cy="750.04" r="9.2" style="fill:#ccc; stroke-width:0px;" /><circle id="SPH06450" cx="675.58" cy="773.62" r="9.2" style="fill:#ccc; stroke-width:0px;" /><circle id="SPH06451" cx="679.15" cy="797.22" r="9.2" style="fill:#ccc; stroke-width:0px;" /><circle id="SPH06452" cx="682.27" cy="820.88" r="9.2" style="fill:#ccc; stroke-width:0px;" /><circle id="SPH06453" cx="684.82" cy="844.63" r="9.2" style="fill:#ccc; stroke-width:0px;" /><circle id="SPH06454" cx="687.39" cy="868.38" r="9.2" style="fill:#ccc; stroke-width:0px;" /><circle id="SPH06455" cx="689.95" cy="892.12" r="9.2" style="fill:#ccc; stroke-width:0px;" /><circle id="SPH06456" cx="692.52" cy="915.88" r="9.2" style="fill:#ccc; stroke-width:0px;" /><circle id="SPH06457" cx="695.08" cy="939.64" r="9.2" style="fill:#ccc; stroke-width:0px;" /><circle id="SPH06458" cx="697.65" cy="963.4" r="9.2" style="fill:#ccc; stroke-width:0px;" /><circle id="SPH06459" cx="699.69" cy="987.19" r="9.2" style="fill:#ccc; stroke-width:0px;" /><circle id="SPH06460" cx="659.24" cy="458.92" r="9.2" style="fill:#ccc; stroke-width:0px;" /><circle id="SPH06461" cx="664.3" cy="481.47" r="9.2" style="fill:#ccc; stroke-width:0px;" /><circle id="SPH06462" cx="668.75" cy="504.15" r="9.2" style="fill:#ccc; stroke-width:0px;" /><circle id="SPH06463" cx="673.21" cy="526.84" r="9.2" style="fill:#ccc; stroke-width:0px;" /><circle id="SPH06464" cx="677.66" cy="549.52" r="9.2" style="fill:#ccc; stroke-width:0px;" /><circle id="SPH06465" cx="682.11" cy="572.2" r="9.2" style="fill:#ccc; stroke-width:0px;" /><circle id="SPH06466" cx="686.56" cy="594.88" r="9.2" style="fill:#ccc; stroke-width:0px;" /><circle id="SPH06467" cx="691.02" cy="617.56" r="9.2" style="fill:#ccc; stroke-width:0px;" /><circle id="SPH06468" cx="695.38" cy="640.26" r="9.2" style="fill:#ccc; stroke-width:0px;" /><circle id="SPH06469" cx="698.86" cy="663.11" r="9.2" style="fill:#ccc; stroke-width:0px;" /><circle id="SPH06470" cx="702.32" cy="685.96" r="9.2" style="fill:#ccc; stroke-width:0px;" /><circle id="SPH06471" cx="705.79" cy="708.81" r="9.2" style="fill:#ccc; stroke-width:0px;" /><circle id="SPH06472" cx="709.26" cy="731.66" r="9.2" style="fill:#ccc; stroke-width:0px;" /><circle id="SPH06473" cx="712.73" cy="754.51" r="9.2" style="fill:#ccc; stroke-width:0px;" /><circle id="SPH06474" cx="716.19" cy="777.36" r="9.2" style="fill:#ccc; stroke-width:0px;" /><circle id="SPH06475" cx="719.67" cy="800.2" r="9.2" style="fill:#ccc; stroke-width:0px;" /><circle id="SPH06476" cx="722.34" cy="823.16" r="9.2" style="fill:#ccc; stroke-width:0px;" /><circle id="SPH06477" cx="724.82" cy="846.13" r="9.2" style="fill:#ccc; stroke-width:0px;" /><circle id="SPH06478" cx="727.3" cy="869.12" r="9.2" style="fill:#ccc; stroke-width:0px;" /><circle id="SPH06479" cx="729.78" cy="892.11" r="9.2" style="fill:#ccc; stroke-width:0px;" /><circle id="SPH06480" cx="732.27" cy="915.1" r="9.2" style="fill:#ccc; stroke-width:0px;" /><circle id="SPH06481" cx="734.75" cy="938.09" r="9.2" style="fill:#ccc; stroke-width:0px;" /><circle id="SPH06482" cx="737.22" cy="961.08" r="9.2" style="fill:#ccc; stroke-width:0px;" /><circle id="SPH06483" cx="739.18" cy="984.11" r="9.2" style="fill:#ccc; stroke-width:0px;" /><circle id="SPH06484" cx="1082.8" cy="357.24" r="9.2" style="fill:#ccc; stroke-width:0px;" /><circle id="SPH06485" cx="1088.22" cy="379.66" r="9.2" style="fill:#ccc; stroke-width:0px;" /><circle id="SPH06486" cx="1092.68" cy="402.31" r="9.2" style="fill:#ccc; stroke-width:0px;" /><circle id="SPH06487" cx="1097.12" cy="424.96" r="9.2" style="fill:#ccc; stroke-width:0px;" /><circle id="SPH06488" cx="1101.57" cy="447.6" r="9.2" style="fill:#ccc; stroke-width:0px;" /><circle id="SPH06489" cx="1106.01" cy="470.24" r="9.2" style="fill:#ccc; stroke-width:0px;" /><circle id="SPH06490" cx="1110.46" cy="492.9" r="9.2" style="fill:#ccc; stroke-width:0px;" /><circle id="SPH06491" cx="1114.9" cy="515.55" r="9.2" style="fill:#ccc; stroke-width:0px;" /><circle id="SPH06492" cx="1119.35" cy="538.2" r="9.2" style="fill:#ccc; stroke-width:0px;" /><circle id="SPH06493" cx="1123.79" cy="560.85" r="9.2" style="fill:#ccc; stroke-width:0px;" /><circle id="SPH06494" cx="1127.38" cy="583.64" r="9.2" style="fill:#ccc; stroke-width:0px;" /><circle id="SPH06495" cx="1130.84" cy="606.46" r="9.2" style="fill:#ccc; stroke-width:0px;" /><circle id="SPH06496" cx="1134.3" cy="629.27" r="9.2" style="fill:#ccc; stroke-width:0px;" /><circle id="SPH06497" cx="1137.77" cy="652.07" r="9.2" style="fill:#ccc; stroke-width:0px;" /><circle id="SPH06498" cx="1141.22" cy="674.86" r="9.2" style="fill:#ccc; stroke-width:0px;" /><circle id="SPH06499" cx="1144.68" cy="697.65" r="9.2" style="fill:#ccc; stroke-width:0px;" /><circle id="SPH06500" cx="1148.15" cy="720.44" r="9.2" style="fill:#ccc; stroke-width:0px;" /><circle id="SPH06501" cx="1151.61" cy="743.24" r="9.2" style="fill:#ccc; stroke-width:0px;" /><circle id="SPH06502" cx="1154.31" cy="766.16" r="9.2" style="fill:#ccc; stroke-width:0px;" /><circle id="SPH06503" cx="1156.79" cy="789.12" r="9.2" style="fill:#ccc; stroke-width:0px;" /><circle id="SPH06504" cx="1159.27" cy="812.08" r="9.2" style="fill:#ccc; stroke-width:0px;" /><circle id="SPH06505" cx="1161.75" cy="835.04" r="9.2" style="fill:#ccc; stroke-width:0px;" /><circle id="SPH06506" cx="1164.22" cy="857.98" r="9.2" style="fill:#ccc; stroke-width:0px;" /><circle id="SPH06507" cx="1166.7" cy="880.93" r="9.2" style="fill:#ccc; stroke-width:0px;" /><circle id="SPH06508" cx="1169.18" cy="903.87" r="9.2" style="fill:#ccc; stroke-width:0px;" /><circle id="SPH06509" cx="1171.66" cy="926.81" r="9.2" style="fill:#ccc; stroke-width:0px;" /><circle id="SPH06510" cx="1173.47" cy="949.82" r="9.2" style="fill:#ccc; stroke-width:0px;" /><circle id="SPH06511" cx="697.75" cy="449.68" r="9.2" style="fill:#ccc; stroke-width:0px;" /><circle id="SPH06512" cx="702.9" cy="472.5" r="9.2" style="fill:#ccc; stroke-width:0px;" /><circle id="SPH06513" cx="707.4" cy="495.44" r="9.2" style="fill:#ccc; stroke-width:0px;" /><circle id="SPH06514" cx="711.9" cy="518.39" r="9.2" style="fill:#ccc; stroke-width:0px;" /><circle id="SPH06515" cx="716.41" cy="541.33" r="9.2" style="fill:#ccc; stroke-width:0px;" /><circle id="SPH06516" cx="720.91" cy="564.28" r="9.2" style="fill:#ccc; stroke-width:0px;" /><circle id="SPH06517" cx="725.42" cy="587.22" r="9.2" style="fill:#ccc; stroke-width:0px;" /><circle id="SPH06518" cx="729.92" cy="610.17" r="9.2" style="fill:#ccc; stroke-width:0px;" /><circle id="SPH06519" cx="734.36" cy="633.13" r="9.2" style="fill:#ccc; stroke-width:0px;" /><circle id="SPH06520" cx="737.87" cy="656.24" r="9.2" style="fill:#ccc; stroke-width:0px;" /><circle id="SPH06521" cx="741.38" cy="679.35" r="9.2" style="fill:#ccc; stroke-width:0px;" /><circle id="SPH06522" cx="744.88" cy="702.45" r="9.2" style="fill:#ccc; stroke-width:0px;" /><circle id="SPH06523" cx="748.39" cy="725.59" r="9.2" style="fill:#ccc; stroke-width:0px;" /><circle id="SPH06524" cx="751.9" cy="748.74" r="9.2" style="fill:#ccc; stroke-width:0px;" /><circle id="SPH06525" cx="755.42" cy="771.88" r="9.2" style="fill:#ccc; stroke-width:0px;" /><circle id="SPH06526" cx="758.93" cy="795.01" r="9.2" style="fill:#ccc; stroke-width:0px;" /><circle id="SPH06527" cx="761.64" cy="818.24" r="9.2" style="fill:#ccc; stroke-width:0px;" /><circle id="SPH06528" cx="764.15" cy="841.49" r="9.2" style="fill:#ccc; stroke-width:0px;" /><circle id="SPH06529" cx="766.66" cy="864.75" r="9.2" style="fill:#ccc; stroke-width:0px;" /><circle id="SPH06530" cx="769.17" cy="888.01" r="9.2" style="fill:#ccc; stroke-width:0px;" /><circle id="SPH06531" cx="771.68" cy="911.27" r="9.2" style="fill:#ccc; stroke-width:0px;" /><circle id="SPH06532" cx="774.19" cy="934.53" r="9.2" style="fill:#ccc; stroke-width:0px;" /><circle id="SPH06533" cx="776.7" cy="957.8" r="9.2" style="fill:#ccc; stroke-width:0px;" /><circle id="SPH06534" cx="778.67" cy="981.08" r="9.2" style="fill:#ccc; stroke-width:0px;" /></g></svg>