<svg id="Layer_1" viewBox="0 0 1697.6 1405.17" xmlns="http://www.w3.org/2000/svg"><g id="back"><g id="back-2"><path id="sphere" d="M3298.58,2901.04c0-1528.34-1241.46-2769.81-2769.81-2769.81s-2769.81,1241.47-2769.81,2769.81S-999.58,5670.85,528.77,5670.85h0c1528.34,0,2769.81-1241.46,2769.81-2769.81Z" style="fill:#f2f2f2; stroke:#ddd; stroke-miterlimit:10; stroke-width:3px;" /></g><g id="sectors"><path id="_209" d="M777.91,1485.94c-72.76-170.09-165.49-353.48-264.69-510.29-145.43,89.12-400.64,245.5-546.07,334.61,84.15,134.44,157.36,275.15,219.07,420.77h0c158.5-65.65,433.19-179.44,591.69-245.09h0Z" style="fill:#fff; stroke:#ddd; stroke-miterlimit:10; stroke-width:9px;" /><path id="_210" d="M-453.68,1135.71c-14.73-17.7-29.68-35.21-44.85-52.54C-307.4,919.92,138.45,539.14,170.24,511.98c126.27,145.08,240.98,300.1,342.98,463.67-46.45,28.46-546.13,334.67-546.19,334.7-94.66,1.33-189.31,2.66-283.96,3.99h0c-43.15-61.41-88.77-120.99-136.74-178.63h-.01Z" style="fill:#fff; stroke:#ddd; stroke-miterlimit:10; stroke-width:9px;" /><path id="_409" d="M1719.91,1243.45c34.48-14.28,584.25-242.01,587.71-243.44-211.42-197-455.65-359.72-723.64-479.19-58.27,35.71-116.53,71.42-174.8,107.12,20.63,33.91,40.8,68.13,60.52,102.63h0c94.11,164.69,177.78,335.97,250.19,512.88h.02Z" style="fill:#fff; stroke:#ddd; stroke-miterlimit:10; stroke-width:9px;" /><path id="_308" d="M1930,1900.37c-202.58,48.64-405.16,97.27-607.72,145.9-12.93-55.23-27.11-110.16-42.53-164.76-75.94-20.35-151.87-40.69-227.81-61.04-13.06-40.84-26.87-81.5-41.44-121.97-16.85-46.81-34.67-93.18-53.41-139.09,254.24-105.31,508.48-210.62,762.73-315.93,23.67,57.81,46.14,116.22,67.38,175.2h0c57.02,158.36,104.64,319.19,142.8,481.68h0Z" style="fill:#fff; stroke:#ddd; stroke-miterlimit:10; stroke-width:9px;" /><path id="_309" d="M1719.82,1243.49c-254.26,105.32-508.49,210.62-762.73,315.93-70.98-173.83-155.31-340.97-251.89-500.07,234.64-143.79,469.29-287.58,703.92-431.37,20.61,33.88,40.76,68.05,60.45,102.52h0c94.13,164.73,177.81,336.03,250.25,512.98h0Z" style="fill:#fff; stroke:#ddd; stroke-miterlimit:10; stroke-width:9px;" /><path id="_310" d="M863.88,315.92c-150.95,109.67-301.9,219.34-452.84,329.01,107.69,130.76,206.02,269.25,294.15,414.42,234.64-143.79,644.16-394.74,878.79-538.53-130.35-55.93-201.76-83.24-322.88-120.04h0c-128.58-38.08-261.26-66.65-397.23-84.87h0Z" style="fill:#fff; stroke:#ddd; stroke-miterlimit:10; stroke-width:9px;" /></g></g><g id="Seats"><circle id="SPH00326" cx="791.09" cy="425.97" r="9.2" style="fill:#ccc; stroke-width:0px;" /><circle id="SPH00327" cx="805.98" cy="444.77" r="9.2" style="fill:#ccc; stroke-width:0px;" /><circle id="SPH00328" cx="820.87" cy="463.58" r="9.2" style="fill:#ccc; stroke-width:0px;" /><circle id="SPH00329" cx="835.77" cy="482.38" r="9.2" style="fill:#ccc; stroke-width:0px;" /><circle id="SPH00330" cx="850.51" cy="501.3" r="9.2" style="fill:#ccc; stroke-width:0px;" /><circle id="SPH00331" cx="864.59" cy="520.73" r="9.2" style="fill:#ccc; stroke-width:0px;" /><circle id="SPH00332" cx="878.66" cy="540.17" r="9.2" style="fill:#ccc; stroke-width:0px;" /><circle id="SPH00333" cx="892.74" cy="559.6" r="9.2" style="fill:#ccc; stroke-width:0px;" /><circle id="SPH00334" cx="906.81" cy="579.02" r="9.2" style="fill:#ccc; stroke-width:0px;" /><circle id="SPH00335" cx="920.88" cy="598.45" r="9.2" style="fill:#ccc; stroke-width:0px;" /><circle id="SPH00336" cx="934.95" cy="617.87" r="9.2" style="fill:#ccc; stroke-width:0px;" /><circle id="SPH00337" cx="948.98" cy="637.31" r="9.2" style="fill:#ccc; stroke-width:0px;" /><circle id="SPH00338" cx="962.22" cy="657.34" r="9.2" style="fill:#ccc; stroke-width:0px;" /><circle id="SPH00339" cx="975.45" cy="677.37" r="9.2" style="fill:#ccc; stroke-width:0px;" /><circle id="SPH00340" cx="988.67" cy="697.39" r="9.2" style="fill:#ccc; stroke-width:0px;" /><circle id="SPH00341" cx="1001.9" cy="717.42" r="9.2" style="fill:#ccc; stroke-width:0px;" /><circle id="SPH00342" cx="1015.14" cy="737.44" r="9.2" transform="translate(124.61 1621.35) rotate(-80.78)" style="fill:#ccc; stroke-width:0px;" /><circle id="SPH00343" cx="1028.36" cy="757.46" r="9.2" transform="translate(115.96 1651.21) rotate(-80.78)" style="fill:#ccc; stroke-width:0px;" /><circle id="SPH00344" cx="1041.58" cy="777.49" r="9.2" style="fill:#ccc; stroke-width:0px;" /><circle id="SPH00345" cx="1054" cy="797.96" r="9.2" style="fill:#ccc; stroke-width:0px;" /><circle id="SPH00346" cx="839.85" cy="423.76" r="9.2" style="fill:#ccc; stroke-width:0px;" /><circle id="SPH00347" cx="854.75" cy="442.58" r="9.2" style="fill:#ccc; stroke-width:0px;" /><circle id="SPH00348" cx="869.65" cy="461.38" r="9.2" style="fill:#ccc; stroke-width:0px;" /><circle id="SPH00349" cx="884.28" cy="480.41" r="9.2" style="fill:#ccc; stroke-width:0px;" /><circle id="SPH00350" cx="898.36" cy="499.84" r="9.2" style="fill:#ccc; stroke-width:0px;" /><circle id="SPH00351" cx="912.43" cy="519.28" r="9.2" style="fill:#ccc; stroke-width:0px;" /><circle id="SPH00352" cx="926.51" cy="538.71" r="9.2" style="fill:#ccc; stroke-width:0px;" /><circle id="SPH00353" cx="940.59" cy="558.15" r="9.2" style="fill:#ccc; stroke-width:0px;" /><circle id="SPH00354" cx="954.67" cy="577.59" r="9.2" style="fill:#ccc; stroke-width:0px;" /><circle id="SPH00355" cx="968.75" cy="597.03" r="9.2" style="fill:#ccc; stroke-width:0px;" /><circle id="SPH00356" cx="982.73" cy="616.55" r="9.2" style="fill:#ccc; stroke-width:0px;" /><circle id="SPH00357" cx="995.97" cy="636.6" r="9.2" style="fill:#ccc; stroke-width:0px;" /><circle id="SPH00358" cx="1009.22" cy="656.64" r="9.2" style="fill:#ccc; stroke-width:0px;" /><circle id="SPH00359" cx="1022.46" cy="676.7" r="9.2" style="fill:#ccc; stroke-width:0px;" /><circle id="SPH00360" cx="1035.7" cy="696.74" r="9.2" style="fill:#ccc; stroke-width:0px;" /><circle id="SPH00361" cx="1048.94" cy="716.78" r="9.2" style="fill:#ccc; stroke-width:0px;" /><circle id="SPH00362" cx="1062.19" cy="736.83" r="9.2" style="fill:#ccc; stroke-width:0px;" /><circle id="SPH00363" cx="1075.43" cy="756.88" r="9.2" style="fill:#ccc; stroke-width:0px;" /><circle id="SPH00364" cx="1087.86" cy="777.42" r="9.2" style="fill:#ccc; stroke-width:0px;" /><circle id="SPH00365" cx="888.74" cy="421.72" r="9.2" style="fill:#ccc; stroke-width:0px;" /><circle id="SPH00366" cx="903.65" cy="440.53" r="9.2" style="fill:#ccc; stroke-width:0px;" /><circle id="SPH00367" cx="918.14" cy="459.66" r="9.2" style="fill:#ccc; stroke-width:0px;" /><circle id="SPH00368" cx="932.22" cy="479.09" r="9.2" style="fill:#ccc; stroke-width:0px;" /><circle id="SPH00369" cx="946.3" cy="498.52" r="9.2" style="fill:#ccc; stroke-width:0px;" /><circle id="SPH00370" cx="960.37" cy="517.95" r="9.2" style="fill:#ccc; stroke-width:0px;" /><circle id="SPH00371" cx="974.44" cy="537.38" r="9.2" style="fill:#ccc; stroke-width:0px;" /><circle id="SPH00372" cx="988.52" cy="556.82" r="9.2" style="fill:#ccc; stroke-width:0px;" /><circle id="SPH00373" cx="1002.6" cy="576.26" r="9.2" style="fill:#ccc; stroke-width:0px;" /><circle id="SPH00374" cx="1016.5" cy="595.82" r="9.2" transform="translate(265.55 1503.75) rotate(-80.78)" style="fill:#ccc; stroke-width:0px;" /><circle id="SPH00375" cx="1029.73" cy="615.86" r="9.2" transform="translate(256.88 1533.64) rotate(-80.78)" style="fill:#ccc; stroke-width:0px;" /><circle id="SPH00376" cx="1042.98" cy="635.9" r="9.2" style="fill:#ccc; stroke-width:0px;" /><circle id="SPH00377" cx="1056.22" cy="655.94" r="9.2" style="fill:#ccc; stroke-width:0px;" /><circle id="SPH00378" cx="1069.45" cy="675.98" r="9.2" style="fill:#ccc; stroke-width:0px;" /><circle id="SPH00379" cx="1082.69" cy="696.02" r="9.2" style="fill:#ccc; stroke-width:0px;" /><circle id="SPH00380" cx="1095.91" cy="716.04" r="9.2" style="fill:#ccc; stroke-width:0px;" /><circle id="SPH00381" cx="1109.15" cy="736.07" r="9.2" style="fill:#ccc; stroke-width:0px;" /><circle id="SPH00382" cx="1121.54" cy="756.58" r="9.2" style="fill:#ccc; stroke-width:0px;" /><circle id="SPH00383" cx="952" cy="438.89" r="9.2" style="fill:#ccc; stroke-width:0px;" /><circle id="SPH00384" cx="966.08" cy="458.33" r="9.2" style="fill:#ccc; stroke-width:0px;" /><circle id="SPH00385" cx="980.16" cy="477.77" r="9.2" style="fill:#ccc; stroke-width:0px;" /><circle id="SPH00386" cx="994.24" cy="497.21" r="9.2" style="fill:#ccc; stroke-width:0px;" /><circle id="SPH00387" cx="1008.32" cy="516.64" r="9.2" style="fill:#ccc; stroke-width:0px;" /><circle id="SPH00388" cx="1022.39" cy="536.07" r="9.2" transform="translate(329.47 1459.39) rotate(-80.78)" style="fill:#ccc; stroke-width:0px;" /><circle id="SPH00389" cx="1036.47" cy="555.51" r="9.2" style="fill:#ccc; stroke-width:0px;" /><circle id="SPH00390" cx="1050.29" cy="575.13" r="9.2" style="fill:#ccc; stroke-width:0px;" /><circle id="SPH00391" cx="1063.51" cy="595.15" r="9.2" style="fill:#ccc; stroke-width:0px;" /><circle id="SPH00392" cx="1076.74" cy="615.18" r="9.2" style="fill:#ccc; stroke-width:0px;" /><circle id="SPH00393" cx="1089.98" cy="635.21" r="9.2" style="fill:#ccc; stroke-width:0px;" /><circle id="SPH00394" cx="1103.21" cy="655.23" r="9.2" style="fill:#ccc; stroke-width:0px;" /><circle id="SPH00395" cx="1116.44" cy="675.26" r="9.2" style="fill:#ccc; stroke-width:0px;" /><circle id="SPH00396" cx="1129.67" cy="695.3" r="9.2" style="fill:#ccc; stroke-width:0px;" /><circle id="SPH00397" cx="1142.9" cy="715.33" r="9.2" style="fill:#ccc; stroke-width:0px;" /><circle id="SPH00398" cx="1155.3" cy="735.89" r="9.2" style="fill:#ccc; stroke-width:0px;" /><circle id="SPH00399" cx="999.94" cy="437.58" r="9.2" style="fill:#ccc; stroke-width:0px;" /><circle id="SPH00400" cx="1014.02" cy="457.01" r="9.2" style="fill:#ccc; stroke-width:0px;" /><circle id="SPH00401" cx="1028.1" cy="476.45" r="9.2" transform="translate(393.12 1414.96) rotate(-80.78)" style="fill:#ccc; stroke-width:0px;" /><circle id="SPH00402" cx="1042.18" cy="495.89" r="9.2" style="fill:#ccc; stroke-width:0px;" /><circle id="SPH00403" cx="1056.26" cy="515.33" r="9.2" style="fill:#ccc; stroke-width:0px;" /><circle id="SPH00404" cx="1070.34" cy="534.76" r="9.2" style="fill:#ccc; stroke-width:0px;" /><circle id="SPH00405" cx="1084.08" cy="554.44" r="9.2" style="fill:#ccc; stroke-width:0px;" /><circle id="SPH00406" cx="1097.3" cy="574.46" r="9.2" style="fill:#ccc; stroke-width:0px;" /><circle id="SPH00407" cx="1110.53" cy="594.48" r="9.2" style="fill:#ccc; stroke-width:0px;" /><circle id="SPH00408" cx="1123.76" cy="614.5" r="9.2" style="fill:#ccc; stroke-width:0px;" /><circle id="SPH00409" cx="1136.98" cy="634.52" r="9.2" style="fill:#ccc; stroke-width:0px;" /><circle id="SPH00410" cx="1150.21" cy="654.54" r="9.2" style="fill:#ccc; stroke-width:0px;" /><circle id="SPH00411" cx="1163.43" cy="674.56" r="9.2" style="fill:#ccc; stroke-width:0px;" /><circle id="SPH00412" cx="1176.66" cy="694.58" r="9.2" style="fill:#ccc; stroke-width:0px;" /><circle id="SPH00413" cx="1189.02" cy="715.13" r="9.2" style="fill:#ccc; stroke-width:0px;" /><circle id="SPH00414" cx="1061.96" cy="455.69" r="9.2" style="fill:#ccc; stroke-width:0px;" /><circle id="SPH00415" cx="1076.04" cy="475.13" r="9.2" style="fill:#ccc; stroke-width:0px;" /><circle id="SPH00416" cx="1090.12" cy="494.57" r="9.2" style="fill:#ccc; stroke-width:0px;" /><circle id="SPH00417" cx="1104.2" cy="514.01" r="9.2" style="fill:#ccc; stroke-width:0px;" /><circle id="SPH00418" cx="1117.86" cy="533.74" r="9.2" style="fill:#ccc; stroke-width:0px;" /><circle id="SPH00419" cx="1131.09" cy="553.76" r="9.2" style="fill:#ccc; stroke-width:0px;" /><circle id="SPH00420" cx="1144.32" cy="573.78" r="9.2" style="fill:#ccc; stroke-width:0px;" /><circle id="SPH00421" cx="1157.54" cy="593.81" r="9.2" style="fill:#ccc; stroke-width:0px;" /><circle id="SPH00422" cx="1170.77" cy="613.82" r="9.2" style="fill:#ccc; stroke-width:0px;" /><circle id="SPH00423" cx="1184" cy="633.85" r="9.2" style="fill:#ccc; stroke-width:0px;" /><circle id="SPH00424" cx="1197.22" cy="653.86" r="9.2" style="fill:#ccc; stroke-width:0px;" /><circle id="SPH00425" cx="1210.44" cy="673.86" r="9.2" style="fill:#ccc; stroke-width:0px;" /><circle id="SPH00426" cx="1222.77" cy="694.4" r="9.2" style="fill:#ccc; stroke-width:0px;" /><circle id="SPH00427" cx="1123.98" cy="473.8" r="9.2" style="fill:#ccc; stroke-width:0px;" /><circle id="SPH00428" cx="1138.06" cy="493.23" r="9.2" style="fill:#ccc; stroke-width:0px;" /><circle id="SPH00429" cx="1151.63" cy="513.02" r="9.2" style="fill:#ccc; stroke-width:0px;" /><circle id="SPH00430" cx="1164.86" cy="533.04" r="9.2" style="fill:#ccc; stroke-width:0px;" /><circle id="SPH00431" cx="1178.1" cy="553.07" r="9.2" style="fill:#ccc; stroke-width:0px;" /><circle id="SPH00432" cx="1191.33" cy="573.1" r="9.2" style="fill:#ccc; stroke-width:0px;" /><circle id="SPH00433" cx="1204.56" cy="593.13" r="9.2" style="fill:#ccc; stroke-width:0px;" /><circle id="SPH00434" cx="1217.78" cy="613.15" r="9.2" style="fill:#ccc; stroke-width:0px;" /><circle id="SPH00435" cx="1231.02" cy="633.18" r="9.2" style="fill:#ccc; stroke-width:0px;" /><circle id="SPH00436" cx="1244.24" cy="653.23" r="9.2" style="fill:#ccc; stroke-width:0px;" /><circle id="SPH00437" cx="1256.62" cy="673.84" r="9.2" style="fill:#ccc; stroke-width:0px;" /><circle id="SPH00438" cx="1185.42" cy="492.33" r="9.2" style="fill:#ccc; stroke-width:0px;" /><circle id="SPH00439" cx="1198.66" cy="512.35" r="9.2" style="fill:#ccc; stroke-width:0px;" /><circle id="SPH00440" cx="1211.89" cy="532.38" r="9.2" style="fill:#ccc; stroke-width:0px;" /><circle id="SPH00441" cx="1225.11" cy="552.41" r="9.2" style="fill:#ccc; stroke-width:0px;" /><circle id="SPH00442" cx="1238.34" cy="572.42" r="9.2" style="fill:#ccc; stroke-width:0px;" /><circle id="SPH00443" cx="1251.57" cy="592.45" r="9.2" style="fill:#ccc; stroke-width:0px;" /><circle id="SPH00444" cx="1264.79" cy="612.46" r="9.2" style="fill:#ccc; stroke-width:0px;" /><circle id="SPH00445" cx="1278" cy="632.53" r="9.2" style="fill:#ccc; stroke-width:0px;" /><circle id="SPH00446" cx="1290.37" cy="653.13" r="9.2" style="fill:#ccc; stroke-width:0px;" /><circle id="SPH00447" cx="1245.66" cy="511.66" r="9.2" style="fill:#ccc; stroke-width:0px;" /><circle id="SPH00448" cx="1258.88" cy="531.67" r="9.2" style="fill:#ccc; stroke-width:0px;" /><circle id="SPH00449" cx="1272.1" cy="551.69" r="9.2" style="fill:#ccc; stroke-width:0px;" /><circle id="SPH00450" cx="1285.33" cy="571.71" r="9.2" style="fill:#ccc; stroke-width:0px;" /><circle id="SPH00451" cx="1298.56" cy="591.73" r="9.2" style="fill:#ccc; stroke-width:0px;" /><circle id="SPH00452" cx="1311.73" cy="611.78" r="9.2" style="fill:#ccc; stroke-width:0px;" /><circle id="SPH00453" cx="1324.08" cy="632.34" r="9.2" style="fill:#ccc; stroke-width:0px;" /><circle id="SPH00454" cx="470.44" cy="658.93" r="9.2" style="fill:#ccc; stroke-width:0px;" /><circle id="SPH00455" cx="485.09" cy="677.42" r="9.2" style="fill:#ccc; stroke-width:0px;" /><circle id="SPH00456" cx="499.74" cy="695.92" r="9.2" style="fill:#ccc; stroke-width:0px;" /><circle id="SPH00457" cx="514.38" cy="714.42" r="9.2" style="fill:#ccc; stroke-width:0px;" /><circle id="SPH00458" cx="529.04" cy="732.92" r="9.2" style="fill:#ccc; stroke-width:0px;" /><circle id="SPH00459" cx="543.06" cy="751.9" r="9.2" style="fill:#ccc; stroke-width:0px;" /><circle id="SPH00460" cx="556.9" cy="771.01" r="9.2" style="fill:#ccc; stroke-width:0px;" /><circle id="SPH00461" cx="570.74" cy="790.12" r="9.2" style="fill:#ccc; stroke-width:0px;" /><circle id="SPH00462" cx="584.58" cy="809.22" r="9.2" style="fill:#ccc; stroke-width:0px;" /><circle id="SPH00463" cx="598.43" cy="828.34" r="9.2" style="fill:#ccc; stroke-width:0px;" /><circle id="SPH00464" cx="612.27" cy="847.45" r="9.2" style="fill:#ccc; stroke-width:0px;" /><circle id="SPH00465" cx="625.91" cy="866.7" r="9.2" style="fill:#ccc; stroke-width:0px;" /><circle id="SPH00466" cx="638.92" cy="886.39" r="9.2" style="fill:#ccc; stroke-width:0px;" /><circle id="SPH00467" cx="651.93" cy="906.08" r="9.2" style="fill:#ccc; stroke-width:0px;" /><circle id="SPH00468" cx="664.94" cy="925.78" r="9.2" style="fill:#ccc; stroke-width:0px;" /><circle id="SPH00469" cx="677.95" cy="945.46" r="9.2" style="fill:#ccc; stroke-width:0px;" /><circle id="SPH00470" cx="690.96" cy="965.16" r="9.2" style="fill:#ccc; stroke-width:0px;" /><circle id="SPH00471" cx="703.97" cy="984.86" r="9.2" style="fill:#ccc; stroke-width:0px;" /><circle id="SPH00472" cx="716.37" cy="1004.92" r="9.2" style="fill:#ccc; stroke-width:0px;" /><circle id="SPH00473" cx="502.5" cy="635.63" r="9.2" style="fill:#ccc; stroke-width:0px;" /><circle id="SPH00474" cx="517.26" cy="654.26" r="9.2" style="fill:#ccc; stroke-width:0px;" /><circle id="SPH00475" cx="532.01" cy="672.9" r="9.2" style="fill:#ccc; stroke-width:0px;" /><circle id="SPH00476" cx="546.77" cy="691.52" r="9.2" style="fill:#ccc; stroke-width:0px;" /><circle id="SPH00477" cx="561.52" cy="710.15" r="9.2" style="fill:#ccc; stroke-width:0px;" /><circle id="SPH00478" cx="575.59" cy="729.3" r="9.2" style="fill:#ccc; stroke-width:0px;" /><circle id="SPH00479" cx="589.54" cy="748.55" r="9.2" style="fill:#ccc; stroke-width:0px;" /><circle id="SPH00480" cx="603.48" cy="767.8" r="9.2" style="fill:#ccc; stroke-width:0px;" /><circle id="SPH00481" cx="617.42" cy="787.05" r="9.2" style="fill:#ccc; stroke-width:0px;" /><circle id="SPH00482" cx="631.37" cy="806.3" r="9.2" style="fill:#ccc; stroke-width:0px;" /><circle id="SPH00483" cx="645.31" cy="825.55" r="9.2" style="fill:#ccc; stroke-width:0px;" /><circle id="SPH00484" cx="659.02" cy="844.97" r="9.2" style="fill:#ccc; stroke-width:0px;" /><circle id="SPH00485" cx="672.11" cy="864.79" r="9.2" style="fill:#ccc; stroke-width:0px;" /><circle id="SPH00486" cx="685.22" cy="884.62" r="9.2" style="fill:#ccc; stroke-width:0px;" /><circle id="SPH00487" cx="698.32" cy="904.46" r="9.2" style="fill:#ccc; stroke-width:0px;" /><circle id="SPH00488" cx="711.42" cy="924.29" r="9.2" style="fill:#ccc; stroke-width:0px;" /><circle id="SPH00489" cx="724.52" cy="944.12" r="9.2" style="fill:#ccc; stroke-width:0px;" /><circle id="SPH00490" cx="737.62" cy="963.94" r="9.2" style="fill:#ccc; stroke-width:0px;" /><circle id="SPH00491" cx="750.09" cy="984.14" r="9.2" style="fill:#ccc; stroke-width:0px;" /><circle id="SPH00492" cx="534.57" cy="612.34" r="9.2" style="fill:#ccc; stroke-width:0px;" /><circle id="SPH00493" cx="549.43" cy="631.1" r="9.2" style="fill:#ccc; stroke-width:0px;" /><circle id="SPH00494" cx="564.3" cy="649.87" r="9.2" style="fill:#ccc; stroke-width:0px;" /><circle id="SPH00495" cx="579.16" cy="668.64" r="9.2" style="fill:#ccc; stroke-width:0px;" /><circle id="SPH00496" cx="594.02" cy="687.4" r="9.2" style="fill:#ccc; stroke-width:0px;" /><circle id="SPH00497" cx="608.14" cy="706.72" r="9.2" style="fill:#ccc; stroke-width:0px;" /><circle id="SPH00498" cx="622.18" cy="726.11" r="9.2" style="fill:#ccc; stroke-width:0px;" /><circle id="SPH00499" cx="636.22" cy="745.5" r="9.2" style="fill:#ccc; stroke-width:0px;" /><circle id="SPH00500" cx="650.27" cy="764.9" r="9.2" style="fill:#ccc; stroke-width:0px;" /><circle id="SPH00501" cx="664.32" cy="784.29" r="9.2" style="fill:#ccc; stroke-width:0px;" /><circle id="SPH00502" cx="678.36" cy="803.68" r="9.2" style="fill:#ccc; stroke-width:0px;" /><circle id="SPH00503" cx="692.14" cy="823.26" r="9.2" style="fill:#ccc; stroke-width:0px;" /><circle id="SPH00504" cx="705.33" cy="843.22" r="9.2" style="fill:#ccc; stroke-width:0px;" /><circle id="SPH00505" cx="718.51" cy="863.18" r="9.2" style="fill:#ccc; stroke-width:0px;" /><circle id="SPH00506" cx="731.7" cy="883.15" r="9.2" style="fill:#ccc; stroke-width:0px;" /><circle id="SPH00507" cx="744.89" cy="903.11" r="9.2" style="fill:#ccc; stroke-width:0px;" /><circle id="SPH00508" cx="758.07" cy="923.06" r="9.2" style="fill:#ccc; stroke-width:0px;" /><circle id="SPH00509" cx="771.26" cy="943.02" r="9.2" style="fill:#ccc; stroke-width:0px;" /><circle id="SPH00510" cx="783.82" cy="963.41" r="9.2" style="fill:#ccc; stroke-width:0px;" /><circle id="SPH00511" cx="566.63" cy="589.04" r="9.2" style="fill:#ccc; stroke-width:0px;" /><circle id="SPH00512" cx="580.82" cy="606.95" r="9.2" style="fill:#ccc; stroke-width:0px;" /><circle id="SPH00513" cx="595" cy="624.86" r="9.2" style="fill:#ccc; stroke-width:0px;" /><circle id="SPH00514" cx="609.18" cy="642.76" r="9.2" style="fill:#ccc; stroke-width:0px;" /><circle id="SPH00515" cx="623.36" cy="660.67" r="9.2" style="fill:#ccc; stroke-width:0px;" /><circle id="SPH00516" cx="636.97" cy="679.02" r="9.2" style="fill:#ccc; stroke-width:0px;" /><circle id="SPH00517" cx="650.37" cy="697.52" r="9.2" style="fill:#ccc; stroke-width:0px;" /><circle id="SPH00518" cx="663.77" cy="716.02" r="9.2" style="fill:#ccc; stroke-width:0px;" /><circle id="SPH00519" cx="677.17" cy="734.52" r="9.2" style="fill:#ccc; stroke-width:0px;" /><circle id="SPH00520" cx="690.57" cy="753.02" r="9.2" style="fill:#ccc; stroke-width:0px;" /><circle id="SPH00521" cx="703.98" cy="771.53" r="9.2" style="fill:#ccc; stroke-width:0px;" /><circle id="SPH00522" cx="717.38" cy="790.03" r="9.2" style="fill:#ccc; stroke-width:0px;" /><circle id="SPH00523" cx="730.15" cy="808.96" r="9.2" style="fill:#ccc; stroke-width:0px;" /><circle id="SPH00524" cx="742.74" cy="828.02" r="9.2" style="fill:#ccc; stroke-width:0px;" /><circle id="SPH00525" cx="755.33" cy="847.07" r="9.2" style="fill:#ccc; stroke-width:0px;" /><circle id="SPH00526" cx="767.93" cy="866.14" r="9.2" style="fill:#ccc; stroke-width:0px;" /><circle id="SPH00527" cx="780.53" cy="885.22" r="9.2" style="fill:#ccc; stroke-width:0px;" /><circle id="SPH00528" cx="793.12" cy="904.27" r="9.2" style="fill:#ccc; stroke-width:0px;" /><circle id="SPH00529" cx="805.72" cy="923.34" r="9.2" style="fill:#ccc; stroke-width:0px;" /><circle id="SPH00530" cx="817.66" cy="942.83" r="9.2" style="fill:#ccc; stroke-width:0px;" /><circle id="SPH00531" cx="598.7" cy="565.74" r="9.2" style="fill:#ccc; stroke-width:0px;" /><circle id="SPH00532" cx="612.98" cy="583.78" r="9.2" style="fill:#ccc; stroke-width:0px;" /><circle id="SPH00533" cx="627.26" cy="601.82" r="9.2" style="fill:#ccc; stroke-width:0px;" /><circle id="SPH00534" cx="641.55" cy="619.86" r="9.2" style="fill:#ccc; stroke-width:0px;" /><circle id="SPH00535" cx="655.83" cy="637.89" r="9.2" style="fill:#ccc; stroke-width:0px;" /><circle id="SPH00536" cx="669.49" cy="656.41" r="9.2" style="fill:#ccc; stroke-width:0px;" /><circle id="SPH00537" cx="682.98" cy="675.04" r="9.2" style="fill:#ccc; stroke-width:0px;" /><circle id="SPH00538" cx="696.48" cy="693.68" r="9.2" style="fill:#ccc; stroke-width:0px;" /><circle id="SPH00539" cx="709.98" cy="712.32" r="9.2" style="fill:#ccc; stroke-width:0px;" /><circle id="SPH00540" cx="723.48" cy="730.95" r="9.2" style="fill:#ccc; stroke-width:0px;" /><circle id="SPH00541" cx="736.98" cy="749.59" r="9.2" style="fill:#ccc; stroke-width:0px;" /><circle id="SPH00542" cx="750.48" cy="768.23" r="9.2" style="fill:#ccc; stroke-width:0px;" /><circle id="SPH00543" cx="763.31" cy="787.32" r="9.2" style="fill:#ccc; stroke-width:0px;" /><circle id="SPH00544" cx="776" cy="806.53" r="9.2" style="fill:#ccc; stroke-width:0px;" /><circle id="SPH00545" cx="788.69" cy="825.73" r="9.2" style="fill:#ccc; stroke-width:0px;" /><circle id="SPH00546" cx="801.38" cy="844.94" r="9.2" style="fill:#ccc; stroke-width:0px;" /><circle id="SPH00547" cx="814.07" cy="864.14" r="9.2" style="fill:#ccc; stroke-width:0px;" /><circle id="SPH00548" cx="826.75" cy="883.34" r="9.2" style="fill:#ccc; stroke-width:0px;" /><circle id="SPH00549" cx="839.43" cy="902.54" r="9.2" style="fill:#ccc; stroke-width:0px;" /><circle id="SPH00550" cx="851.42" cy="922.14" r="9.2" style="fill:#ccc; stroke-width:0px;" /><circle id="SPH00551" cx="630.76" cy="542.45" r="9.2" style="fill:#ccc; stroke-width:0px;" /><circle id="SPH00552" cx="645.14" cy="560.62" r="9.2" style="fill:#ccc; stroke-width:0px;" /><circle id="SPH00553" cx="659.53" cy="578.78" r="9.2" style="fill:#ccc; stroke-width:0px;" /><circle id="SPH00554" cx="673.91" cy="596.93" r="9.2" style="fill:#ccc; stroke-width:0px;" /><circle id="SPH00555" cx="688.3" cy="615.09" r="9.2" style="fill:#ccc; stroke-width:0px;" /><circle id="SPH00556" cx="701.99" cy="633.78" r="9.2" style="fill:#ccc; stroke-width:0px;" /><circle id="SPH00557" cx="715.58" cy="652.54" r="9.2" style="fill:#ccc; stroke-width:0px;" /><circle id="SPH00558" cx="729.18" cy="671.31" r="9.2" style="fill:#ccc; stroke-width:0px;" /><circle id="SPH00559" cx="742.77" cy="690.07" r="9.2" style="fill:#ccc; stroke-width:0px;" /><circle id="SPH00560" cx="756.36" cy="708.84" r="9.2" style="fill:#ccc; stroke-width:0px;" /><circle id="SPH00561" cx="769.95" cy="727.61" r="9.2" style="fill:#ccc; stroke-width:0px;" /><circle id="SPH00562" cx="783.54" cy="746.37" r="9.2" style="fill:#ccc; stroke-width:0px;" /><circle id="SPH00563" cx="796.44" cy="765.62" r="9.2" style="fill:#ccc; stroke-width:0px;" /><circle id="SPH00564" cx="809.22" cy="784.96" r="9.2" style="fill:#ccc; stroke-width:0px;" /><circle id="SPH00565" cx="822" cy="804.3" r="9.2" style="fill:#ccc; stroke-width:0px;" /><circle id="SPH00566" cx="834.78" cy="823.65" r="9.2" style="fill:#ccc; stroke-width:0px;" /><circle id="SPH00567" cx="847.56" cy="842.99" r="9.2" style="fill:#ccc; stroke-width:0px;" /><circle id="SPH00568" cx="860.34" cy="862.34" r="9.2" style="fill:#ccc; stroke-width:0px;" /><circle id="SPH00569" cx="873.12" cy="881.69" r="9.2" style="fill:#ccc; stroke-width:0px;" /><circle id="SPH00570" cx="885.19" cy="901.45" r="9.2" style="fill:#ccc; stroke-width:0px;" /><circle id="SPH00571" cx="662.82" cy="519.15" r="9.2" style="fill:#ccc; stroke-width:0px;" /><circle id="SPH00572" cx="677.31" cy="537.45" r="9.2" style="fill:#ccc; stroke-width:0px;" /><circle id="SPH00573" cx="691.8" cy="555.74" r="9.2" style="fill:#ccc; stroke-width:0px;" /><circle id="SPH00574" cx="706.29" cy="574.03" r="9.2" style="fill:#ccc; stroke-width:0px;" /><circle id="SPH00575" cx="720.78" cy="592.33" r="9.2" style="fill:#ccc; stroke-width:0px;" /><circle id="SPH00576" cx="734.52" cy="611.18" r="9.2" style="fill:#ccc; stroke-width:0px;" /><circle id="SPH00577" cx="748.21" cy="630.08" r="9.2" style="fill:#ccc; stroke-width:0px;" /><circle id="SPH00578" cx="761.9" cy="648.98" r="9.2" style="fill:#ccc; stroke-width:0px;" /><circle id="SPH00579" cx="775.58" cy="667.88" r="9.2" style="fill:#ccc; stroke-width:0px;" /><circle id="SPH00580" cx="789.27" cy="686.78" r="9.2" style="fill:#ccc; stroke-width:0px;" /><circle id="SPH00581" cx="802.96" cy="705.66" r="9.2" style="fill:#ccc; stroke-width:0px;" /><circle id="SPH00582" cx="816.64" cy="724.56" r="9.2" style="fill:#ccc; stroke-width:0px;" /><circle id="SPH00583" cx="829.59" cy="743.96" r="9.2" style="fill:#ccc; stroke-width:0px;" /><circle id="SPH00584" cx="842.46" cy="763.43" r="9.2" style="fill:#ccc; stroke-width:0px;" /><circle id="SPH00585" cx="855.32" cy="782.9" r="9.2" style="fill:#ccc; stroke-width:0px;" /><circle id="SPH00586" cx="868.18" cy="802.37" r="9.2" style="fill:#ccc; stroke-width:0px;" /><circle id="SPH00587" cx="881.04" cy="821.83" r="9.2" style="fill:#ccc; stroke-width:0px;" /><circle id="SPH00588" cx="893.9" cy="841.31" r="9.2" style="fill:#ccc; stroke-width:0px;" /><circle id="SPH00589" cx="906.77" cy="860.78" r="9.2" style="fill:#ccc; stroke-width:0px;" /><circle id="SPH00590" cx="918.92" cy="880.7" r="9.2" style="fill:#ccc; stroke-width:0px;" /><circle id="SPH00591" cx="694.89" cy="495.86" r="9.2" style="fill:#ccc; stroke-width:0px;" /><circle id="SPH00592" cx="709.48" cy="514.28" r="9.2" style="fill:#ccc; stroke-width:0px;" /><circle id="SPH00593" cx="724.07" cy="532.7" r="9.2" style="fill:#ccc; stroke-width:0px;" /><circle id="SPH00594" cx="738.66" cy="551.12" r="9.2" style="fill:#ccc; stroke-width:0px;" /><circle id="SPH00595" cx="753.26" cy="569.55" r="9.2" style="fill:#ccc; stroke-width:0px;" /><circle id="SPH00596" cx="767.04" cy="588.58" r="9.2" style="fill:#ccc; stroke-width:0px;" /><circle id="SPH00597" cx="780.83" cy="607.61" r="9.2" style="fill:#ccc; stroke-width:0px;" /><circle id="SPH00598" cx="794.61" cy="626.64" r="9.2" style="fill:#ccc; stroke-width:0px;" /><circle id="SPH00599" cx="808.4" cy="645.67" r="9.2" style="fill:#ccc; stroke-width:0px;" /><circle id="SPH00600" cx="822.18" cy="664.7" r="9.2" style="fill:#ccc; stroke-width:0px;" /><circle id="SPH00601" cx="835.97" cy="683.74" r="9.2" style="fill:#ccc; stroke-width:0px;" /><circle id="SPH00602" cx="849.76" cy="702.78" r="9.2" style="fill:#ccc; stroke-width:0px;" /><circle id="SPH00603" cx="862.76" cy="722.33" r="9.2" style="fill:#ccc; stroke-width:0px;" /><circle id="SPH00604" cx="875.71" cy="741.92" r="9.2" style="fill:#ccc; stroke-width:0px;" /><circle id="SPH00605" cx="888.66" cy="761.51" r="9.2" style="fill:#ccc; stroke-width:0px;" /><circle id="SPH00606" cx="901.59" cy="781.1" r="9.2" style="fill:#ccc; stroke-width:0px;" /><circle id="SPH00607" cx="914.54" cy="800.7" r="9.2" style="fill:#ccc; stroke-width:0px;" /><circle id="SPH00608" cx="927.48" cy="820.29" r="9.2" style="fill:#ccc; stroke-width:0px;" /><circle id="SPH00609" cx="940.42" cy="839.88" r="9.2" style="fill:#ccc; stroke-width:0px;" /><circle id="SPH00610" cx="952.66" cy="859.97" r="9.2" style="fill:#ccc; stroke-width:0px;" /><circle id="SPH00611" cx="726.96" cy="472.56" r="9.2" style="fill:#ccc; stroke-width:0px;" /><circle id="SPH00612" cx="741.65" cy="491.11" r="9.2" style="fill:#ccc; stroke-width:0px;" /><circle id="SPH00613" cx="756.34" cy="509.66" r="9.2" style="fill:#ccc; stroke-width:0px;" /><circle id="SPH00614" cx="771.02" cy="528.2" r="9.2" style="fill:#ccc; stroke-width:0px;" /><circle id="SPH00615" cx="785.66" cy="546.78" r="9.2" style="fill:#ccc; stroke-width:0px;" /><circle id="SPH00616" cx="799.54" cy="565.94" r="9.2" style="fill:#ccc; stroke-width:0px;" /><circle id="SPH00617" cx="813.42" cy="585.11" r="9.2" style="fill:#ccc; stroke-width:0px;" /><circle id="SPH00618" cx="827.31" cy="604.27" r="9.2" style="fill:#ccc; stroke-width:0px;" /><circle id="SPH00619" cx="841.19" cy="623.44" r="9.2" style="fill:#ccc; stroke-width:0px;" /><circle id="SPH00620" cx="855.07" cy="642.61" r="9.2" style="fill:#ccc; stroke-width:0px;" /><circle id="SPH00621" cx="868.96" cy="661.78" r="9.2" style="fill:#ccc; stroke-width:0px;" /><circle id="SPH00622" cx="882.84" cy="680.94" r="9.2" style="fill:#ccc; stroke-width:0px;" /><circle id="SPH00623" cx="895.9" cy="700.65" r="9.2" style="fill:#ccc; stroke-width:0px;" /><circle id="SPH00624" cx="908.92" cy="720.35" r="9.2" style="fill:#ccc; stroke-width:0px;" /><circle id="SPH00625" cx="921.94" cy="740.07" r="9.2" style="fill:#ccc; stroke-width:0px;" /><circle id="SPH00626" cx="934.97" cy="759.78" r="9.2" style="fill:#ccc; stroke-width:0px;" /><circle id="SPH00627" cx="948" cy="779.5" r="9.2" style="fill:#ccc; stroke-width:0px;" /><circle id="SPH00628" cx="961.03" cy="799.24" r="9.2" style="fill:#ccc; stroke-width:0px;" /><circle id="SPH00629" cx="974.07" cy="818.98" r="9.2" style="fill:#ccc; stroke-width:0px;" /><circle id="SPH00630" cx="986.37" cy="839.17" r="9.2" style="fill:#ccc; stroke-width:0px;" /><circle id="SPH00631" cx="759.02" cy="449.26" r="9.2" style="fill:#ccc; stroke-width:0px;" /><circle id="SPH00632" cx="773.82" cy="467.94" r="9.2" style="fill:#ccc; stroke-width:0px;" /><circle id="SPH00633" cx="788.61" cy="486.62" r="9.2" style="fill:#ccc; stroke-width:0px;" /><circle id="SPH00634" cx="803.39" cy="505.3" r="9.2" style="fill:#ccc; stroke-width:0px;" /><circle id="SPH00635" cx="818.1" cy="524.05" r="9.2" style="fill:#ccc; stroke-width:0px;" /><circle id="SPH00636" cx="832.07" cy="543.34" r="9.2" style="fill:#ccc; stroke-width:0px;" /><circle id="SPH00637" cx="846.04" cy="562.63" r="9.2" style="fill:#ccc; stroke-width:0px;" /><circle id="SPH00638" cx="860.02" cy="581.93" r="9.2" style="fill:#ccc; stroke-width:0px;" /><circle id="SPH00639" cx="873.99" cy="601.22" r="9.2" style="fill:#ccc; stroke-width:0px;" /><circle id="SPH00640" cx="887.96" cy="620.5" r="9.2" style="fill:#ccc; stroke-width:0px;" /><circle id="SPH00641" cx="901.94" cy="639.8" r="9.2" style="fill:#ccc; stroke-width:0px;" /><circle id="SPH00642" cx="915.9" cy="659.09" r="9.2" style="fill:#ccc; stroke-width:0px;" /><circle id="SPH00643" cx="929.02" cy="678.93" r="9.2" style="fill:#ccc; stroke-width:0px;" /><circle id="SPH00644" cx="942.12" cy="698.77" r="9.2" style="fill:#ccc; stroke-width:0px;" /><circle id="SPH00645" cx="955.22" cy="718.61" r="9.2" style="fill:#ccc; stroke-width:0px;" /><circle id="SPH00646" cx="968.34" cy="738.46" r="9.2" style="fill:#ccc; stroke-width:0px;" /><circle id="SPH00647" cx="981.47" cy="758.33" r="9.2" style="fill:#ccc; stroke-width:0px;" /><circle id="SPH00648" cx="994.6" cy="778.21" r="9.2" style="fill:#ccc; stroke-width:0px;" /><circle id="SPH00649" cx="1007.74" cy="798.09" r="9.2" style="fill:#ccc; stroke-width:0px;" /><circle id="SPH00650" cx="1020.12" cy="818.46" r="9.2" transform="translate(48.82 1694.3) rotate(-80.78)" style="fill:#ccc; stroke-width:0px;" /></g></svg>